<svg width="987" height="610" viewBox="0 0 987 610" xmlns="http://www.w3.org/2000/svg">
<line opacity="0.1" stroke="#000000" stroke-width="1" x1="40" y1="579" x2="40" y2="9"/>
<line opacity="0.1" stroke="#000000" stroke-width="1" x1="49" y1="579" x2="49" y2="9"/>
<line opacity="0.1" stroke="#000000" stroke-width="1" x1="59" y1="579" x2="59" y2="9"/>
<line opacity="0.1" stroke="#000000" stroke-width="1" x1="68" y1="579" x2="68" y2="9"/>
<line opacity="0.1" stroke="#000000" stroke-width="1" x1="78" y1="579" x2="78" y2="9"/>
<line opacity="0.1" stroke="#000000" stroke-width="1" x1="88" y1="579" x2="88" y2="9"/>
<line opacity="0.1" stroke="#000000" stroke-width="1" x1="97" y1="579" x2="97" y2="9"/>
<line opacity="0.1" stroke="#000000" stroke-width="1" x1="107" y1="579" x2="107" y2="9"/>
<line opacity="0.1" stroke="#000000" stroke-width="1" x1="117" y1="579" x2="117" y2="9"/>
<line opacity="0.1" stroke="#000000" stroke-width="1" x1="126" y1="579" x2="126" y2="9"/>
<line opacity="0.1" stroke="#000000" stroke-width="1" x1="136" y1="579" x2="136" y2="9"/>
<line opacity="0.1" stroke="#000000" stroke-width="1" x1="146" y1="579" x2="146" y2="9"/>
<line opacity="0.1" stroke="#000000" stroke-width="1" x1="155" y1="579" x2="155" y2="9"/>
<line opacity="0.1" stroke="#000000" stroke-width="1" x1="165" y1="579" x2="165" y2="9"/>
<line opacity="0.1" stroke="#000000" stroke-width="1" x1="175" y1="579" x2="175" y2="9"/>
<line opacity="0.1" stroke="#000000" stroke-width="1" x1="184" y1="579" x2="184" y2="9"/>
<line opacity="0.1" stroke="#000000" stroke-width="1" x1="194" y1="579" x2="194" y2="9"/>
<line opacity="0.1" stroke="#000000" stroke-width="1" x1="204" y1="579" x2="204" y2="9"/>
<line opacity="0.1" stroke="#000000" stroke-width="1" x1="213" y1="579" x2="213" y2="9"/>
<line opacity="0.1" stroke="#000000" stroke-width="1" x1="223" y1="579" x2="223" y2="9"/>
<line opacity="0.1" stroke="#000000" stroke-width="1" x1="233" y1="579" x2="233" y2="9"/>
<line opacity="0.1" stroke="#000000" stroke-width="1" x1="242" y1="579" x2="242" y2="9"/>
<line opacity="0.1" stroke="#000000" stroke-width="1" x1="252" y1="579" x2="252" y2="9"/>
<line opacity="0.1" stroke="#000000" stroke-width="1" x1="262" y1="579" x2="262" y2="9"/>
<line opacity="0.1" stroke="#000000" stroke-width="1" x1="271" y1="579" x2="271" y2="9"/>
<line opacity="0.1" stroke="#000000" stroke-width="1" x1="281" y1="579" x2="281" y2="9"/>
<line opacity="0.1" stroke="#000000" stroke-width="1" x1="291" y1="579" x2="291" y2="9"/>
<line opacity="0.1" stroke="#000000" stroke-width="1" x1="300" y1="579" x2="300" y2="9"/>
<line opacity="0.1" stroke="#000000" stroke-width="1" x1="310" y1="579" x2="310" y2="9"/>
<line opacity="0.1" stroke="#000000" stroke-width="1" x1="319" y1="579" x2="319" y2="9"/>
<line opacity="0.1" stroke="#000000" stroke-width="1" x1="329" y1="579" x2="329" y2="9"/>
<line opacity="0.1" stroke="#000000" stroke-width="1" x1="339" y1="579" x2="339" y2="9"/>
<line opacity="0.1" stroke="#000000" stroke-width="1" x1="348" y1="579" x2="348" y2="9"/>
<line opacity="0.1" stroke="#000000" stroke-width="1" x1="358" y1="579" x2="358" y2="9"/>
<line opacity="0.1" stroke="#000000" stroke-width="1" x1="368" y1="579" x2="368" y2="9"/>
<line opacity="0.1" stroke="#000000" stroke-width="1" x1="377" y1="579" x2="377" y2="9"/>
<line opacity="0.1" stroke="#000000" stroke-width="1" x1="387" y1="579" x2="387" y2="9"/>
<line opacity="0.1" stroke="#000000" stroke-width="1" x1="397" y1="579" x2="397" y2="9"/>
<line opacity="0.1" stroke="#000000" stroke-width="1" x1="406" y1="579" x2="406" y2="9"/>
<line opacity="0.1" stroke="#000000" stroke-width="1" x1="416" y1="579" x2="416" y2="9"/>
<line opacity="0.1" stroke="#000000" stroke-width="1" x1="426" y1="579" x2="426" y2="9"/>
<line opacity="0.1" stroke="#000000" stroke-width="1" x1="435" y1="579" x2="435" y2="9"/>
<line opacity="0.1" stroke="#000000" stroke-width="1" x1="445" y1="579" x2="445" y2="9"/>
<line opacity="0.1" stroke="#000000" stroke-width="1" x1="455" y1="579" x2="455" y2="9"/>
<line opacity="0.1" stroke="#000000" stroke-width="1" x1="464" y1="579" x2="464" y2="9"/>
<line opacity="0.1" stroke="#000000" stroke-width="1" x1="474" y1="579" x2="474" y2="9"/>
<line opacity="0.1" stroke="#000000" stroke-width="1" x1="484" y1="579" x2="484" y2="9"/>
<line opacity="0.1" stroke="#000000" stroke-width="1" x1="493" y1="579" x2="493" y2="9"/>
<line opacity="0.1" stroke="#000000" stroke-width="1" x1="503" y1="579" x2="503" y2="9"/>
<line opacity="0.1" stroke="#000000" stroke-width="1" x1="513" y1="579" x2="513" y2="9"/>
<line opacity="0.1" stroke="#000000" stroke-width="1" x1="522" y1="579" x2="522" y2="9"/>
<line opacity="0.1" stroke="#000000" stroke-width="1" x1="532" y1="579" x2="532" y2="9"/>
<line opacity="0.1" stroke="#000000" stroke-width="1" x1="542" y1="579" x2="542" y2="9"/>
<line opacity="0.1" stroke="#000000" stroke-width="1" x1="551" y1="579" x2="551" y2="9"/>
<line opacity="0.1" stroke="#000000" stroke-width="1" x1="561" y1="579" x2="561" y2="9"/>
<line opacity="0.1" stroke="#000000" stroke-width="1" x1="570" y1="579" x2="570" y2="9"/>
<line opacity="0.1" stroke="#000000" stroke-width="1" x1="580" y1="579" x2="580" y2="9"/>
<line opacity="0.1" stroke="#000000" stroke-width="1" x1="590" y1="579" x2="590" y2="9"/>
<line opacity="0.1" stroke="#000000" stroke-width="1" x1="599" y1="579" x2="599" y2="9"/>
<line opacity="0.1" stroke="#000000" stroke-width="1" x1="609" y1="579" x2="609" y2="9"/>
<line opacity="0.1" stroke="#000000" stroke-width="1" x1="619" y1="579" x2="619" y2="9"/>
<line opacity="0.1" stroke="#000000" stroke-width="1" x1="628" y1="579" x2="628" y2="9"/>
<line opacity="0.1" stroke="#000000" stroke-width="1" x1="638" y1="579" x2="638" y2="9"/>
<line opacity="0.1" stroke="#000000" stroke-width="1" x1="648" y1="579" x2="648" y2="9"/>
<line opacity="0.1" stroke="#000000" stroke-width="1" x1="657" y1="579" x2="657" y2="9"/>
<line opacity="0.1" stroke="#000000" stroke-width="1" x1="667" y1="579" x2="667" y2="9"/>
<line opacity="0.1" stroke="#000000" stroke-width="1" x1="677" y1="579" x2="677" y2="9"/>
<line opacity="0.1" stroke="#000000" stroke-width="1" x1="686" y1="579" x2="686" y2="9"/>
<line opacity="0.1" stroke="#000000" stroke-width="1" x1="696" y1="579" x2="696" y2="9"/>
<line opacity="0.1" stroke="#000000" stroke-width="1" x1="706" y1="579" x2="706" y2="9"/>
<line opacity="0.1" stroke="#000000" stroke-width="1" x1="715" y1="579" x2="715" y2="9"/>
<line opacity="0.1" stroke="#000000" stroke-width="1" x1="725" y1="579" x2="725" y2="9"/>
<line opacity="0.1" stroke="#000000" stroke-width="1" x1="735" y1="579" x2="735" y2="9"/>
<line opacity="0.1" stroke="#000000" stroke-width="1" x1="744" y1="579" x2="744" y2="9"/>
<line opacity="0.1" stroke="#000000" stroke-width="1" x1="754" y1="579" x2="754" y2="9"/>
<line opacity="0.1" stroke="#000000" stroke-width="1" x1="764" y1="579" x2="764" y2="9"/>
<line opacity="0.1" stroke="#000000" stroke-width="1" x1="773" y1="579" x2="773" y2="9"/>
<line opacity="0.1" stroke="#000000" stroke-width="1" x1="783" y1="579" x2="783" y2="9"/>
<line opacity="0.1" stroke="#000000" stroke-width="1" x1="793" y1="579" x2="793" y2="9"/>
<line opacity="0.1" stroke="#000000" stroke-width="1" x1="802" y1="579" x2="802" y2="9"/>
<line opacity="0.1" stroke="#000000" stroke-width="1" x1="812" y1="579" x2="812" y2="9"/>
<line opacity="0.1" stroke="#000000" stroke-width="1" x1="821" y1="579" x2="821" y2="9"/>
<line opacity="0.1" stroke="#000000" stroke-width="1" x1="831" y1="579" x2="831" y2="9"/>
<line opacity="0.1" stroke="#000000" stroke-width="1" x1="841" y1="579" x2="841" y2="9"/>
<line opacity="0.1" stroke="#000000" stroke-width="1" x1="850" y1="579" x2="850" y2="9"/>
<line opacity="0.1" stroke="#000000" stroke-width="1" x1="860" y1="579" x2="860" y2="9"/>
<line opacity="0.1" stroke="#000000" stroke-width="1" x1="870" y1="579" x2="870" y2="9"/>
<line opacity="0.1" stroke="#000000" stroke-width="1" x1="879" y1="579" x2="879" y2="9"/>
<line opacity="0.1" stroke="#000000" stroke-width="1" x1="889" y1="579" x2="889" y2="9"/>
<line opacity="0.1" stroke="#000000" stroke-width="1" x1="899" y1="579" x2="899" y2="9"/>
<line opacity="0.1" stroke="#000000" stroke-width="1" x1="908" y1="579" x2="908" y2="9"/>
<line opacity="0.1" stroke="#000000" stroke-width="1" x1="918" y1="579" x2="918" y2="9"/>
<line opacity="0.1" stroke="#000000" stroke-width="1" x1="928" y1="579" x2="928" y2="9"/>
<line opacity="0.1" stroke="#000000" stroke-width="1" x1="937" y1="579" x2="937" y2="9"/>
<line opacity="0.1" stroke="#000000" stroke-width="1" x1="40" y1="567" x2="947" y2="567"/>
<line opacity="0.1" stroke="#000000" stroke-width="1" x1="40" y1="556" x2="947" y2="556"/>
<line opacity="0.1" stroke="#000000" stroke-width="1" x1="40" y1="545" x2="947" y2="545"/>
<line opacity="0.1" stroke="#000000" stroke-width="1" x1="40" y1="533" x2="947" y2="533"/>
<line opacity="0.1" stroke="#000000" stroke-width="1" x1="40" y1="522" x2="947" y2="522"/>
<line opacity="0.1" stroke="#000000" stroke-width="1" x1="40" y1="511" x2="947" y2="511"/>
<line opacity="0.1" stroke="#000000" stroke-width="1" x1="40" y1="499" x2="947" y2="499"/>
<line opacity="0.1" stroke="#000000" stroke-width="1" x1="40" y1="488" x2="947" y2="488"/>
<line opacity="0.1" stroke="#000000" stroke-width="1" x1="40" y1="477" x2="947" y2="477"/>
<line opacity="0.1" stroke="#000000" stroke-width="1" x1="40" y1="466" x2="947" y2="466"/>
<line opacity="0.1" stroke="#000000" stroke-width="1" x1="40" y1="454" x2="947" y2="454"/>
<line opacity="0.1" stroke="#000000" stroke-width="1" x1="40" y1="443" x2="947" y2="443"/>
<line opacity="0.1" stroke="#000000" stroke-width="1" x1="40" y1="432" x2="947" y2="432"/>
<line opacity="0.1" stroke="#000000" stroke-width="1" x1="40" y1="420" x2="947" y2="420"/>
<line opacity="0.1" stroke="#000000" stroke-width="1" x1="40" y1="409" x2="947" y2="409"/>
<line opacity="0.1" stroke="#000000" stroke-width="1" x1="40" y1="398" x2="947" y2="398"/>
<line opacity="0.1" stroke="#000000" stroke-width="1" x1="40" y1="387" x2="947" y2="387"/>
<line opacity="0.1" stroke="#000000" stroke-width="1" x1="40" y1="375" x2="947" y2="375"/>
<line opacity="0.1" stroke="#000000" stroke-width="1" x1="40" y1="364" x2="947" y2="364"/>
<line opacity="0.1" stroke="#000000" stroke-width="1" x1="40" y1="353" x2="947" y2="353"/>
<line opacity="0.1" stroke="#000000" stroke-width="1" x1="40" y1="341" x2="947" y2="341"/>
<line opacity="0.1" stroke="#000000" stroke-width="1" x1="40" y1="330" x2="947" y2="330"/>
<line opacity="0.1" stroke="#000000" stroke-width="1" x1="40" y1="319" x2="947" y2="319"/>
<line opacity="0.1" stroke="#000000" stroke-width="1" x1="40" y1="308" x2="947" y2="308"/>
<line opacity="0.1" stroke="#000000" stroke-width="1" x1="40" y1="296" x2="947" y2="296"/>
<line opacity="0.1" stroke="#000000" stroke-width="1" x1="40" y1="285" x2="947" y2="285"/>
<line opacity="0.1" stroke="#000000" stroke-width="1" x1="40" y1="274" x2="947" y2="274"/>
<line opacity="0.1" stroke="#000000" stroke-width="1" x1="40" y1="262" x2="947" y2="262"/>
<line opacity="0.1" stroke="#000000" stroke-width="1" x1="40" y1="251" x2="947" y2="251"/>
<line opacity="0.1" stroke="#000000" stroke-width="1" x1="40" y1="240" x2="947" y2="240"/>
<line opacity="0.1" stroke="#000000" stroke-width="1" x1="40" y1="229" x2="947" y2="229"/>
<line opacity="0.1" stroke="#000000" stroke-width="1" x1="40" y1="217" x2="947" y2="217"/>
<line opacity="0.1" stroke="#000000" stroke-width="1" x1="40" y1="206" x2="947" y2="206"/>
<line opacity="0.1" stroke="#000000" stroke-width="1" x1="40" y1="195" x2="947" y2="195"/>
<line opacity="0.1" stroke="#000000" stroke-width="1" x1="40" y1="183" x2="947" y2="183"/>
<line opacity="0.1" stroke="#000000" stroke-width="1" x1="40" y1="172" x2="947" y2="172"/>
<line opacity="0.1" stroke="#000000" stroke-width="1" x1="40" y1="161" x2="947" y2="161"/>
<line opacity="0.1" stroke="#000000" stroke-width="1" x1="40" y1="150" x2="947" y2="150"/>
<line opacity="0.1" stroke="#000000" stroke-width="1" x1="40" y1="138" x2="947" y2="138"/>
<line opacity="0.1" stroke="#000000" stroke-width="1" x1="40" y1="127" x2="947" y2="127"/>
<line opacity="0.1" stroke="#000000" stroke-width="1" x1="40" y1="116" x2="947" y2="116"/>
<line opacity="0.1" stroke="#000000" stroke-width="1" x1="40" y1="104" x2="947" y2="104"/>
<line opacity="0.1" stroke="#000000" stroke-width="1" x1="40" y1="93" x2="947" y2="93"/>
<line opacity="0.1" stroke="#000000" stroke-width="1" x1="40" y1="82" x2="947" y2="82"/>
<line opacity="0.1" stroke="#000000" stroke-width="1" x1="40" y1="71" x2="947" y2="71"/>
<line opacity="0.1" stroke="#000000" stroke-width="1" x1="40" y1="59" x2="947" y2="59"/>
<line opacity="0.1" stroke="#000000" stroke-width="1" x1="40" y1="48" x2="947" y2="48"/>
<line opacity="0.1" stroke="#000000" stroke-width="1" x1="40" y1="37" x2="947" y2="37"/>
<line opacity="0.1" stroke="#000000" stroke-width="1" x1="40" y1="25" x2="947" y2="25"/>
<line opacity="0.1" stroke="#000000" stroke-width="1" x1="40" y1="14" x2="947" y2="14"/>
<line opacity="0.2" stroke="#000000" stroke-width="1" x1="40" y1="579" x2="40" y2="9"/>
<line opacity="0.2" stroke="#000000" stroke-width="1" x1="136" y1="579" x2="136" y2="9"/>
<line opacity="0.2" stroke="#000000" stroke-width="1" x1="233" y1="579" x2="233" y2="9"/>
<line opacity="0.2" stroke="#000000" stroke-width="1" x1="329" y1="579" x2="329" y2="9"/>
<line opacity="0.2" stroke="#000000" stroke-width="1" x1="426" y1="579" x2="426" y2="9"/>
<line opacity="0.2" stroke="#000000" stroke-width="1" x1="522" y1="579" x2="522" y2="9"/>
<line opacity="0.2" stroke="#000000" stroke-width="1" x1="619" y1="579" x2="619" y2="9"/>
<line opacity="0.2" stroke="#000000" stroke-width="1" x1="715" y1="579" x2="715" y2="9"/>
<line opacity="0.2" stroke="#000000" stroke-width="1" x1="812" y1="579" x2="812" y2="9"/>
<line opacity="0.2" stroke="#000000" stroke-width="1" x1="908" y1="579" x2="908" y2="9"/>
<line opacity="0.2" stroke="#000000" stroke-width="1" x1="40" y1="522" x2="947" y2="522"/>
<line opacity="0.2" stroke="#000000" stroke-width="1" x1="40" y1="466" x2="947" y2="466"/>
<line opacity="0.2" stroke="#000000" stroke-width="1" x1="40" y1="409" x2="947" y2="409"/>
<line opacity="0.2" stroke="#000000" stroke-width="1" x1="40" y1="353" x2="947" y2="353"/>
<line opacity="0.2" stroke="#000000" stroke-width="1" x1="40" y1="296" x2="947" y2="296"/>
<line opacity="0.2" stroke="#000000" stroke-width="1" x1="40" y1="240" x2="947" y2="240"/>
<line opacity="0.2" stroke="#000000" stroke-width="1" x1="40" y1="183" x2="947" y2="183"/>
<line opacity="0.2" stroke="#000000" stroke-width="1" x1="40" y1="127" x2="947" y2="127"/>
<line opacity="0.2" stroke="#000000" stroke-width="1" x1="40" y1="71" x2="947" y2="71"/>
<line opacity="0.2" stroke="#000000" stroke-width="1" x1="40" y1="14" x2="947" y2="14"/>
<polyline fill="none" opacity="1" stroke="#000000" stroke-width="1" points="39,10 39,580 "/>
<text x="30" y="522" dy="0.5ex" text-anchor="end" font-family="sans-serif" font-size="9.67741935483871" opacity="1" fill="#000000">
10%
</text>
<polyline fill="none" opacity="1" stroke="#000000" stroke-width="1" points="34,522 39,522 "/>
<text x="30" y="466" dy="0.5ex" text-anchor="end" font-family="sans-serif" font-size="9.67741935483871" opacity="1" fill="#000000">
20%
</text>
<polyline fill="none" opacity="1" stroke="#000000" stroke-width="1" points="34,466 39,466 "/>
<text x="30" y="409" dy="0.5ex" text-anchor="end" font-family="sans-serif" font-size="9.67741935483871" opacity="1" fill="#000000">
30%
</text>
<polyline fill="none" opacity="1" stroke="#000000" stroke-width="1" points="34,409 39,409 "/>
<text x="30" y="353" dy="0.5ex" text-anchor="end" font-family="sans-serif" font-size="9.67741935483871" opacity="1" fill="#000000">
40%
</text>
<polyline fill="none" opacity="1" stroke="#000000" stroke-width="1" points="34,353 39,353 "/>
<text x="30" y="296" dy="0.5ex" text-anchor="end" font-family="sans-serif" font-size="9.67741935483871" opacity="1" fill="#000000">
50%
</text>
<polyline fill="none" opacity="1" stroke="#000000" stroke-width="1" points="34,296 39,296 "/>
<text x="30" y="240" dy="0.5ex" text-anchor="end" font-family="sans-serif" font-size="9.67741935483871" opacity="1" fill="#000000">
60%
</text>
<polyline fill="none" opacity="1" stroke="#000000" stroke-width="1" points="34,240 39,240 "/>
<text x="30" y="183" dy="0.5ex" text-anchor="end" font-family="sans-serif" font-size="9.67741935483871" opacity="1" fill="#000000">
70%
</text>
<polyline fill="none" opacity="1" stroke="#000000" stroke-width="1" points="34,183 39,183 "/>
<text x="30" y="127" dy="0.5ex" text-anchor="end" font-family="sans-serif" font-size="9.67741935483871" opacity="1" fill="#000000">
80%
</text>
<polyline fill="none" opacity="1" stroke="#000000" stroke-width="1" points="34,127 39,127 "/>
<text x="30" y="71" dy="0.5ex" text-anchor="end" font-family="sans-serif" font-size="9.67741935483871" opacity="1" fill="#000000">
90%
</text>
<polyline fill="none" opacity="1" stroke="#000000" stroke-width="1" points="34,71 39,71 "/>
<text x="30" y="14" dy="0.5ex" text-anchor="end" font-family="sans-serif" font-size="9.67741935483871" opacity="1" fill="#000000">
100%
</text>
<polyline fill="none" opacity="1" stroke="#000000" stroke-width="1" points="34,14 39,14 "/>
<polyline fill="none" opacity="1" stroke="#000000" stroke-width="1" points="40,580 947,580 "/>
<text x="40" y="590" dy="0.76em" text-anchor="middle" font-family="sans-serif" font-size="9.67741935483871" opacity="1" fill="#000000">
2019-03-16
</text>
<polyline fill="none" opacity="1" stroke="#000000" stroke-width="1" points="40,580 40,585 "/>
<text x="136" y="590" dy="0.76em" text-anchor="middle" font-family="sans-serif" font-size="9.67741935483871" opacity="1" fill="#000000">
2019-05-25
</text>
<polyline fill="none" opacity="1" stroke="#000000" stroke-width="1" points="136,580 136,585 "/>
<text x="233" y="590" dy="0.76em" text-anchor="middle" font-family="sans-serif" font-size="9.67741935483871" opacity="1" fill="#000000">
2019-08-03
</text>
<polyline fill="none" opacity="1" stroke="#000000" stroke-width="1" points="233,580 233,585 "/>
<text x="329" y="590" dy="0.76em" text-anchor="middle" font-family="sans-serif" font-size="9.67741935483871" opacity="1" fill="#000000">
2019-10-12
</text>
<polyline fill="none" opacity="1" stroke="#000000" stroke-width="1" points="329,580 329,585 "/>
<text x="426" y="590" dy="0.76em" text-anchor="middle" font-family="sans-serif" font-size="9.67741935483871" opacity="1" fill="#000000">
2019-12-21
</text>
<polyline fill="none" opacity="1" stroke="#000000" stroke-width="1" points="426,580 426,585 "/>
<text x="522" y="590" dy="0.76em" text-anchor="middle" font-family="sans-serif" font-size="9.67741935483871" opacity="1" fill="#000000">
2020-02-29
</text>
<polyline fill="none" opacity="1" stroke="#000000" stroke-width="1" points="522,580 522,585 "/>
<text x="619" y="590" dy="0.76em" text-anchor="middle" font-family="sans-serif" font-size="9.67741935483871" opacity="1" fill="#000000">
2020-05-09
</text>
<polyline fill="none" opacity="1" stroke="#000000" stroke-width="1" points="619,580 619,585 "/>
<text x="715" y="590" dy="0.76em" text-anchor="middle" font-family="sans-serif" font-size="9.67741935483871" opacity="1" fill="#000000">
2020-07-18
</text>
<polyline fill="none" opacity="1" stroke="#000000" stroke-width="1" points="715,580 715,585 "/>
<text x="812" y="590" dy="0.76em" text-anchor="middle" font-family="sans-serif" font-size="9.67741935483871" opacity="1" fill="#000000">
2020-09-26
</text>
<polyline fill="none" opacity="1" stroke="#000000" stroke-width="1" points="812,580 812,585 "/>
<text x="908" y="590" dy="0.76em" text-anchor="middle" font-family="sans-serif" font-size="9.67741935483871" opacity="1" fill="#000000">
2020-12-05
</text>
<polyline fill="none" opacity="1" stroke="#000000" stroke-width="1" points="908,580 908,585 "/>
<polyline fill="none" opacity="1" stroke="#FF0000" stroke-width="1" points="40,578 40,578 46,576 47,575 149,575 152,575 154,575 157,575 160,575 167,574 215,572 215,572 388,572 398,571 423,571 435,570 446,570 447,569 465,569 478,569 485,568 546,568 547,568 549,568 555,567 556,567 557,566 558,566 560,565 562,564 564,564 565,563 566,563 568,563 570,562 572,562 574,561 575,560 577,560 578,560 580,559 582,558 582,558 583,558 585,557 586,557 587,557 589,556 591,555 593,555 594,554 596,554 597,553 599,553 599,553 602,552 603,552 604,551 605,551 608,550 608,550 610,549 612,549 613,548 615,548 616,547 618,547 620,546 622,546 623,545 625,545 626,544 628,544 629,543 631,543 632,542 633,542 635,541 636,541 639,540 640,540 642,539 643,539 644,538 646,538 647,538 649,537 650,537 651,536 653,536 654,535 655,535 657,535 658,534 661,533 662,533 664,532 665,532 666,532 668,531 669,531 671,530 672,530 673,529 675,529 677,528 678,528 679,528 680,527 682,527 683,526 684,526 686,525 687,525 689,525 690,524 691,524 693,523 694,523 695,522 697,522 698,522 700,521 701,521 702,520 704,520 705,519 707,519 708,519 709,518 711,518 712,517 713,517 715,516 716,516 718,516 719,515 720,515 722,514 723,514 724,513 726,513 727,513 729,512 730,512 731,511 733,511 734,510 736,510 737,510 738,509 740,509 741,508 742,508 744,507 745,507 747,507 748,506 749,506 751,505 752,505 754,504 755,504 756,503 758,503 760,502 762,502 763,501 766,500 767,500 769,500 770,499 771,499 773,498 775,497 777,497 778,497 780,496 781,496 782,495 785,494 787,494 788,494 789,493 791,493 792,492 795,491 796,491 798,491 799,490 800,490 802,489 804,488 806,488 807,488 809,487 810,487 811,486 813,486 814,485 815,485 817,485 820,484 821,483 823,483 824,482 825,482 827,481 828,481 830,481 831,480 832,480 833,479 835,479 836,478 838,478 839,478 840,477 843,476 844,476 846,475 847,475 849,475 850,474 851,474 853,473 854,473 855,472 857,472 858,472 860,471 861,471 862,470 864,470 865,469 867,469 868,469 870,468 871,468 872,467 873,467 875,466 876,466 878,466 879,465 880,465 882,464 883,464 884,463 886,463 887,463 889,462 890,462 891,461 893,461 894,460 895,460 897,460 899,459 900,459 901,458 902,458 904,457 905,457 906,456 908,456 909,456 911,455 912,455 913,454 915,454 916,453 918,453 919,453 920,452 922,452 923,451 924,451 926,450 928,450 929,450 930,449 931,449 933,448 934,448 936,447 937,447 938,447 940,446 941,446 942,445 944,445 945,444 947,444 "/>
</svg>
