<svg width="987" height="610" xmlns="http://www.w3.org/2000/svg">
<line opacity="0.1" stroke="#000000" stroke-width="1" x1="40" y1="579" x2="40" y2="9"/>
<line opacity="0.1" stroke="#000000" stroke-width="1" x1="55" y1="579" x2="55" y2="9"/>
<line opacity="0.1" stroke="#000000" stroke-width="1" x1="71" y1="579" x2="71" y2="9"/>
<line opacity="0.1" stroke="#000000" stroke-width="1" x1="87" y1="579" x2="87" y2="9"/>
<line opacity="0.1" stroke="#000000" stroke-width="1" x1="102" y1="579" x2="102" y2="9"/>
<line opacity="0.1" stroke="#000000" stroke-width="1" x1="118" y1="579" x2="118" y2="9"/>
<line opacity="0.1" stroke="#000000" stroke-width="1" x1="134" y1="579" x2="134" y2="9"/>
<line opacity="0.1" stroke="#000000" stroke-width="1" x1="149" y1="579" x2="149" y2="9"/>
<line opacity="0.1" stroke="#000000" stroke-width="1" x1="165" y1="579" x2="165" y2="9"/>
<line opacity="0.1" stroke="#000000" stroke-width="1" x1="181" y1="579" x2="181" y2="9"/>
<line opacity="0.1" stroke="#000000" stroke-width="1" x1="197" y1="579" x2="197" y2="9"/>
<line opacity="0.1" stroke="#000000" stroke-width="1" x1="212" y1="579" x2="212" y2="9"/>
<line opacity="0.1" stroke="#000000" stroke-width="1" x1="228" y1="579" x2="228" y2="9"/>
<line opacity="0.1" stroke="#000000" stroke-width="1" x1="244" y1="579" x2="244" y2="9"/>
<line opacity="0.1" stroke="#000000" stroke-width="1" x1="259" y1="579" x2="259" y2="9"/>
<line opacity="0.1" stroke="#000000" stroke-width="1" x1="275" y1="579" x2="275" y2="9"/>
<line opacity="0.1" stroke="#000000" stroke-width="1" x1="291" y1="579" x2="291" y2="9"/>
<line opacity="0.1" stroke="#000000" stroke-width="1" x1="307" y1="579" x2="307" y2="9"/>
<line opacity="0.1" stroke="#000000" stroke-width="1" x1="322" y1="579" x2="322" y2="9"/>
<line opacity="0.1" stroke="#000000" stroke-width="1" x1="338" y1="579" x2="338" y2="9"/>
<line opacity="0.1" stroke="#000000" stroke-width="1" x1="354" y1="579" x2="354" y2="9"/>
<line opacity="0.1" stroke="#000000" stroke-width="1" x1="369" y1="579" x2="369" y2="9"/>
<line opacity="0.1" stroke="#000000" stroke-width="1" x1="385" y1="579" x2="385" y2="9"/>
<line opacity="0.1" stroke="#000000" stroke-width="1" x1="401" y1="579" x2="401" y2="9"/>
<line opacity="0.1" stroke="#000000" stroke-width="1" x1="416" y1="579" x2="416" y2="9"/>
<line opacity="0.1" stroke="#000000" stroke-width="1" x1="432" y1="579" x2="432" y2="9"/>
<line opacity="0.1" stroke="#000000" stroke-width="1" x1="448" y1="579" x2="448" y2="9"/>
<line opacity="0.1" stroke="#000000" stroke-width="1" x1="464" y1="579" x2="464" y2="9"/>
<line opacity="0.1" stroke="#000000" stroke-width="1" x1="479" y1="579" x2="479" y2="9"/>
<line opacity="0.1" stroke="#000000" stroke-width="1" x1="495" y1="579" x2="495" y2="9"/>
<line opacity="0.1" stroke="#000000" stroke-width="1" x1="511" y1="579" x2="511" y2="9"/>
<line opacity="0.1" stroke="#000000" stroke-width="1" x1="526" y1="579" x2="526" y2="9"/>
<line opacity="0.1" stroke="#000000" stroke-width="1" x1="542" y1="579" x2="542" y2="9"/>
<line opacity="0.1" stroke="#000000" stroke-width="1" x1="558" y1="579" x2="558" y2="9"/>
<line opacity="0.1" stroke="#000000" stroke-width="1" x1="574" y1="579" x2="574" y2="9"/>
<line opacity="0.1" stroke="#000000" stroke-width="1" x1="589" y1="579" x2="589" y2="9"/>
<line opacity="0.1" stroke="#000000" stroke-width="1" x1="605" y1="579" x2="605" y2="9"/>
<line opacity="0.1" stroke="#000000" stroke-width="1" x1="621" y1="579" x2="621" y2="9"/>
<line opacity="0.1" stroke="#000000" stroke-width="1" x1="636" y1="579" x2="636" y2="9"/>
<line opacity="0.1" stroke="#000000" stroke-width="1" x1="652" y1="579" x2="652" y2="9"/>
<line opacity="0.1" stroke="#000000" stroke-width="1" x1="668" y1="579" x2="668" y2="9"/>
<line opacity="0.1" stroke="#000000" stroke-width="1" x1="683" y1="579" x2="683" y2="9"/>
<line opacity="0.1" stroke="#000000" stroke-width="1" x1="699" y1="579" x2="699" y2="9"/>
<line opacity="0.1" stroke="#000000" stroke-width="1" x1="715" y1="579" x2="715" y2="9"/>
<line opacity="0.1" stroke="#000000" stroke-width="1" x1="731" y1="579" x2="731" y2="9"/>
<line opacity="0.1" stroke="#000000" stroke-width="1" x1="746" y1="579" x2="746" y2="9"/>
<line opacity="0.1" stroke="#000000" stroke-width="1" x1="762" y1="579" x2="762" y2="9"/>
<line opacity="0.1" stroke="#000000" stroke-width="1" x1="778" y1="579" x2="778" y2="9"/>
<line opacity="0.1" stroke="#000000" stroke-width="1" x1="793" y1="579" x2="793" y2="9"/>
<line opacity="0.1" stroke="#000000" stroke-width="1" x1="809" y1="579" x2="809" y2="9"/>
<line opacity="0.1" stroke="#000000" stroke-width="1" x1="825" y1="579" x2="825" y2="9"/>
<line opacity="0.1" stroke="#000000" stroke-width="1" x1="841" y1="579" x2="841" y2="9"/>
<line opacity="0.1" stroke="#000000" stroke-width="1" x1="856" y1="579" x2="856" y2="9"/>
<line opacity="0.1" stroke="#000000" stroke-width="1" x1="872" y1="579" x2="872" y2="9"/>
<line opacity="0.1" stroke="#000000" stroke-width="1" x1="888" y1="579" x2="888" y2="9"/>
<line opacity="0.1" stroke="#000000" stroke-width="1" x1="903" y1="579" x2="903" y2="9"/>
<line opacity="0.1" stroke="#000000" stroke-width="1" x1="919" y1="579" x2="919" y2="9"/>
<line opacity="0.1" stroke="#000000" stroke-width="1" x1="935" y1="579" x2="935" y2="9"/>
<line opacity="0.1" stroke="#000000" stroke-width="1" x1="40" y1="567" x2="947" y2="567"/>
<line opacity="0.1" stroke="#000000" stroke-width="1" x1="40" y1="556" x2="947" y2="556"/>
<line opacity="0.1" stroke="#000000" stroke-width="1" x1="40" y1="545" x2="947" y2="545"/>
<line opacity="0.1" stroke="#000000" stroke-width="1" x1="40" y1="533" x2="947" y2="533"/>
<line opacity="0.1" stroke="#000000" stroke-width="1" x1="40" y1="522" x2="947" y2="522"/>
<line opacity="0.1" stroke="#000000" stroke-width="1" x1="40" y1="511" x2="947" y2="511"/>
<line opacity="0.1" stroke="#000000" stroke-width="1" x1="40" y1="499" x2="947" y2="499"/>
<line opacity="0.1" stroke="#000000" stroke-width="1" x1="40" y1="488" x2="947" y2="488"/>
<line opacity="0.1" stroke="#000000" stroke-width="1" x1="40" y1="477" x2="947" y2="477"/>
<line opacity="0.1" stroke="#000000" stroke-width="1" x1="40" y1="466" x2="947" y2="466"/>
<line opacity="0.1" stroke="#000000" stroke-width="1" x1="40" y1="454" x2="947" y2="454"/>
<line opacity="0.1" stroke="#000000" stroke-width="1" x1="40" y1="443" x2="947" y2="443"/>
<line opacity="0.1" stroke="#000000" stroke-width="1" x1="40" y1="432" x2="947" y2="432"/>
<line opacity="0.1" stroke="#000000" stroke-width="1" x1="40" y1="420" x2="947" y2="420"/>
<line opacity="0.1" stroke="#000000" stroke-width="1" x1="40" y1="409" x2="947" y2="409"/>
<line opacity="0.1" stroke="#000000" stroke-width="1" x1="40" y1="398" x2="947" y2="398"/>
<line opacity="0.1" stroke="#000000" stroke-width="1" x1="40" y1="387" x2="947" y2="387"/>
<line opacity="0.1" stroke="#000000" stroke-width="1" x1="40" y1="375" x2="947" y2="375"/>
<line opacity="0.1" stroke="#000000" stroke-width="1" x1="40" y1="364" x2="947" y2="364"/>
<line opacity="0.1" stroke="#000000" stroke-width="1" x1="40" y1="353" x2="947" y2="353"/>
<line opacity="0.1" stroke="#000000" stroke-width="1" x1="40" y1="341" x2="947" y2="341"/>
<line opacity="0.1" stroke="#000000" stroke-width="1" x1="40" y1="330" x2="947" y2="330"/>
<line opacity="0.1" stroke="#000000" stroke-width="1" x1="40" y1="319" x2="947" y2="319"/>
<line opacity="0.1" stroke="#000000" stroke-width="1" x1="40" y1="308" x2="947" y2="308"/>
<line opacity="0.1" stroke="#000000" stroke-width="1" x1="40" y1="296" x2="947" y2="296"/>
<line opacity="0.1" stroke="#000000" stroke-width="1" x1="40" y1="285" x2="947" y2="285"/>
<line opacity="0.1" stroke="#000000" stroke-width="1" x1="40" y1="274" x2="947" y2="274"/>
<line opacity="0.1" stroke="#000000" stroke-width="1" x1="40" y1="262" x2="947" y2="262"/>
<line opacity="0.1" stroke="#000000" stroke-width="1" x1="40" y1="251" x2="947" y2="251"/>
<line opacity="0.1" stroke="#000000" stroke-width="1" x1="40" y1="240" x2="947" y2="240"/>
<line opacity="0.1" stroke="#000000" stroke-width="1" x1="40" y1="229" x2="947" y2="229"/>
<line opacity="0.1" stroke="#000000" stroke-width="1" x1="40" y1="217" x2="947" y2="217"/>
<line opacity="0.1" stroke="#000000" stroke-width="1" x1="40" y1="206" x2="947" y2="206"/>
<line opacity="0.1" stroke="#000000" stroke-width="1" x1="40" y1="195" x2="947" y2="195"/>
<line opacity="0.1" stroke="#000000" stroke-width="1" x1="40" y1="183" x2="947" y2="183"/>
<line opacity="0.1" stroke="#000000" stroke-width="1" x1="40" y1="172" x2="947" y2="172"/>
<line opacity="0.1" stroke="#000000" stroke-width="1" x1="40" y1="161" x2="947" y2="161"/>
<line opacity="0.1" stroke="#000000" stroke-width="1" x1="40" y1="150" x2="947" y2="150"/>
<line opacity="0.1" stroke="#000000" stroke-width="1" x1="40" y1="138" x2="947" y2="138"/>
<line opacity="0.1" stroke="#000000" stroke-width="1" x1="40" y1="127" x2="947" y2="127"/>
<line opacity="0.1" stroke="#000000" stroke-width="1" x1="40" y1="116" x2="947" y2="116"/>
<line opacity="0.1" stroke="#000000" stroke-width="1" x1="40" y1="104" x2="947" y2="104"/>
<line opacity="0.1" stroke="#000000" stroke-width="1" x1="40" y1="93" x2="947" y2="93"/>
<line opacity="0.1" stroke="#000000" stroke-width="1" x1="40" y1="82" x2="947" y2="82"/>
<line opacity="0.1" stroke="#000000" stroke-width="1" x1="40" y1="71" x2="947" y2="71"/>
<line opacity="0.1" stroke="#000000" stroke-width="1" x1="40" y1="59" x2="947" y2="59"/>
<line opacity="0.1" stroke="#000000" stroke-width="1" x1="40" y1="48" x2="947" y2="48"/>
<line opacity="0.1" stroke="#000000" stroke-width="1" x1="40" y1="37" x2="947" y2="37"/>
<line opacity="0.1" stroke="#000000" stroke-width="1" x1="40" y1="25" x2="947" y2="25"/>
<line opacity="0.1" stroke="#000000" stroke-width="1" x1="40" y1="14" x2="947" y2="14"/>
<line opacity="0.2" stroke="#000000" stroke-width="1" x1="40" y1="579" x2="40" y2="9"/>
<line opacity="0.2" stroke="#000000" stroke-width="1" x1="134" y1="579" x2="134" y2="9"/>
<line opacity="0.2" stroke="#000000" stroke-width="1" x1="228" y1="579" x2="228" y2="9"/>
<line opacity="0.2" stroke="#000000" stroke-width="1" x1="322" y1="579" x2="322" y2="9"/>
<line opacity="0.2" stroke="#000000" stroke-width="1" x1="416" y1="579" x2="416" y2="9"/>
<line opacity="0.2" stroke="#000000" stroke-width="1" x1="511" y1="579" x2="511" y2="9"/>
<line opacity="0.2" stroke="#000000" stroke-width="1" x1="605" y1="579" x2="605" y2="9"/>
<line opacity="0.2" stroke="#000000" stroke-width="1" x1="699" y1="579" x2="699" y2="9"/>
<line opacity="0.2" stroke="#000000" stroke-width="1" x1="793" y1="579" x2="793" y2="9"/>
<line opacity="0.2" stroke="#000000" stroke-width="1" x1="888" y1="579" x2="888" y2="9"/>
<line opacity="0.2" stroke="#000000" stroke-width="1" x1="40" y1="522" x2="947" y2="522"/>
<line opacity="0.2" stroke="#000000" stroke-width="1" x1="40" y1="466" x2="947" y2="466"/>
<line opacity="0.2" stroke="#000000" stroke-width="1" x1="40" y1="409" x2="947" y2="409"/>
<line opacity="0.2" stroke="#000000" stroke-width="1" x1="40" y1="353" x2="947" y2="353"/>
<line opacity="0.2" stroke="#000000" stroke-width="1" x1="40" y1="296" x2="947" y2="296"/>
<line opacity="0.2" stroke="#000000" stroke-width="1" x1="40" y1="240" x2="947" y2="240"/>
<line opacity="0.2" stroke="#000000" stroke-width="1" x1="40" y1="183" x2="947" y2="183"/>
<line opacity="0.2" stroke="#000000" stroke-width="1" x1="40" y1="127" x2="947" y2="127"/>
<line opacity="0.2" stroke="#000000" stroke-width="1" x1="40" y1="71" x2="947" y2="71"/>
<line opacity="0.2" stroke="#000000" stroke-width="1" x1="40" y1="14" x2="947" y2="14"/>
<polyline fill="none" opacity="1" stroke="#000000" stroke-width="1" points="39,10 39,580 "/>
<text x="30" y="522" dy="0.5ex" text-anchor="end" font-family="sans-serif" font-size="9.67741935483871" opacity="1" fill="#000000">
10%
</text>
<polyline fill="none" opacity="1" stroke="#000000" stroke-width="1" points="34,522 39,522 "/>
<text x="30" y="466" dy="0.5ex" text-anchor="end" font-family="sans-serif" font-size="9.67741935483871" opacity="1" fill="#000000">
20%
</text>
<polyline fill="none" opacity="1" stroke="#000000" stroke-width="1" points="34,466 39,466 "/>
<text x="30" y="409" dy="0.5ex" text-anchor="end" font-family="sans-serif" font-size="9.67741935483871" opacity="1" fill="#000000">
30%
</text>
<polyline fill="none" opacity="1" stroke="#000000" stroke-width="1" points="34,409 39,409 "/>
<text x="30" y="353" dy="0.5ex" text-anchor="end" font-family="sans-serif" font-size="9.67741935483871" opacity="1" fill="#000000">
40%
</text>
<polyline fill="none" opacity="1" stroke="#000000" stroke-width="1" points="34,353 39,353 "/>
<text x="30" y="296" dy="0.5ex" text-anchor="end" font-family="sans-serif" font-size="9.67741935483871" opacity="1" fill="#000000">
50%
</text>
<polyline fill="none" opacity="1" stroke="#000000" stroke-width="1" points="34,296 39,296 "/>
<text x="30" y="240" dy="0.5ex" text-anchor="end" font-family="sans-serif" font-size="9.67741935483871" opacity="1" fill="#000000">
60%
</text>
<polyline fill="none" opacity="1" stroke="#000000" stroke-width="1" points="34,240 39,240 "/>
<text x="30" y="183" dy="0.5ex" text-anchor="end" font-family="sans-serif" font-size="9.67741935483871" opacity="1" fill="#000000">
70%
</text>
<polyline fill="none" opacity="1" stroke="#000000" stroke-width="1" points="34,183 39,183 "/>
<text x="30" y="127" dy="0.5ex" text-anchor="end" font-family="sans-serif" font-size="9.67741935483871" opacity="1" fill="#000000">
80%
</text>
<polyline fill="none" opacity="1" stroke="#000000" stroke-width="1" points="34,127 39,127 "/>
<text x="30" y="71" dy="0.5ex" text-anchor="end" font-family="sans-serif" font-size="9.67741935483871" opacity="1" fill="#000000">
90%
</text>
<polyline fill="none" opacity="1" stroke="#000000" stroke-width="1" points="34,71 39,71 "/>
<text x="30" y="14" dy="0.5ex" text-anchor="end" font-family="sans-serif" font-size="9.67741935483871" opacity="1" fill="#000000">
100%
</text>
<polyline fill="none" opacity="1" stroke="#000000" stroke-width="1" points="34,14 39,14 "/>
<polyline fill="none" opacity="1" stroke="#000000" stroke-width="1" points="40,580 947,580 "/>
<text x="40" y="590" dy="0.76em" text-anchor="middle" font-family="sans-serif" font-size="9.67741935483871" opacity="1" fill="#000000">
2019-03-16
</text>
<polyline fill="none" opacity="1" stroke="#000000" stroke-width="1" points="40,580 40,585 "/>
<text x="134" y="590" dy="0.76em" text-anchor="middle" font-family="sans-serif" font-size="9.67741935483871" opacity="1" fill="#000000">
2019-04-27
</text>
<polyline fill="none" opacity="1" stroke="#000000" stroke-width="1" points="134,580 134,585 "/>
<text x="228" y="590" dy="0.76em" text-anchor="middle" font-family="sans-serif" font-size="9.67741935483871" opacity="1" fill="#000000">
2019-06-08
</text>
<polyline fill="none" opacity="1" stroke="#000000" stroke-width="1" points="228,580 228,585 "/>
<text x="322" y="590" dy="0.76em" text-anchor="middle" font-family="sans-serif" font-size="9.67741935483871" opacity="1" fill="#000000">
2019-07-20
</text>
<polyline fill="none" opacity="1" stroke="#000000" stroke-width="1" points="322,580 322,585 "/>
<text x="416" y="590" dy="0.76em" text-anchor="middle" font-family="sans-serif" font-size="9.67741935483871" opacity="1" fill="#000000">
2019-08-31
</text>
<polyline fill="none" opacity="1" stroke="#000000" stroke-width="1" points="416,580 416,585 "/>
<text x="511" y="590" dy="0.76em" text-anchor="middle" font-family="sans-serif" font-size="9.67741935483871" opacity="1" fill="#000000">
2019-10-12
</text>
<polyline fill="none" opacity="1" stroke="#000000" stroke-width="1" points="511,580 511,585 "/>
<text x="605" y="590" dy="0.76em" text-anchor="middle" font-family="sans-serif" font-size="9.67741935483871" opacity="1" fill="#000000">
2019-11-23
</text>
<polyline fill="none" opacity="1" stroke="#000000" stroke-width="1" points="605,580 605,585 "/>
<text x="699" y="590" dy="0.76em" text-anchor="middle" font-family="sans-serif" font-size="9.67741935483871" opacity="1" fill="#000000">
2020-01-04
</text>
<polyline fill="none" opacity="1" stroke="#000000" stroke-width="1" points="699,580 699,585 "/>
<text x="793" y="590" dy="0.76em" text-anchor="middle" font-family="sans-serif" font-size="9.67741935483871" opacity="1" fill="#000000">
2020-02-15
</text>
<polyline fill="none" opacity="1" stroke="#000000" stroke-width="1" points="793,580 793,585 "/>
<text x="888" y="590" dy="0.76em" text-anchor="middle" font-family="sans-serif" font-size="9.67741935483871" opacity="1" fill="#000000">
2020-03-28
</text>
<polyline fill="none" opacity="1" stroke="#000000" stroke-width="1" points="888,580 888,585 "/>
<polyline fill="none" opacity="1" stroke="#FF0000" stroke-width="1" points="40,578 40,577 50,576 51,575 217,575 223,574 225,574 231,574 235,574 247,573 324,571 325,571 607,570 623,570 664,569 683,569 701,568 702,568 731,567 753,567 764,566 863,566 866,566 868,566 878,565 880,565 881,564 884,564 886,562 889,561 893,561 895,560 897,560 899,559 903,558 905,558 908,557 911,557 914,556 915,556 919,555 921,554 922,554 924,554 926,553 929,553 931,552 933,552 936,551 940,550 942,550 944,549 947,549 "/>
</svg>
