<svg width="987" height="610" viewBox="0 0 987 610" xmlns="http://www.w3.org/2000/svg">
<line opacity="0.1" stroke="#000000" stroke-width="1" x1="40" y1="579" x2="40" y2="9"/>
<line opacity="0.1" stroke="#000000" stroke-width="1" x1="49" y1="579" x2="49" y2="9"/>
<line opacity="0.1" stroke="#000000" stroke-width="1" x1="59" y1="579" x2="59" y2="9"/>
<line opacity="0.1" stroke="#000000" stroke-width="1" x1="69" y1="579" x2="69" y2="9"/>
<line opacity="0.1" stroke="#000000" stroke-width="1" x1="79" y1="579" x2="79" y2="9"/>
<line opacity="0.1" stroke="#000000" stroke-width="1" x1="89" y1="579" x2="89" y2="9"/>
<line opacity="0.1" stroke="#000000" stroke-width="1" x1="98" y1="579" x2="98" y2="9"/>
<line opacity="0.1" stroke="#000000" stroke-width="1" x1="108" y1="579" x2="108" y2="9"/>
<line opacity="0.1" stroke="#000000" stroke-width="1" x1="118" y1="579" x2="118" y2="9"/>
<line opacity="0.1" stroke="#000000" stroke-width="1" x1="128" y1="579" x2="128" y2="9"/>
<line opacity="0.1" stroke="#000000" stroke-width="1" x1="138" y1="579" x2="138" y2="9"/>
<line opacity="0.1" stroke="#000000" stroke-width="1" x1="148" y1="579" x2="148" y2="9"/>
<line opacity="0.1" stroke="#000000" stroke-width="1" x1="157" y1="579" x2="157" y2="9"/>
<line opacity="0.1" stroke="#000000" stroke-width="1" x1="167" y1="579" x2="167" y2="9"/>
<line opacity="0.1" stroke="#000000" stroke-width="1" x1="177" y1="579" x2="177" y2="9"/>
<line opacity="0.1" stroke="#000000" stroke-width="1" x1="187" y1="579" x2="187" y2="9"/>
<line opacity="0.1" stroke="#000000" stroke-width="1" x1="197" y1="579" x2="197" y2="9"/>
<line opacity="0.1" stroke="#000000" stroke-width="1" x1="206" y1="579" x2="206" y2="9"/>
<line opacity="0.1" stroke="#000000" stroke-width="1" x1="216" y1="579" x2="216" y2="9"/>
<line opacity="0.1" stroke="#000000" stroke-width="1" x1="226" y1="579" x2="226" y2="9"/>
<line opacity="0.1" stroke="#000000" stroke-width="1" x1="236" y1="579" x2="236" y2="9"/>
<line opacity="0.1" stroke="#000000" stroke-width="1" x1="246" y1="579" x2="246" y2="9"/>
<line opacity="0.1" stroke="#000000" stroke-width="1" x1="256" y1="579" x2="256" y2="9"/>
<line opacity="0.1" stroke="#000000" stroke-width="1" x1="265" y1="579" x2="265" y2="9"/>
<line opacity="0.1" stroke="#000000" stroke-width="1" x1="275" y1="579" x2="275" y2="9"/>
<line opacity="0.1" stroke="#000000" stroke-width="1" x1="285" y1="579" x2="285" y2="9"/>
<line opacity="0.1" stroke="#000000" stroke-width="1" x1="295" y1="579" x2="295" y2="9"/>
<line opacity="0.1" stroke="#000000" stroke-width="1" x1="305" y1="579" x2="305" y2="9"/>
<line opacity="0.1" stroke="#000000" stroke-width="1" x1="314" y1="579" x2="314" y2="9"/>
<line opacity="0.1" stroke="#000000" stroke-width="1" x1="324" y1="579" x2="324" y2="9"/>
<line opacity="0.1" stroke="#000000" stroke-width="1" x1="334" y1="579" x2="334" y2="9"/>
<line opacity="0.1" stroke="#000000" stroke-width="1" x1="344" y1="579" x2="344" y2="9"/>
<line opacity="0.1" stroke="#000000" stroke-width="1" x1="354" y1="579" x2="354" y2="9"/>
<line opacity="0.1" stroke="#000000" stroke-width="1" x1="364" y1="579" x2="364" y2="9"/>
<line opacity="0.1" stroke="#000000" stroke-width="1" x1="373" y1="579" x2="373" y2="9"/>
<line opacity="0.1" stroke="#000000" stroke-width="1" x1="383" y1="579" x2="383" y2="9"/>
<line opacity="0.1" stroke="#000000" stroke-width="1" x1="393" y1="579" x2="393" y2="9"/>
<line opacity="0.1" stroke="#000000" stroke-width="1" x1="403" y1="579" x2="403" y2="9"/>
<line opacity="0.1" stroke="#000000" stroke-width="1" x1="413" y1="579" x2="413" y2="9"/>
<line opacity="0.1" stroke="#000000" stroke-width="1" x1="422" y1="579" x2="422" y2="9"/>
<line opacity="0.1" stroke="#000000" stroke-width="1" x1="432" y1="579" x2="432" y2="9"/>
<line opacity="0.1" stroke="#000000" stroke-width="1" x1="442" y1="579" x2="442" y2="9"/>
<line opacity="0.1" stroke="#000000" stroke-width="1" x1="452" y1="579" x2="452" y2="9"/>
<line opacity="0.1" stroke="#000000" stroke-width="1" x1="462" y1="579" x2="462" y2="9"/>
<line opacity="0.1" stroke="#000000" stroke-width="1" x1="472" y1="579" x2="472" y2="9"/>
<line opacity="0.1" stroke="#000000" stroke-width="1" x1="481" y1="579" x2="481" y2="9"/>
<line opacity="0.1" stroke="#000000" stroke-width="1" x1="491" y1="579" x2="491" y2="9"/>
<line opacity="0.1" stroke="#000000" stroke-width="1" x1="501" y1="579" x2="501" y2="9"/>
<line opacity="0.1" stroke="#000000" stroke-width="1" x1="511" y1="579" x2="511" y2="9"/>
<line opacity="0.1" stroke="#000000" stroke-width="1" x1="521" y1="579" x2="521" y2="9"/>
<line opacity="0.1" stroke="#000000" stroke-width="1" x1="530" y1="579" x2="530" y2="9"/>
<line opacity="0.1" stroke="#000000" stroke-width="1" x1="540" y1="579" x2="540" y2="9"/>
<line opacity="0.1" stroke="#000000" stroke-width="1" x1="550" y1="579" x2="550" y2="9"/>
<line opacity="0.1" stroke="#000000" stroke-width="1" x1="560" y1="579" x2="560" y2="9"/>
<line opacity="0.1" stroke="#000000" stroke-width="1" x1="570" y1="579" x2="570" y2="9"/>
<line opacity="0.1" stroke="#000000" stroke-width="1" x1="580" y1="579" x2="580" y2="9"/>
<line opacity="0.1" stroke="#000000" stroke-width="1" x1="589" y1="579" x2="589" y2="9"/>
<line opacity="0.1" stroke="#000000" stroke-width="1" x1="599" y1="579" x2="599" y2="9"/>
<line opacity="0.1" stroke="#000000" stroke-width="1" x1="609" y1="579" x2="609" y2="9"/>
<line opacity="0.1" stroke="#000000" stroke-width="1" x1="619" y1="579" x2="619" y2="9"/>
<line opacity="0.1" stroke="#000000" stroke-width="1" x1="629" y1="579" x2="629" y2="9"/>
<line opacity="0.1" stroke="#000000" stroke-width="1" x1="638" y1="579" x2="638" y2="9"/>
<line opacity="0.1" stroke="#000000" stroke-width="1" x1="648" y1="579" x2="648" y2="9"/>
<line opacity="0.1" stroke="#000000" stroke-width="1" x1="658" y1="579" x2="658" y2="9"/>
<line opacity="0.1" stroke="#000000" stroke-width="1" x1="668" y1="579" x2="668" y2="9"/>
<line opacity="0.1" stroke="#000000" stroke-width="1" x1="678" y1="579" x2="678" y2="9"/>
<line opacity="0.1" stroke="#000000" stroke-width="1" x1="688" y1="579" x2="688" y2="9"/>
<line opacity="0.1" stroke="#000000" stroke-width="1" x1="697" y1="579" x2="697" y2="9"/>
<line opacity="0.1" stroke="#000000" stroke-width="1" x1="707" y1="579" x2="707" y2="9"/>
<line opacity="0.1" stroke="#000000" stroke-width="1" x1="717" y1="579" x2="717" y2="9"/>
<line opacity="0.1" stroke="#000000" stroke-width="1" x1="727" y1="579" x2="727" y2="9"/>
<line opacity="0.1" stroke="#000000" stroke-width="1" x1="737" y1="579" x2="737" y2="9"/>
<line opacity="0.1" stroke="#000000" stroke-width="1" x1="746" y1="579" x2="746" y2="9"/>
<line opacity="0.1" stroke="#000000" stroke-width="1" x1="756" y1="579" x2="756" y2="9"/>
<line opacity="0.1" stroke="#000000" stroke-width="1" x1="766" y1="579" x2="766" y2="9"/>
<line opacity="0.1" stroke="#000000" stroke-width="1" x1="776" y1="579" x2="776" y2="9"/>
<line opacity="0.1" stroke="#000000" stroke-width="1" x1="786" y1="579" x2="786" y2="9"/>
<line opacity="0.1" stroke="#000000" stroke-width="1" x1="796" y1="579" x2="796" y2="9"/>
<line opacity="0.1" stroke="#000000" stroke-width="1" x1="805" y1="579" x2="805" y2="9"/>
<line opacity="0.1" stroke="#000000" stroke-width="1" x1="815" y1="579" x2="815" y2="9"/>
<line opacity="0.1" stroke="#000000" stroke-width="1" x1="825" y1="579" x2="825" y2="9"/>
<line opacity="0.1" stroke="#000000" stroke-width="1" x1="835" y1="579" x2="835" y2="9"/>
<line opacity="0.1" stroke="#000000" stroke-width="1" x1="845" y1="579" x2="845" y2="9"/>
<line opacity="0.1" stroke="#000000" stroke-width="1" x1="854" y1="579" x2="854" y2="9"/>
<line opacity="0.1" stroke="#000000" stroke-width="1" x1="864" y1="579" x2="864" y2="9"/>
<line opacity="0.1" stroke="#000000" stroke-width="1" x1="874" y1="579" x2="874" y2="9"/>
<line opacity="0.1" stroke="#000000" stroke-width="1" x1="884" y1="579" x2="884" y2="9"/>
<line opacity="0.1" stroke="#000000" stroke-width="1" x1="894" y1="579" x2="894" y2="9"/>
<line opacity="0.1" stroke="#000000" stroke-width="1" x1="904" y1="579" x2="904" y2="9"/>
<line opacity="0.1" stroke="#000000" stroke-width="1" x1="913" y1="579" x2="913" y2="9"/>
<line opacity="0.1" stroke="#000000" stroke-width="1" x1="923" y1="579" x2="923" y2="9"/>
<line opacity="0.1" stroke="#000000" stroke-width="1" x1="933" y1="579" x2="933" y2="9"/>
<line opacity="0.1" stroke="#000000" stroke-width="1" x1="943" y1="579" x2="943" y2="9"/>
<line opacity="0.1" stroke="#000000" stroke-width="1" x1="40" y1="567" x2="947" y2="567"/>
<line opacity="0.1" stroke="#000000" stroke-width="1" x1="40" y1="556" x2="947" y2="556"/>
<line opacity="0.1" stroke="#000000" stroke-width="1" x1="40" y1="545" x2="947" y2="545"/>
<line opacity="0.1" stroke="#000000" stroke-width="1" x1="40" y1="533" x2="947" y2="533"/>
<line opacity="0.1" stroke="#000000" stroke-width="1" x1="40" y1="522" x2="947" y2="522"/>
<line opacity="0.1" stroke="#000000" stroke-width="1" x1="40" y1="511" x2="947" y2="511"/>
<line opacity="0.1" stroke="#000000" stroke-width="1" x1="40" y1="499" x2="947" y2="499"/>
<line opacity="0.1" stroke="#000000" stroke-width="1" x1="40" y1="488" x2="947" y2="488"/>
<line opacity="0.1" stroke="#000000" stroke-width="1" x1="40" y1="477" x2="947" y2="477"/>
<line opacity="0.1" stroke="#000000" stroke-width="1" x1="40" y1="466" x2="947" y2="466"/>
<line opacity="0.1" stroke="#000000" stroke-width="1" x1="40" y1="454" x2="947" y2="454"/>
<line opacity="0.1" stroke="#000000" stroke-width="1" x1="40" y1="443" x2="947" y2="443"/>
<line opacity="0.1" stroke="#000000" stroke-width="1" x1="40" y1="432" x2="947" y2="432"/>
<line opacity="0.1" stroke="#000000" stroke-width="1" x1="40" y1="420" x2="947" y2="420"/>
<line opacity="0.1" stroke="#000000" stroke-width="1" x1="40" y1="409" x2="947" y2="409"/>
<line opacity="0.1" stroke="#000000" stroke-width="1" x1="40" y1="398" x2="947" y2="398"/>
<line opacity="0.1" stroke="#000000" stroke-width="1" x1="40" y1="387" x2="947" y2="387"/>
<line opacity="0.1" stroke="#000000" stroke-width="1" x1="40" y1="375" x2="947" y2="375"/>
<line opacity="0.1" stroke="#000000" stroke-width="1" x1="40" y1="364" x2="947" y2="364"/>
<line opacity="0.1" stroke="#000000" stroke-width="1" x1="40" y1="353" x2="947" y2="353"/>
<line opacity="0.1" stroke="#000000" stroke-width="1" x1="40" y1="341" x2="947" y2="341"/>
<line opacity="0.1" stroke="#000000" stroke-width="1" x1="40" y1="330" x2="947" y2="330"/>
<line opacity="0.1" stroke="#000000" stroke-width="1" x1="40" y1="319" x2="947" y2="319"/>
<line opacity="0.1" stroke="#000000" stroke-width="1" x1="40" y1="308" x2="947" y2="308"/>
<line opacity="0.1" stroke="#000000" stroke-width="1" x1="40" y1="296" x2="947" y2="296"/>
<line opacity="0.1" stroke="#000000" stroke-width="1" x1="40" y1="285" x2="947" y2="285"/>
<line opacity="0.1" stroke="#000000" stroke-width="1" x1="40" y1="274" x2="947" y2="274"/>
<line opacity="0.1" stroke="#000000" stroke-width="1" x1="40" y1="262" x2="947" y2="262"/>
<line opacity="0.1" stroke="#000000" stroke-width="1" x1="40" y1="251" x2="947" y2="251"/>
<line opacity="0.1" stroke="#000000" stroke-width="1" x1="40" y1="240" x2="947" y2="240"/>
<line opacity="0.1" stroke="#000000" stroke-width="1" x1="40" y1="229" x2="947" y2="229"/>
<line opacity="0.1" stroke="#000000" stroke-width="1" x1="40" y1="217" x2="947" y2="217"/>
<line opacity="0.1" stroke="#000000" stroke-width="1" x1="40" y1="206" x2="947" y2="206"/>
<line opacity="0.1" stroke="#000000" stroke-width="1" x1="40" y1="195" x2="947" y2="195"/>
<line opacity="0.1" stroke="#000000" stroke-width="1" x1="40" y1="183" x2="947" y2="183"/>
<line opacity="0.1" stroke="#000000" stroke-width="1" x1="40" y1="172" x2="947" y2="172"/>
<line opacity="0.1" stroke="#000000" stroke-width="1" x1="40" y1="161" x2="947" y2="161"/>
<line opacity="0.1" stroke="#000000" stroke-width="1" x1="40" y1="150" x2="947" y2="150"/>
<line opacity="0.1" stroke="#000000" stroke-width="1" x1="40" y1="138" x2="947" y2="138"/>
<line opacity="0.1" stroke="#000000" stroke-width="1" x1="40" y1="127" x2="947" y2="127"/>
<line opacity="0.1" stroke="#000000" stroke-width="1" x1="40" y1="116" x2="947" y2="116"/>
<line opacity="0.1" stroke="#000000" stroke-width="1" x1="40" y1="104" x2="947" y2="104"/>
<line opacity="0.1" stroke="#000000" stroke-width="1" x1="40" y1="93" x2="947" y2="93"/>
<line opacity="0.1" stroke="#000000" stroke-width="1" x1="40" y1="82" x2="947" y2="82"/>
<line opacity="0.1" stroke="#000000" stroke-width="1" x1="40" y1="71" x2="947" y2="71"/>
<line opacity="0.1" stroke="#000000" stroke-width="1" x1="40" y1="59" x2="947" y2="59"/>
<line opacity="0.1" stroke="#000000" stroke-width="1" x1="40" y1="48" x2="947" y2="48"/>
<line opacity="0.1" stroke="#000000" stroke-width="1" x1="40" y1="37" x2="947" y2="37"/>
<line opacity="0.1" stroke="#000000" stroke-width="1" x1="40" y1="25" x2="947" y2="25"/>
<line opacity="0.1" stroke="#000000" stroke-width="1" x1="40" y1="14" x2="947" y2="14"/>
<line opacity="0.2" stroke="#000000" stroke-width="1" x1="40" y1="579" x2="40" y2="9"/>
<line opacity="0.2" stroke="#000000" stroke-width="1" x1="138" y1="579" x2="138" y2="9"/>
<line opacity="0.2" stroke="#000000" stroke-width="1" x1="236" y1="579" x2="236" y2="9"/>
<line opacity="0.2" stroke="#000000" stroke-width="1" x1="334" y1="579" x2="334" y2="9"/>
<line opacity="0.2" stroke="#000000" stroke-width="1" x1="432" y1="579" x2="432" y2="9"/>
<line opacity="0.2" stroke="#000000" stroke-width="1" x1="530" y1="579" x2="530" y2="9"/>
<line opacity="0.2" stroke="#000000" stroke-width="1" x1="629" y1="579" x2="629" y2="9"/>
<line opacity="0.2" stroke="#000000" stroke-width="1" x1="727" y1="579" x2="727" y2="9"/>
<line opacity="0.2" stroke="#000000" stroke-width="1" x1="825" y1="579" x2="825" y2="9"/>
<line opacity="0.2" stroke="#000000" stroke-width="1" x1="923" y1="579" x2="923" y2="9"/>
<line opacity="0.2" stroke="#000000" stroke-width="1" x1="40" y1="522" x2="947" y2="522"/>
<line opacity="0.2" stroke="#000000" stroke-width="1" x1="40" y1="466" x2="947" y2="466"/>
<line opacity="0.2" stroke="#000000" stroke-width="1" x1="40" y1="409" x2="947" y2="409"/>
<line opacity="0.2" stroke="#000000" stroke-width="1" x1="40" y1="353" x2="947" y2="353"/>
<line opacity="0.2" stroke="#000000" stroke-width="1" x1="40" y1="296" x2="947" y2="296"/>
<line opacity="0.2" stroke="#000000" stroke-width="1" x1="40" y1="240" x2="947" y2="240"/>
<line opacity="0.2" stroke="#000000" stroke-width="1" x1="40" y1="183" x2="947" y2="183"/>
<line opacity="0.2" stroke="#000000" stroke-width="1" x1="40" y1="127" x2="947" y2="127"/>
<line opacity="0.2" stroke="#000000" stroke-width="1" x1="40" y1="71" x2="947" y2="71"/>
<line opacity="0.2" stroke="#000000" stroke-width="1" x1="40" y1="14" x2="947" y2="14"/>
<polyline fill="none" opacity="1" stroke="#000000" stroke-width="1" points="39,10 39,580 "/>
<text x="30" y="522" dy="0.5ex" text-anchor="end" font-family="sans-serif" font-size="9.67741935483871" opacity="1" fill="#000000">
10%
</text>
<polyline fill="none" opacity="1" stroke="#000000" stroke-width="1" points="34,522 39,522 "/>
<text x="30" y="466" dy="0.5ex" text-anchor="end" font-family="sans-serif" font-size="9.67741935483871" opacity="1" fill="#000000">
20%
</text>
<polyline fill="none" opacity="1" stroke="#000000" stroke-width="1" points="34,466 39,466 "/>
<text x="30" y="409" dy="0.5ex" text-anchor="end" font-family="sans-serif" font-size="9.67741935483871" opacity="1" fill="#000000">
30%
</text>
<polyline fill="none" opacity="1" stroke="#000000" stroke-width="1" points="34,409 39,409 "/>
<text x="30" y="353" dy="0.5ex" text-anchor="end" font-family="sans-serif" font-size="9.67741935483871" opacity="1" fill="#000000">
40%
</text>
<polyline fill="none" opacity="1" stroke="#000000" stroke-width="1" points="34,353 39,353 "/>
<text x="30" y="296" dy="0.5ex" text-anchor="end" font-family="sans-serif" font-size="9.67741935483871" opacity="1" fill="#000000">
50%
</text>
<polyline fill="none" opacity="1" stroke="#000000" stroke-width="1" points="34,296 39,296 "/>
<text x="30" y="240" dy="0.5ex" text-anchor="end" font-family="sans-serif" font-size="9.67741935483871" opacity="1" fill="#000000">
60%
</text>
<polyline fill="none" opacity="1" stroke="#000000" stroke-width="1" points="34,240 39,240 "/>
<text x="30" y="183" dy="0.5ex" text-anchor="end" font-family="sans-serif" font-size="9.67741935483871" opacity="1" fill="#000000">
70%
</text>
<polyline fill="none" opacity="1" stroke="#000000" stroke-width="1" points="34,183 39,183 "/>
<text x="30" y="127" dy="0.5ex" text-anchor="end" font-family="sans-serif" font-size="9.67741935483871" opacity="1" fill="#000000">
80%
</text>
<polyline fill="none" opacity="1" stroke="#000000" stroke-width="1" points="34,127 39,127 "/>
<text x="30" y="71" dy="0.5ex" text-anchor="end" font-family="sans-serif" font-size="9.67741935483871" opacity="1" fill="#000000">
90%
</text>
<polyline fill="none" opacity="1" stroke="#000000" stroke-width="1" points="34,71 39,71 "/>
<text x="30" y="14" dy="0.5ex" text-anchor="end" font-family="sans-serif" font-size="9.67741935483871" opacity="1" fill="#000000">
100%
</text>
<polyline fill="none" opacity="1" stroke="#000000" stroke-width="1" points="34,14 39,14 "/>
<polyline fill="none" opacity="1" stroke="#000000" stroke-width="1" points="40,580 947,580 "/>
<text x="40" y="590" dy="0.76em" text-anchor="middle" font-family="sans-serif" font-size="9.67741935483871" opacity="1" fill="#000000">
2019-03-16
</text>
<polyline fill="none" opacity="1" stroke="#000000" stroke-width="1" points="40,580 40,585 "/>
<text x="138" y="590" dy="0.76em" text-anchor="middle" font-family="sans-serif" font-size="9.67741935483871" opacity="1" fill="#000000">
2019-05-25
</text>
<polyline fill="none" opacity="1" stroke="#000000" stroke-width="1" points="138,580 138,585 "/>
<text x="236" y="590" dy="0.76em" text-anchor="middle" font-family="sans-serif" font-size="9.67741935483871" opacity="1" fill="#000000">
2019-08-03
</text>
<polyline fill="none" opacity="1" stroke="#000000" stroke-width="1" points="236,580 236,585 "/>
<text x="334" y="590" dy="0.76em" text-anchor="middle" font-family="sans-serif" font-size="9.67741935483871" opacity="1" fill="#000000">
2019-10-12
</text>
<polyline fill="none" opacity="1" stroke="#000000" stroke-width="1" points="334,580 334,585 "/>
<text x="432" y="590" dy="0.76em" text-anchor="middle" font-family="sans-serif" font-size="9.67741935483871" opacity="1" fill="#000000">
2019-12-21
</text>
<polyline fill="none" opacity="1" stroke="#000000" stroke-width="1" points="432,580 432,585 "/>
<text x="530" y="590" dy="0.76em" text-anchor="middle" font-family="sans-serif" font-size="9.67741935483871" opacity="1" fill="#000000">
2020-02-29
</text>
<polyline fill="none" opacity="1" stroke="#000000" stroke-width="1" points="530,580 530,585 "/>
<text x="629" y="590" dy="0.76em" text-anchor="middle" font-family="sans-serif" font-size="9.67741935483871" opacity="1" fill="#000000">
2020-05-09
</text>
<polyline fill="none" opacity="1" stroke="#000000" stroke-width="1" points="629,580 629,585 "/>
<text x="727" y="590" dy="0.76em" text-anchor="middle" font-family="sans-serif" font-size="9.67741935483871" opacity="1" fill="#000000">
2020-07-18
</text>
<polyline fill="none" opacity="1" stroke="#000000" stroke-width="1" points="727,580 727,585 "/>
<text x="825" y="590" dy="0.76em" text-anchor="middle" font-family="sans-serif" font-size="9.67741935483871" opacity="1" fill="#000000">
2020-09-26
</text>
<polyline fill="none" opacity="1" stroke="#000000" stroke-width="1" points="825,580 825,585 "/>
<text x="923" y="590" dy="0.76em" text-anchor="middle" font-family="sans-serif" font-size="9.67741935483871" opacity="1" fill="#000000">
2020-12-05
</text>
<polyline fill="none" opacity="1" stroke="#000000" stroke-width="1" points="923,580 923,585 "/>
<polyline fill="none" opacity="1" stroke="#FF0000" stroke-width="1" points="40,578 40,578 46,576 47,575 151,575 154,575 156,575 159,575 162,575 169,574 217,572 218,572 394,572 405,571 430,571 442,570 453,570 453,569 472,569 485,569 492,568 555,568 556,568 557,568 564,567 565,567 566,566 567,566 569,565 571,564 573,564 574,563 575,563 577,562 579,562 581,562 583,561 584,560 586,560 587,559 589,558 591,558 591,558 592,558 594,557 595,557 597,556 598,556 600,555 602,555 604,554 605,554 607,553 609,552 609,552 611,552 612,552 614,551 615,551 617,550 617,550 620,549 621,548 623,548 625,548 626,547 627,547 630,546 632,545 633,545 634,545 636,544 638,543 639,543 641,542 642,542 644,542 645,541 646,541 649,540 651,539 652,539 653,538 655,538 656,538 658,537 659,537 660,536 662,536 663,535 665,535 666,535 667,534 669,534 672,533 673,532 674,532 676,532 677,531 679,531 680,530 681,530 683,529 684,529 686,528 687,528 689,528 690,527 691,527 693,526 694,526 695,525 697,525 698,525 700,524 701,524 702,523 704,523 705,522 707,522 708,521 709,521 711,521 712,520 714,520 715,519 716,519 718,518 719,518 721,518 722,517 723,517 725,516 726,516 728,515 729,515 730,515 732,514 733,514 735,513 736,513 738,512 739,512 740,511 742,511 743,511 745,510 746,510 747,509 749,509 750,508 752,508 753,508 754,507 756,507 757,506 759,506 760,505 761,505 763,505 764,504 766,504 767,503 768,503 770,502 773,501 774,501 775,501 778,500 780,499 781,499 782,498 784,498 785,498 788,497 789,496 791,496 792,495 794,495 795,495 798,494 799,493 801,493 802,492 803,492 805,491 808,491 809,490 810,490 812,489 813,489 815,488 817,488 819,487 820,487 822,486 823,486 825,485 826,485 827,485 829,484 830,484 833,483 834,482 836,482 838,481 839,481 840,481 842,480 843,480 844,479 846,479 847,478 848,478 850,478 851,477 853,477 854,476 857,475 858,475 860,475 861,474 862,474 864,473 865,473 867,472 868,472 869,471 871,471 872,471 874,470 875,470 876,469 878,469 879,468 881,468 882,468 884,467 885,467 886,466 888,466 889,465 890,465 892,464 893,464 895,464 896,463 897,463 899,462 900,462 902,461 903,461 905,461 906,460 907,460 909,459 910,459 911,458 913,458 914,458 916,457 917,457 918,456 920,456 921,455 923,455 924,454 925,454 927,454 928,453 930,453 931,452 932,452 934,451 935,451 937,451 938,450 939,450 941,449 943,449 944,448 945,448 946,448 "/>
</svg>
