<svg width="987" height="610" viewBox="0 0 987 610" xmlns="http://www.w3.org/2000/svg">
<line opacity="0.1" stroke="#000000" stroke-width="1" x1="40" y1="579" x2="40" y2="9"/>
<line opacity="0.1" stroke="#000000" stroke-width="1" x1="53" y1="579" x2="53" y2="9"/>
<line opacity="0.1" stroke="#000000" stroke-width="1" x1="66" y1="579" x2="66" y2="9"/>
<line opacity="0.1" stroke="#000000" stroke-width="1" x1="80" y1="579" x2="80" y2="9"/>
<line opacity="0.1" stroke="#000000" stroke-width="1" x1="93" y1="579" x2="93" y2="9"/>
<line opacity="0.1" stroke="#000000" stroke-width="1" x1="107" y1="579" x2="107" y2="9"/>
<line opacity="0.1" stroke="#000000" stroke-width="1" x1="120" y1="579" x2="120" y2="9"/>
<line opacity="0.1" stroke="#000000" stroke-width="1" x1="134" y1="579" x2="134" y2="9"/>
<line opacity="0.1" stroke="#000000" stroke-width="1" x1="147" y1="579" x2="147" y2="9"/>
<line opacity="0.1" stroke="#000000" stroke-width="1" x1="161" y1="579" x2="161" y2="9"/>
<line opacity="0.1" stroke="#000000" stroke-width="1" x1="174" y1="579" x2="174" y2="9"/>
<line opacity="0.1" stroke="#000000" stroke-width="1" x1="188" y1="579" x2="188" y2="9"/>
<line opacity="0.1" stroke="#000000" stroke-width="1" x1="201" y1="579" x2="201" y2="9"/>
<line opacity="0.1" stroke="#000000" stroke-width="1" x1="215" y1="579" x2="215" y2="9"/>
<line opacity="0.1" stroke="#000000" stroke-width="1" x1="228" y1="579" x2="228" y2="9"/>
<line opacity="0.1" stroke="#000000" stroke-width="1" x1="241" y1="579" x2="241" y2="9"/>
<line opacity="0.1" stroke="#000000" stroke-width="1" x1="255" y1="579" x2="255" y2="9"/>
<line opacity="0.1" stroke="#000000" stroke-width="1" x1="268" y1="579" x2="268" y2="9"/>
<line opacity="0.1" stroke="#000000" stroke-width="1" x1="282" y1="579" x2="282" y2="9"/>
<line opacity="0.1" stroke="#000000" stroke-width="1" x1="295" y1="579" x2="295" y2="9"/>
<line opacity="0.1" stroke="#000000" stroke-width="1" x1="309" y1="579" x2="309" y2="9"/>
<line opacity="0.1" stroke="#000000" stroke-width="1" x1="322" y1="579" x2="322" y2="9"/>
<line opacity="0.1" stroke="#000000" stroke-width="1" x1="336" y1="579" x2="336" y2="9"/>
<line opacity="0.1" stroke="#000000" stroke-width="1" x1="349" y1="579" x2="349" y2="9"/>
<line opacity="0.1" stroke="#000000" stroke-width="1" x1="363" y1="579" x2="363" y2="9"/>
<line opacity="0.1" stroke="#000000" stroke-width="1" x1="376" y1="579" x2="376" y2="9"/>
<line opacity="0.1" stroke="#000000" stroke-width="1" x1="390" y1="579" x2="390" y2="9"/>
<line opacity="0.1" stroke="#000000" stroke-width="1" x1="403" y1="579" x2="403" y2="9"/>
<line opacity="0.1" stroke="#000000" stroke-width="1" x1="416" y1="579" x2="416" y2="9"/>
<line opacity="0.1" stroke="#000000" stroke-width="1" x1="430" y1="579" x2="430" y2="9"/>
<line opacity="0.1" stroke="#000000" stroke-width="1" x1="443" y1="579" x2="443" y2="9"/>
<line opacity="0.1" stroke="#000000" stroke-width="1" x1="457" y1="579" x2="457" y2="9"/>
<line opacity="0.1" stroke="#000000" stroke-width="1" x1="470" y1="579" x2="470" y2="9"/>
<line opacity="0.1" stroke="#000000" stroke-width="1" x1="484" y1="579" x2="484" y2="9"/>
<line opacity="0.1" stroke="#000000" stroke-width="1" x1="497" y1="579" x2="497" y2="9"/>
<line opacity="0.1" stroke="#000000" stroke-width="1" x1="511" y1="579" x2="511" y2="9"/>
<line opacity="0.1" stroke="#000000" stroke-width="1" x1="524" y1="579" x2="524" y2="9"/>
<line opacity="0.1" stroke="#000000" stroke-width="1" x1="538" y1="579" x2="538" y2="9"/>
<line opacity="0.1" stroke="#000000" stroke-width="1" x1="551" y1="579" x2="551" y2="9"/>
<line opacity="0.1" stroke="#000000" stroke-width="1" x1="565" y1="579" x2="565" y2="9"/>
<line opacity="0.1" stroke="#000000" stroke-width="1" x1="578" y1="579" x2="578" y2="9"/>
<line opacity="0.1" stroke="#000000" stroke-width="1" x1="591" y1="579" x2="591" y2="9"/>
<line opacity="0.1" stroke="#000000" stroke-width="1" x1="605" y1="579" x2="605" y2="9"/>
<line opacity="0.1" stroke="#000000" stroke-width="1" x1="618" y1="579" x2="618" y2="9"/>
<line opacity="0.1" stroke="#000000" stroke-width="1" x1="632" y1="579" x2="632" y2="9"/>
<line opacity="0.1" stroke="#000000" stroke-width="1" x1="645" y1="579" x2="645" y2="9"/>
<line opacity="0.1" stroke="#000000" stroke-width="1" x1="659" y1="579" x2="659" y2="9"/>
<line opacity="0.1" stroke="#000000" stroke-width="1" x1="672" y1="579" x2="672" y2="9"/>
<line opacity="0.1" stroke="#000000" stroke-width="1" x1="686" y1="579" x2="686" y2="9"/>
<line opacity="0.1" stroke="#000000" stroke-width="1" x1="699" y1="579" x2="699" y2="9"/>
<line opacity="0.1" stroke="#000000" stroke-width="1" x1="713" y1="579" x2="713" y2="9"/>
<line opacity="0.1" stroke="#000000" stroke-width="1" x1="726" y1="579" x2="726" y2="9"/>
<line opacity="0.1" stroke="#000000" stroke-width="1" x1="740" y1="579" x2="740" y2="9"/>
<line opacity="0.1" stroke="#000000" stroke-width="1" x1="753" y1="579" x2="753" y2="9"/>
<line opacity="0.1" stroke="#000000" stroke-width="1" x1="766" y1="579" x2="766" y2="9"/>
<line opacity="0.1" stroke="#000000" stroke-width="1" x1="780" y1="579" x2="780" y2="9"/>
<line opacity="0.1" stroke="#000000" stroke-width="1" x1="793" y1="579" x2="793" y2="9"/>
<line opacity="0.1" stroke="#000000" stroke-width="1" x1="807" y1="579" x2="807" y2="9"/>
<line opacity="0.1" stroke="#000000" stroke-width="1" x1="820" y1="579" x2="820" y2="9"/>
<line opacity="0.1" stroke="#000000" stroke-width="1" x1="834" y1="579" x2="834" y2="9"/>
<line opacity="0.1" stroke="#000000" stroke-width="1" x1="847" y1="579" x2="847" y2="9"/>
<line opacity="0.1" stroke="#000000" stroke-width="1" x1="861" y1="579" x2="861" y2="9"/>
<line opacity="0.1" stroke="#000000" stroke-width="1" x1="874" y1="579" x2="874" y2="9"/>
<line opacity="0.1" stroke="#000000" stroke-width="1" x1="888" y1="579" x2="888" y2="9"/>
<line opacity="0.1" stroke="#000000" stroke-width="1" x1="901" y1="579" x2="901" y2="9"/>
<line opacity="0.1" stroke="#000000" stroke-width="1" x1="915" y1="579" x2="915" y2="9"/>
<line opacity="0.1" stroke="#000000" stroke-width="1" x1="928" y1="579" x2="928" y2="9"/>
<line opacity="0.1" stroke="#000000" stroke-width="1" x1="941" y1="579" x2="941" y2="9"/>
<line opacity="0.1" stroke="#000000" stroke-width="1" x1="40" y1="567" x2="947" y2="567"/>
<line opacity="0.1" stroke="#000000" stroke-width="1" x1="40" y1="556" x2="947" y2="556"/>
<line opacity="0.1" stroke="#000000" stroke-width="1" x1="40" y1="545" x2="947" y2="545"/>
<line opacity="0.1" stroke="#000000" stroke-width="1" x1="40" y1="533" x2="947" y2="533"/>
<line opacity="0.1" stroke="#000000" stroke-width="1" x1="40" y1="522" x2="947" y2="522"/>
<line opacity="0.1" stroke="#000000" stroke-width="1" x1="40" y1="511" x2="947" y2="511"/>
<line opacity="0.1" stroke="#000000" stroke-width="1" x1="40" y1="499" x2="947" y2="499"/>
<line opacity="0.1" stroke="#000000" stroke-width="1" x1="40" y1="488" x2="947" y2="488"/>
<line opacity="0.1" stroke="#000000" stroke-width="1" x1="40" y1="477" x2="947" y2="477"/>
<line opacity="0.1" stroke="#000000" stroke-width="1" x1="40" y1="466" x2="947" y2="466"/>
<line opacity="0.1" stroke="#000000" stroke-width="1" x1="40" y1="454" x2="947" y2="454"/>
<line opacity="0.1" stroke="#000000" stroke-width="1" x1="40" y1="443" x2="947" y2="443"/>
<line opacity="0.1" stroke="#000000" stroke-width="1" x1="40" y1="432" x2="947" y2="432"/>
<line opacity="0.1" stroke="#000000" stroke-width="1" x1="40" y1="420" x2="947" y2="420"/>
<line opacity="0.1" stroke="#000000" stroke-width="1" x1="40" y1="409" x2="947" y2="409"/>
<line opacity="0.1" stroke="#000000" stroke-width="1" x1="40" y1="398" x2="947" y2="398"/>
<line opacity="0.1" stroke="#000000" stroke-width="1" x1="40" y1="387" x2="947" y2="387"/>
<line opacity="0.1" stroke="#000000" stroke-width="1" x1="40" y1="375" x2="947" y2="375"/>
<line opacity="0.1" stroke="#000000" stroke-width="1" x1="40" y1="364" x2="947" y2="364"/>
<line opacity="0.1" stroke="#000000" stroke-width="1" x1="40" y1="353" x2="947" y2="353"/>
<line opacity="0.1" stroke="#000000" stroke-width="1" x1="40" y1="341" x2="947" y2="341"/>
<line opacity="0.1" stroke="#000000" stroke-width="1" x1="40" y1="330" x2="947" y2="330"/>
<line opacity="0.1" stroke="#000000" stroke-width="1" x1="40" y1="319" x2="947" y2="319"/>
<line opacity="0.1" stroke="#000000" stroke-width="1" x1="40" y1="308" x2="947" y2="308"/>
<line opacity="0.1" stroke="#000000" stroke-width="1" x1="40" y1="296" x2="947" y2="296"/>
<line opacity="0.1" stroke="#000000" stroke-width="1" x1="40" y1="285" x2="947" y2="285"/>
<line opacity="0.1" stroke="#000000" stroke-width="1" x1="40" y1="274" x2="947" y2="274"/>
<line opacity="0.1" stroke="#000000" stroke-width="1" x1="40" y1="262" x2="947" y2="262"/>
<line opacity="0.1" stroke="#000000" stroke-width="1" x1="40" y1="251" x2="947" y2="251"/>
<line opacity="0.1" stroke="#000000" stroke-width="1" x1="40" y1="240" x2="947" y2="240"/>
<line opacity="0.1" stroke="#000000" stroke-width="1" x1="40" y1="229" x2="947" y2="229"/>
<line opacity="0.1" stroke="#000000" stroke-width="1" x1="40" y1="217" x2="947" y2="217"/>
<line opacity="0.1" stroke="#000000" stroke-width="1" x1="40" y1="206" x2="947" y2="206"/>
<line opacity="0.1" stroke="#000000" stroke-width="1" x1="40" y1="195" x2="947" y2="195"/>
<line opacity="0.1" stroke="#000000" stroke-width="1" x1="40" y1="183" x2="947" y2="183"/>
<line opacity="0.1" stroke="#000000" stroke-width="1" x1="40" y1="172" x2="947" y2="172"/>
<line opacity="0.1" stroke="#000000" stroke-width="1" x1="40" y1="161" x2="947" y2="161"/>
<line opacity="0.1" stroke="#000000" stroke-width="1" x1="40" y1="150" x2="947" y2="150"/>
<line opacity="0.1" stroke="#000000" stroke-width="1" x1="40" y1="138" x2="947" y2="138"/>
<line opacity="0.1" stroke="#000000" stroke-width="1" x1="40" y1="127" x2="947" y2="127"/>
<line opacity="0.1" stroke="#000000" stroke-width="1" x1="40" y1="116" x2="947" y2="116"/>
<line opacity="0.1" stroke="#000000" stroke-width="1" x1="40" y1="104" x2="947" y2="104"/>
<line opacity="0.1" stroke="#000000" stroke-width="1" x1="40" y1="93" x2="947" y2="93"/>
<line opacity="0.1" stroke="#000000" stroke-width="1" x1="40" y1="82" x2="947" y2="82"/>
<line opacity="0.1" stroke="#000000" stroke-width="1" x1="40" y1="71" x2="947" y2="71"/>
<line opacity="0.1" stroke="#000000" stroke-width="1" x1="40" y1="59" x2="947" y2="59"/>
<line opacity="0.1" stroke="#000000" stroke-width="1" x1="40" y1="48" x2="947" y2="48"/>
<line opacity="0.1" stroke="#000000" stroke-width="1" x1="40" y1="37" x2="947" y2="37"/>
<line opacity="0.1" stroke="#000000" stroke-width="1" x1="40" y1="25" x2="947" y2="25"/>
<line opacity="0.1" stroke="#000000" stroke-width="1" x1="40" y1="14" x2="947" y2="14"/>
<line opacity="0.2" stroke="#000000" stroke-width="1" x1="40" y1="579" x2="40" y2="9"/>
<line opacity="0.2" stroke="#000000" stroke-width="1" x1="134" y1="579" x2="134" y2="9"/>
<line opacity="0.2" stroke="#000000" stroke-width="1" x1="228" y1="579" x2="228" y2="9"/>
<line opacity="0.2" stroke="#000000" stroke-width="1" x1="322" y1="579" x2="322" y2="9"/>
<line opacity="0.2" stroke="#000000" stroke-width="1" x1="416" y1="579" x2="416" y2="9"/>
<line opacity="0.2" stroke="#000000" stroke-width="1" x1="511" y1="579" x2="511" y2="9"/>
<line opacity="0.2" stroke="#000000" stroke-width="1" x1="605" y1="579" x2="605" y2="9"/>
<line opacity="0.2" stroke="#000000" stroke-width="1" x1="699" y1="579" x2="699" y2="9"/>
<line opacity="0.2" stroke="#000000" stroke-width="1" x1="793" y1="579" x2="793" y2="9"/>
<line opacity="0.2" stroke="#000000" stroke-width="1" x1="888" y1="579" x2="888" y2="9"/>
<line opacity="0.2" stroke="#000000" stroke-width="1" x1="40" y1="522" x2="947" y2="522"/>
<line opacity="0.2" stroke="#000000" stroke-width="1" x1="40" y1="466" x2="947" y2="466"/>
<line opacity="0.2" stroke="#000000" stroke-width="1" x1="40" y1="409" x2="947" y2="409"/>
<line opacity="0.2" stroke="#000000" stroke-width="1" x1="40" y1="353" x2="947" y2="353"/>
<line opacity="0.2" stroke="#000000" stroke-width="1" x1="40" y1="296" x2="947" y2="296"/>
<line opacity="0.2" stroke="#000000" stroke-width="1" x1="40" y1="240" x2="947" y2="240"/>
<line opacity="0.2" stroke="#000000" stroke-width="1" x1="40" y1="183" x2="947" y2="183"/>
<line opacity="0.2" stroke="#000000" stroke-width="1" x1="40" y1="127" x2="947" y2="127"/>
<line opacity="0.2" stroke="#000000" stroke-width="1" x1="40" y1="71" x2="947" y2="71"/>
<line opacity="0.2" stroke="#000000" stroke-width="1" x1="40" y1="14" x2="947" y2="14"/>
<polyline fill="none" opacity="1" stroke="#000000" stroke-width="1" points="39,10 39,580 "/>
<text x="30" y="522" dy="0.5ex" text-anchor="end" font-family="sans-serif" font-size="9.67741935483871" opacity="1" fill="#000000">
10%
</text>
<polyline fill="none" opacity="1" stroke="#000000" stroke-width="1" points="34,522 39,522 "/>
<text x="30" y="466" dy="0.5ex" text-anchor="end" font-family="sans-serif" font-size="9.67741935483871" opacity="1" fill="#000000">
20%
</text>
<polyline fill="none" opacity="1" stroke="#000000" stroke-width="1" points="34,466 39,466 "/>
<text x="30" y="409" dy="0.5ex" text-anchor="end" font-family="sans-serif" font-size="9.67741935483871" opacity="1" fill="#000000">
30%
</text>
<polyline fill="none" opacity="1" stroke="#000000" stroke-width="1" points="34,409 39,409 "/>
<text x="30" y="353" dy="0.5ex" text-anchor="end" font-family="sans-serif" font-size="9.67741935483871" opacity="1" fill="#000000">
40%
</text>
<polyline fill="none" opacity="1" stroke="#000000" stroke-width="1" points="34,353 39,353 "/>
<text x="30" y="296" dy="0.5ex" text-anchor="end" font-family="sans-serif" font-size="9.67741935483871" opacity="1" fill="#000000">
50%
</text>
<polyline fill="none" opacity="1" stroke="#000000" stroke-width="1" points="34,296 39,296 "/>
<text x="30" y="240" dy="0.5ex" text-anchor="end" font-family="sans-serif" font-size="9.67741935483871" opacity="1" fill="#000000">
60%
</text>
<polyline fill="none" opacity="1" stroke="#000000" stroke-width="1" points="34,240 39,240 "/>
<text x="30" y="183" dy="0.5ex" text-anchor="end" font-family="sans-serif" font-size="9.67741935483871" opacity="1" fill="#000000">
70%
</text>
<polyline fill="none" opacity="1" stroke="#000000" stroke-width="1" points="34,183 39,183 "/>
<text x="30" y="127" dy="0.5ex" text-anchor="end" font-family="sans-serif" font-size="9.67741935483871" opacity="1" fill="#000000">
80%
</text>
<polyline fill="none" opacity="1" stroke="#000000" stroke-width="1" points="34,127 39,127 "/>
<text x="30" y="71" dy="0.5ex" text-anchor="end" font-family="sans-serif" font-size="9.67741935483871" opacity="1" fill="#000000">
90%
</text>
<polyline fill="none" opacity="1" stroke="#000000" stroke-width="1" points="34,71 39,71 "/>
<text x="30" y="14" dy="0.5ex" text-anchor="end" font-family="sans-serif" font-size="9.67741935483871" opacity="1" fill="#000000">
100%
</text>
<polyline fill="none" opacity="1" stroke="#000000" stroke-width="1" points="34,14 39,14 "/>
<polyline fill="none" opacity="1" stroke="#000000" stroke-width="1" points="40,580 947,580 "/>
<text x="40" y="590" dy="0.76em" text-anchor="middle" font-family="sans-serif" font-size="9.67741935483871" opacity="1" fill="#000000">
2019-03-16
</text>
<polyline fill="none" opacity="1" stroke="#000000" stroke-width="1" points="40,580 40,585 "/>
<text x="134" y="590" dy="0.76em" text-anchor="middle" font-family="sans-serif" font-size="9.67741935483871" opacity="1" fill="#000000">
2019-05-04
</text>
<polyline fill="none" opacity="1" stroke="#000000" stroke-width="1" points="134,580 134,585 "/>
<text x="228" y="590" dy="0.76em" text-anchor="middle" font-family="sans-serif" font-size="9.67741935483871" opacity="1" fill="#000000">
2019-06-22
</text>
<polyline fill="none" opacity="1" stroke="#000000" stroke-width="1" points="228,580 228,585 "/>
<text x="322" y="590" dy="0.76em" text-anchor="middle" font-family="sans-serif" font-size="9.67741935483871" opacity="1" fill="#000000">
2019-08-10
</text>
<polyline fill="none" opacity="1" stroke="#000000" stroke-width="1" points="322,580 322,585 "/>
<text x="416" y="590" dy="0.76em" text-anchor="middle" font-family="sans-serif" font-size="9.67741935483871" opacity="1" fill="#000000">
2019-09-28
</text>
<polyline fill="none" opacity="1" stroke="#000000" stroke-width="1" points="416,580 416,585 "/>
<text x="511" y="590" dy="0.76em" text-anchor="middle" font-family="sans-serif" font-size="9.67741935483871" opacity="1" fill="#000000">
2019-11-16
</text>
<polyline fill="none" opacity="1" stroke="#000000" stroke-width="1" points="511,580 511,585 "/>
<text x="605" y="590" dy="0.76em" text-anchor="middle" font-family="sans-serif" font-size="9.67741935483871" opacity="1" fill="#000000">
2020-01-04
</text>
<polyline fill="none" opacity="1" stroke="#000000" stroke-width="1" points="605,580 605,585 "/>
<text x="699" y="590" dy="0.76em" text-anchor="middle" font-family="sans-serif" font-size="9.67741935483871" opacity="1" fill="#000000">
2020-02-22
</text>
<polyline fill="none" opacity="1" stroke="#000000" stroke-width="1" points="699,580 699,585 "/>
<text x="793" y="590" dy="0.76em" text-anchor="middle" font-family="sans-serif" font-size="9.67741935483871" opacity="1" fill="#000000">
2020-04-11
</text>
<polyline fill="none" opacity="1" stroke="#000000" stroke-width="1" points="793,580 793,585 "/>
<text x="888" y="590" dy="0.76em" text-anchor="middle" font-family="sans-serif" font-size="9.67741935483871" opacity="1" fill="#000000">
2020-05-30
</text>
<polyline fill="none" opacity="1" stroke="#000000" stroke-width="1" points="888,580 888,585 "/>
<polyline fill="none" opacity="1" stroke="#FF0000" stroke-width="1" points="40,578 40,578 48,576 50,575 192,575 196,575 199,575 204,575 207,575 217,573 284,572 284,572 526,571 540,570 575,570 591,569 607,569 607,568 632,568 651,568 660,567 746,567 748,566 750,566 758,566 760,565 761,565 763,564 765,563 768,562 771,562 773,561 774,561 777,560 779,559 782,559 784,558 786,558 789,557 790,557 793,556 795,555 796,555 798,555 800,555 802,554 803,554 805,553 808,552 811,552 813,551 815,551 817,550 820,549 820,549 823,548 825,548 827,548 828,547 832,547 832,546 836,545 837,545 839,544 842,544 844,543 846,543 849,542 852,541 853,541 855,540 857,540 860,539 862,538 864,538 866,537 868,537 870,536 872,536 875,535 877,534 879,534 881,533 883,533 885,532 887,532 889,532 891,531 893,531 895,530 896,530 898,529 900,529 903,528 906,527 908,527 910,526 912,526 914,525 916,525 918,524 920,524 922,523 923,523 925,522 928,522 929,521 931,521 933,520 935,520 937,519 939,519 941,518 943,518 945,517 947,517 "/>
</svg>
