<svg width="987" height="610" viewBox="0 0 987 610" xmlns="http://www.w3.org/2000/svg">
<line opacity="0.1" stroke="#000000" stroke-width="1" x1="40" y1="579" x2="40" y2="9"/>
<line opacity="0.1" stroke="#000000" stroke-width="1" x1="50" y1="579" x2="50" y2="9"/>
<line opacity="0.1" stroke="#000000" stroke-width="1" x1="61" y1="579" x2="61" y2="9"/>
<line opacity="0.1" stroke="#000000" stroke-width="1" x1="72" y1="579" x2="72" y2="9"/>
<line opacity="0.1" stroke="#000000" stroke-width="1" x1="83" y1="579" x2="83" y2="9"/>
<line opacity="0.1" stroke="#000000" stroke-width="1" x1="94" y1="579" x2="94" y2="9"/>
<line opacity="0.1" stroke="#000000" stroke-width="1" x1="105" y1="579" x2="105" y2="9"/>
<line opacity="0.1" stroke="#000000" stroke-width="1" x1="115" y1="579" x2="115" y2="9"/>
<line opacity="0.1" stroke="#000000" stroke-width="1" x1="126" y1="579" x2="126" y2="9"/>
<line opacity="0.1" stroke="#000000" stroke-width="1" x1="137" y1="579" x2="137" y2="9"/>
<line opacity="0.1" stroke="#000000" stroke-width="1" x1="148" y1="579" x2="148" y2="9"/>
<line opacity="0.1" stroke="#000000" stroke-width="1" x1="159" y1="579" x2="159" y2="9"/>
<line opacity="0.1" stroke="#000000" stroke-width="1" x1="170" y1="579" x2="170" y2="9"/>
<line opacity="0.1" stroke="#000000" stroke-width="1" x1="180" y1="579" x2="180" y2="9"/>
<line opacity="0.1" stroke="#000000" stroke-width="1" x1="191" y1="579" x2="191" y2="9"/>
<line opacity="0.1" stroke="#000000" stroke-width="1" x1="202" y1="579" x2="202" y2="9"/>
<line opacity="0.1" stroke="#000000" stroke-width="1" x1="213" y1="579" x2="213" y2="9"/>
<line opacity="0.1" stroke="#000000" stroke-width="1" x1="224" y1="579" x2="224" y2="9"/>
<line opacity="0.1" stroke="#000000" stroke-width="1" x1="235" y1="579" x2="235" y2="9"/>
<line opacity="0.1" stroke="#000000" stroke-width="1" x1="245" y1="579" x2="245" y2="9"/>
<line opacity="0.1" stroke="#000000" stroke-width="1" x1="256" y1="579" x2="256" y2="9"/>
<line opacity="0.1" stroke="#000000" stroke-width="1" x1="267" y1="579" x2="267" y2="9"/>
<line opacity="0.1" stroke="#000000" stroke-width="1" x1="278" y1="579" x2="278" y2="9"/>
<line opacity="0.1" stroke="#000000" stroke-width="1" x1="289" y1="579" x2="289" y2="9"/>
<line opacity="0.1" stroke="#000000" stroke-width="1" x1="300" y1="579" x2="300" y2="9"/>
<line opacity="0.1" stroke="#000000" stroke-width="1" x1="311" y1="579" x2="311" y2="9"/>
<line opacity="0.1" stroke="#000000" stroke-width="1" x1="321" y1="579" x2="321" y2="9"/>
<line opacity="0.1" stroke="#000000" stroke-width="1" x1="332" y1="579" x2="332" y2="9"/>
<line opacity="0.1" stroke="#000000" stroke-width="1" x1="343" y1="579" x2="343" y2="9"/>
<line opacity="0.1" stroke="#000000" stroke-width="1" x1="354" y1="579" x2="354" y2="9"/>
<line opacity="0.1" stroke="#000000" stroke-width="1" x1="365" y1="579" x2="365" y2="9"/>
<line opacity="0.1" stroke="#000000" stroke-width="1" x1="376" y1="579" x2="376" y2="9"/>
<line opacity="0.1" stroke="#000000" stroke-width="1" x1="386" y1="579" x2="386" y2="9"/>
<line opacity="0.1" stroke="#000000" stroke-width="1" x1="397" y1="579" x2="397" y2="9"/>
<line opacity="0.1" stroke="#000000" stroke-width="1" x1="408" y1="579" x2="408" y2="9"/>
<line opacity="0.1" stroke="#000000" stroke-width="1" x1="419" y1="579" x2="419" y2="9"/>
<line opacity="0.1" stroke="#000000" stroke-width="1" x1="430" y1="579" x2="430" y2="9"/>
<line opacity="0.1" stroke="#000000" stroke-width="1" x1="441" y1="579" x2="441" y2="9"/>
<line opacity="0.1" stroke="#000000" stroke-width="1" x1="451" y1="579" x2="451" y2="9"/>
<line opacity="0.1" stroke="#000000" stroke-width="1" x1="462" y1="579" x2="462" y2="9"/>
<line opacity="0.1" stroke="#000000" stroke-width="1" x1="473" y1="579" x2="473" y2="9"/>
<line opacity="0.1" stroke="#000000" stroke-width="1" x1="484" y1="579" x2="484" y2="9"/>
<line opacity="0.1" stroke="#000000" stroke-width="1" x1="495" y1="579" x2="495" y2="9"/>
<line opacity="0.1" stroke="#000000" stroke-width="1" x1="506" y1="579" x2="506" y2="9"/>
<line opacity="0.1" stroke="#000000" stroke-width="1" x1="517" y1="579" x2="517" y2="9"/>
<line opacity="0.1" stroke="#000000" stroke-width="1" x1="527" y1="579" x2="527" y2="9"/>
<line opacity="0.1" stroke="#000000" stroke-width="1" x1="538" y1="579" x2="538" y2="9"/>
<line opacity="0.1" stroke="#000000" stroke-width="1" x1="549" y1="579" x2="549" y2="9"/>
<line opacity="0.1" stroke="#000000" stroke-width="1" x1="560" y1="579" x2="560" y2="9"/>
<line opacity="0.1" stroke="#000000" stroke-width="1" x1="571" y1="579" x2="571" y2="9"/>
<line opacity="0.1" stroke="#000000" stroke-width="1" x1="582" y1="579" x2="582" y2="9"/>
<line opacity="0.1" stroke="#000000" stroke-width="1" x1="592" y1="579" x2="592" y2="9"/>
<line opacity="0.1" stroke="#000000" stroke-width="1" x1="603" y1="579" x2="603" y2="9"/>
<line opacity="0.1" stroke="#000000" stroke-width="1" x1="614" y1="579" x2="614" y2="9"/>
<line opacity="0.1" stroke="#000000" stroke-width="1" x1="625" y1="579" x2="625" y2="9"/>
<line opacity="0.1" stroke="#000000" stroke-width="1" x1="636" y1="579" x2="636" y2="9"/>
<line opacity="0.1" stroke="#000000" stroke-width="1" x1="647" y1="579" x2="647" y2="9"/>
<line opacity="0.1" stroke="#000000" stroke-width="1" x1="657" y1="579" x2="657" y2="9"/>
<line opacity="0.1" stroke="#000000" stroke-width="1" x1="668" y1="579" x2="668" y2="9"/>
<line opacity="0.1" stroke="#000000" stroke-width="1" x1="679" y1="579" x2="679" y2="9"/>
<line opacity="0.1" stroke="#000000" stroke-width="1" x1="690" y1="579" x2="690" y2="9"/>
<line opacity="0.1" stroke="#000000" stroke-width="1" x1="701" y1="579" x2="701" y2="9"/>
<line opacity="0.1" stroke="#000000" stroke-width="1" x1="712" y1="579" x2="712" y2="9"/>
<line opacity="0.1" stroke="#000000" stroke-width="1" x1="723" y1="579" x2="723" y2="9"/>
<line opacity="0.1" stroke="#000000" stroke-width="1" x1="733" y1="579" x2="733" y2="9"/>
<line opacity="0.1" stroke="#000000" stroke-width="1" x1="744" y1="579" x2="744" y2="9"/>
<line opacity="0.1" stroke="#000000" stroke-width="1" x1="755" y1="579" x2="755" y2="9"/>
<line opacity="0.1" stroke="#000000" stroke-width="1" x1="766" y1="579" x2="766" y2="9"/>
<line opacity="0.1" stroke="#000000" stroke-width="1" x1="777" y1="579" x2="777" y2="9"/>
<line opacity="0.1" stroke="#000000" stroke-width="1" x1="788" y1="579" x2="788" y2="9"/>
<line opacity="0.1" stroke="#000000" stroke-width="1" x1="798" y1="579" x2="798" y2="9"/>
<line opacity="0.1" stroke="#000000" stroke-width="1" x1="809" y1="579" x2="809" y2="9"/>
<line opacity="0.1" stroke="#000000" stroke-width="1" x1="820" y1="579" x2="820" y2="9"/>
<line opacity="0.1" stroke="#000000" stroke-width="1" x1="831" y1="579" x2="831" y2="9"/>
<line opacity="0.1" stroke="#000000" stroke-width="1" x1="842" y1="579" x2="842" y2="9"/>
<line opacity="0.1" stroke="#000000" stroke-width="1" x1="853" y1="579" x2="853" y2="9"/>
<line opacity="0.1" stroke="#000000" stroke-width="1" x1="863" y1="579" x2="863" y2="9"/>
<line opacity="0.1" stroke="#000000" stroke-width="1" x1="874" y1="579" x2="874" y2="9"/>
<line opacity="0.1" stroke="#000000" stroke-width="1" x1="885" y1="579" x2="885" y2="9"/>
<line opacity="0.1" stroke="#000000" stroke-width="1" x1="896" y1="579" x2="896" y2="9"/>
<line opacity="0.1" stroke="#000000" stroke-width="1" x1="907" y1="579" x2="907" y2="9"/>
<line opacity="0.1" stroke="#000000" stroke-width="1" x1="918" y1="579" x2="918" y2="9"/>
<line opacity="0.1" stroke="#000000" stroke-width="1" x1="928" y1="579" x2="928" y2="9"/>
<line opacity="0.1" stroke="#000000" stroke-width="1" x1="939" y1="579" x2="939" y2="9"/>
<line opacity="0.1" stroke="#000000" stroke-width="1" x1="40" y1="567" x2="947" y2="567"/>
<line opacity="0.1" stroke="#000000" stroke-width="1" x1="40" y1="556" x2="947" y2="556"/>
<line opacity="0.1" stroke="#000000" stroke-width="1" x1="40" y1="545" x2="947" y2="545"/>
<line opacity="0.1" stroke="#000000" stroke-width="1" x1="40" y1="533" x2="947" y2="533"/>
<line opacity="0.1" stroke="#000000" stroke-width="1" x1="40" y1="522" x2="947" y2="522"/>
<line opacity="0.1" stroke="#000000" stroke-width="1" x1="40" y1="511" x2="947" y2="511"/>
<line opacity="0.1" stroke="#000000" stroke-width="1" x1="40" y1="499" x2="947" y2="499"/>
<line opacity="0.1" stroke="#000000" stroke-width="1" x1="40" y1="488" x2="947" y2="488"/>
<line opacity="0.1" stroke="#000000" stroke-width="1" x1="40" y1="477" x2="947" y2="477"/>
<line opacity="0.1" stroke="#000000" stroke-width="1" x1="40" y1="466" x2="947" y2="466"/>
<line opacity="0.1" stroke="#000000" stroke-width="1" x1="40" y1="454" x2="947" y2="454"/>
<line opacity="0.1" stroke="#000000" stroke-width="1" x1="40" y1="443" x2="947" y2="443"/>
<line opacity="0.1" stroke="#000000" stroke-width="1" x1="40" y1="432" x2="947" y2="432"/>
<line opacity="0.1" stroke="#000000" stroke-width="1" x1="40" y1="420" x2="947" y2="420"/>
<line opacity="0.1" stroke="#000000" stroke-width="1" x1="40" y1="409" x2="947" y2="409"/>
<line opacity="0.1" stroke="#000000" stroke-width="1" x1="40" y1="398" x2="947" y2="398"/>
<line opacity="0.1" stroke="#000000" stroke-width="1" x1="40" y1="387" x2="947" y2="387"/>
<line opacity="0.1" stroke="#000000" stroke-width="1" x1="40" y1="375" x2="947" y2="375"/>
<line opacity="0.1" stroke="#000000" stroke-width="1" x1="40" y1="364" x2="947" y2="364"/>
<line opacity="0.1" stroke="#000000" stroke-width="1" x1="40" y1="353" x2="947" y2="353"/>
<line opacity="0.1" stroke="#000000" stroke-width="1" x1="40" y1="341" x2="947" y2="341"/>
<line opacity="0.1" stroke="#000000" stroke-width="1" x1="40" y1="330" x2="947" y2="330"/>
<line opacity="0.1" stroke="#000000" stroke-width="1" x1="40" y1="319" x2="947" y2="319"/>
<line opacity="0.1" stroke="#000000" stroke-width="1" x1="40" y1="308" x2="947" y2="308"/>
<line opacity="0.1" stroke="#000000" stroke-width="1" x1="40" y1="296" x2="947" y2="296"/>
<line opacity="0.1" stroke="#000000" stroke-width="1" x1="40" y1="285" x2="947" y2="285"/>
<line opacity="0.1" stroke="#000000" stroke-width="1" x1="40" y1="274" x2="947" y2="274"/>
<line opacity="0.1" stroke="#000000" stroke-width="1" x1="40" y1="262" x2="947" y2="262"/>
<line opacity="0.1" stroke="#000000" stroke-width="1" x1="40" y1="251" x2="947" y2="251"/>
<line opacity="0.1" stroke="#000000" stroke-width="1" x1="40" y1="240" x2="947" y2="240"/>
<line opacity="0.1" stroke="#000000" stroke-width="1" x1="40" y1="229" x2="947" y2="229"/>
<line opacity="0.1" stroke="#000000" stroke-width="1" x1="40" y1="217" x2="947" y2="217"/>
<line opacity="0.1" stroke="#000000" stroke-width="1" x1="40" y1="206" x2="947" y2="206"/>
<line opacity="0.1" stroke="#000000" stroke-width="1" x1="40" y1="195" x2="947" y2="195"/>
<line opacity="0.1" stroke="#000000" stroke-width="1" x1="40" y1="183" x2="947" y2="183"/>
<line opacity="0.1" stroke="#000000" stroke-width="1" x1="40" y1="172" x2="947" y2="172"/>
<line opacity="0.1" stroke="#000000" stroke-width="1" x1="40" y1="161" x2="947" y2="161"/>
<line opacity="0.1" stroke="#000000" stroke-width="1" x1="40" y1="150" x2="947" y2="150"/>
<line opacity="0.1" stroke="#000000" stroke-width="1" x1="40" y1="138" x2="947" y2="138"/>
<line opacity="0.1" stroke="#000000" stroke-width="1" x1="40" y1="127" x2="947" y2="127"/>
<line opacity="0.1" stroke="#000000" stroke-width="1" x1="40" y1="116" x2="947" y2="116"/>
<line opacity="0.1" stroke="#000000" stroke-width="1" x1="40" y1="104" x2="947" y2="104"/>
<line opacity="0.1" stroke="#000000" stroke-width="1" x1="40" y1="93" x2="947" y2="93"/>
<line opacity="0.1" stroke="#000000" stroke-width="1" x1="40" y1="82" x2="947" y2="82"/>
<line opacity="0.1" stroke="#000000" stroke-width="1" x1="40" y1="71" x2="947" y2="71"/>
<line opacity="0.1" stroke="#000000" stroke-width="1" x1="40" y1="59" x2="947" y2="59"/>
<line opacity="0.1" stroke="#000000" stroke-width="1" x1="40" y1="48" x2="947" y2="48"/>
<line opacity="0.1" stroke="#000000" stroke-width="1" x1="40" y1="37" x2="947" y2="37"/>
<line opacity="0.1" stroke="#000000" stroke-width="1" x1="40" y1="25" x2="947" y2="25"/>
<line opacity="0.1" stroke="#000000" stroke-width="1" x1="40" y1="14" x2="947" y2="14"/>
<line opacity="0.2" stroke="#000000" stroke-width="1" x1="40" y1="579" x2="40" y2="9"/>
<line opacity="0.2" stroke="#000000" stroke-width="1" x1="137" y1="579" x2="137" y2="9"/>
<line opacity="0.2" stroke="#000000" stroke-width="1" x1="235" y1="579" x2="235" y2="9"/>
<line opacity="0.2" stroke="#000000" stroke-width="1" x1="332" y1="579" x2="332" y2="9"/>
<line opacity="0.2" stroke="#000000" stroke-width="1" x1="430" y1="579" x2="430" y2="9"/>
<line opacity="0.2" stroke="#000000" stroke-width="1" x1="527" y1="579" x2="527" y2="9"/>
<line opacity="0.2" stroke="#000000" stroke-width="1" x1="625" y1="579" x2="625" y2="9"/>
<line opacity="0.2" stroke="#000000" stroke-width="1" x1="723" y1="579" x2="723" y2="9"/>
<line opacity="0.2" stroke="#000000" stroke-width="1" x1="820" y1="579" x2="820" y2="9"/>
<line opacity="0.2" stroke="#000000" stroke-width="1" x1="918" y1="579" x2="918" y2="9"/>
<line opacity="0.2" stroke="#000000" stroke-width="1" x1="40" y1="522" x2="947" y2="522"/>
<line opacity="0.2" stroke="#000000" stroke-width="1" x1="40" y1="466" x2="947" y2="466"/>
<line opacity="0.2" stroke="#000000" stroke-width="1" x1="40" y1="409" x2="947" y2="409"/>
<line opacity="0.2" stroke="#000000" stroke-width="1" x1="40" y1="353" x2="947" y2="353"/>
<line opacity="0.2" stroke="#000000" stroke-width="1" x1="40" y1="296" x2="947" y2="296"/>
<line opacity="0.2" stroke="#000000" stroke-width="1" x1="40" y1="240" x2="947" y2="240"/>
<line opacity="0.2" stroke="#000000" stroke-width="1" x1="40" y1="183" x2="947" y2="183"/>
<line opacity="0.2" stroke="#000000" stroke-width="1" x1="40" y1="127" x2="947" y2="127"/>
<line opacity="0.2" stroke="#000000" stroke-width="1" x1="40" y1="71" x2="947" y2="71"/>
<line opacity="0.2" stroke="#000000" stroke-width="1" x1="40" y1="14" x2="947" y2="14"/>
<polyline fill="none" opacity="1" stroke="#000000" stroke-width="1" points="39,10 39,580 "/>
<text x="30" y="522" dy="0.5ex" text-anchor="end" font-family="sans-serif" font-size="9.67741935483871" opacity="1" fill="#000000">
10%
</text>
<polyline fill="none" opacity="1" stroke="#000000" stroke-width="1" points="34,522 39,522 "/>
<text x="30" y="466" dy="0.5ex" text-anchor="end" font-family="sans-serif" font-size="9.67741935483871" opacity="1" fill="#000000">
20%
</text>
<polyline fill="none" opacity="1" stroke="#000000" stroke-width="1" points="34,466 39,466 "/>
<text x="30" y="409" dy="0.5ex" text-anchor="end" font-family="sans-serif" font-size="9.67741935483871" opacity="1" fill="#000000">
30%
</text>
<polyline fill="none" opacity="1" stroke="#000000" stroke-width="1" points="34,409 39,409 "/>
<text x="30" y="353" dy="0.5ex" text-anchor="end" font-family="sans-serif" font-size="9.67741935483871" opacity="1" fill="#000000">
40%
</text>
<polyline fill="none" opacity="1" stroke="#000000" stroke-width="1" points="34,353 39,353 "/>
<text x="30" y="296" dy="0.5ex" text-anchor="end" font-family="sans-serif" font-size="9.67741935483871" opacity="1" fill="#000000">
50%
</text>
<polyline fill="none" opacity="1" stroke="#000000" stroke-width="1" points="34,296 39,296 "/>
<text x="30" y="240" dy="0.5ex" text-anchor="end" font-family="sans-serif" font-size="9.67741935483871" opacity="1" fill="#000000">
60%
</text>
<polyline fill="none" opacity="1" stroke="#000000" stroke-width="1" points="34,240 39,240 "/>
<text x="30" y="183" dy="0.5ex" text-anchor="end" font-family="sans-serif" font-size="9.67741935483871" opacity="1" fill="#000000">
70%
</text>
<polyline fill="none" opacity="1" stroke="#000000" stroke-width="1" points="34,183 39,183 "/>
<text x="30" y="127" dy="0.5ex" text-anchor="end" font-family="sans-serif" font-size="9.67741935483871" opacity="1" fill="#000000">
80%
</text>
<polyline fill="none" opacity="1" stroke="#000000" stroke-width="1" points="34,127 39,127 "/>
<text x="30" y="71" dy="0.5ex" text-anchor="end" font-family="sans-serif" font-size="9.67741935483871" opacity="1" fill="#000000">
90%
</text>
<polyline fill="none" opacity="1" stroke="#000000" stroke-width="1" points="34,71 39,71 "/>
<text x="30" y="14" dy="0.5ex" text-anchor="end" font-family="sans-serif" font-size="9.67741935483871" opacity="1" fill="#000000">
100%
</text>
<polyline fill="none" opacity="1" stroke="#000000" stroke-width="1" points="34,14 39,14 "/>
<polyline fill="none" opacity="1" stroke="#000000" stroke-width="1" points="40,580 947,580 "/>
<text x="40" y="590" dy="0.76em" text-anchor="middle" font-family="sans-serif" font-size="9.67741935483871" opacity="1" fill="#000000">
2019-03-16
</text>
<polyline fill="none" opacity="1" stroke="#000000" stroke-width="1" points="40,580 40,585 "/>
<text x="137" y="590" dy="0.76em" text-anchor="middle" font-family="sans-serif" font-size="9.67741935483871" opacity="1" fill="#000000">
2019-05-18
</text>
<polyline fill="none" opacity="1" stroke="#000000" stroke-width="1" points="137,580 137,585 "/>
<text x="235" y="590" dy="0.76em" text-anchor="middle" font-family="sans-serif" font-size="9.67741935483871" opacity="1" fill="#000000">
2019-07-20
</text>
<polyline fill="none" opacity="1" stroke="#000000" stroke-width="1" points="235,580 235,585 "/>
<text x="332" y="590" dy="0.76em" text-anchor="middle" font-family="sans-serif" font-size="9.67741935483871" opacity="1" fill="#000000">
2019-09-21
</text>
<polyline fill="none" opacity="1" stroke="#000000" stroke-width="1" points="332,580 332,585 "/>
<text x="430" y="590" dy="0.76em" text-anchor="middle" font-family="sans-serif" font-size="9.67741935483871" opacity="1" fill="#000000">
2019-11-23
</text>
<polyline fill="none" opacity="1" stroke="#000000" stroke-width="1" points="430,580 430,585 "/>
<text x="527" y="590" dy="0.76em" text-anchor="middle" font-family="sans-serif" font-size="9.67741935483871" opacity="1" fill="#000000">
2020-01-25
</text>
<polyline fill="none" opacity="1" stroke="#000000" stroke-width="1" points="527,580 527,585 "/>
<text x="625" y="590" dy="0.76em" text-anchor="middle" font-family="sans-serif" font-size="9.67741935483871" opacity="1" fill="#000000">
2020-03-28
</text>
<polyline fill="none" opacity="1" stroke="#000000" stroke-width="1" points="625,580 625,585 "/>
<text x="723" y="590" dy="0.76em" text-anchor="middle" font-family="sans-serif" font-size="9.67741935483871" opacity="1" fill="#000000">
2020-05-30
</text>
<polyline fill="none" opacity="1" stroke="#000000" stroke-width="1" points="723,580 723,585 "/>
<text x="820" y="590" dy="0.76em" text-anchor="middle" font-family="sans-serif" font-size="9.67741935483871" opacity="1" fill="#000000">
2020-08-01
</text>
<polyline fill="none" opacity="1" stroke="#000000" stroke-width="1" points="820,580 820,585 "/>
<text x="918" y="590" dy="0.76em" text-anchor="middle" font-family="sans-serif" font-size="9.67741935483871" opacity="1" fill="#000000">
2020-10-03
</text>
<polyline fill="none" opacity="1" stroke="#000000" stroke-width="1" points="918,580 918,585 "/>
<polyline fill="none" opacity="1" stroke="#FF0000" stroke-width="1" points="40,578 40,578 47,576 48,575 162,575 166,575 168,575 172,575 175,575 182,574 236,572 237,572 431,571 443,571 470,570 484,570 496,569 497,569 517,569 532,569 539,568 608,568 610,567 611,567 618,567 620,566 621,566 622,565 624,564 626,564 628,563 630,563 631,562 633,562 635,561 637,561 639,560 641,560 643,559 644,559 647,558 648,557 648,557 650,557 652,556 653,556 655,555 656,555 659,554 661,554 663,553 664,553 666,552 668,551 668,551 671,550 672,550 673,550 675,550 677,549 678,549 681,548 682,547 684,547 686,546 687,546 689,546 691,545 693,544 695,544 696,543 698,543 700,542 702,541 703,541 705,541 706,540 708,540 710,539 713,538 714,538 716,537 717,537 719,536 720,536 722,536 724,535 725,535 727,534 728,534 730,533 731,533 733,532 735,532 737,531 739,531 741,530 742,530 743,529 745,529 747,528 748,528 750,527 751,527 753,527 755,526 756,526 758,525 759,525 761,524 762,524 764,523 765,523 767,522 768,522 770,522 771,521 773,521 775,520 776,520 778,519 779,519 781,518 782,518 784,518 785,517 787,517 789,516 790,516 792,515 793,515 795,514 796,514 798,513 800,513 801,513 802,512 804,512 806,511 807,511 809,510 811,510 812,509 813,509 815,508 816,508 818,508 820,507 821,507 823,506 824,506 826,505 827,505 829,504 831,504 832,503 833,503 835,503 837,502 838,502 840,501 842,501 843,500 844,500 846,499 849,499 851,498 852,498 855,497 857,496 858,496 860,495 861,495 863,494 866,494 868,493 869,493 871,492 872,492 874,491 877,490 878,490 880,489 881,489 883,489 885,488 888,487 889,487 891,486 892,486 894,485 895,485 898,484 900,484 902,483 903,483 905,482 906,482 908,481 909,481 911,480 913,480 916,479 917,479 919,478 921,478 922,477 923,477 925,476 927,476 928,475 930,475 931,475 933,474 934,474 936,473 937,473 939,472 942,471 943,471 945,471 947,470 "/>
</svg>
