<svg width="987" height="610" viewBox="0 0 987 610" xmlns="http://www.w3.org/2000/svg">
<line opacity="0.1" stroke="#000000" stroke-width="1" x1="40" y1="579" x2="40" y2="9"/>
<line opacity="0.1" stroke="#000000" stroke-width="1" x1="52" y1="579" x2="52" y2="9"/>
<line opacity="0.1" stroke="#000000" stroke-width="1" x1="65" y1="579" x2="65" y2="9"/>
<line opacity="0.1" stroke="#000000" stroke-width="1" x1="78" y1="579" x2="78" y2="9"/>
<line opacity="0.1" stroke="#000000" stroke-width="1" x1="90" y1="579" x2="90" y2="9"/>
<line opacity="0.1" stroke="#000000" stroke-width="1" x1="103" y1="579" x2="103" y2="9"/>
<line opacity="0.1" stroke="#000000" stroke-width="1" x1="116" y1="579" x2="116" y2="9"/>
<line opacity="0.1" stroke="#000000" stroke-width="1" x1="129" y1="579" x2="129" y2="9"/>
<line opacity="0.1" stroke="#000000" stroke-width="1" x1="141" y1="579" x2="141" y2="9"/>
<line opacity="0.1" stroke="#000000" stroke-width="1" x1="154" y1="579" x2="154" y2="9"/>
<line opacity="0.1" stroke="#000000" stroke-width="1" x1="167" y1="579" x2="167" y2="9"/>
<line opacity="0.1" stroke="#000000" stroke-width="1" x1="180" y1="579" x2="180" y2="9"/>
<line opacity="0.1" stroke="#000000" stroke-width="1" x1="192" y1="579" x2="192" y2="9"/>
<line opacity="0.1" stroke="#000000" stroke-width="1" x1="205" y1="579" x2="205" y2="9"/>
<line opacity="0.1" stroke="#000000" stroke-width="1" x1="218" y1="579" x2="218" y2="9"/>
<line opacity="0.1" stroke="#000000" stroke-width="1" x1="231" y1="579" x2="231" y2="9"/>
<line opacity="0.1" stroke="#000000" stroke-width="1" x1="243" y1="579" x2="243" y2="9"/>
<line opacity="0.1" stroke="#000000" stroke-width="1" x1="256" y1="579" x2="256" y2="9"/>
<line opacity="0.1" stroke="#000000" stroke-width="1" x1="269" y1="579" x2="269" y2="9"/>
<line opacity="0.1" stroke="#000000" stroke-width="1" x1="281" y1="579" x2="281" y2="9"/>
<line opacity="0.1" stroke="#000000" stroke-width="1" x1="294" y1="579" x2="294" y2="9"/>
<line opacity="0.1" stroke="#000000" stroke-width="1" x1="307" y1="579" x2="307" y2="9"/>
<line opacity="0.1" stroke="#000000" stroke-width="1" x1="320" y1="579" x2="320" y2="9"/>
<line opacity="0.1" stroke="#000000" stroke-width="1" x1="332" y1="579" x2="332" y2="9"/>
<line opacity="0.1" stroke="#000000" stroke-width="1" x1="345" y1="579" x2="345" y2="9"/>
<line opacity="0.1" stroke="#000000" stroke-width="1" x1="358" y1="579" x2="358" y2="9"/>
<line opacity="0.1" stroke="#000000" stroke-width="1" x1="371" y1="579" x2="371" y2="9"/>
<line opacity="0.1" stroke="#000000" stroke-width="1" x1="383" y1="579" x2="383" y2="9"/>
<line opacity="0.1" stroke="#000000" stroke-width="1" x1="396" y1="579" x2="396" y2="9"/>
<line opacity="0.1" stroke="#000000" stroke-width="1" x1="409" y1="579" x2="409" y2="9"/>
<line opacity="0.1" stroke="#000000" stroke-width="1" x1="421" y1="579" x2="421" y2="9"/>
<line opacity="0.1" stroke="#000000" stroke-width="1" x1="434" y1="579" x2="434" y2="9"/>
<line opacity="0.1" stroke="#000000" stroke-width="1" x1="447" y1="579" x2="447" y2="9"/>
<line opacity="0.1" stroke="#000000" stroke-width="1" x1="460" y1="579" x2="460" y2="9"/>
<line opacity="0.1" stroke="#000000" stroke-width="1" x1="472" y1="579" x2="472" y2="9"/>
<line opacity="0.1" stroke="#000000" stroke-width="1" x1="485" y1="579" x2="485" y2="9"/>
<line opacity="0.1" stroke="#000000" stroke-width="1" x1="498" y1="579" x2="498" y2="9"/>
<line opacity="0.1" stroke="#000000" stroke-width="1" x1="511" y1="579" x2="511" y2="9"/>
<line opacity="0.1" stroke="#000000" stroke-width="1" x1="523" y1="579" x2="523" y2="9"/>
<line opacity="0.1" stroke="#000000" stroke-width="1" x1="536" y1="579" x2="536" y2="9"/>
<line opacity="0.1" stroke="#000000" stroke-width="1" x1="549" y1="579" x2="549" y2="9"/>
<line opacity="0.1" stroke="#000000" stroke-width="1" x1="562" y1="579" x2="562" y2="9"/>
<line opacity="0.1" stroke="#000000" stroke-width="1" x1="574" y1="579" x2="574" y2="9"/>
<line opacity="0.1" stroke="#000000" stroke-width="1" x1="587" y1="579" x2="587" y2="9"/>
<line opacity="0.1" stroke="#000000" stroke-width="1" x1="600" y1="579" x2="600" y2="9"/>
<line opacity="0.1" stroke="#000000" stroke-width="1" x1="612" y1="579" x2="612" y2="9"/>
<line opacity="0.1" stroke="#000000" stroke-width="1" x1="625" y1="579" x2="625" y2="9"/>
<line opacity="0.1" stroke="#000000" stroke-width="1" x1="638" y1="579" x2="638" y2="9"/>
<line opacity="0.1" stroke="#000000" stroke-width="1" x1="651" y1="579" x2="651" y2="9"/>
<line opacity="0.1" stroke="#000000" stroke-width="1" x1="663" y1="579" x2="663" y2="9"/>
<line opacity="0.1" stroke="#000000" stroke-width="1" x1="676" y1="579" x2="676" y2="9"/>
<line opacity="0.1" stroke="#000000" stroke-width="1" x1="689" y1="579" x2="689" y2="9"/>
<line opacity="0.1" stroke="#000000" stroke-width="1" x1="702" y1="579" x2="702" y2="9"/>
<line opacity="0.1" stroke="#000000" stroke-width="1" x1="714" y1="579" x2="714" y2="9"/>
<line opacity="0.1" stroke="#000000" stroke-width="1" x1="727" y1="579" x2="727" y2="9"/>
<line opacity="0.1" stroke="#000000" stroke-width="1" x1="740" y1="579" x2="740" y2="9"/>
<line opacity="0.1" stroke="#000000" stroke-width="1" x1="753" y1="579" x2="753" y2="9"/>
<line opacity="0.1" stroke="#000000" stroke-width="1" x1="765" y1="579" x2="765" y2="9"/>
<line opacity="0.1" stroke="#000000" stroke-width="1" x1="778" y1="579" x2="778" y2="9"/>
<line opacity="0.1" stroke="#000000" stroke-width="1" x1="791" y1="579" x2="791" y2="9"/>
<line opacity="0.1" stroke="#000000" stroke-width="1" x1="803" y1="579" x2="803" y2="9"/>
<line opacity="0.1" stroke="#000000" stroke-width="1" x1="816" y1="579" x2="816" y2="9"/>
<line opacity="0.1" stroke="#000000" stroke-width="1" x1="829" y1="579" x2="829" y2="9"/>
<line opacity="0.1" stroke="#000000" stroke-width="1" x1="842" y1="579" x2="842" y2="9"/>
<line opacity="0.1" stroke="#000000" stroke-width="1" x1="854" y1="579" x2="854" y2="9"/>
<line opacity="0.1" stroke="#000000" stroke-width="1" x1="867" y1="579" x2="867" y2="9"/>
<line opacity="0.1" stroke="#000000" stroke-width="1" x1="880" y1="579" x2="880" y2="9"/>
<line opacity="0.1" stroke="#000000" stroke-width="1" x1="893" y1="579" x2="893" y2="9"/>
<line opacity="0.1" stroke="#000000" stroke-width="1" x1="905" y1="579" x2="905" y2="9"/>
<line opacity="0.1" stroke="#000000" stroke-width="1" x1="918" y1="579" x2="918" y2="9"/>
<line opacity="0.1" stroke="#000000" stroke-width="1" x1="931" y1="579" x2="931" y2="9"/>
<line opacity="0.1" stroke="#000000" stroke-width="1" x1="944" y1="579" x2="944" y2="9"/>
<line opacity="0.1" stroke="#000000" stroke-width="1" x1="40" y1="567" x2="947" y2="567"/>
<line opacity="0.1" stroke="#000000" stroke-width="1" x1="40" y1="556" x2="947" y2="556"/>
<line opacity="0.1" stroke="#000000" stroke-width="1" x1="40" y1="545" x2="947" y2="545"/>
<line opacity="0.1" stroke="#000000" stroke-width="1" x1="40" y1="533" x2="947" y2="533"/>
<line opacity="0.1" stroke="#000000" stroke-width="1" x1="40" y1="522" x2="947" y2="522"/>
<line opacity="0.1" stroke="#000000" stroke-width="1" x1="40" y1="511" x2="947" y2="511"/>
<line opacity="0.1" stroke="#000000" stroke-width="1" x1="40" y1="499" x2="947" y2="499"/>
<line opacity="0.1" stroke="#000000" stroke-width="1" x1="40" y1="488" x2="947" y2="488"/>
<line opacity="0.1" stroke="#000000" stroke-width="1" x1="40" y1="477" x2="947" y2="477"/>
<line opacity="0.1" stroke="#000000" stroke-width="1" x1="40" y1="466" x2="947" y2="466"/>
<line opacity="0.1" stroke="#000000" stroke-width="1" x1="40" y1="454" x2="947" y2="454"/>
<line opacity="0.1" stroke="#000000" stroke-width="1" x1="40" y1="443" x2="947" y2="443"/>
<line opacity="0.1" stroke="#000000" stroke-width="1" x1="40" y1="432" x2="947" y2="432"/>
<line opacity="0.1" stroke="#000000" stroke-width="1" x1="40" y1="420" x2="947" y2="420"/>
<line opacity="0.1" stroke="#000000" stroke-width="1" x1="40" y1="409" x2="947" y2="409"/>
<line opacity="0.1" stroke="#000000" stroke-width="1" x1="40" y1="398" x2="947" y2="398"/>
<line opacity="0.1" stroke="#000000" stroke-width="1" x1="40" y1="387" x2="947" y2="387"/>
<line opacity="0.1" stroke="#000000" stroke-width="1" x1="40" y1="375" x2="947" y2="375"/>
<line opacity="0.1" stroke="#000000" stroke-width="1" x1="40" y1="364" x2="947" y2="364"/>
<line opacity="0.1" stroke="#000000" stroke-width="1" x1="40" y1="353" x2="947" y2="353"/>
<line opacity="0.1" stroke="#000000" stroke-width="1" x1="40" y1="341" x2="947" y2="341"/>
<line opacity="0.1" stroke="#000000" stroke-width="1" x1="40" y1="330" x2="947" y2="330"/>
<line opacity="0.1" stroke="#000000" stroke-width="1" x1="40" y1="319" x2="947" y2="319"/>
<line opacity="0.1" stroke="#000000" stroke-width="1" x1="40" y1="308" x2="947" y2="308"/>
<line opacity="0.1" stroke="#000000" stroke-width="1" x1="40" y1="296" x2="947" y2="296"/>
<line opacity="0.1" stroke="#000000" stroke-width="1" x1="40" y1="285" x2="947" y2="285"/>
<line opacity="0.1" stroke="#000000" stroke-width="1" x1="40" y1="274" x2="947" y2="274"/>
<line opacity="0.1" stroke="#000000" stroke-width="1" x1="40" y1="262" x2="947" y2="262"/>
<line opacity="0.1" stroke="#000000" stroke-width="1" x1="40" y1="251" x2="947" y2="251"/>
<line opacity="0.1" stroke="#000000" stroke-width="1" x1="40" y1="240" x2="947" y2="240"/>
<line opacity="0.1" stroke="#000000" stroke-width="1" x1="40" y1="229" x2="947" y2="229"/>
<line opacity="0.1" stroke="#000000" stroke-width="1" x1="40" y1="217" x2="947" y2="217"/>
<line opacity="0.1" stroke="#000000" stroke-width="1" x1="40" y1="206" x2="947" y2="206"/>
<line opacity="0.1" stroke="#000000" stroke-width="1" x1="40" y1="195" x2="947" y2="195"/>
<line opacity="0.1" stroke="#000000" stroke-width="1" x1="40" y1="183" x2="947" y2="183"/>
<line opacity="0.1" stroke="#000000" stroke-width="1" x1="40" y1="172" x2="947" y2="172"/>
<line opacity="0.1" stroke="#000000" stroke-width="1" x1="40" y1="161" x2="947" y2="161"/>
<line opacity="0.1" stroke="#000000" stroke-width="1" x1="40" y1="150" x2="947" y2="150"/>
<line opacity="0.1" stroke="#000000" stroke-width="1" x1="40" y1="138" x2="947" y2="138"/>
<line opacity="0.1" stroke="#000000" stroke-width="1" x1="40" y1="127" x2="947" y2="127"/>
<line opacity="0.1" stroke="#000000" stroke-width="1" x1="40" y1="116" x2="947" y2="116"/>
<line opacity="0.1" stroke="#000000" stroke-width="1" x1="40" y1="104" x2="947" y2="104"/>
<line opacity="0.1" stroke="#000000" stroke-width="1" x1="40" y1="93" x2="947" y2="93"/>
<line opacity="0.1" stroke="#000000" stroke-width="1" x1="40" y1="82" x2="947" y2="82"/>
<line opacity="0.1" stroke="#000000" stroke-width="1" x1="40" y1="71" x2="947" y2="71"/>
<line opacity="0.1" stroke="#000000" stroke-width="1" x1="40" y1="59" x2="947" y2="59"/>
<line opacity="0.1" stroke="#000000" stroke-width="1" x1="40" y1="48" x2="947" y2="48"/>
<line opacity="0.1" stroke="#000000" stroke-width="1" x1="40" y1="37" x2="947" y2="37"/>
<line opacity="0.1" stroke="#000000" stroke-width="1" x1="40" y1="25" x2="947" y2="25"/>
<line opacity="0.1" stroke="#000000" stroke-width="1" x1="40" y1="14" x2="947" y2="14"/>
<line opacity="0.2" stroke="#000000" stroke-width="1" x1="40" y1="579" x2="40" y2="9"/>
<line opacity="0.2" stroke="#000000" stroke-width="1" x1="141" y1="579" x2="141" y2="9"/>
<line opacity="0.2" stroke="#000000" stroke-width="1" x1="243" y1="579" x2="243" y2="9"/>
<line opacity="0.2" stroke="#000000" stroke-width="1" x1="345" y1="579" x2="345" y2="9"/>
<line opacity="0.2" stroke="#000000" stroke-width="1" x1="447" y1="579" x2="447" y2="9"/>
<line opacity="0.2" stroke="#000000" stroke-width="1" x1="549" y1="579" x2="549" y2="9"/>
<line opacity="0.2" stroke="#000000" stroke-width="1" x1="651" y1="579" x2="651" y2="9"/>
<line opacity="0.2" stroke="#000000" stroke-width="1" x1="753" y1="579" x2="753" y2="9"/>
<line opacity="0.2" stroke="#000000" stroke-width="1" x1="854" y1="579" x2="854" y2="9"/>
<line opacity="0.2" stroke="#000000" stroke-width="1" x1="40" y1="522" x2="947" y2="522"/>
<line opacity="0.2" stroke="#000000" stroke-width="1" x1="40" y1="466" x2="947" y2="466"/>
<line opacity="0.2" stroke="#000000" stroke-width="1" x1="40" y1="409" x2="947" y2="409"/>
<line opacity="0.2" stroke="#000000" stroke-width="1" x1="40" y1="353" x2="947" y2="353"/>
<line opacity="0.2" stroke="#000000" stroke-width="1" x1="40" y1="296" x2="947" y2="296"/>
<line opacity="0.2" stroke="#000000" stroke-width="1" x1="40" y1="240" x2="947" y2="240"/>
<line opacity="0.2" stroke="#000000" stroke-width="1" x1="40" y1="183" x2="947" y2="183"/>
<line opacity="0.2" stroke="#000000" stroke-width="1" x1="40" y1="127" x2="947" y2="127"/>
<line opacity="0.2" stroke="#000000" stroke-width="1" x1="40" y1="71" x2="947" y2="71"/>
<line opacity="0.2" stroke="#000000" stroke-width="1" x1="40" y1="14" x2="947" y2="14"/>
<polyline fill="none" opacity="1" stroke="#000000" stroke-width="1" points="39,10 39,580 "/>
<text x="30" y="522" dy="0.5ex" text-anchor="end" font-family="sans-serif" font-size="9.67741935483871" opacity="1" fill="#000000">
10%
</text>
<polyline fill="none" opacity="1" stroke="#000000" stroke-width="1" points="34,522 39,522 "/>
<text x="30" y="466" dy="0.5ex" text-anchor="end" font-family="sans-serif" font-size="9.67741935483871" opacity="1" fill="#000000">
20%
</text>
<polyline fill="none" opacity="1" stroke="#000000" stroke-width="1" points="34,466 39,466 "/>
<text x="30" y="409" dy="0.5ex" text-anchor="end" font-family="sans-serif" font-size="9.67741935483871" opacity="1" fill="#000000">
30%
</text>
<polyline fill="none" opacity="1" stroke="#000000" stroke-width="1" points="34,409 39,409 "/>
<text x="30" y="353" dy="0.5ex" text-anchor="end" font-family="sans-serif" font-size="9.67741935483871" opacity="1" fill="#000000">
40%
</text>
<polyline fill="none" opacity="1" stroke="#000000" stroke-width="1" points="34,353 39,353 "/>
<text x="30" y="296" dy="0.5ex" text-anchor="end" font-family="sans-serif" font-size="9.67741935483871" opacity="1" fill="#000000">
50%
</text>
<polyline fill="none" opacity="1" stroke="#000000" stroke-width="1" points="34,296 39,296 "/>
<text x="30" y="240" dy="0.5ex" text-anchor="end" font-family="sans-serif" font-size="9.67741935483871" opacity="1" fill="#000000">
60%
</text>
<polyline fill="none" opacity="1" stroke="#000000" stroke-width="1" points="34,240 39,240 "/>
<text x="30" y="183" dy="0.5ex" text-anchor="end" font-family="sans-serif" font-size="9.67741935483871" opacity="1" fill="#000000">
70%
</text>
<polyline fill="none" opacity="1" stroke="#000000" stroke-width="1" points="34,183 39,183 "/>
<text x="30" y="127" dy="0.5ex" text-anchor="end" font-family="sans-serif" font-size="9.67741935483871" opacity="1" fill="#000000">
80%
</text>
<polyline fill="none" opacity="1" stroke="#000000" stroke-width="1" points="34,127 39,127 "/>
<text x="30" y="71" dy="0.5ex" text-anchor="end" font-family="sans-serif" font-size="9.67741935483871" opacity="1" fill="#000000">
90%
</text>
<polyline fill="none" opacity="1" stroke="#000000" stroke-width="1" points="34,71 39,71 "/>
<text x="30" y="14" dy="0.5ex" text-anchor="end" font-family="sans-serif" font-size="9.67741935483871" opacity="1" fill="#000000">
100%
</text>
<polyline fill="none" opacity="1" stroke="#000000" stroke-width="1" points="34,14 39,14 "/>
<polyline fill="none" opacity="1" stroke="#000000" stroke-width="1" points="40,580 947,580 "/>
<text x="40" y="590" dy="0.76em" text-anchor="middle" font-family="sans-serif" font-size="9.67741935483871" opacity="1" fill="#000000">
2019-03-16
</text>
<polyline fill="none" opacity="1" stroke="#000000" stroke-width="1" points="40,580 40,585 "/>
<text x="141" y="590" dy="0.76em" text-anchor="middle" font-family="sans-serif" font-size="9.67741935483871" opacity="1" fill="#000000">
2019-05-11
</text>
<polyline fill="none" opacity="1" stroke="#000000" stroke-width="1" points="141,580 141,585 "/>
<text x="243" y="590" dy="0.76em" text-anchor="middle" font-family="sans-serif" font-size="9.67741935483871" opacity="1" fill="#000000">
2019-07-06
</text>
<polyline fill="none" opacity="1" stroke="#000000" stroke-width="1" points="243,580 243,585 "/>
<text x="345" y="590" dy="0.76em" text-anchor="middle" font-family="sans-serif" font-size="9.67741935483871" opacity="1" fill="#000000">
2019-08-31
</text>
<polyline fill="none" opacity="1" stroke="#000000" stroke-width="1" points="345,580 345,585 "/>
<text x="447" y="590" dy="0.76em" text-anchor="middle" font-family="sans-serif" font-size="9.67741935483871" opacity="1" fill="#000000">
2019-10-26
</text>
<polyline fill="none" opacity="1" stroke="#000000" stroke-width="1" points="447,580 447,585 "/>
<text x="549" y="590" dy="0.76em" text-anchor="middle" font-family="sans-serif" font-size="9.67741935483871" opacity="1" fill="#000000">
2019-12-21
</text>
<polyline fill="none" opacity="1" stroke="#000000" stroke-width="1" points="549,580 549,585 "/>
<text x="651" y="590" dy="0.76em" text-anchor="middle" font-family="sans-serif" font-size="9.67741935483871" opacity="1" fill="#000000">
2020-02-15
</text>
<polyline fill="none" opacity="1" stroke="#000000" stroke-width="1" points="651,580 651,585 "/>
<text x="753" y="590" dy="0.76em" text-anchor="middle" font-family="sans-serif" font-size="9.67741935483871" opacity="1" fill="#000000">
2020-04-11
</text>
<polyline fill="none" opacity="1" stroke="#000000" stroke-width="1" points="753,580 753,585 "/>
<text x="854" y="590" dy="0.76em" text-anchor="middle" font-family="sans-serif" font-size="9.67741935483871" opacity="1" fill="#000000">
2020-06-06
</text>
<polyline fill="none" opacity="1" stroke="#000000" stroke-width="1" points="854,580 854,585 "/>
<polyline fill="none" opacity="1" stroke="#FF0000" stroke-width="1" points="40,578 40,578 48,576 49,575 183,575 188,575 190,575 195,575 198,575 207,573 270,572 271,572 499,571 513,570 546,570 561,569 576,569 576,568 600,568 618,568 626,567 707,567 709,566 711,566 719,566 721,565 722,565 724,565 726,564 728,563 731,562 733,562 735,561 737,561 739,560 742,560 744,559 746,558 748,558 749,557 752,556 754,556 755,556 757,555 758,555 760,554 762,554 764,553 767,552 769,552 771,551 773,551 775,551 778,550 778,550 781,549 782,549 784,548 785,548 789,547 789,547 792,546 794,545 796,545 798,544 800,544 802,543 805,542 808,542 809,541 811,541 813,540 816,539 817,539 819,538 821,538 823,537 825,537 826,537 830,536 832,535 834,535 836,534 837,534 839,533 841,533 843,532 845,532 846,531 848,531 850,530 852,530 854,529 856,529 859,528 861,527 863,527 865,526 866,526 868,525 870,525 872,524 874,524 876,523 877,523 880,522 881,522 883,522 885,521 886,521 889,520 890,520 892,519 894,519 896,518 897,518 899,517 901,517 903,516 905,516 907,515 908,515 910,514 912,514 914,513 916,513 917,512 919,512 921,511 923,511 925,510 926,510 928,509 930,509 932,508 934,508 936,508 937,507 939,507 941,506 943,506 945,505 946,505 "/>
</svg>
