<svg width="987" height="610" viewBox="0 0 987 610" xmlns="http://www.w3.org/2000/svg">
<line opacity="0.1" stroke="#000000" stroke-width="1" x1="40" y1="579" x2="40" y2="9"/>
<line opacity="0.1" stroke="#000000" stroke-width="1" x1="54" y1="579" x2="54" y2="9"/>
<line opacity="0.1" stroke="#000000" stroke-width="1" x1="69" y1="579" x2="69" y2="9"/>
<line opacity="0.1" stroke="#000000" stroke-width="1" x1="84" y1="579" x2="84" y2="9"/>
<line opacity="0.1" stroke="#000000" stroke-width="1" x1="99" y1="579" x2="99" y2="9"/>
<line opacity="0.1" stroke="#000000" stroke-width="1" x1="113" y1="579" x2="113" y2="9"/>
<line opacity="0.1" stroke="#000000" stroke-width="1" x1="128" y1="579" x2="128" y2="9"/>
<line opacity="0.1" stroke="#000000" stroke-width="1" x1="143" y1="579" x2="143" y2="9"/>
<line opacity="0.1" stroke="#000000" stroke-width="1" x1="158" y1="579" x2="158" y2="9"/>
<line opacity="0.1" stroke="#000000" stroke-width="1" x1="173" y1="579" x2="173" y2="9"/>
<line opacity="0.1" stroke="#000000" stroke-width="1" x1="187" y1="579" x2="187" y2="9"/>
<line opacity="0.1" stroke="#000000" stroke-width="1" x1="202" y1="579" x2="202" y2="9"/>
<line opacity="0.1" stroke="#000000" stroke-width="1" x1="217" y1="579" x2="217" y2="9"/>
<line opacity="0.1" stroke="#000000" stroke-width="1" x1="232" y1="579" x2="232" y2="9"/>
<line opacity="0.1" stroke="#000000" stroke-width="1" x1="246" y1="579" x2="246" y2="9"/>
<line opacity="0.1" stroke="#000000" stroke-width="1" x1="261" y1="579" x2="261" y2="9"/>
<line opacity="0.1" stroke="#000000" stroke-width="1" x1="276" y1="579" x2="276" y2="9"/>
<line opacity="0.1" stroke="#000000" stroke-width="1" x1="291" y1="579" x2="291" y2="9"/>
<line opacity="0.1" stroke="#000000" stroke-width="1" x1="306" y1="579" x2="306" y2="9"/>
<line opacity="0.1" stroke="#000000" stroke-width="1" x1="320" y1="579" x2="320" y2="9"/>
<line opacity="0.1" stroke="#000000" stroke-width="1" x1="335" y1="579" x2="335" y2="9"/>
<line opacity="0.1" stroke="#000000" stroke-width="1" x1="350" y1="579" x2="350" y2="9"/>
<line opacity="0.1" stroke="#000000" stroke-width="1" x1="365" y1="579" x2="365" y2="9"/>
<line opacity="0.1" stroke="#000000" stroke-width="1" x1="379" y1="579" x2="379" y2="9"/>
<line opacity="0.1" stroke="#000000" stroke-width="1" x1="394" y1="579" x2="394" y2="9"/>
<line opacity="0.1" stroke="#000000" stroke-width="1" x1="409" y1="579" x2="409" y2="9"/>
<line opacity="0.1" stroke="#000000" stroke-width="1" x1="424" y1="579" x2="424" y2="9"/>
<line opacity="0.1" stroke="#000000" stroke-width="1" x1="439" y1="579" x2="439" y2="9"/>
<line opacity="0.1" stroke="#000000" stroke-width="1" x1="453" y1="579" x2="453" y2="9"/>
<line opacity="0.1" stroke="#000000" stroke-width="1" x1="468" y1="579" x2="468" y2="9"/>
<line opacity="0.1" stroke="#000000" stroke-width="1" x1="483" y1="579" x2="483" y2="9"/>
<line opacity="0.1" stroke="#000000" stroke-width="1" x1="498" y1="579" x2="498" y2="9"/>
<line opacity="0.1" stroke="#000000" stroke-width="1" x1="512" y1="579" x2="512" y2="9"/>
<line opacity="0.1" stroke="#000000" stroke-width="1" x1="527" y1="579" x2="527" y2="9"/>
<line opacity="0.1" stroke="#000000" stroke-width="1" x1="542" y1="579" x2="542" y2="9"/>
<line opacity="0.1" stroke="#000000" stroke-width="1" x1="557" y1="579" x2="557" y2="9"/>
<line opacity="0.1" stroke="#000000" stroke-width="1" x1="572" y1="579" x2="572" y2="9"/>
<line opacity="0.1" stroke="#000000" stroke-width="1" x1="586" y1="579" x2="586" y2="9"/>
<line opacity="0.1" stroke="#000000" stroke-width="1" x1="601" y1="579" x2="601" y2="9"/>
<line opacity="0.1" stroke="#000000" stroke-width="1" x1="616" y1="579" x2="616" y2="9"/>
<line opacity="0.1" stroke="#000000" stroke-width="1" x1="631" y1="579" x2="631" y2="9"/>
<line opacity="0.1" stroke="#000000" stroke-width="1" x1="645" y1="579" x2="645" y2="9"/>
<line opacity="0.1" stroke="#000000" stroke-width="1" x1="660" y1="579" x2="660" y2="9"/>
<line opacity="0.1" stroke="#000000" stroke-width="1" x1="675" y1="579" x2="675" y2="9"/>
<line opacity="0.1" stroke="#000000" stroke-width="1" x1="690" y1="579" x2="690" y2="9"/>
<line opacity="0.1" stroke="#000000" stroke-width="1" x1="705" y1="579" x2="705" y2="9"/>
<line opacity="0.1" stroke="#000000" stroke-width="1" x1="719" y1="579" x2="719" y2="9"/>
<line opacity="0.1" stroke="#000000" stroke-width="1" x1="734" y1="579" x2="734" y2="9"/>
<line opacity="0.1" stroke="#000000" stroke-width="1" x1="749" y1="579" x2="749" y2="9"/>
<line opacity="0.1" stroke="#000000" stroke-width="1" x1="764" y1="579" x2="764" y2="9"/>
<line opacity="0.1" stroke="#000000" stroke-width="1" x1="778" y1="579" x2="778" y2="9"/>
<line opacity="0.1" stroke="#000000" stroke-width="1" x1="793" y1="579" x2="793" y2="9"/>
<line opacity="0.1" stroke="#000000" stroke-width="1" x1="808" y1="579" x2="808" y2="9"/>
<line opacity="0.1" stroke="#000000" stroke-width="1" x1="823" y1="579" x2="823" y2="9"/>
<line opacity="0.1" stroke="#000000" stroke-width="1" x1="838" y1="579" x2="838" y2="9"/>
<line opacity="0.1" stroke="#000000" stroke-width="1" x1="852" y1="579" x2="852" y2="9"/>
<line opacity="0.1" stroke="#000000" stroke-width="1" x1="867" y1="579" x2="867" y2="9"/>
<line opacity="0.1" stroke="#000000" stroke-width="1" x1="882" y1="579" x2="882" y2="9"/>
<line opacity="0.1" stroke="#000000" stroke-width="1" x1="897" y1="579" x2="897" y2="9"/>
<line opacity="0.1" stroke="#000000" stroke-width="1" x1="911" y1="579" x2="911" y2="9"/>
<line opacity="0.1" stroke="#000000" stroke-width="1" x1="926" y1="579" x2="926" y2="9"/>
<line opacity="0.1" stroke="#000000" stroke-width="1" x1="941" y1="579" x2="941" y2="9"/>
<line opacity="0.1" stroke="#000000" stroke-width="1" x1="40" y1="567" x2="947" y2="567"/>
<line opacity="0.1" stroke="#000000" stroke-width="1" x1="40" y1="556" x2="947" y2="556"/>
<line opacity="0.1" stroke="#000000" stroke-width="1" x1="40" y1="545" x2="947" y2="545"/>
<line opacity="0.1" stroke="#000000" stroke-width="1" x1="40" y1="533" x2="947" y2="533"/>
<line opacity="0.1" stroke="#000000" stroke-width="1" x1="40" y1="522" x2="947" y2="522"/>
<line opacity="0.1" stroke="#000000" stroke-width="1" x1="40" y1="511" x2="947" y2="511"/>
<line opacity="0.1" stroke="#000000" stroke-width="1" x1="40" y1="499" x2="947" y2="499"/>
<line opacity="0.1" stroke="#000000" stroke-width="1" x1="40" y1="488" x2="947" y2="488"/>
<line opacity="0.1" stroke="#000000" stroke-width="1" x1="40" y1="477" x2="947" y2="477"/>
<line opacity="0.1" stroke="#000000" stroke-width="1" x1="40" y1="466" x2="947" y2="466"/>
<line opacity="0.1" stroke="#000000" stroke-width="1" x1="40" y1="454" x2="947" y2="454"/>
<line opacity="0.1" stroke="#000000" stroke-width="1" x1="40" y1="443" x2="947" y2="443"/>
<line opacity="0.1" stroke="#000000" stroke-width="1" x1="40" y1="432" x2="947" y2="432"/>
<line opacity="0.1" stroke="#000000" stroke-width="1" x1="40" y1="420" x2="947" y2="420"/>
<line opacity="0.1" stroke="#000000" stroke-width="1" x1="40" y1="409" x2="947" y2="409"/>
<line opacity="0.1" stroke="#000000" stroke-width="1" x1="40" y1="398" x2="947" y2="398"/>
<line opacity="0.1" stroke="#000000" stroke-width="1" x1="40" y1="387" x2="947" y2="387"/>
<line opacity="0.1" stroke="#000000" stroke-width="1" x1="40" y1="375" x2="947" y2="375"/>
<line opacity="0.1" stroke="#000000" stroke-width="1" x1="40" y1="364" x2="947" y2="364"/>
<line opacity="0.1" stroke="#000000" stroke-width="1" x1="40" y1="353" x2="947" y2="353"/>
<line opacity="0.1" stroke="#000000" stroke-width="1" x1="40" y1="341" x2="947" y2="341"/>
<line opacity="0.1" stroke="#000000" stroke-width="1" x1="40" y1="330" x2="947" y2="330"/>
<line opacity="0.1" stroke="#000000" stroke-width="1" x1="40" y1="319" x2="947" y2="319"/>
<line opacity="0.1" stroke="#000000" stroke-width="1" x1="40" y1="308" x2="947" y2="308"/>
<line opacity="0.1" stroke="#000000" stroke-width="1" x1="40" y1="296" x2="947" y2="296"/>
<line opacity="0.1" stroke="#000000" stroke-width="1" x1="40" y1="285" x2="947" y2="285"/>
<line opacity="0.1" stroke="#000000" stroke-width="1" x1="40" y1="274" x2="947" y2="274"/>
<line opacity="0.1" stroke="#000000" stroke-width="1" x1="40" y1="262" x2="947" y2="262"/>
<line opacity="0.1" stroke="#000000" stroke-width="1" x1="40" y1="251" x2="947" y2="251"/>
<line opacity="0.1" stroke="#000000" stroke-width="1" x1="40" y1="240" x2="947" y2="240"/>
<line opacity="0.1" stroke="#000000" stroke-width="1" x1="40" y1="229" x2="947" y2="229"/>
<line opacity="0.1" stroke="#000000" stroke-width="1" x1="40" y1="217" x2="947" y2="217"/>
<line opacity="0.1" stroke="#000000" stroke-width="1" x1="40" y1="206" x2="947" y2="206"/>
<line opacity="0.1" stroke="#000000" stroke-width="1" x1="40" y1="195" x2="947" y2="195"/>
<line opacity="0.1" stroke="#000000" stroke-width="1" x1="40" y1="183" x2="947" y2="183"/>
<line opacity="0.1" stroke="#000000" stroke-width="1" x1="40" y1="172" x2="947" y2="172"/>
<line opacity="0.1" stroke="#000000" stroke-width="1" x1="40" y1="161" x2="947" y2="161"/>
<line opacity="0.1" stroke="#000000" stroke-width="1" x1="40" y1="150" x2="947" y2="150"/>
<line opacity="0.1" stroke="#000000" stroke-width="1" x1="40" y1="138" x2="947" y2="138"/>
<line opacity="0.1" stroke="#000000" stroke-width="1" x1="40" y1="127" x2="947" y2="127"/>
<line opacity="0.1" stroke="#000000" stroke-width="1" x1="40" y1="116" x2="947" y2="116"/>
<line opacity="0.1" stroke="#000000" stroke-width="1" x1="40" y1="104" x2="947" y2="104"/>
<line opacity="0.1" stroke="#000000" stroke-width="1" x1="40" y1="93" x2="947" y2="93"/>
<line opacity="0.1" stroke="#000000" stroke-width="1" x1="40" y1="82" x2="947" y2="82"/>
<line opacity="0.1" stroke="#000000" stroke-width="1" x1="40" y1="71" x2="947" y2="71"/>
<line opacity="0.1" stroke="#000000" stroke-width="1" x1="40" y1="59" x2="947" y2="59"/>
<line opacity="0.1" stroke="#000000" stroke-width="1" x1="40" y1="48" x2="947" y2="48"/>
<line opacity="0.1" stroke="#000000" stroke-width="1" x1="40" y1="37" x2="947" y2="37"/>
<line opacity="0.1" stroke="#000000" stroke-width="1" x1="40" y1="25" x2="947" y2="25"/>
<line opacity="0.1" stroke="#000000" stroke-width="1" x1="40" y1="14" x2="947" y2="14"/>
<line opacity="0.2" stroke="#000000" stroke-width="1" x1="40" y1="579" x2="40" y2="9"/>
<line opacity="0.2" stroke="#000000" stroke-width="1" x1="143" y1="579" x2="143" y2="9"/>
<line opacity="0.2" stroke="#000000" stroke-width="1" x1="246" y1="579" x2="246" y2="9"/>
<line opacity="0.2" stroke="#000000" stroke-width="1" x1="350" y1="579" x2="350" y2="9"/>
<line opacity="0.2" stroke="#000000" stroke-width="1" x1="453" y1="579" x2="453" y2="9"/>
<line opacity="0.2" stroke="#000000" stroke-width="1" x1="557" y1="579" x2="557" y2="9"/>
<line opacity="0.2" stroke="#000000" stroke-width="1" x1="660" y1="579" x2="660" y2="9"/>
<line opacity="0.2" stroke="#000000" stroke-width="1" x1="764" y1="579" x2="764" y2="9"/>
<line opacity="0.2" stroke="#000000" stroke-width="1" x1="867" y1="579" x2="867" y2="9"/>
<line opacity="0.2" stroke="#000000" stroke-width="1" x1="40" y1="522" x2="947" y2="522"/>
<line opacity="0.2" stroke="#000000" stroke-width="1" x1="40" y1="466" x2="947" y2="466"/>
<line opacity="0.2" stroke="#000000" stroke-width="1" x1="40" y1="409" x2="947" y2="409"/>
<line opacity="0.2" stroke="#000000" stroke-width="1" x1="40" y1="353" x2="947" y2="353"/>
<line opacity="0.2" stroke="#000000" stroke-width="1" x1="40" y1="296" x2="947" y2="296"/>
<line opacity="0.2" stroke="#000000" stroke-width="1" x1="40" y1="240" x2="947" y2="240"/>
<line opacity="0.2" stroke="#000000" stroke-width="1" x1="40" y1="183" x2="947" y2="183"/>
<line opacity="0.2" stroke="#000000" stroke-width="1" x1="40" y1="127" x2="947" y2="127"/>
<line opacity="0.2" stroke="#000000" stroke-width="1" x1="40" y1="71" x2="947" y2="71"/>
<line opacity="0.2" stroke="#000000" stroke-width="1" x1="40" y1="14" x2="947" y2="14"/>
<polyline fill="none" opacity="1" stroke="#000000" stroke-width="1" points="39,10 39,580 "/>
<text x="30" y="522" dy="0.5ex" text-anchor="end" font-family="sans-serif" font-size="9.67741935483871" opacity="1" fill="#000000">
10%
</text>
<polyline fill="none" opacity="1" stroke="#000000" stroke-width="1" points="34,522 39,522 "/>
<text x="30" y="466" dy="0.5ex" text-anchor="end" font-family="sans-serif" font-size="9.67741935483871" opacity="1" fill="#000000">
20%
</text>
<polyline fill="none" opacity="1" stroke="#000000" stroke-width="1" points="34,466 39,466 "/>
<text x="30" y="409" dy="0.5ex" text-anchor="end" font-family="sans-serif" font-size="9.67741935483871" opacity="1" fill="#000000">
30%
</text>
<polyline fill="none" opacity="1" stroke="#000000" stroke-width="1" points="34,409 39,409 "/>
<text x="30" y="353" dy="0.5ex" text-anchor="end" font-family="sans-serif" font-size="9.67741935483871" opacity="1" fill="#000000">
40%
</text>
<polyline fill="none" opacity="1" stroke="#000000" stroke-width="1" points="34,353 39,353 "/>
<text x="30" y="296" dy="0.5ex" text-anchor="end" font-family="sans-serif" font-size="9.67741935483871" opacity="1" fill="#000000">
50%
</text>
<polyline fill="none" opacity="1" stroke="#000000" stroke-width="1" points="34,296 39,296 "/>
<text x="30" y="240" dy="0.5ex" text-anchor="end" font-family="sans-serif" font-size="9.67741935483871" opacity="1" fill="#000000">
60%
</text>
<polyline fill="none" opacity="1" stroke="#000000" stroke-width="1" points="34,240 39,240 "/>
<text x="30" y="183" dy="0.5ex" text-anchor="end" font-family="sans-serif" font-size="9.67741935483871" opacity="1" fill="#000000">
70%
</text>
<polyline fill="none" opacity="1" stroke="#000000" stroke-width="1" points="34,183 39,183 "/>
<text x="30" y="127" dy="0.5ex" text-anchor="end" font-family="sans-serif" font-size="9.67741935483871" opacity="1" fill="#000000">
80%
</text>
<polyline fill="none" opacity="1" stroke="#000000" stroke-width="1" points="34,127 39,127 "/>
<text x="30" y="71" dy="0.5ex" text-anchor="end" font-family="sans-serif" font-size="9.67741935483871" opacity="1" fill="#000000">
90%
</text>
<polyline fill="none" opacity="1" stroke="#000000" stroke-width="1" points="34,71 39,71 "/>
<text x="30" y="14" dy="0.5ex" text-anchor="end" font-family="sans-serif" font-size="9.67741935483871" opacity="1" fill="#000000">
100%
</text>
<polyline fill="none" opacity="1" stroke="#000000" stroke-width="1" points="34,14 39,14 "/>
<polyline fill="none" opacity="1" stroke="#000000" stroke-width="1" points="40,580 947,580 "/>
<text x="40" y="590" dy="0.76em" text-anchor="middle" font-family="sans-serif" font-size="9.67741935483871" opacity="1" fill="#000000">
2019-03-16
</text>
<polyline fill="none" opacity="1" stroke="#000000" stroke-width="1" points="40,580 40,585 "/>
<text x="143" y="590" dy="0.76em" text-anchor="middle" font-family="sans-serif" font-size="9.67741935483871" opacity="1" fill="#000000">
2019-05-04
</text>
<polyline fill="none" opacity="1" stroke="#000000" stroke-width="1" points="143,580 143,585 "/>
<text x="246" y="590" dy="0.76em" text-anchor="middle" font-family="sans-serif" font-size="9.67741935483871" opacity="1" fill="#000000">
2019-06-22
</text>
<polyline fill="none" opacity="1" stroke="#000000" stroke-width="1" points="246,580 246,585 "/>
<text x="350" y="590" dy="0.76em" text-anchor="middle" font-family="sans-serif" font-size="9.67741935483871" opacity="1" fill="#000000">
2019-08-10
</text>
<polyline fill="none" opacity="1" stroke="#000000" stroke-width="1" points="350,580 350,585 "/>
<text x="453" y="590" dy="0.76em" text-anchor="middle" font-family="sans-serif" font-size="9.67741935483871" opacity="1" fill="#000000">
2019-09-28
</text>
<polyline fill="none" opacity="1" stroke="#000000" stroke-width="1" points="453,580 453,585 "/>
<text x="557" y="590" dy="0.76em" text-anchor="middle" font-family="sans-serif" font-size="9.67741935483871" opacity="1" fill="#000000">
2019-11-16
</text>
<polyline fill="none" opacity="1" stroke="#000000" stroke-width="1" points="557,580 557,585 "/>
<text x="660" y="590" dy="0.76em" text-anchor="middle" font-family="sans-serif" font-size="9.67741935483871" opacity="1" fill="#000000">
2020-01-04
</text>
<polyline fill="none" opacity="1" stroke="#000000" stroke-width="1" points="660,580 660,585 "/>
<text x="764" y="590" dy="0.76em" text-anchor="middle" font-family="sans-serif" font-size="9.67741935483871" opacity="1" fill="#000000">
2020-02-22
</text>
<polyline fill="none" opacity="1" stroke="#000000" stroke-width="1" points="764,580 764,585 "/>
<text x="867" y="590" dy="0.76em" text-anchor="middle" font-family="sans-serif" font-size="9.67741935483871" opacity="1" fill="#000000">
2020-04-11
</text>
<polyline fill="none" opacity="1" stroke="#000000" stroke-width="1" points="867,580 867,585 "/>
<polyline fill="none" opacity="1" stroke="#FF0000" stroke-width="1" points="40,578 40,577 49,576 51,575 207,575 212,574 214,574 220,574 224,574 234,573 307,571 308,571 573,570 589,570 627,569 645,569 662,568 663,568 690,567 711,567 721,566 815,566 817,566 819,566 828,565 830,565 832,564 834,564 836,563 839,562 842,561 844,561 846,560 849,560 852,559 854,559 857,558 859,557 862,557 863,556 867,555 869,555 870,555 872,554 874,554 876,553 878,553 880,552 883,551 887,551 889,550 891,550 893,549 896,548 897,548 900,547 901,547 903,547 905,546 909,546 909,545 913,544 915,544 918,543 920,543 922,542 924,542 928,541 931,540 933,540 935,539 937,539 940,538 942,537 944,537 947,536 "/>
</svg>
