<svg width="987" height="610" viewBox="0 0 987 610" xmlns="http://www.w3.org/2000/svg">
<line opacity="0.1" stroke="#000000" stroke-width="1" x1="40" y1="579" x2="40" y2="9"/>
<line opacity="0.1" stroke="#000000" stroke-width="1" x1="54" y1="579" x2="54" y2="9"/>
<line opacity="0.1" stroke="#000000" stroke-width="1" x1="68" y1="579" x2="68" y2="9"/>
<line opacity="0.1" stroke="#000000" stroke-width="1" x1="83" y1="579" x2="83" y2="9"/>
<line opacity="0.1" stroke="#000000" stroke-width="1" x1="97" y1="579" x2="97" y2="9"/>
<line opacity="0.1" stroke="#000000" stroke-width="1" x1="112" y1="579" x2="112" y2="9"/>
<line opacity="0.1" stroke="#000000" stroke-width="1" x1="126" y1="579" x2="126" y2="9"/>
<line opacity="0.1" stroke="#000000" stroke-width="1" x1="141" y1="579" x2="141" y2="9"/>
<line opacity="0.1" stroke="#000000" stroke-width="1" x1="155" y1="579" x2="155" y2="9"/>
<line opacity="0.1" stroke="#000000" stroke-width="1" x1="169" y1="579" x2="169" y2="9"/>
<line opacity="0.1" stroke="#000000" stroke-width="1" x1="184" y1="579" x2="184" y2="9"/>
<line opacity="0.1" stroke="#000000" stroke-width="1" x1="198" y1="579" x2="198" y2="9"/>
<line opacity="0.1" stroke="#000000" stroke-width="1" x1="213" y1="579" x2="213" y2="9"/>
<line opacity="0.1" stroke="#000000" stroke-width="1" x1="227" y1="579" x2="227" y2="9"/>
<line opacity="0.1" stroke="#000000" stroke-width="1" x1="242" y1="579" x2="242" y2="9"/>
<line opacity="0.1" stroke="#000000" stroke-width="1" x1="256" y1="579" x2="256" y2="9"/>
<line opacity="0.1" stroke="#000000" stroke-width="1" x1="271" y1="579" x2="271" y2="9"/>
<line opacity="0.1" stroke="#000000" stroke-width="1" x1="285" y1="579" x2="285" y2="9"/>
<line opacity="0.1" stroke="#000000" stroke-width="1" x1="299" y1="579" x2="299" y2="9"/>
<line opacity="0.1" stroke="#000000" stroke-width="1" x1="314" y1="579" x2="314" y2="9"/>
<line opacity="0.1" stroke="#000000" stroke-width="1" x1="328" y1="579" x2="328" y2="9"/>
<line opacity="0.1" stroke="#000000" stroke-width="1" x1="343" y1="579" x2="343" y2="9"/>
<line opacity="0.1" stroke="#000000" stroke-width="1" x1="357" y1="579" x2="357" y2="9"/>
<line opacity="0.1" stroke="#000000" stroke-width="1" x1="372" y1="579" x2="372" y2="9"/>
<line opacity="0.1" stroke="#000000" stroke-width="1" x1="386" y1="579" x2="386" y2="9"/>
<line opacity="0.1" stroke="#000000" stroke-width="1" x1="401" y1="579" x2="401" y2="9"/>
<line opacity="0.1" stroke="#000000" stroke-width="1" x1="415" y1="579" x2="415" y2="9"/>
<line opacity="0.1" stroke="#000000" stroke-width="1" x1="429" y1="579" x2="429" y2="9"/>
<line opacity="0.1" stroke="#000000" stroke-width="1" x1="444" y1="579" x2="444" y2="9"/>
<line opacity="0.1" stroke="#000000" stroke-width="1" x1="458" y1="579" x2="458" y2="9"/>
<line opacity="0.1" stroke="#000000" stroke-width="1" x1="473" y1="579" x2="473" y2="9"/>
<line opacity="0.1" stroke="#000000" stroke-width="1" x1="487" y1="579" x2="487" y2="9"/>
<line opacity="0.1" stroke="#000000" stroke-width="1" x1="502" y1="579" x2="502" y2="9"/>
<line opacity="0.1" stroke="#000000" stroke-width="1" x1="516" y1="579" x2="516" y2="9"/>
<line opacity="0.1" stroke="#000000" stroke-width="1" x1="531" y1="579" x2="531" y2="9"/>
<line opacity="0.1" stroke="#000000" stroke-width="1" x1="545" y1="579" x2="545" y2="9"/>
<line opacity="0.1" stroke="#000000" stroke-width="1" x1="559" y1="579" x2="559" y2="9"/>
<line opacity="0.1" stroke="#000000" stroke-width="1" x1="574" y1="579" x2="574" y2="9"/>
<line opacity="0.1" stroke="#000000" stroke-width="1" x1="588" y1="579" x2="588" y2="9"/>
<line opacity="0.1" stroke="#000000" stroke-width="1" x1="603" y1="579" x2="603" y2="9"/>
<line opacity="0.1" stroke="#000000" stroke-width="1" x1="617" y1="579" x2="617" y2="9"/>
<line opacity="0.1" stroke="#000000" stroke-width="1" x1="632" y1="579" x2="632" y2="9"/>
<line opacity="0.1" stroke="#000000" stroke-width="1" x1="646" y1="579" x2="646" y2="9"/>
<line opacity="0.1" stroke="#000000" stroke-width="1" x1="661" y1="579" x2="661" y2="9"/>
<line opacity="0.1" stroke="#000000" stroke-width="1" x1="675" y1="579" x2="675" y2="9"/>
<line opacity="0.1" stroke="#000000" stroke-width="1" x1="689" y1="579" x2="689" y2="9"/>
<line opacity="0.1" stroke="#000000" stroke-width="1" x1="704" y1="579" x2="704" y2="9"/>
<line opacity="0.1" stroke="#000000" stroke-width="1" x1="718" y1="579" x2="718" y2="9"/>
<line opacity="0.1" stroke="#000000" stroke-width="1" x1="733" y1="579" x2="733" y2="9"/>
<line opacity="0.1" stroke="#000000" stroke-width="1" x1="747" y1="579" x2="747" y2="9"/>
<line opacity="0.1" stroke="#000000" stroke-width="1" x1="762" y1="579" x2="762" y2="9"/>
<line opacity="0.1" stroke="#000000" stroke-width="1" x1="776" y1="579" x2="776" y2="9"/>
<line opacity="0.1" stroke="#000000" stroke-width="1" x1="790" y1="579" x2="790" y2="9"/>
<line opacity="0.1" stroke="#000000" stroke-width="1" x1="805" y1="579" x2="805" y2="9"/>
<line opacity="0.1" stroke="#000000" stroke-width="1" x1="819" y1="579" x2="819" y2="9"/>
<line opacity="0.1" stroke="#000000" stroke-width="1" x1="834" y1="579" x2="834" y2="9"/>
<line opacity="0.1" stroke="#000000" stroke-width="1" x1="848" y1="579" x2="848" y2="9"/>
<line opacity="0.1" stroke="#000000" stroke-width="1" x1="863" y1="579" x2="863" y2="9"/>
<line opacity="0.1" stroke="#000000" stroke-width="1" x1="877" y1="579" x2="877" y2="9"/>
<line opacity="0.1" stroke="#000000" stroke-width="1" x1="892" y1="579" x2="892" y2="9"/>
<line opacity="0.1" stroke="#000000" stroke-width="1" x1="906" y1="579" x2="906" y2="9"/>
<line opacity="0.1" stroke="#000000" stroke-width="1" x1="920" y1="579" x2="920" y2="9"/>
<line opacity="0.1" stroke="#000000" stroke-width="1" x1="935" y1="579" x2="935" y2="9"/>
<line opacity="0.1" stroke="#000000" stroke-width="1" x1="40" y1="567" x2="947" y2="567"/>
<line opacity="0.1" stroke="#000000" stroke-width="1" x1="40" y1="556" x2="947" y2="556"/>
<line opacity="0.1" stroke="#000000" stroke-width="1" x1="40" y1="545" x2="947" y2="545"/>
<line opacity="0.1" stroke="#000000" stroke-width="1" x1="40" y1="533" x2="947" y2="533"/>
<line opacity="0.1" stroke="#000000" stroke-width="1" x1="40" y1="522" x2="947" y2="522"/>
<line opacity="0.1" stroke="#000000" stroke-width="1" x1="40" y1="511" x2="947" y2="511"/>
<line opacity="0.1" stroke="#000000" stroke-width="1" x1="40" y1="499" x2="947" y2="499"/>
<line opacity="0.1" stroke="#000000" stroke-width="1" x1="40" y1="488" x2="947" y2="488"/>
<line opacity="0.1" stroke="#000000" stroke-width="1" x1="40" y1="477" x2="947" y2="477"/>
<line opacity="0.1" stroke="#000000" stroke-width="1" x1="40" y1="466" x2="947" y2="466"/>
<line opacity="0.1" stroke="#000000" stroke-width="1" x1="40" y1="454" x2="947" y2="454"/>
<line opacity="0.1" stroke="#000000" stroke-width="1" x1="40" y1="443" x2="947" y2="443"/>
<line opacity="0.1" stroke="#000000" stroke-width="1" x1="40" y1="432" x2="947" y2="432"/>
<line opacity="0.1" stroke="#000000" stroke-width="1" x1="40" y1="420" x2="947" y2="420"/>
<line opacity="0.1" stroke="#000000" stroke-width="1" x1="40" y1="409" x2="947" y2="409"/>
<line opacity="0.1" stroke="#000000" stroke-width="1" x1="40" y1="398" x2="947" y2="398"/>
<line opacity="0.1" stroke="#000000" stroke-width="1" x1="40" y1="387" x2="947" y2="387"/>
<line opacity="0.1" stroke="#000000" stroke-width="1" x1="40" y1="375" x2="947" y2="375"/>
<line opacity="0.1" stroke="#000000" stroke-width="1" x1="40" y1="364" x2="947" y2="364"/>
<line opacity="0.1" stroke="#000000" stroke-width="1" x1="40" y1="353" x2="947" y2="353"/>
<line opacity="0.1" stroke="#000000" stroke-width="1" x1="40" y1="341" x2="947" y2="341"/>
<line opacity="0.1" stroke="#000000" stroke-width="1" x1="40" y1="330" x2="947" y2="330"/>
<line opacity="0.1" stroke="#000000" stroke-width="1" x1="40" y1="319" x2="947" y2="319"/>
<line opacity="0.1" stroke="#000000" stroke-width="1" x1="40" y1="308" x2="947" y2="308"/>
<line opacity="0.1" stroke="#000000" stroke-width="1" x1="40" y1="296" x2="947" y2="296"/>
<line opacity="0.1" stroke="#000000" stroke-width="1" x1="40" y1="285" x2="947" y2="285"/>
<line opacity="0.1" stroke="#000000" stroke-width="1" x1="40" y1="274" x2="947" y2="274"/>
<line opacity="0.1" stroke="#000000" stroke-width="1" x1="40" y1="262" x2="947" y2="262"/>
<line opacity="0.1" stroke="#000000" stroke-width="1" x1="40" y1="251" x2="947" y2="251"/>
<line opacity="0.1" stroke="#000000" stroke-width="1" x1="40" y1="240" x2="947" y2="240"/>
<line opacity="0.1" stroke="#000000" stroke-width="1" x1="40" y1="229" x2="947" y2="229"/>
<line opacity="0.1" stroke="#000000" stroke-width="1" x1="40" y1="217" x2="947" y2="217"/>
<line opacity="0.1" stroke="#000000" stroke-width="1" x1="40" y1="206" x2="947" y2="206"/>
<line opacity="0.1" stroke="#000000" stroke-width="1" x1="40" y1="195" x2="947" y2="195"/>
<line opacity="0.1" stroke="#000000" stroke-width="1" x1="40" y1="183" x2="947" y2="183"/>
<line opacity="0.1" stroke="#000000" stroke-width="1" x1="40" y1="172" x2="947" y2="172"/>
<line opacity="0.1" stroke="#000000" stroke-width="1" x1="40" y1="161" x2="947" y2="161"/>
<line opacity="0.1" stroke="#000000" stroke-width="1" x1="40" y1="150" x2="947" y2="150"/>
<line opacity="0.1" stroke="#000000" stroke-width="1" x1="40" y1="138" x2="947" y2="138"/>
<line opacity="0.1" stroke="#000000" stroke-width="1" x1="40" y1="127" x2="947" y2="127"/>
<line opacity="0.1" stroke="#000000" stroke-width="1" x1="40" y1="116" x2="947" y2="116"/>
<line opacity="0.1" stroke="#000000" stroke-width="1" x1="40" y1="104" x2="947" y2="104"/>
<line opacity="0.1" stroke="#000000" stroke-width="1" x1="40" y1="93" x2="947" y2="93"/>
<line opacity="0.1" stroke="#000000" stroke-width="1" x1="40" y1="82" x2="947" y2="82"/>
<line opacity="0.1" stroke="#000000" stroke-width="1" x1="40" y1="71" x2="947" y2="71"/>
<line opacity="0.1" stroke="#000000" stroke-width="1" x1="40" y1="59" x2="947" y2="59"/>
<line opacity="0.1" stroke="#000000" stroke-width="1" x1="40" y1="48" x2="947" y2="48"/>
<line opacity="0.1" stroke="#000000" stroke-width="1" x1="40" y1="37" x2="947" y2="37"/>
<line opacity="0.1" stroke="#000000" stroke-width="1" x1="40" y1="25" x2="947" y2="25"/>
<line opacity="0.1" stroke="#000000" stroke-width="1" x1="40" y1="14" x2="947" y2="14"/>
<line opacity="0.2" stroke="#000000" stroke-width="1" x1="40" y1="579" x2="40" y2="9"/>
<line opacity="0.2" stroke="#000000" stroke-width="1" x1="141" y1="579" x2="141" y2="9"/>
<line opacity="0.2" stroke="#000000" stroke-width="1" x1="242" y1="579" x2="242" y2="9"/>
<line opacity="0.2" stroke="#000000" stroke-width="1" x1="343" y1="579" x2="343" y2="9"/>
<line opacity="0.2" stroke="#000000" stroke-width="1" x1="444" y1="579" x2="444" y2="9"/>
<line opacity="0.2" stroke="#000000" stroke-width="1" x1="545" y1="579" x2="545" y2="9"/>
<line opacity="0.2" stroke="#000000" stroke-width="1" x1="646" y1="579" x2="646" y2="9"/>
<line opacity="0.2" stroke="#000000" stroke-width="1" x1="747" y1="579" x2="747" y2="9"/>
<line opacity="0.2" stroke="#000000" stroke-width="1" x1="848" y1="579" x2="848" y2="9"/>
<line opacity="0.2" stroke="#000000" stroke-width="1" x1="40" y1="522" x2="947" y2="522"/>
<line opacity="0.2" stroke="#000000" stroke-width="1" x1="40" y1="466" x2="947" y2="466"/>
<line opacity="0.2" stroke="#000000" stroke-width="1" x1="40" y1="409" x2="947" y2="409"/>
<line opacity="0.2" stroke="#000000" stroke-width="1" x1="40" y1="353" x2="947" y2="353"/>
<line opacity="0.2" stroke="#000000" stroke-width="1" x1="40" y1="296" x2="947" y2="296"/>
<line opacity="0.2" stroke="#000000" stroke-width="1" x1="40" y1="240" x2="947" y2="240"/>
<line opacity="0.2" stroke="#000000" stroke-width="1" x1="40" y1="183" x2="947" y2="183"/>
<line opacity="0.2" stroke="#000000" stroke-width="1" x1="40" y1="127" x2="947" y2="127"/>
<line opacity="0.2" stroke="#000000" stroke-width="1" x1="40" y1="71" x2="947" y2="71"/>
<line opacity="0.2" stroke="#000000" stroke-width="1" x1="40" y1="14" x2="947" y2="14"/>
<polyline fill="none" opacity="1" stroke="#000000" stroke-width="1" points="39,10 39,580 "/>
<text x="30" y="522" dy="0.5ex" text-anchor="end" font-family="sans-serif" font-size="9.67741935483871" opacity="1" fill="#000000">
10%
</text>
<polyline fill="none" opacity="1" stroke="#000000" stroke-width="1" points="34,522 39,522 "/>
<text x="30" y="466" dy="0.5ex" text-anchor="end" font-family="sans-serif" font-size="9.67741935483871" opacity="1" fill="#000000">
20%
</text>
<polyline fill="none" opacity="1" stroke="#000000" stroke-width="1" points="34,466 39,466 "/>
<text x="30" y="409" dy="0.5ex" text-anchor="end" font-family="sans-serif" font-size="9.67741935483871" opacity="1" fill="#000000">
30%
</text>
<polyline fill="none" opacity="1" stroke="#000000" stroke-width="1" points="34,409 39,409 "/>
<text x="30" y="353" dy="0.5ex" text-anchor="end" font-family="sans-serif" font-size="9.67741935483871" opacity="1" fill="#000000">
40%
</text>
<polyline fill="none" opacity="1" stroke="#000000" stroke-width="1" points="34,353 39,353 "/>
<text x="30" y="296" dy="0.5ex" text-anchor="end" font-family="sans-serif" font-size="9.67741935483871" opacity="1" fill="#000000">
50%
</text>
<polyline fill="none" opacity="1" stroke="#000000" stroke-width="1" points="34,296 39,296 "/>
<text x="30" y="240" dy="0.5ex" text-anchor="end" font-family="sans-serif" font-size="9.67741935483871" opacity="1" fill="#000000">
60%
</text>
<polyline fill="none" opacity="1" stroke="#000000" stroke-width="1" points="34,240 39,240 "/>
<text x="30" y="183" dy="0.5ex" text-anchor="end" font-family="sans-serif" font-size="9.67741935483871" opacity="1" fill="#000000">
70%
</text>
<polyline fill="none" opacity="1" stroke="#000000" stroke-width="1" points="34,183 39,183 "/>
<text x="30" y="127" dy="0.5ex" text-anchor="end" font-family="sans-serif" font-size="9.67741935483871" opacity="1" fill="#000000">
80%
</text>
<polyline fill="none" opacity="1" stroke="#000000" stroke-width="1" points="34,127 39,127 "/>
<text x="30" y="71" dy="0.5ex" text-anchor="end" font-family="sans-serif" font-size="9.67741935483871" opacity="1" fill="#000000">
90%
</text>
<polyline fill="none" opacity="1" stroke="#000000" stroke-width="1" points="34,71 39,71 "/>
<text x="30" y="14" dy="0.5ex" text-anchor="end" font-family="sans-serif" font-size="9.67741935483871" opacity="1" fill="#000000">
100%
</text>
<polyline fill="none" opacity="1" stroke="#000000" stroke-width="1" points="34,14 39,14 "/>
<polyline fill="none" opacity="1" stroke="#000000" stroke-width="1" points="40,580 947,580 "/>
<text x="40" y="590" dy="0.76em" text-anchor="middle" font-family="sans-serif" font-size="9.67741935483871" opacity="1" fill="#000000">
2019-03-16
</text>
<polyline fill="none" opacity="1" stroke="#000000" stroke-width="1" points="40,580 40,585 "/>
<text x="141" y="590" dy="0.76em" text-anchor="middle" font-family="sans-serif" font-size="9.67741935483871" opacity="1" fill="#000000">
2019-05-04
</text>
<polyline fill="none" opacity="1" stroke="#000000" stroke-width="1" points="141,580 141,585 "/>
<text x="242" y="590" dy="0.76em" text-anchor="middle" font-family="sans-serif" font-size="9.67741935483871" opacity="1" fill="#000000">
2019-06-22
</text>
<polyline fill="none" opacity="1" stroke="#000000" stroke-width="1" points="242,580 242,585 "/>
<text x="343" y="590" dy="0.76em" text-anchor="middle" font-family="sans-serif" font-size="9.67741935483871" opacity="1" fill="#000000">
2019-08-10
</text>
<polyline fill="none" opacity="1" stroke="#000000" stroke-width="1" points="343,580 343,585 "/>
<text x="444" y="590" dy="0.76em" text-anchor="middle" font-family="sans-serif" font-size="9.67741935483871" opacity="1" fill="#000000">
2019-09-28
</text>
<polyline fill="none" opacity="1" stroke="#000000" stroke-width="1" points="444,580 444,585 "/>
<text x="545" y="590" dy="0.76em" text-anchor="middle" font-family="sans-serif" font-size="9.67741935483871" opacity="1" fill="#000000">
2019-11-16
</text>
<polyline fill="none" opacity="1" stroke="#000000" stroke-width="1" points="545,580 545,585 "/>
<text x="646" y="590" dy="0.76em" text-anchor="middle" font-family="sans-serif" font-size="9.67741935483871" opacity="1" fill="#000000">
2020-01-04
</text>
<polyline fill="none" opacity="1" stroke="#000000" stroke-width="1" points="646,580 646,585 "/>
<text x="747" y="590" dy="0.76em" text-anchor="middle" font-family="sans-serif" font-size="9.67741935483871" opacity="1" fill="#000000">
2020-02-22
</text>
<polyline fill="none" opacity="1" stroke="#000000" stroke-width="1" points="747,580 747,585 "/>
<text x="848" y="590" dy="0.76em" text-anchor="middle" font-family="sans-serif" font-size="9.67741935483871" opacity="1" fill="#000000">
2020-04-11
</text>
<polyline fill="none" opacity="1" stroke="#000000" stroke-width="1" points="848,580 848,585 "/>
<polyline fill="none" opacity="1" stroke="#FF0000" stroke-width="1" points="40,578 40,577 49,576 50,575 203,575 208,574 210,574 215,574 220,574 230,573 301,571 302,571 561,570 576,570 614,569 631,569 648,568 648,568 676,567 695,567 705,566 797,566 799,566 801,566 810,565 812,565 814,564 816,564 818,563 821,562 824,561 826,561 828,560 830,560 833,559 836,559 838,558 840,557 843,557 845,556 848,555 850,555 851,555 853,554 855,554 857,553 859,553 861,552 864,551 867,551 869,550 871,550 874,549 877,548 877,548 881,547 882,547 884,547 886,546 889,546 890,545 893,544 895,544 898,543 900,543 902,542 904,542 908,541 911,540 913,540 915,539 917,539 920,538 922,537 924,537 926,536 928,536 930,535 932,535 936,534 938,533 940,533 942,532 944,532 947,531 "/>
</svg>
