<svg width="987" height="610" viewBox="0 0 987 610" xmlns="http://www.w3.org/2000/svg">
<line opacity="0.1" stroke="#000000" stroke-width="1" x1="40" y1="579" x2="40" y2="9"/>
<line opacity="0.1" stroke="#000000" stroke-width="1" x1="51" y1="579" x2="51" y2="9"/>
<line opacity="0.1" stroke="#000000" stroke-width="1" x1="62" y1="579" x2="62" y2="9"/>
<line opacity="0.1" stroke="#000000" stroke-width="1" x1="73" y1="579" x2="73" y2="9"/>
<line opacity="0.1" stroke="#000000" stroke-width="1" x1="84" y1="579" x2="84" y2="9"/>
<line opacity="0.1" stroke="#000000" stroke-width="1" x1="95" y1="579" x2="95" y2="9"/>
<line opacity="0.1" stroke="#000000" stroke-width="1" x1="106" y1="579" x2="106" y2="9"/>
<line opacity="0.1" stroke="#000000" stroke-width="1" x1="118" y1="579" x2="118" y2="9"/>
<line opacity="0.1" stroke="#000000" stroke-width="1" x1="129" y1="579" x2="129" y2="9"/>
<line opacity="0.1" stroke="#000000" stroke-width="1" x1="140" y1="579" x2="140" y2="9"/>
<line opacity="0.1" stroke="#000000" stroke-width="1" x1="151" y1="579" x2="151" y2="9"/>
<line opacity="0.1" stroke="#000000" stroke-width="1" x1="162" y1="579" x2="162" y2="9"/>
<line opacity="0.1" stroke="#000000" stroke-width="1" x1="173" y1="579" x2="173" y2="9"/>
<line opacity="0.1" stroke="#000000" stroke-width="1" x1="184" y1="579" x2="184" y2="9"/>
<line opacity="0.1" stroke="#000000" stroke-width="1" x1="196" y1="579" x2="196" y2="9"/>
<line opacity="0.1" stroke="#000000" stroke-width="1" x1="207" y1="579" x2="207" y2="9"/>
<line opacity="0.1" stroke="#000000" stroke-width="1" x1="218" y1="579" x2="218" y2="9"/>
<line opacity="0.1" stroke="#000000" stroke-width="1" x1="229" y1="579" x2="229" y2="9"/>
<line opacity="0.1" stroke="#000000" stroke-width="1" x1="240" y1="579" x2="240" y2="9"/>
<line opacity="0.1" stroke="#000000" stroke-width="1" x1="251" y1="579" x2="251" y2="9"/>
<line opacity="0.1" stroke="#000000" stroke-width="1" x1="262" y1="579" x2="262" y2="9"/>
<line opacity="0.1" stroke="#000000" stroke-width="1" x1="274" y1="579" x2="274" y2="9"/>
<line opacity="0.1" stroke="#000000" stroke-width="1" x1="285" y1="579" x2="285" y2="9"/>
<line opacity="0.1" stroke="#000000" stroke-width="1" x1="296" y1="579" x2="296" y2="9"/>
<line opacity="0.1" stroke="#000000" stroke-width="1" x1="307" y1="579" x2="307" y2="9"/>
<line opacity="0.1" stroke="#000000" stroke-width="1" x1="318" y1="579" x2="318" y2="9"/>
<line opacity="0.1" stroke="#000000" stroke-width="1" x1="329" y1="579" x2="329" y2="9"/>
<line opacity="0.1" stroke="#000000" stroke-width="1" x1="340" y1="579" x2="340" y2="9"/>
<line opacity="0.1" stroke="#000000" stroke-width="1" x1="352" y1="579" x2="352" y2="9"/>
<line opacity="0.1" stroke="#000000" stroke-width="1" x1="363" y1="579" x2="363" y2="9"/>
<line opacity="0.1" stroke="#000000" stroke-width="1" x1="374" y1="579" x2="374" y2="9"/>
<line opacity="0.1" stroke="#000000" stroke-width="1" x1="385" y1="579" x2="385" y2="9"/>
<line opacity="0.1" stroke="#000000" stroke-width="1" x1="396" y1="579" x2="396" y2="9"/>
<line opacity="0.1" stroke="#000000" stroke-width="1" x1="407" y1="579" x2="407" y2="9"/>
<line opacity="0.1" stroke="#000000" stroke-width="1" x1="418" y1="579" x2="418" y2="9"/>
<line opacity="0.1" stroke="#000000" stroke-width="1" x1="430" y1="579" x2="430" y2="9"/>
<line opacity="0.1" stroke="#000000" stroke-width="1" x1="441" y1="579" x2="441" y2="9"/>
<line opacity="0.1" stroke="#000000" stroke-width="1" x1="452" y1="579" x2="452" y2="9"/>
<line opacity="0.1" stroke="#000000" stroke-width="1" x1="463" y1="579" x2="463" y2="9"/>
<line opacity="0.1" stroke="#000000" stroke-width="1" x1="474" y1="579" x2="474" y2="9"/>
<line opacity="0.1" stroke="#000000" stroke-width="1" x1="485" y1="579" x2="485" y2="9"/>
<line opacity="0.1" stroke="#000000" stroke-width="1" x1="496" y1="579" x2="496" y2="9"/>
<line opacity="0.1" stroke="#000000" stroke-width="1" x1="508" y1="579" x2="508" y2="9"/>
<line opacity="0.1" stroke="#000000" stroke-width="1" x1="519" y1="579" x2="519" y2="9"/>
<line opacity="0.1" stroke="#000000" stroke-width="1" x1="530" y1="579" x2="530" y2="9"/>
<line opacity="0.1" stroke="#000000" stroke-width="1" x1="541" y1="579" x2="541" y2="9"/>
<line opacity="0.1" stroke="#000000" stroke-width="1" x1="552" y1="579" x2="552" y2="9"/>
<line opacity="0.1" stroke="#000000" stroke-width="1" x1="563" y1="579" x2="563" y2="9"/>
<line opacity="0.1" stroke="#000000" stroke-width="1" x1="574" y1="579" x2="574" y2="9"/>
<line opacity="0.1" stroke="#000000" stroke-width="1" x1="586" y1="579" x2="586" y2="9"/>
<line opacity="0.1" stroke="#000000" stroke-width="1" x1="597" y1="579" x2="597" y2="9"/>
<line opacity="0.1" stroke="#000000" stroke-width="1" x1="608" y1="579" x2="608" y2="9"/>
<line opacity="0.1" stroke="#000000" stroke-width="1" x1="619" y1="579" x2="619" y2="9"/>
<line opacity="0.1" stroke="#000000" stroke-width="1" x1="630" y1="579" x2="630" y2="9"/>
<line opacity="0.1" stroke="#000000" stroke-width="1" x1="641" y1="579" x2="641" y2="9"/>
<line opacity="0.1" stroke="#000000" stroke-width="1" x1="652" y1="579" x2="652" y2="9"/>
<line opacity="0.1" stroke="#000000" stroke-width="1" x1="664" y1="579" x2="664" y2="9"/>
<line opacity="0.1" stroke="#000000" stroke-width="1" x1="675" y1="579" x2="675" y2="9"/>
<line opacity="0.1" stroke="#000000" stroke-width="1" x1="686" y1="579" x2="686" y2="9"/>
<line opacity="0.1" stroke="#000000" stroke-width="1" x1="697" y1="579" x2="697" y2="9"/>
<line opacity="0.1" stroke="#000000" stroke-width="1" x1="708" y1="579" x2="708" y2="9"/>
<line opacity="0.1" stroke="#000000" stroke-width="1" x1="719" y1="579" x2="719" y2="9"/>
<line opacity="0.1" stroke="#000000" stroke-width="1" x1="731" y1="579" x2="731" y2="9"/>
<line opacity="0.1" stroke="#000000" stroke-width="1" x1="742" y1="579" x2="742" y2="9"/>
<line opacity="0.1" stroke="#000000" stroke-width="1" x1="753" y1="579" x2="753" y2="9"/>
<line opacity="0.1" stroke="#000000" stroke-width="1" x1="764" y1="579" x2="764" y2="9"/>
<line opacity="0.1" stroke="#000000" stroke-width="1" x1="775" y1="579" x2="775" y2="9"/>
<line opacity="0.1" stroke="#000000" stroke-width="1" x1="786" y1="579" x2="786" y2="9"/>
<line opacity="0.1" stroke="#000000" stroke-width="1" x1="797" y1="579" x2="797" y2="9"/>
<line opacity="0.1" stroke="#000000" stroke-width="1" x1="809" y1="579" x2="809" y2="9"/>
<line opacity="0.1" stroke="#000000" stroke-width="1" x1="820" y1="579" x2="820" y2="9"/>
<line opacity="0.1" stroke="#000000" stroke-width="1" x1="831" y1="579" x2="831" y2="9"/>
<line opacity="0.1" stroke="#000000" stroke-width="1" x1="842" y1="579" x2="842" y2="9"/>
<line opacity="0.1" stroke="#000000" stroke-width="1" x1="853" y1="579" x2="853" y2="9"/>
<line opacity="0.1" stroke="#000000" stroke-width="1" x1="864" y1="579" x2="864" y2="9"/>
<line opacity="0.1" stroke="#000000" stroke-width="1" x1="875" y1="579" x2="875" y2="9"/>
<line opacity="0.1" stroke="#000000" stroke-width="1" x1="887" y1="579" x2="887" y2="9"/>
<line opacity="0.1" stroke="#000000" stroke-width="1" x1="898" y1="579" x2="898" y2="9"/>
<line opacity="0.1" stroke="#000000" stroke-width="1" x1="909" y1="579" x2="909" y2="9"/>
<line opacity="0.1" stroke="#000000" stroke-width="1" x1="920" y1="579" x2="920" y2="9"/>
<line opacity="0.1" stroke="#000000" stroke-width="1" x1="931" y1="579" x2="931" y2="9"/>
<line opacity="0.1" stroke="#000000" stroke-width="1" x1="942" y1="579" x2="942" y2="9"/>
<line opacity="0.1" stroke="#000000" stroke-width="1" x1="40" y1="567" x2="947" y2="567"/>
<line opacity="0.1" stroke="#000000" stroke-width="1" x1="40" y1="556" x2="947" y2="556"/>
<line opacity="0.1" stroke="#000000" stroke-width="1" x1="40" y1="545" x2="947" y2="545"/>
<line opacity="0.1" stroke="#000000" stroke-width="1" x1="40" y1="533" x2="947" y2="533"/>
<line opacity="0.1" stroke="#000000" stroke-width="1" x1="40" y1="522" x2="947" y2="522"/>
<line opacity="0.1" stroke="#000000" stroke-width="1" x1="40" y1="511" x2="947" y2="511"/>
<line opacity="0.1" stroke="#000000" stroke-width="1" x1="40" y1="499" x2="947" y2="499"/>
<line opacity="0.1" stroke="#000000" stroke-width="1" x1="40" y1="488" x2="947" y2="488"/>
<line opacity="0.1" stroke="#000000" stroke-width="1" x1="40" y1="477" x2="947" y2="477"/>
<line opacity="0.1" stroke="#000000" stroke-width="1" x1="40" y1="466" x2="947" y2="466"/>
<line opacity="0.1" stroke="#000000" stroke-width="1" x1="40" y1="454" x2="947" y2="454"/>
<line opacity="0.1" stroke="#000000" stroke-width="1" x1="40" y1="443" x2="947" y2="443"/>
<line opacity="0.1" stroke="#000000" stroke-width="1" x1="40" y1="432" x2="947" y2="432"/>
<line opacity="0.1" stroke="#000000" stroke-width="1" x1="40" y1="420" x2="947" y2="420"/>
<line opacity="0.1" stroke="#000000" stroke-width="1" x1="40" y1="409" x2="947" y2="409"/>
<line opacity="0.1" stroke="#000000" stroke-width="1" x1="40" y1="398" x2="947" y2="398"/>
<line opacity="0.1" stroke="#000000" stroke-width="1" x1="40" y1="387" x2="947" y2="387"/>
<line opacity="0.1" stroke="#000000" stroke-width="1" x1="40" y1="375" x2="947" y2="375"/>
<line opacity="0.1" stroke="#000000" stroke-width="1" x1="40" y1="364" x2="947" y2="364"/>
<line opacity="0.1" stroke="#000000" stroke-width="1" x1="40" y1="353" x2="947" y2="353"/>
<line opacity="0.1" stroke="#000000" stroke-width="1" x1="40" y1="341" x2="947" y2="341"/>
<line opacity="0.1" stroke="#000000" stroke-width="1" x1="40" y1="330" x2="947" y2="330"/>
<line opacity="0.1" stroke="#000000" stroke-width="1" x1="40" y1="319" x2="947" y2="319"/>
<line opacity="0.1" stroke="#000000" stroke-width="1" x1="40" y1="308" x2="947" y2="308"/>
<line opacity="0.1" stroke="#000000" stroke-width="1" x1="40" y1="296" x2="947" y2="296"/>
<line opacity="0.1" stroke="#000000" stroke-width="1" x1="40" y1="285" x2="947" y2="285"/>
<line opacity="0.1" stroke="#000000" stroke-width="1" x1="40" y1="274" x2="947" y2="274"/>
<line opacity="0.1" stroke="#000000" stroke-width="1" x1="40" y1="262" x2="947" y2="262"/>
<line opacity="0.1" stroke="#000000" stroke-width="1" x1="40" y1="251" x2="947" y2="251"/>
<line opacity="0.1" stroke="#000000" stroke-width="1" x1="40" y1="240" x2="947" y2="240"/>
<line opacity="0.1" stroke="#000000" stroke-width="1" x1="40" y1="229" x2="947" y2="229"/>
<line opacity="0.1" stroke="#000000" stroke-width="1" x1="40" y1="217" x2="947" y2="217"/>
<line opacity="0.1" stroke="#000000" stroke-width="1" x1="40" y1="206" x2="947" y2="206"/>
<line opacity="0.1" stroke="#000000" stroke-width="1" x1="40" y1="195" x2="947" y2="195"/>
<line opacity="0.1" stroke="#000000" stroke-width="1" x1="40" y1="183" x2="947" y2="183"/>
<line opacity="0.1" stroke="#000000" stroke-width="1" x1="40" y1="172" x2="947" y2="172"/>
<line opacity="0.1" stroke="#000000" stroke-width="1" x1="40" y1="161" x2="947" y2="161"/>
<line opacity="0.1" stroke="#000000" stroke-width="1" x1="40" y1="150" x2="947" y2="150"/>
<line opacity="0.1" stroke="#000000" stroke-width="1" x1="40" y1="138" x2="947" y2="138"/>
<line opacity="0.1" stroke="#000000" stroke-width="1" x1="40" y1="127" x2="947" y2="127"/>
<line opacity="0.1" stroke="#000000" stroke-width="1" x1="40" y1="116" x2="947" y2="116"/>
<line opacity="0.1" stroke="#000000" stroke-width="1" x1="40" y1="104" x2="947" y2="104"/>
<line opacity="0.1" stroke="#000000" stroke-width="1" x1="40" y1="93" x2="947" y2="93"/>
<line opacity="0.1" stroke="#000000" stroke-width="1" x1="40" y1="82" x2="947" y2="82"/>
<line opacity="0.1" stroke="#000000" stroke-width="1" x1="40" y1="71" x2="947" y2="71"/>
<line opacity="0.1" stroke="#000000" stroke-width="1" x1="40" y1="59" x2="947" y2="59"/>
<line opacity="0.1" stroke="#000000" stroke-width="1" x1="40" y1="48" x2="947" y2="48"/>
<line opacity="0.1" stroke="#000000" stroke-width="1" x1="40" y1="37" x2="947" y2="37"/>
<line opacity="0.1" stroke="#000000" stroke-width="1" x1="40" y1="25" x2="947" y2="25"/>
<line opacity="0.1" stroke="#000000" stroke-width="1" x1="40" y1="14" x2="947" y2="14"/>
<line opacity="0.2" stroke="#000000" stroke-width="1" x1="40" y1="579" x2="40" y2="9"/>
<line opacity="0.2" stroke="#000000" stroke-width="1" x1="140" y1="579" x2="140" y2="9"/>
<line opacity="0.2" stroke="#000000" stroke-width="1" x1="240" y1="579" x2="240" y2="9"/>
<line opacity="0.2" stroke="#000000" stroke-width="1" x1="340" y1="579" x2="340" y2="9"/>
<line opacity="0.2" stroke="#000000" stroke-width="1" x1="441" y1="579" x2="441" y2="9"/>
<line opacity="0.2" stroke="#000000" stroke-width="1" x1="541" y1="579" x2="541" y2="9"/>
<line opacity="0.2" stroke="#000000" stroke-width="1" x1="641" y1="579" x2="641" y2="9"/>
<line opacity="0.2" stroke="#000000" stroke-width="1" x1="742" y1="579" x2="742" y2="9"/>
<line opacity="0.2" stroke="#000000" stroke-width="1" x1="842" y1="579" x2="842" y2="9"/>
<line opacity="0.2" stroke="#000000" stroke-width="1" x1="942" y1="579" x2="942" y2="9"/>
<line opacity="0.2" stroke="#000000" stroke-width="1" x1="40" y1="522" x2="947" y2="522"/>
<line opacity="0.2" stroke="#000000" stroke-width="1" x1="40" y1="466" x2="947" y2="466"/>
<line opacity="0.2" stroke="#000000" stroke-width="1" x1="40" y1="409" x2="947" y2="409"/>
<line opacity="0.2" stroke="#000000" stroke-width="1" x1="40" y1="353" x2="947" y2="353"/>
<line opacity="0.2" stroke="#000000" stroke-width="1" x1="40" y1="296" x2="947" y2="296"/>
<line opacity="0.2" stroke="#000000" stroke-width="1" x1="40" y1="240" x2="947" y2="240"/>
<line opacity="0.2" stroke="#000000" stroke-width="1" x1="40" y1="183" x2="947" y2="183"/>
<line opacity="0.2" stroke="#000000" stroke-width="1" x1="40" y1="127" x2="947" y2="127"/>
<line opacity="0.2" stroke="#000000" stroke-width="1" x1="40" y1="71" x2="947" y2="71"/>
<line opacity="0.2" stroke="#000000" stroke-width="1" x1="40" y1="14" x2="947" y2="14"/>
<polyline fill="none" opacity="1" stroke="#000000" stroke-width="1" points="39,10 39,580 "/>
<text x="30" y="522" dy="0.5ex" text-anchor="end" font-family="sans-serif" font-size="9.67741935483871" opacity="1" fill="#000000">
10%
</text>
<polyline fill="none" opacity="1" stroke="#000000" stroke-width="1" points="34,522 39,522 "/>
<text x="30" y="466" dy="0.5ex" text-anchor="end" font-family="sans-serif" font-size="9.67741935483871" opacity="1" fill="#000000">
20%
</text>
<polyline fill="none" opacity="1" stroke="#000000" stroke-width="1" points="34,466 39,466 "/>
<text x="30" y="409" dy="0.5ex" text-anchor="end" font-family="sans-serif" font-size="9.67741935483871" opacity="1" fill="#000000">
30%
</text>
<polyline fill="none" opacity="1" stroke="#000000" stroke-width="1" points="34,409 39,409 "/>
<text x="30" y="353" dy="0.5ex" text-anchor="end" font-family="sans-serif" font-size="9.67741935483871" opacity="1" fill="#000000">
40%
</text>
<polyline fill="none" opacity="1" stroke="#000000" stroke-width="1" points="34,353 39,353 "/>
<text x="30" y="296" dy="0.5ex" text-anchor="end" font-family="sans-serif" font-size="9.67741935483871" opacity="1" fill="#000000">
50%
</text>
<polyline fill="none" opacity="1" stroke="#000000" stroke-width="1" points="34,296 39,296 "/>
<text x="30" y="240" dy="0.5ex" text-anchor="end" font-family="sans-serif" font-size="9.67741935483871" opacity="1" fill="#000000">
60%
</text>
<polyline fill="none" opacity="1" stroke="#000000" stroke-width="1" points="34,240 39,240 "/>
<text x="30" y="183" dy="0.5ex" text-anchor="end" font-family="sans-serif" font-size="9.67741935483871" opacity="1" fill="#000000">
70%
</text>
<polyline fill="none" opacity="1" stroke="#000000" stroke-width="1" points="34,183 39,183 "/>
<text x="30" y="127" dy="0.5ex" text-anchor="end" font-family="sans-serif" font-size="9.67741935483871" opacity="1" fill="#000000">
80%
</text>
<polyline fill="none" opacity="1" stroke="#000000" stroke-width="1" points="34,127 39,127 "/>
<text x="30" y="71" dy="0.5ex" text-anchor="end" font-family="sans-serif" font-size="9.67741935483871" opacity="1" fill="#000000">
90%
</text>
<polyline fill="none" opacity="1" stroke="#000000" stroke-width="1" points="34,71 39,71 "/>
<text x="30" y="14" dy="0.5ex" text-anchor="end" font-family="sans-serif" font-size="9.67741935483871" opacity="1" fill="#000000">
100%
</text>
<polyline fill="none" opacity="1" stroke="#000000" stroke-width="1" points="34,14 39,14 "/>
<polyline fill="none" opacity="1" stroke="#000000" stroke-width="1" points="40,580 947,580 "/>
<text x="40" y="590" dy="0.76em" text-anchor="middle" font-family="sans-serif" font-size="9.67741935483871" opacity="1" fill="#000000">
2019-03-16
</text>
<polyline fill="none" opacity="1" stroke="#000000" stroke-width="1" points="40,580 40,585 "/>
<text x="140" y="590" dy="0.76em" text-anchor="middle" font-family="sans-serif" font-size="9.67741935483871" opacity="1" fill="#000000">
2019-05-18
</text>
<polyline fill="none" opacity="1" stroke="#000000" stroke-width="1" points="140,580 140,585 "/>
<text x="240" y="590" dy="0.76em" text-anchor="middle" font-family="sans-serif" font-size="9.67741935483871" opacity="1" fill="#000000">
2019-07-20
</text>
<polyline fill="none" opacity="1" stroke="#000000" stroke-width="1" points="240,580 240,585 "/>
<text x="340" y="590" dy="0.76em" text-anchor="middle" font-family="sans-serif" font-size="9.67741935483871" opacity="1" fill="#000000">
2019-09-21
</text>
<polyline fill="none" opacity="1" stroke="#000000" stroke-width="1" points="340,580 340,585 "/>
<text x="441" y="590" dy="0.76em" text-anchor="middle" font-family="sans-serif" font-size="9.67741935483871" opacity="1" fill="#000000">
2019-11-23
</text>
<polyline fill="none" opacity="1" stroke="#000000" stroke-width="1" points="441,580 441,585 "/>
<text x="541" y="590" dy="0.76em" text-anchor="middle" font-family="sans-serif" font-size="9.67741935483871" opacity="1" fill="#000000">
2020-01-25
</text>
<polyline fill="none" opacity="1" stroke="#000000" stroke-width="1" points="541,580 541,585 "/>
<text x="641" y="590" dy="0.76em" text-anchor="middle" font-family="sans-serif" font-size="9.67741935483871" opacity="1" fill="#000000">
2020-03-28
</text>
<polyline fill="none" opacity="1" stroke="#000000" stroke-width="1" points="641,580 641,585 "/>
<text x="742" y="590" dy="0.76em" text-anchor="middle" font-family="sans-serif" font-size="9.67741935483871" opacity="1" fill="#000000">
2020-05-30
</text>
<polyline fill="none" opacity="1" stroke="#000000" stroke-width="1" points="742,580 742,585 "/>
<text x="842" y="590" dy="0.76em" text-anchor="middle" font-family="sans-serif" font-size="9.67741935483871" opacity="1" fill="#000000">
2020-08-01
</text>
<polyline fill="none" opacity="1" stroke="#000000" stroke-width="1" points="842,580 842,585 "/>
<text x="942" y="590" dy="0.76em" text-anchor="middle" font-family="sans-serif" font-size="9.67741935483871" opacity="1" fill="#000000">
2020-10-03
</text>
<polyline fill="none" opacity="1" stroke="#000000" stroke-width="1" points="942,580 942,585 "/>
<polyline fill="none" opacity="1" stroke="#FF0000" stroke-width="1" points="40,578 40,578 47,576 48,575 166,575 169,575 171,575 175,575 178,575 186,573 242,572 242,572 442,571 454,571 483,570 496,570 509,569 509,569 530,568 546,568 553,568 624,568 626,567 627,567 634,567 636,566 637,566 639,565 640,564 642,563 645,563 646,563 648,562 650,562 652,561 654,561 656,560 658,559 660,559 661,558 664,558 665,557 666,557 667,557 669,556 670,556 672,555 673,555 676,554 678,553 680,553 682,552 683,552 686,551 686,551 689,550 689,550 691,550 692,549 695,549 696,548 699,547 700,547 702,547 704,546 705,546 707,545 710,544 712,544 713,543 715,543 717,542 719,542 720,541 722,541 724,540 725,540 727,539 728,539 732,538 733,537 735,537 736,537 738,536 739,536 741,535 743,535 744,534 746,534 747,533 749,533 751,532 752,532 754,532 757,531 759,530 760,530 762,529 763,529 765,528 767,528 768,527 770,527 771,526 773,526 775,526 776,525 778,525 779,524 781,524 783,523 784,523 786,522 787,522 789,521 790,521 792,521 794,520 795,520 797,519 799,519 800,518 802,518 803,517 805,517 806,516 808,516 810,516 811,515 813,515 814,514 816,514 817,513 819,513 821,512 822,512 824,511 825,511 827,511 829,510 830,510 832,509 833,509 835,508 837,508 838,507 840,507 841,506 843,506 845,506 846,505 848,505 849,504 851,504 853,503 854,503 856,502 857,502 859,501 861,501 862,500 864,500 865,500 867,499 869,499 872,498 873,497 875,497 878,496 880,495 881,495 883,495 884,494 886,494 889,493 891,492 892,492 894,491 896,491 897,490 900,490 902,489 903,489 905,488 907,488 908,487 911,486 913,486 915,485 916,485 918,485 919,484 923,483 924,483 926,482 927,482 929,481 931,481 932,480 934,480 935,479 937,479 941,478 942,478 943,477 945,477 947,476 "/>
</svg>
