<svg width="987" height="610" viewBox="0 0 987 610" xmlns="http://www.w3.org/2000/svg">
<line opacity="0.1" stroke="#000000" stroke-width="1" x1="40" y1="579" x2="40" y2="9"/>
<line opacity="0.1" stroke="#000000" stroke-width="1" x1="51" y1="579" x2="51" y2="9"/>
<line opacity="0.1" stroke="#000000" stroke-width="1" x1="63" y1="579" x2="63" y2="9"/>
<line opacity="0.1" stroke="#000000" stroke-width="1" x1="75" y1="579" x2="75" y2="9"/>
<line opacity="0.1" stroke="#000000" stroke-width="1" x1="86" y1="579" x2="86" y2="9"/>
<line opacity="0.1" stroke="#000000" stroke-width="1" x1="98" y1="579" x2="98" y2="9"/>
<line opacity="0.1" stroke="#000000" stroke-width="1" x1="110" y1="579" x2="110" y2="9"/>
<line opacity="0.1" stroke="#000000" stroke-width="1" x1="121" y1="579" x2="121" y2="9"/>
<line opacity="0.1" stroke="#000000" stroke-width="1" x1="133" y1="579" x2="133" y2="9"/>
<line opacity="0.1" stroke="#000000" stroke-width="1" x1="145" y1="579" x2="145" y2="9"/>
<line opacity="0.1" stroke="#000000" stroke-width="1" x1="156" y1="579" x2="156" y2="9"/>
<line opacity="0.1" stroke="#000000" stroke-width="1" x1="168" y1="579" x2="168" y2="9"/>
<line opacity="0.1" stroke="#000000" stroke-width="1" x1="180" y1="579" x2="180" y2="9"/>
<line opacity="0.1" stroke="#000000" stroke-width="1" x1="191" y1="579" x2="191" y2="9"/>
<line opacity="0.1" stroke="#000000" stroke-width="1" x1="203" y1="579" x2="203" y2="9"/>
<line opacity="0.1" stroke="#000000" stroke-width="1" x1="215" y1="579" x2="215" y2="9"/>
<line opacity="0.1" stroke="#000000" stroke-width="1" x1="226" y1="579" x2="226" y2="9"/>
<line opacity="0.1" stroke="#000000" stroke-width="1" x1="238" y1="579" x2="238" y2="9"/>
<line opacity="0.1" stroke="#000000" stroke-width="1" x1="250" y1="579" x2="250" y2="9"/>
<line opacity="0.1" stroke="#000000" stroke-width="1" x1="261" y1="579" x2="261" y2="9"/>
<line opacity="0.1" stroke="#000000" stroke-width="1" x1="273" y1="579" x2="273" y2="9"/>
<line opacity="0.1" stroke="#000000" stroke-width="1" x1="285" y1="579" x2="285" y2="9"/>
<line opacity="0.1" stroke="#000000" stroke-width="1" x1="296" y1="579" x2="296" y2="9"/>
<line opacity="0.1" stroke="#000000" stroke-width="1" x1="308" y1="579" x2="308" y2="9"/>
<line opacity="0.1" stroke="#000000" stroke-width="1" x1="320" y1="579" x2="320" y2="9"/>
<line opacity="0.1" stroke="#000000" stroke-width="1" x1="331" y1="579" x2="331" y2="9"/>
<line opacity="0.1" stroke="#000000" stroke-width="1" x1="343" y1="579" x2="343" y2="9"/>
<line opacity="0.1" stroke="#000000" stroke-width="1" x1="355" y1="579" x2="355" y2="9"/>
<line opacity="0.1" stroke="#000000" stroke-width="1" x1="367" y1="579" x2="367" y2="9"/>
<line opacity="0.1" stroke="#000000" stroke-width="1" x1="378" y1="579" x2="378" y2="9"/>
<line opacity="0.1" stroke="#000000" stroke-width="1" x1="390" y1="579" x2="390" y2="9"/>
<line opacity="0.1" stroke="#000000" stroke-width="1" x1="402" y1="579" x2="402" y2="9"/>
<line opacity="0.1" stroke="#000000" stroke-width="1" x1="413" y1="579" x2="413" y2="9"/>
<line opacity="0.1" stroke="#000000" stroke-width="1" x1="425" y1="579" x2="425" y2="9"/>
<line opacity="0.1" stroke="#000000" stroke-width="1" x1="437" y1="579" x2="437" y2="9"/>
<line opacity="0.1" stroke="#000000" stroke-width="1" x1="448" y1="579" x2="448" y2="9"/>
<line opacity="0.1" stroke="#000000" stroke-width="1" x1="460" y1="579" x2="460" y2="9"/>
<line opacity="0.1" stroke="#000000" stroke-width="1" x1="472" y1="579" x2="472" y2="9"/>
<line opacity="0.1" stroke="#000000" stroke-width="1" x1="483" y1="579" x2="483" y2="9"/>
<line opacity="0.1" stroke="#000000" stroke-width="1" x1="495" y1="579" x2="495" y2="9"/>
<line opacity="0.1" stroke="#000000" stroke-width="1" x1="507" y1="579" x2="507" y2="9"/>
<line opacity="0.1" stroke="#000000" stroke-width="1" x1="518" y1="579" x2="518" y2="9"/>
<line opacity="0.1" stroke="#000000" stroke-width="1" x1="530" y1="579" x2="530" y2="9"/>
<line opacity="0.1" stroke="#000000" stroke-width="1" x1="542" y1="579" x2="542" y2="9"/>
<line opacity="0.1" stroke="#000000" stroke-width="1" x1="553" y1="579" x2="553" y2="9"/>
<line opacity="0.1" stroke="#000000" stroke-width="1" x1="565" y1="579" x2="565" y2="9"/>
<line opacity="0.1" stroke="#000000" stroke-width="1" x1="577" y1="579" x2="577" y2="9"/>
<line opacity="0.1" stroke="#000000" stroke-width="1" x1="588" y1="579" x2="588" y2="9"/>
<line opacity="0.1" stroke="#000000" stroke-width="1" x1="600" y1="579" x2="600" y2="9"/>
<line opacity="0.1" stroke="#000000" stroke-width="1" x1="612" y1="579" x2="612" y2="9"/>
<line opacity="0.1" stroke="#000000" stroke-width="1" x1="623" y1="579" x2="623" y2="9"/>
<line opacity="0.1" stroke="#000000" stroke-width="1" x1="635" y1="579" x2="635" y2="9"/>
<line opacity="0.1" stroke="#000000" stroke-width="1" x1="647" y1="579" x2="647" y2="9"/>
<line opacity="0.1" stroke="#000000" stroke-width="1" x1="658" y1="579" x2="658" y2="9"/>
<line opacity="0.1" stroke="#000000" stroke-width="1" x1="670" y1="579" x2="670" y2="9"/>
<line opacity="0.1" stroke="#000000" stroke-width="1" x1="682" y1="579" x2="682" y2="9"/>
<line opacity="0.1" stroke="#000000" stroke-width="1" x1="694" y1="579" x2="694" y2="9"/>
<line opacity="0.1" stroke="#000000" stroke-width="1" x1="705" y1="579" x2="705" y2="9"/>
<line opacity="0.1" stroke="#000000" stroke-width="1" x1="717" y1="579" x2="717" y2="9"/>
<line opacity="0.1" stroke="#000000" stroke-width="1" x1="729" y1="579" x2="729" y2="9"/>
<line opacity="0.1" stroke="#000000" stroke-width="1" x1="740" y1="579" x2="740" y2="9"/>
<line opacity="0.1" stroke="#000000" stroke-width="1" x1="752" y1="579" x2="752" y2="9"/>
<line opacity="0.1" stroke="#000000" stroke-width="1" x1="764" y1="579" x2="764" y2="9"/>
<line opacity="0.1" stroke="#000000" stroke-width="1" x1="775" y1="579" x2="775" y2="9"/>
<line opacity="0.1" stroke="#000000" stroke-width="1" x1="787" y1="579" x2="787" y2="9"/>
<line opacity="0.1" stroke="#000000" stroke-width="1" x1="799" y1="579" x2="799" y2="9"/>
<line opacity="0.1" stroke="#000000" stroke-width="1" x1="810" y1="579" x2="810" y2="9"/>
<line opacity="0.1" stroke="#000000" stroke-width="1" x1="822" y1="579" x2="822" y2="9"/>
<line opacity="0.1" stroke="#000000" stroke-width="1" x1="834" y1="579" x2="834" y2="9"/>
<line opacity="0.1" stroke="#000000" stroke-width="1" x1="845" y1="579" x2="845" y2="9"/>
<line opacity="0.1" stroke="#000000" stroke-width="1" x1="857" y1="579" x2="857" y2="9"/>
<line opacity="0.1" stroke="#000000" stroke-width="1" x1="869" y1="579" x2="869" y2="9"/>
<line opacity="0.1" stroke="#000000" stroke-width="1" x1="880" y1="579" x2="880" y2="9"/>
<line opacity="0.1" stroke="#000000" stroke-width="1" x1="892" y1="579" x2="892" y2="9"/>
<line opacity="0.1" stroke="#000000" stroke-width="1" x1="904" y1="579" x2="904" y2="9"/>
<line opacity="0.1" stroke="#000000" stroke-width="1" x1="915" y1="579" x2="915" y2="9"/>
<line opacity="0.1" stroke="#000000" stroke-width="1" x1="927" y1="579" x2="927" y2="9"/>
<line opacity="0.1" stroke="#000000" stroke-width="1" x1="939" y1="579" x2="939" y2="9"/>
<line opacity="0.1" stroke="#000000" stroke-width="1" x1="40" y1="567" x2="947" y2="567"/>
<line opacity="0.1" stroke="#000000" stroke-width="1" x1="40" y1="556" x2="947" y2="556"/>
<line opacity="0.1" stroke="#000000" stroke-width="1" x1="40" y1="545" x2="947" y2="545"/>
<line opacity="0.1" stroke="#000000" stroke-width="1" x1="40" y1="533" x2="947" y2="533"/>
<line opacity="0.1" stroke="#000000" stroke-width="1" x1="40" y1="522" x2="947" y2="522"/>
<line opacity="0.1" stroke="#000000" stroke-width="1" x1="40" y1="511" x2="947" y2="511"/>
<line opacity="0.1" stroke="#000000" stroke-width="1" x1="40" y1="499" x2="947" y2="499"/>
<line opacity="0.1" stroke="#000000" stroke-width="1" x1="40" y1="488" x2="947" y2="488"/>
<line opacity="0.1" stroke="#000000" stroke-width="1" x1="40" y1="477" x2="947" y2="477"/>
<line opacity="0.1" stroke="#000000" stroke-width="1" x1="40" y1="466" x2="947" y2="466"/>
<line opacity="0.1" stroke="#000000" stroke-width="1" x1="40" y1="454" x2="947" y2="454"/>
<line opacity="0.1" stroke="#000000" stroke-width="1" x1="40" y1="443" x2="947" y2="443"/>
<line opacity="0.1" stroke="#000000" stroke-width="1" x1="40" y1="432" x2="947" y2="432"/>
<line opacity="0.1" stroke="#000000" stroke-width="1" x1="40" y1="420" x2="947" y2="420"/>
<line opacity="0.1" stroke="#000000" stroke-width="1" x1="40" y1="409" x2="947" y2="409"/>
<line opacity="0.1" stroke="#000000" stroke-width="1" x1="40" y1="398" x2="947" y2="398"/>
<line opacity="0.1" stroke="#000000" stroke-width="1" x1="40" y1="387" x2="947" y2="387"/>
<line opacity="0.1" stroke="#000000" stroke-width="1" x1="40" y1="375" x2="947" y2="375"/>
<line opacity="0.1" stroke="#000000" stroke-width="1" x1="40" y1="364" x2="947" y2="364"/>
<line opacity="0.1" stroke="#000000" stroke-width="1" x1="40" y1="353" x2="947" y2="353"/>
<line opacity="0.1" stroke="#000000" stroke-width="1" x1="40" y1="341" x2="947" y2="341"/>
<line opacity="0.1" stroke="#000000" stroke-width="1" x1="40" y1="330" x2="947" y2="330"/>
<line opacity="0.1" stroke="#000000" stroke-width="1" x1="40" y1="319" x2="947" y2="319"/>
<line opacity="0.1" stroke="#000000" stroke-width="1" x1="40" y1="308" x2="947" y2="308"/>
<line opacity="0.1" stroke="#000000" stroke-width="1" x1="40" y1="296" x2="947" y2="296"/>
<line opacity="0.1" stroke="#000000" stroke-width="1" x1="40" y1="285" x2="947" y2="285"/>
<line opacity="0.1" stroke="#000000" stroke-width="1" x1="40" y1="274" x2="947" y2="274"/>
<line opacity="0.1" stroke="#000000" stroke-width="1" x1="40" y1="262" x2="947" y2="262"/>
<line opacity="0.1" stroke="#000000" stroke-width="1" x1="40" y1="251" x2="947" y2="251"/>
<line opacity="0.1" stroke="#000000" stroke-width="1" x1="40" y1="240" x2="947" y2="240"/>
<line opacity="0.1" stroke="#000000" stroke-width="1" x1="40" y1="229" x2="947" y2="229"/>
<line opacity="0.1" stroke="#000000" stroke-width="1" x1="40" y1="217" x2="947" y2="217"/>
<line opacity="0.1" stroke="#000000" stroke-width="1" x1="40" y1="206" x2="947" y2="206"/>
<line opacity="0.1" stroke="#000000" stroke-width="1" x1="40" y1="195" x2="947" y2="195"/>
<line opacity="0.1" stroke="#000000" stroke-width="1" x1="40" y1="183" x2="947" y2="183"/>
<line opacity="0.1" stroke="#000000" stroke-width="1" x1="40" y1="172" x2="947" y2="172"/>
<line opacity="0.1" stroke="#000000" stroke-width="1" x1="40" y1="161" x2="947" y2="161"/>
<line opacity="0.1" stroke="#000000" stroke-width="1" x1="40" y1="150" x2="947" y2="150"/>
<line opacity="0.1" stroke="#000000" stroke-width="1" x1="40" y1="138" x2="947" y2="138"/>
<line opacity="0.1" stroke="#000000" stroke-width="1" x1="40" y1="127" x2="947" y2="127"/>
<line opacity="0.1" stroke="#000000" stroke-width="1" x1="40" y1="116" x2="947" y2="116"/>
<line opacity="0.1" stroke="#000000" stroke-width="1" x1="40" y1="104" x2="947" y2="104"/>
<line opacity="0.1" stroke="#000000" stroke-width="1" x1="40" y1="93" x2="947" y2="93"/>
<line opacity="0.1" stroke="#000000" stroke-width="1" x1="40" y1="82" x2="947" y2="82"/>
<line opacity="0.1" stroke="#000000" stroke-width="1" x1="40" y1="71" x2="947" y2="71"/>
<line opacity="0.1" stroke="#000000" stroke-width="1" x1="40" y1="59" x2="947" y2="59"/>
<line opacity="0.1" stroke="#000000" stroke-width="1" x1="40" y1="48" x2="947" y2="48"/>
<line opacity="0.1" stroke="#000000" stroke-width="1" x1="40" y1="37" x2="947" y2="37"/>
<line opacity="0.1" stroke="#000000" stroke-width="1" x1="40" y1="25" x2="947" y2="25"/>
<line opacity="0.1" stroke="#000000" stroke-width="1" x1="40" y1="14" x2="947" y2="14"/>
<line opacity="0.2" stroke="#000000" stroke-width="1" x1="40" y1="579" x2="40" y2="9"/>
<line opacity="0.2" stroke="#000000" stroke-width="1" x1="133" y1="579" x2="133" y2="9"/>
<line opacity="0.2" stroke="#000000" stroke-width="1" x1="226" y1="579" x2="226" y2="9"/>
<line opacity="0.2" stroke="#000000" stroke-width="1" x1="320" y1="579" x2="320" y2="9"/>
<line opacity="0.2" stroke="#000000" stroke-width="1" x1="413" y1="579" x2="413" y2="9"/>
<line opacity="0.2" stroke="#000000" stroke-width="1" x1="507" y1="579" x2="507" y2="9"/>
<line opacity="0.2" stroke="#000000" stroke-width="1" x1="600" y1="579" x2="600" y2="9"/>
<line opacity="0.2" stroke="#000000" stroke-width="1" x1="694" y1="579" x2="694" y2="9"/>
<line opacity="0.2" stroke="#000000" stroke-width="1" x1="787" y1="579" x2="787" y2="9"/>
<line opacity="0.2" stroke="#000000" stroke-width="1" x1="880" y1="579" x2="880" y2="9"/>
<line opacity="0.2" stroke="#000000" stroke-width="1" x1="40" y1="522" x2="947" y2="522"/>
<line opacity="0.2" stroke="#000000" stroke-width="1" x1="40" y1="466" x2="947" y2="466"/>
<line opacity="0.2" stroke="#000000" stroke-width="1" x1="40" y1="409" x2="947" y2="409"/>
<line opacity="0.2" stroke="#000000" stroke-width="1" x1="40" y1="353" x2="947" y2="353"/>
<line opacity="0.2" stroke="#000000" stroke-width="1" x1="40" y1="296" x2="947" y2="296"/>
<line opacity="0.2" stroke="#000000" stroke-width="1" x1="40" y1="240" x2="947" y2="240"/>
<line opacity="0.2" stroke="#000000" stroke-width="1" x1="40" y1="183" x2="947" y2="183"/>
<line opacity="0.2" stroke="#000000" stroke-width="1" x1="40" y1="127" x2="947" y2="127"/>
<line opacity="0.2" stroke="#000000" stroke-width="1" x1="40" y1="71" x2="947" y2="71"/>
<line opacity="0.2" stroke="#000000" stroke-width="1" x1="40" y1="14" x2="947" y2="14"/>
<polyline fill="none" opacity="1" stroke="#000000" stroke-width="1" points="39,10 39,580 "/>
<text x="30" y="522" dy="0.5ex" text-anchor="end" font-family="sans-serif" font-size="9.67741935483871" opacity="1" fill="#000000">
10%
</text>
<polyline fill="none" opacity="1" stroke="#000000" stroke-width="1" points="34,522 39,522 "/>
<text x="30" y="466" dy="0.5ex" text-anchor="end" font-family="sans-serif" font-size="9.67741935483871" opacity="1" fill="#000000">
20%
</text>
<polyline fill="none" opacity="1" stroke="#000000" stroke-width="1" points="34,466 39,466 "/>
<text x="30" y="409" dy="0.5ex" text-anchor="end" font-family="sans-serif" font-size="9.67741935483871" opacity="1" fill="#000000">
30%
</text>
<polyline fill="none" opacity="1" stroke="#000000" stroke-width="1" points="34,409 39,409 "/>
<text x="30" y="353" dy="0.5ex" text-anchor="end" font-family="sans-serif" font-size="9.67741935483871" opacity="1" fill="#000000">
40%
</text>
<polyline fill="none" opacity="1" stroke="#000000" stroke-width="1" points="34,353 39,353 "/>
<text x="30" y="296" dy="0.5ex" text-anchor="end" font-family="sans-serif" font-size="9.67741935483871" opacity="1" fill="#000000">
50%
</text>
<polyline fill="none" opacity="1" stroke="#000000" stroke-width="1" points="34,296 39,296 "/>
<text x="30" y="240" dy="0.5ex" text-anchor="end" font-family="sans-serif" font-size="9.67741935483871" opacity="1" fill="#000000">
60%
</text>
<polyline fill="none" opacity="1" stroke="#000000" stroke-width="1" points="34,240 39,240 "/>
<text x="30" y="183" dy="0.5ex" text-anchor="end" font-family="sans-serif" font-size="9.67741935483871" opacity="1" fill="#000000">
70%
</text>
<polyline fill="none" opacity="1" stroke="#000000" stroke-width="1" points="34,183 39,183 "/>
<text x="30" y="127" dy="0.5ex" text-anchor="end" font-family="sans-serif" font-size="9.67741935483871" opacity="1" fill="#000000">
80%
</text>
<polyline fill="none" opacity="1" stroke="#000000" stroke-width="1" points="34,127 39,127 "/>
<text x="30" y="71" dy="0.5ex" text-anchor="end" font-family="sans-serif" font-size="9.67741935483871" opacity="1" fill="#000000">
90%
</text>
<polyline fill="none" opacity="1" stroke="#000000" stroke-width="1" points="34,71 39,71 "/>
<text x="30" y="14" dy="0.5ex" text-anchor="end" font-family="sans-serif" font-size="9.67741935483871" opacity="1" fill="#000000">
100%
</text>
<polyline fill="none" opacity="1" stroke="#000000" stroke-width="1" points="34,14 39,14 "/>
<polyline fill="none" opacity="1" stroke="#000000" stroke-width="1" points="40,580 947,580 "/>
<text x="40" y="590" dy="0.76em" text-anchor="middle" font-family="sans-serif" font-size="9.67741935483871" opacity="1" fill="#000000">
2019-03-16
</text>
<polyline fill="none" opacity="1" stroke="#000000" stroke-width="1" points="40,580 40,585 "/>
<text x="133" y="590" dy="0.76em" text-anchor="middle" font-family="sans-serif" font-size="9.67741935483871" opacity="1" fill="#000000">
2019-05-11
</text>
<polyline fill="none" opacity="1" stroke="#000000" stroke-width="1" points="133,580 133,585 "/>
<text x="226" y="590" dy="0.76em" text-anchor="middle" font-family="sans-serif" font-size="9.67741935483871" opacity="1" fill="#000000">
2019-07-06
</text>
<polyline fill="none" opacity="1" stroke="#000000" stroke-width="1" points="226,580 226,585 "/>
<text x="320" y="590" dy="0.76em" text-anchor="middle" font-family="sans-serif" font-size="9.67741935483871" opacity="1" fill="#000000">
2019-08-31
</text>
<polyline fill="none" opacity="1" stroke="#000000" stroke-width="1" points="320,580 320,585 "/>
<text x="413" y="590" dy="0.76em" text-anchor="middle" font-family="sans-serif" font-size="9.67741935483871" opacity="1" fill="#000000">
2019-10-26
</text>
<polyline fill="none" opacity="1" stroke="#000000" stroke-width="1" points="413,580 413,585 "/>
<text x="507" y="590" dy="0.76em" text-anchor="middle" font-family="sans-serif" font-size="9.67741935483871" opacity="1" fill="#000000">
2019-12-21
</text>
<polyline fill="none" opacity="1" stroke="#000000" stroke-width="1" points="507,580 507,585 "/>
<text x="600" y="590" dy="0.76em" text-anchor="middle" font-family="sans-serif" font-size="9.67741935483871" opacity="1" fill="#000000">
2020-02-15
</text>
<polyline fill="none" opacity="1" stroke="#000000" stroke-width="1" points="600,580 600,585 "/>
<text x="694" y="590" dy="0.76em" text-anchor="middle" font-family="sans-serif" font-size="9.67741935483871" opacity="1" fill="#000000">
2020-04-11
</text>
<polyline fill="none" opacity="1" stroke="#000000" stroke-width="1" points="694,580 694,585 "/>
<text x="787" y="590" dy="0.76em" text-anchor="middle" font-family="sans-serif" font-size="9.67741935483871" opacity="1" fill="#000000">
2020-06-06
</text>
<polyline fill="none" opacity="1" stroke="#000000" stroke-width="1" points="787,580 787,585 "/>
<text x="880" y="590" dy="0.76em" text-anchor="middle" font-family="sans-serif" font-size="9.67741935483871" opacity="1" fill="#000000">
2020-08-01
</text>
<polyline fill="none" opacity="1" stroke="#000000" stroke-width="1" points="880,580 880,585 "/>
<polyline fill="none" opacity="1" stroke="#FF0000" stroke-width="1" points="40,578 40,578 47,576 48,575 172,575 176,575 178,575 182,575 185,575 193,573 251,572 252,572 461,571 474,571 504,570 518,570 532,569 532,569 554,568 570,568 578,567 652,567 654,567 656,567 663,566 665,566 666,565 667,565 669,564 671,563 674,563 676,562 677,562 679,561 681,560 683,560 686,559 687,559 690,558 691,558 693,557 695,557 696,557 697,556 699,556 701,555 702,555 704,554 706,553 709,553 711,552 712,552 714,552 717,551 717,551 720,550 721,550 722,549 724,549 727,548 727,548 730,547 732,546 734,546 736,545 737,545 739,545 742,544 744,543 746,543 747,542 749,542 751,541 753,540 755,540 756,539 758,539 760,538 761,538 765,537 766,537 768,536 770,536 771,535 773,535 775,534 776,534 778,533 780,533 781,532 783,532 785,532 786,531 788,531 791,530 793,529 795,529 796,528 798,528 800,527 801,527 803,526 805,526 806,525 808,525 810,525 812,524 813,524 815,523 816,523 818,522 820,522 822,521 823,521 825,520 826,520 828,519 830,519 831,518 833,518 835,518 836,517 838,517 840,516 841,516 843,515 845,515 847,514 848,514 850,513 851,513 853,512 855,512 857,512 858,511 860,511 861,510 863,510 865,509 866,509 868,508 870,508 871,507 873,507 875,506 876,506 878,505 880,505 881,505 883,504 885,504 886,503 888,503 890,502 892,502 893,501 895,501 897,500 898,500 900,499 902,499 904,498 905,498 907,498 908,497 912,496 913,496 915,495 918,494 920,494 921,493 923,493 925,492 926,492 930,491 932,491 933,490 935,490 937,489 938,489 942,488 943,487 945,487 946,486 "/>
</svg>
