<svg width="987" height="610" viewBox="0 0 987 610" xmlns="http://www.w3.org/2000/svg">
<line opacity="0.1" stroke="#000000" stroke-width="1" x1="40" y1="579" x2="40" y2="9"/>
<line opacity="0.1" stroke="#000000" stroke-width="1" x1="51" y1="579" x2="51" y2="9"/>
<line opacity="0.1" stroke="#000000" stroke-width="1" x1="63" y1="579" x2="63" y2="9"/>
<line opacity="0.1" stroke="#000000" stroke-width="1" x1="74" y1="579" x2="74" y2="9"/>
<line opacity="0.1" stroke="#000000" stroke-width="1" x1="86" y1="579" x2="86" y2="9"/>
<line opacity="0.1" stroke="#000000" stroke-width="1" x1="98" y1="579" x2="98" y2="9"/>
<line opacity="0.1" stroke="#000000" stroke-width="1" x1="109" y1="579" x2="109" y2="9"/>
<line opacity="0.1" stroke="#000000" stroke-width="1" x1="121" y1="579" x2="121" y2="9"/>
<line opacity="0.1" stroke="#000000" stroke-width="1" x1="133" y1="579" x2="133" y2="9"/>
<line opacity="0.1" stroke="#000000" stroke-width="1" x1="144" y1="579" x2="144" y2="9"/>
<line opacity="0.1" stroke="#000000" stroke-width="1" x1="156" y1="579" x2="156" y2="9"/>
<line opacity="0.1" stroke="#000000" stroke-width="1" x1="168" y1="579" x2="168" y2="9"/>
<line opacity="0.1" stroke="#000000" stroke-width="1" x1="179" y1="579" x2="179" y2="9"/>
<line opacity="0.1" stroke="#000000" stroke-width="1" x1="191" y1="579" x2="191" y2="9"/>
<line opacity="0.1" stroke="#000000" stroke-width="1" x1="203" y1="579" x2="203" y2="9"/>
<line opacity="0.1" stroke="#000000" stroke-width="1" x1="214" y1="579" x2="214" y2="9"/>
<line opacity="0.1" stroke="#000000" stroke-width="1" x1="226" y1="579" x2="226" y2="9"/>
<line opacity="0.1" stroke="#000000" stroke-width="1" x1="237" y1="579" x2="237" y2="9"/>
<line opacity="0.1" stroke="#000000" stroke-width="1" x1="249" y1="579" x2="249" y2="9"/>
<line opacity="0.1" stroke="#000000" stroke-width="1" x1="261" y1="579" x2="261" y2="9"/>
<line opacity="0.1" stroke="#000000" stroke-width="1" x1="272" y1="579" x2="272" y2="9"/>
<line opacity="0.1" stroke="#000000" stroke-width="1" x1="284" y1="579" x2="284" y2="9"/>
<line opacity="0.1" stroke="#000000" stroke-width="1" x1="296" y1="579" x2="296" y2="9"/>
<line opacity="0.1" stroke="#000000" stroke-width="1" x1="307" y1="579" x2="307" y2="9"/>
<line opacity="0.1" stroke="#000000" stroke-width="1" x1="319" y1="579" x2="319" y2="9"/>
<line opacity="0.1" stroke="#000000" stroke-width="1" x1="331" y1="579" x2="331" y2="9"/>
<line opacity="0.1" stroke="#000000" stroke-width="1" x1="342" y1="579" x2="342" y2="9"/>
<line opacity="0.1" stroke="#000000" stroke-width="1" x1="354" y1="579" x2="354" y2="9"/>
<line opacity="0.1" stroke="#000000" stroke-width="1" x1="366" y1="579" x2="366" y2="9"/>
<line opacity="0.1" stroke="#000000" stroke-width="1" x1="377" y1="579" x2="377" y2="9"/>
<line opacity="0.1" stroke="#000000" stroke-width="1" x1="389" y1="579" x2="389" y2="9"/>
<line opacity="0.1" stroke="#000000" stroke-width="1" x1="400" y1="579" x2="400" y2="9"/>
<line opacity="0.1" stroke="#000000" stroke-width="1" x1="412" y1="579" x2="412" y2="9"/>
<line opacity="0.1" stroke="#000000" stroke-width="1" x1="424" y1="579" x2="424" y2="9"/>
<line opacity="0.1" stroke="#000000" stroke-width="1" x1="435" y1="579" x2="435" y2="9"/>
<line opacity="0.1" stroke="#000000" stroke-width="1" x1="447" y1="579" x2="447" y2="9"/>
<line opacity="0.1" stroke="#000000" stroke-width="1" x1="459" y1="579" x2="459" y2="9"/>
<line opacity="0.1" stroke="#000000" stroke-width="1" x1="470" y1="579" x2="470" y2="9"/>
<line opacity="0.1" stroke="#000000" stroke-width="1" x1="482" y1="579" x2="482" y2="9"/>
<line opacity="0.1" stroke="#000000" stroke-width="1" x1="494" y1="579" x2="494" y2="9"/>
<line opacity="0.1" stroke="#000000" stroke-width="1" x1="505" y1="579" x2="505" y2="9"/>
<line opacity="0.1" stroke="#000000" stroke-width="1" x1="517" y1="579" x2="517" y2="9"/>
<line opacity="0.1" stroke="#000000" stroke-width="1" x1="529" y1="579" x2="529" y2="9"/>
<line opacity="0.1" stroke="#000000" stroke-width="1" x1="540" y1="579" x2="540" y2="9"/>
<line opacity="0.1" stroke="#000000" stroke-width="1" x1="552" y1="579" x2="552" y2="9"/>
<line opacity="0.1" stroke="#000000" stroke-width="1" x1="563" y1="579" x2="563" y2="9"/>
<line opacity="0.1" stroke="#000000" stroke-width="1" x1="575" y1="579" x2="575" y2="9"/>
<line opacity="0.1" stroke="#000000" stroke-width="1" x1="587" y1="579" x2="587" y2="9"/>
<line opacity="0.1" stroke="#000000" stroke-width="1" x1="598" y1="579" x2="598" y2="9"/>
<line opacity="0.1" stroke="#000000" stroke-width="1" x1="610" y1="579" x2="610" y2="9"/>
<line opacity="0.1" stroke="#000000" stroke-width="1" x1="622" y1="579" x2="622" y2="9"/>
<line opacity="0.1" stroke="#000000" stroke-width="1" x1="633" y1="579" x2="633" y2="9"/>
<line opacity="0.1" stroke="#000000" stroke-width="1" x1="645" y1="579" x2="645" y2="9"/>
<line opacity="0.1" stroke="#000000" stroke-width="1" x1="657" y1="579" x2="657" y2="9"/>
<line opacity="0.1" stroke="#000000" stroke-width="1" x1="668" y1="579" x2="668" y2="9"/>
<line opacity="0.1" stroke="#000000" stroke-width="1" x1="680" y1="579" x2="680" y2="9"/>
<line opacity="0.1" stroke="#000000" stroke-width="1" x1="692" y1="579" x2="692" y2="9"/>
<line opacity="0.1" stroke="#000000" stroke-width="1" x1="703" y1="579" x2="703" y2="9"/>
<line opacity="0.1" stroke="#000000" stroke-width="1" x1="715" y1="579" x2="715" y2="9"/>
<line opacity="0.1" stroke="#000000" stroke-width="1" x1="726" y1="579" x2="726" y2="9"/>
<line opacity="0.1" stroke="#000000" stroke-width="1" x1="738" y1="579" x2="738" y2="9"/>
<line opacity="0.1" stroke="#000000" stroke-width="1" x1="750" y1="579" x2="750" y2="9"/>
<line opacity="0.1" stroke="#000000" stroke-width="1" x1="761" y1="579" x2="761" y2="9"/>
<line opacity="0.1" stroke="#000000" stroke-width="1" x1="773" y1="579" x2="773" y2="9"/>
<line opacity="0.1" stroke="#000000" stroke-width="1" x1="785" y1="579" x2="785" y2="9"/>
<line opacity="0.1" stroke="#000000" stroke-width="1" x1="796" y1="579" x2="796" y2="9"/>
<line opacity="0.1" stroke="#000000" stroke-width="1" x1="808" y1="579" x2="808" y2="9"/>
<line opacity="0.1" stroke="#000000" stroke-width="1" x1="820" y1="579" x2="820" y2="9"/>
<line opacity="0.1" stroke="#000000" stroke-width="1" x1="831" y1="579" x2="831" y2="9"/>
<line opacity="0.1" stroke="#000000" stroke-width="1" x1="843" y1="579" x2="843" y2="9"/>
<line opacity="0.1" stroke="#000000" stroke-width="1" x1="855" y1="579" x2="855" y2="9"/>
<line opacity="0.1" stroke="#000000" stroke-width="1" x1="866" y1="579" x2="866" y2="9"/>
<line opacity="0.1" stroke="#000000" stroke-width="1" x1="878" y1="579" x2="878" y2="9"/>
<line opacity="0.1" stroke="#000000" stroke-width="1" x1="889" y1="579" x2="889" y2="9"/>
<line opacity="0.1" stroke="#000000" stroke-width="1" x1="901" y1="579" x2="901" y2="9"/>
<line opacity="0.1" stroke="#000000" stroke-width="1" x1="913" y1="579" x2="913" y2="9"/>
<line opacity="0.1" stroke="#000000" stroke-width="1" x1="924" y1="579" x2="924" y2="9"/>
<line opacity="0.1" stroke="#000000" stroke-width="1" x1="936" y1="579" x2="936" y2="9"/>
<line opacity="0.1" stroke="#000000" stroke-width="1" x1="40" y1="567" x2="947" y2="567"/>
<line opacity="0.1" stroke="#000000" stroke-width="1" x1="40" y1="556" x2="947" y2="556"/>
<line opacity="0.1" stroke="#000000" stroke-width="1" x1="40" y1="545" x2="947" y2="545"/>
<line opacity="0.1" stroke="#000000" stroke-width="1" x1="40" y1="533" x2="947" y2="533"/>
<line opacity="0.1" stroke="#000000" stroke-width="1" x1="40" y1="522" x2="947" y2="522"/>
<line opacity="0.1" stroke="#000000" stroke-width="1" x1="40" y1="511" x2="947" y2="511"/>
<line opacity="0.1" stroke="#000000" stroke-width="1" x1="40" y1="499" x2="947" y2="499"/>
<line opacity="0.1" stroke="#000000" stroke-width="1" x1="40" y1="488" x2="947" y2="488"/>
<line opacity="0.1" stroke="#000000" stroke-width="1" x1="40" y1="477" x2="947" y2="477"/>
<line opacity="0.1" stroke="#000000" stroke-width="1" x1="40" y1="466" x2="947" y2="466"/>
<line opacity="0.1" stroke="#000000" stroke-width="1" x1="40" y1="454" x2="947" y2="454"/>
<line opacity="0.1" stroke="#000000" stroke-width="1" x1="40" y1="443" x2="947" y2="443"/>
<line opacity="0.1" stroke="#000000" stroke-width="1" x1="40" y1="432" x2="947" y2="432"/>
<line opacity="0.1" stroke="#000000" stroke-width="1" x1="40" y1="420" x2="947" y2="420"/>
<line opacity="0.1" stroke="#000000" stroke-width="1" x1="40" y1="409" x2="947" y2="409"/>
<line opacity="0.1" stroke="#000000" stroke-width="1" x1="40" y1="398" x2="947" y2="398"/>
<line opacity="0.1" stroke="#000000" stroke-width="1" x1="40" y1="387" x2="947" y2="387"/>
<line opacity="0.1" stroke="#000000" stroke-width="1" x1="40" y1="375" x2="947" y2="375"/>
<line opacity="0.1" stroke="#000000" stroke-width="1" x1="40" y1="364" x2="947" y2="364"/>
<line opacity="0.1" stroke="#000000" stroke-width="1" x1="40" y1="353" x2="947" y2="353"/>
<line opacity="0.1" stroke="#000000" stroke-width="1" x1="40" y1="341" x2="947" y2="341"/>
<line opacity="0.1" stroke="#000000" stroke-width="1" x1="40" y1="330" x2="947" y2="330"/>
<line opacity="0.1" stroke="#000000" stroke-width="1" x1="40" y1="319" x2="947" y2="319"/>
<line opacity="0.1" stroke="#000000" stroke-width="1" x1="40" y1="308" x2="947" y2="308"/>
<line opacity="0.1" stroke="#000000" stroke-width="1" x1="40" y1="296" x2="947" y2="296"/>
<line opacity="0.1" stroke="#000000" stroke-width="1" x1="40" y1="285" x2="947" y2="285"/>
<line opacity="0.1" stroke="#000000" stroke-width="1" x1="40" y1="274" x2="947" y2="274"/>
<line opacity="0.1" stroke="#000000" stroke-width="1" x1="40" y1="262" x2="947" y2="262"/>
<line opacity="0.1" stroke="#000000" stroke-width="1" x1="40" y1="251" x2="947" y2="251"/>
<line opacity="0.1" stroke="#000000" stroke-width="1" x1="40" y1="240" x2="947" y2="240"/>
<line opacity="0.1" stroke="#000000" stroke-width="1" x1="40" y1="229" x2="947" y2="229"/>
<line opacity="0.1" stroke="#000000" stroke-width="1" x1="40" y1="217" x2="947" y2="217"/>
<line opacity="0.1" stroke="#000000" stroke-width="1" x1="40" y1="206" x2="947" y2="206"/>
<line opacity="0.1" stroke="#000000" stroke-width="1" x1="40" y1="195" x2="947" y2="195"/>
<line opacity="0.1" stroke="#000000" stroke-width="1" x1="40" y1="183" x2="947" y2="183"/>
<line opacity="0.1" stroke="#000000" stroke-width="1" x1="40" y1="172" x2="947" y2="172"/>
<line opacity="0.1" stroke="#000000" stroke-width="1" x1="40" y1="161" x2="947" y2="161"/>
<line opacity="0.1" stroke="#000000" stroke-width="1" x1="40" y1="150" x2="947" y2="150"/>
<line opacity="0.1" stroke="#000000" stroke-width="1" x1="40" y1="138" x2="947" y2="138"/>
<line opacity="0.1" stroke="#000000" stroke-width="1" x1="40" y1="127" x2="947" y2="127"/>
<line opacity="0.1" stroke="#000000" stroke-width="1" x1="40" y1="116" x2="947" y2="116"/>
<line opacity="0.1" stroke="#000000" stroke-width="1" x1="40" y1="104" x2="947" y2="104"/>
<line opacity="0.1" stroke="#000000" stroke-width="1" x1="40" y1="93" x2="947" y2="93"/>
<line opacity="0.1" stroke="#000000" stroke-width="1" x1="40" y1="82" x2="947" y2="82"/>
<line opacity="0.1" stroke="#000000" stroke-width="1" x1="40" y1="71" x2="947" y2="71"/>
<line opacity="0.1" stroke="#000000" stroke-width="1" x1="40" y1="59" x2="947" y2="59"/>
<line opacity="0.1" stroke="#000000" stroke-width="1" x1="40" y1="48" x2="947" y2="48"/>
<line opacity="0.1" stroke="#000000" stroke-width="1" x1="40" y1="37" x2="947" y2="37"/>
<line opacity="0.1" stroke="#000000" stroke-width="1" x1="40" y1="25" x2="947" y2="25"/>
<line opacity="0.1" stroke="#000000" stroke-width="1" x1="40" y1="14" x2="947" y2="14"/>
<line opacity="0.2" stroke="#000000" stroke-width="1" x1="40" y1="579" x2="40" y2="9"/>
<line opacity="0.2" stroke="#000000" stroke-width="1" x1="133" y1="579" x2="133" y2="9"/>
<line opacity="0.2" stroke="#000000" stroke-width="1" x1="226" y1="579" x2="226" y2="9"/>
<line opacity="0.2" stroke="#000000" stroke-width="1" x1="319" y1="579" x2="319" y2="9"/>
<line opacity="0.2" stroke="#000000" stroke-width="1" x1="412" y1="579" x2="412" y2="9"/>
<line opacity="0.2" stroke="#000000" stroke-width="1" x1="505" y1="579" x2="505" y2="9"/>
<line opacity="0.2" stroke="#000000" stroke-width="1" x1="598" y1="579" x2="598" y2="9"/>
<line opacity="0.2" stroke="#000000" stroke-width="1" x1="692" y1="579" x2="692" y2="9"/>
<line opacity="0.2" stroke="#000000" stroke-width="1" x1="785" y1="579" x2="785" y2="9"/>
<line opacity="0.2" stroke="#000000" stroke-width="1" x1="878" y1="579" x2="878" y2="9"/>
<line opacity="0.2" stroke="#000000" stroke-width="1" x1="40" y1="522" x2="947" y2="522"/>
<line opacity="0.2" stroke="#000000" stroke-width="1" x1="40" y1="466" x2="947" y2="466"/>
<line opacity="0.2" stroke="#000000" stroke-width="1" x1="40" y1="409" x2="947" y2="409"/>
<line opacity="0.2" stroke="#000000" stroke-width="1" x1="40" y1="353" x2="947" y2="353"/>
<line opacity="0.2" stroke="#000000" stroke-width="1" x1="40" y1="296" x2="947" y2="296"/>
<line opacity="0.2" stroke="#000000" stroke-width="1" x1="40" y1="240" x2="947" y2="240"/>
<line opacity="0.2" stroke="#000000" stroke-width="1" x1="40" y1="183" x2="947" y2="183"/>
<line opacity="0.2" stroke="#000000" stroke-width="1" x1="40" y1="127" x2="947" y2="127"/>
<line opacity="0.2" stroke="#000000" stroke-width="1" x1="40" y1="71" x2="947" y2="71"/>
<line opacity="0.2" stroke="#000000" stroke-width="1" x1="40" y1="14" x2="947" y2="14"/>
<polyline fill="none" opacity="1" stroke="#000000" stroke-width="1" points="39,10 39,580 "/>
<text x="30" y="522" dy="0.5ex" text-anchor="end" font-family="sans-serif" font-size="9.67741935483871" opacity="1" fill="#000000">
10%
</text>
<polyline fill="none" opacity="1" stroke="#000000" stroke-width="1" points="34,522 39,522 "/>
<text x="30" y="466" dy="0.5ex" text-anchor="end" font-family="sans-serif" font-size="9.67741935483871" opacity="1" fill="#000000">
20%
</text>
<polyline fill="none" opacity="1" stroke="#000000" stroke-width="1" points="34,466 39,466 "/>
<text x="30" y="409" dy="0.5ex" text-anchor="end" font-family="sans-serif" font-size="9.67741935483871" opacity="1" fill="#000000">
30%
</text>
<polyline fill="none" opacity="1" stroke="#000000" stroke-width="1" points="34,409 39,409 "/>
<text x="30" y="353" dy="0.5ex" text-anchor="end" font-family="sans-serif" font-size="9.67741935483871" opacity="1" fill="#000000">
40%
</text>
<polyline fill="none" opacity="1" stroke="#000000" stroke-width="1" points="34,353 39,353 "/>
<text x="30" y="296" dy="0.5ex" text-anchor="end" font-family="sans-serif" font-size="9.67741935483871" opacity="1" fill="#000000">
50%
</text>
<polyline fill="none" opacity="1" stroke="#000000" stroke-width="1" points="34,296 39,296 "/>
<text x="30" y="240" dy="0.5ex" text-anchor="end" font-family="sans-serif" font-size="9.67741935483871" opacity="1" fill="#000000">
60%
</text>
<polyline fill="none" opacity="1" stroke="#000000" stroke-width="1" points="34,240 39,240 "/>
<text x="30" y="183" dy="0.5ex" text-anchor="end" font-family="sans-serif" font-size="9.67741935483871" opacity="1" fill="#000000">
70%
</text>
<polyline fill="none" opacity="1" stroke="#000000" stroke-width="1" points="34,183 39,183 "/>
<text x="30" y="127" dy="0.5ex" text-anchor="end" font-family="sans-serif" font-size="9.67741935483871" opacity="1" fill="#000000">
80%
</text>
<polyline fill="none" opacity="1" stroke="#000000" stroke-width="1" points="34,127 39,127 "/>
<text x="30" y="71" dy="0.5ex" text-anchor="end" font-family="sans-serif" font-size="9.67741935483871" opacity="1" fill="#000000">
90%
</text>
<polyline fill="none" opacity="1" stroke="#000000" stroke-width="1" points="34,71 39,71 "/>
<text x="30" y="14" dy="0.5ex" text-anchor="end" font-family="sans-serif" font-size="9.67741935483871" opacity="1" fill="#000000">
100%
</text>
<polyline fill="none" opacity="1" stroke="#000000" stroke-width="1" points="34,14 39,14 "/>
<polyline fill="none" opacity="1" stroke="#000000" stroke-width="1" points="40,580 947,580 "/>
<text x="40" y="590" dy="0.76em" text-anchor="middle" font-family="sans-serif" font-size="9.67741935483871" opacity="1" fill="#000000">
2019-03-16
</text>
<polyline fill="none" opacity="1" stroke="#000000" stroke-width="1" points="40,580 40,585 "/>
<text x="133" y="590" dy="0.76em" text-anchor="middle" font-family="sans-serif" font-size="9.67741935483871" opacity="1" fill="#000000">
2019-05-11
</text>
<polyline fill="none" opacity="1" stroke="#000000" stroke-width="1" points="133,580 133,585 "/>
<text x="226" y="590" dy="0.76em" text-anchor="middle" font-family="sans-serif" font-size="9.67741935483871" opacity="1" fill="#000000">
2019-07-06
</text>
<polyline fill="none" opacity="1" stroke="#000000" stroke-width="1" points="226,580 226,585 "/>
<text x="319" y="590" dy="0.76em" text-anchor="middle" font-family="sans-serif" font-size="9.67741935483871" opacity="1" fill="#000000">
2019-08-31
</text>
<polyline fill="none" opacity="1" stroke="#000000" stroke-width="1" points="319,580 319,585 "/>
<text x="412" y="590" dy="0.76em" text-anchor="middle" font-family="sans-serif" font-size="9.67741935483871" opacity="1" fill="#000000">
2019-10-26
</text>
<polyline fill="none" opacity="1" stroke="#000000" stroke-width="1" points="412,580 412,585 "/>
<text x="505" y="590" dy="0.76em" text-anchor="middle" font-family="sans-serif" font-size="9.67741935483871" opacity="1" fill="#000000">
2019-12-21
</text>
<polyline fill="none" opacity="1" stroke="#000000" stroke-width="1" points="505,580 505,585 "/>
<text x="598" y="590" dy="0.76em" text-anchor="middle" font-family="sans-serif" font-size="9.67741935483871" opacity="1" fill="#000000">
2020-02-15
</text>
<polyline fill="none" opacity="1" stroke="#000000" stroke-width="1" points="598,580 598,585 "/>
<text x="692" y="590" dy="0.76em" text-anchor="middle" font-family="sans-serif" font-size="9.67741935483871" opacity="1" fill="#000000">
2020-04-11
</text>
<polyline fill="none" opacity="1" stroke="#000000" stroke-width="1" points="692,580 692,585 "/>
<text x="785" y="590" dy="0.76em" text-anchor="middle" font-family="sans-serif" font-size="9.67741935483871" opacity="1" fill="#000000">
2020-06-06
</text>
<polyline fill="none" opacity="1" stroke="#000000" stroke-width="1" points="785,580 785,585 "/>
<text x="878" y="590" dy="0.76em" text-anchor="middle" font-family="sans-serif" font-size="9.67741935483871" opacity="1" fill="#000000">
2020-08-01
</text>
<polyline fill="none" opacity="1" stroke="#000000" stroke-width="1" points="878,580 878,585 "/>
<polyline fill="none" opacity="1" stroke="#FF0000" stroke-width="1" points="40,578 40,578 47,576 48,575 171,575 175,575 177,575 181,575 185,575 193,573 251,572 251,572 460,571 472,571 502,570 517,570 530,569 530,569 552,568 568,568 576,567 650,567 652,567 654,567 661,566 663,566 664,565 665,565 667,564 669,563 672,563 674,562 675,562 677,561 680,560 681,560 684,559 685,559 688,558 689,558 691,557 693,557 694,557 695,556 697,556 699,555 700,555 702,554 704,553 707,553 709,552 710,552 712,552 715,551 715,551 718,550 719,550 720,549 722,549 725,548 725,548 728,547 729,546 731,546 733,545 735,545 737,545 740,544 742,543 743,543 745,542 747,542 749,541 751,540 752,540 754,539 756,539 758,538 759,538 762,537 764,537 766,536 767,536 769,535 771,535 772,534 774,534 776,533 777,533 779,532 781,532 782,532 784,531 786,531 789,530 791,529 792,529 794,528 796,528 797,527 799,527 801,526 802,526 804,525 806,525 808,525 809,524 811,524 812,523 814,523 816,522 817,522 819,521 821,521 822,520 824,520 826,519 827,519 829,518 831,518 833,518 834,517 836,517 837,516 839,516 841,515 842,515 844,514 846,514 847,513 849,513 851,512 852,512 854,512 856,511 857,511 859,510 861,510 862,509 864,509 866,508 868,508 869,507 871,507 872,506 874,506 876,505 877,505 879,505 881,504 882,504 884,503 886,503 887,502 889,502 890,501 892,501 894,500 896,500 897,499 899,499 901,498 902,498 904,498 906,497 909,496 911,496 912,495 916,494 917,494 919,493 920,493 922,492 924,492 927,491 929,491 930,490 932,490 934,489 935,489 939,488 940,487 942,487 944,486 945,486 947,486 "/>
</svg>
