<svg width="987" height="610" viewBox="0 0 987 610" xmlns="http://www.w3.org/2000/svg">
<line opacity="0.1" stroke="#000000" stroke-width="1" x1="40" y1="579" x2="40" y2="9"/>
<line opacity="0.1" stroke="#000000" stroke-width="1" x1="52" y1="579" x2="52" y2="9"/>
<line opacity="0.1" stroke="#000000" stroke-width="1" x1="63" y1="579" x2="63" y2="9"/>
<line opacity="0.1" stroke="#000000" stroke-width="1" x1="75" y1="579" x2="75" y2="9"/>
<line opacity="0.1" stroke="#000000" stroke-width="1" x1="87" y1="579" x2="87" y2="9"/>
<line opacity="0.1" stroke="#000000" stroke-width="1" x1="99" y1="579" x2="99" y2="9"/>
<line opacity="0.1" stroke="#000000" stroke-width="1" x1="111" y1="579" x2="111" y2="9"/>
<line opacity="0.1" stroke="#000000" stroke-width="1" x1="123" y1="579" x2="123" y2="9"/>
<line opacity="0.1" stroke="#000000" stroke-width="1" x1="135" y1="579" x2="135" y2="9"/>
<line opacity="0.1" stroke="#000000" stroke-width="1" x1="147" y1="579" x2="147" y2="9"/>
<line opacity="0.1" stroke="#000000" stroke-width="1" x1="159" y1="579" x2="159" y2="9"/>
<line opacity="0.1" stroke="#000000" stroke-width="1" x1="171" y1="579" x2="171" y2="9"/>
<line opacity="0.1" stroke="#000000" stroke-width="1" x1="183" y1="579" x2="183" y2="9"/>
<line opacity="0.1" stroke="#000000" stroke-width="1" x1="195" y1="579" x2="195" y2="9"/>
<line opacity="0.1" stroke="#000000" stroke-width="1" x1="207" y1="579" x2="207" y2="9"/>
<line opacity="0.1" stroke="#000000" stroke-width="1" x1="219" y1="579" x2="219" y2="9"/>
<line opacity="0.1" stroke="#000000" stroke-width="1" x1="231" y1="579" x2="231" y2="9"/>
<line opacity="0.1" stroke="#000000" stroke-width="1" x1="243" y1="579" x2="243" y2="9"/>
<line opacity="0.1" stroke="#000000" stroke-width="1" x1="255" y1="579" x2="255" y2="9"/>
<line opacity="0.1" stroke="#000000" stroke-width="1" x1="267" y1="579" x2="267" y2="9"/>
<line opacity="0.1" stroke="#000000" stroke-width="1" x1="279" y1="579" x2="279" y2="9"/>
<line opacity="0.1" stroke="#000000" stroke-width="1" x1="291" y1="579" x2="291" y2="9"/>
<line opacity="0.1" stroke="#000000" stroke-width="1" x1="303" y1="579" x2="303" y2="9"/>
<line opacity="0.1" stroke="#000000" stroke-width="1" x1="315" y1="579" x2="315" y2="9"/>
<line opacity="0.1" stroke="#000000" stroke-width="1" x1="327" y1="579" x2="327" y2="9"/>
<line opacity="0.1" stroke="#000000" stroke-width="1" x1="339" y1="579" x2="339" y2="9"/>
<line opacity="0.1" stroke="#000000" stroke-width="1" x1="351" y1="579" x2="351" y2="9"/>
<line opacity="0.1" stroke="#000000" stroke-width="1" x1="363" y1="579" x2="363" y2="9"/>
<line opacity="0.1" stroke="#000000" stroke-width="1" x1="375" y1="579" x2="375" y2="9"/>
<line opacity="0.1" stroke="#000000" stroke-width="1" x1="387" y1="579" x2="387" y2="9"/>
<line opacity="0.1" stroke="#000000" stroke-width="1" x1="399" y1="579" x2="399" y2="9"/>
<line opacity="0.1" stroke="#000000" stroke-width="1" x1="411" y1="579" x2="411" y2="9"/>
<line opacity="0.1" stroke="#000000" stroke-width="1" x1="423" y1="579" x2="423" y2="9"/>
<line opacity="0.1" stroke="#000000" stroke-width="1" x1="435" y1="579" x2="435" y2="9"/>
<line opacity="0.1" stroke="#000000" stroke-width="1" x1="447" y1="579" x2="447" y2="9"/>
<line opacity="0.1" stroke="#000000" stroke-width="1" x1="459" y1="579" x2="459" y2="9"/>
<line opacity="0.1" stroke="#000000" stroke-width="1" x1="471" y1="579" x2="471" y2="9"/>
<line opacity="0.1" stroke="#000000" stroke-width="1" x1="483" y1="579" x2="483" y2="9"/>
<line opacity="0.1" stroke="#000000" stroke-width="1" x1="495" y1="579" x2="495" y2="9"/>
<line opacity="0.1" stroke="#000000" stroke-width="1" x1="507" y1="579" x2="507" y2="9"/>
<line opacity="0.1" stroke="#000000" stroke-width="1" x1="519" y1="579" x2="519" y2="9"/>
<line opacity="0.1" stroke="#000000" stroke-width="1" x1="531" y1="579" x2="531" y2="9"/>
<line opacity="0.1" stroke="#000000" stroke-width="1" x1="543" y1="579" x2="543" y2="9"/>
<line opacity="0.1" stroke="#000000" stroke-width="1" x1="555" y1="579" x2="555" y2="9"/>
<line opacity="0.1" stroke="#000000" stroke-width="1" x1="567" y1="579" x2="567" y2="9"/>
<line opacity="0.1" stroke="#000000" stroke-width="1" x1="579" y1="579" x2="579" y2="9"/>
<line opacity="0.1" stroke="#000000" stroke-width="1" x1="591" y1="579" x2="591" y2="9"/>
<line opacity="0.1" stroke="#000000" stroke-width="1" x1="603" y1="579" x2="603" y2="9"/>
<line opacity="0.1" stroke="#000000" stroke-width="1" x1="615" y1="579" x2="615" y2="9"/>
<line opacity="0.1" stroke="#000000" stroke-width="1" x1="627" y1="579" x2="627" y2="9"/>
<line opacity="0.1" stroke="#000000" stroke-width="1" x1="639" y1="579" x2="639" y2="9"/>
<line opacity="0.1" stroke="#000000" stroke-width="1" x1="651" y1="579" x2="651" y2="9"/>
<line opacity="0.1" stroke="#000000" stroke-width="1" x1="663" y1="579" x2="663" y2="9"/>
<line opacity="0.1" stroke="#000000" stroke-width="1" x1="675" y1="579" x2="675" y2="9"/>
<line opacity="0.1" stroke="#000000" stroke-width="1" x1="687" y1="579" x2="687" y2="9"/>
<line opacity="0.1" stroke="#000000" stroke-width="1" x1="699" y1="579" x2="699" y2="9"/>
<line opacity="0.1" stroke="#000000" stroke-width="1" x1="711" y1="579" x2="711" y2="9"/>
<line opacity="0.1" stroke="#000000" stroke-width="1" x1="723" y1="579" x2="723" y2="9"/>
<line opacity="0.1" stroke="#000000" stroke-width="1" x1="735" y1="579" x2="735" y2="9"/>
<line opacity="0.1" stroke="#000000" stroke-width="1" x1="747" y1="579" x2="747" y2="9"/>
<line opacity="0.1" stroke="#000000" stroke-width="1" x1="759" y1="579" x2="759" y2="9"/>
<line opacity="0.1" stroke="#000000" stroke-width="1" x1="771" y1="579" x2="771" y2="9"/>
<line opacity="0.1" stroke="#000000" stroke-width="1" x1="783" y1="579" x2="783" y2="9"/>
<line opacity="0.1" stroke="#000000" stroke-width="1" x1="795" y1="579" x2="795" y2="9"/>
<line opacity="0.1" stroke="#000000" stroke-width="1" x1="807" y1="579" x2="807" y2="9"/>
<line opacity="0.1" stroke="#000000" stroke-width="1" x1="819" y1="579" x2="819" y2="9"/>
<line opacity="0.1" stroke="#000000" stroke-width="1" x1="831" y1="579" x2="831" y2="9"/>
<line opacity="0.1" stroke="#000000" stroke-width="1" x1="843" y1="579" x2="843" y2="9"/>
<line opacity="0.1" stroke="#000000" stroke-width="1" x1="855" y1="579" x2="855" y2="9"/>
<line opacity="0.1" stroke="#000000" stroke-width="1" x1="867" y1="579" x2="867" y2="9"/>
<line opacity="0.1" stroke="#000000" stroke-width="1" x1="879" y1="579" x2="879" y2="9"/>
<line opacity="0.1" stroke="#000000" stroke-width="1" x1="891" y1="579" x2="891" y2="9"/>
<line opacity="0.1" stroke="#000000" stroke-width="1" x1="903" y1="579" x2="903" y2="9"/>
<line opacity="0.1" stroke="#000000" stroke-width="1" x1="915" y1="579" x2="915" y2="9"/>
<line opacity="0.1" stroke="#000000" stroke-width="1" x1="927" y1="579" x2="927" y2="9"/>
<line opacity="0.1" stroke="#000000" stroke-width="1" x1="939" y1="579" x2="939" y2="9"/>
<line opacity="0.1" stroke="#000000" stroke-width="1" x1="40" y1="567" x2="947" y2="567"/>
<line opacity="0.1" stroke="#000000" stroke-width="1" x1="40" y1="556" x2="947" y2="556"/>
<line opacity="0.1" stroke="#000000" stroke-width="1" x1="40" y1="545" x2="947" y2="545"/>
<line opacity="0.1" stroke="#000000" stroke-width="1" x1="40" y1="533" x2="947" y2="533"/>
<line opacity="0.1" stroke="#000000" stroke-width="1" x1="40" y1="522" x2="947" y2="522"/>
<line opacity="0.1" stroke="#000000" stroke-width="1" x1="40" y1="511" x2="947" y2="511"/>
<line opacity="0.1" stroke="#000000" stroke-width="1" x1="40" y1="499" x2="947" y2="499"/>
<line opacity="0.1" stroke="#000000" stroke-width="1" x1="40" y1="488" x2="947" y2="488"/>
<line opacity="0.1" stroke="#000000" stroke-width="1" x1="40" y1="477" x2="947" y2="477"/>
<line opacity="0.1" stroke="#000000" stroke-width="1" x1="40" y1="466" x2="947" y2="466"/>
<line opacity="0.1" stroke="#000000" stroke-width="1" x1="40" y1="454" x2="947" y2="454"/>
<line opacity="0.1" stroke="#000000" stroke-width="1" x1="40" y1="443" x2="947" y2="443"/>
<line opacity="0.1" stroke="#000000" stroke-width="1" x1="40" y1="432" x2="947" y2="432"/>
<line opacity="0.1" stroke="#000000" stroke-width="1" x1="40" y1="420" x2="947" y2="420"/>
<line opacity="0.1" stroke="#000000" stroke-width="1" x1="40" y1="409" x2="947" y2="409"/>
<line opacity="0.1" stroke="#000000" stroke-width="1" x1="40" y1="398" x2="947" y2="398"/>
<line opacity="0.1" stroke="#000000" stroke-width="1" x1="40" y1="387" x2="947" y2="387"/>
<line opacity="0.1" stroke="#000000" stroke-width="1" x1="40" y1="375" x2="947" y2="375"/>
<line opacity="0.1" stroke="#000000" stroke-width="1" x1="40" y1="364" x2="947" y2="364"/>
<line opacity="0.1" stroke="#000000" stroke-width="1" x1="40" y1="353" x2="947" y2="353"/>
<line opacity="0.1" stroke="#000000" stroke-width="1" x1="40" y1="341" x2="947" y2="341"/>
<line opacity="0.1" stroke="#000000" stroke-width="1" x1="40" y1="330" x2="947" y2="330"/>
<line opacity="0.1" stroke="#000000" stroke-width="1" x1="40" y1="319" x2="947" y2="319"/>
<line opacity="0.1" stroke="#000000" stroke-width="1" x1="40" y1="308" x2="947" y2="308"/>
<line opacity="0.1" stroke="#000000" stroke-width="1" x1="40" y1="296" x2="947" y2="296"/>
<line opacity="0.1" stroke="#000000" stroke-width="1" x1="40" y1="285" x2="947" y2="285"/>
<line opacity="0.1" stroke="#000000" stroke-width="1" x1="40" y1="274" x2="947" y2="274"/>
<line opacity="0.1" stroke="#000000" stroke-width="1" x1="40" y1="262" x2="947" y2="262"/>
<line opacity="0.1" stroke="#000000" stroke-width="1" x1="40" y1="251" x2="947" y2="251"/>
<line opacity="0.1" stroke="#000000" stroke-width="1" x1="40" y1="240" x2="947" y2="240"/>
<line opacity="0.1" stroke="#000000" stroke-width="1" x1="40" y1="229" x2="947" y2="229"/>
<line opacity="0.1" stroke="#000000" stroke-width="1" x1="40" y1="217" x2="947" y2="217"/>
<line opacity="0.1" stroke="#000000" stroke-width="1" x1="40" y1="206" x2="947" y2="206"/>
<line opacity="0.1" stroke="#000000" stroke-width="1" x1="40" y1="195" x2="947" y2="195"/>
<line opacity="0.1" stroke="#000000" stroke-width="1" x1="40" y1="183" x2="947" y2="183"/>
<line opacity="0.1" stroke="#000000" stroke-width="1" x1="40" y1="172" x2="947" y2="172"/>
<line opacity="0.1" stroke="#000000" stroke-width="1" x1="40" y1="161" x2="947" y2="161"/>
<line opacity="0.1" stroke="#000000" stroke-width="1" x1="40" y1="150" x2="947" y2="150"/>
<line opacity="0.1" stroke="#000000" stroke-width="1" x1="40" y1="138" x2="947" y2="138"/>
<line opacity="0.1" stroke="#000000" stroke-width="1" x1="40" y1="127" x2="947" y2="127"/>
<line opacity="0.1" stroke="#000000" stroke-width="1" x1="40" y1="116" x2="947" y2="116"/>
<line opacity="0.1" stroke="#000000" stroke-width="1" x1="40" y1="104" x2="947" y2="104"/>
<line opacity="0.1" stroke="#000000" stroke-width="1" x1="40" y1="93" x2="947" y2="93"/>
<line opacity="0.1" stroke="#000000" stroke-width="1" x1="40" y1="82" x2="947" y2="82"/>
<line opacity="0.1" stroke="#000000" stroke-width="1" x1="40" y1="71" x2="947" y2="71"/>
<line opacity="0.1" stroke="#000000" stroke-width="1" x1="40" y1="59" x2="947" y2="59"/>
<line opacity="0.1" stroke="#000000" stroke-width="1" x1="40" y1="48" x2="947" y2="48"/>
<line opacity="0.1" stroke="#000000" stroke-width="1" x1="40" y1="37" x2="947" y2="37"/>
<line opacity="0.1" stroke="#000000" stroke-width="1" x1="40" y1="25" x2="947" y2="25"/>
<line opacity="0.1" stroke="#000000" stroke-width="1" x1="40" y1="14" x2="947" y2="14"/>
<line opacity="0.2" stroke="#000000" stroke-width="1" x1="40" y1="579" x2="40" y2="9"/>
<line opacity="0.2" stroke="#000000" stroke-width="1" x1="135" y1="579" x2="135" y2="9"/>
<line opacity="0.2" stroke="#000000" stroke-width="1" x1="231" y1="579" x2="231" y2="9"/>
<line opacity="0.2" stroke="#000000" stroke-width="1" x1="327" y1="579" x2="327" y2="9"/>
<line opacity="0.2" stroke="#000000" stroke-width="1" x1="423" y1="579" x2="423" y2="9"/>
<line opacity="0.2" stroke="#000000" stroke-width="1" x1="519" y1="579" x2="519" y2="9"/>
<line opacity="0.2" stroke="#000000" stroke-width="1" x1="615" y1="579" x2="615" y2="9"/>
<line opacity="0.2" stroke="#000000" stroke-width="1" x1="711" y1="579" x2="711" y2="9"/>
<line opacity="0.2" stroke="#000000" stroke-width="1" x1="807" y1="579" x2="807" y2="9"/>
<line opacity="0.2" stroke="#000000" stroke-width="1" x1="903" y1="579" x2="903" y2="9"/>
<line opacity="0.2" stroke="#000000" stroke-width="1" x1="40" y1="522" x2="947" y2="522"/>
<line opacity="0.2" stroke="#000000" stroke-width="1" x1="40" y1="466" x2="947" y2="466"/>
<line opacity="0.2" stroke="#000000" stroke-width="1" x1="40" y1="409" x2="947" y2="409"/>
<line opacity="0.2" stroke="#000000" stroke-width="1" x1="40" y1="353" x2="947" y2="353"/>
<line opacity="0.2" stroke="#000000" stroke-width="1" x1="40" y1="296" x2="947" y2="296"/>
<line opacity="0.2" stroke="#000000" stroke-width="1" x1="40" y1="240" x2="947" y2="240"/>
<line opacity="0.2" stroke="#000000" stroke-width="1" x1="40" y1="183" x2="947" y2="183"/>
<line opacity="0.2" stroke="#000000" stroke-width="1" x1="40" y1="127" x2="947" y2="127"/>
<line opacity="0.2" stroke="#000000" stroke-width="1" x1="40" y1="71" x2="947" y2="71"/>
<line opacity="0.2" stroke="#000000" stroke-width="1" x1="40" y1="14" x2="947" y2="14"/>
<polyline fill="none" opacity="1" stroke="#000000" stroke-width="1" points="39,10 39,580 "/>
<text x="30" y="522" dy="0.5ex" text-anchor="end" font-family="sans-serif" font-size="9.67741935483871" opacity="1" fill="#000000">
10%
</text>
<polyline fill="none" opacity="1" stroke="#000000" stroke-width="1" points="34,522 39,522 "/>
<text x="30" y="466" dy="0.5ex" text-anchor="end" font-family="sans-serif" font-size="9.67741935483871" opacity="1" fill="#000000">
20%
</text>
<polyline fill="none" opacity="1" stroke="#000000" stroke-width="1" points="34,466 39,466 "/>
<text x="30" y="409" dy="0.5ex" text-anchor="end" font-family="sans-serif" font-size="9.67741935483871" opacity="1" fill="#000000">
30%
</text>
<polyline fill="none" opacity="1" stroke="#000000" stroke-width="1" points="34,409 39,409 "/>
<text x="30" y="353" dy="0.5ex" text-anchor="end" font-family="sans-serif" font-size="9.67741935483871" opacity="1" fill="#000000">
40%
</text>
<polyline fill="none" opacity="1" stroke="#000000" stroke-width="1" points="34,353 39,353 "/>
<text x="30" y="296" dy="0.5ex" text-anchor="end" font-family="sans-serif" font-size="9.67741935483871" opacity="1" fill="#000000">
50%
</text>
<polyline fill="none" opacity="1" stroke="#000000" stroke-width="1" points="34,296 39,296 "/>
<text x="30" y="240" dy="0.5ex" text-anchor="end" font-family="sans-serif" font-size="9.67741935483871" opacity="1" fill="#000000">
60%
</text>
<polyline fill="none" opacity="1" stroke="#000000" stroke-width="1" points="34,240 39,240 "/>
<text x="30" y="183" dy="0.5ex" text-anchor="end" font-family="sans-serif" font-size="9.67741935483871" opacity="1" fill="#000000">
70%
</text>
<polyline fill="none" opacity="1" stroke="#000000" stroke-width="1" points="34,183 39,183 "/>
<text x="30" y="127" dy="0.5ex" text-anchor="end" font-family="sans-serif" font-size="9.67741935483871" opacity="1" fill="#000000">
80%
</text>
<polyline fill="none" opacity="1" stroke="#000000" stroke-width="1" points="34,127 39,127 "/>
<text x="30" y="71" dy="0.5ex" text-anchor="end" font-family="sans-serif" font-size="9.67741935483871" opacity="1" fill="#000000">
90%
</text>
<polyline fill="none" opacity="1" stroke="#000000" stroke-width="1" points="34,71 39,71 "/>
<text x="30" y="14" dy="0.5ex" text-anchor="end" font-family="sans-serif" font-size="9.67741935483871" opacity="1" fill="#000000">
100%
</text>
<polyline fill="none" opacity="1" stroke="#000000" stroke-width="1" points="34,14 39,14 "/>
<polyline fill="none" opacity="1" stroke="#000000" stroke-width="1" points="40,580 947,580 "/>
<text x="40" y="590" dy="0.76em" text-anchor="middle" font-family="sans-serif" font-size="9.67741935483871" opacity="1" fill="#000000">
2019-03-16
</text>
<polyline fill="none" opacity="1" stroke="#000000" stroke-width="1" points="40,580 40,585 "/>
<text x="135" y="590" dy="0.76em" text-anchor="middle" font-family="sans-serif" font-size="9.67741935483871" opacity="1" fill="#000000">
2019-05-11
</text>
<polyline fill="none" opacity="1" stroke="#000000" stroke-width="1" points="135,580 135,585 "/>
<text x="231" y="590" dy="0.76em" text-anchor="middle" font-family="sans-serif" font-size="9.67741935483871" opacity="1" fill="#000000">
2019-07-06
</text>
<polyline fill="none" opacity="1" stroke="#000000" stroke-width="1" points="231,580 231,585 "/>
<text x="327" y="590" dy="0.76em" text-anchor="middle" font-family="sans-serif" font-size="9.67741935483871" opacity="1" fill="#000000">
2019-08-31
</text>
<polyline fill="none" opacity="1" stroke="#000000" stroke-width="1" points="327,580 327,585 "/>
<text x="423" y="590" dy="0.76em" text-anchor="middle" font-family="sans-serif" font-size="9.67741935483871" opacity="1" fill="#000000">
2019-10-26
</text>
<polyline fill="none" opacity="1" stroke="#000000" stroke-width="1" points="423,580 423,585 "/>
<text x="519" y="590" dy="0.76em" text-anchor="middle" font-family="sans-serif" font-size="9.67741935483871" opacity="1" fill="#000000">
2019-12-21
</text>
<polyline fill="none" opacity="1" stroke="#000000" stroke-width="1" points="519,580 519,585 "/>
<text x="615" y="590" dy="0.76em" text-anchor="middle" font-family="sans-serif" font-size="9.67741935483871" opacity="1" fill="#000000">
2020-02-15
</text>
<polyline fill="none" opacity="1" stroke="#000000" stroke-width="1" points="615,580 615,585 "/>
<text x="711" y="590" dy="0.76em" text-anchor="middle" font-family="sans-serif" font-size="9.67741935483871" opacity="1" fill="#000000">
2020-04-11
</text>
<polyline fill="none" opacity="1" stroke="#000000" stroke-width="1" points="711,580 711,585 "/>
<text x="807" y="590" dy="0.76em" text-anchor="middle" font-family="sans-serif" font-size="9.67741935483871" opacity="1" fill="#000000">
2020-06-06
</text>
<polyline fill="none" opacity="1" stroke="#000000" stroke-width="1" points="807,580 807,585 "/>
<text x="903" y="590" dy="0.76em" text-anchor="middle" font-family="sans-serif" font-size="9.67741935483871" opacity="1" fill="#000000">
2020-08-01
</text>
<polyline fill="none" opacity="1" stroke="#000000" stroke-width="1" points="903,580 903,585 "/>
<polyline fill="none" opacity="1" stroke="#FF0000" stroke-width="1" points="40,578 40,578 47,576 48,575 175,575 179,575 181,575 186,575 189,575 198,573 257,572 257,572 472,571 485,571 516,570 531,570 545,569 545,569 567,568 584,568 592,567 668,567 670,567 672,567 679,566 681,566 682,565 684,565 685,564 688,563 691,563 692,562 694,562 696,561 698,560 700,560 703,559 704,559 707,558 708,558 711,557 713,556 713,556 715,556 716,555 718,555 720,555 721,554 724,553 727,553 728,552 730,552 732,551 735,550 735,550 738,549 739,549 740,549 742,548 745,548 745,547 748,547 750,546 752,546 754,545 756,545 757,544 760,543 763,543 764,542 766,542 768,541 770,540 772,540 774,539 775,539 777,539 779,538 780,538 784,537 786,536 787,536 789,535 791,535 792,534 794,534 796,533 798,533 799,532 801,532 803,532 804,531 806,531 808,530 811,529 813,529 815,528 816,528 818,527 820,527 821,526 823,526 825,525 827,525 828,524 831,524 832,524 833,523 835,523 837,522 839,522 840,521 842,521 844,520 845,520 847,519 849,519 851,518 852,518 854,517 856,517 857,516 859,516 861,516 863,515 864,515 866,514 868,514 869,513 871,513 873,512 875,512 876,511 878,511 880,510 881,510 883,509 885,509 887,508 888,508 890,508 892,507 893,507 895,506 897,506 899,505 900,505 902,504 904,504 905,503 907,503 909,502 911,502 912,501 914,501 916,500 917,500 919,500 921,499 923,499 924,498 926,498 928,497 929,497 931,496 935,495 936,495 938,494 941,493 943,493 945,493 947,492 "/>
</svg>
