<svg width="987" height="610" viewBox="0 0 987 610" xmlns="http://www.w3.org/2000/svg">
<line opacity="0.1" stroke="#000000" stroke-width="1" x1="40" y1="579" x2="40" y2="9"/>
<line opacity="0.1" stroke="#000000" stroke-width="1" x1="53" y1="579" x2="53" y2="9"/>
<line opacity="0.1" stroke="#000000" stroke-width="1" x1="67" y1="579" x2="67" y2="9"/>
<line opacity="0.1" stroke="#000000" stroke-width="1" x1="81" y1="579" x2="81" y2="9"/>
<line opacity="0.1" stroke="#000000" stroke-width="1" x1="94" y1="579" x2="94" y2="9"/>
<line opacity="0.1" stroke="#000000" stroke-width="1" x1="108" y1="579" x2="108" y2="9"/>
<line opacity="0.1" stroke="#000000" stroke-width="1" x1="122" y1="579" x2="122" y2="9"/>
<line opacity="0.1" stroke="#000000" stroke-width="1" x1="135" y1="579" x2="135" y2="9"/>
<line opacity="0.1" stroke="#000000" stroke-width="1" x1="149" y1="579" x2="149" y2="9"/>
<line opacity="0.1" stroke="#000000" stroke-width="1" x1="162" y1="579" x2="162" y2="9"/>
<line opacity="0.1" stroke="#000000" stroke-width="1" x1="176" y1="579" x2="176" y2="9"/>
<line opacity="0.1" stroke="#000000" stroke-width="1" x1="190" y1="579" x2="190" y2="9"/>
<line opacity="0.1" stroke="#000000" stroke-width="1" x1="203" y1="579" x2="203" y2="9"/>
<line opacity="0.1" stroke="#000000" stroke-width="1" x1="217" y1="579" x2="217" y2="9"/>
<line opacity="0.1" stroke="#000000" stroke-width="1" x1="231" y1="579" x2="231" y2="9"/>
<line opacity="0.1" stroke="#000000" stroke-width="1" x1="244" y1="579" x2="244" y2="9"/>
<line opacity="0.1" stroke="#000000" stroke-width="1" x1="258" y1="579" x2="258" y2="9"/>
<line opacity="0.1" stroke="#000000" stroke-width="1" x1="272" y1="579" x2="272" y2="9"/>
<line opacity="0.1" stroke="#000000" stroke-width="1" x1="285" y1="579" x2="285" y2="9"/>
<line opacity="0.1" stroke="#000000" stroke-width="1" x1="299" y1="579" x2="299" y2="9"/>
<line opacity="0.1" stroke="#000000" stroke-width="1" x1="313" y1="579" x2="313" y2="9"/>
<line opacity="0.1" stroke="#000000" stroke-width="1" x1="326" y1="579" x2="326" y2="9"/>
<line opacity="0.1" stroke="#000000" stroke-width="1" x1="340" y1="579" x2="340" y2="9"/>
<line opacity="0.1" stroke="#000000" stroke-width="1" x1="354" y1="579" x2="354" y2="9"/>
<line opacity="0.1" stroke="#000000" stroke-width="1" x1="367" y1="579" x2="367" y2="9"/>
<line opacity="0.1" stroke="#000000" stroke-width="1" x1="381" y1="579" x2="381" y2="9"/>
<line opacity="0.1" stroke="#000000" stroke-width="1" x1="395" y1="579" x2="395" y2="9"/>
<line opacity="0.1" stroke="#000000" stroke-width="1" x1="408" y1="579" x2="408" y2="9"/>
<line opacity="0.1" stroke="#000000" stroke-width="1" x1="422" y1="579" x2="422" y2="9"/>
<line opacity="0.1" stroke="#000000" stroke-width="1" x1="436" y1="579" x2="436" y2="9"/>
<line opacity="0.1" stroke="#000000" stroke-width="1" x1="449" y1="579" x2="449" y2="9"/>
<line opacity="0.1" stroke="#000000" stroke-width="1" x1="463" y1="579" x2="463" y2="9"/>
<line opacity="0.1" stroke="#000000" stroke-width="1" x1="477" y1="579" x2="477" y2="9"/>
<line opacity="0.1" stroke="#000000" stroke-width="1" x1="490" y1="579" x2="490" y2="9"/>
<line opacity="0.1" stroke="#000000" stroke-width="1" x1="504" y1="579" x2="504" y2="9"/>
<line opacity="0.1" stroke="#000000" stroke-width="1" x1="518" y1="579" x2="518" y2="9"/>
<line opacity="0.1" stroke="#000000" stroke-width="1" x1="531" y1="579" x2="531" y2="9"/>
<line opacity="0.1" stroke="#000000" stroke-width="1" x1="545" y1="579" x2="545" y2="9"/>
<line opacity="0.1" stroke="#000000" stroke-width="1" x1="559" y1="579" x2="559" y2="9"/>
<line opacity="0.1" stroke="#000000" stroke-width="1" x1="572" y1="579" x2="572" y2="9"/>
<line opacity="0.1" stroke="#000000" stroke-width="1" x1="586" y1="579" x2="586" y2="9"/>
<line opacity="0.1" stroke="#000000" stroke-width="1" x1="600" y1="579" x2="600" y2="9"/>
<line opacity="0.1" stroke="#000000" stroke-width="1" x1="613" y1="579" x2="613" y2="9"/>
<line opacity="0.1" stroke="#000000" stroke-width="1" x1="627" y1="579" x2="627" y2="9"/>
<line opacity="0.1" stroke="#000000" stroke-width="1" x1="641" y1="579" x2="641" y2="9"/>
<line opacity="0.1" stroke="#000000" stroke-width="1" x1="654" y1="579" x2="654" y2="9"/>
<line opacity="0.1" stroke="#000000" stroke-width="1" x1="668" y1="579" x2="668" y2="9"/>
<line opacity="0.1" stroke="#000000" stroke-width="1" x1="682" y1="579" x2="682" y2="9"/>
<line opacity="0.1" stroke="#000000" stroke-width="1" x1="695" y1="579" x2="695" y2="9"/>
<line opacity="0.1" stroke="#000000" stroke-width="1" x1="709" y1="579" x2="709" y2="9"/>
<line opacity="0.1" stroke="#000000" stroke-width="1" x1="723" y1="579" x2="723" y2="9"/>
<line opacity="0.1" stroke="#000000" stroke-width="1" x1="736" y1="579" x2="736" y2="9"/>
<line opacity="0.1" stroke="#000000" stroke-width="1" x1="750" y1="579" x2="750" y2="9"/>
<line opacity="0.1" stroke="#000000" stroke-width="1" x1="764" y1="579" x2="764" y2="9"/>
<line opacity="0.1" stroke="#000000" stroke-width="1" x1="777" y1="579" x2="777" y2="9"/>
<line opacity="0.1" stroke="#000000" stroke-width="1" x1="791" y1="579" x2="791" y2="9"/>
<line opacity="0.1" stroke="#000000" stroke-width="1" x1="805" y1="579" x2="805" y2="9"/>
<line opacity="0.1" stroke="#000000" stroke-width="1" x1="818" y1="579" x2="818" y2="9"/>
<line opacity="0.1" stroke="#000000" stroke-width="1" x1="832" y1="579" x2="832" y2="9"/>
<line opacity="0.1" stroke="#000000" stroke-width="1" x1="846" y1="579" x2="846" y2="9"/>
<line opacity="0.1" stroke="#000000" stroke-width="1" x1="859" y1="579" x2="859" y2="9"/>
<line opacity="0.1" stroke="#000000" stroke-width="1" x1="873" y1="579" x2="873" y2="9"/>
<line opacity="0.1" stroke="#000000" stroke-width="1" x1="887" y1="579" x2="887" y2="9"/>
<line opacity="0.1" stroke="#000000" stroke-width="1" x1="900" y1="579" x2="900" y2="9"/>
<line opacity="0.1" stroke="#000000" stroke-width="1" x1="914" y1="579" x2="914" y2="9"/>
<line opacity="0.1" stroke="#000000" stroke-width="1" x1="928" y1="579" x2="928" y2="9"/>
<line opacity="0.1" stroke="#000000" stroke-width="1" x1="941" y1="579" x2="941" y2="9"/>
<line opacity="0.1" stroke="#000000" stroke-width="1" x1="40" y1="567" x2="947" y2="567"/>
<line opacity="0.1" stroke="#000000" stroke-width="1" x1="40" y1="556" x2="947" y2="556"/>
<line opacity="0.1" stroke="#000000" stroke-width="1" x1="40" y1="545" x2="947" y2="545"/>
<line opacity="0.1" stroke="#000000" stroke-width="1" x1="40" y1="533" x2="947" y2="533"/>
<line opacity="0.1" stroke="#000000" stroke-width="1" x1="40" y1="522" x2="947" y2="522"/>
<line opacity="0.1" stroke="#000000" stroke-width="1" x1="40" y1="511" x2="947" y2="511"/>
<line opacity="0.1" stroke="#000000" stroke-width="1" x1="40" y1="499" x2="947" y2="499"/>
<line opacity="0.1" stroke="#000000" stroke-width="1" x1="40" y1="488" x2="947" y2="488"/>
<line opacity="0.1" stroke="#000000" stroke-width="1" x1="40" y1="477" x2="947" y2="477"/>
<line opacity="0.1" stroke="#000000" stroke-width="1" x1="40" y1="466" x2="947" y2="466"/>
<line opacity="0.1" stroke="#000000" stroke-width="1" x1="40" y1="454" x2="947" y2="454"/>
<line opacity="0.1" stroke="#000000" stroke-width="1" x1="40" y1="443" x2="947" y2="443"/>
<line opacity="0.1" stroke="#000000" stroke-width="1" x1="40" y1="432" x2="947" y2="432"/>
<line opacity="0.1" stroke="#000000" stroke-width="1" x1="40" y1="420" x2="947" y2="420"/>
<line opacity="0.1" stroke="#000000" stroke-width="1" x1="40" y1="409" x2="947" y2="409"/>
<line opacity="0.1" stroke="#000000" stroke-width="1" x1="40" y1="398" x2="947" y2="398"/>
<line opacity="0.1" stroke="#000000" stroke-width="1" x1="40" y1="387" x2="947" y2="387"/>
<line opacity="0.1" stroke="#000000" stroke-width="1" x1="40" y1="375" x2="947" y2="375"/>
<line opacity="0.1" stroke="#000000" stroke-width="1" x1="40" y1="364" x2="947" y2="364"/>
<line opacity="0.1" stroke="#000000" stroke-width="1" x1="40" y1="353" x2="947" y2="353"/>
<line opacity="0.1" stroke="#000000" stroke-width="1" x1="40" y1="341" x2="947" y2="341"/>
<line opacity="0.1" stroke="#000000" stroke-width="1" x1="40" y1="330" x2="947" y2="330"/>
<line opacity="0.1" stroke="#000000" stroke-width="1" x1="40" y1="319" x2="947" y2="319"/>
<line opacity="0.1" stroke="#000000" stroke-width="1" x1="40" y1="308" x2="947" y2="308"/>
<line opacity="0.1" stroke="#000000" stroke-width="1" x1="40" y1="296" x2="947" y2="296"/>
<line opacity="0.1" stroke="#000000" stroke-width="1" x1="40" y1="285" x2="947" y2="285"/>
<line opacity="0.1" stroke="#000000" stroke-width="1" x1="40" y1="274" x2="947" y2="274"/>
<line opacity="0.1" stroke="#000000" stroke-width="1" x1="40" y1="262" x2="947" y2="262"/>
<line opacity="0.1" stroke="#000000" stroke-width="1" x1="40" y1="251" x2="947" y2="251"/>
<line opacity="0.1" stroke="#000000" stroke-width="1" x1="40" y1="240" x2="947" y2="240"/>
<line opacity="0.1" stroke="#000000" stroke-width="1" x1="40" y1="229" x2="947" y2="229"/>
<line opacity="0.1" stroke="#000000" stroke-width="1" x1="40" y1="217" x2="947" y2="217"/>
<line opacity="0.1" stroke="#000000" stroke-width="1" x1="40" y1="206" x2="947" y2="206"/>
<line opacity="0.1" stroke="#000000" stroke-width="1" x1="40" y1="195" x2="947" y2="195"/>
<line opacity="0.1" stroke="#000000" stroke-width="1" x1="40" y1="183" x2="947" y2="183"/>
<line opacity="0.1" stroke="#000000" stroke-width="1" x1="40" y1="172" x2="947" y2="172"/>
<line opacity="0.1" stroke="#000000" stroke-width="1" x1="40" y1="161" x2="947" y2="161"/>
<line opacity="0.1" stroke="#000000" stroke-width="1" x1="40" y1="150" x2="947" y2="150"/>
<line opacity="0.1" stroke="#000000" stroke-width="1" x1="40" y1="138" x2="947" y2="138"/>
<line opacity="0.1" stroke="#000000" stroke-width="1" x1="40" y1="127" x2="947" y2="127"/>
<line opacity="0.1" stroke="#000000" stroke-width="1" x1="40" y1="116" x2="947" y2="116"/>
<line opacity="0.1" stroke="#000000" stroke-width="1" x1="40" y1="104" x2="947" y2="104"/>
<line opacity="0.1" stroke="#000000" stroke-width="1" x1="40" y1="93" x2="947" y2="93"/>
<line opacity="0.1" stroke="#000000" stroke-width="1" x1="40" y1="82" x2="947" y2="82"/>
<line opacity="0.1" stroke="#000000" stroke-width="1" x1="40" y1="71" x2="947" y2="71"/>
<line opacity="0.1" stroke="#000000" stroke-width="1" x1="40" y1="59" x2="947" y2="59"/>
<line opacity="0.1" stroke="#000000" stroke-width="1" x1="40" y1="48" x2="947" y2="48"/>
<line opacity="0.1" stroke="#000000" stroke-width="1" x1="40" y1="37" x2="947" y2="37"/>
<line opacity="0.1" stroke="#000000" stroke-width="1" x1="40" y1="25" x2="947" y2="25"/>
<line opacity="0.1" stroke="#000000" stroke-width="1" x1="40" y1="14" x2="947" y2="14"/>
<line opacity="0.2" stroke="#000000" stroke-width="1" x1="40" y1="579" x2="40" y2="9"/>
<line opacity="0.2" stroke="#000000" stroke-width="1" x1="135" y1="579" x2="135" y2="9"/>
<line opacity="0.2" stroke="#000000" stroke-width="1" x1="231" y1="579" x2="231" y2="9"/>
<line opacity="0.2" stroke="#000000" stroke-width="1" x1="326" y1="579" x2="326" y2="9"/>
<line opacity="0.2" stroke="#000000" stroke-width="1" x1="422" y1="579" x2="422" y2="9"/>
<line opacity="0.2" stroke="#000000" stroke-width="1" x1="518" y1="579" x2="518" y2="9"/>
<line opacity="0.2" stroke="#000000" stroke-width="1" x1="613" y1="579" x2="613" y2="9"/>
<line opacity="0.2" stroke="#000000" stroke-width="1" x1="709" y1="579" x2="709" y2="9"/>
<line opacity="0.2" stroke="#000000" stroke-width="1" x1="805" y1="579" x2="805" y2="9"/>
<line opacity="0.2" stroke="#000000" stroke-width="1" x1="900" y1="579" x2="900" y2="9"/>
<line opacity="0.2" stroke="#000000" stroke-width="1" x1="40" y1="522" x2="947" y2="522"/>
<line opacity="0.2" stroke="#000000" stroke-width="1" x1="40" y1="466" x2="947" y2="466"/>
<line opacity="0.2" stroke="#000000" stroke-width="1" x1="40" y1="409" x2="947" y2="409"/>
<line opacity="0.2" stroke="#000000" stroke-width="1" x1="40" y1="353" x2="947" y2="353"/>
<line opacity="0.2" stroke="#000000" stroke-width="1" x1="40" y1="296" x2="947" y2="296"/>
<line opacity="0.2" stroke="#000000" stroke-width="1" x1="40" y1="240" x2="947" y2="240"/>
<line opacity="0.2" stroke="#000000" stroke-width="1" x1="40" y1="183" x2="947" y2="183"/>
<line opacity="0.2" stroke="#000000" stroke-width="1" x1="40" y1="127" x2="947" y2="127"/>
<line opacity="0.2" stroke="#000000" stroke-width="1" x1="40" y1="71" x2="947" y2="71"/>
<line opacity="0.2" stroke="#000000" stroke-width="1" x1="40" y1="14" x2="947" y2="14"/>
<polyline fill="none" opacity="1" stroke="#000000" stroke-width="1" points="39,10 39,580 "/>
<text x="30" y="522" dy="0.5ex" text-anchor="end" font-family="sans-serif" font-size="9.67741935483871" opacity="1" fill="#000000">
10%
</text>
<polyline fill="none" opacity="1" stroke="#000000" stroke-width="1" points="34,522 39,522 "/>
<text x="30" y="466" dy="0.5ex" text-anchor="end" font-family="sans-serif" font-size="9.67741935483871" opacity="1" fill="#000000">
20%
</text>
<polyline fill="none" opacity="1" stroke="#000000" stroke-width="1" points="34,466 39,466 "/>
<text x="30" y="409" dy="0.5ex" text-anchor="end" font-family="sans-serif" font-size="9.67741935483871" opacity="1" fill="#000000">
30%
</text>
<polyline fill="none" opacity="1" stroke="#000000" stroke-width="1" points="34,409 39,409 "/>
<text x="30" y="353" dy="0.5ex" text-anchor="end" font-family="sans-serif" font-size="9.67741935483871" opacity="1" fill="#000000">
40%
</text>
<polyline fill="none" opacity="1" stroke="#000000" stroke-width="1" points="34,353 39,353 "/>
<text x="30" y="296" dy="0.5ex" text-anchor="end" font-family="sans-serif" font-size="9.67741935483871" opacity="1" fill="#000000">
50%
</text>
<polyline fill="none" opacity="1" stroke="#000000" stroke-width="1" points="34,296 39,296 "/>
<text x="30" y="240" dy="0.5ex" text-anchor="end" font-family="sans-serif" font-size="9.67741935483871" opacity="1" fill="#000000">
60%
</text>
<polyline fill="none" opacity="1" stroke="#000000" stroke-width="1" points="34,240 39,240 "/>
<text x="30" y="183" dy="0.5ex" text-anchor="end" font-family="sans-serif" font-size="9.67741935483871" opacity="1" fill="#000000">
70%
</text>
<polyline fill="none" opacity="1" stroke="#000000" stroke-width="1" points="34,183 39,183 "/>
<text x="30" y="127" dy="0.5ex" text-anchor="end" font-family="sans-serif" font-size="9.67741935483871" opacity="1" fill="#000000">
80%
</text>
<polyline fill="none" opacity="1" stroke="#000000" stroke-width="1" points="34,127 39,127 "/>
<text x="30" y="71" dy="0.5ex" text-anchor="end" font-family="sans-serif" font-size="9.67741935483871" opacity="1" fill="#000000">
90%
</text>
<polyline fill="none" opacity="1" stroke="#000000" stroke-width="1" points="34,71 39,71 "/>
<text x="30" y="14" dy="0.5ex" text-anchor="end" font-family="sans-serif" font-size="9.67741935483871" opacity="1" fill="#000000">
100%
</text>
<polyline fill="none" opacity="1" stroke="#000000" stroke-width="1" points="34,14 39,14 "/>
<polyline fill="none" opacity="1" stroke="#000000" stroke-width="1" points="40,580 947,580 "/>
<text x="40" y="590" dy="0.76em" text-anchor="middle" font-family="sans-serif" font-size="9.67741935483871" opacity="1" fill="#000000">
2019-03-16
</text>
<polyline fill="none" opacity="1" stroke="#000000" stroke-width="1" points="40,580 40,585 "/>
<text x="135" y="590" dy="0.76em" text-anchor="middle" font-family="sans-serif" font-size="9.67741935483871" opacity="1" fill="#000000">
2019-05-04
</text>
<polyline fill="none" opacity="1" stroke="#000000" stroke-width="1" points="135,580 135,585 "/>
<text x="231" y="590" dy="0.76em" text-anchor="middle" font-family="sans-serif" font-size="9.67741935483871" opacity="1" fill="#000000">
2019-06-22
</text>
<polyline fill="none" opacity="1" stroke="#000000" stroke-width="1" points="231,580 231,585 "/>
<text x="326" y="590" dy="0.76em" text-anchor="middle" font-family="sans-serif" font-size="9.67741935483871" opacity="1" fill="#000000">
2019-08-10
</text>
<polyline fill="none" opacity="1" stroke="#000000" stroke-width="1" points="326,580 326,585 "/>
<text x="422" y="590" dy="0.76em" text-anchor="middle" font-family="sans-serif" font-size="9.67741935483871" opacity="1" fill="#000000">
2019-09-28
</text>
<polyline fill="none" opacity="1" stroke="#000000" stroke-width="1" points="422,580 422,585 "/>
<text x="518" y="590" dy="0.76em" text-anchor="middle" font-family="sans-serif" font-size="9.67741935483871" opacity="1" fill="#000000">
2019-11-16
</text>
<polyline fill="none" opacity="1" stroke="#000000" stroke-width="1" points="518,580 518,585 "/>
<text x="613" y="590" dy="0.76em" text-anchor="middle" font-family="sans-serif" font-size="9.67741935483871" opacity="1" fill="#000000">
2020-01-04
</text>
<polyline fill="none" opacity="1" stroke="#000000" stroke-width="1" points="613,580 613,585 "/>
<text x="709" y="590" dy="0.76em" text-anchor="middle" font-family="sans-serif" font-size="9.67741935483871" opacity="1" fill="#000000">
2020-02-22
</text>
<polyline fill="none" opacity="1" stroke="#000000" stroke-width="1" points="709,580 709,585 "/>
<text x="805" y="590" dy="0.76em" text-anchor="middle" font-family="sans-serif" font-size="9.67741935483871" opacity="1" fill="#000000">
2020-04-11
</text>
<polyline fill="none" opacity="1" stroke="#000000" stroke-width="1" points="805,580 805,585 "/>
<text x="900" y="590" dy="0.76em" text-anchor="middle" font-family="sans-serif" font-size="9.67741935483871" opacity="1" fill="#000000">
2020-05-30
</text>
<polyline fill="none" opacity="1" stroke="#000000" stroke-width="1" points="900,580 900,585 "/>
<polyline fill="none" opacity="1" stroke="#FF0000" stroke-width="1" points="40,578 40,578 49,576 50,575 194,575 199,575 201,575 206,575 210,575 220,573 287,572 288,572 533,571 548,570 583,570 599,569 615,569 616,568 641,568 660,568 669,567 756,567 758,566 760,566 769,566 771,565 772,565 774,564 776,563 779,562 782,562 784,561 785,561 788,560 791,559 793,559 796,558 797,558 800,557 801,557 805,556 807,555 807,555 809,555 811,554 813,554 815,553 817,553 820,552 823,551 825,551 827,550 829,550 832,549 832,549 835,548 836,548 838,547 840,547 844,546 844,546 848,545 849,544 852,544 854,543 856,543 858,542 861,541 864,541 866,540 868,540 870,539 872,538 874,538 876,537 878,537 880,536 882,536 884,535 888,534 890,534 892,533 894,533 896,533 898,532 900,532 902,531 904,531 906,530 907,530 909,529 911,529 913,528 916,528 919,527 921,526 923,526 925,525 927,525 929,524 931,524 933,523 935,523 937,522 939,522 941,521 943,521 945,520 947,520 "/>
</svg>
