<svg width="987" height="610" viewBox="0 0 987 610" xmlns="http://www.w3.org/2000/svg">
<line opacity="0.1" stroke="#000000" stroke-width="1" x1="40" y1="579" x2="40" y2="9"/>
<line opacity="0.1" stroke="#000000" stroke-width="1" x1="52" y1="579" x2="52" y2="9"/>
<line opacity="0.1" stroke="#000000" stroke-width="1" x1="65" y1="579" x2="65" y2="9"/>
<line opacity="0.1" stroke="#000000" stroke-width="1" x1="77" y1="579" x2="77" y2="9"/>
<line opacity="0.1" stroke="#000000" stroke-width="1" x1="90" y1="579" x2="90" y2="9"/>
<line opacity="0.1" stroke="#000000" stroke-width="1" x1="102" y1="579" x2="102" y2="9"/>
<line opacity="0.1" stroke="#000000" stroke-width="1" x1="115" y1="579" x2="115" y2="9"/>
<line opacity="0.1" stroke="#000000" stroke-width="1" x1="127" y1="579" x2="127" y2="9"/>
<line opacity="0.1" stroke="#000000" stroke-width="1" x1="140" y1="579" x2="140" y2="9"/>
<line opacity="0.1" stroke="#000000" stroke-width="1" x1="153" y1="579" x2="153" y2="9"/>
<line opacity="0.1" stroke="#000000" stroke-width="1" x1="165" y1="579" x2="165" y2="9"/>
<line opacity="0.1" stroke="#000000" stroke-width="1" x1="178" y1="579" x2="178" y2="9"/>
<line opacity="0.1" stroke="#000000" stroke-width="1" x1="190" y1="579" x2="190" y2="9"/>
<line opacity="0.1" stroke="#000000" stroke-width="1" x1="203" y1="579" x2="203" y2="9"/>
<line opacity="0.1" stroke="#000000" stroke-width="1" x1="215" y1="579" x2="215" y2="9"/>
<line opacity="0.1" stroke="#000000" stroke-width="1" x1="228" y1="579" x2="228" y2="9"/>
<line opacity="0.1" stroke="#000000" stroke-width="1" x1="240" y1="579" x2="240" y2="9"/>
<line opacity="0.1" stroke="#000000" stroke-width="1" x1="253" y1="579" x2="253" y2="9"/>
<line opacity="0.1" stroke="#000000" stroke-width="1" x1="266" y1="579" x2="266" y2="9"/>
<line opacity="0.1" stroke="#000000" stroke-width="1" x1="278" y1="579" x2="278" y2="9"/>
<line opacity="0.1" stroke="#000000" stroke-width="1" x1="291" y1="579" x2="291" y2="9"/>
<line opacity="0.1" stroke="#000000" stroke-width="1" x1="303" y1="579" x2="303" y2="9"/>
<line opacity="0.1" stroke="#000000" stroke-width="1" x1="316" y1="579" x2="316" y2="9"/>
<line opacity="0.1" stroke="#000000" stroke-width="1" x1="328" y1="579" x2="328" y2="9"/>
<line opacity="0.1" stroke="#000000" stroke-width="1" x1="341" y1="579" x2="341" y2="9"/>
<line opacity="0.1" stroke="#000000" stroke-width="1" x1="353" y1="579" x2="353" y2="9"/>
<line opacity="0.1" stroke="#000000" stroke-width="1" x1="366" y1="579" x2="366" y2="9"/>
<line opacity="0.1" stroke="#000000" stroke-width="1" x1="379" y1="579" x2="379" y2="9"/>
<line opacity="0.1" stroke="#000000" stroke-width="1" x1="391" y1="579" x2="391" y2="9"/>
<line opacity="0.1" stroke="#000000" stroke-width="1" x1="404" y1="579" x2="404" y2="9"/>
<line opacity="0.1" stroke="#000000" stroke-width="1" x1="416" y1="579" x2="416" y2="9"/>
<line opacity="0.1" stroke="#000000" stroke-width="1" x1="429" y1="579" x2="429" y2="9"/>
<line opacity="0.1" stroke="#000000" stroke-width="1" x1="441" y1="579" x2="441" y2="9"/>
<line opacity="0.1" stroke="#000000" stroke-width="1" x1="454" y1="579" x2="454" y2="9"/>
<line opacity="0.1" stroke="#000000" stroke-width="1" x1="466" y1="579" x2="466" y2="9"/>
<line opacity="0.1" stroke="#000000" stroke-width="1" x1="479" y1="579" x2="479" y2="9"/>
<line opacity="0.1" stroke="#000000" stroke-width="1" x1="492" y1="579" x2="492" y2="9"/>
<line opacity="0.1" stroke="#000000" stroke-width="1" x1="504" y1="579" x2="504" y2="9"/>
<line opacity="0.1" stroke="#000000" stroke-width="1" x1="517" y1="579" x2="517" y2="9"/>
<line opacity="0.1" stroke="#000000" stroke-width="1" x1="529" y1="579" x2="529" y2="9"/>
<line opacity="0.1" stroke="#000000" stroke-width="1" x1="542" y1="579" x2="542" y2="9"/>
<line opacity="0.1" stroke="#000000" stroke-width="1" x1="554" y1="579" x2="554" y2="9"/>
<line opacity="0.1" stroke="#000000" stroke-width="1" x1="567" y1="579" x2="567" y2="9"/>
<line opacity="0.1" stroke="#000000" stroke-width="1" x1="579" y1="579" x2="579" y2="9"/>
<line opacity="0.1" stroke="#000000" stroke-width="1" x1="592" y1="579" x2="592" y2="9"/>
<line opacity="0.1" stroke="#000000" stroke-width="1" x1="605" y1="579" x2="605" y2="9"/>
<line opacity="0.1" stroke="#000000" stroke-width="1" x1="617" y1="579" x2="617" y2="9"/>
<line opacity="0.1" stroke="#000000" stroke-width="1" x1="630" y1="579" x2="630" y2="9"/>
<line opacity="0.1" stroke="#000000" stroke-width="1" x1="642" y1="579" x2="642" y2="9"/>
<line opacity="0.1" stroke="#000000" stroke-width="1" x1="655" y1="579" x2="655" y2="9"/>
<line opacity="0.1" stroke="#000000" stroke-width="1" x1="667" y1="579" x2="667" y2="9"/>
<line opacity="0.1" stroke="#000000" stroke-width="1" x1="680" y1="579" x2="680" y2="9"/>
<line opacity="0.1" stroke="#000000" stroke-width="1" x1="692" y1="579" x2="692" y2="9"/>
<line opacity="0.1" stroke="#000000" stroke-width="1" x1="705" y1="579" x2="705" y2="9"/>
<line opacity="0.1" stroke="#000000" stroke-width="1" x1="718" y1="579" x2="718" y2="9"/>
<line opacity="0.1" stroke="#000000" stroke-width="1" x1="730" y1="579" x2="730" y2="9"/>
<line opacity="0.1" stroke="#000000" stroke-width="1" x1="743" y1="579" x2="743" y2="9"/>
<line opacity="0.1" stroke="#000000" stroke-width="1" x1="755" y1="579" x2="755" y2="9"/>
<line opacity="0.1" stroke="#000000" stroke-width="1" x1="768" y1="579" x2="768" y2="9"/>
<line opacity="0.1" stroke="#000000" stroke-width="1" x1="780" y1="579" x2="780" y2="9"/>
<line opacity="0.1" stroke="#000000" stroke-width="1" x1="793" y1="579" x2="793" y2="9"/>
<line opacity="0.1" stroke="#000000" stroke-width="1" x1="805" y1="579" x2="805" y2="9"/>
<line opacity="0.1" stroke="#000000" stroke-width="1" x1="818" y1="579" x2="818" y2="9"/>
<line opacity="0.1" stroke="#000000" stroke-width="1" x1="831" y1="579" x2="831" y2="9"/>
<line opacity="0.1" stroke="#000000" stroke-width="1" x1="843" y1="579" x2="843" y2="9"/>
<line opacity="0.1" stroke="#000000" stroke-width="1" x1="856" y1="579" x2="856" y2="9"/>
<line opacity="0.1" stroke="#000000" stroke-width="1" x1="868" y1="579" x2="868" y2="9"/>
<line opacity="0.1" stroke="#000000" stroke-width="1" x1="881" y1="579" x2="881" y2="9"/>
<line opacity="0.1" stroke="#000000" stroke-width="1" x1="893" y1="579" x2="893" y2="9"/>
<line opacity="0.1" stroke="#000000" stroke-width="1" x1="906" y1="579" x2="906" y2="9"/>
<line opacity="0.1" stroke="#000000" stroke-width="1" x1="918" y1="579" x2="918" y2="9"/>
<line opacity="0.1" stroke="#000000" stroke-width="1" x1="931" y1="579" x2="931" y2="9"/>
<line opacity="0.1" stroke="#000000" stroke-width="1" x1="944" y1="579" x2="944" y2="9"/>
<line opacity="0.1" stroke="#000000" stroke-width="1" x1="40" y1="567" x2="947" y2="567"/>
<line opacity="0.1" stroke="#000000" stroke-width="1" x1="40" y1="556" x2="947" y2="556"/>
<line opacity="0.1" stroke="#000000" stroke-width="1" x1="40" y1="545" x2="947" y2="545"/>
<line opacity="0.1" stroke="#000000" stroke-width="1" x1="40" y1="533" x2="947" y2="533"/>
<line opacity="0.1" stroke="#000000" stroke-width="1" x1="40" y1="522" x2="947" y2="522"/>
<line opacity="0.1" stroke="#000000" stroke-width="1" x1="40" y1="511" x2="947" y2="511"/>
<line opacity="0.1" stroke="#000000" stroke-width="1" x1="40" y1="499" x2="947" y2="499"/>
<line opacity="0.1" stroke="#000000" stroke-width="1" x1="40" y1="488" x2="947" y2="488"/>
<line opacity="0.1" stroke="#000000" stroke-width="1" x1="40" y1="477" x2="947" y2="477"/>
<line opacity="0.1" stroke="#000000" stroke-width="1" x1="40" y1="466" x2="947" y2="466"/>
<line opacity="0.1" stroke="#000000" stroke-width="1" x1="40" y1="454" x2="947" y2="454"/>
<line opacity="0.1" stroke="#000000" stroke-width="1" x1="40" y1="443" x2="947" y2="443"/>
<line opacity="0.1" stroke="#000000" stroke-width="1" x1="40" y1="432" x2="947" y2="432"/>
<line opacity="0.1" stroke="#000000" stroke-width="1" x1="40" y1="420" x2="947" y2="420"/>
<line opacity="0.1" stroke="#000000" stroke-width="1" x1="40" y1="409" x2="947" y2="409"/>
<line opacity="0.1" stroke="#000000" stroke-width="1" x1="40" y1="398" x2="947" y2="398"/>
<line opacity="0.1" stroke="#000000" stroke-width="1" x1="40" y1="387" x2="947" y2="387"/>
<line opacity="0.1" stroke="#000000" stroke-width="1" x1="40" y1="375" x2="947" y2="375"/>
<line opacity="0.1" stroke="#000000" stroke-width="1" x1="40" y1="364" x2="947" y2="364"/>
<line opacity="0.1" stroke="#000000" stroke-width="1" x1="40" y1="353" x2="947" y2="353"/>
<line opacity="0.1" stroke="#000000" stroke-width="1" x1="40" y1="341" x2="947" y2="341"/>
<line opacity="0.1" stroke="#000000" stroke-width="1" x1="40" y1="330" x2="947" y2="330"/>
<line opacity="0.1" stroke="#000000" stroke-width="1" x1="40" y1="319" x2="947" y2="319"/>
<line opacity="0.1" stroke="#000000" stroke-width="1" x1="40" y1="308" x2="947" y2="308"/>
<line opacity="0.1" stroke="#000000" stroke-width="1" x1="40" y1="296" x2="947" y2="296"/>
<line opacity="0.1" stroke="#000000" stroke-width="1" x1="40" y1="285" x2="947" y2="285"/>
<line opacity="0.1" stroke="#000000" stroke-width="1" x1="40" y1="274" x2="947" y2="274"/>
<line opacity="0.1" stroke="#000000" stroke-width="1" x1="40" y1="262" x2="947" y2="262"/>
<line opacity="0.1" stroke="#000000" stroke-width="1" x1="40" y1="251" x2="947" y2="251"/>
<line opacity="0.1" stroke="#000000" stroke-width="1" x1="40" y1="240" x2="947" y2="240"/>
<line opacity="0.1" stroke="#000000" stroke-width="1" x1="40" y1="229" x2="947" y2="229"/>
<line opacity="0.1" stroke="#000000" stroke-width="1" x1="40" y1="217" x2="947" y2="217"/>
<line opacity="0.1" stroke="#000000" stroke-width="1" x1="40" y1="206" x2="947" y2="206"/>
<line opacity="0.1" stroke="#000000" stroke-width="1" x1="40" y1="195" x2="947" y2="195"/>
<line opacity="0.1" stroke="#000000" stroke-width="1" x1="40" y1="183" x2="947" y2="183"/>
<line opacity="0.1" stroke="#000000" stroke-width="1" x1="40" y1="172" x2="947" y2="172"/>
<line opacity="0.1" stroke="#000000" stroke-width="1" x1="40" y1="161" x2="947" y2="161"/>
<line opacity="0.1" stroke="#000000" stroke-width="1" x1="40" y1="150" x2="947" y2="150"/>
<line opacity="0.1" stroke="#000000" stroke-width="1" x1="40" y1="138" x2="947" y2="138"/>
<line opacity="0.1" stroke="#000000" stroke-width="1" x1="40" y1="127" x2="947" y2="127"/>
<line opacity="0.1" stroke="#000000" stroke-width="1" x1="40" y1="116" x2="947" y2="116"/>
<line opacity="0.1" stroke="#000000" stroke-width="1" x1="40" y1="104" x2="947" y2="104"/>
<line opacity="0.1" stroke="#000000" stroke-width="1" x1="40" y1="93" x2="947" y2="93"/>
<line opacity="0.1" stroke="#000000" stroke-width="1" x1="40" y1="82" x2="947" y2="82"/>
<line opacity="0.1" stroke="#000000" stroke-width="1" x1="40" y1="71" x2="947" y2="71"/>
<line opacity="0.1" stroke="#000000" stroke-width="1" x1="40" y1="59" x2="947" y2="59"/>
<line opacity="0.1" stroke="#000000" stroke-width="1" x1="40" y1="48" x2="947" y2="48"/>
<line opacity="0.1" stroke="#000000" stroke-width="1" x1="40" y1="37" x2="947" y2="37"/>
<line opacity="0.1" stroke="#000000" stroke-width="1" x1="40" y1="25" x2="947" y2="25"/>
<line opacity="0.1" stroke="#000000" stroke-width="1" x1="40" y1="14" x2="947" y2="14"/>
<line opacity="0.2" stroke="#000000" stroke-width="1" x1="40" y1="579" x2="40" y2="9"/>
<line opacity="0.2" stroke="#000000" stroke-width="1" x1="140" y1="579" x2="140" y2="9"/>
<line opacity="0.2" stroke="#000000" stroke-width="1" x1="240" y1="579" x2="240" y2="9"/>
<line opacity="0.2" stroke="#000000" stroke-width="1" x1="341" y1="579" x2="341" y2="9"/>
<line opacity="0.2" stroke="#000000" stroke-width="1" x1="441" y1="579" x2="441" y2="9"/>
<line opacity="0.2" stroke="#000000" stroke-width="1" x1="542" y1="579" x2="542" y2="9"/>
<line opacity="0.2" stroke="#000000" stroke-width="1" x1="642" y1="579" x2="642" y2="9"/>
<line opacity="0.2" stroke="#000000" stroke-width="1" x1="743" y1="579" x2="743" y2="9"/>
<line opacity="0.2" stroke="#000000" stroke-width="1" x1="843" y1="579" x2="843" y2="9"/>
<line opacity="0.2" stroke="#000000" stroke-width="1" x1="944" y1="579" x2="944" y2="9"/>
<line opacity="0.2" stroke="#000000" stroke-width="1" x1="40" y1="522" x2="947" y2="522"/>
<line opacity="0.2" stroke="#000000" stroke-width="1" x1="40" y1="466" x2="947" y2="466"/>
<line opacity="0.2" stroke="#000000" stroke-width="1" x1="40" y1="409" x2="947" y2="409"/>
<line opacity="0.2" stroke="#000000" stroke-width="1" x1="40" y1="353" x2="947" y2="353"/>
<line opacity="0.2" stroke="#000000" stroke-width="1" x1="40" y1="296" x2="947" y2="296"/>
<line opacity="0.2" stroke="#000000" stroke-width="1" x1="40" y1="240" x2="947" y2="240"/>
<line opacity="0.2" stroke="#000000" stroke-width="1" x1="40" y1="183" x2="947" y2="183"/>
<line opacity="0.2" stroke="#000000" stroke-width="1" x1="40" y1="127" x2="947" y2="127"/>
<line opacity="0.2" stroke="#000000" stroke-width="1" x1="40" y1="71" x2="947" y2="71"/>
<line opacity="0.2" stroke="#000000" stroke-width="1" x1="40" y1="14" x2="947" y2="14"/>
<polyline fill="none" opacity="1" stroke="#000000" stroke-width="1" points="39,10 39,580 "/>
<text x="30" y="522" dy="0.5ex" text-anchor="end" font-family="sans-serif" font-size="9.67741935483871" opacity="1" fill="#000000">
10%
</text>
<polyline fill="none" opacity="1" stroke="#000000" stroke-width="1" points="34,522 39,522 "/>
<text x="30" y="466" dy="0.5ex" text-anchor="end" font-family="sans-serif" font-size="9.67741935483871" opacity="1" fill="#000000">
20%
</text>
<polyline fill="none" opacity="1" stroke="#000000" stroke-width="1" points="34,466 39,466 "/>
<text x="30" y="409" dy="0.5ex" text-anchor="end" font-family="sans-serif" font-size="9.67741935483871" opacity="1" fill="#000000">
30%
</text>
<polyline fill="none" opacity="1" stroke="#000000" stroke-width="1" points="34,409 39,409 "/>
<text x="30" y="353" dy="0.5ex" text-anchor="end" font-family="sans-serif" font-size="9.67741935483871" opacity="1" fill="#000000">
40%
</text>
<polyline fill="none" opacity="1" stroke="#000000" stroke-width="1" points="34,353 39,353 "/>
<text x="30" y="296" dy="0.5ex" text-anchor="end" font-family="sans-serif" font-size="9.67741935483871" opacity="1" fill="#000000">
50%
</text>
<polyline fill="none" opacity="1" stroke="#000000" stroke-width="1" points="34,296 39,296 "/>
<text x="30" y="240" dy="0.5ex" text-anchor="end" font-family="sans-serif" font-size="9.67741935483871" opacity="1" fill="#000000">
60%
</text>
<polyline fill="none" opacity="1" stroke="#000000" stroke-width="1" points="34,240 39,240 "/>
<text x="30" y="183" dy="0.5ex" text-anchor="end" font-family="sans-serif" font-size="9.67741935483871" opacity="1" fill="#000000">
70%
</text>
<polyline fill="none" opacity="1" stroke="#000000" stroke-width="1" points="34,183 39,183 "/>
<text x="30" y="127" dy="0.5ex" text-anchor="end" font-family="sans-serif" font-size="9.67741935483871" opacity="1" fill="#000000">
80%
</text>
<polyline fill="none" opacity="1" stroke="#000000" stroke-width="1" points="34,127 39,127 "/>
<text x="30" y="71" dy="0.5ex" text-anchor="end" font-family="sans-serif" font-size="9.67741935483871" opacity="1" fill="#000000">
90%
</text>
<polyline fill="none" opacity="1" stroke="#000000" stroke-width="1" points="34,71 39,71 "/>
<text x="30" y="14" dy="0.5ex" text-anchor="end" font-family="sans-serif" font-size="9.67741935483871" opacity="1" fill="#000000">
100%
</text>
<polyline fill="none" opacity="1" stroke="#000000" stroke-width="1" points="34,14 39,14 "/>
<polyline fill="none" opacity="1" stroke="#000000" stroke-width="1" points="40,580 947,580 "/>
<text x="40" y="590" dy="0.76em" text-anchor="middle" font-family="sans-serif" font-size="9.67741935483871" opacity="1" fill="#000000">
2019-03-16
</text>
<polyline fill="none" opacity="1" stroke="#000000" stroke-width="1" points="40,580 40,585 "/>
<text x="140" y="590" dy="0.76em" text-anchor="middle" font-family="sans-serif" font-size="9.67741935483871" opacity="1" fill="#000000">
2019-05-11
</text>
<polyline fill="none" opacity="1" stroke="#000000" stroke-width="1" points="140,580 140,585 "/>
<text x="240" y="590" dy="0.76em" text-anchor="middle" font-family="sans-serif" font-size="9.67741935483871" opacity="1" fill="#000000">
2019-07-06
</text>
<polyline fill="none" opacity="1" stroke="#000000" stroke-width="1" points="240,580 240,585 "/>
<text x="341" y="590" dy="0.76em" text-anchor="middle" font-family="sans-serif" font-size="9.67741935483871" opacity="1" fill="#000000">
2019-08-31
</text>
<polyline fill="none" opacity="1" stroke="#000000" stroke-width="1" points="341,580 341,585 "/>
<text x="441" y="590" dy="0.76em" text-anchor="middle" font-family="sans-serif" font-size="9.67741935483871" opacity="1" fill="#000000">
2019-10-26
</text>
<polyline fill="none" opacity="1" stroke="#000000" stroke-width="1" points="441,580 441,585 "/>
<text x="542" y="590" dy="0.76em" text-anchor="middle" font-family="sans-serif" font-size="9.67741935483871" opacity="1" fill="#000000">
2019-12-21
</text>
<polyline fill="none" opacity="1" stroke="#000000" stroke-width="1" points="542,580 542,585 "/>
<text x="642" y="590" dy="0.76em" text-anchor="middle" font-family="sans-serif" font-size="9.67741935483871" opacity="1" fill="#000000">
2020-02-15
</text>
<polyline fill="none" opacity="1" stroke="#000000" stroke-width="1" points="642,580 642,585 "/>
<text x="743" y="590" dy="0.76em" text-anchor="middle" font-family="sans-serif" font-size="9.67741935483871" opacity="1" fill="#000000">
2020-04-11
</text>
<polyline fill="none" opacity="1" stroke="#000000" stroke-width="1" points="743,580 743,585 "/>
<text x="843" y="590" dy="0.76em" text-anchor="middle" font-family="sans-serif" font-size="9.67741935483871" opacity="1" fill="#000000">
2020-06-06
</text>
<polyline fill="none" opacity="1" stroke="#000000" stroke-width="1" points="843,580 843,585 "/>
<text x="944" y="590" dy="0.76em" text-anchor="middle" font-family="sans-serif" font-size="9.67741935483871" opacity="1" fill="#000000">
2020-08-01
</text>
<polyline fill="none" opacity="1" stroke="#000000" stroke-width="1" points="944,580 944,585 "/>
<polyline fill="none" opacity="1" stroke="#FF0000" stroke-width="1" points="40,578 40,578 48,576 49,575 181,575 186,575 188,575 192,575 196,575 205,573 267,572 268,572 493,571 506,570 539,570 554,569 569,569 569,568 592,568 610,568 618,567 698,567 700,567 702,567 710,566 712,566 713,565 714,565 716,564 719,563 722,562 723,562 725,561 727,561 730,560 732,560 734,559 736,558 738,558 740,557 743,557 744,556 745,556 747,556 749,555 750,555 752,554 754,554 757,553 759,552 761,552 763,551 765,551 767,550 768,550 771,549 772,549 774,548 775,548 778,547 779,547 782,546 784,546 786,545 788,545 790,544 791,544 795,543 797,542 799,542 800,541 802,541 805,540 807,539 808,539 810,538 812,538 814,537 816,537 819,536 821,535 823,535 825,535 826,534 828,534 830,533 832,533 833,532 835,532 837,531 839,531 841,530 842,530 844,529 848,528 850,528 851,527 853,527 855,526 857,526 859,525 860,525 862,525 864,524 866,524 868,523 870,523 871,522 873,522 875,521 877,521 878,520 880,520 882,519 884,519 885,518 887,518 889,517 891,517 893,516 895,516 896,515 898,515 900,514 902,514 903,514 905,513 907,513 909,512 911,512 912,511 914,511 916,510 918,510 920,509 921,509 923,508 925,508 927,507 929,507 930,506 933,506 934,505 936,505 938,504 939,504 941,503 943,503 945,503 947,502 "/>
</svg>
