<svg width="987" height="610" viewBox="0 0 987 610" xmlns="http://www.w3.org/2000/svg">
<line opacity="0.1" stroke="#000000" stroke-width="1" x1="40" y1="579" x2="40" y2="9"/>
<line opacity="0.1" stroke="#000000" stroke-width="1" x1="50" y1="579" x2="50" y2="9"/>
<line opacity="0.1" stroke="#000000" stroke-width="1" x1="61" y1="579" x2="61" y2="9"/>
<line opacity="0.1" stroke="#000000" stroke-width="1" x1="71" y1="579" x2="71" y2="9"/>
<line opacity="0.1" stroke="#000000" stroke-width="1" x1="82" y1="579" x2="82" y2="9"/>
<line opacity="0.1" stroke="#000000" stroke-width="1" x1="93" y1="579" x2="93" y2="9"/>
<line opacity="0.1" stroke="#000000" stroke-width="1" x1="103" y1="579" x2="103" y2="9"/>
<line opacity="0.1" stroke="#000000" stroke-width="1" x1="114" y1="579" x2="114" y2="9"/>
<line opacity="0.1" stroke="#000000" stroke-width="1" x1="125" y1="579" x2="125" y2="9"/>
<line opacity="0.1" stroke="#000000" stroke-width="1" x1="135" y1="579" x2="135" y2="9"/>
<line opacity="0.1" stroke="#000000" stroke-width="1" x1="146" y1="579" x2="146" y2="9"/>
<line opacity="0.1" stroke="#000000" stroke-width="1" x1="156" y1="579" x2="156" y2="9"/>
<line opacity="0.1" stroke="#000000" stroke-width="1" x1="167" y1="579" x2="167" y2="9"/>
<line opacity="0.1" stroke="#000000" stroke-width="1" x1="178" y1="579" x2="178" y2="9"/>
<line opacity="0.1" stroke="#000000" stroke-width="1" x1="188" y1="579" x2="188" y2="9"/>
<line opacity="0.1" stroke="#000000" stroke-width="1" x1="199" y1="579" x2="199" y2="9"/>
<line opacity="0.1" stroke="#000000" stroke-width="1" x1="209" y1="579" x2="209" y2="9"/>
<line opacity="0.1" stroke="#000000" stroke-width="1" x1="220" y1="579" x2="220" y2="9"/>
<line opacity="0.1" stroke="#000000" stroke-width="1" x1="231" y1="579" x2="231" y2="9"/>
<line opacity="0.1" stroke="#000000" stroke-width="1" x1="241" y1="579" x2="241" y2="9"/>
<line opacity="0.1" stroke="#000000" stroke-width="1" x1="252" y1="579" x2="252" y2="9"/>
<line opacity="0.1" stroke="#000000" stroke-width="1" x1="263" y1="579" x2="263" y2="9"/>
<line opacity="0.1" stroke="#000000" stroke-width="1" x1="273" y1="579" x2="273" y2="9"/>
<line opacity="0.1" stroke="#000000" stroke-width="1" x1="284" y1="579" x2="284" y2="9"/>
<line opacity="0.1" stroke="#000000" stroke-width="1" x1="294" y1="579" x2="294" y2="9"/>
<line opacity="0.1" stroke="#000000" stroke-width="1" x1="305" y1="579" x2="305" y2="9"/>
<line opacity="0.1" stroke="#000000" stroke-width="1" x1="316" y1="579" x2="316" y2="9"/>
<line opacity="0.1" stroke="#000000" stroke-width="1" x1="326" y1="579" x2="326" y2="9"/>
<line opacity="0.1" stroke="#000000" stroke-width="1" x1="337" y1="579" x2="337" y2="9"/>
<line opacity="0.1" stroke="#000000" stroke-width="1" x1="348" y1="579" x2="348" y2="9"/>
<line opacity="0.1" stroke="#000000" stroke-width="1" x1="358" y1="579" x2="358" y2="9"/>
<line opacity="0.1" stroke="#000000" stroke-width="1" x1="369" y1="579" x2="369" y2="9"/>
<line opacity="0.1" stroke="#000000" stroke-width="1" x1="379" y1="579" x2="379" y2="9"/>
<line opacity="0.1" stroke="#000000" stroke-width="1" x1="390" y1="579" x2="390" y2="9"/>
<line opacity="0.1" stroke="#000000" stroke-width="1" x1="401" y1="579" x2="401" y2="9"/>
<line opacity="0.1" stroke="#000000" stroke-width="1" x1="411" y1="579" x2="411" y2="9"/>
<line opacity="0.1" stroke="#000000" stroke-width="1" x1="422" y1="579" x2="422" y2="9"/>
<line opacity="0.1" stroke="#000000" stroke-width="1" x1="433" y1="579" x2="433" y2="9"/>
<line opacity="0.1" stroke="#000000" stroke-width="1" x1="443" y1="579" x2="443" y2="9"/>
<line opacity="0.1" stroke="#000000" stroke-width="1" x1="454" y1="579" x2="454" y2="9"/>
<line opacity="0.1" stroke="#000000" stroke-width="1" x1="464" y1="579" x2="464" y2="9"/>
<line opacity="0.1" stroke="#000000" stroke-width="1" x1="475" y1="579" x2="475" y2="9"/>
<line opacity="0.1" stroke="#000000" stroke-width="1" x1="486" y1="579" x2="486" y2="9"/>
<line opacity="0.1" stroke="#000000" stroke-width="1" x1="496" y1="579" x2="496" y2="9"/>
<line opacity="0.1" stroke="#000000" stroke-width="1" x1="507" y1="579" x2="507" y2="9"/>
<line opacity="0.1" stroke="#000000" stroke-width="1" x1="518" y1="579" x2="518" y2="9"/>
<line opacity="0.1" stroke="#000000" stroke-width="1" x1="528" y1="579" x2="528" y2="9"/>
<line opacity="0.1" stroke="#000000" stroke-width="1" x1="539" y1="579" x2="539" y2="9"/>
<line opacity="0.1" stroke="#000000" stroke-width="1" x1="549" y1="579" x2="549" y2="9"/>
<line opacity="0.1" stroke="#000000" stroke-width="1" x1="560" y1="579" x2="560" y2="9"/>
<line opacity="0.1" stroke="#000000" stroke-width="1" x1="571" y1="579" x2="571" y2="9"/>
<line opacity="0.1" stroke="#000000" stroke-width="1" x1="581" y1="579" x2="581" y2="9"/>
<line opacity="0.1" stroke="#000000" stroke-width="1" x1="592" y1="579" x2="592" y2="9"/>
<line opacity="0.1" stroke="#000000" stroke-width="1" x1="603" y1="579" x2="603" y2="9"/>
<line opacity="0.1" stroke="#000000" stroke-width="1" x1="613" y1="579" x2="613" y2="9"/>
<line opacity="0.1" stroke="#000000" stroke-width="1" x1="624" y1="579" x2="624" y2="9"/>
<line opacity="0.1" stroke="#000000" stroke-width="1" x1="634" y1="579" x2="634" y2="9"/>
<line opacity="0.1" stroke="#000000" stroke-width="1" x1="645" y1="579" x2="645" y2="9"/>
<line opacity="0.1" stroke="#000000" stroke-width="1" x1="656" y1="579" x2="656" y2="9"/>
<line opacity="0.1" stroke="#000000" stroke-width="1" x1="666" y1="579" x2="666" y2="9"/>
<line opacity="0.1" stroke="#000000" stroke-width="1" x1="677" y1="579" x2="677" y2="9"/>
<line opacity="0.1" stroke="#000000" stroke-width="1" x1="688" y1="579" x2="688" y2="9"/>
<line opacity="0.1" stroke="#000000" stroke-width="1" x1="698" y1="579" x2="698" y2="9"/>
<line opacity="0.1" stroke="#000000" stroke-width="1" x1="709" y1="579" x2="709" y2="9"/>
<line opacity="0.1" stroke="#000000" stroke-width="1" x1="719" y1="579" x2="719" y2="9"/>
<line opacity="0.1" stroke="#000000" stroke-width="1" x1="730" y1="579" x2="730" y2="9"/>
<line opacity="0.1" stroke="#000000" stroke-width="1" x1="741" y1="579" x2="741" y2="9"/>
<line opacity="0.1" stroke="#000000" stroke-width="1" x1="751" y1="579" x2="751" y2="9"/>
<line opacity="0.1" stroke="#000000" stroke-width="1" x1="762" y1="579" x2="762" y2="9"/>
<line opacity="0.1" stroke="#000000" stroke-width="1" x1="773" y1="579" x2="773" y2="9"/>
<line opacity="0.1" stroke="#000000" stroke-width="1" x1="783" y1="579" x2="783" y2="9"/>
<line opacity="0.1" stroke="#000000" stroke-width="1" x1="794" y1="579" x2="794" y2="9"/>
<line opacity="0.1" stroke="#000000" stroke-width="1" x1="804" y1="579" x2="804" y2="9"/>
<line opacity="0.1" stroke="#000000" stroke-width="1" x1="815" y1="579" x2="815" y2="9"/>
<line opacity="0.1" stroke="#000000" stroke-width="1" x1="826" y1="579" x2="826" y2="9"/>
<line opacity="0.1" stroke="#000000" stroke-width="1" x1="836" y1="579" x2="836" y2="9"/>
<line opacity="0.1" stroke="#000000" stroke-width="1" x1="847" y1="579" x2="847" y2="9"/>
<line opacity="0.1" stroke="#000000" stroke-width="1" x1="858" y1="579" x2="858" y2="9"/>
<line opacity="0.1" stroke="#000000" stroke-width="1" x1="868" y1="579" x2="868" y2="9"/>
<line opacity="0.1" stroke="#000000" stroke-width="1" x1="879" y1="579" x2="879" y2="9"/>
<line opacity="0.1" stroke="#000000" stroke-width="1" x1="889" y1="579" x2="889" y2="9"/>
<line opacity="0.1" stroke="#000000" stroke-width="1" x1="900" y1="579" x2="900" y2="9"/>
<line opacity="0.1" stroke="#000000" stroke-width="1" x1="911" y1="579" x2="911" y2="9"/>
<line opacity="0.1" stroke="#000000" stroke-width="1" x1="921" y1="579" x2="921" y2="9"/>
<line opacity="0.1" stroke="#000000" stroke-width="1" x1="932" y1="579" x2="932" y2="9"/>
<line opacity="0.1" stroke="#000000" stroke-width="1" x1="943" y1="579" x2="943" y2="9"/>
<line opacity="0.1" stroke="#000000" stroke-width="1" x1="40" y1="567" x2="947" y2="567"/>
<line opacity="0.1" stroke="#000000" stroke-width="1" x1="40" y1="556" x2="947" y2="556"/>
<line opacity="0.1" stroke="#000000" stroke-width="1" x1="40" y1="545" x2="947" y2="545"/>
<line opacity="0.1" stroke="#000000" stroke-width="1" x1="40" y1="533" x2="947" y2="533"/>
<line opacity="0.1" stroke="#000000" stroke-width="1" x1="40" y1="522" x2="947" y2="522"/>
<line opacity="0.1" stroke="#000000" stroke-width="1" x1="40" y1="511" x2="947" y2="511"/>
<line opacity="0.1" stroke="#000000" stroke-width="1" x1="40" y1="499" x2="947" y2="499"/>
<line opacity="0.1" stroke="#000000" stroke-width="1" x1="40" y1="488" x2="947" y2="488"/>
<line opacity="0.1" stroke="#000000" stroke-width="1" x1="40" y1="477" x2="947" y2="477"/>
<line opacity="0.1" stroke="#000000" stroke-width="1" x1="40" y1="466" x2="947" y2="466"/>
<line opacity="0.1" stroke="#000000" stroke-width="1" x1="40" y1="454" x2="947" y2="454"/>
<line opacity="0.1" stroke="#000000" stroke-width="1" x1="40" y1="443" x2="947" y2="443"/>
<line opacity="0.1" stroke="#000000" stroke-width="1" x1="40" y1="432" x2="947" y2="432"/>
<line opacity="0.1" stroke="#000000" stroke-width="1" x1="40" y1="420" x2="947" y2="420"/>
<line opacity="0.1" stroke="#000000" stroke-width="1" x1="40" y1="409" x2="947" y2="409"/>
<line opacity="0.1" stroke="#000000" stroke-width="1" x1="40" y1="398" x2="947" y2="398"/>
<line opacity="0.1" stroke="#000000" stroke-width="1" x1="40" y1="387" x2="947" y2="387"/>
<line opacity="0.1" stroke="#000000" stroke-width="1" x1="40" y1="375" x2="947" y2="375"/>
<line opacity="0.1" stroke="#000000" stroke-width="1" x1="40" y1="364" x2="947" y2="364"/>
<line opacity="0.1" stroke="#000000" stroke-width="1" x1="40" y1="353" x2="947" y2="353"/>
<line opacity="0.1" stroke="#000000" stroke-width="1" x1="40" y1="341" x2="947" y2="341"/>
<line opacity="0.1" stroke="#000000" stroke-width="1" x1="40" y1="330" x2="947" y2="330"/>
<line opacity="0.1" stroke="#000000" stroke-width="1" x1="40" y1="319" x2="947" y2="319"/>
<line opacity="0.1" stroke="#000000" stroke-width="1" x1="40" y1="308" x2="947" y2="308"/>
<line opacity="0.1" stroke="#000000" stroke-width="1" x1="40" y1="296" x2="947" y2="296"/>
<line opacity="0.1" stroke="#000000" stroke-width="1" x1="40" y1="285" x2="947" y2="285"/>
<line opacity="0.1" stroke="#000000" stroke-width="1" x1="40" y1="274" x2="947" y2="274"/>
<line opacity="0.1" stroke="#000000" stroke-width="1" x1="40" y1="262" x2="947" y2="262"/>
<line opacity="0.1" stroke="#000000" stroke-width="1" x1="40" y1="251" x2="947" y2="251"/>
<line opacity="0.1" stroke="#000000" stroke-width="1" x1="40" y1="240" x2="947" y2="240"/>
<line opacity="0.1" stroke="#000000" stroke-width="1" x1="40" y1="229" x2="947" y2="229"/>
<line opacity="0.1" stroke="#000000" stroke-width="1" x1="40" y1="217" x2="947" y2="217"/>
<line opacity="0.1" stroke="#000000" stroke-width="1" x1="40" y1="206" x2="947" y2="206"/>
<line opacity="0.1" stroke="#000000" stroke-width="1" x1="40" y1="195" x2="947" y2="195"/>
<line opacity="0.1" stroke="#000000" stroke-width="1" x1="40" y1="183" x2="947" y2="183"/>
<line opacity="0.1" stroke="#000000" stroke-width="1" x1="40" y1="172" x2="947" y2="172"/>
<line opacity="0.1" stroke="#000000" stroke-width="1" x1="40" y1="161" x2="947" y2="161"/>
<line opacity="0.1" stroke="#000000" stroke-width="1" x1="40" y1="150" x2="947" y2="150"/>
<line opacity="0.1" stroke="#000000" stroke-width="1" x1="40" y1="138" x2="947" y2="138"/>
<line opacity="0.1" stroke="#000000" stroke-width="1" x1="40" y1="127" x2="947" y2="127"/>
<line opacity="0.1" stroke="#000000" stroke-width="1" x1="40" y1="116" x2="947" y2="116"/>
<line opacity="0.1" stroke="#000000" stroke-width="1" x1="40" y1="104" x2="947" y2="104"/>
<line opacity="0.1" stroke="#000000" stroke-width="1" x1="40" y1="93" x2="947" y2="93"/>
<line opacity="0.1" stroke="#000000" stroke-width="1" x1="40" y1="82" x2="947" y2="82"/>
<line opacity="0.1" stroke="#000000" stroke-width="1" x1="40" y1="71" x2="947" y2="71"/>
<line opacity="0.1" stroke="#000000" stroke-width="1" x1="40" y1="59" x2="947" y2="59"/>
<line opacity="0.1" stroke="#000000" stroke-width="1" x1="40" y1="48" x2="947" y2="48"/>
<line opacity="0.1" stroke="#000000" stroke-width="1" x1="40" y1="37" x2="947" y2="37"/>
<line opacity="0.1" stroke="#000000" stroke-width="1" x1="40" y1="25" x2="947" y2="25"/>
<line opacity="0.1" stroke="#000000" stroke-width="1" x1="40" y1="14" x2="947" y2="14"/>
<line opacity="0.2" stroke="#000000" stroke-width="1" x1="40" y1="579" x2="40" y2="9"/>
<line opacity="0.2" stroke="#000000" stroke-width="1" x1="135" y1="579" x2="135" y2="9"/>
<line opacity="0.2" stroke="#000000" stroke-width="1" x1="231" y1="579" x2="231" y2="9"/>
<line opacity="0.2" stroke="#000000" stroke-width="1" x1="326" y1="579" x2="326" y2="9"/>
<line opacity="0.2" stroke="#000000" stroke-width="1" x1="422" y1="579" x2="422" y2="9"/>
<line opacity="0.2" stroke="#000000" stroke-width="1" x1="518" y1="579" x2="518" y2="9"/>
<line opacity="0.2" stroke="#000000" stroke-width="1" x1="613" y1="579" x2="613" y2="9"/>
<line opacity="0.2" stroke="#000000" stroke-width="1" x1="709" y1="579" x2="709" y2="9"/>
<line opacity="0.2" stroke="#000000" stroke-width="1" x1="804" y1="579" x2="804" y2="9"/>
<line opacity="0.2" stroke="#000000" stroke-width="1" x1="900" y1="579" x2="900" y2="9"/>
<line opacity="0.2" stroke="#000000" stroke-width="1" x1="40" y1="522" x2="947" y2="522"/>
<line opacity="0.2" stroke="#000000" stroke-width="1" x1="40" y1="466" x2="947" y2="466"/>
<line opacity="0.2" stroke="#000000" stroke-width="1" x1="40" y1="409" x2="947" y2="409"/>
<line opacity="0.2" stroke="#000000" stroke-width="1" x1="40" y1="353" x2="947" y2="353"/>
<line opacity="0.2" stroke="#000000" stroke-width="1" x1="40" y1="296" x2="947" y2="296"/>
<line opacity="0.2" stroke="#000000" stroke-width="1" x1="40" y1="240" x2="947" y2="240"/>
<line opacity="0.2" stroke="#000000" stroke-width="1" x1="40" y1="183" x2="947" y2="183"/>
<line opacity="0.2" stroke="#000000" stroke-width="1" x1="40" y1="127" x2="947" y2="127"/>
<line opacity="0.2" stroke="#000000" stroke-width="1" x1="40" y1="71" x2="947" y2="71"/>
<line opacity="0.2" stroke="#000000" stroke-width="1" x1="40" y1="14" x2="947" y2="14"/>
<polyline fill="none" opacity="1" stroke="#000000" stroke-width="1" points="39,10 39,580 "/>
<text x="30" y="522" dy="0.5ex" text-anchor="end" font-family="sans-serif" font-size="9.67741935483871" opacity="1" fill="#000000">
10%
</text>
<polyline fill="none" opacity="1" stroke="#000000" stroke-width="1" points="34,522 39,522 "/>
<text x="30" y="466" dy="0.5ex" text-anchor="end" font-family="sans-serif" font-size="9.67741935483871" opacity="1" fill="#000000">
20%
</text>
<polyline fill="none" opacity="1" stroke="#000000" stroke-width="1" points="34,466 39,466 "/>
<text x="30" y="409" dy="0.5ex" text-anchor="end" font-family="sans-serif" font-size="9.67741935483871" opacity="1" fill="#000000">
30%
</text>
<polyline fill="none" opacity="1" stroke="#000000" stroke-width="1" points="34,409 39,409 "/>
<text x="30" y="353" dy="0.5ex" text-anchor="end" font-family="sans-serif" font-size="9.67741935483871" opacity="1" fill="#000000">
40%
</text>
<polyline fill="none" opacity="1" stroke="#000000" stroke-width="1" points="34,353 39,353 "/>
<text x="30" y="296" dy="0.5ex" text-anchor="end" font-family="sans-serif" font-size="9.67741935483871" opacity="1" fill="#000000">
50%
</text>
<polyline fill="none" opacity="1" stroke="#000000" stroke-width="1" points="34,296 39,296 "/>
<text x="30" y="240" dy="0.5ex" text-anchor="end" font-family="sans-serif" font-size="9.67741935483871" opacity="1" fill="#000000">
60%
</text>
<polyline fill="none" opacity="1" stroke="#000000" stroke-width="1" points="34,240 39,240 "/>
<text x="30" y="183" dy="0.5ex" text-anchor="end" font-family="sans-serif" font-size="9.67741935483871" opacity="1" fill="#000000">
70%
</text>
<polyline fill="none" opacity="1" stroke="#000000" stroke-width="1" points="34,183 39,183 "/>
<text x="30" y="127" dy="0.5ex" text-anchor="end" font-family="sans-serif" font-size="9.67741935483871" opacity="1" fill="#000000">
80%
</text>
<polyline fill="none" opacity="1" stroke="#000000" stroke-width="1" points="34,127 39,127 "/>
<text x="30" y="71" dy="0.5ex" text-anchor="end" font-family="sans-serif" font-size="9.67741935483871" opacity="1" fill="#000000">
90%
</text>
<polyline fill="none" opacity="1" stroke="#000000" stroke-width="1" points="34,71 39,71 "/>
<text x="30" y="14" dy="0.5ex" text-anchor="end" font-family="sans-serif" font-size="9.67741935483871" opacity="1" fill="#000000">
100%
</text>
<polyline fill="none" opacity="1" stroke="#000000" stroke-width="1" points="34,14 39,14 "/>
<polyline fill="none" opacity="1" stroke="#000000" stroke-width="1" points="40,580 947,580 "/>
<text x="40" y="590" dy="0.76em" text-anchor="middle" font-family="sans-serif" font-size="9.67741935483871" opacity="1" fill="#000000">
2019-03-16
</text>
<polyline fill="none" opacity="1" stroke="#000000" stroke-width="1" points="40,580 40,585 "/>
<text x="135" y="590" dy="0.76em" text-anchor="middle" font-family="sans-serif" font-size="9.67741935483871" opacity="1" fill="#000000">
2019-05-18
</text>
<polyline fill="none" opacity="1" stroke="#000000" stroke-width="1" points="135,580 135,585 "/>
<text x="231" y="590" dy="0.76em" text-anchor="middle" font-family="sans-serif" font-size="9.67741935483871" opacity="1" fill="#000000">
2019-07-20
</text>
<polyline fill="none" opacity="1" stroke="#000000" stroke-width="1" points="231,580 231,585 "/>
<text x="326" y="590" dy="0.76em" text-anchor="middle" font-family="sans-serif" font-size="9.67741935483871" opacity="1" fill="#000000">
2019-09-21
</text>
<polyline fill="none" opacity="1" stroke="#000000" stroke-width="1" points="326,580 326,585 "/>
<text x="422" y="590" dy="0.76em" text-anchor="middle" font-family="sans-serif" font-size="9.67741935483871" opacity="1" fill="#000000">
2019-11-23
</text>
<polyline fill="none" opacity="1" stroke="#000000" stroke-width="1" points="422,580 422,585 "/>
<text x="518" y="590" dy="0.76em" text-anchor="middle" font-family="sans-serif" font-size="9.67741935483871" opacity="1" fill="#000000">
2020-01-25
</text>
<polyline fill="none" opacity="1" stroke="#000000" stroke-width="1" points="518,580 518,585 "/>
<text x="613" y="590" dy="0.76em" text-anchor="middle" font-family="sans-serif" font-size="9.67741935483871" opacity="1" fill="#000000">
2020-03-28
</text>
<polyline fill="none" opacity="1" stroke="#000000" stroke-width="1" points="613,580 613,585 "/>
<text x="709" y="590" dy="0.76em" text-anchor="middle" font-family="sans-serif" font-size="9.67741935483871" opacity="1" fill="#000000">
2020-05-30
</text>
<polyline fill="none" opacity="1" stroke="#000000" stroke-width="1" points="709,580 709,585 "/>
<text x="804" y="590" dy="0.76em" text-anchor="middle" font-family="sans-serif" font-size="9.67741935483871" opacity="1" fill="#000000">
2020-08-01
</text>
<polyline fill="none" opacity="1" stroke="#000000" stroke-width="1" points="804,580 804,585 "/>
<text x="900" y="590" dy="0.76em" text-anchor="middle" font-family="sans-serif" font-size="9.67741935483871" opacity="1" fill="#000000">
2020-10-03
</text>
<polyline fill="none" opacity="1" stroke="#000000" stroke-width="1" points="900,580 900,585 "/>
<polyline fill="none" opacity="1" stroke="#FF0000" stroke-width="1" points="40,578 40,578 47,576 47,575 160,575 163,575 165,575 169,575 172,575 180,574 232,572 233,572 423,571 434,571 462,570 475,570 487,570 487,569 507,569 522,569 529,568 597,568 598,567 600,567 607,567 608,566 609,566 611,566 612,565 614,564 617,563 618,563 619,562 621,562 623,561 625,561 627,560 629,560 631,559 632,559 634,558 636,557 636,557 638,557 639,557 641,556 642,556 644,555 646,554 648,554 650,553 651,553 653,553 655,552 656,552 658,551 659,551 661,550 662,550 665,549 665,549 668,548 669,548 671,547 673,547 674,546 676,546 678,545 680,544 682,544 683,544 685,543 687,542 689,542 690,541 692,541 693,540 695,540 696,540 699,539 701,538 702,538 704,537 705,537 707,536 708,536 710,536 711,535 713,535 714,534 716,534 717,533 719,533 721,532 723,532 725,531 726,531 728,530 729,530 731,529 733,529 734,528 736,528 737,527 739,527 740,527 742,526 743,526 745,525 746,525 748,524 749,524 751,523 752,523 754,523 755,522 757,522 758,521 760,521 761,520 763,520 764,519 766,519 767,519 769,518 770,518 772,517 774,517 775,516 777,516 778,515 780,515 781,515 783,514 784,514 786,513 787,513 789,512 790,512 792,511 793,511 795,510 796,510 798,510 799,509 801,509 802,508 804,508 805,507 807,507 808,506 810,506 811,506 813,505 815,505 816,504 818,504 819,503 821,503 822,502 824,502 825,502 827,501 828,501 830,500 833,499 834,499 836,498 839,497 840,497 842,497 843,496 845,496 846,495 849,494 851,494 852,493 854,493 855,493 857,492 860,491 862,491 863,490 865,490 866,489 868,489 871,488 872,488 874,487 875,487 877,486 878,486 881,485 883,485 884,484 886,484 887,483 889,483 890,482 892,482 893,481 895,481 898,480 899,480 901,479 903,479 904,478 906,478 907,477 909,477 910,476 912,476 913,476 915,475 916,475 918,474 919,474 921,473 924,472 925,472 927,472 928,471 930,471 931,470 933,470 934,469 936,469 937,468 939,468 940,468 942,467 944,467 945,466 947,466 "/>
</svg>
