<svg width="987" height="610" viewBox="0 0 987 610" xmlns="http://www.w3.org/2000/svg">
<line opacity="0.1" stroke="#000000" stroke-width="1" x1="40" y1="579" x2="40" y2="9"/>
<line opacity="0.1" stroke="#000000" stroke-width="1" x1="50" y1="579" x2="50" y2="9"/>
<line opacity="0.1" stroke="#000000" stroke-width="1" x1="60" y1="579" x2="60" y2="9"/>
<line opacity="0.1" stroke="#000000" stroke-width="1" x1="70" y1="579" x2="70" y2="9"/>
<line opacity="0.1" stroke="#000000" stroke-width="1" x1="80" y1="579" x2="80" y2="9"/>
<line opacity="0.1" stroke="#000000" stroke-width="1" x1="90" y1="579" x2="90" y2="9"/>
<line opacity="0.1" stroke="#000000" stroke-width="1" x1="100" y1="579" x2="100" y2="9"/>
<line opacity="0.1" stroke="#000000" stroke-width="1" x1="110" y1="579" x2="110" y2="9"/>
<line opacity="0.1" stroke="#000000" stroke-width="1" x1="120" y1="579" x2="120" y2="9"/>
<line opacity="0.1" stroke="#000000" stroke-width="1" x1="130" y1="579" x2="130" y2="9"/>
<line opacity="0.1" stroke="#000000" stroke-width="1" x1="140" y1="579" x2="140" y2="9"/>
<line opacity="0.1" stroke="#000000" stroke-width="1" x1="150" y1="579" x2="150" y2="9"/>
<line opacity="0.1" stroke="#000000" stroke-width="1" x1="160" y1="579" x2="160" y2="9"/>
<line opacity="0.1" stroke="#000000" stroke-width="1" x1="170" y1="579" x2="170" y2="9"/>
<line opacity="0.1" stroke="#000000" stroke-width="1" x1="180" y1="579" x2="180" y2="9"/>
<line opacity="0.1" stroke="#000000" stroke-width="1" x1="190" y1="579" x2="190" y2="9"/>
<line opacity="0.1" stroke="#000000" stroke-width="1" x1="200" y1="579" x2="200" y2="9"/>
<line opacity="0.1" stroke="#000000" stroke-width="1" x1="210" y1="579" x2="210" y2="9"/>
<line opacity="0.1" stroke="#000000" stroke-width="1" x1="220" y1="579" x2="220" y2="9"/>
<line opacity="0.1" stroke="#000000" stroke-width="1" x1="230" y1="579" x2="230" y2="9"/>
<line opacity="0.1" stroke="#000000" stroke-width="1" x1="240" y1="579" x2="240" y2="9"/>
<line opacity="0.1" stroke="#000000" stroke-width="1" x1="250" y1="579" x2="250" y2="9"/>
<line opacity="0.1" stroke="#000000" stroke-width="1" x1="260" y1="579" x2="260" y2="9"/>
<line opacity="0.1" stroke="#000000" stroke-width="1" x1="270" y1="579" x2="270" y2="9"/>
<line opacity="0.1" stroke="#000000" stroke-width="1" x1="280" y1="579" x2="280" y2="9"/>
<line opacity="0.1" stroke="#000000" stroke-width="1" x1="290" y1="579" x2="290" y2="9"/>
<line opacity="0.1" stroke="#000000" stroke-width="1" x1="300" y1="579" x2="300" y2="9"/>
<line opacity="0.1" stroke="#000000" stroke-width="1" x1="310" y1="579" x2="310" y2="9"/>
<line opacity="0.1" stroke="#000000" stroke-width="1" x1="320" y1="579" x2="320" y2="9"/>
<line opacity="0.1" stroke="#000000" stroke-width="1" x1="330" y1="579" x2="330" y2="9"/>
<line opacity="0.1" stroke="#000000" stroke-width="1" x1="340" y1="579" x2="340" y2="9"/>
<line opacity="0.1" stroke="#000000" stroke-width="1" x1="350" y1="579" x2="350" y2="9"/>
<line opacity="0.1" stroke="#000000" stroke-width="1" x1="360" y1="579" x2="360" y2="9"/>
<line opacity="0.1" stroke="#000000" stroke-width="1" x1="370" y1="579" x2="370" y2="9"/>
<line opacity="0.1" stroke="#000000" stroke-width="1" x1="380" y1="579" x2="380" y2="9"/>
<line opacity="0.1" stroke="#000000" stroke-width="1" x1="390" y1="579" x2="390" y2="9"/>
<line opacity="0.1" stroke="#000000" stroke-width="1" x1="400" y1="579" x2="400" y2="9"/>
<line opacity="0.1" stroke="#000000" stroke-width="1" x1="410" y1="579" x2="410" y2="9"/>
<line opacity="0.1" stroke="#000000" stroke-width="1" x1="420" y1="579" x2="420" y2="9"/>
<line opacity="0.1" stroke="#000000" stroke-width="1" x1="430" y1="579" x2="430" y2="9"/>
<line opacity="0.1" stroke="#000000" stroke-width="1" x1="440" y1="579" x2="440" y2="9"/>
<line opacity="0.1" stroke="#000000" stroke-width="1" x1="450" y1="579" x2="450" y2="9"/>
<line opacity="0.1" stroke="#000000" stroke-width="1" x1="460" y1="579" x2="460" y2="9"/>
<line opacity="0.1" stroke="#000000" stroke-width="1" x1="470" y1="579" x2="470" y2="9"/>
<line opacity="0.1" stroke="#000000" stroke-width="1" x1="480" y1="579" x2="480" y2="9"/>
<line opacity="0.1" stroke="#000000" stroke-width="1" x1="490" y1="579" x2="490" y2="9"/>
<line opacity="0.1" stroke="#000000" stroke-width="1" x1="500" y1="579" x2="500" y2="9"/>
<line opacity="0.1" stroke="#000000" stroke-width="1" x1="510" y1="579" x2="510" y2="9"/>
<line opacity="0.1" stroke="#000000" stroke-width="1" x1="520" y1="579" x2="520" y2="9"/>
<line opacity="0.1" stroke="#000000" stroke-width="1" x1="530" y1="579" x2="530" y2="9"/>
<line opacity="0.1" stroke="#000000" stroke-width="1" x1="540" y1="579" x2="540" y2="9"/>
<line opacity="0.1" stroke="#000000" stroke-width="1" x1="550" y1="579" x2="550" y2="9"/>
<line opacity="0.1" stroke="#000000" stroke-width="1" x1="560" y1="579" x2="560" y2="9"/>
<line opacity="0.1" stroke="#000000" stroke-width="1" x1="570" y1="579" x2="570" y2="9"/>
<line opacity="0.1" stroke="#000000" stroke-width="1" x1="580" y1="579" x2="580" y2="9"/>
<line opacity="0.1" stroke="#000000" stroke-width="1" x1="590" y1="579" x2="590" y2="9"/>
<line opacity="0.1" stroke="#000000" stroke-width="1" x1="600" y1="579" x2="600" y2="9"/>
<line opacity="0.1" stroke="#000000" stroke-width="1" x1="610" y1="579" x2="610" y2="9"/>
<line opacity="0.1" stroke="#000000" stroke-width="1" x1="620" y1="579" x2="620" y2="9"/>
<line opacity="0.1" stroke="#000000" stroke-width="1" x1="630" y1="579" x2="630" y2="9"/>
<line opacity="0.1" stroke="#000000" stroke-width="1" x1="640" y1="579" x2="640" y2="9"/>
<line opacity="0.1" stroke="#000000" stroke-width="1" x1="650" y1="579" x2="650" y2="9"/>
<line opacity="0.1" stroke="#000000" stroke-width="1" x1="660" y1="579" x2="660" y2="9"/>
<line opacity="0.1" stroke="#000000" stroke-width="1" x1="670" y1="579" x2="670" y2="9"/>
<line opacity="0.1" stroke="#000000" stroke-width="1" x1="680" y1="579" x2="680" y2="9"/>
<line opacity="0.1" stroke="#000000" stroke-width="1" x1="690" y1="579" x2="690" y2="9"/>
<line opacity="0.1" stroke="#000000" stroke-width="1" x1="700" y1="579" x2="700" y2="9"/>
<line opacity="0.1" stroke="#000000" stroke-width="1" x1="710" y1="579" x2="710" y2="9"/>
<line opacity="0.1" stroke="#000000" stroke-width="1" x1="720" y1="579" x2="720" y2="9"/>
<line opacity="0.1" stroke="#000000" stroke-width="1" x1="730" y1="579" x2="730" y2="9"/>
<line opacity="0.1" stroke="#000000" stroke-width="1" x1="740" y1="579" x2="740" y2="9"/>
<line opacity="0.1" stroke="#000000" stroke-width="1" x1="750" y1="579" x2="750" y2="9"/>
<line opacity="0.1" stroke="#000000" stroke-width="1" x1="760" y1="579" x2="760" y2="9"/>
<line opacity="0.1" stroke="#000000" stroke-width="1" x1="770" y1="579" x2="770" y2="9"/>
<line opacity="0.1" stroke="#000000" stroke-width="1" x1="780" y1="579" x2="780" y2="9"/>
<line opacity="0.1" stroke="#000000" stroke-width="1" x1="790" y1="579" x2="790" y2="9"/>
<line opacity="0.1" stroke="#000000" stroke-width="1" x1="800" y1="579" x2="800" y2="9"/>
<line opacity="0.1" stroke="#000000" stroke-width="1" x1="810" y1="579" x2="810" y2="9"/>
<line opacity="0.1" stroke="#000000" stroke-width="1" x1="820" y1="579" x2="820" y2="9"/>
<line opacity="0.1" stroke="#000000" stroke-width="1" x1="830" y1="579" x2="830" y2="9"/>
<line opacity="0.1" stroke="#000000" stroke-width="1" x1="840" y1="579" x2="840" y2="9"/>
<line opacity="0.1" stroke="#000000" stroke-width="1" x1="850" y1="579" x2="850" y2="9"/>
<line opacity="0.1" stroke="#000000" stroke-width="1" x1="860" y1="579" x2="860" y2="9"/>
<line opacity="0.1" stroke="#000000" stroke-width="1" x1="870" y1="579" x2="870" y2="9"/>
<line opacity="0.1" stroke="#000000" stroke-width="1" x1="880" y1="579" x2="880" y2="9"/>
<line opacity="0.1" stroke="#000000" stroke-width="1" x1="890" y1="579" x2="890" y2="9"/>
<line opacity="0.1" stroke="#000000" stroke-width="1" x1="900" y1="579" x2="900" y2="9"/>
<line opacity="0.1" stroke="#000000" stroke-width="1" x1="910" y1="579" x2="910" y2="9"/>
<line opacity="0.1" stroke="#000000" stroke-width="1" x1="920" y1="579" x2="920" y2="9"/>
<line opacity="0.1" stroke="#000000" stroke-width="1" x1="930" y1="579" x2="930" y2="9"/>
<line opacity="0.1" stroke="#000000" stroke-width="1" x1="940" y1="579" x2="940" y2="9"/>
<line opacity="0.1" stroke="#000000" stroke-width="1" x1="40" y1="567" x2="947" y2="567"/>
<line opacity="0.1" stroke="#000000" stroke-width="1" x1="40" y1="556" x2="947" y2="556"/>
<line opacity="0.1" stroke="#000000" stroke-width="1" x1="40" y1="545" x2="947" y2="545"/>
<line opacity="0.1" stroke="#000000" stroke-width="1" x1="40" y1="533" x2="947" y2="533"/>
<line opacity="0.1" stroke="#000000" stroke-width="1" x1="40" y1="522" x2="947" y2="522"/>
<line opacity="0.1" stroke="#000000" stroke-width="1" x1="40" y1="511" x2="947" y2="511"/>
<line opacity="0.1" stroke="#000000" stroke-width="1" x1="40" y1="499" x2="947" y2="499"/>
<line opacity="0.1" stroke="#000000" stroke-width="1" x1="40" y1="488" x2="947" y2="488"/>
<line opacity="0.1" stroke="#000000" stroke-width="1" x1="40" y1="477" x2="947" y2="477"/>
<line opacity="0.1" stroke="#000000" stroke-width="1" x1="40" y1="466" x2="947" y2="466"/>
<line opacity="0.1" stroke="#000000" stroke-width="1" x1="40" y1="454" x2="947" y2="454"/>
<line opacity="0.1" stroke="#000000" stroke-width="1" x1="40" y1="443" x2="947" y2="443"/>
<line opacity="0.1" stroke="#000000" stroke-width="1" x1="40" y1="432" x2="947" y2="432"/>
<line opacity="0.1" stroke="#000000" stroke-width="1" x1="40" y1="420" x2="947" y2="420"/>
<line opacity="0.1" stroke="#000000" stroke-width="1" x1="40" y1="409" x2="947" y2="409"/>
<line opacity="0.1" stroke="#000000" stroke-width="1" x1="40" y1="398" x2="947" y2="398"/>
<line opacity="0.1" stroke="#000000" stroke-width="1" x1="40" y1="387" x2="947" y2="387"/>
<line opacity="0.1" stroke="#000000" stroke-width="1" x1="40" y1="375" x2="947" y2="375"/>
<line opacity="0.1" stroke="#000000" stroke-width="1" x1="40" y1="364" x2="947" y2="364"/>
<line opacity="0.1" stroke="#000000" stroke-width="1" x1="40" y1="353" x2="947" y2="353"/>
<line opacity="0.1" stroke="#000000" stroke-width="1" x1="40" y1="341" x2="947" y2="341"/>
<line opacity="0.1" stroke="#000000" stroke-width="1" x1="40" y1="330" x2="947" y2="330"/>
<line opacity="0.1" stroke="#000000" stroke-width="1" x1="40" y1="319" x2="947" y2="319"/>
<line opacity="0.1" stroke="#000000" stroke-width="1" x1="40" y1="308" x2="947" y2="308"/>
<line opacity="0.1" stroke="#000000" stroke-width="1" x1="40" y1="296" x2="947" y2="296"/>
<line opacity="0.1" stroke="#000000" stroke-width="1" x1="40" y1="285" x2="947" y2="285"/>
<line opacity="0.1" stroke="#000000" stroke-width="1" x1="40" y1="274" x2="947" y2="274"/>
<line opacity="0.1" stroke="#000000" stroke-width="1" x1="40" y1="262" x2="947" y2="262"/>
<line opacity="0.1" stroke="#000000" stroke-width="1" x1="40" y1="251" x2="947" y2="251"/>
<line opacity="0.1" stroke="#000000" stroke-width="1" x1="40" y1="240" x2="947" y2="240"/>
<line opacity="0.1" stroke="#000000" stroke-width="1" x1="40" y1="229" x2="947" y2="229"/>
<line opacity="0.1" stroke="#000000" stroke-width="1" x1="40" y1="217" x2="947" y2="217"/>
<line opacity="0.1" stroke="#000000" stroke-width="1" x1="40" y1="206" x2="947" y2="206"/>
<line opacity="0.1" stroke="#000000" stroke-width="1" x1="40" y1="195" x2="947" y2="195"/>
<line opacity="0.1" stroke="#000000" stroke-width="1" x1="40" y1="183" x2="947" y2="183"/>
<line opacity="0.1" stroke="#000000" stroke-width="1" x1="40" y1="172" x2="947" y2="172"/>
<line opacity="0.1" stroke="#000000" stroke-width="1" x1="40" y1="161" x2="947" y2="161"/>
<line opacity="0.1" stroke="#000000" stroke-width="1" x1="40" y1="150" x2="947" y2="150"/>
<line opacity="0.1" stroke="#000000" stroke-width="1" x1="40" y1="138" x2="947" y2="138"/>
<line opacity="0.1" stroke="#000000" stroke-width="1" x1="40" y1="127" x2="947" y2="127"/>
<line opacity="0.1" stroke="#000000" stroke-width="1" x1="40" y1="116" x2="947" y2="116"/>
<line opacity="0.1" stroke="#000000" stroke-width="1" x1="40" y1="104" x2="947" y2="104"/>
<line opacity="0.1" stroke="#000000" stroke-width="1" x1="40" y1="93" x2="947" y2="93"/>
<line opacity="0.1" stroke="#000000" stroke-width="1" x1="40" y1="82" x2="947" y2="82"/>
<line opacity="0.1" stroke="#000000" stroke-width="1" x1="40" y1="71" x2="947" y2="71"/>
<line opacity="0.1" stroke="#000000" stroke-width="1" x1="40" y1="59" x2="947" y2="59"/>
<line opacity="0.1" stroke="#000000" stroke-width="1" x1="40" y1="48" x2="947" y2="48"/>
<line opacity="0.1" stroke="#000000" stroke-width="1" x1="40" y1="37" x2="947" y2="37"/>
<line opacity="0.1" stroke="#000000" stroke-width="1" x1="40" y1="25" x2="947" y2="25"/>
<line opacity="0.1" stroke="#000000" stroke-width="1" x1="40" y1="14" x2="947" y2="14"/>
<line opacity="0.2" stroke="#000000" stroke-width="1" x1="40" y1="579" x2="40" y2="9"/>
<line opacity="0.2" stroke="#000000" stroke-width="1" x1="130" y1="579" x2="130" y2="9"/>
<line opacity="0.2" stroke="#000000" stroke-width="1" x1="220" y1="579" x2="220" y2="9"/>
<line opacity="0.2" stroke="#000000" stroke-width="1" x1="310" y1="579" x2="310" y2="9"/>
<line opacity="0.2" stroke="#000000" stroke-width="1" x1="400" y1="579" x2="400" y2="9"/>
<line opacity="0.2" stroke="#000000" stroke-width="1" x1="490" y1="579" x2="490" y2="9"/>
<line opacity="0.2" stroke="#000000" stroke-width="1" x1="580" y1="579" x2="580" y2="9"/>
<line opacity="0.2" stroke="#000000" stroke-width="1" x1="670" y1="579" x2="670" y2="9"/>
<line opacity="0.2" stroke="#000000" stroke-width="1" x1="760" y1="579" x2="760" y2="9"/>
<line opacity="0.2" stroke="#000000" stroke-width="1" x1="850" y1="579" x2="850" y2="9"/>
<line opacity="0.2" stroke="#000000" stroke-width="1" x1="940" y1="579" x2="940" y2="9"/>
<line opacity="0.2" stroke="#000000" stroke-width="1" x1="40" y1="522" x2="947" y2="522"/>
<line opacity="0.2" stroke="#000000" stroke-width="1" x1="40" y1="466" x2="947" y2="466"/>
<line opacity="0.2" stroke="#000000" stroke-width="1" x1="40" y1="409" x2="947" y2="409"/>
<line opacity="0.2" stroke="#000000" stroke-width="1" x1="40" y1="353" x2="947" y2="353"/>
<line opacity="0.2" stroke="#000000" stroke-width="1" x1="40" y1="296" x2="947" y2="296"/>
<line opacity="0.2" stroke="#000000" stroke-width="1" x1="40" y1="240" x2="947" y2="240"/>
<line opacity="0.2" stroke="#000000" stroke-width="1" x1="40" y1="183" x2="947" y2="183"/>
<line opacity="0.2" stroke="#000000" stroke-width="1" x1="40" y1="127" x2="947" y2="127"/>
<line opacity="0.2" stroke="#000000" stroke-width="1" x1="40" y1="71" x2="947" y2="71"/>
<line opacity="0.2" stroke="#000000" stroke-width="1" x1="40" y1="14" x2="947" y2="14"/>
<polyline fill="none" opacity="1" stroke="#000000" stroke-width="1" points="39,10 39,580 "/>
<text x="30" y="522" dy="0.5ex" text-anchor="end" font-family="sans-serif" font-size="9.67741935483871" opacity="1" fill="#000000">
10%
</text>
<polyline fill="none" opacity="1" stroke="#000000" stroke-width="1" points="34,522 39,522 "/>
<text x="30" y="466" dy="0.5ex" text-anchor="end" font-family="sans-serif" font-size="9.67741935483871" opacity="1" fill="#000000">
20%
</text>
<polyline fill="none" opacity="1" stroke="#000000" stroke-width="1" points="34,466 39,466 "/>
<text x="30" y="409" dy="0.5ex" text-anchor="end" font-family="sans-serif" font-size="9.67741935483871" opacity="1" fill="#000000">
30%
</text>
<polyline fill="none" opacity="1" stroke="#000000" stroke-width="1" points="34,409 39,409 "/>
<text x="30" y="353" dy="0.5ex" text-anchor="end" font-family="sans-serif" font-size="9.67741935483871" opacity="1" fill="#000000">
40%
</text>
<polyline fill="none" opacity="1" stroke="#000000" stroke-width="1" points="34,353 39,353 "/>
<text x="30" y="296" dy="0.5ex" text-anchor="end" font-family="sans-serif" font-size="9.67741935483871" opacity="1" fill="#000000">
50%
</text>
<polyline fill="none" opacity="1" stroke="#000000" stroke-width="1" points="34,296 39,296 "/>
<text x="30" y="240" dy="0.5ex" text-anchor="end" font-family="sans-serif" font-size="9.67741935483871" opacity="1" fill="#000000">
60%
</text>
<polyline fill="none" opacity="1" stroke="#000000" stroke-width="1" points="34,240 39,240 "/>
<text x="30" y="183" dy="0.5ex" text-anchor="end" font-family="sans-serif" font-size="9.67741935483871" opacity="1" fill="#000000">
70%
</text>
<polyline fill="none" opacity="1" stroke="#000000" stroke-width="1" points="34,183 39,183 "/>
<text x="30" y="127" dy="0.5ex" text-anchor="end" font-family="sans-serif" font-size="9.67741935483871" opacity="1" fill="#000000">
80%
</text>
<polyline fill="none" opacity="1" stroke="#000000" stroke-width="1" points="34,127 39,127 "/>
<text x="30" y="71" dy="0.5ex" text-anchor="end" font-family="sans-serif" font-size="9.67741935483871" opacity="1" fill="#000000">
90%
</text>
<polyline fill="none" opacity="1" stroke="#000000" stroke-width="1" points="34,71 39,71 "/>
<text x="30" y="14" dy="0.5ex" text-anchor="end" font-family="sans-serif" font-size="9.67741935483871" opacity="1" fill="#000000">
100%
</text>
<polyline fill="none" opacity="1" stroke="#000000" stroke-width="1" points="34,14 39,14 "/>
<polyline fill="none" opacity="1" stroke="#000000" stroke-width="1" points="40,580 947,580 "/>
<text x="40" y="590" dy="0.76em" text-anchor="middle" font-family="sans-serif" font-size="9.67741935483871" opacity="1" fill="#000000">
2019-03-16
</text>
<polyline fill="none" opacity="1" stroke="#000000" stroke-width="1" points="40,580 40,585 "/>
<text x="130" y="590" dy="0.76em" text-anchor="middle" font-family="sans-serif" font-size="9.67741935483871" opacity="1" fill="#000000">
2019-05-18
</text>
<polyline fill="none" opacity="1" stroke="#000000" stroke-width="1" points="130,580 130,585 "/>
<text x="220" y="590" dy="0.76em" text-anchor="middle" font-family="sans-serif" font-size="9.67741935483871" opacity="1" fill="#000000">
2019-07-20
</text>
<polyline fill="none" opacity="1" stroke="#000000" stroke-width="1" points="220,580 220,585 "/>
<text x="310" y="590" dy="0.76em" text-anchor="middle" font-family="sans-serif" font-size="9.67741935483871" opacity="1" fill="#000000">
2019-09-21
</text>
<polyline fill="none" opacity="1" stroke="#000000" stroke-width="1" points="310,580 310,585 "/>
<text x="400" y="590" dy="0.76em" text-anchor="middle" font-family="sans-serif" font-size="9.67741935483871" opacity="1" fill="#000000">
2019-11-23
</text>
<polyline fill="none" opacity="1" stroke="#000000" stroke-width="1" points="400,580 400,585 "/>
<text x="490" y="590" dy="0.76em" text-anchor="middle" font-family="sans-serif" font-size="9.67741935483871" opacity="1" fill="#000000">
2020-01-25
</text>
<polyline fill="none" opacity="1" stroke="#000000" stroke-width="1" points="490,580 490,585 "/>
<text x="580" y="590" dy="0.76em" text-anchor="middle" font-family="sans-serif" font-size="9.67741935483871" opacity="1" fill="#000000">
2020-03-28
</text>
<polyline fill="none" opacity="1" stroke="#000000" stroke-width="1" points="580,580 580,585 "/>
<text x="670" y="590" dy="0.76em" text-anchor="middle" font-family="sans-serif" font-size="9.67741935483871" opacity="1" fill="#000000">
2020-05-30
</text>
<polyline fill="none" opacity="1" stroke="#000000" stroke-width="1" points="670,580 670,585 "/>
<text x="760" y="590" dy="0.76em" text-anchor="middle" font-family="sans-serif" font-size="9.67741935483871" opacity="1" fill="#000000">
2020-08-01
</text>
<polyline fill="none" opacity="1" stroke="#000000" stroke-width="1" points="760,580 760,585 "/>
<text x="850" y="590" dy="0.76em" text-anchor="middle" font-family="sans-serif" font-size="9.67741935483871" opacity="1" fill="#000000">
2020-10-03
</text>
<polyline fill="none" opacity="1" stroke="#000000" stroke-width="1" points="850,580 850,585 "/>
<text x="940" y="590" dy="0.76em" text-anchor="middle" font-family="sans-serif" font-size="9.67741935483871" opacity="1" fill="#000000">
2020-12-05
</text>
<polyline fill="none" opacity="1" stroke="#000000" stroke-width="1" points="940,580 940,585 "/>
<polyline fill="none" opacity="1" stroke="#FF0000" stroke-width="1" points="40,578 40,578 46,576 47,575 153,575 156,575 158,575 161,575 164,575 171,574 221,572 221,572 401,571 411,571 437,571 449,570 461,570 461,569 480,569 494,569 501,568 564,568 566,568 567,568 574,567 575,567 576,566 577,566 579,565 581,564 583,564 584,563 586,563 587,562 589,561 591,561 593,561 594,560 596,560 597,559 600,558 601,558 601,558 603,557 604,557 606,557 607,556 609,556 611,555 613,554 614,554 616,554 617,553 620,552 620,552 622,551 623,551 624,551 626,550 628,550 628,550 631,549 632,548 634,548 636,547 637,547 639,547 641,546 643,545 644,545 646,544 647,544 649,543 651,543 652,542 654,542 655,541 656,541 658,540 661,540 662,539 664,539 665,538 666,538 668,537 669,537 671,536 672,536 674,536 675,535 676,535 678,534 679,534 681,533 684,533 685,532 686,532 688,531 689,531 691,530 692,530 694,529 695,529 696,529 698,528 700,528 701,527 702,527 704,526 705,526 707,526 708,525 709,525 711,524 712,524 714,523 715,523 716,522 718,522 719,522 721,521 722,521 724,520 725,520 726,519 728,519 729,519 731,518 732,518 734,517 735,517 736,516 738,516 739,515 741,515 742,515 744,514 745,514 746,513 748,513 749,512 751,512 752,512 754,511 755,511 756,510 758,510 759,509 761,509 762,508 764,508 765,508 766,507 768,507 770,506 771,506 772,505 774,505 775,505 776,504 778,504 780,503 781,503 782,502 784,502 787,501 788,501 789,500 792,499 794,499 795,498 796,498 798,498 799,497 802,496 804,496 805,495 806,495 808,494 809,494 812,493 814,493 815,492 816,492 818,491 819,491 822,490 824,490 825,489 826,489 828,488 829,488 832,487 834,487 835,486 837,486 838,485 839,485 841,484 842,484 844,483 845,483 848,482 849,482 851,481 853,481 854,480 855,480 857,480 858,479 859,479 861,478 862,478 864,477 865,477 866,476 868,476 869,476 872,475 874,474 875,474 876,473 878,473 879,473 881,472 882,472 884,471 885,471 886,470 888,470 889,469 891,469 892,469 894,468 895,468 896,467 898,467 900,466 901,466 902,466 904,465 905,465 906,464 908,464 909,463 911,463 912,462 914,462 915,462 916,461 918,461 919,460 921,460 922,459 924,459 925,459 927,458 928,458 930,457 931,457 932,456 934,456 935,455 936,455 938,455 940,454 941,454 942,453 944,453 945,452 947,452 "/>
</svg>
