<svg width="987" height="610" viewBox="0 0 987 610" xmlns="http://www.w3.org/2000/svg">
<line opacity="0.1" stroke="#000000" stroke-width="1" x1="40" y1="579" x2="40" y2="9"/>
<line opacity="0.1" stroke="#000000" stroke-width="1" x1="53" y1="579" x2="53" y2="9"/>
<line opacity="0.1" stroke="#000000" stroke-width="1" x1="66" y1="579" x2="66" y2="9"/>
<line opacity="0.1" stroke="#000000" stroke-width="1" x1="79" y1="579" x2="79" y2="9"/>
<line opacity="0.1" stroke="#000000" stroke-width="1" x1="92" y1="579" x2="92" y2="9"/>
<line opacity="0.1" stroke="#000000" stroke-width="1" x1="106" y1="579" x2="106" y2="9"/>
<line opacity="0.1" stroke="#000000" stroke-width="1" x1="119" y1="579" x2="119" y2="9"/>
<line opacity="0.1" stroke="#000000" stroke-width="1" x1="132" y1="579" x2="132" y2="9"/>
<line opacity="0.1" stroke="#000000" stroke-width="1" x1="145" y1="579" x2="145" y2="9"/>
<line opacity="0.1" stroke="#000000" stroke-width="1" x1="158" y1="579" x2="158" y2="9"/>
<line opacity="0.1" stroke="#000000" stroke-width="1" x1="172" y1="579" x2="172" y2="9"/>
<line opacity="0.1" stroke="#000000" stroke-width="1" x1="185" y1="579" x2="185" y2="9"/>
<line opacity="0.1" stroke="#000000" stroke-width="1" x1="198" y1="579" x2="198" y2="9"/>
<line opacity="0.1" stroke="#000000" stroke-width="1" x1="211" y1="579" x2="211" y2="9"/>
<line opacity="0.1" stroke="#000000" stroke-width="1" x1="224" y1="579" x2="224" y2="9"/>
<line opacity="0.1" stroke="#000000" stroke-width="1" x1="238" y1="579" x2="238" y2="9"/>
<line opacity="0.1" stroke="#000000" stroke-width="1" x1="251" y1="579" x2="251" y2="9"/>
<line opacity="0.1" stroke="#000000" stroke-width="1" x1="264" y1="579" x2="264" y2="9"/>
<line opacity="0.1" stroke="#000000" stroke-width="1" x1="277" y1="579" x2="277" y2="9"/>
<line opacity="0.1" stroke="#000000" stroke-width="1" x1="291" y1="579" x2="291" y2="9"/>
<line opacity="0.1" stroke="#000000" stroke-width="1" x1="304" y1="579" x2="304" y2="9"/>
<line opacity="0.1" stroke="#000000" stroke-width="1" x1="317" y1="579" x2="317" y2="9"/>
<line opacity="0.1" stroke="#000000" stroke-width="1" x1="330" y1="579" x2="330" y2="9"/>
<line opacity="0.1" stroke="#000000" stroke-width="1" x1="343" y1="579" x2="343" y2="9"/>
<line opacity="0.1" stroke="#000000" stroke-width="1" x1="357" y1="579" x2="357" y2="9"/>
<line opacity="0.1" stroke="#000000" stroke-width="1" x1="370" y1="579" x2="370" y2="9"/>
<line opacity="0.1" stroke="#000000" stroke-width="1" x1="383" y1="579" x2="383" y2="9"/>
<line opacity="0.1" stroke="#000000" stroke-width="1" x1="396" y1="579" x2="396" y2="9"/>
<line opacity="0.1" stroke="#000000" stroke-width="1" x1="409" y1="579" x2="409" y2="9"/>
<line opacity="0.1" stroke="#000000" stroke-width="1" x1="423" y1="579" x2="423" y2="9"/>
<line opacity="0.1" stroke="#000000" stroke-width="1" x1="436" y1="579" x2="436" y2="9"/>
<line opacity="0.1" stroke="#000000" stroke-width="1" x1="449" y1="579" x2="449" y2="9"/>
<line opacity="0.1" stroke="#000000" stroke-width="1" x1="462" y1="579" x2="462" y2="9"/>
<line opacity="0.1" stroke="#000000" stroke-width="1" x1="475" y1="579" x2="475" y2="9"/>
<line opacity="0.1" stroke="#000000" stroke-width="1" x1="489" y1="579" x2="489" y2="9"/>
<line opacity="0.1" stroke="#000000" stroke-width="1" x1="502" y1="579" x2="502" y2="9"/>
<line opacity="0.1" stroke="#000000" stroke-width="1" x1="515" y1="579" x2="515" y2="9"/>
<line opacity="0.1" stroke="#000000" stroke-width="1" x1="528" y1="579" x2="528" y2="9"/>
<line opacity="0.1" stroke="#000000" stroke-width="1" x1="541" y1="579" x2="541" y2="9"/>
<line opacity="0.1" stroke="#000000" stroke-width="1" x1="555" y1="579" x2="555" y2="9"/>
<line opacity="0.1" stroke="#000000" stroke-width="1" x1="568" y1="579" x2="568" y2="9"/>
<line opacity="0.1" stroke="#000000" stroke-width="1" x1="581" y1="579" x2="581" y2="9"/>
<line opacity="0.1" stroke="#000000" stroke-width="1" x1="594" y1="579" x2="594" y2="9"/>
<line opacity="0.1" stroke="#000000" stroke-width="1" x1="608" y1="579" x2="608" y2="9"/>
<line opacity="0.1" stroke="#000000" stroke-width="1" x1="621" y1="579" x2="621" y2="9"/>
<line opacity="0.1" stroke="#000000" stroke-width="1" x1="634" y1="579" x2="634" y2="9"/>
<line opacity="0.1" stroke="#000000" stroke-width="1" x1="647" y1="579" x2="647" y2="9"/>
<line opacity="0.1" stroke="#000000" stroke-width="1" x1="660" y1="579" x2="660" y2="9"/>
<line opacity="0.1" stroke="#000000" stroke-width="1" x1="674" y1="579" x2="674" y2="9"/>
<line opacity="0.1" stroke="#000000" stroke-width="1" x1="687" y1="579" x2="687" y2="9"/>
<line opacity="0.1" stroke="#000000" stroke-width="1" x1="700" y1="579" x2="700" y2="9"/>
<line opacity="0.1" stroke="#000000" stroke-width="1" x1="713" y1="579" x2="713" y2="9"/>
<line opacity="0.1" stroke="#000000" stroke-width="1" x1="726" y1="579" x2="726" y2="9"/>
<line opacity="0.1" stroke="#000000" stroke-width="1" x1="740" y1="579" x2="740" y2="9"/>
<line opacity="0.1" stroke="#000000" stroke-width="1" x1="753" y1="579" x2="753" y2="9"/>
<line opacity="0.1" stroke="#000000" stroke-width="1" x1="766" y1="579" x2="766" y2="9"/>
<line opacity="0.1" stroke="#000000" stroke-width="1" x1="779" y1="579" x2="779" y2="9"/>
<line opacity="0.1" stroke="#000000" stroke-width="1" x1="792" y1="579" x2="792" y2="9"/>
<line opacity="0.1" stroke="#000000" stroke-width="1" x1="806" y1="579" x2="806" y2="9"/>
<line opacity="0.1" stroke="#000000" stroke-width="1" x1="819" y1="579" x2="819" y2="9"/>
<line opacity="0.1" stroke="#000000" stroke-width="1" x1="832" y1="579" x2="832" y2="9"/>
<line opacity="0.1" stroke="#000000" stroke-width="1" x1="845" y1="579" x2="845" y2="9"/>
<line opacity="0.1" stroke="#000000" stroke-width="1" x1="859" y1="579" x2="859" y2="9"/>
<line opacity="0.1" stroke="#000000" stroke-width="1" x1="872" y1="579" x2="872" y2="9"/>
<line opacity="0.1" stroke="#000000" stroke-width="1" x1="885" y1="579" x2="885" y2="9"/>
<line opacity="0.1" stroke="#000000" stroke-width="1" x1="898" y1="579" x2="898" y2="9"/>
<line opacity="0.1" stroke="#000000" stroke-width="1" x1="911" y1="579" x2="911" y2="9"/>
<line opacity="0.1" stroke="#000000" stroke-width="1" x1="925" y1="579" x2="925" y2="9"/>
<line opacity="0.1" stroke="#000000" stroke-width="1" x1="938" y1="579" x2="938" y2="9"/>
<line opacity="0.1" stroke="#000000" stroke-width="1" x1="40" y1="567" x2="947" y2="567"/>
<line opacity="0.1" stroke="#000000" stroke-width="1" x1="40" y1="556" x2="947" y2="556"/>
<line opacity="0.1" stroke="#000000" stroke-width="1" x1="40" y1="545" x2="947" y2="545"/>
<line opacity="0.1" stroke="#000000" stroke-width="1" x1="40" y1="533" x2="947" y2="533"/>
<line opacity="0.1" stroke="#000000" stroke-width="1" x1="40" y1="522" x2="947" y2="522"/>
<line opacity="0.1" stroke="#000000" stroke-width="1" x1="40" y1="511" x2="947" y2="511"/>
<line opacity="0.1" stroke="#000000" stroke-width="1" x1="40" y1="499" x2="947" y2="499"/>
<line opacity="0.1" stroke="#000000" stroke-width="1" x1="40" y1="488" x2="947" y2="488"/>
<line opacity="0.1" stroke="#000000" stroke-width="1" x1="40" y1="477" x2="947" y2="477"/>
<line opacity="0.1" stroke="#000000" stroke-width="1" x1="40" y1="466" x2="947" y2="466"/>
<line opacity="0.1" stroke="#000000" stroke-width="1" x1="40" y1="454" x2="947" y2="454"/>
<line opacity="0.1" stroke="#000000" stroke-width="1" x1="40" y1="443" x2="947" y2="443"/>
<line opacity="0.1" stroke="#000000" stroke-width="1" x1="40" y1="432" x2="947" y2="432"/>
<line opacity="0.1" stroke="#000000" stroke-width="1" x1="40" y1="420" x2="947" y2="420"/>
<line opacity="0.1" stroke="#000000" stroke-width="1" x1="40" y1="409" x2="947" y2="409"/>
<line opacity="0.1" stroke="#000000" stroke-width="1" x1="40" y1="398" x2="947" y2="398"/>
<line opacity="0.1" stroke="#000000" stroke-width="1" x1="40" y1="387" x2="947" y2="387"/>
<line opacity="0.1" stroke="#000000" stroke-width="1" x1="40" y1="375" x2="947" y2="375"/>
<line opacity="0.1" stroke="#000000" stroke-width="1" x1="40" y1="364" x2="947" y2="364"/>
<line opacity="0.1" stroke="#000000" stroke-width="1" x1="40" y1="353" x2="947" y2="353"/>
<line opacity="0.1" stroke="#000000" stroke-width="1" x1="40" y1="341" x2="947" y2="341"/>
<line opacity="0.1" stroke="#000000" stroke-width="1" x1="40" y1="330" x2="947" y2="330"/>
<line opacity="0.1" stroke="#000000" stroke-width="1" x1="40" y1="319" x2="947" y2="319"/>
<line opacity="0.1" stroke="#000000" stroke-width="1" x1="40" y1="308" x2="947" y2="308"/>
<line opacity="0.1" stroke="#000000" stroke-width="1" x1="40" y1="296" x2="947" y2="296"/>
<line opacity="0.1" stroke="#000000" stroke-width="1" x1="40" y1="285" x2="947" y2="285"/>
<line opacity="0.1" stroke="#000000" stroke-width="1" x1="40" y1="274" x2="947" y2="274"/>
<line opacity="0.1" stroke="#000000" stroke-width="1" x1="40" y1="262" x2="947" y2="262"/>
<line opacity="0.1" stroke="#000000" stroke-width="1" x1="40" y1="251" x2="947" y2="251"/>
<line opacity="0.1" stroke="#000000" stroke-width="1" x1="40" y1="240" x2="947" y2="240"/>
<line opacity="0.1" stroke="#000000" stroke-width="1" x1="40" y1="229" x2="947" y2="229"/>
<line opacity="0.1" stroke="#000000" stroke-width="1" x1="40" y1="217" x2="947" y2="217"/>
<line opacity="0.1" stroke="#000000" stroke-width="1" x1="40" y1="206" x2="947" y2="206"/>
<line opacity="0.1" stroke="#000000" stroke-width="1" x1="40" y1="195" x2="947" y2="195"/>
<line opacity="0.1" stroke="#000000" stroke-width="1" x1="40" y1="183" x2="947" y2="183"/>
<line opacity="0.1" stroke="#000000" stroke-width="1" x1="40" y1="172" x2="947" y2="172"/>
<line opacity="0.1" stroke="#000000" stroke-width="1" x1="40" y1="161" x2="947" y2="161"/>
<line opacity="0.1" stroke="#000000" stroke-width="1" x1="40" y1="150" x2="947" y2="150"/>
<line opacity="0.1" stroke="#000000" stroke-width="1" x1="40" y1="138" x2="947" y2="138"/>
<line opacity="0.1" stroke="#000000" stroke-width="1" x1="40" y1="127" x2="947" y2="127"/>
<line opacity="0.1" stroke="#000000" stroke-width="1" x1="40" y1="116" x2="947" y2="116"/>
<line opacity="0.1" stroke="#000000" stroke-width="1" x1="40" y1="104" x2="947" y2="104"/>
<line opacity="0.1" stroke="#000000" stroke-width="1" x1="40" y1="93" x2="947" y2="93"/>
<line opacity="0.1" stroke="#000000" stroke-width="1" x1="40" y1="82" x2="947" y2="82"/>
<line opacity="0.1" stroke="#000000" stroke-width="1" x1="40" y1="71" x2="947" y2="71"/>
<line opacity="0.1" stroke="#000000" stroke-width="1" x1="40" y1="59" x2="947" y2="59"/>
<line opacity="0.1" stroke="#000000" stroke-width="1" x1="40" y1="48" x2="947" y2="48"/>
<line opacity="0.1" stroke="#000000" stroke-width="1" x1="40" y1="37" x2="947" y2="37"/>
<line opacity="0.1" stroke="#000000" stroke-width="1" x1="40" y1="25" x2="947" y2="25"/>
<line opacity="0.1" stroke="#000000" stroke-width="1" x1="40" y1="14" x2="947" y2="14"/>
<line opacity="0.2" stroke="#000000" stroke-width="1" x1="40" y1="579" x2="40" y2="9"/>
<line opacity="0.2" stroke="#000000" stroke-width="1" x1="132" y1="579" x2="132" y2="9"/>
<line opacity="0.2" stroke="#000000" stroke-width="1" x1="224" y1="579" x2="224" y2="9"/>
<line opacity="0.2" stroke="#000000" stroke-width="1" x1="317" y1="579" x2="317" y2="9"/>
<line opacity="0.2" stroke="#000000" stroke-width="1" x1="409" y1="579" x2="409" y2="9"/>
<line opacity="0.2" stroke="#000000" stroke-width="1" x1="502" y1="579" x2="502" y2="9"/>
<line opacity="0.2" stroke="#000000" stroke-width="1" x1="594" y1="579" x2="594" y2="9"/>
<line opacity="0.2" stroke="#000000" stroke-width="1" x1="687" y1="579" x2="687" y2="9"/>
<line opacity="0.2" stroke="#000000" stroke-width="1" x1="779" y1="579" x2="779" y2="9"/>
<line opacity="0.2" stroke="#000000" stroke-width="1" x1="872" y1="579" x2="872" y2="9"/>
<line opacity="0.2" stroke="#000000" stroke-width="1" x1="40" y1="522" x2="947" y2="522"/>
<line opacity="0.2" stroke="#000000" stroke-width="1" x1="40" y1="466" x2="947" y2="466"/>
<line opacity="0.2" stroke="#000000" stroke-width="1" x1="40" y1="409" x2="947" y2="409"/>
<line opacity="0.2" stroke="#000000" stroke-width="1" x1="40" y1="353" x2="947" y2="353"/>
<line opacity="0.2" stroke="#000000" stroke-width="1" x1="40" y1="296" x2="947" y2="296"/>
<line opacity="0.2" stroke="#000000" stroke-width="1" x1="40" y1="240" x2="947" y2="240"/>
<line opacity="0.2" stroke="#000000" stroke-width="1" x1="40" y1="183" x2="947" y2="183"/>
<line opacity="0.2" stroke="#000000" stroke-width="1" x1="40" y1="127" x2="947" y2="127"/>
<line opacity="0.2" stroke="#000000" stroke-width="1" x1="40" y1="71" x2="947" y2="71"/>
<line opacity="0.2" stroke="#000000" stroke-width="1" x1="40" y1="14" x2="947" y2="14"/>
<polyline fill="none" opacity="1" stroke="#000000" stroke-width="1" points="39,10 39,580 "/>
<text x="30" y="522" dy="0.5ex" text-anchor="end" font-family="sans-serif" font-size="9.67741935483871" opacity="1" fill="#000000">
10%
</text>
<polyline fill="none" opacity="1" stroke="#000000" stroke-width="1" points="34,522 39,522 "/>
<text x="30" y="466" dy="0.5ex" text-anchor="end" font-family="sans-serif" font-size="9.67741935483871" opacity="1" fill="#000000">
20%
</text>
<polyline fill="none" opacity="1" stroke="#000000" stroke-width="1" points="34,466 39,466 "/>
<text x="30" y="409" dy="0.5ex" text-anchor="end" font-family="sans-serif" font-size="9.67741935483871" opacity="1" fill="#000000">
30%
</text>
<polyline fill="none" opacity="1" stroke="#000000" stroke-width="1" points="34,409 39,409 "/>
<text x="30" y="353" dy="0.5ex" text-anchor="end" font-family="sans-serif" font-size="9.67741935483871" opacity="1" fill="#000000">
40%
</text>
<polyline fill="none" opacity="1" stroke="#000000" stroke-width="1" points="34,353 39,353 "/>
<text x="30" y="296" dy="0.5ex" text-anchor="end" font-family="sans-serif" font-size="9.67741935483871" opacity="1" fill="#000000">
50%
</text>
<polyline fill="none" opacity="1" stroke="#000000" stroke-width="1" points="34,296 39,296 "/>
<text x="30" y="240" dy="0.5ex" text-anchor="end" font-family="sans-serif" font-size="9.67741935483871" opacity="1" fill="#000000">
60%
</text>
<polyline fill="none" opacity="1" stroke="#000000" stroke-width="1" points="34,240 39,240 "/>
<text x="30" y="183" dy="0.5ex" text-anchor="end" font-family="sans-serif" font-size="9.67741935483871" opacity="1" fill="#000000">
70%
</text>
<polyline fill="none" opacity="1" stroke="#000000" stroke-width="1" points="34,183 39,183 "/>
<text x="30" y="127" dy="0.5ex" text-anchor="end" font-family="sans-serif" font-size="9.67741935483871" opacity="1" fill="#000000">
80%
</text>
<polyline fill="none" opacity="1" stroke="#000000" stroke-width="1" points="34,127 39,127 "/>
<text x="30" y="71" dy="0.5ex" text-anchor="end" font-family="sans-serif" font-size="9.67741935483871" opacity="1" fill="#000000">
90%
</text>
<polyline fill="none" opacity="1" stroke="#000000" stroke-width="1" points="34,71 39,71 "/>
<text x="30" y="14" dy="0.5ex" text-anchor="end" font-family="sans-serif" font-size="9.67741935483871" opacity="1" fill="#000000">
100%
</text>
<polyline fill="none" opacity="1" stroke="#000000" stroke-width="1" points="34,14 39,14 "/>
<polyline fill="none" opacity="1" stroke="#000000" stroke-width="1" points="40,580 947,580 "/>
<text x="40" y="590" dy="0.76em" text-anchor="middle" font-family="sans-serif" font-size="9.67741935483871" opacity="1" fill="#000000">
2019-03-16
</text>
<polyline fill="none" opacity="1" stroke="#000000" stroke-width="1" points="40,580 40,585 "/>
<text x="132" y="590" dy="0.76em" text-anchor="middle" font-family="sans-serif" font-size="9.67741935483871" opacity="1" fill="#000000">
2019-05-04
</text>
<polyline fill="none" opacity="1" stroke="#000000" stroke-width="1" points="132,580 132,585 "/>
<text x="224" y="590" dy="0.76em" text-anchor="middle" font-family="sans-serif" font-size="9.67741935483871" opacity="1" fill="#000000">
2019-06-22
</text>
<polyline fill="none" opacity="1" stroke="#000000" stroke-width="1" points="224,580 224,585 "/>
<text x="317" y="590" dy="0.76em" text-anchor="middle" font-family="sans-serif" font-size="9.67741935483871" opacity="1" fill="#000000">
2019-08-10
</text>
<polyline fill="none" opacity="1" stroke="#000000" stroke-width="1" points="317,580 317,585 "/>
<text x="409" y="590" dy="0.76em" text-anchor="middle" font-family="sans-serif" font-size="9.67741935483871" opacity="1" fill="#000000">
2019-09-28
</text>
<polyline fill="none" opacity="1" stroke="#000000" stroke-width="1" points="409,580 409,585 "/>
<text x="502" y="590" dy="0.76em" text-anchor="middle" font-family="sans-serif" font-size="9.67741935483871" opacity="1" fill="#000000">
2019-11-16
</text>
<polyline fill="none" opacity="1" stroke="#000000" stroke-width="1" points="502,580 502,585 "/>
<text x="594" y="590" dy="0.76em" text-anchor="middle" font-family="sans-serif" font-size="9.67741935483871" opacity="1" fill="#000000">
2020-01-04
</text>
<polyline fill="none" opacity="1" stroke="#000000" stroke-width="1" points="594,580 594,585 "/>
<text x="687" y="590" dy="0.76em" text-anchor="middle" font-family="sans-serif" font-size="9.67741935483871" opacity="1" fill="#000000">
2020-02-22
</text>
<polyline fill="none" opacity="1" stroke="#000000" stroke-width="1" points="687,580 687,585 "/>
<text x="779" y="590" dy="0.76em" text-anchor="middle" font-family="sans-serif" font-size="9.67741935483871" opacity="1" fill="#000000">
2020-04-11
</text>
<polyline fill="none" opacity="1" stroke="#000000" stroke-width="1" points="779,580 779,585 "/>
<text x="872" y="590" dy="0.76em" text-anchor="middle" font-family="sans-serif" font-size="9.67741935483871" opacity="1" fill="#000000">
2020-05-30
</text>
<polyline fill="none" opacity="1" stroke="#000000" stroke-width="1" points="872,580 872,585 "/>
<polyline fill="none" opacity="1" stroke="#FF0000" stroke-width="1" points="40,578 40,578 48,576 49,575 189,575 194,575 196,575 200,575 204,575 214,573 279,572 280,572 517,571 531,570 565,570 581,569 596,569 597,568 621,568 640,568 648,567 732,567 735,566 736,566 745,566 747,565 748,565 750,564 751,563 754,562 757,562 759,561 761,561 763,560 766,559 768,559 770,559 772,558 775,558 776,557 779,556 781,556 782,556 784,555 785,555 787,554 789,554 791,553 794,552 797,552 799,551 800,551 802,550 805,549 806,549 809,548 810,548 812,548 813,547 817,547 817,546 821,545 822,545 825,544 827,544 829,543 831,543 834,542 836,541 838,541 840,540 842,540 845,539 847,539 848,538 850,538 852,537 854,537 856,536 860,535 862,535 864,534 865,534 867,533 869,533 871,532 873,532 875,531 877,531 879,530 880,530 882,529 884,529 886,528 890,527 892,527 894,526 896,526 897,525 899,525 901,524 903,524 905,523 907,523 909,522 911,522 913,521 914,521 916,520 918,520 920,519 922,519 924,519 926,518 928,518 930,517 931,517 933,516 935,516 937,515 940,515 941,514 943,514 945,513 947,513 "/>
</svg>
