<svg width="987" height="610" viewBox="0 0 987 610" xmlns="http://www.w3.org/2000/svg">
<line opacity="0.1" stroke="#000000" stroke-width="1" x1="40" y1="579" x2="40" y2="9"/>
<line opacity="0.1" stroke="#000000" stroke-width="1" x1="51" y1="579" x2="51" y2="9"/>
<line opacity="0.1" stroke="#000000" stroke-width="1" x1="62" y1="579" x2="62" y2="9"/>
<line opacity="0.1" stroke="#000000" stroke-width="1" x1="73" y1="579" x2="73" y2="9"/>
<line opacity="0.1" stroke="#000000" stroke-width="1" x1="85" y1="579" x2="85" y2="9"/>
<line opacity="0.1" stroke="#000000" stroke-width="1" x1="96" y1="579" x2="96" y2="9"/>
<line opacity="0.1" stroke="#000000" stroke-width="1" x1="107" y1="579" x2="107" y2="9"/>
<line opacity="0.1" stroke="#000000" stroke-width="1" x1="119" y1="579" x2="119" y2="9"/>
<line opacity="0.1" stroke="#000000" stroke-width="1" x1="130" y1="579" x2="130" y2="9"/>
<line opacity="0.1" stroke="#000000" stroke-width="1" x1="141" y1="579" x2="141" y2="9"/>
<line opacity="0.1" stroke="#000000" stroke-width="1" x1="152" y1="579" x2="152" y2="9"/>
<line opacity="0.1" stroke="#000000" stroke-width="1" x1="164" y1="579" x2="164" y2="9"/>
<line opacity="0.1" stroke="#000000" stroke-width="1" x1="175" y1="579" x2="175" y2="9"/>
<line opacity="0.1" stroke="#000000" stroke-width="1" x1="186" y1="579" x2="186" y2="9"/>
<line opacity="0.1" stroke="#000000" stroke-width="1" x1="197" y1="579" x2="197" y2="9"/>
<line opacity="0.1" stroke="#000000" stroke-width="1" x1="209" y1="579" x2="209" y2="9"/>
<line opacity="0.1" stroke="#000000" stroke-width="1" x1="220" y1="579" x2="220" y2="9"/>
<line opacity="0.1" stroke="#000000" stroke-width="1" x1="231" y1="579" x2="231" y2="9"/>
<line opacity="0.1" stroke="#000000" stroke-width="1" x1="243" y1="579" x2="243" y2="9"/>
<line opacity="0.1" stroke="#000000" stroke-width="1" x1="254" y1="579" x2="254" y2="9"/>
<line opacity="0.1" stroke="#000000" stroke-width="1" x1="265" y1="579" x2="265" y2="9"/>
<line opacity="0.1" stroke="#000000" stroke-width="1" x1="276" y1="579" x2="276" y2="9"/>
<line opacity="0.1" stroke="#000000" stroke-width="1" x1="288" y1="579" x2="288" y2="9"/>
<line opacity="0.1" stroke="#000000" stroke-width="1" x1="299" y1="579" x2="299" y2="9"/>
<line opacity="0.1" stroke="#000000" stroke-width="1" x1="310" y1="579" x2="310" y2="9"/>
<line opacity="0.1" stroke="#000000" stroke-width="1" x1="322" y1="579" x2="322" y2="9"/>
<line opacity="0.1" stroke="#000000" stroke-width="1" x1="333" y1="579" x2="333" y2="9"/>
<line opacity="0.1" stroke="#000000" stroke-width="1" x1="344" y1="579" x2="344" y2="9"/>
<line opacity="0.1" stroke="#000000" stroke-width="1" x1="355" y1="579" x2="355" y2="9"/>
<line opacity="0.1" stroke="#000000" stroke-width="1" x1="367" y1="579" x2="367" y2="9"/>
<line opacity="0.1" stroke="#000000" stroke-width="1" x1="378" y1="579" x2="378" y2="9"/>
<line opacity="0.1" stroke="#000000" stroke-width="1" x1="389" y1="579" x2="389" y2="9"/>
<line opacity="0.1" stroke="#000000" stroke-width="1" x1="401" y1="579" x2="401" y2="9"/>
<line opacity="0.1" stroke="#000000" stroke-width="1" x1="412" y1="579" x2="412" y2="9"/>
<line opacity="0.1" stroke="#000000" stroke-width="1" x1="423" y1="579" x2="423" y2="9"/>
<line opacity="0.1" stroke="#000000" stroke-width="1" x1="434" y1="579" x2="434" y2="9"/>
<line opacity="0.1" stroke="#000000" stroke-width="1" x1="446" y1="579" x2="446" y2="9"/>
<line opacity="0.1" stroke="#000000" stroke-width="1" x1="457" y1="579" x2="457" y2="9"/>
<line opacity="0.1" stroke="#000000" stroke-width="1" x1="468" y1="579" x2="468" y2="9"/>
<line opacity="0.1" stroke="#000000" stroke-width="1" x1="480" y1="579" x2="480" y2="9"/>
<line opacity="0.1" stroke="#000000" stroke-width="1" x1="491" y1="579" x2="491" y2="9"/>
<line opacity="0.1" stroke="#000000" stroke-width="1" x1="502" y1="579" x2="502" y2="9"/>
<line opacity="0.1" stroke="#000000" stroke-width="1" x1="513" y1="579" x2="513" y2="9"/>
<line opacity="0.1" stroke="#000000" stroke-width="1" x1="525" y1="579" x2="525" y2="9"/>
<line opacity="0.1" stroke="#000000" stroke-width="1" x1="536" y1="579" x2="536" y2="9"/>
<line opacity="0.1" stroke="#000000" stroke-width="1" x1="547" y1="579" x2="547" y2="9"/>
<line opacity="0.1" stroke="#000000" stroke-width="1" x1="559" y1="579" x2="559" y2="9"/>
<line opacity="0.1" stroke="#000000" stroke-width="1" x1="570" y1="579" x2="570" y2="9"/>
<line opacity="0.1" stroke="#000000" stroke-width="1" x1="581" y1="579" x2="581" y2="9"/>
<line opacity="0.1" stroke="#000000" stroke-width="1" x1="592" y1="579" x2="592" y2="9"/>
<line opacity="0.1" stroke="#000000" stroke-width="1" x1="604" y1="579" x2="604" y2="9"/>
<line opacity="0.1" stroke="#000000" stroke-width="1" x1="615" y1="579" x2="615" y2="9"/>
<line opacity="0.1" stroke="#000000" stroke-width="1" x1="626" y1="579" x2="626" y2="9"/>
<line opacity="0.1" stroke="#000000" stroke-width="1" x1="638" y1="579" x2="638" y2="9"/>
<line opacity="0.1" stroke="#000000" stroke-width="1" x1="649" y1="579" x2="649" y2="9"/>
<line opacity="0.1" stroke="#000000" stroke-width="1" x1="660" y1="579" x2="660" y2="9"/>
<line opacity="0.1" stroke="#000000" stroke-width="1" x1="671" y1="579" x2="671" y2="9"/>
<line opacity="0.1" stroke="#000000" stroke-width="1" x1="683" y1="579" x2="683" y2="9"/>
<line opacity="0.1" stroke="#000000" stroke-width="1" x1="694" y1="579" x2="694" y2="9"/>
<line opacity="0.1" stroke="#000000" stroke-width="1" x1="705" y1="579" x2="705" y2="9"/>
<line opacity="0.1" stroke="#000000" stroke-width="1" x1="717" y1="579" x2="717" y2="9"/>
<line opacity="0.1" stroke="#000000" stroke-width="1" x1="728" y1="579" x2="728" y2="9"/>
<line opacity="0.1" stroke="#000000" stroke-width="1" x1="739" y1="579" x2="739" y2="9"/>
<line opacity="0.1" stroke="#000000" stroke-width="1" x1="750" y1="579" x2="750" y2="9"/>
<line opacity="0.1" stroke="#000000" stroke-width="1" x1="762" y1="579" x2="762" y2="9"/>
<line opacity="0.1" stroke="#000000" stroke-width="1" x1="773" y1="579" x2="773" y2="9"/>
<line opacity="0.1" stroke="#000000" stroke-width="1" x1="784" y1="579" x2="784" y2="9"/>
<line opacity="0.1" stroke="#000000" stroke-width="1" x1="796" y1="579" x2="796" y2="9"/>
<line opacity="0.1" stroke="#000000" stroke-width="1" x1="807" y1="579" x2="807" y2="9"/>
<line opacity="0.1" stroke="#000000" stroke-width="1" x1="818" y1="579" x2="818" y2="9"/>
<line opacity="0.1" stroke="#000000" stroke-width="1" x1="829" y1="579" x2="829" y2="9"/>
<line opacity="0.1" stroke="#000000" stroke-width="1" x1="841" y1="579" x2="841" y2="9"/>
<line opacity="0.1" stroke="#000000" stroke-width="1" x1="852" y1="579" x2="852" y2="9"/>
<line opacity="0.1" stroke="#000000" stroke-width="1" x1="863" y1="579" x2="863" y2="9"/>
<line opacity="0.1" stroke="#000000" stroke-width="1" x1="875" y1="579" x2="875" y2="9"/>
<line opacity="0.1" stroke="#000000" stroke-width="1" x1="886" y1="579" x2="886" y2="9"/>
<line opacity="0.1" stroke="#000000" stroke-width="1" x1="897" y1="579" x2="897" y2="9"/>
<line opacity="0.1" stroke="#000000" stroke-width="1" x1="908" y1="579" x2="908" y2="9"/>
<line opacity="0.1" stroke="#000000" stroke-width="1" x1="920" y1="579" x2="920" y2="9"/>
<line opacity="0.1" stroke="#000000" stroke-width="1" x1="931" y1="579" x2="931" y2="9"/>
<line opacity="0.1" stroke="#000000" stroke-width="1" x1="942" y1="579" x2="942" y2="9"/>
<line opacity="0.1" stroke="#000000" stroke-width="1" x1="40" y1="567" x2="947" y2="567"/>
<line opacity="0.1" stroke="#000000" stroke-width="1" x1="40" y1="556" x2="947" y2="556"/>
<line opacity="0.1" stroke="#000000" stroke-width="1" x1="40" y1="545" x2="947" y2="545"/>
<line opacity="0.1" stroke="#000000" stroke-width="1" x1="40" y1="533" x2="947" y2="533"/>
<line opacity="0.1" stroke="#000000" stroke-width="1" x1="40" y1="522" x2="947" y2="522"/>
<line opacity="0.1" stroke="#000000" stroke-width="1" x1="40" y1="511" x2="947" y2="511"/>
<line opacity="0.1" stroke="#000000" stroke-width="1" x1="40" y1="499" x2="947" y2="499"/>
<line opacity="0.1" stroke="#000000" stroke-width="1" x1="40" y1="488" x2="947" y2="488"/>
<line opacity="0.1" stroke="#000000" stroke-width="1" x1="40" y1="477" x2="947" y2="477"/>
<line opacity="0.1" stroke="#000000" stroke-width="1" x1="40" y1="466" x2="947" y2="466"/>
<line opacity="0.1" stroke="#000000" stroke-width="1" x1="40" y1="454" x2="947" y2="454"/>
<line opacity="0.1" stroke="#000000" stroke-width="1" x1="40" y1="443" x2="947" y2="443"/>
<line opacity="0.1" stroke="#000000" stroke-width="1" x1="40" y1="432" x2="947" y2="432"/>
<line opacity="0.1" stroke="#000000" stroke-width="1" x1="40" y1="420" x2="947" y2="420"/>
<line opacity="0.1" stroke="#000000" stroke-width="1" x1="40" y1="409" x2="947" y2="409"/>
<line opacity="0.1" stroke="#000000" stroke-width="1" x1="40" y1="398" x2="947" y2="398"/>
<line opacity="0.1" stroke="#000000" stroke-width="1" x1="40" y1="387" x2="947" y2="387"/>
<line opacity="0.1" stroke="#000000" stroke-width="1" x1="40" y1="375" x2="947" y2="375"/>
<line opacity="0.1" stroke="#000000" stroke-width="1" x1="40" y1="364" x2="947" y2="364"/>
<line opacity="0.1" stroke="#000000" stroke-width="1" x1="40" y1="353" x2="947" y2="353"/>
<line opacity="0.1" stroke="#000000" stroke-width="1" x1="40" y1="341" x2="947" y2="341"/>
<line opacity="0.1" stroke="#000000" stroke-width="1" x1="40" y1="330" x2="947" y2="330"/>
<line opacity="0.1" stroke="#000000" stroke-width="1" x1="40" y1="319" x2="947" y2="319"/>
<line opacity="0.1" stroke="#000000" stroke-width="1" x1="40" y1="308" x2="947" y2="308"/>
<line opacity="0.1" stroke="#000000" stroke-width="1" x1="40" y1="296" x2="947" y2="296"/>
<line opacity="0.1" stroke="#000000" stroke-width="1" x1="40" y1="285" x2="947" y2="285"/>
<line opacity="0.1" stroke="#000000" stroke-width="1" x1="40" y1="274" x2="947" y2="274"/>
<line opacity="0.1" stroke="#000000" stroke-width="1" x1="40" y1="262" x2="947" y2="262"/>
<line opacity="0.1" stroke="#000000" stroke-width="1" x1="40" y1="251" x2="947" y2="251"/>
<line opacity="0.1" stroke="#000000" stroke-width="1" x1="40" y1="240" x2="947" y2="240"/>
<line opacity="0.1" stroke="#000000" stroke-width="1" x1="40" y1="229" x2="947" y2="229"/>
<line opacity="0.1" stroke="#000000" stroke-width="1" x1="40" y1="217" x2="947" y2="217"/>
<line opacity="0.1" stroke="#000000" stroke-width="1" x1="40" y1="206" x2="947" y2="206"/>
<line opacity="0.1" stroke="#000000" stroke-width="1" x1="40" y1="195" x2="947" y2="195"/>
<line opacity="0.1" stroke="#000000" stroke-width="1" x1="40" y1="183" x2="947" y2="183"/>
<line opacity="0.1" stroke="#000000" stroke-width="1" x1="40" y1="172" x2="947" y2="172"/>
<line opacity="0.1" stroke="#000000" stroke-width="1" x1="40" y1="161" x2="947" y2="161"/>
<line opacity="0.1" stroke="#000000" stroke-width="1" x1="40" y1="150" x2="947" y2="150"/>
<line opacity="0.1" stroke="#000000" stroke-width="1" x1="40" y1="138" x2="947" y2="138"/>
<line opacity="0.1" stroke="#000000" stroke-width="1" x1="40" y1="127" x2="947" y2="127"/>
<line opacity="0.1" stroke="#000000" stroke-width="1" x1="40" y1="116" x2="947" y2="116"/>
<line opacity="0.1" stroke="#000000" stroke-width="1" x1="40" y1="104" x2="947" y2="104"/>
<line opacity="0.1" stroke="#000000" stroke-width="1" x1="40" y1="93" x2="947" y2="93"/>
<line opacity="0.1" stroke="#000000" stroke-width="1" x1="40" y1="82" x2="947" y2="82"/>
<line opacity="0.1" stroke="#000000" stroke-width="1" x1="40" y1="71" x2="947" y2="71"/>
<line opacity="0.1" stroke="#000000" stroke-width="1" x1="40" y1="59" x2="947" y2="59"/>
<line opacity="0.1" stroke="#000000" stroke-width="1" x1="40" y1="48" x2="947" y2="48"/>
<line opacity="0.1" stroke="#000000" stroke-width="1" x1="40" y1="37" x2="947" y2="37"/>
<line opacity="0.1" stroke="#000000" stroke-width="1" x1="40" y1="25" x2="947" y2="25"/>
<line opacity="0.1" stroke="#000000" stroke-width="1" x1="40" y1="14" x2="947" y2="14"/>
<line opacity="0.2" stroke="#000000" stroke-width="1" x1="40" y1="579" x2="40" y2="9"/>
<line opacity="0.2" stroke="#000000" stroke-width="1" x1="130" y1="579" x2="130" y2="9"/>
<line opacity="0.2" stroke="#000000" stroke-width="1" x1="220" y1="579" x2="220" y2="9"/>
<line opacity="0.2" stroke="#000000" stroke-width="1" x1="310" y1="579" x2="310" y2="9"/>
<line opacity="0.2" stroke="#000000" stroke-width="1" x1="401" y1="579" x2="401" y2="9"/>
<line opacity="0.2" stroke="#000000" stroke-width="1" x1="491" y1="579" x2="491" y2="9"/>
<line opacity="0.2" stroke="#000000" stroke-width="1" x1="581" y1="579" x2="581" y2="9"/>
<line opacity="0.2" stroke="#000000" stroke-width="1" x1="671" y1="579" x2="671" y2="9"/>
<line opacity="0.2" stroke="#000000" stroke-width="1" x1="762" y1="579" x2="762" y2="9"/>
<line opacity="0.2" stroke="#000000" stroke-width="1" x1="852" y1="579" x2="852" y2="9"/>
<line opacity="0.2" stroke="#000000" stroke-width="1" x1="942" y1="579" x2="942" y2="9"/>
<line opacity="0.2" stroke="#000000" stroke-width="1" x1="40" y1="522" x2="947" y2="522"/>
<line opacity="0.2" stroke="#000000" stroke-width="1" x1="40" y1="466" x2="947" y2="466"/>
<line opacity="0.2" stroke="#000000" stroke-width="1" x1="40" y1="409" x2="947" y2="409"/>
<line opacity="0.2" stroke="#000000" stroke-width="1" x1="40" y1="353" x2="947" y2="353"/>
<line opacity="0.2" stroke="#000000" stroke-width="1" x1="40" y1="296" x2="947" y2="296"/>
<line opacity="0.2" stroke="#000000" stroke-width="1" x1="40" y1="240" x2="947" y2="240"/>
<line opacity="0.2" stroke="#000000" stroke-width="1" x1="40" y1="183" x2="947" y2="183"/>
<line opacity="0.2" stroke="#000000" stroke-width="1" x1="40" y1="127" x2="947" y2="127"/>
<line opacity="0.2" stroke="#000000" stroke-width="1" x1="40" y1="71" x2="947" y2="71"/>
<line opacity="0.2" stroke="#000000" stroke-width="1" x1="40" y1="14" x2="947" y2="14"/>
<polyline fill="none" opacity="1" stroke="#000000" stroke-width="1" points="39,10 39,580 "/>
<text x="30" y="522" dy="0.5ex" text-anchor="end" font-family="sans-serif" font-size="9.67741935483871" opacity="1" fill="#000000">
10%
</text>
<polyline fill="none" opacity="1" stroke="#000000" stroke-width="1" points="34,522 39,522 "/>
<text x="30" y="466" dy="0.5ex" text-anchor="end" font-family="sans-serif" font-size="9.67741935483871" opacity="1" fill="#000000">
20%
</text>
<polyline fill="none" opacity="1" stroke="#000000" stroke-width="1" points="34,466 39,466 "/>
<text x="30" y="409" dy="0.5ex" text-anchor="end" font-family="sans-serif" font-size="9.67741935483871" opacity="1" fill="#000000">
30%
</text>
<polyline fill="none" opacity="1" stroke="#000000" stroke-width="1" points="34,409 39,409 "/>
<text x="30" y="353" dy="0.5ex" text-anchor="end" font-family="sans-serif" font-size="9.67741935483871" opacity="1" fill="#000000">
40%
</text>
<polyline fill="none" opacity="1" stroke="#000000" stroke-width="1" points="34,353 39,353 "/>
<text x="30" y="296" dy="0.5ex" text-anchor="end" font-family="sans-serif" font-size="9.67741935483871" opacity="1" fill="#000000">
50%
</text>
<polyline fill="none" opacity="1" stroke="#000000" stroke-width="1" points="34,296 39,296 "/>
<text x="30" y="240" dy="0.5ex" text-anchor="end" font-family="sans-serif" font-size="9.67741935483871" opacity="1" fill="#000000">
60%
</text>
<polyline fill="none" opacity="1" stroke="#000000" stroke-width="1" points="34,240 39,240 "/>
<text x="30" y="183" dy="0.5ex" text-anchor="end" font-family="sans-serif" font-size="9.67741935483871" opacity="1" fill="#000000">
70%
</text>
<polyline fill="none" opacity="1" stroke="#000000" stroke-width="1" points="34,183 39,183 "/>
<text x="30" y="127" dy="0.5ex" text-anchor="end" font-family="sans-serif" font-size="9.67741935483871" opacity="1" fill="#000000">
80%
</text>
<polyline fill="none" opacity="1" stroke="#000000" stroke-width="1" points="34,127 39,127 "/>
<text x="30" y="71" dy="0.5ex" text-anchor="end" font-family="sans-serif" font-size="9.67741935483871" opacity="1" fill="#000000">
90%
</text>
<polyline fill="none" opacity="1" stroke="#000000" stroke-width="1" points="34,71 39,71 "/>
<text x="30" y="14" dy="0.5ex" text-anchor="end" font-family="sans-serif" font-size="9.67741935483871" opacity="1" fill="#000000">
100%
</text>
<polyline fill="none" opacity="1" stroke="#000000" stroke-width="1" points="34,14 39,14 "/>
<polyline fill="none" opacity="1" stroke="#000000" stroke-width="1" points="40,580 947,580 "/>
<text x="40" y="590" dy="0.76em" text-anchor="middle" font-family="sans-serif" font-size="9.67741935483871" opacity="1" fill="#000000">
2019-03-16
</text>
<polyline fill="none" opacity="1" stroke="#000000" stroke-width="1" points="40,580 40,585 "/>
<text x="130" y="590" dy="0.76em" text-anchor="middle" font-family="sans-serif" font-size="9.67741935483871" opacity="1" fill="#000000">
2019-05-11
</text>
<polyline fill="none" opacity="1" stroke="#000000" stroke-width="1" points="130,580 130,585 "/>
<text x="220" y="590" dy="0.76em" text-anchor="middle" font-family="sans-serif" font-size="9.67741935483871" opacity="1" fill="#000000">
2019-07-06
</text>
<polyline fill="none" opacity="1" stroke="#000000" stroke-width="1" points="220,580 220,585 "/>
<text x="310" y="590" dy="0.76em" text-anchor="middle" font-family="sans-serif" font-size="9.67741935483871" opacity="1" fill="#000000">
2019-08-31
</text>
<polyline fill="none" opacity="1" stroke="#000000" stroke-width="1" points="310,580 310,585 "/>
<text x="401" y="590" dy="0.76em" text-anchor="middle" font-family="sans-serif" font-size="9.67741935483871" opacity="1" fill="#000000">
2019-10-26
</text>
<polyline fill="none" opacity="1" stroke="#000000" stroke-width="1" points="401,580 401,585 "/>
<text x="491" y="590" dy="0.76em" text-anchor="middle" font-family="sans-serif" font-size="9.67741935483871" opacity="1" fill="#000000">
2019-12-21
</text>
<polyline fill="none" opacity="1" stroke="#000000" stroke-width="1" points="491,580 491,585 "/>
<text x="581" y="590" dy="0.76em" text-anchor="middle" font-family="sans-serif" font-size="9.67741935483871" opacity="1" fill="#000000">
2020-02-15
</text>
<polyline fill="none" opacity="1" stroke="#000000" stroke-width="1" points="581,580 581,585 "/>
<text x="671" y="590" dy="0.76em" text-anchor="middle" font-family="sans-serif" font-size="9.67741935483871" opacity="1" fill="#000000">
2020-04-11
</text>
<polyline fill="none" opacity="1" stroke="#000000" stroke-width="1" points="671,580 671,585 "/>
<text x="762" y="590" dy="0.76em" text-anchor="middle" font-family="sans-serif" font-size="9.67741935483871" opacity="1" fill="#000000">
2020-06-06
</text>
<polyline fill="none" opacity="1" stroke="#000000" stroke-width="1" points="762,580 762,585 "/>
<text x="852" y="590" dy="0.76em" text-anchor="middle" font-family="sans-serif" font-size="9.67741935483871" opacity="1" fill="#000000">
2020-08-01
</text>
<polyline fill="none" opacity="1" stroke="#000000" stroke-width="1" points="852,580 852,585 "/>
<text x="942" y="590" dy="0.76em" text-anchor="middle" font-family="sans-serif" font-size="9.67741935483871" opacity="1" fill="#000000">
2020-09-26
</text>
<polyline fill="none" opacity="1" stroke="#000000" stroke-width="1" points="942,580 942,585 "/>
<polyline fill="none" opacity="1" stroke="#FF0000" stroke-width="1" points="40,578 40,578 47,576 48,575 167,575 171,575 173,575 177,575 180,575 188,573 244,572 245,572 447,571 459,571 488,570 502,570 515,569 515,569 536,568 552,568 560,567 631,567 633,567 635,567 642,567 643,566 644,566 646,565 647,564 650,563 653,563 654,562 655,562 657,562 660,561 662,561 664,560 665,559 668,559 669,558 671,557 673,557 673,557 675,556 677,556 678,556 680,555 681,555 684,554 686,553 688,553 690,552 691,552 694,551 694,551 697,550 698,550 699,550 701,549 704,549 704,548 707,547 708,547 710,546 712,546 714,545 715,545 718,544 720,544 722,543 723,543 725,542 727,541 729,541 730,540 732,540 734,539 735,539 737,539 740,538 742,537 743,537 745,536 747,536 748,535 750,535 752,534 753,534 755,533 756,533 758,533 759,532 761,532 763,531 766,530 768,530 769,529 771,529 772,528 774,528 776,528 777,527 779,527 780,526 782,526 784,525 785,525 787,524 788,524 790,523 792,523 793,522 795,522 797,522 798,521 800,521 801,520 803,520 805,519 806,519 808,518 809,518 811,517 813,517 814,517 816,516 817,516 819,515 821,515 822,514 824,514 826,513 827,513 829,512 831,512 832,511 834,511 835,511 837,510 838,510 840,509 842,509 843,508 845,508 847,507 848,507 850,506 851,506 853,505 855,505 856,505 858,504 859,504 861,503 863,503 864,502 866,502 868,501 869,501 871,500 872,500 874,500 876,499 877,499 879,498 882,497 884,497 885,496 888,495 890,495 892,494 893,494 895,494 896,493 900,492 901,492 903,491 905,491 906,490 908,490 911,489 913,488 914,488 916,488 917,487 919,487 922,486 924,485 926,485 927,484 929,484 930,483 934,483 935,482 937,482 938,481 940,481 942,480 943,480 945,479 947,479 "/>
</svg>
