<svg width="987" height="610" viewBox="0 0 987 610" xmlns="http://www.w3.org/2000/svg">
<line opacity="0.1" stroke="#000000" stroke-width="1" x1="40" y1="579" x2="40" y2="9"/>
<line opacity="0.1" stroke="#000000" stroke-width="1" x1="49" y1="579" x2="49" y2="9"/>
<line opacity="0.1" stroke="#000000" stroke-width="1" x1="59" y1="579" x2="59" y2="9"/>
<line opacity="0.1" stroke="#000000" stroke-width="1" x1="69" y1="579" x2="69" y2="9"/>
<line opacity="0.1" stroke="#000000" stroke-width="1" x1="79" y1="579" x2="79" y2="9"/>
<line opacity="0.1" stroke="#000000" stroke-width="1" x1="89" y1="579" x2="89" y2="9"/>
<line opacity="0.1" stroke="#000000" stroke-width="1" x1="99" y1="579" x2="99" y2="9"/>
<line opacity="0.1" stroke="#000000" stroke-width="1" x1="109" y1="579" x2="109" y2="9"/>
<line opacity="0.1" stroke="#000000" stroke-width="1" x1="119" y1="579" x2="119" y2="9"/>
<line opacity="0.1" stroke="#000000" stroke-width="1" x1="129" y1="579" x2="129" y2="9"/>
<line opacity="0.1" stroke="#000000" stroke-width="1" x1="139" y1="579" x2="139" y2="9"/>
<line opacity="0.1" stroke="#000000" stroke-width="1" x1="149" y1="579" x2="149" y2="9"/>
<line opacity="0.1" stroke="#000000" stroke-width="1" x1="159" y1="579" x2="159" y2="9"/>
<line opacity="0.1" stroke="#000000" stroke-width="1" x1="169" y1="579" x2="169" y2="9"/>
<line opacity="0.1" stroke="#000000" stroke-width="1" x1="179" y1="579" x2="179" y2="9"/>
<line opacity="0.1" stroke="#000000" stroke-width="1" x1="189" y1="579" x2="189" y2="9"/>
<line opacity="0.1" stroke="#000000" stroke-width="1" x1="199" y1="579" x2="199" y2="9"/>
<line opacity="0.1" stroke="#000000" stroke-width="1" x1="209" y1="579" x2="209" y2="9"/>
<line opacity="0.1" stroke="#000000" stroke-width="1" x1="218" y1="579" x2="218" y2="9"/>
<line opacity="0.1" stroke="#000000" stroke-width="1" x1="228" y1="579" x2="228" y2="9"/>
<line opacity="0.1" stroke="#000000" stroke-width="1" x1="238" y1="579" x2="238" y2="9"/>
<line opacity="0.1" stroke="#000000" stroke-width="1" x1="248" y1="579" x2="248" y2="9"/>
<line opacity="0.1" stroke="#000000" stroke-width="1" x1="258" y1="579" x2="258" y2="9"/>
<line opacity="0.1" stroke="#000000" stroke-width="1" x1="268" y1="579" x2="268" y2="9"/>
<line opacity="0.1" stroke="#000000" stroke-width="1" x1="278" y1="579" x2="278" y2="9"/>
<line opacity="0.1" stroke="#000000" stroke-width="1" x1="288" y1="579" x2="288" y2="9"/>
<line opacity="0.1" stroke="#000000" stroke-width="1" x1="298" y1="579" x2="298" y2="9"/>
<line opacity="0.1" stroke="#000000" stroke-width="1" x1="308" y1="579" x2="308" y2="9"/>
<line opacity="0.1" stroke="#000000" stroke-width="1" x1="318" y1="579" x2="318" y2="9"/>
<line opacity="0.1" stroke="#000000" stroke-width="1" x1="328" y1="579" x2="328" y2="9"/>
<line opacity="0.1" stroke="#000000" stroke-width="1" x1="338" y1="579" x2="338" y2="9"/>
<line opacity="0.1" stroke="#000000" stroke-width="1" x1="348" y1="579" x2="348" y2="9"/>
<line opacity="0.1" stroke="#000000" stroke-width="1" x1="358" y1="579" x2="358" y2="9"/>
<line opacity="0.1" stroke="#000000" stroke-width="1" x1="368" y1="579" x2="368" y2="9"/>
<line opacity="0.1" stroke="#000000" stroke-width="1" x1="378" y1="579" x2="378" y2="9"/>
<line opacity="0.1" stroke="#000000" stroke-width="1" x1="387" y1="579" x2="387" y2="9"/>
<line opacity="0.1" stroke="#000000" stroke-width="1" x1="397" y1="579" x2="397" y2="9"/>
<line opacity="0.1" stroke="#000000" stroke-width="1" x1="407" y1="579" x2="407" y2="9"/>
<line opacity="0.1" stroke="#000000" stroke-width="1" x1="417" y1="579" x2="417" y2="9"/>
<line opacity="0.1" stroke="#000000" stroke-width="1" x1="427" y1="579" x2="427" y2="9"/>
<line opacity="0.1" stroke="#000000" stroke-width="1" x1="437" y1="579" x2="437" y2="9"/>
<line opacity="0.1" stroke="#000000" stroke-width="1" x1="447" y1="579" x2="447" y2="9"/>
<line opacity="0.1" stroke="#000000" stroke-width="1" x1="457" y1="579" x2="457" y2="9"/>
<line opacity="0.1" stroke="#000000" stroke-width="1" x1="467" y1="579" x2="467" y2="9"/>
<line opacity="0.1" stroke="#000000" stroke-width="1" x1="477" y1="579" x2="477" y2="9"/>
<line opacity="0.1" stroke="#000000" stroke-width="1" x1="487" y1="579" x2="487" y2="9"/>
<line opacity="0.1" stroke="#000000" stroke-width="1" x1="497" y1="579" x2="497" y2="9"/>
<line opacity="0.1" stroke="#000000" stroke-width="1" x1="507" y1="579" x2="507" y2="9"/>
<line opacity="0.1" stroke="#000000" stroke-width="1" x1="517" y1="579" x2="517" y2="9"/>
<line opacity="0.1" stroke="#000000" stroke-width="1" x1="527" y1="579" x2="527" y2="9"/>
<line opacity="0.1" stroke="#000000" stroke-width="1" x1="537" y1="579" x2="537" y2="9"/>
<line opacity="0.1" stroke="#000000" stroke-width="1" x1="547" y1="579" x2="547" y2="9"/>
<line opacity="0.1" stroke="#000000" stroke-width="1" x1="556" y1="579" x2="556" y2="9"/>
<line opacity="0.1" stroke="#000000" stroke-width="1" x1="566" y1="579" x2="566" y2="9"/>
<line opacity="0.1" stroke="#000000" stroke-width="1" x1="576" y1="579" x2="576" y2="9"/>
<line opacity="0.1" stroke="#000000" stroke-width="1" x1="586" y1="579" x2="586" y2="9"/>
<line opacity="0.1" stroke="#000000" stroke-width="1" x1="596" y1="579" x2="596" y2="9"/>
<line opacity="0.1" stroke="#000000" stroke-width="1" x1="606" y1="579" x2="606" y2="9"/>
<line opacity="0.1" stroke="#000000" stroke-width="1" x1="616" y1="579" x2="616" y2="9"/>
<line opacity="0.1" stroke="#000000" stroke-width="1" x1="626" y1="579" x2="626" y2="9"/>
<line opacity="0.1" stroke="#000000" stroke-width="1" x1="636" y1="579" x2="636" y2="9"/>
<line opacity="0.1" stroke="#000000" stroke-width="1" x1="646" y1="579" x2="646" y2="9"/>
<line opacity="0.1" stroke="#000000" stroke-width="1" x1="656" y1="579" x2="656" y2="9"/>
<line opacity="0.1" stroke="#000000" stroke-width="1" x1="666" y1="579" x2="666" y2="9"/>
<line opacity="0.1" stroke="#000000" stroke-width="1" x1="676" y1="579" x2="676" y2="9"/>
<line opacity="0.1" stroke="#000000" stroke-width="1" x1="686" y1="579" x2="686" y2="9"/>
<line opacity="0.1" stroke="#000000" stroke-width="1" x1="696" y1="579" x2="696" y2="9"/>
<line opacity="0.1" stroke="#000000" stroke-width="1" x1="706" y1="579" x2="706" y2="9"/>
<line opacity="0.1" stroke="#000000" stroke-width="1" x1="716" y1="579" x2="716" y2="9"/>
<line opacity="0.1" stroke="#000000" stroke-width="1" x1="725" y1="579" x2="725" y2="9"/>
<line opacity="0.1" stroke="#000000" stroke-width="1" x1="735" y1="579" x2="735" y2="9"/>
<line opacity="0.1" stroke="#000000" stroke-width="1" x1="745" y1="579" x2="745" y2="9"/>
<line opacity="0.1" stroke="#000000" stroke-width="1" x1="755" y1="579" x2="755" y2="9"/>
<line opacity="0.1" stroke="#000000" stroke-width="1" x1="765" y1="579" x2="765" y2="9"/>
<line opacity="0.1" stroke="#000000" stroke-width="1" x1="775" y1="579" x2="775" y2="9"/>
<line opacity="0.1" stroke="#000000" stroke-width="1" x1="785" y1="579" x2="785" y2="9"/>
<line opacity="0.1" stroke="#000000" stroke-width="1" x1="795" y1="579" x2="795" y2="9"/>
<line opacity="0.1" stroke="#000000" stroke-width="1" x1="805" y1="579" x2="805" y2="9"/>
<line opacity="0.1" stroke="#000000" stroke-width="1" x1="815" y1="579" x2="815" y2="9"/>
<line opacity="0.1" stroke="#000000" stroke-width="1" x1="825" y1="579" x2="825" y2="9"/>
<line opacity="0.1" stroke="#000000" stroke-width="1" x1="835" y1="579" x2="835" y2="9"/>
<line opacity="0.1" stroke="#000000" stroke-width="1" x1="845" y1="579" x2="845" y2="9"/>
<line opacity="0.1" stroke="#000000" stroke-width="1" x1="855" y1="579" x2="855" y2="9"/>
<line opacity="0.1" stroke="#000000" stroke-width="1" x1="865" y1="579" x2="865" y2="9"/>
<line opacity="0.1" stroke="#000000" stroke-width="1" x1="875" y1="579" x2="875" y2="9"/>
<line opacity="0.1" stroke="#000000" stroke-width="1" x1="885" y1="579" x2="885" y2="9"/>
<line opacity="0.1" stroke="#000000" stroke-width="1" x1="894" y1="579" x2="894" y2="9"/>
<line opacity="0.1" stroke="#000000" stroke-width="1" x1="904" y1="579" x2="904" y2="9"/>
<line opacity="0.1" stroke="#000000" stroke-width="1" x1="914" y1="579" x2="914" y2="9"/>
<line opacity="0.1" stroke="#000000" stroke-width="1" x1="924" y1="579" x2="924" y2="9"/>
<line opacity="0.1" stroke="#000000" stroke-width="1" x1="934" y1="579" x2="934" y2="9"/>
<line opacity="0.1" stroke="#000000" stroke-width="1" x1="944" y1="579" x2="944" y2="9"/>
<line opacity="0.1" stroke="#000000" stroke-width="1" x1="40" y1="567" x2="947" y2="567"/>
<line opacity="0.1" stroke="#000000" stroke-width="1" x1="40" y1="556" x2="947" y2="556"/>
<line opacity="0.1" stroke="#000000" stroke-width="1" x1="40" y1="545" x2="947" y2="545"/>
<line opacity="0.1" stroke="#000000" stroke-width="1" x1="40" y1="533" x2="947" y2="533"/>
<line opacity="0.1" stroke="#000000" stroke-width="1" x1="40" y1="522" x2="947" y2="522"/>
<line opacity="0.1" stroke="#000000" stroke-width="1" x1="40" y1="511" x2="947" y2="511"/>
<line opacity="0.1" stroke="#000000" stroke-width="1" x1="40" y1="499" x2="947" y2="499"/>
<line opacity="0.1" stroke="#000000" stroke-width="1" x1="40" y1="488" x2="947" y2="488"/>
<line opacity="0.1" stroke="#000000" stroke-width="1" x1="40" y1="477" x2="947" y2="477"/>
<line opacity="0.1" stroke="#000000" stroke-width="1" x1="40" y1="466" x2="947" y2="466"/>
<line opacity="0.1" stroke="#000000" stroke-width="1" x1="40" y1="454" x2="947" y2="454"/>
<line opacity="0.1" stroke="#000000" stroke-width="1" x1="40" y1="443" x2="947" y2="443"/>
<line opacity="0.1" stroke="#000000" stroke-width="1" x1="40" y1="432" x2="947" y2="432"/>
<line opacity="0.1" stroke="#000000" stroke-width="1" x1="40" y1="420" x2="947" y2="420"/>
<line opacity="0.1" stroke="#000000" stroke-width="1" x1="40" y1="409" x2="947" y2="409"/>
<line opacity="0.1" stroke="#000000" stroke-width="1" x1="40" y1="398" x2="947" y2="398"/>
<line opacity="0.1" stroke="#000000" stroke-width="1" x1="40" y1="387" x2="947" y2="387"/>
<line opacity="0.1" stroke="#000000" stroke-width="1" x1="40" y1="375" x2="947" y2="375"/>
<line opacity="0.1" stroke="#000000" stroke-width="1" x1="40" y1="364" x2="947" y2="364"/>
<line opacity="0.1" stroke="#000000" stroke-width="1" x1="40" y1="353" x2="947" y2="353"/>
<line opacity="0.1" stroke="#000000" stroke-width="1" x1="40" y1="341" x2="947" y2="341"/>
<line opacity="0.1" stroke="#000000" stroke-width="1" x1="40" y1="330" x2="947" y2="330"/>
<line opacity="0.1" stroke="#000000" stroke-width="1" x1="40" y1="319" x2="947" y2="319"/>
<line opacity="0.1" stroke="#000000" stroke-width="1" x1="40" y1="308" x2="947" y2="308"/>
<line opacity="0.1" stroke="#000000" stroke-width="1" x1="40" y1="296" x2="947" y2="296"/>
<line opacity="0.1" stroke="#000000" stroke-width="1" x1="40" y1="285" x2="947" y2="285"/>
<line opacity="0.1" stroke="#000000" stroke-width="1" x1="40" y1="274" x2="947" y2="274"/>
<line opacity="0.1" stroke="#000000" stroke-width="1" x1="40" y1="262" x2="947" y2="262"/>
<line opacity="0.1" stroke="#000000" stroke-width="1" x1="40" y1="251" x2="947" y2="251"/>
<line opacity="0.1" stroke="#000000" stroke-width="1" x1="40" y1="240" x2="947" y2="240"/>
<line opacity="0.1" stroke="#000000" stroke-width="1" x1="40" y1="229" x2="947" y2="229"/>
<line opacity="0.1" stroke="#000000" stroke-width="1" x1="40" y1="217" x2="947" y2="217"/>
<line opacity="0.1" stroke="#000000" stroke-width="1" x1="40" y1="206" x2="947" y2="206"/>
<line opacity="0.1" stroke="#000000" stroke-width="1" x1="40" y1="195" x2="947" y2="195"/>
<line opacity="0.1" stroke="#000000" stroke-width="1" x1="40" y1="183" x2="947" y2="183"/>
<line opacity="0.1" stroke="#000000" stroke-width="1" x1="40" y1="172" x2="947" y2="172"/>
<line opacity="0.1" stroke="#000000" stroke-width="1" x1="40" y1="161" x2="947" y2="161"/>
<line opacity="0.1" stroke="#000000" stroke-width="1" x1="40" y1="150" x2="947" y2="150"/>
<line opacity="0.1" stroke="#000000" stroke-width="1" x1="40" y1="138" x2="947" y2="138"/>
<line opacity="0.1" stroke="#000000" stroke-width="1" x1="40" y1="127" x2="947" y2="127"/>
<line opacity="0.1" stroke="#000000" stroke-width="1" x1="40" y1="116" x2="947" y2="116"/>
<line opacity="0.1" stroke="#000000" stroke-width="1" x1="40" y1="104" x2="947" y2="104"/>
<line opacity="0.1" stroke="#000000" stroke-width="1" x1="40" y1="93" x2="947" y2="93"/>
<line opacity="0.1" stroke="#000000" stroke-width="1" x1="40" y1="82" x2="947" y2="82"/>
<line opacity="0.1" stroke="#000000" stroke-width="1" x1="40" y1="71" x2="947" y2="71"/>
<line opacity="0.1" stroke="#000000" stroke-width="1" x1="40" y1="59" x2="947" y2="59"/>
<line opacity="0.1" stroke="#000000" stroke-width="1" x1="40" y1="48" x2="947" y2="48"/>
<line opacity="0.1" stroke="#000000" stroke-width="1" x1="40" y1="37" x2="947" y2="37"/>
<line opacity="0.1" stroke="#000000" stroke-width="1" x1="40" y1="25" x2="947" y2="25"/>
<line opacity="0.1" stroke="#000000" stroke-width="1" x1="40" y1="14" x2="947" y2="14"/>
<line opacity="0.2" stroke="#000000" stroke-width="1" x1="40" y1="579" x2="40" y2="9"/>
<line opacity="0.2" stroke="#000000" stroke-width="1" x1="139" y1="579" x2="139" y2="9"/>
<line opacity="0.2" stroke="#000000" stroke-width="1" x1="238" y1="579" x2="238" y2="9"/>
<line opacity="0.2" stroke="#000000" stroke-width="1" x1="338" y1="579" x2="338" y2="9"/>
<line opacity="0.2" stroke="#000000" stroke-width="1" x1="437" y1="579" x2="437" y2="9"/>
<line opacity="0.2" stroke="#000000" stroke-width="1" x1="537" y1="579" x2="537" y2="9"/>
<line opacity="0.2" stroke="#000000" stroke-width="1" x1="636" y1="579" x2="636" y2="9"/>
<line opacity="0.2" stroke="#000000" stroke-width="1" x1="735" y1="579" x2="735" y2="9"/>
<line opacity="0.2" stroke="#000000" stroke-width="1" x1="835" y1="579" x2="835" y2="9"/>
<line opacity="0.2" stroke="#000000" stroke-width="1" x1="934" y1="579" x2="934" y2="9"/>
<line opacity="0.2" stroke="#000000" stroke-width="1" x1="40" y1="522" x2="947" y2="522"/>
<line opacity="0.2" stroke="#000000" stroke-width="1" x1="40" y1="466" x2="947" y2="466"/>
<line opacity="0.2" stroke="#000000" stroke-width="1" x1="40" y1="409" x2="947" y2="409"/>
<line opacity="0.2" stroke="#000000" stroke-width="1" x1="40" y1="353" x2="947" y2="353"/>
<line opacity="0.2" stroke="#000000" stroke-width="1" x1="40" y1="296" x2="947" y2="296"/>
<line opacity="0.2" stroke="#000000" stroke-width="1" x1="40" y1="240" x2="947" y2="240"/>
<line opacity="0.2" stroke="#000000" stroke-width="1" x1="40" y1="183" x2="947" y2="183"/>
<line opacity="0.2" stroke="#000000" stroke-width="1" x1="40" y1="127" x2="947" y2="127"/>
<line opacity="0.2" stroke="#000000" stroke-width="1" x1="40" y1="71" x2="947" y2="71"/>
<line opacity="0.2" stroke="#000000" stroke-width="1" x1="40" y1="14" x2="947" y2="14"/>
<polyline fill="none" opacity="1" stroke="#000000" stroke-width="1" points="39,10 39,580 "/>
<text x="30" y="522" dy="0.5ex" text-anchor="end" font-family="sans-serif" font-size="9.67741935483871" opacity="1" fill="#000000">
10%
</text>
<polyline fill="none" opacity="1" stroke="#000000" stroke-width="1" points="34,522 39,522 "/>
<text x="30" y="466" dy="0.5ex" text-anchor="end" font-family="sans-serif" font-size="9.67741935483871" opacity="1" fill="#000000">
20%
</text>
<polyline fill="none" opacity="1" stroke="#000000" stroke-width="1" points="34,466 39,466 "/>
<text x="30" y="409" dy="0.5ex" text-anchor="end" font-family="sans-serif" font-size="9.67741935483871" opacity="1" fill="#000000">
30%
</text>
<polyline fill="none" opacity="1" stroke="#000000" stroke-width="1" points="34,409 39,409 "/>
<text x="30" y="353" dy="0.5ex" text-anchor="end" font-family="sans-serif" font-size="9.67741935483871" opacity="1" fill="#000000">
40%
</text>
<polyline fill="none" opacity="1" stroke="#000000" stroke-width="1" points="34,353 39,353 "/>
<text x="30" y="296" dy="0.5ex" text-anchor="end" font-family="sans-serif" font-size="9.67741935483871" opacity="1" fill="#000000">
50%
</text>
<polyline fill="none" opacity="1" stroke="#000000" stroke-width="1" points="34,296 39,296 "/>
<text x="30" y="240" dy="0.5ex" text-anchor="end" font-family="sans-serif" font-size="9.67741935483871" opacity="1" fill="#000000">
60%
</text>
<polyline fill="none" opacity="1" stroke="#000000" stroke-width="1" points="34,240 39,240 "/>
<text x="30" y="183" dy="0.5ex" text-anchor="end" font-family="sans-serif" font-size="9.67741935483871" opacity="1" fill="#000000">
70%
</text>
<polyline fill="none" opacity="1" stroke="#000000" stroke-width="1" points="34,183 39,183 "/>
<text x="30" y="127" dy="0.5ex" text-anchor="end" font-family="sans-serif" font-size="9.67741935483871" opacity="1" fill="#000000">
80%
</text>
<polyline fill="none" opacity="1" stroke="#000000" stroke-width="1" points="34,127 39,127 "/>
<text x="30" y="71" dy="0.5ex" text-anchor="end" font-family="sans-serif" font-size="9.67741935483871" opacity="1" fill="#000000">
90%
</text>
<polyline fill="none" opacity="1" stroke="#000000" stroke-width="1" points="34,71 39,71 "/>
<text x="30" y="14" dy="0.5ex" text-anchor="end" font-family="sans-serif" font-size="9.67741935483871" opacity="1" fill="#000000">
100%
</text>
<polyline fill="none" opacity="1" stroke="#000000" stroke-width="1" points="34,14 39,14 "/>
<polyline fill="none" opacity="1" stroke="#000000" stroke-width="1" points="40,580 947,580 "/>
<text x="40" y="590" dy="0.76em" text-anchor="middle" font-family="sans-serif" font-size="9.67741935483871" opacity="1" fill="#000000">
2019-03-16
</text>
<polyline fill="none" opacity="1" stroke="#000000" stroke-width="1" points="40,580 40,585 "/>
<text x="139" y="590" dy="0.76em" text-anchor="middle" font-family="sans-serif" font-size="9.67741935483871" opacity="1" fill="#000000">
2019-05-25
</text>
<polyline fill="none" opacity="1" stroke="#000000" stroke-width="1" points="139,580 139,585 "/>
<text x="238" y="590" dy="0.76em" text-anchor="middle" font-family="sans-serif" font-size="9.67741935483871" opacity="1" fill="#000000">
2019-08-03
</text>
<polyline fill="none" opacity="1" stroke="#000000" stroke-width="1" points="238,580 238,585 "/>
<text x="338" y="590" dy="0.76em" text-anchor="middle" font-family="sans-serif" font-size="9.67741935483871" opacity="1" fill="#000000">
2019-10-12
</text>
<polyline fill="none" opacity="1" stroke="#000000" stroke-width="1" points="338,580 338,585 "/>
<text x="437" y="590" dy="0.76em" text-anchor="middle" font-family="sans-serif" font-size="9.67741935483871" opacity="1" fill="#000000">
2019-12-21
</text>
<polyline fill="none" opacity="1" stroke="#000000" stroke-width="1" points="437,580 437,585 "/>
<text x="537" y="590" dy="0.76em" text-anchor="middle" font-family="sans-serif" font-size="9.67741935483871" opacity="1" fill="#000000">
2020-02-29
</text>
<polyline fill="none" opacity="1" stroke="#000000" stroke-width="1" points="537,580 537,585 "/>
<text x="636" y="590" dy="0.76em" text-anchor="middle" font-family="sans-serif" font-size="9.67741935483871" opacity="1" fill="#000000">
2020-05-09
</text>
<polyline fill="none" opacity="1" stroke="#000000" stroke-width="1" points="636,580 636,585 "/>
<text x="735" y="590" dy="0.76em" text-anchor="middle" font-family="sans-serif" font-size="9.67741935483871" opacity="1" fill="#000000">
2020-07-18
</text>
<polyline fill="none" opacity="1" stroke="#000000" stroke-width="1" points="735,580 735,585 "/>
<text x="835" y="590" dy="0.76em" text-anchor="middle" font-family="sans-serif" font-size="9.67741935483871" opacity="1" fill="#000000">
2020-09-26
</text>
<polyline fill="none" opacity="1" stroke="#000000" stroke-width="1" points="835,580 835,585 "/>
<text x="934" y="590" dy="0.76em" text-anchor="middle" font-family="sans-serif" font-size="9.67741935483871" opacity="1" fill="#000000">
2020-12-05
</text>
<polyline fill="none" opacity="1" stroke="#000000" stroke-width="1" points="934,580 934,585 "/>
<polyline fill="none" opacity="1" stroke="#FF0000" stroke-width="1" points="40,578 40,578 46,576 47,575 152,575 155,575 157,575 161,575 163,575 171,574 220,572 220,572 399,572 409,571 435,571 447,570 458,570 459,569 477,569 491,569 498,568 561,568 563,568 564,568 570,567 572,567 572,566 574,566 575,565 577,564 580,564 581,563 582,563 584,562 586,561 588,561 590,561 591,560 593,560 594,559 596,558 598,558 598,558 599,558 601,557 602,557 604,556 605,556 607,555 609,554 611,554 612,554 614,553 616,552 616,552 618,551 619,551 621,551 622,551 625,550 625,550 627,549 629,548 630,548 632,548 634,547 635,547 637,546 639,545 641,545 642,544 643,544 645,543 647,543 648,542 650,542 651,541 653,541 654,541 657,540 658,539 660,539 661,538 662,538 664,537 665,537 667,537 668,536 670,536 671,535 672,535 674,534 675,534 677,534 679,533 681,532 682,532 684,531 685,531 687,530 688,530 689,530 691,529 692,529 694,528 696,528 697,527 698,527 699,527 701,526 702,526 704,525 705,525 707,524 708,524 709,524 711,523 712,523 714,522 715,522 717,521 718,521 719,520 721,520 722,520 724,519 725,519 727,518 728,518 729,517 731,517 732,517 733,516 735,516 736,515 738,515 739,514 741,514 742,513 743,513 745,513 747,512 748,512 749,511 751,511 752,510 753,510 755,510 756,509 758,509 759,508 760,508 762,507 763,507 765,506 766,506 768,506 769,505 770,505 772,504 773,504 775,503 776,503 778,503 779,502 782,501 783,501 785,500 787,499 789,499 790,499 792,498 793,498 795,497 797,496 799,496 800,496 802,495 803,495 804,494 807,493 809,493 810,493 812,492 813,492 814,491 817,490 819,490 820,489 822,489 823,489 824,488 827,487 829,487 830,486 832,486 833,486 834,485 836,485 837,484 839,484 840,483 843,482 844,482 846,482 848,481 849,481 850,480 852,480 853,479 854,479 856,479 857,478 858,478 860,477 861,477 863,476 864,476 867,475 868,475 870,474 871,474 873,473 874,473 876,472 877,472 878,472 880,471 881,471 883,470 884,470 886,469 887,469 888,469 890,468 891,468 893,467 894,467 895,466 897,466 898,465 900,465 901,465 902,464 904,464 905,463 907,463 908,462 910,462 911,462 912,461 914,461 916,460 917,460 918,459 920,459 921,458 922,458 924,458 925,457 927,457 928,456 929,456 931,455 932,455 934,455 935,454 937,454 938,453 939,453 941,452 942,452 944,451 945,451 946,451 "/>
</svg>
