<svg width="987" height="610" viewBox="0 0 987 610" xmlns="http://www.w3.org/2000/svg">
<line opacity="0.1" stroke="#000000" stroke-width="1" x1="40" y1="579" x2="40" y2="9"/>
<line opacity="0.1" stroke="#000000" stroke-width="1" x1="51" y1="579" x2="51" y2="9"/>
<line opacity="0.1" stroke="#000000" stroke-width="1" x1="62" y1="579" x2="62" y2="9"/>
<line opacity="0.1" stroke="#000000" stroke-width="1" x1="73" y1="579" x2="73" y2="9"/>
<line opacity="0.1" stroke="#000000" stroke-width="1" x1="84" y1="579" x2="84" y2="9"/>
<line opacity="0.1" stroke="#000000" stroke-width="1" x1="96" y1="579" x2="96" y2="9"/>
<line opacity="0.1" stroke="#000000" stroke-width="1" x1="107" y1="579" x2="107" y2="9"/>
<line opacity="0.1" stroke="#000000" stroke-width="1" x1="118" y1="579" x2="118" y2="9"/>
<line opacity="0.1" stroke="#000000" stroke-width="1" x1="129" y1="579" x2="129" y2="9"/>
<line opacity="0.1" stroke="#000000" stroke-width="1" x1="141" y1="579" x2="141" y2="9"/>
<line opacity="0.1" stroke="#000000" stroke-width="1" x1="152" y1="579" x2="152" y2="9"/>
<line opacity="0.1" stroke="#000000" stroke-width="1" x1="163" y1="579" x2="163" y2="9"/>
<line opacity="0.1" stroke="#000000" stroke-width="1" x1="174" y1="579" x2="174" y2="9"/>
<line opacity="0.1" stroke="#000000" stroke-width="1" x1="186" y1="579" x2="186" y2="9"/>
<line opacity="0.1" stroke="#000000" stroke-width="1" x1="197" y1="579" x2="197" y2="9"/>
<line opacity="0.1" stroke="#000000" stroke-width="1" x1="208" y1="579" x2="208" y2="9"/>
<line opacity="0.1" stroke="#000000" stroke-width="1" x1="219" y1="579" x2="219" y2="9"/>
<line opacity="0.1" stroke="#000000" stroke-width="1" x1="230" y1="579" x2="230" y2="9"/>
<line opacity="0.1" stroke="#000000" stroke-width="1" x1="242" y1="579" x2="242" y2="9"/>
<line opacity="0.1" stroke="#000000" stroke-width="1" x1="253" y1="579" x2="253" y2="9"/>
<line opacity="0.1" stroke="#000000" stroke-width="1" x1="264" y1="579" x2="264" y2="9"/>
<line opacity="0.1" stroke="#000000" stroke-width="1" x1="275" y1="579" x2="275" y2="9"/>
<line opacity="0.1" stroke="#000000" stroke-width="1" x1="287" y1="579" x2="287" y2="9"/>
<line opacity="0.1" stroke="#000000" stroke-width="1" x1="298" y1="579" x2="298" y2="9"/>
<line opacity="0.1" stroke="#000000" stroke-width="1" x1="309" y1="579" x2="309" y2="9"/>
<line opacity="0.1" stroke="#000000" stroke-width="1" x1="320" y1="579" x2="320" y2="9"/>
<line opacity="0.1" stroke="#000000" stroke-width="1" x1="332" y1="579" x2="332" y2="9"/>
<line opacity="0.1" stroke="#000000" stroke-width="1" x1="343" y1="579" x2="343" y2="9"/>
<line opacity="0.1" stroke="#000000" stroke-width="1" x1="354" y1="579" x2="354" y2="9"/>
<line opacity="0.1" stroke="#000000" stroke-width="1" x1="365" y1="579" x2="365" y2="9"/>
<line opacity="0.1" stroke="#000000" stroke-width="1" x1="376" y1="579" x2="376" y2="9"/>
<line opacity="0.1" stroke="#000000" stroke-width="1" x1="388" y1="579" x2="388" y2="9"/>
<line opacity="0.1" stroke="#000000" stroke-width="1" x1="399" y1="579" x2="399" y2="9"/>
<line opacity="0.1" stroke="#000000" stroke-width="1" x1="410" y1="579" x2="410" y2="9"/>
<line opacity="0.1" stroke="#000000" stroke-width="1" x1="421" y1="579" x2="421" y2="9"/>
<line opacity="0.1" stroke="#000000" stroke-width="1" x1="433" y1="579" x2="433" y2="9"/>
<line opacity="0.1" stroke="#000000" stroke-width="1" x1="444" y1="579" x2="444" y2="9"/>
<line opacity="0.1" stroke="#000000" stroke-width="1" x1="455" y1="579" x2="455" y2="9"/>
<line opacity="0.1" stroke="#000000" stroke-width="1" x1="466" y1="579" x2="466" y2="9"/>
<line opacity="0.1" stroke="#000000" stroke-width="1" x1="478" y1="579" x2="478" y2="9"/>
<line opacity="0.1" stroke="#000000" stroke-width="1" x1="489" y1="579" x2="489" y2="9"/>
<line opacity="0.1" stroke="#000000" stroke-width="1" x1="500" y1="579" x2="500" y2="9"/>
<line opacity="0.1" stroke="#000000" stroke-width="1" x1="511" y1="579" x2="511" y2="9"/>
<line opacity="0.1" stroke="#000000" stroke-width="1" x1="522" y1="579" x2="522" y2="9"/>
<line opacity="0.1" stroke="#000000" stroke-width="1" x1="534" y1="579" x2="534" y2="9"/>
<line opacity="0.1" stroke="#000000" stroke-width="1" x1="545" y1="579" x2="545" y2="9"/>
<line opacity="0.1" stroke="#000000" stroke-width="1" x1="556" y1="579" x2="556" y2="9"/>
<line opacity="0.1" stroke="#000000" stroke-width="1" x1="567" y1="579" x2="567" y2="9"/>
<line opacity="0.1" stroke="#000000" stroke-width="1" x1="579" y1="579" x2="579" y2="9"/>
<line opacity="0.1" stroke="#000000" stroke-width="1" x1="590" y1="579" x2="590" y2="9"/>
<line opacity="0.1" stroke="#000000" stroke-width="1" x1="601" y1="579" x2="601" y2="9"/>
<line opacity="0.1" stroke="#000000" stroke-width="1" x1="612" y1="579" x2="612" y2="9"/>
<line opacity="0.1" stroke="#000000" stroke-width="1" x1="624" y1="579" x2="624" y2="9"/>
<line opacity="0.1" stroke="#000000" stroke-width="1" x1="635" y1="579" x2="635" y2="9"/>
<line opacity="0.1" stroke="#000000" stroke-width="1" x1="646" y1="579" x2="646" y2="9"/>
<line opacity="0.1" stroke="#000000" stroke-width="1" x1="657" y1="579" x2="657" y2="9"/>
<line opacity="0.1" stroke="#000000" stroke-width="1" x1="669" y1="579" x2="669" y2="9"/>
<line opacity="0.1" stroke="#000000" stroke-width="1" x1="680" y1="579" x2="680" y2="9"/>
<line opacity="0.1" stroke="#000000" stroke-width="1" x1="691" y1="579" x2="691" y2="9"/>
<line opacity="0.1" stroke="#000000" stroke-width="1" x1="702" y1="579" x2="702" y2="9"/>
<line opacity="0.1" stroke="#000000" stroke-width="1" x1="713" y1="579" x2="713" y2="9"/>
<line opacity="0.1" stroke="#000000" stroke-width="1" x1="725" y1="579" x2="725" y2="9"/>
<line opacity="0.1" stroke="#000000" stroke-width="1" x1="736" y1="579" x2="736" y2="9"/>
<line opacity="0.1" stroke="#000000" stroke-width="1" x1="747" y1="579" x2="747" y2="9"/>
<line opacity="0.1" stroke="#000000" stroke-width="1" x1="758" y1="579" x2="758" y2="9"/>
<line opacity="0.1" stroke="#000000" stroke-width="1" x1="770" y1="579" x2="770" y2="9"/>
<line opacity="0.1" stroke="#000000" stroke-width="1" x1="781" y1="579" x2="781" y2="9"/>
<line opacity="0.1" stroke="#000000" stroke-width="1" x1="792" y1="579" x2="792" y2="9"/>
<line opacity="0.1" stroke="#000000" stroke-width="1" x1="803" y1="579" x2="803" y2="9"/>
<line opacity="0.1" stroke="#000000" stroke-width="1" x1="815" y1="579" x2="815" y2="9"/>
<line opacity="0.1" stroke="#000000" stroke-width="1" x1="826" y1="579" x2="826" y2="9"/>
<line opacity="0.1" stroke="#000000" stroke-width="1" x1="837" y1="579" x2="837" y2="9"/>
<line opacity="0.1" stroke="#000000" stroke-width="1" x1="848" y1="579" x2="848" y2="9"/>
<line opacity="0.1" stroke="#000000" stroke-width="1" x1="859" y1="579" x2="859" y2="9"/>
<line opacity="0.1" stroke="#000000" stroke-width="1" x1="871" y1="579" x2="871" y2="9"/>
<line opacity="0.1" stroke="#000000" stroke-width="1" x1="882" y1="579" x2="882" y2="9"/>
<line opacity="0.1" stroke="#000000" stroke-width="1" x1="893" y1="579" x2="893" y2="9"/>
<line opacity="0.1" stroke="#000000" stroke-width="1" x1="904" y1="579" x2="904" y2="9"/>
<line opacity="0.1" stroke="#000000" stroke-width="1" x1="916" y1="579" x2="916" y2="9"/>
<line opacity="0.1" stroke="#000000" stroke-width="1" x1="927" y1="579" x2="927" y2="9"/>
<line opacity="0.1" stroke="#000000" stroke-width="1" x1="938" y1="579" x2="938" y2="9"/>
<line opacity="0.1" stroke="#000000" stroke-width="1" x1="40" y1="567" x2="947" y2="567"/>
<line opacity="0.1" stroke="#000000" stroke-width="1" x1="40" y1="556" x2="947" y2="556"/>
<line opacity="0.1" stroke="#000000" stroke-width="1" x1="40" y1="545" x2="947" y2="545"/>
<line opacity="0.1" stroke="#000000" stroke-width="1" x1="40" y1="533" x2="947" y2="533"/>
<line opacity="0.1" stroke="#000000" stroke-width="1" x1="40" y1="522" x2="947" y2="522"/>
<line opacity="0.1" stroke="#000000" stroke-width="1" x1="40" y1="511" x2="947" y2="511"/>
<line opacity="0.1" stroke="#000000" stroke-width="1" x1="40" y1="499" x2="947" y2="499"/>
<line opacity="0.1" stroke="#000000" stroke-width="1" x1="40" y1="488" x2="947" y2="488"/>
<line opacity="0.1" stroke="#000000" stroke-width="1" x1="40" y1="477" x2="947" y2="477"/>
<line opacity="0.1" stroke="#000000" stroke-width="1" x1="40" y1="466" x2="947" y2="466"/>
<line opacity="0.1" stroke="#000000" stroke-width="1" x1="40" y1="454" x2="947" y2="454"/>
<line opacity="0.1" stroke="#000000" stroke-width="1" x1="40" y1="443" x2="947" y2="443"/>
<line opacity="0.1" stroke="#000000" stroke-width="1" x1="40" y1="432" x2="947" y2="432"/>
<line opacity="0.1" stroke="#000000" stroke-width="1" x1="40" y1="420" x2="947" y2="420"/>
<line opacity="0.1" stroke="#000000" stroke-width="1" x1="40" y1="409" x2="947" y2="409"/>
<line opacity="0.1" stroke="#000000" stroke-width="1" x1="40" y1="398" x2="947" y2="398"/>
<line opacity="0.1" stroke="#000000" stroke-width="1" x1="40" y1="387" x2="947" y2="387"/>
<line opacity="0.1" stroke="#000000" stroke-width="1" x1="40" y1="375" x2="947" y2="375"/>
<line opacity="0.1" stroke="#000000" stroke-width="1" x1="40" y1="364" x2="947" y2="364"/>
<line opacity="0.1" stroke="#000000" stroke-width="1" x1="40" y1="353" x2="947" y2="353"/>
<line opacity="0.1" stroke="#000000" stroke-width="1" x1="40" y1="341" x2="947" y2="341"/>
<line opacity="0.1" stroke="#000000" stroke-width="1" x1="40" y1="330" x2="947" y2="330"/>
<line opacity="0.1" stroke="#000000" stroke-width="1" x1="40" y1="319" x2="947" y2="319"/>
<line opacity="0.1" stroke="#000000" stroke-width="1" x1="40" y1="308" x2="947" y2="308"/>
<line opacity="0.1" stroke="#000000" stroke-width="1" x1="40" y1="296" x2="947" y2="296"/>
<line opacity="0.1" stroke="#000000" stroke-width="1" x1="40" y1="285" x2="947" y2="285"/>
<line opacity="0.1" stroke="#000000" stroke-width="1" x1="40" y1="274" x2="947" y2="274"/>
<line opacity="0.1" stroke="#000000" stroke-width="1" x1="40" y1="262" x2="947" y2="262"/>
<line opacity="0.1" stroke="#000000" stroke-width="1" x1="40" y1="251" x2="947" y2="251"/>
<line opacity="0.1" stroke="#000000" stroke-width="1" x1="40" y1="240" x2="947" y2="240"/>
<line opacity="0.1" stroke="#000000" stroke-width="1" x1="40" y1="229" x2="947" y2="229"/>
<line opacity="0.1" stroke="#000000" stroke-width="1" x1="40" y1="217" x2="947" y2="217"/>
<line opacity="0.1" stroke="#000000" stroke-width="1" x1="40" y1="206" x2="947" y2="206"/>
<line opacity="0.1" stroke="#000000" stroke-width="1" x1="40" y1="195" x2="947" y2="195"/>
<line opacity="0.1" stroke="#000000" stroke-width="1" x1="40" y1="183" x2="947" y2="183"/>
<line opacity="0.1" stroke="#000000" stroke-width="1" x1="40" y1="172" x2="947" y2="172"/>
<line opacity="0.1" stroke="#000000" stroke-width="1" x1="40" y1="161" x2="947" y2="161"/>
<line opacity="0.1" stroke="#000000" stroke-width="1" x1="40" y1="150" x2="947" y2="150"/>
<line opacity="0.1" stroke="#000000" stroke-width="1" x1="40" y1="138" x2="947" y2="138"/>
<line opacity="0.1" stroke="#000000" stroke-width="1" x1="40" y1="127" x2="947" y2="127"/>
<line opacity="0.1" stroke="#000000" stroke-width="1" x1="40" y1="116" x2="947" y2="116"/>
<line opacity="0.1" stroke="#000000" stroke-width="1" x1="40" y1="104" x2="947" y2="104"/>
<line opacity="0.1" stroke="#000000" stroke-width="1" x1="40" y1="93" x2="947" y2="93"/>
<line opacity="0.1" stroke="#000000" stroke-width="1" x1="40" y1="82" x2="947" y2="82"/>
<line opacity="0.1" stroke="#000000" stroke-width="1" x1="40" y1="71" x2="947" y2="71"/>
<line opacity="0.1" stroke="#000000" stroke-width="1" x1="40" y1="59" x2="947" y2="59"/>
<line opacity="0.1" stroke="#000000" stroke-width="1" x1="40" y1="48" x2="947" y2="48"/>
<line opacity="0.1" stroke="#000000" stroke-width="1" x1="40" y1="37" x2="947" y2="37"/>
<line opacity="0.1" stroke="#000000" stroke-width="1" x1="40" y1="25" x2="947" y2="25"/>
<line opacity="0.1" stroke="#000000" stroke-width="1" x1="40" y1="14" x2="947" y2="14"/>
<line opacity="0.2" stroke="#000000" stroke-width="1" x1="40" y1="579" x2="40" y2="9"/>
<line opacity="0.2" stroke="#000000" stroke-width="1" x1="129" y1="579" x2="129" y2="9"/>
<line opacity="0.2" stroke="#000000" stroke-width="1" x1="219" y1="579" x2="219" y2="9"/>
<line opacity="0.2" stroke="#000000" stroke-width="1" x1="309" y1="579" x2="309" y2="9"/>
<line opacity="0.2" stroke="#000000" stroke-width="1" x1="399" y1="579" x2="399" y2="9"/>
<line opacity="0.2" stroke="#000000" stroke-width="1" x1="489" y1="579" x2="489" y2="9"/>
<line opacity="0.2" stroke="#000000" stroke-width="1" x1="579" y1="579" x2="579" y2="9"/>
<line opacity="0.2" stroke="#000000" stroke-width="1" x1="669" y1="579" x2="669" y2="9"/>
<line opacity="0.2" stroke="#000000" stroke-width="1" x1="758" y1="579" x2="758" y2="9"/>
<line opacity="0.2" stroke="#000000" stroke-width="1" x1="848" y1="579" x2="848" y2="9"/>
<line opacity="0.2" stroke="#000000" stroke-width="1" x1="938" y1="579" x2="938" y2="9"/>
<line opacity="0.2" stroke="#000000" stroke-width="1" x1="40" y1="522" x2="947" y2="522"/>
<line opacity="0.2" stroke="#000000" stroke-width="1" x1="40" y1="466" x2="947" y2="466"/>
<line opacity="0.2" stroke="#000000" stroke-width="1" x1="40" y1="409" x2="947" y2="409"/>
<line opacity="0.2" stroke="#000000" stroke-width="1" x1="40" y1="353" x2="947" y2="353"/>
<line opacity="0.2" stroke="#000000" stroke-width="1" x1="40" y1="296" x2="947" y2="296"/>
<line opacity="0.2" stroke="#000000" stroke-width="1" x1="40" y1="240" x2="947" y2="240"/>
<line opacity="0.2" stroke="#000000" stroke-width="1" x1="40" y1="183" x2="947" y2="183"/>
<line opacity="0.2" stroke="#000000" stroke-width="1" x1="40" y1="127" x2="947" y2="127"/>
<line opacity="0.2" stroke="#000000" stroke-width="1" x1="40" y1="71" x2="947" y2="71"/>
<line opacity="0.2" stroke="#000000" stroke-width="1" x1="40" y1="14" x2="947" y2="14"/>
<polyline fill="none" opacity="1" stroke="#000000" stroke-width="1" points="39,10 39,580 "/>
<text x="30" y="522" dy="0.5ex" text-anchor="end" font-family="sans-serif" font-size="9.67741935483871" opacity="1" fill="#000000">
10%
</text>
<polyline fill="none" opacity="1" stroke="#000000" stroke-width="1" points="34,522 39,522 "/>
<text x="30" y="466" dy="0.5ex" text-anchor="end" font-family="sans-serif" font-size="9.67741935483871" opacity="1" fill="#000000">
20%
</text>
<polyline fill="none" opacity="1" stroke="#000000" stroke-width="1" points="34,466 39,466 "/>
<text x="30" y="409" dy="0.5ex" text-anchor="end" font-family="sans-serif" font-size="9.67741935483871" opacity="1" fill="#000000">
30%
</text>
<polyline fill="none" opacity="1" stroke="#000000" stroke-width="1" points="34,409 39,409 "/>
<text x="30" y="353" dy="0.5ex" text-anchor="end" font-family="sans-serif" font-size="9.67741935483871" opacity="1" fill="#000000">
40%
</text>
<polyline fill="none" opacity="1" stroke="#000000" stroke-width="1" points="34,353 39,353 "/>
<text x="30" y="296" dy="0.5ex" text-anchor="end" font-family="sans-serif" font-size="9.67741935483871" opacity="1" fill="#000000">
50%
</text>
<polyline fill="none" opacity="1" stroke="#000000" stroke-width="1" points="34,296 39,296 "/>
<text x="30" y="240" dy="0.5ex" text-anchor="end" font-family="sans-serif" font-size="9.67741935483871" opacity="1" fill="#000000">
60%
</text>
<polyline fill="none" opacity="1" stroke="#000000" stroke-width="1" points="34,240 39,240 "/>
<text x="30" y="183" dy="0.5ex" text-anchor="end" font-family="sans-serif" font-size="9.67741935483871" opacity="1" fill="#000000">
70%
</text>
<polyline fill="none" opacity="1" stroke="#000000" stroke-width="1" points="34,183 39,183 "/>
<text x="30" y="127" dy="0.5ex" text-anchor="end" font-family="sans-serif" font-size="9.67741935483871" opacity="1" fill="#000000">
80%
</text>
<polyline fill="none" opacity="1" stroke="#000000" stroke-width="1" points="34,127 39,127 "/>
<text x="30" y="71" dy="0.5ex" text-anchor="end" font-family="sans-serif" font-size="9.67741935483871" opacity="1" fill="#000000">
90%
</text>
<polyline fill="none" opacity="1" stroke="#000000" stroke-width="1" points="34,71 39,71 "/>
<text x="30" y="14" dy="0.5ex" text-anchor="end" font-family="sans-serif" font-size="9.67741935483871" opacity="1" fill="#000000">
100%
</text>
<polyline fill="none" opacity="1" stroke="#000000" stroke-width="1" points="34,14 39,14 "/>
<polyline fill="none" opacity="1" stroke="#000000" stroke-width="1" points="40,580 947,580 "/>
<text x="40" y="590" dy="0.76em" text-anchor="middle" font-family="sans-serif" font-size="9.67741935483871" opacity="1" fill="#000000">
2019-03-16
</text>
<polyline fill="none" opacity="1" stroke="#000000" stroke-width="1" points="40,580 40,585 "/>
<text x="129" y="590" dy="0.76em" text-anchor="middle" font-family="sans-serif" font-size="9.67741935483871" opacity="1" fill="#000000">
2019-05-11
</text>
<polyline fill="none" opacity="1" stroke="#000000" stroke-width="1" points="129,580 129,585 "/>
<text x="219" y="590" dy="0.76em" text-anchor="middle" font-family="sans-serif" font-size="9.67741935483871" opacity="1" fill="#000000">
2019-07-06
</text>
<polyline fill="none" opacity="1" stroke="#000000" stroke-width="1" points="219,580 219,585 "/>
<text x="309" y="590" dy="0.76em" text-anchor="middle" font-family="sans-serif" font-size="9.67741935483871" opacity="1" fill="#000000">
2019-08-31
</text>
<polyline fill="none" opacity="1" stroke="#000000" stroke-width="1" points="309,580 309,585 "/>
<text x="399" y="590" dy="0.76em" text-anchor="middle" font-family="sans-serif" font-size="9.67741935483871" opacity="1" fill="#000000">
2019-10-26
</text>
<polyline fill="none" opacity="1" stroke="#000000" stroke-width="1" points="399,580 399,585 "/>
<text x="489" y="590" dy="0.76em" text-anchor="middle" font-family="sans-serif" font-size="9.67741935483871" opacity="1" fill="#000000">
2019-12-21
</text>
<polyline fill="none" opacity="1" stroke="#000000" stroke-width="1" points="489,580 489,585 "/>
<text x="579" y="590" dy="0.76em" text-anchor="middle" font-family="sans-serif" font-size="9.67741935483871" opacity="1" fill="#000000">
2020-02-15
</text>
<polyline fill="none" opacity="1" stroke="#000000" stroke-width="1" points="579,580 579,585 "/>
<text x="669" y="590" dy="0.76em" text-anchor="middle" font-family="sans-serif" font-size="9.67741935483871" opacity="1" fill="#000000">
2020-04-11
</text>
<polyline fill="none" opacity="1" stroke="#000000" stroke-width="1" points="669,580 669,585 "/>
<text x="758" y="590" dy="0.76em" text-anchor="middle" font-family="sans-serif" font-size="9.67741935483871" opacity="1" fill="#000000">
2020-06-06
</text>
<polyline fill="none" opacity="1" stroke="#000000" stroke-width="1" points="758,580 758,585 "/>
<text x="848" y="590" dy="0.76em" text-anchor="middle" font-family="sans-serif" font-size="9.67741935483871" opacity="1" fill="#000000">
2020-08-01
</text>
<polyline fill="none" opacity="1" stroke="#000000" stroke-width="1" points="848,580 848,585 "/>
<text x="938" y="590" dy="0.76em" text-anchor="middle" font-family="sans-serif" font-size="9.67741935483871" opacity="1" fill="#000000">
2020-09-26
</text>
<polyline fill="none" opacity="1" stroke="#000000" stroke-width="1" points="938,580 938,585 "/>
<polyline fill="none" opacity="1" stroke="#FF0000" stroke-width="1" points="40,578 40,578 47,576 48,575 167,575 170,575 172,575 176,575 180,575 188,573 243,572 244,572 445,571 457,571 486,570 500,570 513,569 513,569 534,568 550,568 557,567 629,567 630,567 632,567 639,567 641,566 642,566 643,565 645,564 647,563 650,563 651,562 653,562 654,562 657,561 659,561 661,560 662,559 665,559 666,558 668,557 670,557 670,557 672,556 674,556 675,556 677,555 678,555 681,554 683,553 685,553 687,552 688,552 691,551 691,551 694,550 695,550 696,550 698,549 700,549 701,548 704,547 705,547 707,546 709,546 711,545 712,545 715,544 717,544 719,543 720,543 722,542 724,541 726,541 727,540 729,540 730,539 732,539 734,539 737,538 739,537 740,537 742,536 743,536 745,535 747,535 748,534 750,534 751,533 753,533 755,533 756,532 758,532 760,531 763,530 764,530 766,529 767,529 769,528 771,528 772,528 774,527 775,527 777,526 779,526 781,525 782,525 783,524 785,524 787,523 788,523 790,522 792,522 793,522 795,521 796,521 798,520 800,520 801,519 803,519 805,518 806,518 808,517 809,517 811,517 812,516 814,516 816,515 817,515 819,514 820,514 822,513 824,513 825,512 827,512 828,511 830,511 832,511 833,510 835,510 836,509 838,509 840,508 841,508 843,507 844,507 846,506 848,506 849,505 851,505 852,505 854,504 856,504 857,503 859,503 860,502 862,502 864,501 865,501 867,500 869,500 871,500 872,499 873,499 875,498 878,497 880,497 881,496 885,495 886,495 888,494 889,494 891,494 893,493 896,492 897,492 899,491 901,491 902,490 904,490 907,489 909,488 910,488 912,488 913,487 915,487 918,486 920,485 921,485 923,484 925,484 926,483 929,483 931,482 933,482 934,481 936,481 938,480 939,480 941,479 942,479 944,478 946,478 "/>
</svg>
