<svg width="987" height="610" viewBox="0 0 987 610" xmlns="http://www.w3.org/2000/svg">
<line opacity="0.1" stroke="#000000" stroke-width="1" x1="40" y1="579" x2="40" y2="9"/>
<line opacity="0.1" stroke="#000000" stroke-width="1" x1="53" y1="579" x2="53" y2="9"/>
<line opacity="0.1" stroke="#000000" stroke-width="1" x1="66" y1="579" x2="66" y2="9"/>
<line opacity="0.1" stroke="#000000" stroke-width="1" x1="79" y1="579" x2="79" y2="9"/>
<line opacity="0.1" stroke="#000000" stroke-width="1" x1="92" y1="579" x2="92" y2="9"/>
<line opacity="0.1" stroke="#000000" stroke-width="1" x1="105" y1="579" x2="105" y2="9"/>
<line opacity="0.1" stroke="#000000" stroke-width="1" x1="119" y1="579" x2="119" y2="9"/>
<line opacity="0.1" stroke="#000000" stroke-width="1" x1="132" y1="579" x2="132" y2="9"/>
<line opacity="0.1" stroke="#000000" stroke-width="1" x1="145" y1="579" x2="145" y2="9"/>
<line opacity="0.1" stroke="#000000" stroke-width="1" x1="158" y1="579" x2="158" y2="9"/>
<line opacity="0.1" stroke="#000000" stroke-width="1" x1="171" y1="579" x2="171" y2="9"/>
<line opacity="0.1" stroke="#000000" stroke-width="1" x1="185" y1="579" x2="185" y2="9"/>
<line opacity="0.1" stroke="#000000" stroke-width="1" x1="198" y1="579" x2="198" y2="9"/>
<line opacity="0.1" stroke="#000000" stroke-width="1" x1="211" y1="579" x2="211" y2="9"/>
<line opacity="0.1" stroke="#000000" stroke-width="1" x1="224" y1="579" x2="224" y2="9"/>
<line opacity="0.1" stroke="#000000" stroke-width="1" x1="237" y1="579" x2="237" y2="9"/>
<line opacity="0.1" stroke="#000000" stroke-width="1" x1="250" y1="579" x2="250" y2="9"/>
<line opacity="0.1" stroke="#000000" stroke-width="1" x1="264" y1="579" x2="264" y2="9"/>
<line opacity="0.1" stroke="#000000" stroke-width="1" x1="277" y1="579" x2="277" y2="9"/>
<line opacity="0.1" stroke="#000000" stroke-width="1" x1="290" y1="579" x2="290" y2="9"/>
<line opacity="0.1" stroke="#000000" stroke-width="1" x1="303" y1="579" x2="303" y2="9"/>
<line opacity="0.1" stroke="#000000" stroke-width="1" x1="316" y1="579" x2="316" y2="9"/>
<line opacity="0.1" stroke="#000000" stroke-width="1" x1="330" y1="579" x2="330" y2="9"/>
<line opacity="0.1" stroke="#000000" stroke-width="1" x1="343" y1="579" x2="343" y2="9"/>
<line opacity="0.1" stroke="#000000" stroke-width="1" x1="356" y1="579" x2="356" y2="9"/>
<line opacity="0.1" stroke="#000000" stroke-width="1" x1="369" y1="579" x2="369" y2="9"/>
<line opacity="0.1" stroke="#000000" stroke-width="1" x1="382" y1="579" x2="382" y2="9"/>
<line opacity="0.1" stroke="#000000" stroke-width="1" x1="395" y1="579" x2="395" y2="9"/>
<line opacity="0.1" stroke="#000000" stroke-width="1" x1="409" y1="579" x2="409" y2="9"/>
<line opacity="0.1" stroke="#000000" stroke-width="1" x1="422" y1="579" x2="422" y2="9"/>
<line opacity="0.1" stroke="#000000" stroke-width="1" x1="435" y1="579" x2="435" y2="9"/>
<line opacity="0.1" stroke="#000000" stroke-width="1" x1="448" y1="579" x2="448" y2="9"/>
<line opacity="0.1" stroke="#000000" stroke-width="1" x1="461" y1="579" x2="461" y2="9"/>
<line opacity="0.1" stroke="#000000" stroke-width="1" x1="475" y1="579" x2="475" y2="9"/>
<line opacity="0.1" stroke="#000000" stroke-width="1" x1="488" y1="579" x2="488" y2="9"/>
<line opacity="0.1" stroke="#000000" stroke-width="1" x1="501" y1="579" x2="501" y2="9"/>
<line opacity="0.1" stroke="#000000" stroke-width="1" x1="514" y1="579" x2="514" y2="9"/>
<line opacity="0.1" stroke="#000000" stroke-width="1" x1="527" y1="579" x2="527" y2="9"/>
<line opacity="0.1" stroke="#000000" stroke-width="1" x1="540" y1="579" x2="540" y2="9"/>
<line opacity="0.1" stroke="#000000" stroke-width="1" x1="554" y1="579" x2="554" y2="9"/>
<line opacity="0.1" stroke="#000000" stroke-width="1" x1="567" y1="579" x2="567" y2="9"/>
<line opacity="0.1" stroke="#000000" stroke-width="1" x1="580" y1="579" x2="580" y2="9"/>
<line opacity="0.1" stroke="#000000" stroke-width="1" x1="593" y1="579" x2="593" y2="9"/>
<line opacity="0.1" stroke="#000000" stroke-width="1" x1="606" y1="579" x2="606" y2="9"/>
<line opacity="0.1" stroke="#000000" stroke-width="1" x1="620" y1="579" x2="620" y2="9"/>
<line opacity="0.1" stroke="#000000" stroke-width="1" x1="633" y1="579" x2="633" y2="9"/>
<line opacity="0.1" stroke="#000000" stroke-width="1" x1="646" y1="579" x2="646" y2="9"/>
<line opacity="0.1" stroke="#000000" stroke-width="1" x1="659" y1="579" x2="659" y2="9"/>
<line opacity="0.1" stroke="#000000" stroke-width="1" x1="672" y1="579" x2="672" y2="9"/>
<line opacity="0.1" stroke="#000000" stroke-width="1" x1="685" y1="579" x2="685" y2="9"/>
<line opacity="0.1" stroke="#000000" stroke-width="1" x1="699" y1="579" x2="699" y2="9"/>
<line opacity="0.1" stroke="#000000" stroke-width="1" x1="712" y1="579" x2="712" y2="9"/>
<line opacity="0.1" stroke="#000000" stroke-width="1" x1="725" y1="579" x2="725" y2="9"/>
<line opacity="0.1" stroke="#000000" stroke-width="1" x1="738" y1="579" x2="738" y2="9"/>
<line opacity="0.1" stroke="#000000" stroke-width="1" x1="751" y1="579" x2="751" y2="9"/>
<line opacity="0.1" stroke="#000000" stroke-width="1" x1="765" y1="579" x2="765" y2="9"/>
<line opacity="0.1" stroke="#000000" stroke-width="1" x1="778" y1="579" x2="778" y2="9"/>
<line opacity="0.1" stroke="#000000" stroke-width="1" x1="791" y1="579" x2="791" y2="9"/>
<line opacity="0.1" stroke="#000000" stroke-width="1" x1="804" y1="579" x2="804" y2="9"/>
<line opacity="0.1" stroke="#000000" stroke-width="1" x1="817" y1="579" x2="817" y2="9"/>
<line opacity="0.1" stroke="#000000" stroke-width="1" x1="830" y1="579" x2="830" y2="9"/>
<line opacity="0.1" stroke="#000000" stroke-width="1" x1="844" y1="579" x2="844" y2="9"/>
<line opacity="0.1" stroke="#000000" stroke-width="1" x1="857" y1="579" x2="857" y2="9"/>
<line opacity="0.1" stroke="#000000" stroke-width="1" x1="870" y1="579" x2="870" y2="9"/>
<line opacity="0.1" stroke="#000000" stroke-width="1" x1="883" y1="579" x2="883" y2="9"/>
<line opacity="0.1" stroke="#000000" stroke-width="1" x1="896" y1="579" x2="896" y2="9"/>
<line opacity="0.1" stroke="#000000" stroke-width="1" x1="910" y1="579" x2="910" y2="9"/>
<line opacity="0.1" stroke="#000000" stroke-width="1" x1="923" y1="579" x2="923" y2="9"/>
<line opacity="0.1" stroke="#000000" stroke-width="1" x1="936" y1="579" x2="936" y2="9"/>
<line opacity="0.1" stroke="#000000" stroke-width="1" x1="40" y1="567" x2="947" y2="567"/>
<line opacity="0.1" stroke="#000000" stroke-width="1" x1="40" y1="556" x2="947" y2="556"/>
<line opacity="0.1" stroke="#000000" stroke-width="1" x1="40" y1="545" x2="947" y2="545"/>
<line opacity="0.1" stroke="#000000" stroke-width="1" x1="40" y1="533" x2="947" y2="533"/>
<line opacity="0.1" stroke="#000000" stroke-width="1" x1="40" y1="522" x2="947" y2="522"/>
<line opacity="0.1" stroke="#000000" stroke-width="1" x1="40" y1="511" x2="947" y2="511"/>
<line opacity="0.1" stroke="#000000" stroke-width="1" x1="40" y1="499" x2="947" y2="499"/>
<line opacity="0.1" stroke="#000000" stroke-width="1" x1="40" y1="488" x2="947" y2="488"/>
<line opacity="0.1" stroke="#000000" stroke-width="1" x1="40" y1="477" x2="947" y2="477"/>
<line opacity="0.1" stroke="#000000" stroke-width="1" x1="40" y1="466" x2="947" y2="466"/>
<line opacity="0.1" stroke="#000000" stroke-width="1" x1="40" y1="454" x2="947" y2="454"/>
<line opacity="0.1" stroke="#000000" stroke-width="1" x1="40" y1="443" x2="947" y2="443"/>
<line opacity="0.1" stroke="#000000" stroke-width="1" x1="40" y1="432" x2="947" y2="432"/>
<line opacity="0.1" stroke="#000000" stroke-width="1" x1="40" y1="420" x2="947" y2="420"/>
<line opacity="0.1" stroke="#000000" stroke-width="1" x1="40" y1="409" x2="947" y2="409"/>
<line opacity="0.1" stroke="#000000" stroke-width="1" x1="40" y1="398" x2="947" y2="398"/>
<line opacity="0.1" stroke="#000000" stroke-width="1" x1="40" y1="387" x2="947" y2="387"/>
<line opacity="0.1" stroke="#000000" stroke-width="1" x1="40" y1="375" x2="947" y2="375"/>
<line opacity="0.1" stroke="#000000" stroke-width="1" x1="40" y1="364" x2="947" y2="364"/>
<line opacity="0.1" stroke="#000000" stroke-width="1" x1="40" y1="353" x2="947" y2="353"/>
<line opacity="0.1" stroke="#000000" stroke-width="1" x1="40" y1="341" x2="947" y2="341"/>
<line opacity="0.1" stroke="#000000" stroke-width="1" x1="40" y1="330" x2="947" y2="330"/>
<line opacity="0.1" stroke="#000000" stroke-width="1" x1="40" y1="319" x2="947" y2="319"/>
<line opacity="0.1" stroke="#000000" stroke-width="1" x1="40" y1="308" x2="947" y2="308"/>
<line opacity="0.1" stroke="#000000" stroke-width="1" x1="40" y1="296" x2="947" y2="296"/>
<line opacity="0.1" stroke="#000000" stroke-width="1" x1="40" y1="285" x2="947" y2="285"/>
<line opacity="0.1" stroke="#000000" stroke-width="1" x1="40" y1="274" x2="947" y2="274"/>
<line opacity="0.1" stroke="#000000" stroke-width="1" x1="40" y1="262" x2="947" y2="262"/>
<line opacity="0.1" stroke="#000000" stroke-width="1" x1="40" y1="251" x2="947" y2="251"/>
<line opacity="0.1" stroke="#000000" stroke-width="1" x1="40" y1="240" x2="947" y2="240"/>
<line opacity="0.1" stroke="#000000" stroke-width="1" x1="40" y1="229" x2="947" y2="229"/>
<line opacity="0.1" stroke="#000000" stroke-width="1" x1="40" y1="217" x2="947" y2="217"/>
<line opacity="0.1" stroke="#000000" stroke-width="1" x1="40" y1="206" x2="947" y2="206"/>
<line opacity="0.1" stroke="#000000" stroke-width="1" x1="40" y1="195" x2="947" y2="195"/>
<line opacity="0.1" stroke="#000000" stroke-width="1" x1="40" y1="183" x2="947" y2="183"/>
<line opacity="0.1" stroke="#000000" stroke-width="1" x1="40" y1="172" x2="947" y2="172"/>
<line opacity="0.1" stroke="#000000" stroke-width="1" x1="40" y1="161" x2="947" y2="161"/>
<line opacity="0.1" stroke="#000000" stroke-width="1" x1="40" y1="150" x2="947" y2="150"/>
<line opacity="0.1" stroke="#000000" stroke-width="1" x1="40" y1="138" x2="947" y2="138"/>
<line opacity="0.1" stroke="#000000" stroke-width="1" x1="40" y1="127" x2="947" y2="127"/>
<line opacity="0.1" stroke="#000000" stroke-width="1" x1="40" y1="116" x2="947" y2="116"/>
<line opacity="0.1" stroke="#000000" stroke-width="1" x1="40" y1="104" x2="947" y2="104"/>
<line opacity="0.1" stroke="#000000" stroke-width="1" x1="40" y1="93" x2="947" y2="93"/>
<line opacity="0.1" stroke="#000000" stroke-width="1" x1="40" y1="82" x2="947" y2="82"/>
<line opacity="0.1" stroke="#000000" stroke-width="1" x1="40" y1="71" x2="947" y2="71"/>
<line opacity="0.1" stroke="#000000" stroke-width="1" x1="40" y1="59" x2="947" y2="59"/>
<line opacity="0.1" stroke="#000000" stroke-width="1" x1="40" y1="48" x2="947" y2="48"/>
<line opacity="0.1" stroke="#000000" stroke-width="1" x1="40" y1="37" x2="947" y2="37"/>
<line opacity="0.1" stroke="#000000" stroke-width="1" x1="40" y1="25" x2="947" y2="25"/>
<line opacity="0.1" stroke="#000000" stroke-width="1" x1="40" y1="14" x2="947" y2="14"/>
<line opacity="0.2" stroke="#000000" stroke-width="1" x1="40" y1="579" x2="40" y2="9"/>
<line opacity="0.2" stroke="#000000" stroke-width="1" x1="132" y1="579" x2="132" y2="9"/>
<line opacity="0.2" stroke="#000000" stroke-width="1" x1="224" y1="579" x2="224" y2="9"/>
<line opacity="0.2" stroke="#000000" stroke-width="1" x1="316" y1="579" x2="316" y2="9"/>
<line opacity="0.2" stroke="#000000" stroke-width="1" x1="409" y1="579" x2="409" y2="9"/>
<line opacity="0.2" stroke="#000000" stroke-width="1" x1="501" y1="579" x2="501" y2="9"/>
<line opacity="0.2" stroke="#000000" stroke-width="1" x1="593" y1="579" x2="593" y2="9"/>
<line opacity="0.2" stroke="#000000" stroke-width="1" x1="685" y1="579" x2="685" y2="9"/>
<line opacity="0.2" stroke="#000000" stroke-width="1" x1="778" y1="579" x2="778" y2="9"/>
<line opacity="0.2" stroke="#000000" stroke-width="1" x1="870" y1="579" x2="870" y2="9"/>
<line opacity="0.2" stroke="#000000" stroke-width="1" x1="40" y1="522" x2="947" y2="522"/>
<line opacity="0.2" stroke="#000000" stroke-width="1" x1="40" y1="466" x2="947" y2="466"/>
<line opacity="0.2" stroke="#000000" stroke-width="1" x1="40" y1="409" x2="947" y2="409"/>
<line opacity="0.2" stroke="#000000" stroke-width="1" x1="40" y1="353" x2="947" y2="353"/>
<line opacity="0.2" stroke="#000000" stroke-width="1" x1="40" y1="296" x2="947" y2="296"/>
<line opacity="0.2" stroke="#000000" stroke-width="1" x1="40" y1="240" x2="947" y2="240"/>
<line opacity="0.2" stroke="#000000" stroke-width="1" x1="40" y1="183" x2="947" y2="183"/>
<line opacity="0.2" stroke="#000000" stroke-width="1" x1="40" y1="127" x2="947" y2="127"/>
<line opacity="0.2" stroke="#000000" stroke-width="1" x1="40" y1="71" x2="947" y2="71"/>
<line opacity="0.2" stroke="#000000" stroke-width="1" x1="40" y1="14" x2="947" y2="14"/>
<polyline fill="none" opacity="1" stroke="#000000" stroke-width="1" points="39,10 39,580 "/>
<text x="30" y="522" dy="0.5ex" text-anchor="end" font-family="sans-serif" font-size="9.67741935483871" opacity="1" fill="#000000">
10%
</text>
<polyline fill="none" opacity="1" stroke="#000000" stroke-width="1" points="34,522 39,522 "/>
<text x="30" y="466" dy="0.5ex" text-anchor="end" font-family="sans-serif" font-size="9.67741935483871" opacity="1" fill="#000000">
20%
</text>
<polyline fill="none" opacity="1" stroke="#000000" stroke-width="1" points="34,466 39,466 "/>
<text x="30" y="409" dy="0.5ex" text-anchor="end" font-family="sans-serif" font-size="9.67741935483871" opacity="1" fill="#000000">
30%
</text>
<polyline fill="none" opacity="1" stroke="#000000" stroke-width="1" points="34,409 39,409 "/>
<text x="30" y="353" dy="0.5ex" text-anchor="end" font-family="sans-serif" font-size="9.67741935483871" opacity="1" fill="#000000">
40%
</text>
<polyline fill="none" opacity="1" stroke="#000000" stroke-width="1" points="34,353 39,353 "/>
<text x="30" y="296" dy="0.5ex" text-anchor="end" font-family="sans-serif" font-size="9.67741935483871" opacity="1" fill="#000000">
50%
</text>
<polyline fill="none" opacity="1" stroke="#000000" stroke-width="1" points="34,296 39,296 "/>
<text x="30" y="240" dy="0.5ex" text-anchor="end" font-family="sans-serif" font-size="9.67741935483871" opacity="1" fill="#000000">
60%
</text>
<polyline fill="none" opacity="1" stroke="#000000" stroke-width="1" points="34,240 39,240 "/>
<text x="30" y="183" dy="0.5ex" text-anchor="end" font-family="sans-serif" font-size="9.67741935483871" opacity="1" fill="#000000">
70%
</text>
<polyline fill="none" opacity="1" stroke="#000000" stroke-width="1" points="34,183 39,183 "/>
<text x="30" y="127" dy="0.5ex" text-anchor="end" font-family="sans-serif" font-size="9.67741935483871" opacity="1" fill="#000000">
80%
</text>
<polyline fill="none" opacity="1" stroke="#000000" stroke-width="1" points="34,127 39,127 "/>
<text x="30" y="71" dy="0.5ex" text-anchor="end" font-family="sans-serif" font-size="9.67741935483871" opacity="1" fill="#000000">
90%
</text>
<polyline fill="none" opacity="1" stroke="#000000" stroke-width="1" points="34,71 39,71 "/>
<text x="30" y="14" dy="0.5ex" text-anchor="end" font-family="sans-serif" font-size="9.67741935483871" opacity="1" fill="#000000">
100%
</text>
<polyline fill="none" opacity="1" stroke="#000000" stroke-width="1" points="34,14 39,14 "/>
<polyline fill="none" opacity="1" stroke="#000000" stroke-width="1" points="40,580 947,580 "/>
<text x="40" y="590" dy="0.76em" text-anchor="middle" font-family="sans-serif" font-size="9.67741935483871" opacity="1" fill="#000000">
2019-03-16
</text>
<polyline fill="none" opacity="1" stroke="#000000" stroke-width="1" points="40,580 40,585 "/>
<text x="132" y="590" dy="0.76em" text-anchor="middle" font-family="sans-serif" font-size="9.67741935483871" opacity="1" fill="#000000">
2019-05-04
</text>
<polyline fill="none" opacity="1" stroke="#000000" stroke-width="1" points="132,580 132,585 "/>
<text x="224" y="590" dy="0.76em" text-anchor="middle" font-family="sans-serif" font-size="9.67741935483871" opacity="1" fill="#000000">
2019-06-22
</text>
<polyline fill="none" opacity="1" stroke="#000000" stroke-width="1" points="224,580 224,585 "/>
<text x="316" y="590" dy="0.76em" text-anchor="middle" font-family="sans-serif" font-size="9.67741935483871" opacity="1" fill="#000000">
2019-08-10
</text>
<polyline fill="none" opacity="1" stroke="#000000" stroke-width="1" points="316,580 316,585 "/>
<text x="409" y="590" dy="0.76em" text-anchor="middle" font-family="sans-serif" font-size="9.67741935483871" opacity="1" fill="#000000">
2019-09-28
</text>
<polyline fill="none" opacity="1" stroke="#000000" stroke-width="1" points="409,580 409,585 "/>
<text x="501" y="590" dy="0.76em" text-anchor="middle" font-family="sans-serif" font-size="9.67741935483871" opacity="1" fill="#000000">
2019-11-16
</text>
<polyline fill="none" opacity="1" stroke="#000000" stroke-width="1" points="501,580 501,585 "/>
<text x="593" y="590" dy="0.76em" text-anchor="middle" font-family="sans-serif" font-size="9.67741935483871" opacity="1" fill="#000000">
2020-01-04
</text>
<polyline fill="none" opacity="1" stroke="#000000" stroke-width="1" points="593,580 593,585 "/>
<text x="685" y="590" dy="0.76em" text-anchor="middle" font-family="sans-serif" font-size="9.67741935483871" opacity="1" fill="#000000">
2020-02-22
</text>
<polyline fill="none" opacity="1" stroke="#000000" stroke-width="1" points="685,580 685,585 "/>
<text x="778" y="590" dy="0.76em" text-anchor="middle" font-family="sans-serif" font-size="9.67741935483871" opacity="1" fill="#000000">
2020-04-11
</text>
<polyline fill="none" opacity="1" stroke="#000000" stroke-width="1" points="778,580 778,585 "/>
<text x="870" y="590" dy="0.76em" text-anchor="middle" font-family="sans-serif" font-size="9.67741935483871" opacity="1" fill="#000000">
2020-05-30
</text>
<polyline fill="none" opacity="1" stroke="#000000" stroke-width="1" points="870,580 870,585 "/>
<polyline fill="none" opacity="1" stroke="#FF0000" stroke-width="1" points="40,578 40,578 48,576 49,575 189,575 193,575 195,575 200,575 204,575 213,573 278,572 279,572 516,571 530,570 564,570 580,569 595,569 595,568 620,568 638,568 647,567 731,567 733,566 735,566 743,566 745,565 746,565 748,564 750,563 753,562 756,562 757,561 759,561 761,560 764,559 766,559 769,559 771,558 773,558 775,557 778,556 780,556 780,556 782,555 784,555 786,554 788,554 789,553 792,552 795,552 797,551 799,551 801,550 804,549 804,549 807,548 808,548 810,548 812,547 815,547 815,546 819,545 821,545 823,544 825,544 827,543 829,543 832,542 835,541 837,541 838,540 840,540 843,539 845,539 847,538 849,538 850,537 852,537 854,536 858,535 860,535 862,534 864,534 866,533 867,533 869,532 871,532 873,531 875,531 877,530 879,530 881,529 882,529 885,528 888,527 890,527 892,526 894,526 896,525 898,525 899,524 901,524 903,523 905,523 907,522 909,522 911,521 913,521 914,520 916,520 918,519 920,519 922,519 924,518 926,518 928,517 930,517 931,516 933,516 935,515 938,515 939,514 941,514 943,513 945,513 947,512 "/>
</svg>
