<svg width="987" height="610" viewBox="0 0 987 610" xmlns="http://www.w3.org/2000/svg">
<line opacity="0.1" stroke="#000000" stroke-width="1" x1="40" y1="579" x2="40" y2="9"/>
<line opacity="0.1" stroke="#000000" stroke-width="1" x1="53" y1="579" x2="53" y2="9"/>
<line opacity="0.1" stroke="#000000" stroke-width="1" x1="66" y1="579" x2="66" y2="9"/>
<line opacity="0.1" stroke="#000000" stroke-width="1" x1="79" y1="579" x2="79" y2="9"/>
<line opacity="0.1" stroke="#000000" stroke-width="1" x1="93" y1="579" x2="93" y2="9"/>
<line opacity="0.1" stroke="#000000" stroke-width="1" x1="106" y1="579" x2="106" y2="9"/>
<line opacity="0.1" stroke="#000000" stroke-width="1" x1="119" y1="579" x2="119" y2="9"/>
<line opacity="0.1" stroke="#000000" stroke-width="1" x1="132" y1="579" x2="132" y2="9"/>
<line opacity="0.1" stroke="#000000" stroke-width="1" x1="146" y1="579" x2="146" y2="9"/>
<line opacity="0.1" stroke="#000000" stroke-width="1" x1="159" y1="579" x2="159" y2="9"/>
<line opacity="0.1" stroke="#000000" stroke-width="1" x1="172" y1="579" x2="172" y2="9"/>
<line opacity="0.1" stroke="#000000" stroke-width="1" x1="185" y1="579" x2="185" y2="9"/>
<line opacity="0.1" stroke="#000000" stroke-width="1" x1="199" y1="579" x2="199" y2="9"/>
<line opacity="0.1" stroke="#000000" stroke-width="1" x1="212" y1="579" x2="212" y2="9"/>
<line opacity="0.1" stroke="#000000" stroke-width="1" x1="225" y1="579" x2="225" y2="9"/>
<line opacity="0.1" stroke="#000000" stroke-width="1" x1="238" y1="579" x2="238" y2="9"/>
<line opacity="0.1" stroke="#000000" stroke-width="1" x1="252" y1="579" x2="252" y2="9"/>
<line opacity="0.1" stroke="#000000" stroke-width="1" x1="265" y1="579" x2="265" y2="9"/>
<line opacity="0.1" stroke="#000000" stroke-width="1" x1="278" y1="579" x2="278" y2="9"/>
<line opacity="0.1" stroke="#000000" stroke-width="1" x1="292" y1="579" x2="292" y2="9"/>
<line opacity="0.1" stroke="#000000" stroke-width="1" x1="305" y1="579" x2="305" y2="9"/>
<line opacity="0.1" stroke="#000000" stroke-width="1" x1="318" y1="579" x2="318" y2="9"/>
<line opacity="0.1" stroke="#000000" stroke-width="1" x1="331" y1="579" x2="331" y2="9"/>
<line opacity="0.1" stroke="#000000" stroke-width="1" x1="345" y1="579" x2="345" y2="9"/>
<line opacity="0.1" stroke="#000000" stroke-width="1" x1="358" y1="579" x2="358" y2="9"/>
<line opacity="0.1" stroke="#000000" stroke-width="1" x1="371" y1="579" x2="371" y2="9"/>
<line opacity="0.1" stroke="#000000" stroke-width="1" x1="384" y1="579" x2="384" y2="9"/>
<line opacity="0.1" stroke="#000000" stroke-width="1" x1="398" y1="579" x2="398" y2="9"/>
<line opacity="0.1" stroke="#000000" stroke-width="1" x1="411" y1="579" x2="411" y2="9"/>
<line opacity="0.1" stroke="#000000" stroke-width="1" x1="424" y1="579" x2="424" y2="9"/>
<line opacity="0.1" stroke="#000000" stroke-width="1" x1="437" y1="579" x2="437" y2="9"/>
<line opacity="0.1" stroke="#000000" stroke-width="1" x1="451" y1="579" x2="451" y2="9"/>
<line opacity="0.1" stroke="#000000" stroke-width="1" x1="464" y1="579" x2="464" y2="9"/>
<line opacity="0.1" stroke="#000000" stroke-width="1" x1="477" y1="579" x2="477" y2="9"/>
<line opacity="0.1" stroke="#000000" stroke-width="1" x1="491" y1="579" x2="491" y2="9"/>
<line opacity="0.1" stroke="#000000" stroke-width="1" x1="504" y1="579" x2="504" y2="9"/>
<line opacity="0.1" stroke="#000000" stroke-width="1" x1="517" y1="579" x2="517" y2="9"/>
<line opacity="0.1" stroke="#000000" stroke-width="1" x1="530" y1="579" x2="530" y2="9"/>
<line opacity="0.1" stroke="#000000" stroke-width="1" x1="544" y1="579" x2="544" y2="9"/>
<line opacity="0.1" stroke="#000000" stroke-width="1" x1="557" y1="579" x2="557" y2="9"/>
<line opacity="0.1" stroke="#000000" stroke-width="1" x1="570" y1="579" x2="570" y2="9"/>
<line opacity="0.1" stroke="#000000" stroke-width="1" x1="583" y1="579" x2="583" y2="9"/>
<line opacity="0.1" stroke="#000000" stroke-width="1" x1="597" y1="579" x2="597" y2="9"/>
<line opacity="0.1" stroke="#000000" stroke-width="1" x1="610" y1="579" x2="610" y2="9"/>
<line opacity="0.1" stroke="#000000" stroke-width="1" x1="623" y1="579" x2="623" y2="9"/>
<line opacity="0.1" stroke="#000000" stroke-width="1" x1="636" y1="579" x2="636" y2="9"/>
<line opacity="0.1" stroke="#000000" stroke-width="1" x1="650" y1="579" x2="650" y2="9"/>
<line opacity="0.1" stroke="#000000" stroke-width="1" x1="663" y1="579" x2="663" y2="9"/>
<line opacity="0.1" stroke="#000000" stroke-width="1" x1="676" y1="579" x2="676" y2="9"/>
<line opacity="0.1" stroke="#000000" stroke-width="1" x1="689" y1="579" x2="689" y2="9"/>
<line opacity="0.1" stroke="#000000" stroke-width="1" x1="703" y1="579" x2="703" y2="9"/>
<line opacity="0.1" stroke="#000000" stroke-width="1" x1="716" y1="579" x2="716" y2="9"/>
<line opacity="0.1" stroke="#000000" stroke-width="1" x1="729" y1="579" x2="729" y2="9"/>
<line opacity="0.1" stroke="#000000" stroke-width="1" x1="743" y1="579" x2="743" y2="9"/>
<line opacity="0.1" stroke="#000000" stroke-width="1" x1="756" y1="579" x2="756" y2="9"/>
<line opacity="0.1" stroke="#000000" stroke-width="1" x1="769" y1="579" x2="769" y2="9"/>
<line opacity="0.1" stroke="#000000" stroke-width="1" x1="782" y1="579" x2="782" y2="9"/>
<line opacity="0.1" stroke="#000000" stroke-width="1" x1="796" y1="579" x2="796" y2="9"/>
<line opacity="0.1" stroke="#000000" stroke-width="1" x1="809" y1="579" x2="809" y2="9"/>
<line opacity="0.1" stroke="#000000" stroke-width="1" x1="822" y1="579" x2="822" y2="9"/>
<line opacity="0.1" stroke="#000000" stroke-width="1" x1="835" y1="579" x2="835" y2="9"/>
<line opacity="0.1" stroke="#000000" stroke-width="1" x1="849" y1="579" x2="849" y2="9"/>
<line opacity="0.1" stroke="#000000" stroke-width="1" x1="862" y1="579" x2="862" y2="9"/>
<line opacity="0.1" stroke="#000000" stroke-width="1" x1="875" y1="579" x2="875" y2="9"/>
<line opacity="0.1" stroke="#000000" stroke-width="1" x1="888" y1="579" x2="888" y2="9"/>
<line opacity="0.1" stroke="#000000" stroke-width="1" x1="902" y1="579" x2="902" y2="9"/>
<line opacity="0.1" stroke="#000000" stroke-width="1" x1="915" y1="579" x2="915" y2="9"/>
<line opacity="0.1" stroke="#000000" stroke-width="1" x1="928" y1="579" x2="928" y2="9"/>
<line opacity="0.1" stroke="#000000" stroke-width="1" x1="942" y1="579" x2="942" y2="9"/>
<line opacity="0.1" stroke="#000000" stroke-width="1" x1="40" y1="567" x2="947" y2="567"/>
<line opacity="0.1" stroke="#000000" stroke-width="1" x1="40" y1="556" x2="947" y2="556"/>
<line opacity="0.1" stroke="#000000" stroke-width="1" x1="40" y1="545" x2="947" y2="545"/>
<line opacity="0.1" stroke="#000000" stroke-width="1" x1="40" y1="533" x2="947" y2="533"/>
<line opacity="0.1" stroke="#000000" stroke-width="1" x1="40" y1="522" x2="947" y2="522"/>
<line opacity="0.1" stroke="#000000" stroke-width="1" x1="40" y1="511" x2="947" y2="511"/>
<line opacity="0.1" stroke="#000000" stroke-width="1" x1="40" y1="499" x2="947" y2="499"/>
<line opacity="0.1" stroke="#000000" stroke-width="1" x1="40" y1="488" x2="947" y2="488"/>
<line opacity="0.1" stroke="#000000" stroke-width="1" x1="40" y1="477" x2="947" y2="477"/>
<line opacity="0.1" stroke="#000000" stroke-width="1" x1="40" y1="466" x2="947" y2="466"/>
<line opacity="0.1" stroke="#000000" stroke-width="1" x1="40" y1="454" x2="947" y2="454"/>
<line opacity="0.1" stroke="#000000" stroke-width="1" x1="40" y1="443" x2="947" y2="443"/>
<line opacity="0.1" stroke="#000000" stroke-width="1" x1="40" y1="432" x2="947" y2="432"/>
<line opacity="0.1" stroke="#000000" stroke-width="1" x1="40" y1="420" x2="947" y2="420"/>
<line opacity="0.1" stroke="#000000" stroke-width="1" x1="40" y1="409" x2="947" y2="409"/>
<line opacity="0.1" stroke="#000000" stroke-width="1" x1="40" y1="398" x2="947" y2="398"/>
<line opacity="0.1" stroke="#000000" stroke-width="1" x1="40" y1="387" x2="947" y2="387"/>
<line opacity="0.1" stroke="#000000" stroke-width="1" x1="40" y1="375" x2="947" y2="375"/>
<line opacity="0.1" stroke="#000000" stroke-width="1" x1="40" y1="364" x2="947" y2="364"/>
<line opacity="0.1" stroke="#000000" stroke-width="1" x1="40" y1="353" x2="947" y2="353"/>
<line opacity="0.1" stroke="#000000" stroke-width="1" x1="40" y1="341" x2="947" y2="341"/>
<line opacity="0.1" stroke="#000000" stroke-width="1" x1="40" y1="330" x2="947" y2="330"/>
<line opacity="0.1" stroke="#000000" stroke-width="1" x1="40" y1="319" x2="947" y2="319"/>
<line opacity="0.1" stroke="#000000" stroke-width="1" x1="40" y1="308" x2="947" y2="308"/>
<line opacity="0.1" stroke="#000000" stroke-width="1" x1="40" y1="296" x2="947" y2="296"/>
<line opacity="0.1" stroke="#000000" stroke-width="1" x1="40" y1="285" x2="947" y2="285"/>
<line opacity="0.1" stroke="#000000" stroke-width="1" x1="40" y1="274" x2="947" y2="274"/>
<line opacity="0.1" stroke="#000000" stroke-width="1" x1="40" y1="262" x2="947" y2="262"/>
<line opacity="0.1" stroke="#000000" stroke-width="1" x1="40" y1="251" x2="947" y2="251"/>
<line opacity="0.1" stroke="#000000" stroke-width="1" x1="40" y1="240" x2="947" y2="240"/>
<line opacity="0.1" stroke="#000000" stroke-width="1" x1="40" y1="229" x2="947" y2="229"/>
<line opacity="0.1" stroke="#000000" stroke-width="1" x1="40" y1="217" x2="947" y2="217"/>
<line opacity="0.1" stroke="#000000" stroke-width="1" x1="40" y1="206" x2="947" y2="206"/>
<line opacity="0.1" stroke="#000000" stroke-width="1" x1="40" y1="195" x2="947" y2="195"/>
<line opacity="0.1" stroke="#000000" stroke-width="1" x1="40" y1="183" x2="947" y2="183"/>
<line opacity="0.1" stroke="#000000" stroke-width="1" x1="40" y1="172" x2="947" y2="172"/>
<line opacity="0.1" stroke="#000000" stroke-width="1" x1="40" y1="161" x2="947" y2="161"/>
<line opacity="0.1" stroke="#000000" stroke-width="1" x1="40" y1="150" x2="947" y2="150"/>
<line opacity="0.1" stroke="#000000" stroke-width="1" x1="40" y1="138" x2="947" y2="138"/>
<line opacity="0.1" stroke="#000000" stroke-width="1" x1="40" y1="127" x2="947" y2="127"/>
<line opacity="0.1" stroke="#000000" stroke-width="1" x1="40" y1="116" x2="947" y2="116"/>
<line opacity="0.1" stroke="#000000" stroke-width="1" x1="40" y1="104" x2="947" y2="104"/>
<line opacity="0.1" stroke="#000000" stroke-width="1" x1="40" y1="93" x2="947" y2="93"/>
<line opacity="0.1" stroke="#000000" stroke-width="1" x1="40" y1="82" x2="947" y2="82"/>
<line opacity="0.1" stroke="#000000" stroke-width="1" x1="40" y1="71" x2="947" y2="71"/>
<line opacity="0.1" stroke="#000000" stroke-width="1" x1="40" y1="59" x2="947" y2="59"/>
<line opacity="0.1" stroke="#000000" stroke-width="1" x1="40" y1="48" x2="947" y2="48"/>
<line opacity="0.1" stroke="#000000" stroke-width="1" x1="40" y1="37" x2="947" y2="37"/>
<line opacity="0.1" stroke="#000000" stroke-width="1" x1="40" y1="25" x2="947" y2="25"/>
<line opacity="0.1" stroke="#000000" stroke-width="1" x1="40" y1="14" x2="947" y2="14"/>
<line opacity="0.2" stroke="#000000" stroke-width="1" x1="40" y1="579" x2="40" y2="9"/>
<line opacity="0.2" stroke="#000000" stroke-width="1" x1="132" y1="579" x2="132" y2="9"/>
<line opacity="0.2" stroke="#000000" stroke-width="1" x1="225" y1="579" x2="225" y2="9"/>
<line opacity="0.2" stroke="#000000" stroke-width="1" x1="318" y1="579" x2="318" y2="9"/>
<line opacity="0.2" stroke="#000000" stroke-width="1" x1="411" y1="579" x2="411" y2="9"/>
<line opacity="0.2" stroke="#000000" stroke-width="1" x1="504" y1="579" x2="504" y2="9"/>
<line opacity="0.2" stroke="#000000" stroke-width="1" x1="597" y1="579" x2="597" y2="9"/>
<line opacity="0.2" stroke="#000000" stroke-width="1" x1="689" y1="579" x2="689" y2="9"/>
<line opacity="0.2" stroke="#000000" stroke-width="1" x1="782" y1="579" x2="782" y2="9"/>
<line opacity="0.2" stroke="#000000" stroke-width="1" x1="875" y1="579" x2="875" y2="9"/>
<line opacity="0.2" stroke="#000000" stroke-width="1" x1="40" y1="522" x2="947" y2="522"/>
<line opacity="0.2" stroke="#000000" stroke-width="1" x1="40" y1="466" x2="947" y2="466"/>
<line opacity="0.2" stroke="#000000" stroke-width="1" x1="40" y1="409" x2="947" y2="409"/>
<line opacity="0.2" stroke="#000000" stroke-width="1" x1="40" y1="353" x2="947" y2="353"/>
<line opacity="0.2" stroke="#000000" stroke-width="1" x1="40" y1="296" x2="947" y2="296"/>
<line opacity="0.2" stroke="#000000" stroke-width="1" x1="40" y1="240" x2="947" y2="240"/>
<line opacity="0.2" stroke="#000000" stroke-width="1" x1="40" y1="183" x2="947" y2="183"/>
<line opacity="0.2" stroke="#000000" stroke-width="1" x1="40" y1="127" x2="947" y2="127"/>
<line opacity="0.2" stroke="#000000" stroke-width="1" x1="40" y1="71" x2="947" y2="71"/>
<line opacity="0.2" stroke="#000000" stroke-width="1" x1="40" y1="14" x2="947" y2="14"/>
<polyline fill="none" opacity="1" stroke="#000000" stroke-width="1" points="39,10 39,580 "/>
<text x="30" y="522" dy="0.5ex" text-anchor="end" font-family="sans-serif" font-size="9.67741935483871" opacity="1" fill="#000000">
10%
</text>
<polyline fill="none" opacity="1" stroke="#000000" stroke-width="1" points="34,522 39,522 "/>
<text x="30" y="466" dy="0.5ex" text-anchor="end" font-family="sans-serif" font-size="9.67741935483871" opacity="1" fill="#000000">
20%
</text>
<polyline fill="none" opacity="1" stroke="#000000" stroke-width="1" points="34,466 39,466 "/>
<text x="30" y="409" dy="0.5ex" text-anchor="end" font-family="sans-serif" font-size="9.67741935483871" opacity="1" fill="#000000">
30%
</text>
<polyline fill="none" opacity="1" stroke="#000000" stroke-width="1" points="34,409 39,409 "/>
<text x="30" y="353" dy="0.5ex" text-anchor="end" font-family="sans-serif" font-size="9.67741935483871" opacity="1" fill="#000000">
40%
</text>
<polyline fill="none" opacity="1" stroke="#000000" stroke-width="1" points="34,353 39,353 "/>
<text x="30" y="296" dy="0.5ex" text-anchor="end" font-family="sans-serif" font-size="9.67741935483871" opacity="1" fill="#000000">
50%
</text>
<polyline fill="none" opacity="1" stroke="#000000" stroke-width="1" points="34,296 39,296 "/>
<text x="30" y="240" dy="0.5ex" text-anchor="end" font-family="sans-serif" font-size="9.67741935483871" opacity="1" fill="#000000">
60%
</text>
<polyline fill="none" opacity="1" stroke="#000000" stroke-width="1" points="34,240 39,240 "/>
<text x="30" y="183" dy="0.5ex" text-anchor="end" font-family="sans-serif" font-size="9.67741935483871" opacity="1" fill="#000000">
70%
</text>
<polyline fill="none" opacity="1" stroke="#000000" stroke-width="1" points="34,183 39,183 "/>
<text x="30" y="127" dy="0.5ex" text-anchor="end" font-family="sans-serif" font-size="9.67741935483871" opacity="1" fill="#000000">
80%
</text>
<polyline fill="none" opacity="1" stroke="#000000" stroke-width="1" points="34,127 39,127 "/>
<text x="30" y="71" dy="0.5ex" text-anchor="end" font-family="sans-serif" font-size="9.67741935483871" opacity="1" fill="#000000">
90%
</text>
<polyline fill="none" opacity="1" stroke="#000000" stroke-width="1" points="34,71 39,71 "/>
<text x="30" y="14" dy="0.5ex" text-anchor="end" font-family="sans-serif" font-size="9.67741935483871" opacity="1" fill="#000000">
100%
</text>
<polyline fill="none" opacity="1" stroke="#000000" stroke-width="1" points="34,14 39,14 "/>
<polyline fill="none" opacity="1" stroke="#000000" stroke-width="1" points="40,580 947,580 "/>
<text x="40" y="590" dy="0.76em" text-anchor="middle" font-family="sans-serif" font-size="9.67741935483871" opacity="1" fill="#000000">
2019-03-16
</text>
<polyline fill="none" opacity="1" stroke="#000000" stroke-width="1" points="40,580 40,585 "/>
<text x="132" y="590" dy="0.76em" text-anchor="middle" font-family="sans-serif" font-size="9.67741935483871" opacity="1" fill="#000000">
2019-05-04
</text>
<polyline fill="none" opacity="1" stroke="#000000" stroke-width="1" points="132,580 132,585 "/>
<text x="225" y="590" dy="0.76em" text-anchor="middle" font-family="sans-serif" font-size="9.67741935483871" opacity="1" fill="#000000">
2019-06-22
</text>
<polyline fill="none" opacity="1" stroke="#000000" stroke-width="1" points="225,580 225,585 "/>
<text x="318" y="590" dy="0.76em" text-anchor="middle" font-family="sans-serif" font-size="9.67741935483871" opacity="1" fill="#000000">
2019-08-10
</text>
<polyline fill="none" opacity="1" stroke="#000000" stroke-width="1" points="318,580 318,585 "/>
<text x="411" y="590" dy="0.76em" text-anchor="middle" font-family="sans-serif" font-size="9.67741935483871" opacity="1" fill="#000000">
2019-09-28
</text>
<polyline fill="none" opacity="1" stroke="#000000" stroke-width="1" points="411,580 411,585 "/>
<text x="504" y="590" dy="0.76em" text-anchor="middle" font-family="sans-serif" font-size="9.67741935483871" opacity="1" fill="#000000">
2019-11-16
</text>
<polyline fill="none" opacity="1" stroke="#000000" stroke-width="1" points="504,580 504,585 "/>
<text x="597" y="590" dy="0.76em" text-anchor="middle" font-family="sans-serif" font-size="9.67741935483871" opacity="1" fill="#000000">
2020-01-04
</text>
<polyline fill="none" opacity="1" stroke="#000000" stroke-width="1" points="597,580 597,585 "/>
<text x="689" y="590" dy="0.76em" text-anchor="middle" font-family="sans-serif" font-size="9.67741935483871" opacity="1" fill="#000000">
2020-02-22
</text>
<polyline fill="none" opacity="1" stroke="#000000" stroke-width="1" points="689,580 689,585 "/>
<text x="782" y="590" dy="0.76em" text-anchor="middle" font-family="sans-serif" font-size="9.67741935483871" opacity="1" fill="#000000">
2020-04-11
</text>
<polyline fill="none" opacity="1" stroke="#000000" stroke-width="1" points="782,580 782,585 "/>
<text x="875" y="590" dy="0.76em" text-anchor="middle" font-family="sans-serif" font-size="9.67741935483871" opacity="1" fill="#000000">
2020-05-30
</text>
<polyline fill="none" opacity="1" stroke="#000000" stroke-width="1" points="875,580 875,585 "/>
<polyline fill="none" opacity="1" stroke="#FF0000" stroke-width="1" points="40,578 40,578 48,576 49,575 189,575 194,575 196,575 201,575 205,575 214,573 280,572 281,572 519,571 533,570 567,570 583,569 598,569 599,568 624,568 642,568 651,567 735,567 737,566 739,566 748,566 749,565 751,565 753,564 754,563 757,562 760,562 762,561 764,561 766,560 769,559 771,559 773,559 775,558 778,558 779,557 782,556 784,556 785,556 787,555 789,555 790,554 792,554 794,553 797,552 800,552 802,551 804,551 806,550 809,549 809,549 812,548 813,548 815,548 817,547 820,547 820,546 824,545 825,545 828,544 830,544 832,543 834,543 837,542 840,541 842,541 843,540 845,540 848,539 850,539 852,538 854,538 856,537 857,537 859,536 863,535 865,535 867,534 869,534 871,533 873,533 875,532 877,532 878,531 880,531 882,530 884,530 886,529 888,529 890,528 893,527 895,527 897,526 899,526 901,525 903,525 905,524 907,524 909,523 911,523 912,522 915,522 916,521 918,521 920,520 922,520 924,519 926,519 928,519 930,518 931,518 933,517 935,517 937,516 939,516 941,515 943,515 945,514 947,514 "/>
</svg>
