<svg width="987" height="610" xmlns="http://www.w3.org/2000/svg">
<line opacity="0.1" stroke="#000000" stroke-width="1" x1="40" y1="579" x2="40" y2="9"/>
<line opacity="0.1" stroke="#000000" stroke-width="1" x1="55" y1="579" x2="55" y2="9"/>
<line opacity="0.1" stroke="#000000" stroke-width="1" x1="71" y1="579" x2="71" y2="9"/>
<line opacity="0.1" stroke="#000000" stroke-width="1" x1="86" y1="579" x2="86" y2="9"/>
<line opacity="0.1" stroke="#000000" stroke-width="1" x1="102" y1="579" x2="102" y2="9"/>
<line opacity="0.1" stroke="#000000" stroke-width="1" x1="117" y1="579" x2="117" y2="9"/>
<line opacity="0.1" stroke="#000000" stroke-width="1" x1="133" y1="579" x2="133" y2="9"/>
<line opacity="0.1" stroke="#000000" stroke-width="1" x1="148" y1="579" x2="148" y2="9"/>
<line opacity="0.1" stroke="#000000" stroke-width="1" x1="164" y1="579" x2="164" y2="9"/>
<line opacity="0.1" stroke="#000000" stroke-width="1" x1="179" y1="579" x2="179" y2="9"/>
<line opacity="0.1" stroke="#000000" stroke-width="1" x1="195" y1="579" x2="195" y2="9"/>
<line opacity="0.1" stroke="#000000" stroke-width="1" x1="210" y1="579" x2="210" y2="9"/>
<line opacity="0.1" stroke="#000000" stroke-width="1" x1="226" y1="579" x2="226" y2="9"/>
<line opacity="0.1" stroke="#000000" stroke-width="1" x1="241" y1="579" x2="241" y2="9"/>
<line opacity="0.1" stroke="#000000" stroke-width="1" x1="257" y1="579" x2="257" y2="9"/>
<line opacity="0.1" stroke="#000000" stroke-width="1" x1="272" y1="579" x2="272" y2="9"/>
<line opacity="0.1" stroke="#000000" stroke-width="1" x1="288" y1="579" x2="288" y2="9"/>
<line opacity="0.1" stroke="#000000" stroke-width="1" x1="303" y1="579" x2="303" y2="9"/>
<line opacity="0.1" stroke="#000000" stroke-width="1" x1="319" y1="579" x2="319" y2="9"/>
<line opacity="0.1" stroke="#000000" stroke-width="1" x1="334" y1="579" x2="334" y2="9"/>
<line opacity="0.1" stroke="#000000" stroke-width="1" x1="350" y1="579" x2="350" y2="9"/>
<line opacity="0.1" stroke="#000000" stroke-width="1" x1="365" y1="579" x2="365" y2="9"/>
<line opacity="0.1" stroke="#000000" stroke-width="1" x1="381" y1="579" x2="381" y2="9"/>
<line opacity="0.1" stroke="#000000" stroke-width="1" x1="396" y1="579" x2="396" y2="9"/>
<line opacity="0.1" stroke="#000000" stroke-width="1" x1="412" y1="579" x2="412" y2="9"/>
<line opacity="0.1" stroke="#000000" stroke-width="1" x1="427" y1="579" x2="427" y2="9"/>
<line opacity="0.1" stroke="#000000" stroke-width="1" x1="443" y1="579" x2="443" y2="9"/>
<line opacity="0.1" stroke="#000000" stroke-width="1" x1="458" y1="579" x2="458" y2="9"/>
<line opacity="0.1" stroke="#000000" stroke-width="1" x1="474" y1="579" x2="474" y2="9"/>
<line opacity="0.1" stroke="#000000" stroke-width="1" x1="489" y1="579" x2="489" y2="9"/>
<line opacity="0.1" stroke="#000000" stroke-width="1" x1="505" y1="579" x2="505" y2="9"/>
<line opacity="0.1" stroke="#000000" stroke-width="1" x1="520" y1="579" x2="520" y2="9"/>
<line opacity="0.1" stroke="#000000" stroke-width="1" x1="536" y1="579" x2="536" y2="9"/>
<line opacity="0.1" stroke="#000000" stroke-width="1" x1="551" y1="579" x2="551" y2="9"/>
<line opacity="0.1" stroke="#000000" stroke-width="1" x1="567" y1="579" x2="567" y2="9"/>
<line opacity="0.1" stroke="#000000" stroke-width="1" x1="582" y1="579" x2="582" y2="9"/>
<line opacity="0.1" stroke="#000000" stroke-width="1" x1="598" y1="579" x2="598" y2="9"/>
<line opacity="0.1" stroke="#000000" stroke-width="1" x1="614" y1="579" x2="614" y2="9"/>
<line opacity="0.1" stroke="#000000" stroke-width="1" x1="629" y1="579" x2="629" y2="9"/>
<line opacity="0.1" stroke="#000000" stroke-width="1" x1="645" y1="579" x2="645" y2="9"/>
<line opacity="0.1" stroke="#000000" stroke-width="1" x1="660" y1="579" x2="660" y2="9"/>
<line opacity="0.1" stroke="#000000" stroke-width="1" x1="676" y1="579" x2="676" y2="9"/>
<line opacity="0.1" stroke="#000000" stroke-width="1" x1="691" y1="579" x2="691" y2="9"/>
<line opacity="0.1" stroke="#000000" stroke-width="1" x1="707" y1="579" x2="707" y2="9"/>
<line opacity="0.1" stroke="#000000" stroke-width="1" x1="722" y1="579" x2="722" y2="9"/>
<line opacity="0.1" stroke="#000000" stroke-width="1" x1="738" y1="579" x2="738" y2="9"/>
<line opacity="0.1" stroke="#000000" stroke-width="1" x1="753" y1="579" x2="753" y2="9"/>
<line opacity="0.1" stroke="#000000" stroke-width="1" x1="769" y1="579" x2="769" y2="9"/>
<line opacity="0.1" stroke="#000000" stroke-width="1" x1="784" y1="579" x2="784" y2="9"/>
<line opacity="0.1" stroke="#000000" stroke-width="1" x1="800" y1="579" x2="800" y2="9"/>
<line opacity="0.1" stroke="#000000" stroke-width="1" x1="815" y1="579" x2="815" y2="9"/>
<line opacity="0.1" stroke="#000000" stroke-width="1" x1="831" y1="579" x2="831" y2="9"/>
<line opacity="0.1" stroke="#000000" stroke-width="1" x1="846" y1="579" x2="846" y2="9"/>
<line opacity="0.1" stroke="#000000" stroke-width="1" x1="862" y1="579" x2="862" y2="9"/>
<line opacity="0.1" stroke="#000000" stroke-width="1" x1="877" y1="579" x2="877" y2="9"/>
<line opacity="0.1" stroke="#000000" stroke-width="1" x1="893" y1="579" x2="893" y2="9"/>
<line opacity="0.1" stroke="#000000" stroke-width="1" x1="908" y1="579" x2="908" y2="9"/>
<line opacity="0.1" stroke="#000000" stroke-width="1" x1="924" y1="579" x2="924" y2="9"/>
<line opacity="0.1" stroke="#000000" stroke-width="1" x1="939" y1="579" x2="939" y2="9"/>
<line opacity="0.1" stroke="#000000" stroke-width="1" x1="40" y1="567" x2="947" y2="567"/>
<line opacity="0.1" stroke="#000000" stroke-width="1" x1="40" y1="556" x2="947" y2="556"/>
<line opacity="0.1" stroke="#000000" stroke-width="1" x1="40" y1="545" x2="947" y2="545"/>
<line opacity="0.1" stroke="#000000" stroke-width="1" x1="40" y1="533" x2="947" y2="533"/>
<line opacity="0.1" stroke="#000000" stroke-width="1" x1="40" y1="522" x2="947" y2="522"/>
<line opacity="0.1" stroke="#000000" stroke-width="1" x1="40" y1="511" x2="947" y2="511"/>
<line opacity="0.1" stroke="#000000" stroke-width="1" x1="40" y1="499" x2="947" y2="499"/>
<line opacity="0.1" stroke="#000000" stroke-width="1" x1="40" y1="488" x2="947" y2="488"/>
<line opacity="0.1" stroke="#000000" stroke-width="1" x1="40" y1="477" x2="947" y2="477"/>
<line opacity="0.1" stroke="#000000" stroke-width="1" x1="40" y1="466" x2="947" y2="466"/>
<line opacity="0.1" stroke="#000000" stroke-width="1" x1="40" y1="454" x2="947" y2="454"/>
<line opacity="0.1" stroke="#000000" stroke-width="1" x1="40" y1="443" x2="947" y2="443"/>
<line opacity="0.1" stroke="#000000" stroke-width="1" x1="40" y1="432" x2="947" y2="432"/>
<line opacity="0.1" stroke="#000000" stroke-width="1" x1="40" y1="420" x2="947" y2="420"/>
<line opacity="0.1" stroke="#000000" stroke-width="1" x1="40" y1="409" x2="947" y2="409"/>
<line opacity="0.1" stroke="#000000" stroke-width="1" x1="40" y1="398" x2="947" y2="398"/>
<line opacity="0.1" stroke="#000000" stroke-width="1" x1="40" y1="387" x2="947" y2="387"/>
<line opacity="0.1" stroke="#000000" stroke-width="1" x1="40" y1="375" x2="947" y2="375"/>
<line opacity="0.1" stroke="#000000" stroke-width="1" x1="40" y1="364" x2="947" y2="364"/>
<line opacity="0.1" stroke="#000000" stroke-width="1" x1="40" y1="353" x2="947" y2="353"/>
<line opacity="0.1" stroke="#000000" stroke-width="1" x1="40" y1="341" x2="947" y2="341"/>
<line opacity="0.1" stroke="#000000" stroke-width="1" x1="40" y1="330" x2="947" y2="330"/>
<line opacity="0.1" stroke="#000000" stroke-width="1" x1="40" y1="319" x2="947" y2="319"/>
<line opacity="0.1" stroke="#000000" stroke-width="1" x1="40" y1="308" x2="947" y2="308"/>
<line opacity="0.1" stroke="#000000" stroke-width="1" x1="40" y1="296" x2="947" y2="296"/>
<line opacity="0.1" stroke="#000000" stroke-width="1" x1="40" y1="285" x2="947" y2="285"/>
<line opacity="0.1" stroke="#000000" stroke-width="1" x1="40" y1="274" x2="947" y2="274"/>
<line opacity="0.1" stroke="#000000" stroke-width="1" x1="40" y1="262" x2="947" y2="262"/>
<line opacity="0.1" stroke="#000000" stroke-width="1" x1="40" y1="251" x2="947" y2="251"/>
<line opacity="0.1" stroke="#000000" stroke-width="1" x1="40" y1="240" x2="947" y2="240"/>
<line opacity="0.1" stroke="#000000" stroke-width="1" x1="40" y1="229" x2="947" y2="229"/>
<line opacity="0.1" stroke="#000000" stroke-width="1" x1="40" y1="217" x2="947" y2="217"/>
<line opacity="0.1" stroke="#000000" stroke-width="1" x1="40" y1="206" x2="947" y2="206"/>
<line opacity="0.1" stroke="#000000" stroke-width="1" x1="40" y1="195" x2="947" y2="195"/>
<line opacity="0.1" stroke="#000000" stroke-width="1" x1="40" y1="183" x2="947" y2="183"/>
<line opacity="0.1" stroke="#000000" stroke-width="1" x1="40" y1="172" x2="947" y2="172"/>
<line opacity="0.1" stroke="#000000" stroke-width="1" x1="40" y1="161" x2="947" y2="161"/>
<line opacity="0.1" stroke="#000000" stroke-width="1" x1="40" y1="150" x2="947" y2="150"/>
<line opacity="0.1" stroke="#000000" stroke-width="1" x1="40" y1="138" x2="947" y2="138"/>
<line opacity="0.1" stroke="#000000" stroke-width="1" x1="40" y1="127" x2="947" y2="127"/>
<line opacity="0.1" stroke="#000000" stroke-width="1" x1="40" y1="116" x2="947" y2="116"/>
<line opacity="0.1" stroke="#000000" stroke-width="1" x1="40" y1="104" x2="947" y2="104"/>
<line opacity="0.1" stroke="#000000" stroke-width="1" x1="40" y1="93" x2="947" y2="93"/>
<line opacity="0.1" stroke="#000000" stroke-width="1" x1="40" y1="82" x2="947" y2="82"/>
<line opacity="0.1" stroke="#000000" stroke-width="1" x1="40" y1="71" x2="947" y2="71"/>
<line opacity="0.1" stroke="#000000" stroke-width="1" x1="40" y1="59" x2="947" y2="59"/>
<line opacity="0.1" stroke="#000000" stroke-width="1" x1="40" y1="48" x2="947" y2="48"/>
<line opacity="0.1" stroke="#000000" stroke-width="1" x1="40" y1="37" x2="947" y2="37"/>
<line opacity="0.1" stroke="#000000" stroke-width="1" x1="40" y1="25" x2="947" y2="25"/>
<line opacity="0.1" stroke="#000000" stroke-width="1" x1="40" y1="14" x2="947" y2="14"/>
<line opacity="0.2" stroke="#000000" stroke-width="1" x1="40" y1="579" x2="40" y2="9"/>
<line opacity="0.2" stroke="#000000" stroke-width="1" x1="133" y1="579" x2="133" y2="9"/>
<line opacity="0.2" stroke="#000000" stroke-width="1" x1="226" y1="579" x2="226" y2="9"/>
<line opacity="0.2" stroke="#000000" stroke-width="1" x1="319" y1="579" x2="319" y2="9"/>
<line opacity="0.2" stroke="#000000" stroke-width="1" x1="412" y1="579" x2="412" y2="9"/>
<line opacity="0.2" stroke="#000000" stroke-width="1" x1="505" y1="579" x2="505" y2="9"/>
<line opacity="0.2" stroke="#000000" stroke-width="1" x1="598" y1="579" x2="598" y2="9"/>
<line opacity="0.2" stroke="#000000" stroke-width="1" x1="691" y1="579" x2="691" y2="9"/>
<line opacity="0.2" stroke="#000000" stroke-width="1" x1="784" y1="579" x2="784" y2="9"/>
<line opacity="0.2" stroke="#000000" stroke-width="1" x1="877" y1="579" x2="877" y2="9"/>
<line opacity="0.2" stroke="#000000" stroke-width="1" x1="40" y1="522" x2="947" y2="522"/>
<line opacity="0.2" stroke="#000000" stroke-width="1" x1="40" y1="466" x2="947" y2="466"/>
<line opacity="0.2" stroke="#000000" stroke-width="1" x1="40" y1="409" x2="947" y2="409"/>
<line opacity="0.2" stroke="#000000" stroke-width="1" x1="40" y1="353" x2="947" y2="353"/>
<line opacity="0.2" stroke="#000000" stroke-width="1" x1="40" y1="296" x2="947" y2="296"/>
<line opacity="0.2" stroke="#000000" stroke-width="1" x1="40" y1="240" x2="947" y2="240"/>
<line opacity="0.2" stroke="#000000" stroke-width="1" x1="40" y1="183" x2="947" y2="183"/>
<line opacity="0.2" stroke="#000000" stroke-width="1" x1="40" y1="127" x2="947" y2="127"/>
<line opacity="0.2" stroke="#000000" stroke-width="1" x1="40" y1="71" x2="947" y2="71"/>
<line opacity="0.2" stroke="#000000" stroke-width="1" x1="40" y1="14" x2="947" y2="14"/>
<polyline fill="none" opacity="1" stroke="#000000" stroke-width="1" points="39,10 39,580 "/>
<text x="30" y="522" dy="0.5ex" text-anchor="end" font-family="sans-serif" font-size="9.67741935483871" opacity="1" fill="#000000">
10%
</text>
<polyline fill="none" opacity="1" stroke="#000000" stroke-width="1" points="34,522 39,522 "/>
<text x="30" y="466" dy="0.5ex" text-anchor="end" font-family="sans-serif" font-size="9.67741935483871" opacity="1" fill="#000000">
20%
</text>
<polyline fill="none" opacity="1" stroke="#000000" stroke-width="1" points="34,466 39,466 "/>
<text x="30" y="409" dy="0.5ex" text-anchor="end" font-family="sans-serif" font-size="9.67741935483871" opacity="1" fill="#000000">
30%
</text>
<polyline fill="none" opacity="1" stroke="#000000" stroke-width="1" points="34,409 39,409 "/>
<text x="30" y="353" dy="0.5ex" text-anchor="end" font-family="sans-serif" font-size="9.67741935483871" opacity="1" fill="#000000">
40%
</text>
<polyline fill="none" opacity="1" stroke="#000000" stroke-width="1" points="34,353 39,353 "/>
<text x="30" y="296" dy="0.5ex" text-anchor="end" font-family="sans-serif" font-size="9.67741935483871" opacity="1" fill="#000000">
50%
</text>
<polyline fill="none" opacity="1" stroke="#000000" stroke-width="1" points="34,296 39,296 "/>
<text x="30" y="240" dy="0.5ex" text-anchor="end" font-family="sans-serif" font-size="9.67741935483871" opacity="1" fill="#000000">
60%
</text>
<polyline fill="none" opacity="1" stroke="#000000" stroke-width="1" points="34,240 39,240 "/>
<text x="30" y="183" dy="0.5ex" text-anchor="end" font-family="sans-serif" font-size="9.67741935483871" opacity="1" fill="#000000">
70%
</text>
<polyline fill="none" opacity="1" stroke="#000000" stroke-width="1" points="34,183 39,183 "/>
<text x="30" y="127" dy="0.5ex" text-anchor="end" font-family="sans-serif" font-size="9.67741935483871" opacity="1" fill="#000000">
80%
</text>
<polyline fill="none" opacity="1" stroke="#000000" stroke-width="1" points="34,127 39,127 "/>
<text x="30" y="71" dy="0.5ex" text-anchor="end" font-family="sans-serif" font-size="9.67741935483871" opacity="1" fill="#000000">
90%
</text>
<polyline fill="none" opacity="1" stroke="#000000" stroke-width="1" points="34,71 39,71 "/>
<text x="30" y="14" dy="0.5ex" text-anchor="end" font-family="sans-serif" font-size="9.67741935483871" opacity="1" fill="#000000">
100%
</text>
<polyline fill="none" opacity="1" stroke="#000000" stroke-width="1" points="34,14 39,14 "/>
<polyline fill="none" opacity="1" stroke="#000000" stroke-width="1" points="40,580 947,580 "/>
<text x="40" y="590" dy="0.76em" text-anchor="middle" font-family="sans-serif" font-size="9.67741935483871" opacity="1" fill="#000000">
2019-03-16
</text>
<polyline fill="none" opacity="1" stroke="#000000" stroke-width="1" points="40,580 40,585 "/>
<text x="133" y="590" dy="0.76em" text-anchor="middle" font-family="sans-serif" font-size="9.67741935483871" opacity="1" fill="#000000">
2019-04-27
</text>
<polyline fill="none" opacity="1" stroke="#000000" stroke-width="1" points="133,580 133,585 "/>
<text x="226" y="590" dy="0.76em" text-anchor="middle" font-family="sans-serif" font-size="9.67741935483871" opacity="1" fill="#000000">
2019-06-08
</text>
<polyline fill="none" opacity="1" stroke="#000000" stroke-width="1" points="226,580 226,585 "/>
<text x="319" y="590" dy="0.76em" text-anchor="middle" font-family="sans-serif" font-size="9.67741935483871" opacity="1" fill="#000000">
2019-07-20
</text>
<polyline fill="none" opacity="1" stroke="#000000" stroke-width="1" points="319,580 319,585 "/>
<text x="412" y="590" dy="0.76em" text-anchor="middle" font-family="sans-serif" font-size="9.67741935483871" opacity="1" fill="#000000">
2019-08-31
</text>
<polyline fill="none" opacity="1" stroke="#000000" stroke-width="1" points="412,580 412,585 "/>
<text x="505" y="590" dy="0.76em" text-anchor="middle" font-family="sans-serif" font-size="9.67741935483871" opacity="1" fill="#000000">
2019-10-12
</text>
<polyline fill="none" opacity="1" stroke="#000000" stroke-width="1" points="505,580 505,585 "/>
<text x="598" y="590" dy="0.76em" text-anchor="middle" font-family="sans-serif" font-size="9.67741935483871" opacity="1" fill="#000000">
2019-11-23
</text>
<polyline fill="none" opacity="1" stroke="#000000" stroke-width="1" points="598,580 598,585 "/>
<text x="691" y="590" dy="0.76em" text-anchor="middle" font-family="sans-serif" font-size="9.67741935483871" opacity="1" fill="#000000">
2020-01-04
</text>
<polyline fill="none" opacity="1" stroke="#000000" stroke-width="1" points="691,580 691,585 "/>
<text x="784" y="590" dy="0.76em" text-anchor="middle" font-family="sans-serif" font-size="9.67741935483871" opacity="1" fill="#000000">
2020-02-15
</text>
<polyline fill="none" opacity="1" stroke="#000000" stroke-width="1" points="784,580 784,585 "/>
<text x="877" y="590" dy="0.76em" text-anchor="middle" font-family="sans-serif" font-size="9.67741935483871" opacity="1" fill="#000000">
2020-03-28
</text>
<polyline fill="none" opacity="1" stroke="#000000" stroke-width="1" points="877,580 877,585 "/>
<polyline fill="none" opacity="1" stroke="#FF0000" stroke-width="1" points="40,578 40,577 50,576 51,575 215,575 220,574 223,574 228,574 233,574 244,573 321,571 322,571 600,570 616,570 656,569 675,569 693,568 694,568 723,567 744,567 755,566 853,566 856,566 858,566 868,565 870,565 871,564 873,564 875,563 879,562 882,561 884,560 886,560 889,559 892,558 895,558 898,557 900,557 903,556 904,556 908,555 910,554 911,554 913,554 915,553 918,553 920,552 922,552 925,551 929,550 931,550 933,549 935,549 939,548 939,548 943,547 944,547 947,546 "/>
</svg>
