<svg width="987" height="610" viewBox="0 0 987 610" xmlns="http://www.w3.org/2000/svg">
<line opacity="0.1" stroke="#000000" stroke-width="1" x1="40" y1="579" x2="40" y2="9"/>
<line opacity="0.1" stroke="#000000" stroke-width="1" x1="54" y1="579" x2="54" y2="9"/>
<line opacity="0.1" stroke="#000000" stroke-width="1" x1="68" y1="579" x2="68" y2="9"/>
<line opacity="0.1" stroke="#000000" stroke-width="1" x1="83" y1="579" x2="83" y2="9"/>
<line opacity="0.1" stroke="#000000" stroke-width="1" x1="97" y1="579" x2="97" y2="9"/>
<line opacity="0.1" stroke="#000000" stroke-width="1" x1="112" y1="579" x2="112" y2="9"/>
<line opacity="0.1" stroke="#000000" stroke-width="1" x1="126" y1="579" x2="126" y2="9"/>
<line opacity="0.1" stroke="#000000" stroke-width="1" x1="140" y1="579" x2="140" y2="9"/>
<line opacity="0.1" stroke="#000000" stroke-width="1" x1="155" y1="579" x2="155" y2="9"/>
<line opacity="0.1" stroke="#000000" stroke-width="1" x1="169" y1="579" x2="169" y2="9"/>
<line opacity="0.1" stroke="#000000" stroke-width="1" x1="184" y1="579" x2="184" y2="9"/>
<line opacity="0.1" stroke="#000000" stroke-width="1" x1="198" y1="579" x2="198" y2="9"/>
<line opacity="0.1" stroke="#000000" stroke-width="1" x1="212" y1="579" x2="212" y2="9"/>
<line opacity="0.1" stroke="#000000" stroke-width="1" x1="227" y1="579" x2="227" y2="9"/>
<line opacity="0.1" stroke="#000000" stroke-width="1" x1="241" y1="579" x2="241" y2="9"/>
<line opacity="0.1" stroke="#000000" stroke-width="1" x1="256" y1="579" x2="256" y2="9"/>
<line opacity="0.1" stroke="#000000" stroke-width="1" x1="270" y1="579" x2="270" y2="9"/>
<line opacity="0.1" stroke="#000000" stroke-width="1" x1="284" y1="579" x2="284" y2="9"/>
<line opacity="0.1" stroke="#000000" stroke-width="1" x1="299" y1="579" x2="299" y2="9"/>
<line opacity="0.1" stroke="#000000" stroke-width="1" x1="313" y1="579" x2="313" y2="9"/>
<line opacity="0.1" stroke="#000000" stroke-width="1" x1="328" y1="579" x2="328" y2="9"/>
<line opacity="0.1" stroke="#000000" stroke-width="1" x1="342" y1="579" x2="342" y2="9"/>
<line opacity="0.1" stroke="#000000" stroke-width="1" x1="356" y1="579" x2="356" y2="9"/>
<line opacity="0.1" stroke="#000000" stroke-width="1" x1="371" y1="579" x2="371" y2="9"/>
<line opacity="0.1" stroke="#000000" stroke-width="1" x1="385" y1="579" x2="385" y2="9"/>
<line opacity="0.1" stroke="#000000" stroke-width="1" x1="400" y1="579" x2="400" y2="9"/>
<line opacity="0.1" stroke="#000000" stroke-width="1" x1="414" y1="579" x2="414" y2="9"/>
<line opacity="0.1" stroke="#000000" stroke-width="1" x1="429" y1="579" x2="429" y2="9"/>
<line opacity="0.1" stroke="#000000" stroke-width="1" x1="443" y1="579" x2="443" y2="9"/>
<line opacity="0.1" stroke="#000000" stroke-width="1" x1="457" y1="579" x2="457" y2="9"/>
<line opacity="0.1" stroke="#000000" stroke-width="1" x1="472" y1="579" x2="472" y2="9"/>
<line opacity="0.1" stroke="#000000" stroke-width="1" x1="486" y1="579" x2="486" y2="9"/>
<line opacity="0.1" stroke="#000000" stroke-width="1" x1="501" y1="579" x2="501" y2="9"/>
<line opacity="0.1" stroke="#000000" stroke-width="1" x1="515" y1="579" x2="515" y2="9"/>
<line opacity="0.1" stroke="#000000" stroke-width="1" x1="529" y1="579" x2="529" y2="9"/>
<line opacity="0.1" stroke="#000000" stroke-width="1" x1="544" y1="579" x2="544" y2="9"/>
<line opacity="0.1" stroke="#000000" stroke-width="1" x1="558" y1="579" x2="558" y2="9"/>
<line opacity="0.1" stroke="#000000" stroke-width="1" x1="573" y1="579" x2="573" y2="9"/>
<line opacity="0.1" stroke="#000000" stroke-width="1" x1="587" y1="579" x2="587" y2="9"/>
<line opacity="0.1" stroke="#000000" stroke-width="1" x1="601" y1="579" x2="601" y2="9"/>
<line opacity="0.1" stroke="#000000" stroke-width="1" x1="616" y1="579" x2="616" y2="9"/>
<line opacity="0.1" stroke="#000000" stroke-width="1" x1="630" y1="579" x2="630" y2="9"/>
<line opacity="0.1" stroke="#000000" stroke-width="1" x1="645" y1="579" x2="645" y2="9"/>
<line opacity="0.1" stroke="#000000" stroke-width="1" x1="659" y1="579" x2="659" y2="9"/>
<line opacity="0.1" stroke="#000000" stroke-width="1" x1="673" y1="579" x2="673" y2="9"/>
<line opacity="0.1" stroke="#000000" stroke-width="1" x1="688" y1="579" x2="688" y2="9"/>
<line opacity="0.1" stroke="#000000" stroke-width="1" x1="702" y1="579" x2="702" y2="9"/>
<line opacity="0.1" stroke="#000000" stroke-width="1" x1="717" y1="579" x2="717" y2="9"/>
<line opacity="0.1" stroke="#000000" stroke-width="1" x1="731" y1="579" x2="731" y2="9"/>
<line opacity="0.1" stroke="#000000" stroke-width="1" x1="745" y1="579" x2="745" y2="9"/>
<line opacity="0.1" stroke="#000000" stroke-width="1" x1="760" y1="579" x2="760" y2="9"/>
<line opacity="0.1" stroke="#000000" stroke-width="1" x1="774" y1="579" x2="774" y2="9"/>
<line opacity="0.1" stroke="#000000" stroke-width="1" x1="789" y1="579" x2="789" y2="9"/>
<line opacity="0.1" stroke="#000000" stroke-width="1" x1="803" y1="579" x2="803" y2="9"/>
<line opacity="0.1" stroke="#000000" stroke-width="1" x1="818" y1="579" x2="818" y2="9"/>
<line opacity="0.1" stroke="#000000" stroke-width="1" x1="832" y1="579" x2="832" y2="9"/>
<line opacity="0.1" stroke="#000000" stroke-width="1" x1="846" y1="579" x2="846" y2="9"/>
<line opacity="0.1" stroke="#000000" stroke-width="1" x1="861" y1="579" x2="861" y2="9"/>
<line opacity="0.1" stroke="#000000" stroke-width="1" x1="875" y1="579" x2="875" y2="9"/>
<line opacity="0.1" stroke="#000000" stroke-width="1" x1="890" y1="579" x2="890" y2="9"/>
<line opacity="0.1" stroke="#000000" stroke-width="1" x1="904" y1="579" x2="904" y2="9"/>
<line opacity="0.1" stroke="#000000" stroke-width="1" x1="918" y1="579" x2="918" y2="9"/>
<line opacity="0.1" stroke="#000000" stroke-width="1" x1="933" y1="579" x2="933" y2="9"/>
<line opacity="0.1" stroke="#000000" stroke-width="1" x1="40" y1="567" x2="947" y2="567"/>
<line opacity="0.1" stroke="#000000" stroke-width="1" x1="40" y1="556" x2="947" y2="556"/>
<line opacity="0.1" stroke="#000000" stroke-width="1" x1="40" y1="545" x2="947" y2="545"/>
<line opacity="0.1" stroke="#000000" stroke-width="1" x1="40" y1="533" x2="947" y2="533"/>
<line opacity="0.1" stroke="#000000" stroke-width="1" x1="40" y1="522" x2="947" y2="522"/>
<line opacity="0.1" stroke="#000000" stroke-width="1" x1="40" y1="511" x2="947" y2="511"/>
<line opacity="0.1" stroke="#000000" stroke-width="1" x1="40" y1="499" x2="947" y2="499"/>
<line opacity="0.1" stroke="#000000" stroke-width="1" x1="40" y1="488" x2="947" y2="488"/>
<line opacity="0.1" stroke="#000000" stroke-width="1" x1="40" y1="477" x2="947" y2="477"/>
<line opacity="0.1" stroke="#000000" stroke-width="1" x1="40" y1="466" x2="947" y2="466"/>
<line opacity="0.1" stroke="#000000" stroke-width="1" x1="40" y1="454" x2="947" y2="454"/>
<line opacity="0.1" stroke="#000000" stroke-width="1" x1="40" y1="443" x2="947" y2="443"/>
<line opacity="0.1" stroke="#000000" stroke-width="1" x1="40" y1="432" x2="947" y2="432"/>
<line opacity="0.1" stroke="#000000" stroke-width="1" x1="40" y1="420" x2="947" y2="420"/>
<line opacity="0.1" stroke="#000000" stroke-width="1" x1="40" y1="409" x2="947" y2="409"/>
<line opacity="0.1" stroke="#000000" stroke-width="1" x1="40" y1="398" x2="947" y2="398"/>
<line opacity="0.1" stroke="#000000" stroke-width="1" x1="40" y1="387" x2="947" y2="387"/>
<line opacity="0.1" stroke="#000000" stroke-width="1" x1="40" y1="375" x2="947" y2="375"/>
<line opacity="0.1" stroke="#000000" stroke-width="1" x1="40" y1="364" x2="947" y2="364"/>
<line opacity="0.1" stroke="#000000" stroke-width="1" x1="40" y1="353" x2="947" y2="353"/>
<line opacity="0.1" stroke="#000000" stroke-width="1" x1="40" y1="341" x2="947" y2="341"/>
<line opacity="0.1" stroke="#000000" stroke-width="1" x1="40" y1="330" x2="947" y2="330"/>
<line opacity="0.1" stroke="#000000" stroke-width="1" x1="40" y1="319" x2="947" y2="319"/>
<line opacity="0.1" stroke="#000000" stroke-width="1" x1="40" y1="308" x2="947" y2="308"/>
<line opacity="0.1" stroke="#000000" stroke-width="1" x1="40" y1="296" x2="947" y2="296"/>
<line opacity="0.1" stroke="#000000" stroke-width="1" x1="40" y1="285" x2="947" y2="285"/>
<line opacity="0.1" stroke="#000000" stroke-width="1" x1="40" y1="274" x2="947" y2="274"/>
<line opacity="0.1" stroke="#000000" stroke-width="1" x1="40" y1="262" x2="947" y2="262"/>
<line opacity="0.1" stroke="#000000" stroke-width="1" x1="40" y1="251" x2="947" y2="251"/>
<line opacity="0.1" stroke="#000000" stroke-width="1" x1="40" y1="240" x2="947" y2="240"/>
<line opacity="0.1" stroke="#000000" stroke-width="1" x1="40" y1="229" x2="947" y2="229"/>
<line opacity="0.1" stroke="#000000" stroke-width="1" x1="40" y1="217" x2="947" y2="217"/>
<line opacity="0.1" stroke="#000000" stroke-width="1" x1="40" y1="206" x2="947" y2="206"/>
<line opacity="0.1" stroke="#000000" stroke-width="1" x1="40" y1="195" x2="947" y2="195"/>
<line opacity="0.1" stroke="#000000" stroke-width="1" x1="40" y1="183" x2="947" y2="183"/>
<line opacity="0.1" stroke="#000000" stroke-width="1" x1="40" y1="172" x2="947" y2="172"/>
<line opacity="0.1" stroke="#000000" stroke-width="1" x1="40" y1="161" x2="947" y2="161"/>
<line opacity="0.1" stroke="#000000" stroke-width="1" x1="40" y1="150" x2="947" y2="150"/>
<line opacity="0.1" stroke="#000000" stroke-width="1" x1="40" y1="138" x2="947" y2="138"/>
<line opacity="0.1" stroke="#000000" stroke-width="1" x1="40" y1="127" x2="947" y2="127"/>
<line opacity="0.1" stroke="#000000" stroke-width="1" x1="40" y1="116" x2="947" y2="116"/>
<line opacity="0.1" stroke="#000000" stroke-width="1" x1="40" y1="104" x2="947" y2="104"/>
<line opacity="0.1" stroke="#000000" stroke-width="1" x1="40" y1="93" x2="947" y2="93"/>
<line opacity="0.1" stroke="#000000" stroke-width="1" x1="40" y1="82" x2="947" y2="82"/>
<line opacity="0.1" stroke="#000000" stroke-width="1" x1="40" y1="71" x2="947" y2="71"/>
<line opacity="0.1" stroke="#000000" stroke-width="1" x1="40" y1="59" x2="947" y2="59"/>
<line opacity="0.1" stroke="#000000" stroke-width="1" x1="40" y1="48" x2="947" y2="48"/>
<line opacity="0.1" stroke="#000000" stroke-width="1" x1="40" y1="37" x2="947" y2="37"/>
<line opacity="0.1" stroke="#000000" stroke-width="1" x1="40" y1="25" x2="947" y2="25"/>
<line opacity="0.1" stroke="#000000" stroke-width="1" x1="40" y1="14" x2="947" y2="14"/>
<line opacity="0.2" stroke="#000000" stroke-width="1" x1="40" y1="579" x2="40" y2="9"/>
<line opacity="0.2" stroke="#000000" stroke-width="1" x1="140" y1="579" x2="140" y2="9"/>
<line opacity="0.2" stroke="#000000" stroke-width="1" x1="241" y1="579" x2="241" y2="9"/>
<line opacity="0.2" stroke="#000000" stroke-width="1" x1="342" y1="579" x2="342" y2="9"/>
<line opacity="0.2" stroke="#000000" stroke-width="1" x1="443" y1="579" x2="443" y2="9"/>
<line opacity="0.2" stroke="#000000" stroke-width="1" x1="544" y1="579" x2="544" y2="9"/>
<line opacity="0.2" stroke="#000000" stroke-width="1" x1="645" y1="579" x2="645" y2="9"/>
<line opacity="0.2" stroke="#000000" stroke-width="1" x1="745" y1="579" x2="745" y2="9"/>
<line opacity="0.2" stroke="#000000" stroke-width="1" x1="846" y1="579" x2="846" y2="9"/>
<line opacity="0.2" stroke="#000000" stroke-width="1" x1="40" y1="522" x2="947" y2="522"/>
<line opacity="0.2" stroke="#000000" stroke-width="1" x1="40" y1="466" x2="947" y2="466"/>
<line opacity="0.2" stroke="#000000" stroke-width="1" x1="40" y1="409" x2="947" y2="409"/>
<line opacity="0.2" stroke="#000000" stroke-width="1" x1="40" y1="353" x2="947" y2="353"/>
<line opacity="0.2" stroke="#000000" stroke-width="1" x1="40" y1="296" x2="947" y2="296"/>
<line opacity="0.2" stroke="#000000" stroke-width="1" x1="40" y1="240" x2="947" y2="240"/>
<line opacity="0.2" stroke="#000000" stroke-width="1" x1="40" y1="183" x2="947" y2="183"/>
<line opacity="0.2" stroke="#000000" stroke-width="1" x1="40" y1="127" x2="947" y2="127"/>
<line opacity="0.2" stroke="#000000" stroke-width="1" x1="40" y1="71" x2="947" y2="71"/>
<line opacity="0.2" stroke="#000000" stroke-width="1" x1="40" y1="14" x2="947" y2="14"/>
<polyline fill="none" opacity="1" stroke="#000000" stroke-width="1" points="39,10 39,580 "/>
<text x="30" y="522" dy="0.5ex" text-anchor="end" font-family="sans-serif" font-size="9.67741935483871" opacity="1" fill="#000000">
10%
</text>
<polyline fill="none" opacity="1" stroke="#000000" stroke-width="1" points="34,522 39,522 "/>
<text x="30" y="466" dy="0.5ex" text-anchor="end" font-family="sans-serif" font-size="9.67741935483871" opacity="1" fill="#000000">
20%
</text>
<polyline fill="none" opacity="1" stroke="#000000" stroke-width="1" points="34,466 39,466 "/>
<text x="30" y="409" dy="0.5ex" text-anchor="end" font-family="sans-serif" font-size="9.67741935483871" opacity="1" fill="#000000">
30%
</text>
<polyline fill="none" opacity="1" stroke="#000000" stroke-width="1" points="34,409 39,409 "/>
<text x="30" y="353" dy="0.5ex" text-anchor="end" font-family="sans-serif" font-size="9.67741935483871" opacity="1" fill="#000000">
40%
</text>
<polyline fill="none" opacity="1" stroke="#000000" stroke-width="1" points="34,353 39,353 "/>
<text x="30" y="296" dy="0.5ex" text-anchor="end" font-family="sans-serif" font-size="9.67741935483871" opacity="1" fill="#000000">
50%
</text>
<polyline fill="none" opacity="1" stroke="#000000" stroke-width="1" points="34,296 39,296 "/>
<text x="30" y="240" dy="0.5ex" text-anchor="end" font-family="sans-serif" font-size="9.67741935483871" opacity="1" fill="#000000">
60%
</text>
<polyline fill="none" opacity="1" stroke="#000000" stroke-width="1" points="34,240 39,240 "/>
<text x="30" y="183" dy="0.5ex" text-anchor="end" font-family="sans-serif" font-size="9.67741935483871" opacity="1" fill="#000000">
70%
</text>
<polyline fill="none" opacity="1" stroke="#000000" stroke-width="1" points="34,183 39,183 "/>
<text x="30" y="127" dy="0.5ex" text-anchor="end" font-family="sans-serif" font-size="9.67741935483871" opacity="1" fill="#000000">
80%
</text>
<polyline fill="none" opacity="1" stroke="#000000" stroke-width="1" points="34,127 39,127 "/>
<text x="30" y="71" dy="0.5ex" text-anchor="end" font-family="sans-serif" font-size="9.67741935483871" opacity="1" fill="#000000">
90%
</text>
<polyline fill="none" opacity="1" stroke="#000000" stroke-width="1" points="34,71 39,71 "/>
<text x="30" y="14" dy="0.5ex" text-anchor="end" font-family="sans-serif" font-size="9.67741935483871" opacity="1" fill="#000000">
100%
</text>
<polyline fill="none" opacity="1" stroke="#000000" stroke-width="1" points="34,14 39,14 "/>
<polyline fill="none" opacity="1" stroke="#000000" stroke-width="1" points="40,580 947,580 "/>
<text x="40" y="590" dy="0.76em" text-anchor="middle" font-family="sans-serif" font-size="9.67741935483871" opacity="1" fill="#000000">
2019-03-16
</text>
<polyline fill="none" opacity="1" stroke="#000000" stroke-width="1" points="40,580 40,585 "/>
<text x="140" y="590" dy="0.76em" text-anchor="middle" font-family="sans-serif" font-size="9.67741935483871" opacity="1" fill="#000000">
2019-05-04
</text>
<polyline fill="none" opacity="1" stroke="#000000" stroke-width="1" points="140,580 140,585 "/>
<text x="241" y="590" dy="0.76em" text-anchor="middle" font-family="sans-serif" font-size="9.67741935483871" opacity="1" fill="#000000">
2019-06-22
</text>
<polyline fill="none" opacity="1" stroke="#000000" stroke-width="1" points="241,580 241,585 "/>
<text x="342" y="590" dy="0.76em" text-anchor="middle" font-family="sans-serif" font-size="9.67741935483871" opacity="1" fill="#000000">
2019-08-10
</text>
<polyline fill="none" opacity="1" stroke="#000000" stroke-width="1" points="342,580 342,585 "/>
<text x="443" y="590" dy="0.76em" text-anchor="middle" font-family="sans-serif" font-size="9.67741935483871" opacity="1" fill="#000000">
2019-09-28
</text>
<polyline fill="none" opacity="1" stroke="#000000" stroke-width="1" points="443,580 443,585 "/>
<text x="544" y="590" dy="0.76em" text-anchor="middle" font-family="sans-serif" font-size="9.67741935483871" opacity="1" fill="#000000">
2019-11-16
</text>
<polyline fill="none" opacity="1" stroke="#000000" stroke-width="1" points="544,580 544,585 "/>
<text x="645" y="590" dy="0.76em" text-anchor="middle" font-family="sans-serif" font-size="9.67741935483871" opacity="1" fill="#000000">
2020-01-04
</text>
<polyline fill="none" opacity="1" stroke="#000000" stroke-width="1" points="645,580 645,585 "/>
<text x="745" y="590" dy="0.76em" text-anchor="middle" font-family="sans-serif" font-size="9.67741935483871" opacity="1" fill="#000000">
2020-02-22
</text>
<polyline fill="none" opacity="1" stroke="#000000" stroke-width="1" points="745,580 745,585 "/>
<text x="846" y="590" dy="0.76em" text-anchor="middle" font-family="sans-serif" font-size="9.67741935483871" opacity="1" fill="#000000">
2020-04-11
</text>
<polyline fill="none" opacity="1" stroke="#000000" stroke-width="1" points="846,580 846,585 "/>
<polyline fill="none" opacity="1" stroke="#FF0000" stroke-width="1" points="40,578 40,577 49,576 50,575 202,575 208,574 210,574 215,574 219,574 229,573 301,571 301,571 560,570 575,570 612,569 630,569 647,568 647,568 674,567 694,567 704,566 795,566 798,566 799,566 809,565 811,565 812,564 814,564 816,563 819,562 822,561 824,561 826,560 828,560 831,559 834,559 837,558 839,557 841,557 843,556 846,555 848,555 849,555 851,554 853,554 855,553 857,553 859,552 862,551 865,551 867,550 869,550 872,549 875,548 875,548 879,547 880,547 882,547 884,546 887,546 888,545 891,544 893,544 896,543 898,543 900,542 902,542 906,541 909,540 911,540 913,539 915,539 918,538 920,537 922,537 924,536 926,536 928,535 930,535 934,534 936,533 938,533 940,532 942,532 944,531 947,531 "/>
</svg>
