<svg width="987" height="610" viewBox="0 0 987 610" xmlns="http://www.w3.org/2000/svg">
<line opacity="0.1" stroke="#000000" stroke-width="1" x1="40" y1="579" x2="40" y2="9"/>
<line opacity="0.1" stroke="#000000" stroke-width="1" x1="55" y1="579" x2="55" y2="9"/>
<line opacity="0.1" stroke="#000000" stroke-width="1" x1="70" y1="579" x2="70" y2="9"/>
<line opacity="0.1" stroke="#000000" stroke-width="1" x1="85" y1="579" x2="85" y2="9"/>
<line opacity="0.1" stroke="#000000" stroke-width="1" x1="101" y1="579" x2="101" y2="9"/>
<line opacity="0.1" stroke="#000000" stroke-width="1" x1="116" y1="579" x2="116" y2="9"/>
<line opacity="0.1" stroke="#000000" stroke-width="1" x1="131" y1="579" x2="131" y2="9"/>
<line opacity="0.1" stroke="#000000" stroke-width="1" x1="146" y1="579" x2="146" y2="9"/>
<line opacity="0.1" stroke="#000000" stroke-width="1" x1="162" y1="579" x2="162" y2="9"/>
<line opacity="0.1" stroke="#000000" stroke-width="1" x1="177" y1="579" x2="177" y2="9"/>
<line opacity="0.1" stroke="#000000" stroke-width="1" x1="192" y1="579" x2="192" y2="9"/>
<line opacity="0.1" stroke="#000000" stroke-width="1" x1="207" y1="579" x2="207" y2="9"/>
<line opacity="0.1" stroke="#000000" stroke-width="1" x1="223" y1="579" x2="223" y2="9"/>
<line opacity="0.1" stroke="#000000" stroke-width="1" x1="238" y1="579" x2="238" y2="9"/>
<line opacity="0.1" stroke="#000000" stroke-width="1" x1="253" y1="579" x2="253" y2="9"/>
<line opacity="0.1" stroke="#000000" stroke-width="1" x1="268" y1="579" x2="268" y2="9"/>
<line opacity="0.1" stroke="#000000" stroke-width="1" x1="284" y1="579" x2="284" y2="9"/>
<line opacity="0.1" stroke="#000000" stroke-width="1" x1="299" y1="579" x2="299" y2="9"/>
<line opacity="0.1" stroke="#000000" stroke-width="1" x1="314" y1="579" x2="314" y2="9"/>
<line opacity="0.1" stroke="#000000" stroke-width="1" x1="330" y1="579" x2="330" y2="9"/>
<line opacity="0.1" stroke="#000000" stroke-width="1" x1="345" y1="579" x2="345" y2="9"/>
<line opacity="0.1" stroke="#000000" stroke-width="1" x1="360" y1="579" x2="360" y2="9"/>
<line opacity="0.1" stroke="#000000" stroke-width="1" x1="375" y1="579" x2="375" y2="9"/>
<line opacity="0.1" stroke="#000000" stroke-width="1" x1="391" y1="579" x2="391" y2="9"/>
<line opacity="0.1" stroke="#000000" stroke-width="1" x1="406" y1="579" x2="406" y2="9"/>
<line opacity="0.1" stroke="#000000" stroke-width="1" x1="421" y1="579" x2="421" y2="9"/>
<line opacity="0.1" stroke="#000000" stroke-width="1" x1="436" y1="579" x2="436" y2="9"/>
<line opacity="0.1" stroke="#000000" stroke-width="1" x1="452" y1="579" x2="452" y2="9"/>
<line opacity="0.1" stroke="#000000" stroke-width="1" x1="467" y1="579" x2="467" y2="9"/>
<line opacity="0.1" stroke="#000000" stroke-width="1" x1="482" y1="579" x2="482" y2="9"/>
<line opacity="0.1" stroke="#000000" stroke-width="1" x1="497" y1="579" x2="497" y2="9"/>
<line opacity="0.1" stroke="#000000" stroke-width="1" x1="513" y1="579" x2="513" y2="9"/>
<line opacity="0.1" stroke="#000000" stroke-width="1" x1="528" y1="579" x2="528" y2="9"/>
<line opacity="0.1" stroke="#000000" stroke-width="1" x1="543" y1="579" x2="543" y2="9"/>
<line opacity="0.1" stroke="#000000" stroke-width="1" x1="558" y1="579" x2="558" y2="9"/>
<line opacity="0.1" stroke="#000000" stroke-width="1" x1="574" y1="579" x2="574" y2="9"/>
<line opacity="0.1" stroke="#000000" stroke-width="1" x1="589" y1="579" x2="589" y2="9"/>
<line opacity="0.1" stroke="#000000" stroke-width="1" x1="604" y1="579" x2="604" y2="9"/>
<line opacity="0.1" stroke="#000000" stroke-width="1" x1="620" y1="579" x2="620" y2="9"/>
<line opacity="0.1" stroke="#000000" stroke-width="1" x1="635" y1="579" x2="635" y2="9"/>
<line opacity="0.1" stroke="#000000" stroke-width="1" x1="650" y1="579" x2="650" y2="9"/>
<line opacity="0.1" stroke="#000000" stroke-width="1" x1="665" y1="579" x2="665" y2="9"/>
<line opacity="0.1" stroke="#000000" stroke-width="1" x1="681" y1="579" x2="681" y2="9"/>
<line opacity="0.1" stroke="#000000" stroke-width="1" x1="696" y1="579" x2="696" y2="9"/>
<line opacity="0.1" stroke="#000000" stroke-width="1" x1="711" y1="579" x2="711" y2="9"/>
<line opacity="0.1" stroke="#000000" stroke-width="1" x1="726" y1="579" x2="726" y2="9"/>
<line opacity="0.1" stroke="#000000" stroke-width="1" x1="742" y1="579" x2="742" y2="9"/>
<line opacity="0.1" stroke="#000000" stroke-width="1" x1="757" y1="579" x2="757" y2="9"/>
<line opacity="0.1" stroke="#000000" stroke-width="1" x1="772" y1="579" x2="772" y2="9"/>
<line opacity="0.1" stroke="#000000" stroke-width="1" x1="787" y1="579" x2="787" y2="9"/>
<line opacity="0.1" stroke="#000000" stroke-width="1" x1="803" y1="579" x2="803" y2="9"/>
<line opacity="0.1" stroke="#000000" stroke-width="1" x1="818" y1="579" x2="818" y2="9"/>
<line opacity="0.1" stroke="#000000" stroke-width="1" x1="833" y1="579" x2="833" y2="9"/>
<line opacity="0.1" stroke="#000000" stroke-width="1" x1="848" y1="579" x2="848" y2="9"/>
<line opacity="0.1" stroke="#000000" stroke-width="1" x1="864" y1="579" x2="864" y2="9"/>
<line opacity="0.1" stroke="#000000" stroke-width="1" x1="879" y1="579" x2="879" y2="9"/>
<line opacity="0.1" stroke="#000000" stroke-width="1" x1="894" y1="579" x2="894" y2="9"/>
<line opacity="0.1" stroke="#000000" stroke-width="1" x1="909" y1="579" x2="909" y2="9"/>
<line opacity="0.1" stroke="#000000" stroke-width="1" x1="925" y1="579" x2="925" y2="9"/>
<line opacity="0.1" stroke="#000000" stroke-width="1" x1="940" y1="579" x2="940" y2="9"/>
<line opacity="0.1" stroke="#000000" stroke-width="1" x1="40" y1="567" x2="947" y2="567"/>
<line opacity="0.1" stroke="#000000" stroke-width="1" x1="40" y1="556" x2="947" y2="556"/>
<line opacity="0.1" stroke="#000000" stroke-width="1" x1="40" y1="545" x2="947" y2="545"/>
<line opacity="0.1" stroke="#000000" stroke-width="1" x1="40" y1="533" x2="947" y2="533"/>
<line opacity="0.1" stroke="#000000" stroke-width="1" x1="40" y1="522" x2="947" y2="522"/>
<line opacity="0.1" stroke="#000000" stroke-width="1" x1="40" y1="511" x2="947" y2="511"/>
<line opacity="0.1" stroke="#000000" stroke-width="1" x1="40" y1="499" x2="947" y2="499"/>
<line opacity="0.1" stroke="#000000" stroke-width="1" x1="40" y1="488" x2="947" y2="488"/>
<line opacity="0.1" stroke="#000000" stroke-width="1" x1="40" y1="477" x2="947" y2="477"/>
<line opacity="0.1" stroke="#000000" stroke-width="1" x1="40" y1="466" x2="947" y2="466"/>
<line opacity="0.1" stroke="#000000" stroke-width="1" x1="40" y1="454" x2="947" y2="454"/>
<line opacity="0.1" stroke="#000000" stroke-width="1" x1="40" y1="443" x2="947" y2="443"/>
<line opacity="0.1" stroke="#000000" stroke-width="1" x1="40" y1="432" x2="947" y2="432"/>
<line opacity="0.1" stroke="#000000" stroke-width="1" x1="40" y1="420" x2="947" y2="420"/>
<line opacity="0.1" stroke="#000000" stroke-width="1" x1="40" y1="409" x2="947" y2="409"/>
<line opacity="0.1" stroke="#000000" stroke-width="1" x1="40" y1="398" x2="947" y2="398"/>
<line opacity="0.1" stroke="#000000" stroke-width="1" x1="40" y1="387" x2="947" y2="387"/>
<line opacity="0.1" stroke="#000000" stroke-width="1" x1="40" y1="375" x2="947" y2="375"/>
<line opacity="0.1" stroke="#000000" stroke-width="1" x1="40" y1="364" x2="947" y2="364"/>
<line opacity="0.1" stroke="#000000" stroke-width="1" x1="40" y1="353" x2="947" y2="353"/>
<line opacity="0.1" stroke="#000000" stroke-width="1" x1="40" y1="341" x2="947" y2="341"/>
<line opacity="0.1" stroke="#000000" stroke-width="1" x1="40" y1="330" x2="947" y2="330"/>
<line opacity="0.1" stroke="#000000" stroke-width="1" x1="40" y1="319" x2="947" y2="319"/>
<line opacity="0.1" stroke="#000000" stroke-width="1" x1="40" y1="308" x2="947" y2="308"/>
<line opacity="0.1" stroke="#000000" stroke-width="1" x1="40" y1="296" x2="947" y2="296"/>
<line opacity="0.1" stroke="#000000" stroke-width="1" x1="40" y1="285" x2="947" y2="285"/>
<line opacity="0.1" stroke="#000000" stroke-width="1" x1="40" y1="274" x2="947" y2="274"/>
<line opacity="0.1" stroke="#000000" stroke-width="1" x1="40" y1="262" x2="947" y2="262"/>
<line opacity="0.1" stroke="#000000" stroke-width="1" x1="40" y1="251" x2="947" y2="251"/>
<line opacity="0.1" stroke="#000000" stroke-width="1" x1="40" y1="240" x2="947" y2="240"/>
<line opacity="0.1" stroke="#000000" stroke-width="1" x1="40" y1="229" x2="947" y2="229"/>
<line opacity="0.1" stroke="#000000" stroke-width="1" x1="40" y1="217" x2="947" y2="217"/>
<line opacity="0.1" stroke="#000000" stroke-width="1" x1="40" y1="206" x2="947" y2="206"/>
<line opacity="0.1" stroke="#000000" stroke-width="1" x1="40" y1="195" x2="947" y2="195"/>
<line opacity="0.1" stroke="#000000" stroke-width="1" x1="40" y1="183" x2="947" y2="183"/>
<line opacity="0.1" stroke="#000000" stroke-width="1" x1="40" y1="172" x2="947" y2="172"/>
<line opacity="0.1" stroke="#000000" stroke-width="1" x1="40" y1="161" x2="947" y2="161"/>
<line opacity="0.1" stroke="#000000" stroke-width="1" x1="40" y1="150" x2="947" y2="150"/>
<line opacity="0.1" stroke="#000000" stroke-width="1" x1="40" y1="138" x2="947" y2="138"/>
<line opacity="0.1" stroke="#000000" stroke-width="1" x1="40" y1="127" x2="947" y2="127"/>
<line opacity="0.1" stroke="#000000" stroke-width="1" x1="40" y1="116" x2="947" y2="116"/>
<line opacity="0.1" stroke="#000000" stroke-width="1" x1="40" y1="104" x2="947" y2="104"/>
<line opacity="0.1" stroke="#000000" stroke-width="1" x1="40" y1="93" x2="947" y2="93"/>
<line opacity="0.1" stroke="#000000" stroke-width="1" x1="40" y1="82" x2="947" y2="82"/>
<line opacity="0.1" stroke="#000000" stroke-width="1" x1="40" y1="71" x2="947" y2="71"/>
<line opacity="0.1" stroke="#000000" stroke-width="1" x1="40" y1="59" x2="947" y2="59"/>
<line opacity="0.1" stroke="#000000" stroke-width="1" x1="40" y1="48" x2="947" y2="48"/>
<line opacity="0.1" stroke="#000000" stroke-width="1" x1="40" y1="37" x2="947" y2="37"/>
<line opacity="0.1" stroke="#000000" stroke-width="1" x1="40" y1="25" x2="947" y2="25"/>
<line opacity="0.1" stroke="#000000" stroke-width="1" x1="40" y1="14" x2="947" y2="14"/>
<line opacity="0.2" stroke="#000000" stroke-width="1" x1="40" y1="579" x2="40" y2="9"/>
<line opacity="0.2" stroke="#000000" stroke-width="1" x1="131" y1="579" x2="131" y2="9"/>
<line opacity="0.2" stroke="#000000" stroke-width="1" x1="223" y1="579" x2="223" y2="9"/>
<line opacity="0.2" stroke="#000000" stroke-width="1" x1="314" y1="579" x2="314" y2="9"/>
<line opacity="0.2" stroke="#000000" stroke-width="1" x1="406" y1="579" x2="406" y2="9"/>
<line opacity="0.2" stroke="#000000" stroke-width="1" x1="497" y1="579" x2="497" y2="9"/>
<line opacity="0.2" stroke="#000000" stroke-width="1" x1="589" y1="579" x2="589" y2="9"/>
<line opacity="0.2" stroke="#000000" stroke-width="1" x1="681" y1="579" x2="681" y2="9"/>
<line opacity="0.2" stroke="#000000" stroke-width="1" x1="772" y1="579" x2="772" y2="9"/>
<line opacity="0.2" stroke="#000000" stroke-width="1" x1="864" y1="579" x2="864" y2="9"/>
<line opacity="0.2" stroke="#000000" stroke-width="1" x1="40" y1="522" x2="947" y2="522"/>
<line opacity="0.2" stroke="#000000" stroke-width="1" x1="40" y1="466" x2="947" y2="466"/>
<line opacity="0.2" stroke="#000000" stroke-width="1" x1="40" y1="409" x2="947" y2="409"/>
<line opacity="0.2" stroke="#000000" stroke-width="1" x1="40" y1="353" x2="947" y2="353"/>
<line opacity="0.2" stroke="#000000" stroke-width="1" x1="40" y1="296" x2="947" y2="296"/>
<line opacity="0.2" stroke="#000000" stroke-width="1" x1="40" y1="240" x2="947" y2="240"/>
<line opacity="0.2" stroke="#000000" stroke-width="1" x1="40" y1="183" x2="947" y2="183"/>
<line opacity="0.2" stroke="#000000" stroke-width="1" x1="40" y1="127" x2="947" y2="127"/>
<line opacity="0.2" stroke="#000000" stroke-width="1" x1="40" y1="71" x2="947" y2="71"/>
<line opacity="0.2" stroke="#000000" stroke-width="1" x1="40" y1="14" x2="947" y2="14"/>
<polyline fill="none" opacity="1" stroke="#000000" stroke-width="1" points="39,10 39,580 "/>
<text x="30" y="522" dy="0.5ex" text-anchor="end" font-family="sans-serif" font-size="9.67741935483871" opacity="1" fill="#000000">
10%
</text>
<polyline fill="none" opacity="1" stroke="#000000" stroke-width="1" points="34,522 39,522 "/>
<text x="30" y="466" dy="0.5ex" text-anchor="end" font-family="sans-serif" font-size="9.67741935483871" opacity="1" fill="#000000">
20%
</text>
<polyline fill="none" opacity="1" stroke="#000000" stroke-width="1" points="34,466 39,466 "/>
<text x="30" y="409" dy="0.5ex" text-anchor="end" font-family="sans-serif" font-size="9.67741935483871" opacity="1" fill="#000000">
30%
</text>
<polyline fill="none" opacity="1" stroke="#000000" stroke-width="1" points="34,409 39,409 "/>
<text x="30" y="353" dy="0.5ex" text-anchor="end" font-family="sans-serif" font-size="9.67741935483871" opacity="1" fill="#000000">
40%
</text>
<polyline fill="none" opacity="1" stroke="#000000" stroke-width="1" points="34,353 39,353 "/>
<text x="30" y="296" dy="0.5ex" text-anchor="end" font-family="sans-serif" font-size="9.67741935483871" opacity="1" fill="#000000">
50%
</text>
<polyline fill="none" opacity="1" stroke="#000000" stroke-width="1" points="34,296 39,296 "/>
<text x="30" y="240" dy="0.5ex" text-anchor="end" font-family="sans-serif" font-size="9.67741935483871" opacity="1" fill="#000000">
60%
</text>
<polyline fill="none" opacity="1" stroke="#000000" stroke-width="1" points="34,240 39,240 "/>
<text x="30" y="183" dy="0.5ex" text-anchor="end" font-family="sans-serif" font-size="9.67741935483871" opacity="1" fill="#000000">
70%
</text>
<polyline fill="none" opacity="1" stroke="#000000" stroke-width="1" points="34,183 39,183 "/>
<text x="30" y="127" dy="0.5ex" text-anchor="end" font-family="sans-serif" font-size="9.67741935483871" opacity="1" fill="#000000">
80%
</text>
<polyline fill="none" opacity="1" stroke="#000000" stroke-width="1" points="34,127 39,127 "/>
<text x="30" y="71" dy="0.5ex" text-anchor="end" font-family="sans-serif" font-size="9.67741935483871" opacity="1" fill="#000000">
90%
</text>
<polyline fill="none" opacity="1" stroke="#000000" stroke-width="1" points="34,71 39,71 "/>
<text x="30" y="14" dy="0.5ex" text-anchor="end" font-family="sans-serif" font-size="9.67741935483871" opacity="1" fill="#000000">
100%
</text>
<polyline fill="none" opacity="1" stroke="#000000" stroke-width="1" points="34,14 39,14 "/>
<polyline fill="none" opacity="1" stroke="#000000" stroke-width="1" points="40,580 947,580 "/>
<text x="40" y="590" dy="0.76em" text-anchor="middle" font-family="sans-serif" font-size="9.67741935483871" opacity="1" fill="#000000">
2019-03-16
</text>
<polyline fill="none" opacity="1" stroke="#000000" stroke-width="1" points="40,580 40,585 "/>
<text x="131" y="590" dy="0.76em" text-anchor="middle" font-family="sans-serif" font-size="9.67741935483871" opacity="1" fill="#000000">
2019-04-27
</text>
<polyline fill="none" opacity="1" stroke="#000000" stroke-width="1" points="131,580 131,585 "/>
<text x="223" y="590" dy="0.76em" text-anchor="middle" font-family="sans-serif" font-size="9.67741935483871" opacity="1" fill="#000000">
2019-06-08
</text>
<polyline fill="none" opacity="1" stroke="#000000" stroke-width="1" points="223,580 223,585 "/>
<text x="314" y="590" dy="0.76em" text-anchor="middle" font-family="sans-serif" font-size="9.67741935483871" opacity="1" fill="#000000">
2019-07-20
</text>
<polyline fill="none" opacity="1" stroke="#000000" stroke-width="1" points="314,580 314,585 "/>
<text x="406" y="590" dy="0.76em" text-anchor="middle" font-family="sans-serif" font-size="9.67741935483871" opacity="1" fill="#000000">
2019-08-31
</text>
<polyline fill="none" opacity="1" stroke="#000000" stroke-width="1" points="406,580 406,585 "/>
<text x="497" y="590" dy="0.76em" text-anchor="middle" font-family="sans-serif" font-size="9.67741935483871" opacity="1" fill="#000000">
2019-10-12
</text>
<polyline fill="none" opacity="1" stroke="#000000" stroke-width="1" points="497,580 497,585 "/>
<text x="589" y="590" dy="0.76em" text-anchor="middle" font-family="sans-serif" font-size="9.67741935483871" opacity="1" fill="#000000">
2019-11-23
</text>
<polyline fill="none" opacity="1" stroke="#000000" stroke-width="1" points="589,580 589,585 "/>
<text x="681" y="590" dy="0.76em" text-anchor="middle" font-family="sans-serif" font-size="9.67741935483871" opacity="1" fill="#000000">
2020-01-04
</text>
<polyline fill="none" opacity="1" stroke="#000000" stroke-width="1" points="681,580 681,585 "/>
<text x="772" y="590" dy="0.76em" text-anchor="middle" font-family="sans-serif" font-size="9.67741935483871" opacity="1" fill="#000000">
2020-02-15
</text>
<polyline fill="none" opacity="1" stroke="#000000" stroke-width="1" points="772,580 772,585 "/>
<text x="864" y="590" dy="0.76em" text-anchor="middle" font-family="sans-serif" font-size="9.67741935483871" opacity="1" fill="#000000">
2020-03-28
</text>
<polyline fill="none" opacity="1" stroke="#000000" stroke-width="1" points="864,580 864,585 "/>
<polyline fill="none" opacity="1" stroke="#FF0000" stroke-width="1" points="40,578 40,577 50,576 51,575 212,575 217,574 220,574 225,574 230,574 241,573 316,571 317,571 591,570 607,570 646,569 665,569 683,568 683,568 712,567 733,567 743,566 840,566 843,566 845,566 854,565 856,565 858,564 860,564 862,563 865,562 869,561 871,561 873,560 875,560 878,559 881,559 884,558 886,557 889,557 891,556 894,555 896,554 897,554 899,554 901,553 904,553 906,552 908,552 911,551 914,550 917,550 919,549 921,549 924,548 925,548 928,547 930,547 932,546 934,546 938,545 938,545 942,544 944,543 947,543 "/>
</svg>
