<svg width="987" height="610" viewBox="0 0 987 610" xmlns="http://www.w3.org/2000/svg">
<line opacity="0.1" stroke="#000000" stroke-width="1" x1="40" y1="579" x2="40" y2="9"/>
<line opacity="0.1" stroke="#000000" stroke-width="1" x1="51" y1="579" x2="51" y2="9"/>
<line opacity="0.1" stroke="#000000" stroke-width="1" x1="62" y1="579" x2="62" y2="9"/>
<line opacity="0.1" stroke="#000000" stroke-width="1" x1="73" y1="579" x2="73" y2="9"/>
<line opacity="0.1" stroke="#000000" stroke-width="1" x1="84" y1="579" x2="84" y2="9"/>
<line opacity="0.1" stroke="#000000" stroke-width="1" x1="96" y1="579" x2="96" y2="9"/>
<line opacity="0.1" stroke="#000000" stroke-width="1" x1="107" y1="579" x2="107" y2="9"/>
<line opacity="0.1" stroke="#000000" stroke-width="1" x1="118" y1="579" x2="118" y2="9"/>
<line opacity="0.1" stroke="#000000" stroke-width="1" x1="129" y1="579" x2="129" y2="9"/>
<line opacity="0.1" stroke="#000000" stroke-width="1" x1="140" y1="579" x2="140" y2="9"/>
<line opacity="0.1" stroke="#000000" stroke-width="1" x1="152" y1="579" x2="152" y2="9"/>
<line opacity="0.1" stroke="#000000" stroke-width="1" x1="163" y1="579" x2="163" y2="9"/>
<line opacity="0.1" stroke="#000000" stroke-width="1" x1="174" y1="579" x2="174" y2="9"/>
<line opacity="0.1" stroke="#000000" stroke-width="1" x1="185" y1="579" x2="185" y2="9"/>
<line opacity="0.1" stroke="#000000" stroke-width="1" x1="197" y1="579" x2="197" y2="9"/>
<line opacity="0.1" stroke="#000000" stroke-width="1" x1="208" y1="579" x2="208" y2="9"/>
<line opacity="0.1" stroke="#000000" stroke-width="1" x1="219" y1="579" x2="219" y2="9"/>
<line opacity="0.1" stroke="#000000" stroke-width="1" x1="230" y1="579" x2="230" y2="9"/>
<line opacity="0.1" stroke="#000000" stroke-width="1" x1="241" y1="579" x2="241" y2="9"/>
<line opacity="0.1" stroke="#000000" stroke-width="1" x1="253" y1="579" x2="253" y2="9"/>
<line opacity="0.1" stroke="#000000" stroke-width="1" x1="264" y1="579" x2="264" y2="9"/>
<line opacity="0.1" stroke="#000000" stroke-width="1" x1="275" y1="579" x2="275" y2="9"/>
<line opacity="0.1" stroke="#000000" stroke-width="1" x1="286" y1="579" x2="286" y2="9"/>
<line opacity="0.1" stroke="#000000" stroke-width="1" x1="298" y1="579" x2="298" y2="9"/>
<line opacity="0.1" stroke="#000000" stroke-width="1" x1="309" y1="579" x2="309" y2="9"/>
<line opacity="0.1" stroke="#000000" stroke-width="1" x1="320" y1="579" x2="320" y2="9"/>
<line opacity="0.1" stroke="#000000" stroke-width="1" x1="331" y1="579" x2="331" y2="9"/>
<line opacity="0.1" stroke="#000000" stroke-width="1" x1="342" y1="579" x2="342" y2="9"/>
<line opacity="0.1" stroke="#000000" stroke-width="1" x1="354" y1="579" x2="354" y2="9"/>
<line opacity="0.1" stroke="#000000" stroke-width="1" x1="365" y1="579" x2="365" y2="9"/>
<line opacity="0.1" stroke="#000000" stroke-width="1" x1="376" y1="579" x2="376" y2="9"/>
<line opacity="0.1" stroke="#000000" stroke-width="1" x1="387" y1="579" x2="387" y2="9"/>
<line opacity="0.1" stroke="#000000" stroke-width="1" x1="398" y1="579" x2="398" y2="9"/>
<line opacity="0.1" stroke="#000000" stroke-width="1" x1="410" y1="579" x2="410" y2="9"/>
<line opacity="0.1" stroke="#000000" stroke-width="1" x1="421" y1="579" x2="421" y2="9"/>
<line opacity="0.1" stroke="#000000" stroke-width="1" x1="432" y1="579" x2="432" y2="9"/>
<line opacity="0.1" stroke="#000000" stroke-width="1" x1="443" y1="579" x2="443" y2="9"/>
<line opacity="0.1" stroke="#000000" stroke-width="1" x1="455" y1="579" x2="455" y2="9"/>
<line opacity="0.1" stroke="#000000" stroke-width="1" x1="466" y1="579" x2="466" y2="9"/>
<line opacity="0.1" stroke="#000000" stroke-width="1" x1="477" y1="579" x2="477" y2="9"/>
<line opacity="0.1" stroke="#000000" stroke-width="1" x1="488" y1="579" x2="488" y2="9"/>
<line opacity="0.1" stroke="#000000" stroke-width="1" x1="499" y1="579" x2="499" y2="9"/>
<line opacity="0.1" stroke="#000000" stroke-width="1" x1="511" y1="579" x2="511" y2="9"/>
<line opacity="0.1" stroke="#000000" stroke-width="1" x1="522" y1="579" x2="522" y2="9"/>
<line opacity="0.1" stroke="#000000" stroke-width="1" x1="533" y1="579" x2="533" y2="9"/>
<line opacity="0.1" stroke="#000000" stroke-width="1" x1="544" y1="579" x2="544" y2="9"/>
<line opacity="0.1" stroke="#000000" stroke-width="1" x1="556" y1="579" x2="556" y2="9"/>
<line opacity="0.1" stroke="#000000" stroke-width="1" x1="567" y1="579" x2="567" y2="9"/>
<line opacity="0.1" stroke="#000000" stroke-width="1" x1="578" y1="579" x2="578" y2="9"/>
<line opacity="0.1" stroke="#000000" stroke-width="1" x1="589" y1="579" x2="589" y2="9"/>
<line opacity="0.1" stroke="#000000" stroke-width="1" x1="600" y1="579" x2="600" y2="9"/>
<line opacity="0.1" stroke="#000000" stroke-width="1" x1="612" y1="579" x2="612" y2="9"/>
<line opacity="0.1" stroke="#000000" stroke-width="1" x1="623" y1="579" x2="623" y2="9"/>
<line opacity="0.1" stroke="#000000" stroke-width="1" x1="634" y1="579" x2="634" y2="9"/>
<line opacity="0.1" stroke="#000000" stroke-width="1" x1="645" y1="579" x2="645" y2="9"/>
<line opacity="0.1" stroke="#000000" stroke-width="1" x1="656" y1="579" x2="656" y2="9"/>
<line opacity="0.1" stroke="#000000" stroke-width="1" x1="668" y1="579" x2="668" y2="9"/>
<line opacity="0.1" stroke="#000000" stroke-width="1" x1="679" y1="579" x2="679" y2="9"/>
<line opacity="0.1" stroke="#000000" stroke-width="1" x1="690" y1="579" x2="690" y2="9"/>
<line opacity="0.1" stroke="#000000" stroke-width="1" x1="701" y1="579" x2="701" y2="9"/>
<line opacity="0.1" stroke="#000000" stroke-width="1" x1="713" y1="579" x2="713" y2="9"/>
<line opacity="0.1" stroke="#000000" stroke-width="1" x1="724" y1="579" x2="724" y2="9"/>
<line opacity="0.1" stroke="#000000" stroke-width="1" x1="735" y1="579" x2="735" y2="9"/>
<line opacity="0.1" stroke="#000000" stroke-width="1" x1="746" y1="579" x2="746" y2="9"/>
<line opacity="0.1" stroke="#000000" stroke-width="1" x1="757" y1="579" x2="757" y2="9"/>
<line opacity="0.1" stroke="#000000" stroke-width="1" x1="769" y1="579" x2="769" y2="9"/>
<line opacity="0.1" stroke="#000000" stroke-width="1" x1="780" y1="579" x2="780" y2="9"/>
<line opacity="0.1" stroke="#000000" stroke-width="1" x1="791" y1="579" x2="791" y2="9"/>
<line opacity="0.1" stroke="#000000" stroke-width="1" x1="802" y1="579" x2="802" y2="9"/>
<line opacity="0.1" stroke="#000000" stroke-width="1" x1="814" y1="579" x2="814" y2="9"/>
<line opacity="0.1" stroke="#000000" stroke-width="1" x1="825" y1="579" x2="825" y2="9"/>
<line opacity="0.1" stroke="#000000" stroke-width="1" x1="836" y1="579" x2="836" y2="9"/>
<line opacity="0.1" stroke="#000000" stroke-width="1" x1="847" y1="579" x2="847" y2="9"/>
<line opacity="0.1" stroke="#000000" stroke-width="1" x1="858" y1="579" x2="858" y2="9"/>
<line opacity="0.1" stroke="#000000" stroke-width="1" x1="870" y1="579" x2="870" y2="9"/>
<line opacity="0.1" stroke="#000000" stroke-width="1" x1="881" y1="579" x2="881" y2="9"/>
<line opacity="0.1" stroke="#000000" stroke-width="1" x1="892" y1="579" x2="892" y2="9"/>
<line opacity="0.1" stroke="#000000" stroke-width="1" x1="903" y1="579" x2="903" y2="9"/>
<line opacity="0.1" stroke="#000000" stroke-width="1" x1="914" y1="579" x2="914" y2="9"/>
<line opacity="0.1" stroke="#000000" stroke-width="1" x1="926" y1="579" x2="926" y2="9"/>
<line opacity="0.1" stroke="#000000" stroke-width="1" x1="937" y1="579" x2="937" y2="9"/>
<line opacity="0.1" stroke="#000000" stroke-width="1" x1="40" y1="567" x2="947" y2="567"/>
<line opacity="0.1" stroke="#000000" stroke-width="1" x1="40" y1="556" x2="947" y2="556"/>
<line opacity="0.1" stroke="#000000" stroke-width="1" x1="40" y1="545" x2="947" y2="545"/>
<line opacity="0.1" stroke="#000000" stroke-width="1" x1="40" y1="533" x2="947" y2="533"/>
<line opacity="0.1" stroke="#000000" stroke-width="1" x1="40" y1="522" x2="947" y2="522"/>
<line opacity="0.1" stroke="#000000" stroke-width="1" x1="40" y1="511" x2="947" y2="511"/>
<line opacity="0.1" stroke="#000000" stroke-width="1" x1="40" y1="499" x2="947" y2="499"/>
<line opacity="0.1" stroke="#000000" stroke-width="1" x1="40" y1="488" x2="947" y2="488"/>
<line opacity="0.1" stroke="#000000" stroke-width="1" x1="40" y1="477" x2="947" y2="477"/>
<line opacity="0.1" stroke="#000000" stroke-width="1" x1="40" y1="466" x2="947" y2="466"/>
<line opacity="0.1" stroke="#000000" stroke-width="1" x1="40" y1="454" x2="947" y2="454"/>
<line opacity="0.1" stroke="#000000" stroke-width="1" x1="40" y1="443" x2="947" y2="443"/>
<line opacity="0.1" stroke="#000000" stroke-width="1" x1="40" y1="432" x2="947" y2="432"/>
<line opacity="0.1" stroke="#000000" stroke-width="1" x1="40" y1="420" x2="947" y2="420"/>
<line opacity="0.1" stroke="#000000" stroke-width="1" x1="40" y1="409" x2="947" y2="409"/>
<line opacity="0.1" stroke="#000000" stroke-width="1" x1="40" y1="398" x2="947" y2="398"/>
<line opacity="0.1" stroke="#000000" stroke-width="1" x1="40" y1="387" x2="947" y2="387"/>
<line opacity="0.1" stroke="#000000" stroke-width="1" x1="40" y1="375" x2="947" y2="375"/>
<line opacity="0.1" stroke="#000000" stroke-width="1" x1="40" y1="364" x2="947" y2="364"/>
<line opacity="0.1" stroke="#000000" stroke-width="1" x1="40" y1="353" x2="947" y2="353"/>
<line opacity="0.1" stroke="#000000" stroke-width="1" x1="40" y1="341" x2="947" y2="341"/>
<line opacity="0.1" stroke="#000000" stroke-width="1" x1="40" y1="330" x2="947" y2="330"/>
<line opacity="0.1" stroke="#000000" stroke-width="1" x1="40" y1="319" x2="947" y2="319"/>
<line opacity="0.1" stroke="#000000" stroke-width="1" x1="40" y1="308" x2="947" y2="308"/>
<line opacity="0.1" stroke="#000000" stroke-width="1" x1="40" y1="296" x2="947" y2="296"/>
<line opacity="0.1" stroke="#000000" stroke-width="1" x1="40" y1="285" x2="947" y2="285"/>
<line opacity="0.1" stroke="#000000" stroke-width="1" x1="40" y1="274" x2="947" y2="274"/>
<line opacity="0.1" stroke="#000000" stroke-width="1" x1="40" y1="262" x2="947" y2="262"/>
<line opacity="0.1" stroke="#000000" stroke-width="1" x1="40" y1="251" x2="947" y2="251"/>
<line opacity="0.1" stroke="#000000" stroke-width="1" x1="40" y1="240" x2="947" y2="240"/>
<line opacity="0.1" stroke="#000000" stroke-width="1" x1="40" y1="229" x2="947" y2="229"/>
<line opacity="0.1" stroke="#000000" stroke-width="1" x1="40" y1="217" x2="947" y2="217"/>
<line opacity="0.1" stroke="#000000" stroke-width="1" x1="40" y1="206" x2="947" y2="206"/>
<line opacity="0.1" stroke="#000000" stroke-width="1" x1="40" y1="195" x2="947" y2="195"/>
<line opacity="0.1" stroke="#000000" stroke-width="1" x1="40" y1="183" x2="947" y2="183"/>
<line opacity="0.1" stroke="#000000" stroke-width="1" x1="40" y1="172" x2="947" y2="172"/>
<line opacity="0.1" stroke="#000000" stroke-width="1" x1="40" y1="161" x2="947" y2="161"/>
<line opacity="0.1" stroke="#000000" stroke-width="1" x1="40" y1="150" x2="947" y2="150"/>
<line opacity="0.1" stroke="#000000" stroke-width="1" x1="40" y1="138" x2="947" y2="138"/>
<line opacity="0.1" stroke="#000000" stroke-width="1" x1="40" y1="127" x2="947" y2="127"/>
<line opacity="0.1" stroke="#000000" stroke-width="1" x1="40" y1="116" x2="947" y2="116"/>
<line opacity="0.1" stroke="#000000" stroke-width="1" x1="40" y1="104" x2="947" y2="104"/>
<line opacity="0.1" stroke="#000000" stroke-width="1" x1="40" y1="93" x2="947" y2="93"/>
<line opacity="0.1" stroke="#000000" stroke-width="1" x1="40" y1="82" x2="947" y2="82"/>
<line opacity="0.1" stroke="#000000" stroke-width="1" x1="40" y1="71" x2="947" y2="71"/>
<line opacity="0.1" stroke="#000000" stroke-width="1" x1="40" y1="59" x2="947" y2="59"/>
<line opacity="0.1" stroke="#000000" stroke-width="1" x1="40" y1="48" x2="947" y2="48"/>
<line opacity="0.1" stroke="#000000" stroke-width="1" x1="40" y1="37" x2="947" y2="37"/>
<line opacity="0.1" stroke="#000000" stroke-width="1" x1="40" y1="25" x2="947" y2="25"/>
<line opacity="0.1" stroke="#000000" stroke-width="1" x1="40" y1="14" x2="947" y2="14"/>
<line opacity="0.2" stroke="#000000" stroke-width="1" x1="40" y1="579" x2="40" y2="9"/>
<line opacity="0.2" stroke="#000000" stroke-width="1" x1="129" y1="579" x2="129" y2="9"/>
<line opacity="0.2" stroke="#000000" stroke-width="1" x1="219" y1="579" x2="219" y2="9"/>
<line opacity="0.2" stroke="#000000" stroke-width="1" x1="309" y1="579" x2="309" y2="9"/>
<line opacity="0.2" stroke="#000000" stroke-width="1" x1="398" y1="579" x2="398" y2="9"/>
<line opacity="0.2" stroke="#000000" stroke-width="1" x1="488" y1="579" x2="488" y2="9"/>
<line opacity="0.2" stroke="#000000" stroke-width="1" x1="578" y1="579" x2="578" y2="9"/>
<line opacity="0.2" stroke="#000000" stroke-width="1" x1="668" y1="579" x2="668" y2="9"/>
<line opacity="0.2" stroke="#000000" stroke-width="1" x1="757" y1="579" x2="757" y2="9"/>
<line opacity="0.2" stroke="#000000" stroke-width="1" x1="847" y1="579" x2="847" y2="9"/>
<line opacity="0.2" stroke="#000000" stroke-width="1" x1="937" y1="579" x2="937" y2="9"/>
<line opacity="0.2" stroke="#000000" stroke-width="1" x1="40" y1="522" x2="947" y2="522"/>
<line opacity="0.2" stroke="#000000" stroke-width="1" x1="40" y1="466" x2="947" y2="466"/>
<line opacity="0.2" stroke="#000000" stroke-width="1" x1="40" y1="409" x2="947" y2="409"/>
<line opacity="0.2" stroke="#000000" stroke-width="1" x1="40" y1="353" x2="947" y2="353"/>
<line opacity="0.2" stroke="#000000" stroke-width="1" x1="40" y1="296" x2="947" y2="296"/>
<line opacity="0.2" stroke="#000000" stroke-width="1" x1="40" y1="240" x2="947" y2="240"/>
<line opacity="0.2" stroke="#000000" stroke-width="1" x1="40" y1="183" x2="947" y2="183"/>
<line opacity="0.2" stroke="#000000" stroke-width="1" x1="40" y1="127" x2="947" y2="127"/>
<line opacity="0.2" stroke="#000000" stroke-width="1" x1="40" y1="71" x2="947" y2="71"/>
<line opacity="0.2" stroke="#000000" stroke-width="1" x1="40" y1="14" x2="947" y2="14"/>
<polyline fill="none" opacity="1" stroke="#000000" stroke-width="1" points="39,10 39,580 "/>
<text x="30" y="522" dy="0.5ex" text-anchor="end" font-family="sans-serif" font-size="9.67741935483871" opacity="1" fill="#000000">
10%
</text>
<polyline fill="none" opacity="1" stroke="#000000" stroke-width="1" points="34,522 39,522 "/>
<text x="30" y="466" dy="0.5ex" text-anchor="end" font-family="sans-serif" font-size="9.67741935483871" opacity="1" fill="#000000">
20%
</text>
<polyline fill="none" opacity="1" stroke="#000000" stroke-width="1" points="34,466 39,466 "/>
<text x="30" y="409" dy="0.5ex" text-anchor="end" font-family="sans-serif" font-size="9.67741935483871" opacity="1" fill="#000000">
30%
</text>
<polyline fill="none" opacity="1" stroke="#000000" stroke-width="1" points="34,409 39,409 "/>
<text x="30" y="353" dy="0.5ex" text-anchor="end" font-family="sans-serif" font-size="9.67741935483871" opacity="1" fill="#000000">
40%
</text>
<polyline fill="none" opacity="1" stroke="#000000" stroke-width="1" points="34,353 39,353 "/>
<text x="30" y="296" dy="0.5ex" text-anchor="end" font-family="sans-serif" font-size="9.67741935483871" opacity="1" fill="#000000">
50%
</text>
<polyline fill="none" opacity="1" stroke="#000000" stroke-width="1" points="34,296 39,296 "/>
<text x="30" y="240" dy="0.5ex" text-anchor="end" font-family="sans-serif" font-size="9.67741935483871" opacity="1" fill="#000000">
60%
</text>
<polyline fill="none" opacity="1" stroke="#000000" stroke-width="1" points="34,240 39,240 "/>
<text x="30" y="183" dy="0.5ex" text-anchor="end" font-family="sans-serif" font-size="9.67741935483871" opacity="1" fill="#000000">
70%
</text>
<polyline fill="none" opacity="1" stroke="#000000" stroke-width="1" points="34,183 39,183 "/>
<text x="30" y="127" dy="0.5ex" text-anchor="end" font-family="sans-serif" font-size="9.67741935483871" opacity="1" fill="#000000">
80%
</text>
<polyline fill="none" opacity="1" stroke="#000000" stroke-width="1" points="34,127 39,127 "/>
<text x="30" y="71" dy="0.5ex" text-anchor="end" font-family="sans-serif" font-size="9.67741935483871" opacity="1" fill="#000000">
90%
</text>
<polyline fill="none" opacity="1" stroke="#000000" stroke-width="1" points="34,71 39,71 "/>
<text x="30" y="14" dy="0.5ex" text-anchor="end" font-family="sans-serif" font-size="9.67741935483871" opacity="1" fill="#000000">
100%
</text>
<polyline fill="none" opacity="1" stroke="#000000" stroke-width="1" points="34,14 39,14 "/>
<polyline fill="none" opacity="1" stroke="#000000" stroke-width="1" points="40,580 947,580 "/>
<text x="40" y="590" dy="0.76em" text-anchor="middle" font-family="sans-serif" font-size="9.67741935483871" opacity="1" fill="#000000">
2019-03-16
</text>
<polyline fill="none" opacity="1" stroke="#000000" stroke-width="1" points="40,580 40,585 "/>
<text x="129" y="590" dy="0.76em" text-anchor="middle" font-family="sans-serif" font-size="9.67741935483871" opacity="1" fill="#000000">
2019-05-11
</text>
<polyline fill="none" opacity="1" stroke="#000000" stroke-width="1" points="129,580 129,585 "/>
<text x="219" y="590" dy="0.76em" text-anchor="middle" font-family="sans-serif" font-size="9.67741935483871" opacity="1" fill="#000000">
2019-07-06
</text>
<polyline fill="none" opacity="1" stroke="#000000" stroke-width="1" points="219,580 219,585 "/>
<text x="309" y="590" dy="0.76em" text-anchor="middle" font-family="sans-serif" font-size="9.67741935483871" opacity="1" fill="#000000">
2019-08-31
</text>
<polyline fill="none" opacity="1" stroke="#000000" stroke-width="1" points="309,580 309,585 "/>
<text x="398" y="590" dy="0.76em" text-anchor="middle" font-family="sans-serif" font-size="9.67741935483871" opacity="1" fill="#000000">
2019-10-26
</text>
<polyline fill="none" opacity="1" stroke="#000000" stroke-width="1" points="398,580 398,585 "/>
<text x="488" y="590" dy="0.76em" text-anchor="middle" font-family="sans-serif" font-size="9.67741935483871" opacity="1" fill="#000000">
2019-12-21
</text>
<polyline fill="none" opacity="1" stroke="#000000" stroke-width="1" points="488,580 488,585 "/>
<text x="578" y="590" dy="0.76em" text-anchor="middle" font-family="sans-serif" font-size="9.67741935483871" opacity="1" fill="#000000">
2020-02-15
</text>
<polyline fill="none" opacity="1" stroke="#000000" stroke-width="1" points="578,580 578,585 "/>
<text x="668" y="590" dy="0.76em" text-anchor="middle" font-family="sans-serif" font-size="9.67741935483871" opacity="1" fill="#000000">
2020-04-11
</text>
<polyline fill="none" opacity="1" stroke="#000000" stroke-width="1" points="668,580 668,585 "/>
<text x="757" y="590" dy="0.76em" text-anchor="middle" font-family="sans-serif" font-size="9.67741935483871" opacity="1" fill="#000000">
2020-06-06
</text>
<polyline fill="none" opacity="1" stroke="#000000" stroke-width="1" points="757,580 757,585 "/>
<text x="847" y="590" dy="0.76em" text-anchor="middle" font-family="sans-serif" font-size="9.67741935483871" opacity="1" fill="#000000">
2020-08-01
</text>
<polyline fill="none" opacity="1" stroke="#000000" stroke-width="1" points="847,580 847,585 "/>
<text x="937" y="590" dy="0.76em" text-anchor="middle" font-family="sans-serif" font-size="9.67741935483871" opacity="1" fill="#000000">
2020-09-26
</text>
<polyline fill="none" opacity="1" stroke="#000000" stroke-width="1" points="937,580 937,585 "/>
<polyline fill="none" opacity="1" stroke="#FF0000" stroke-width="1" points="40,578 40,578 47,576 48,575 166,575 170,575 172,575 176,575 179,575 187,573 243,572 243,572 445,571 457,571 485,570 499,570 512,569 513,569 534,568 549,568 557,567 628,567 630,567 631,567 638,567 640,566 641,566 642,565 644,564 646,563 649,563 650,562 652,562 654,562 656,561 658,561 660,560 662,559 664,559 665,558 668,557 669,557 670,557 671,556 673,556 675,556 676,555 678,555 680,554 682,553 684,553 686,552 687,552 690,551 690,551 693,550 694,550 695,550 697,549 700,549 700,548 703,547 704,547 706,546 708,546 710,545 711,545 714,544 716,544 718,543 719,543 721,542 723,541 725,541 726,540 728,540 730,539 731,539 733,539 736,538 738,537 739,537 741,536 742,536 744,535 746,535 747,534 749,534 750,533 752,533 754,533 755,532 757,532 759,531 762,530 763,530 765,529 766,529 768,528 770,528 771,528 773,527 774,527 776,526 778,526 780,525 781,525 782,524 784,524 786,523 787,523 789,522 791,522 792,522 794,521 795,521 797,520 799,520 800,519 802,519 804,518 805,518 807,517 808,517 810,517 811,516 813,516 815,515 816,515 818,514 819,514 821,513 823,513 824,512 826,512 827,511 829,511 831,511 832,510 834,510 835,509 837,509 839,508 840,508 842,507 843,507 845,506 847,506 848,505 850,505 851,505 853,504 855,504 856,503 858,503 859,502 861,502 863,501 864,501 866,500 867,500 869,500 871,499 872,499 874,498 877,497 879,497 880,496 883,495 885,495 887,494 888,494 890,494 891,493 895,492 896,492 898,491 899,491 901,490 903,490 906,489 907,488 909,488 911,488 912,487 914,487 917,486 919,485 920,485 922,484 923,484 925,483 928,483 930,482 932,482 933,481 935,481 936,480 938,480 940,479 941,479 943,478 947,477 "/>
</svg>
