<svg width="987" height="610" viewBox="0 0 987 610" xmlns="http://www.w3.org/2000/svg">
<line opacity="0.1" stroke="#000000" stroke-width="1" x1="40" y1="579" x2="40" y2="9"/>
<line opacity="0.1" stroke="#000000" stroke-width="1" x1="49" y1="579" x2="49" y2="9"/>
<line opacity="0.1" stroke="#000000" stroke-width="1" x1="59" y1="579" x2="59" y2="9"/>
<line opacity="0.1" stroke="#000000" stroke-width="1" x1="69" y1="579" x2="69" y2="9"/>
<line opacity="0.1" stroke="#000000" stroke-width="1" x1="79" y1="579" x2="79" y2="9"/>
<line opacity="0.1" stroke="#000000" stroke-width="1" x1="89" y1="579" x2="89" y2="9"/>
<line opacity="0.1" stroke="#000000" stroke-width="1" x1="99" y1="579" x2="99" y2="9"/>
<line opacity="0.1" stroke="#000000" stroke-width="1" x1="109" y1="579" x2="109" y2="9"/>
<line opacity="0.1" stroke="#000000" stroke-width="1" x1="119" y1="579" x2="119" y2="9"/>
<line opacity="0.1" stroke="#000000" stroke-width="1" x1="129" y1="579" x2="129" y2="9"/>
<line opacity="0.1" stroke="#000000" stroke-width="1" x1="139" y1="579" x2="139" y2="9"/>
<line opacity="0.1" stroke="#000000" stroke-width="1" x1="149" y1="579" x2="149" y2="9"/>
<line opacity="0.1" stroke="#000000" stroke-width="1" x1="159" y1="579" x2="159" y2="9"/>
<line opacity="0.1" stroke="#000000" stroke-width="1" x1="168" y1="579" x2="168" y2="9"/>
<line opacity="0.1" stroke="#000000" stroke-width="1" x1="178" y1="579" x2="178" y2="9"/>
<line opacity="0.1" stroke="#000000" stroke-width="1" x1="188" y1="579" x2="188" y2="9"/>
<line opacity="0.1" stroke="#000000" stroke-width="1" x1="198" y1="579" x2="198" y2="9"/>
<line opacity="0.1" stroke="#000000" stroke-width="1" x1="208" y1="579" x2="208" y2="9"/>
<line opacity="0.1" stroke="#000000" stroke-width="1" x1="218" y1="579" x2="218" y2="9"/>
<line opacity="0.1" stroke="#000000" stroke-width="1" x1="228" y1="579" x2="228" y2="9"/>
<line opacity="0.1" stroke="#000000" stroke-width="1" x1="238" y1="579" x2="238" y2="9"/>
<line opacity="0.1" stroke="#000000" stroke-width="1" x1="248" y1="579" x2="248" y2="9"/>
<line opacity="0.1" stroke="#000000" stroke-width="1" x1="258" y1="579" x2="258" y2="9"/>
<line opacity="0.1" stroke="#000000" stroke-width="1" x1="268" y1="579" x2="268" y2="9"/>
<line opacity="0.1" stroke="#000000" stroke-width="1" x1="278" y1="579" x2="278" y2="9"/>
<line opacity="0.1" stroke="#000000" stroke-width="1" x1="287" y1="579" x2="287" y2="9"/>
<line opacity="0.1" stroke="#000000" stroke-width="1" x1="297" y1="579" x2="297" y2="9"/>
<line opacity="0.1" stroke="#000000" stroke-width="1" x1="307" y1="579" x2="307" y2="9"/>
<line opacity="0.1" stroke="#000000" stroke-width="1" x1="317" y1="579" x2="317" y2="9"/>
<line opacity="0.1" stroke="#000000" stroke-width="1" x1="327" y1="579" x2="327" y2="9"/>
<line opacity="0.1" stroke="#000000" stroke-width="1" x1="337" y1="579" x2="337" y2="9"/>
<line opacity="0.1" stroke="#000000" stroke-width="1" x1="347" y1="579" x2="347" y2="9"/>
<line opacity="0.1" stroke="#000000" stroke-width="1" x1="357" y1="579" x2="357" y2="9"/>
<line opacity="0.1" stroke="#000000" stroke-width="1" x1="367" y1="579" x2="367" y2="9"/>
<line opacity="0.1" stroke="#000000" stroke-width="1" x1="377" y1="579" x2="377" y2="9"/>
<line opacity="0.1" stroke="#000000" stroke-width="1" x1="387" y1="579" x2="387" y2="9"/>
<line opacity="0.1" stroke="#000000" stroke-width="1" x1="397" y1="579" x2="397" y2="9"/>
<line opacity="0.1" stroke="#000000" stroke-width="1" x1="406" y1="579" x2="406" y2="9"/>
<line opacity="0.1" stroke="#000000" stroke-width="1" x1="416" y1="579" x2="416" y2="9"/>
<line opacity="0.1" stroke="#000000" stroke-width="1" x1="426" y1="579" x2="426" y2="9"/>
<line opacity="0.1" stroke="#000000" stroke-width="1" x1="436" y1="579" x2="436" y2="9"/>
<line opacity="0.1" stroke="#000000" stroke-width="1" x1="446" y1="579" x2="446" y2="9"/>
<line opacity="0.1" stroke="#000000" stroke-width="1" x1="456" y1="579" x2="456" y2="9"/>
<line opacity="0.1" stroke="#000000" stroke-width="1" x1="466" y1="579" x2="466" y2="9"/>
<line opacity="0.1" stroke="#000000" stroke-width="1" x1="476" y1="579" x2="476" y2="9"/>
<line opacity="0.1" stroke="#000000" stroke-width="1" x1="486" y1="579" x2="486" y2="9"/>
<line opacity="0.1" stroke="#000000" stroke-width="1" x1="496" y1="579" x2="496" y2="9"/>
<line opacity="0.1" stroke="#000000" stroke-width="1" x1="506" y1="579" x2="506" y2="9"/>
<line opacity="0.1" stroke="#000000" stroke-width="1" x1="516" y1="579" x2="516" y2="9"/>
<line opacity="0.1" stroke="#000000" stroke-width="1" x1="525" y1="579" x2="525" y2="9"/>
<line opacity="0.1" stroke="#000000" stroke-width="1" x1="535" y1="579" x2="535" y2="9"/>
<line opacity="0.1" stroke="#000000" stroke-width="1" x1="545" y1="579" x2="545" y2="9"/>
<line opacity="0.1" stroke="#000000" stroke-width="1" x1="555" y1="579" x2="555" y2="9"/>
<line opacity="0.1" stroke="#000000" stroke-width="1" x1="565" y1="579" x2="565" y2="9"/>
<line opacity="0.1" stroke="#000000" stroke-width="1" x1="575" y1="579" x2="575" y2="9"/>
<line opacity="0.1" stroke="#000000" stroke-width="1" x1="585" y1="579" x2="585" y2="9"/>
<line opacity="0.1" stroke="#000000" stroke-width="1" x1="595" y1="579" x2="595" y2="9"/>
<line opacity="0.1" stroke="#000000" stroke-width="1" x1="605" y1="579" x2="605" y2="9"/>
<line opacity="0.1" stroke="#000000" stroke-width="1" x1="615" y1="579" x2="615" y2="9"/>
<line opacity="0.1" stroke="#000000" stroke-width="1" x1="625" y1="579" x2="625" y2="9"/>
<line opacity="0.1" stroke="#000000" stroke-width="1" x1="635" y1="579" x2="635" y2="9"/>
<line opacity="0.1" stroke="#000000" stroke-width="1" x1="644" y1="579" x2="644" y2="9"/>
<line opacity="0.1" stroke="#000000" stroke-width="1" x1="654" y1="579" x2="654" y2="9"/>
<line opacity="0.1" stroke="#000000" stroke-width="1" x1="664" y1="579" x2="664" y2="9"/>
<line opacity="0.1" stroke="#000000" stroke-width="1" x1="674" y1="579" x2="674" y2="9"/>
<line opacity="0.1" stroke="#000000" stroke-width="1" x1="684" y1="579" x2="684" y2="9"/>
<line opacity="0.1" stroke="#000000" stroke-width="1" x1="694" y1="579" x2="694" y2="9"/>
<line opacity="0.1" stroke="#000000" stroke-width="1" x1="704" y1="579" x2="704" y2="9"/>
<line opacity="0.1" stroke="#000000" stroke-width="1" x1="714" y1="579" x2="714" y2="9"/>
<line opacity="0.1" stroke="#000000" stroke-width="1" x1="724" y1="579" x2="724" y2="9"/>
<line opacity="0.1" stroke="#000000" stroke-width="1" x1="734" y1="579" x2="734" y2="9"/>
<line opacity="0.1" stroke="#000000" stroke-width="1" x1="744" y1="579" x2="744" y2="9"/>
<line opacity="0.1" stroke="#000000" stroke-width="1" x1="754" y1="579" x2="754" y2="9"/>
<line opacity="0.1" stroke="#000000" stroke-width="1" x1="763" y1="579" x2="763" y2="9"/>
<line opacity="0.1" stroke="#000000" stroke-width="1" x1="773" y1="579" x2="773" y2="9"/>
<line opacity="0.1" stroke="#000000" stroke-width="1" x1="783" y1="579" x2="783" y2="9"/>
<line opacity="0.1" stroke="#000000" stroke-width="1" x1="793" y1="579" x2="793" y2="9"/>
<line opacity="0.1" stroke="#000000" stroke-width="1" x1="803" y1="579" x2="803" y2="9"/>
<line opacity="0.1" stroke="#000000" stroke-width="1" x1="813" y1="579" x2="813" y2="9"/>
<line opacity="0.1" stroke="#000000" stroke-width="1" x1="823" y1="579" x2="823" y2="9"/>
<line opacity="0.1" stroke="#000000" stroke-width="1" x1="833" y1="579" x2="833" y2="9"/>
<line opacity="0.1" stroke="#000000" stroke-width="1" x1="843" y1="579" x2="843" y2="9"/>
<line opacity="0.1" stroke="#000000" stroke-width="1" x1="853" y1="579" x2="853" y2="9"/>
<line opacity="0.1" stroke="#000000" stroke-width="1" x1="863" y1="579" x2="863" y2="9"/>
<line opacity="0.1" stroke="#000000" stroke-width="1" x1="873" y1="579" x2="873" y2="9"/>
<line opacity="0.1" stroke="#000000" stroke-width="1" x1="882" y1="579" x2="882" y2="9"/>
<line opacity="0.1" stroke="#000000" stroke-width="1" x1="892" y1="579" x2="892" y2="9"/>
<line opacity="0.1" stroke="#000000" stroke-width="1" x1="902" y1="579" x2="902" y2="9"/>
<line opacity="0.1" stroke="#000000" stroke-width="1" x1="912" y1="579" x2="912" y2="9"/>
<line opacity="0.1" stroke="#000000" stroke-width="1" x1="922" y1="579" x2="922" y2="9"/>
<line opacity="0.1" stroke="#000000" stroke-width="1" x1="932" y1="579" x2="932" y2="9"/>
<line opacity="0.1" stroke="#000000" stroke-width="1" x1="942" y1="579" x2="942" y2="9"/>
<line opacity="0.1" stroke="#000000" stroke-width="1" x1="40" y1="567" x2="947" y2="567"/>
<line opacity="0.1" stroke="#000000" stroke-width="1" x1="40" y1="556" x2="947" y2="556"/>
<line opacity="0.1" stroke="#000000" stroke-width="1" x1="40" y1="545" x2="947" y2="545"/>
<line opacity="0.1" stroke="#000000" stroke-width="1" x1="40" y1="533" x2="947" y2="533"/>
<line opacity="0.1" stroke="#000000" stroke-width="1" x1="40" y1="522" x2="947" y2="522"/>
<line opacity="0.1" stroke="#000000" stroke-width="1" x1="40" y1="511" x2="947" y2="511"/>
<line opacity="0.1" stroke="#000000" stroke-width="1" x1="40" y1="499" x2="947" y2="499"/>
<line opacity="0.1" stroke="#000000" stroke-width="1" x1="40" y1="488" x2="947" y2="488"/>
<line opacity="0.1" stroke="#000000" stroke-width="1" x1="40" y1="477" x2="947" y2="477"/>
<line opacity="0.1" stroke="#000000" stroke-width="1" x1="40" y1="466" x2="947" y2="466"/>
<line opacity="0.1" stroke="#000000" stroke-width="1" x1="40" y1="454" x2="947" y2="454"/>
<line opacity="0.1" stroke="#000000" stroke-width="1" x1="40" y1="443" x2="947" y2="443"/>
<line opacity="0.1" stroke="#000000" stroke-width="1" x1="40" y1="432" x2="947" y2="432"/>
<line opacity="0.1" stroke="#000000" stroke-width="1" x1="40" y1="420" x2="947" y2="420"/>
<line opacity="0.1" stroke="#000000" stroke-width="1" x1="40" y1="409" x2="947" y2="409"/>
<line opacity="0.1" stroke="#000000" stroke-width="1" x1="40" y1="398" x2="947" y2="398"/>
<line opacity="0.1" stroke="#000000" stroke-width="1" x1="40" y1="387" x2="947" y2="387"/>
<line opacity="0.1" stroke="#000000" stroke-width="1" x1="40" y1="375" x2="947" y2="375"/>
<line opacity="0.1" stroke="#000000" stroke-width="1" x1="40" y1="364" x2="947" y2="364"/>
<line opacity="0.1" stroke="#000000" stroke-width="1" x1="40" y1="353" x2="947" y2="353"/>
<line opacity="0.1" stroke="#000000" stroke-width="1" x1="40" y1="341" x2="947" y2="341"/>
<line opacity="0.1" stroke="#000000" stroke-width="1" x1="40" y1="330" x2="947" y2="330"/>
<line opacity="0.1" stroke="#000000" stroke-width="1" x1="40" y1="319" x2="947" y2="319"/>
<line opacity="0.1" stroke="#000000" stroke-width="1" x1="40" y1="308" x2="947" y2="308"/>
<line opacity="0.1" stroke="#000000" stroke-width="1" x1="40" y1="296" x2="947" y2="296"/>
<line opacity="0.1" stroke="#000000" stroke-width="1" x1="40" y1="285" x2="947" y2="285"/>
<line opacity="0.1" stroke="#000000" stroke-width="1" x1="40" y1="274" x2="947" y2="274"/>
<line opacity="0.1" stroke="#000000" stroke-width="1" x1="40" y1="262" x2="947" y2="262"/>
<line opacity="0.1" stroke="#000000" stroke-width="1" x1="40" y1="251" x2="947" y2="251"/>
<line opacity="0.1" stroke="#000000" stroke-width="1" x1="40" y1="240" x2="947" y2="240"/>
<line opacity="0.1" stroke="#000000" stroke-width="1" x1="40" y1="229" x2="947" y2="229"/>
<line opacity="0.1" stroke="#000000" stroke-width="1" x1="40" y1="217" x2="947" y2="217"/>
<line opacity="0.1" stroke="#000000" stroke-width="1" x1="40" y1="206" x2="947" y2="206"/>
<line opacity="0.1" stroke="#000000" stroke-width="1" x1="40" y1="195" x2="947" y2="195"/>
<line opacity="0.1" stroke="#000000" stroke-width="1" x1="40" y1="183" x2="947" y2="183"/>
<line opacity="0.1" stroke="#000000" stroke-width="1" x1="40" y1="172" x2="947" y2="172"/>
<line opacity="0.1" stroke="#000000" stroke-width="1" x1="40" y1="161" x2="947" y2="161"/>
<line opacity="0.1" stroke="#000000" stroke-width="1" x1="40" y1="150" x2="947" y2="150"/>
<line opacity="0.1" stroke="#000000" stroke-width="1" x1="40" y1="138" x2="947" y2="138"/>
<line opacity="0.1" stroke="#000000" stroke-width="1" x1="40" y1="127" x2="947" y2="127"/>
<line opacity="0.1" stroke="#000000" stroke-width="1" x1="40" y1="116" x2="947" y2="116"/>
<line opacity="0.1" stroke="#000000" stroke-width="1" x1="40" y1="104" x2="947" y2="104"/>
<line opacity="0.1" stroke="#000000" stroke-width="1" x1="40" y1="93" x2="947" y2="93"/>
<line opacity="0.1" stroke="#000000" stroke-width="1" x1="40" y1="82" x2="947" y2="82"/>
<line opacity="0.1" stroke="#000000" stroke-width="1" x1="40" y1="71" x2="947" y2="71"/>
<line opacity="0.1" stroke="#000000" stroke-width="1" x1="40" y1="59" x2="947" y2="59"/>
<line opacity="0.1" stroke="#000000" stroke-width="1" x1="40" y1="48" x2="947" y2="48"/>
<line opacity="0.1" stroke="#000000" stroke-width="1" x1="40" y1="37" x2="947" y2="37"/>
<line opacity="0.1" stroke="#000000" stroke-width="1" x1="40" y1="25" x2="947" y2="25"/>
<line opacity="0.1" stroke="#000000" stroke-width="1" x1="40" y1="14" x2="947" y2="14"/>
<line opacity="0.2" stroke="#000000" stroke-width="1" x1="40" y1="579" x2="40" y2="9"/>
<line opacity="0.2" stroke="#000000" stroke-width="1" x1="139" y1="579" x2="139" y2="9"/>
<line opacity="0.2" stroke="#000000" stroke-width="1" x1="238" y1="579" x2="238" y2="9"/>
<line opacity="0.2" stroke="#000000" stroke-width="1" x1="337" y1="579" x2="337" y2="9"/>
<line opacity="0.2" stroke="#000000" stroke-width="1" x1="436" y1="579" x2="436" y2="9"/>
<line opacity="0.2" stroke="#000000" stroke-width="1" x1="535" y1="579" x2="535" y2="9"/>
<line opacity="0.2" stroke="#000000" stroke-width="1" x1="635" y1="579" x2="635" y2="9"/>
<line opacity="0.2" stroke="#000000" stroke-width="1" x1="734" y1="579" x2="734" y2="9"/>
<line opacity="0.2" stroke="#000000" stroke-width="1" x1="833" y1="579" x2="833" y2="9"/>
<line opacity="0.2" stroke="#000000" stroke-width="1" x1="932" y1="579" x2="932" y2="9"/>
<line opacity="0.2" stroke="#000000" stroke-width="1" x1="40" y1="522" x2="947" y2="522"/>
<line opacity="0.2" stroke="#000000" stroke-width="1" x1="40" y1="466" x2="947" y2="466"/>
<line opacity="0.2" stroke="#000000" stroke-width="1" x1="40" y1="409" x2="947" y2="409"/>
<line opacity="0.2" stroke="#000000" stroke-width="1" x1="40" y1="353" x2="947" y2="353"/>
<line opacity="0.2" stroke="#000000" stroke-width="1" x1="40" y1="296" x2="947" y2="296"/>
<line opacity="0.2" stroke="#000000" stroke-width="1" x1="40" y1="240" x2="947" y2="240"/>
<line opacity="0.2" stroke="#000000" stroke-width="1" x1="40" y1="183" x2="947" y2="183"/>
<line opacity="0.2" stroke="#000000" stroke-width="1" x1="40" y1="127" x2="947" y2="127"/>
<line opacity="0.2" stroke="#000000" stroke-width="1" x1="40" y1="71" x2="947" y2="71"/>
<line opacity="0.2" stroke="#000000" stroke-width="1" x1="40" y1="14" x2="947" y2="14"/>
<polyline fill="none" opacity="1" stroke="#000000" stroke-width="1" points="39,10 39,580 "/>
<text x="30" y="522" dy="0.5ex" text-anchor="end" font-family="sans-serif" font-size="9.67741935483871" opacity="1" fill="#000000">
10%
</text>
<polyline fill="none" opacity="1" stroke="#000000" stroke-width="1" points="34,522 39,522 "/>
<text x="30" y="466" dy="0.5ex" text-anchor="end" font-family="sans-serif" font-size="9.67741935483871" opacity="1" fill="#000000">
20%
</text>
<polyline fill="none" opacity="1" stroke="#000000" stroke-width="1" points="34,466 39,466 "/>
<text x="30" y="409" dy="0.5ex" text-anchor="end" font-family="sans-serif" font-size="9.67741935483871" opacity="1" fill="#000000">
30%
</text>
<polyline fill="none" opacity="1" stroke="#000000" stroke-width="1" points="34,409 39,409 "/>
<text x="30" y="353" dy="0.5ex" text-anchor="end" font-family="sans-serif" font-size="9.67741935483871" opacity="1" fill="#000000">
40%
</text>
<polyline fill="none" opacity="1" stroke="#000000" stroke-width="1" points="34,353 39,353 "/>
<text x="30" y="296" dy="0.5ex" text-anchor="end" font-family="sans-serif" font-size="9.67741935483871" opacity="1" fill="#000000">
50%
</text>
<polyline fill="none" opacity="1" stroke="#000000" stroke-width="1" points="34,296 39,296 "/>
<text x="30" y="240" dy="0.5ex" text-anchor="end" font-family="sans-serif" font-size="9.67741935483871" opacity="1" fill="#000000">
60%
</text>
<polyline fill="none" opacity="1" stroke="#000000" stroke-width="1" points="34,240 39,240 "/>
<text x="30" y="183" dy="0.5ex" text-anchor="end" font-family="sans-serif" font-size="9.67741935483871" opacity="1" fill="#000000">
70%
</text>
<polyline fill="none" opacity="1" stroke="#000000" stroke-width="1" points="34,183 39,183 "/>
<text x="30" y="127" dy="0.5ex" text-anchor="end" font-family="sans-serif" font-size="9.67741935483871" opacity="1" fill="#000000">
80%
</text>
<polyline fill="none" opacity="1" stroke="#000000" stroke-width="1" points="34,127 39,127 "/>
<text x="30" y="71" dy="0.5ex" text-anchor="end" font-family="sans-serif" font-size="9.67741935483871" opacity="1" fill="#000000">
90%
</text>
<polyline fill="none" opacity="1" stroke="#000000" stroke-width="1" points="34,71 39,71 "/>
<text x="30" y="14" dy="0.5ex" text-anchor="end" font-family="sans-serif" font-size="9.67741935483871" opacity="1" fill="#000000">
100%
</text>
<polyline fill="none" opacity="1" stroke="#000000" stroke-width="1" points="34,14 39,14 "/>
<polyline fill="none" opacity="1" stroke="#000000" stroke-width="1" points="40,580 947,580 "/>
<text x="40" y="590" dy="0.76em" text-anchor="middle" font-family="sans-serif" font-size="9.67741935483871" opacity="1" fill="#000000">
2019-03-16
</text>
<polyline fill="none" opacity="1" stroke="#000000" stroke-width="1" points="40,580 40,585 "/>
<text x="139" y="590" dy="0.76em" text-anchor="middle" font-family="sans-serif" font-size="9.67741935483871" opacity="1" fill="#000000">
2019-05-25
</text>
<polyline fill="none" opacity="1" stroke="#000000" stroke-width="1" points="139,580 139,585 "/>
<text x="238" y="590" dy="0.76em" text-anchor="middle" font-family="sans-serif" font-size="9.67741935483871" opacity="1" fill="#000000">
2019-08-03
</text>
<polyline fill="none" opacity="1" stroke="#000000" stroke-width="1" points="238,580 238,585 "/>
<text x="337" y="590" dy="0.76em" text-anchor="middle" font-family="sans-serif" font-size="9.67741935483871" opacity="1" fill="#000000">
2019-10-12
</text>
<polyline fill="none" opacity="1" stroke="#000000" stroke-width="1" points="337,580 337,585 "/>
<text x="436" y="590" dy="0.76em" text-anchor="middle" font-family="sans-serif" font-size="9.67741935483871" opacity="1" fill="#000000">
2019-12-21
</text>
<polyline fill="none" opacity="1" stroke="#000000" stroke-width="1" points="436,580 436,585 "/>
<text x="535" y="590" dy="0.76em" text-anchor="middle" font-family="sans-serif" font-size="9.67741935483871" opacity="1" fill="#000000">
2020-02-29
</text>
<polyline fill="none" opacity="1" stroke="#000000" stroke-width="1" points="535,580 535,585 "/>
<text x="635" y="590" dy="0.76em" text-anchor="middle" font-family="sans-serif" font-size="9.67741935483871" opacity="1" fill="#000000">
2020-05-09
</text>
<polyline fill="none" opacity="1" stroke="#000000" stroke-width="1" points="635,580 635,585 "/>
<text x="734" y="590" dy="0.76em" text-anchor="middle" font-family="sans-serif" font-size="9.67741935483871" opacity="1" fill="#000000">
2020-07-18
</text>
<polyline fill="none" opacity="1" stroke="#000000" stroke-width="1" points="734,580 734,585 "/>
<text x="833" y="590" dy="0.76em" text-anchor="middle" font-family="sans-serif" font-size="9.67741935483871" opacity="1" fill="#000000">
2020-09-26
</text>
<polyline fill="none" opacity="1" stroke="#000000" stroke-width="1" points="833,580 833,585 "/>
<text x="932" y="590" dy="0.76em" text-anchor="middle" font-family="sans-serif" font-size="9.67741935483871" opacity="1" fill="#000000">
2020-12-05
</text>
<polyline fill="none" opacity="1" stroke="#000000" stroke-width="1" points="932,580 932,585 "/>
<polyline fill="none" opacity="1" stroke="#FF0000" stroke-width="1" points="40,578 40,578 46,576 47,575 152,575 155,575 157,575 160,575 163,575 170,574 219,572 220,572 398,572 408,571 434,571 446,570 457,570 458,569 476,569 490,569 497,568 560,568 561,568 563,568 569,567 570,567 571,566 573,566 574,565 576,564 578,564 580,563 581,563 582,562 585,561 586,561 588,561 590,560 592,560 592,559 595,558 596,558 597,558 598,558 599,557 601,557 602,556 604,556 606,555 608,554 609,554 611,554 612,553 614,552 615,552 617,551 618,551 619,551 621,551 623,550 623,550 626,549 627,548 629,548 631,548 632,547 633,547 636,546 638,545 639,545 640,544 642,544 644,543 645,543 647,542 648,542 650,541 651,541 652,541 655,540 657,539 658,539 660,538 661,538 662,537 664,537 665,537 667,536 668,536 669,535 671,535 672,534 674,534 675,534 678,533 679,532 681,532 682,531 683,531 685,530 686,530 688,530 689,529 691,529 692,528 694,528 695,527 696,527 698,527 699,526 701,526 702,525 704,525 705,524 706,524 708,524 709,523 711,523 712,522 713,522 715,521 716,521 718,520 719,520 720,520 722,519 723,519 725,518 726,518 728,517 729,517 730,517 732,516 733,516 735,515 736,515 737,514 739,514 740,513 742,513 743,513 745,512 746,512 747,511 749,511 750,510 752,510 753,510 754,509 756,509 757,508 759,508 760,507 762,507 763,506 764,506 766,506 767,505 769,505 770,504 771,504 773,503 774,503 776,503 777,502 780,501 781,501 783,500 786,499 787,499 788,499 790,498 791,498 793,497 796,496 797,496 798,496 800,495 801,495 803,494 805,493 807,493 808,493 810,492 811,492 813,491 815,490 817,490 818,489 820,489 821,489 822,488 825,487 827,487 828,486 830,486 831,486 832,485 834,485 835,484 837,484 838,483 841,482 842,482 844,482 846,481 847,481 848,480 850,480 851,479 852,479 854,479 855,478 856,478 858,477 859,477 861,476 862,476 865,475 866,475 868,474 869,474 871,473 872,473 874,472 875,472 876,472 878,471 879,471 881,470 882,470 883,469 885,469 886,469 888,468 889,468 890,467 892,467 893,466 895,466 896,465 898,465 899,465 900,464 902,464 903,463 905,463 906,462 907,462 909,462 910,461 912,461 913,460 915,460 916,459 917,459 919,458 920,458 922,458 923,457 924,457 926,456 927,456 929,455 930,455 932,455 933,454 934,454 936,453 937,453 939,452 940,452 941,451 943,451 944,451 946,450 947,450 "/>
</svg>
