<svg width="987" height="610" viewBox="0 0 987 610" xmlns="http://www.w3.org/2000/svg">
<line opacity="0.1" stroke="#000000" stroke-width="1" x1="40" y1="579" x2="40" y2="9"/>
<line opacity="0.1" stroke="#000000" stroke-width="1" x1="50" y1="579" x2="50" y2="9"/>
<line opacity="0.1" stroke="#000000" stroke-width="1" x1="60" y1="579" x2="60" y2="9"/>
<line opacity="0.1" stroke="#000000" stroke-width="1" x1="71" y1="579" x2="71" y2="9"/>
<line opacity="0.1" stroke="#000000" stroke-width="1" x1="81" y1="579" x2="81" y2="9"/>
<line opacity="0.1" stroke="#000000" stroke-width="1" x1="91" y1="579" x2="91" y2="9"/>
<line opacity="0.1" stroke="#000000" stroke-width="1" x1="102" y1="579" x2="102" y2="9"/>
<line opacity="0.1" stroke="#000000" stroke-width="1" x1="112" y1="579" x2="112" y2="9"/>
<line opacity="0.1" stroke="#000000" stroke-width="1" x1="122" y1="579" x2="122" y2="9"/>
<line opacity="0.1" stroke="#000000" stroke-width="1" x1="133" y1="579" x2="133" y2="9"/>
<line opacity="0.1" stroke="#000000" stroke-width="1" x1="143" y1="579" x2="143" y2="9"/>
<line opacity="0.1" stroke="#000000" stroke-width="1" x1="154" y1="579" x2="154" y2="9"/>
<line opacity="0.1" stroke="#000000" stroke-width="1" x1="164" y1="579" x2="164" y2="9"/>
<line opacity="0.1" stroke="#000000" stroke-width="1" x1="174" y1="579" x2="174" y2="9"/>
<line opacity="0.1" stroke="#000000" stroke-width="1" x1="185" y1="579" x2="185" y2="9"/>
<line opacity="0.1" stroke="#000000" stroke-width="1" x1="195" y1="579" x2="195" y2="9"/>
<line opacity="0.1" stroke="#000000" stroke-width="1" x1="205" y1="579" x2="205" y2="9"/>
<line opacity="0.1" stroke="#000000" stroke-width="1" x1="216" y1="579" x2="216" y2="9"/>
<line opacity="0.1" stroke="#000000" stroke-width="1" x1="226" y1="579" x2="226" y2="9"/>
<line opacity="0.1" stroke="#000000" stroke-width="1" x1="236" y1="579" x2="236" y2="9"/>
<line opacity="0.1" stroke="#000000" stroke-width="1" x1="247" y1="579" x2="247" y2="9"/>
<line opacity="0.1" stroke="#000000" stroke-width="1" x1="257" y1="579" x2="257" y2="9"/>
<line opacity="0.1" stroke="#000000" stroke-width="1" x1="268" y1="579" x2="268" y2="9"/>
<line opacity="0.1" stroke="#000000" stroke-width="1" x1="278" y1="579" x2="278" y2="9"/>
<line opacity="0.1" stroke="#000000" stroke-width="1" x1="288" y1="579" x2="288" y2="9"/>
<line opacity="0.1" stroke="#000000" stroke-width="1" x1="299" y1="579" x2="299" y2="9"/>
<line opacity="0.1" stroke="#000000" stroke-width="1" x1="309" y1="579" x2="309" y2="9"/>
<line opacity="0.1" stroke="#000000" stroke-width="1" x1="319" y1="579" x2="319" y2="9"/>
<line opacity="0.1" stroke="#000000" stroke-width="1" x1="330" y1="579" x2="330" y2="9"/>
<line opacity="0.1" stroke="#000000" stroke-width="1" x1="340" y1="579" x2="340" y2="9"/>
<line opacity="0.1" stroke="#000000" stroke-width="1" x1="350" y1="579" x2="350" y2="9"/>
<line opacity="0.1" stroke="#000000" stroke-width="1" x1="361" y1="579" x2="361" y2="9"/>
<line opacity="0.1" stroke="#000000" stroke-width="1" x1="371" y1="579" x2="371" y2="9"/>
<line opacity="0.1" stroke="#000000" stroke-width="1" x1="382" y1="579" x2="382" y2="9"/>
<line opacity="0.1" stroke="#000000" stroke-width="1" x1="392" y1="579" x2="392" y2="9"/>
<line opacity="0.1" stroke="#000000" stroke-width="1" x1="402" y1="579" x2="402" y2="9"/>
<line opacity="0.1" stroke="#000000" stroke-width="1" x1="413" y1="579" x2="413" y2="9"/>
<line opacity="0.1" stroke="#000000" stroke-width="1" x1="423" y1="579" x2="423" y2="9"/>
<line opacity="0.1" stroke="#000000" stroke-width="1" x1="433" y1="579" x2="433" y2="9"/>
<line opacity="0.1" stroke="#000000" stroke-width="1" x1="444" y1="579" x2="444" y2="9"/>
<line opacity="0.1" stroke="#000000" stroke-width="1" x1="454" y1="579" x2="454" y2="9"/>
<line opacity="0.1" stroke="#000000" stroke-width="1" x1="464" y1="579" x2="464" y2="9"/>
<line opacity="0.1" stroke="#000000" stroke-width="1" x1="475" y1="579" x2="475" y2="9"/>
<line opacity="0.1" stroke="#000000" stroke-width="1" x1="485" y1="579" x2="485" y2="9"/>
<line opacity="0.1" stroke="#000000" stroke-width="1" x1="495" y1="579" x2="495" y2="9"/>
<line opacity="0.1" stroke="#000000" stroke-width="1" x1="506" y1="579" x2="506" y2="9"/>
<line opacity="0.1" stroke="#000000" stroke-width="1" x1="516" y1="579" x2="516" y2="9"/>
<line opacity="0.1" stroke="#000000" stroke-width="1" x1="527" y1="579" x2="527" y2="9"/>
<line opacity="0.1" stroke="#000000" stroke-width="1" x1="537" y1="579" x2="537" y2="9"/>
<line opacity="0.1" stroke="#000000" stroke-width="1" x1="547" y1="579" x2="547" y2="9"/>
<line opacity="0.1" stroke="#000000" stroke-width="1" x1="558" y1="579" x2="558" y2="9"/>
<line opacity="0.1" stroke="#000000" stroke-width="1" x1="568" y1="579" x2="568" y2="9"/>
<line opacity="0.1" stroke="#000000" stroke-width="1" x1="578" y1="579" x2="578" y2="9"/>
<line opacity="0.1" stroke="#000000" stroke-width="1" x1="589" y1="579" x2="589" y2="9"/>
<line opacity="0.1" stroke="#000000" stroke-width="1" x1="599" y1="579" x2="599" y2="9"/>
<line opacity="0.1" stroke="#000000" stroke-width="1" x1="609" y1="579" x2="609" y2="9"/>
<line opacity="0.1" stroke="#000000" stroke-width="1" x1="620" y1="579" x2="620" y2="9"/>
<line opacity="0.1" stroke="#000000" stroke-width="1" x1="630" y1="579" x2="630" y2="9"/>
<line opacity="0.1" stroke="#000000" stroke-width="1" x1="641" y1="579" x2="641" y2="9"/>
<line opacity="0.1" stroke="#000000" stroke-width="1" x1="651" y1="579" x2="651" y2="9"/>
<line opacity="0.1" stroke="#000000" stroke-width="1" x1="661" y1="579" x2="661" y2="9"/>
<line opacity="0.1" stroke="#000000" stroke-width="1" x1="672" y1="579" x2="672" y2="9"/>
<line opacity="0.1" stroke="#000000" stroke-width="1" x1="682" y1="579" x2="682" y2="9"/>
<line opacity="0.1" stroke="#000000" stroke-width="1" x1="692" y1="579" x2="692" y2="9"/>
<line opacity="0.1" stroke="#000000" stroke-width="1" x1="703" y1="579" x2="703" y2="9"/>
<line opacity="0.1" stroke="#000000" stroke-width="1" x1="713" y1="579" x2="713" y2="9"/>
<line opacity="0.1" stroke="#000000" stroke-width="1" x1="723" y1="579" x2="723" y2="9"/>
<line opacity="0.1" stroke="#000000" stroke-width="1" x1="734" y1="579" x2="734" y2="9"/>
<line opacity="0.1" stroke="#000000" stroke-width="1" x1="744" y1="579" x2="744" y2="9"/>
<line opacity="0.1" stroke="#000000" stroke-width="1" x1="755" y1="579" x2="755" y2="9"/>
<line opacity="0.1" stroke="#000000" stroke-width="1" x1="765" y1="579" x2="765" y2="9"/>
<line opacity="0.1" stroke="#000000" stroke-width="1" x1="775" y1="579" x2="775" y2="9"/>
<line opacity="0.1" stroke="#000000" stroke-width="1" x1="786" y1="579" x2="786" y2="9"/>
<line opacity="0.1" stroke="#000000" stroke-width="1" x1="796" y1="579" x2="796" y2="9"/>
<line opacity="0.1" stroke="#000000" stroke-width="1" x1="806" y1="579" x2="806" y2="9"/>
<line opacity="0.1" stroke="#000000" stroke-width="1" x1="817" y1="579" x2="817" y2="9"/>
<line opacity="0.1" stroke="#000000" stroke-width="1" x1="827" y1="579" x2="827" y2="9"/>
<line opacity="0.1" stroke="#000000" stroke-width="1" x1="837" y1="579" x2="837" y2="9"/>
<line opacity="0.1" stroke="#000000" stroke-width="1" x1="848" y1="579" x2="848" y2="9"/>
<line opacity="0.1" stroke="#000000" stroke-width="1" x1="858" y1="579" x2="858" y2="9"/>
<line opacity="0.1" stroke="#000000" stroke-width="1" x1="869" y1="579" x2="869" y2="9"/>
<line opacity="0.1" stroke="#000000" stroke-width="1" x1="879" y1="579" x2="879" y2="9"/>
<line opacity="0.1" stroke="#000000" stroke-width="1" x1="889" y1="579" x2="889" y2="9"/>
<line opacity="0.1" stroke="#000000" stroke-width="1" x1="900" y1="579" x2="900" y2="9"/>
<line opacity="0.1" stroke="#000000" stroke-width="1" x1="910" y1="579" x2="910" y2="9"/>
<line opacity="0.1" stroke="#000000" stroke-width="1" x1="920" y1="579" x2="920" y2="9"/>
<line opacity="0.1" stroke="#000000" stroke-width="1" x1="931" y1="579" x2="931" y2="9"/>
<line opacity="0.1" stroke="#000000" stroke-width="1" x1="941" y1="579" x2="941" y2="9"/>
<line opacity="0.1" stroke="#000000" stroke-width="1" x1="40" y1="567" x2="947" y2="567"/>
<line opacity="0.1" stroke="#000000" stroke-width="1" x1="40" y1="556" x2="947" y2="556"/>
<line opacity="0.1" stroke="#000000" stroke-width="1" x1="40" y1="545" x2="947" y2="545"/>
<line opacity="0.1" stroke="#000000" stroke-width="1" x1="40" y1="533" x2="947" y2="533"/>
<line opacity="0.1" stroke="#000000" stroke-width="1" x1="40" y1="522" x2="947" y2="522"/>
<line opacity="0.1" stroke="#000000" stroke-width="1" x1="40" y1="511" x2="947" y2="511"/>
<line opacity="0.1" stroke="#000000" stroke-width="1" x1="40" y1="499" x2="947" y2="499"/>
<line opacity="0.1" stroke="#000000" stroke-width="1" x1="40" y1="488" x2="947" y2="488"/>
<line opacity="0.1" stroke="#000000" stroke-width="1" x1="40" y1="477" x2="947" y2="477"/>
<line opacity="0.1" stroke="#000000" stroke-width="1" x1="40" y1="466" x2="947" y2="466"/>
<line opacity="0.1" stroke="#000000" stroke-width="1" x1="40" y1="454" x2="947" y2="454"/>
<line opacity="0.1" stroke="#000000" stroke-width="1" x1="40" y1="443" x2="947" y2="443"/>
<line opacity="0.1" stroke="#000000" stroke-width="1" x1="40" y1="432" x2="947" y2="432"/>
<line opacity="0.1" stroke="#000000" stroke-width="1" x1="40" y1="420" x2="947" y2="420"/>
<line opacity="0.1" stroke="#000000" stroke-width="1" x1="40" y1="409" x2="947" y2="409"/>
<line opacity="0.1" stroke="#000000" stroke-width="1" x1="40" y1="398" x2="947" y2="398"/>
<line opacity="0.1" stroke="#000000" stroke-width="1" x1="40" y1="387" x2="947" y2="387"/>
<line opacity="0.1" stroke="#000000" stroke-width="1" x1="40" y1="375" x2="947" y2="375"/>
<line opacity="0.1" stroke="#000000" stroke-width="1" x1="40" y1="364" x2="947" y2="364"/>
<line opacity="0.1" stroke="#000000" stroke-width="1" x1="40" y1="353" x2="947" y2="353"/>
<line opacity="0.1" stroke="#000000" stroke-width="1" x1="40" y1="341" x2="947" y2="341"/>
<line opacity="0.1" stroke="#000000" stroke-width="1" x1="40" y1="330" x2="947" y2="330"/>
<line opacity="0.1" stroke="#000000" stroke-width="1" x1="40" y1="319" x2="947" y2="319"/>
<line opacity="0.1" stroke="#000000" stroke-width="1" x1="40" y1="308" x2="947" y2="308"/>
<line opacity="0.1" stroke="#000000" stroke-width="1" x1="40" y1="296" x2="947" y2="296"/>
<line opacity="0.1" stroke="#000000" stroke-width="1" x1="40" y1="285" x2="947" y2="285"/>
<line opacity="0.1" stroke="#000000" stroke-width="1" x1="40" y1="274" x2="947" y2="274"/>
<line opacity="0.1" stroke="#000000" stroke-width="1" x1="40" y1="262" x2="947" y2="262"/>
<line opacity="0.1" stroke="#000000" stroke-width="1" x1="40" y1="251" x2="947" y2="251"/>
<line opacity="0.1" stroke="#000000" stroke-width="1" x1="40" y1="240" x2="947" y2="240"/>
<line opacity="0.1" stroke="#000000" stroke-width="1" x1="40" y1="229" x2="947" y2="229"/>
<line opacity="0.1" stroke="#000000" stroke-width="1" x1="40" y1="217" x2="947" y2="217"/>
<line opacity="0.1" stroke="#000000" stroke-width="1" x1="40" y1="206" x2="947" y2="206"/>
<line opacity="0.1" stroke="#000000" stroke-width="1" x1="40" y1="195" x2="947" y2="195"/>
<line opacity="0.1" stroke="#000000" stroke-width="1" x1="40" y1="183" x2="947" y2="183"/>
<line opacity="0.1" stroke="#000000" stroke-width="1" x1="40" y1="172" x2="947" y2="172"/>
<line opacity="0.1" stroke="#000000" stroke-width="1" x1="40" y1="161" x2="947" y2="161"/>
<line opacity="0.1" stroke="#000000" stroke-width="1" x1="40" y1="150" x2="947" y2="150"/>
<line opacity="0.1" stroke="#000000" stroke-width="1" x1="40" y1="138" x2="947" y2="138"/>
<line opacity="0.1" stroke="#000000" stroke-width="1" x1="40" y1="127" x2="947" y2="127"/>
<line opacity="0.1" stroke="#000000" stroke-width="1" x1="40" y1="116" x2="947" y2="116"/>
<line opacity="0.1" stroke="#000000" stroke-width="1" x1="40" y1="104" x2="947" y2="104"/>
<line opacity="0.1" stroke="#000000" stroke-width="1" x1="40" y1="93" x2="947" y2="93"/>
<line opacity="0.1" stroke="#000000" stroke-width="1" x1="40" y1="82" x2="947" y2="82"/>
<line opacity="0.1" stroke="#000000" stroke-width="1" x1="40" y1="71" x2="947" y2="71"/>
<line opacity="0.1" stroke="#000000" stroke-width="1" x1="40" y1="59" x2="947" y2="59"/>
<line opacity="0.1" stroke="#000000" stroke-width="1" x1="40" y1="48" x2="947" y2="48"/>
<line opacity="0.1" stroke="#000000" stroke-width="1" x1="40" y1="37" x2="947" y2="37"/>
<line opacity="0.1" stroke="#000000" stroke-width="1" x1="40" y1="25" x2="947" y2="25"/>
<line opacity="0.1" stroke="#000000" stroke-width="1" x1="40" y1="14" x2="947" y2="14"/>
<line opacity="0.2" stroke="#000000" stroke-width="1" x1="40" y1="579" x2="40" y2="9"/>
<line opacity="0.2" stroke="#000000" stroke-width="1" x1="133" y1="579" x2="133" y2="9"/>
<line opacity="0.2" stroke="#000000" stroke-width="1" x1="226" y1="579" x2="226" y2="9"/>
<line opacity="0.2" stroke="#000000" stroke-width="1" x1="319" y1="579" x2="319" y2="9"/>
<line opacity="0.2" stroke="#000000" stroke-width="1" x1="413" y1="579" x2="413" y2="9"/>
<line opacity="0.2" stroke="#000000" stroke-width="1" x1="506" y1="579" x2="506" y2="9"/>
<line opacity="0.2" stroke="#000000" stroke-width="1" x1="599" y1="579" x2="599" y2="9"/>
<line opacity="0.2" stroke="#000000" stroke-width="1" x1="692" y1="579" x2="692" y2="9"/>
<line opacity="0.2" stroke="#000000" stroke-width="1" x1="786" y1="579" x2="786" y2="9"/>
<line opacity="0.2" stroke="#000000" stroke-width="1" x1="879" y1="579" x2="879" y2="9"/>
<line opacity="0.2" stroke="#000000" stroke-width="1" x1="40" y1="522" x2="947" y2="522"/>
<line opacity="0.2" stroke="#000000" stroke-width="1" x1="40" y1="466" x2="947" y2="466"/>
<line opacity="0.2" stroke="#000000" stroke-width="1" x1="40" y1="409" x2="947" y2="409"/>
<line opacity="0.2" stroke="#000000" stroke-width="1" x1="40" y1="353" x2="947" y2="353"/>
<line opacity="0.2" stroke="#000000" stroke-width="1" x1="40" y1="296" x2="947" y2="296"/>
<line opacity="0.2" stroke="#000000" stroke-width="1" x1="40" y1="240" x2="947" y2="240"/>
<line opacity="0.2" stroke="#000000" stroke-width="1" x1="40" y1="183" x2="947" y2="183"/>
<line opacity="0.2" stroke="#000000" stroke-width="1" x1="40" y1="127" x2="947" y2="127"/>
<line opacity="0.2" stroke="#000000" stroke-width="1" x1="40" y1="71" x2="947" y2="71"/>
<line opacity="0.2" stroke="#000000" stroke-width="1" x1="40" y1="14" x2="947" y2="14"/>
<polyline fill="none" opacity="1" stroke="#000000" stroke-width="1" points="39,10 39,580 "/>
<text x="30" y="522" dy="0.5ex" text-anchor="end" font-family="sans-serif" font-size="9.67741935483871" opacity="1" fill="#000000">
10%
</text>
<polyline fill="none" opacity="1" stroke="#000000" stroke-width="1" points="34,522 39,522 "/>
<text x="30" y="466" dy="0.5ex" text-anchor="end" font-family="sans-serif" font-size="9.67741935483871" opacity="1" fill="#000000">
20%
</text>
<polyline fill="none" opacity="1" stroke="#000000" stroke-width="1" points="34,466 39,466 "/>
<text x="30" y="409" dy="0.5ex" text-anchor="end" font-family="sans-serif" font-size="9.67741935483871" opacity="1" fill="#000000">
30%
</text>
<polyline fill="none" opacity="1" stroke="#000000" stroke-width="1" points="34,409 39,409 "/>
<text x="30" y="353" dy="0.5ex" text-anchor="end" font-family="sans-serif" font-size="9.67741935483871" opacity="1" fill="#000000">
40%
</text>
<polyline fill="none" opacity="1" stroke="#000000" stroke-width="1" points="34,353 39,353 "/>
<text x="30" y="296" dy="0.5ex" text-anchor="end" font-family="sans-serif" font-size="9.67741935483871" opacity="1" fill="#000000">
50%
</text>
<polyline fill="none" opacity="1" stroke="#000000" stroke-width="1" points="34,296 39,296 "/>
<text x="30" y="240" dy="0.5ex" text-anchor="end" font-family="sans-serif" font-size="9.67741935483871" opacity="1" fill="#000000">
60%
</text>
<polyline fill="none" opacity="1" stroke="#000000" stroke-width="1" points="34,240 39,240 "/>
<text x="30" y="183" dy="0.5ex" text-anchor="end" font-family="sans-serif" font-size="9.67741935483871" opacity="1" fill="#000000">
70%
</text>
<polyline fill="none" opacity="1" stroke="#000000" stroke-width="1" points="34,183 39,183 "/>
<text x="30" y="127" dy="0.5ex" text-anchor="end" font-family="sans-serif" font-size="9.67741935483871" opacity="1" fill="#000000">
80%
</text>
<polyline fill="none" opacity="1" stroke="#000000" stroke-width="1" points="34,127 39,127 "/>
<text x="30" y="71" dy="0.5ex" text-anchor="end" font-family="sans-serif" font-size="9.67741935483871" opacity="1" fill="#000000">
90%
</text>
<polyline fill="none" opacity="1" stroke="#000000" stroke-width="1" points="34,71 39,71 "/>
<text x="30" y="14" dy="0.5ex" text-anchor="end" font-family="sans-serif" font-size="9.67741935483871" opacity="1" fill="#000000">
100%
</text>
<polyline fill="none" opacity="1" stroke="#000000" stroke-width="1" points="34,14 39,14 "/>
<polyline fill="none" opacity="1" stroke="#000000" stroke-width="1" points="40,580 947,580 "/>
<text x="40" y="590" dy="0.76em" text-anchor="middle" font-family="sans-serif" font-size="9.67741935483871" opacity="1" fill="#000000">
2019-03-16
</text>
<polyline fill="none" opacity="1" stroke="#000000" stroke-width="1" points="40,580 40,585 "/>
<text x="133" y="590" dy="0.76em" text-anchor="middle" font-family="sans-serif" font-size="9.67741935483871" opacity="1" fill="#000000">
2019-05-18
</text>
<polyline fill="none" opacity="1" stroke="#000000" stroke-width="1" points="133,580 133,585 "/>
<text x="226" y="590" dy="0.76em" text-anchor="middle" font-family="sans-serif" font-size="9.67741935483871" opacity="1" fill="#000000">
2019-07-20
</text>
<polyline fill="none" opacity="1" stroke="#000000" stroke-width="1" points="226,580 226,585 "/>
<text x="319" y="590" dy="0.76em" text-anchor="middle" font-family="sans-serif" font-size="9.67741935483871" opacity="1" fill="#000000">
2019-09-21
</text>
<polyline fill="none" opacity="1" stroke="#000000" stroke-width="1" points="319,580 319,585 "/>
<text x="413" y="590" dy="0.76em" text-anchor="middle" font-family="sans-serif" font-size="9.67741935483871" opacity="1" fill="#000000">
2019-11-23
</text>
<polyline fill="none" opacity="1" stroke="#000000" stroke-width="1" points="413,580 413,585 "/>
<text x="506" y="590" dy="0.76em" text-anchor="middle" font-family="sans-serif" font-size="9.67741935483871" opacity="1" fill="#000000">
2020-01-25
</text>
<polyline fill="none" opacity="1" stroke="#000000" stroke-width="1" points="506,580 506,585 "/>
<text x="599" y="590" dy="0.76em" text-anchor="middle" font-family="sans-serif" font-size="9.67741935483871" opacity="1" fill="#000000">
2020-03-28
</text>
<polyline fill="none" opacity="1" stroke="#000000" stroke-width="1" points="599,580 599,585 "/>
<text x="692" y="590" dy="0.76em" text-anchor="middle" font-family="sans-serif" font-size="9.67741935483871" opacity="1" fill="#000000">
2020-05-30
</text>
<polyline fill="none" opacity="1" stroke="#000000" stroke-width="1" points="692,580 692,585 "/>
<text x="786" y="590" dy="0.76em" text-anchor="middle" font-family="sans-serif" font-size="9.67741935483871" opacity="1" fill="#000000">
2020-08-01
</text>
<polyline fill="none" opacity="1" stroke="#000000" stroke-width="1" points="786,580 786,585 "/>
<text x="879" y="590" dy="0.76em" text-anchor="middle" font-family="sans-serif" font-size="9.67741935483871" opacity="1" fill="#000000">
2020-10-03
</text>
<polyline fill="none" opacity="1" stroke="#000000" stroke-width="1" points="879,580 879,585 "/>
<polyline fill="none" opacity="1" stroke="#FF0000" stroke-width="1" points="40,578 40,578 46,576 47,575 157,575 160,575 162,575 166,575 169,575 176,574 227,572 228,572 414,571 425,571 451,571 464,570 476,570 476,569 496,569 510,569 517,568 583,568 585,567 586,567 593,567 594,567 595,566 597,566 598,565 600,564 603,563 604,563 605,563 607,562 609,561 611,561 613,560 614,560 616,559 617,559 620,558 621,558 622,558 623,557 625,557 626,556 628,556 629,555 631,555 634,554 635,554 636,553 638,553 640,552 641,552 643,551 644,551 645,551 647,550 649,550 650,549 652,548 654,548 655,547 657,547 659,547 660,546 663,545 665,545 666,544 668,544 669,543 671,543 673,542 674,542 676,541 677,541 679,540 680,540 683,539 684,539 686,538 687,538 689,537 690,537 692,536 693,536 695,535 696,535 698,535 699,534 701,534 702,533 704,533 707,532 708,532 710,531 711,531 712,530 714,530 716,529 717,529 718,528 720,528 721,528 723,527 725,527 726,526 727,526 729,525 731,525 732,524 733,524 735,524 736,523 738,523 739,522 741,522 742,521 744,521 746,520 747,520 748,520 750,519 751,519 753,518 754,518 756,517 757,517 758,516 760,516 761,516 763,515 764,515 766,514 767,514 769,513 770,513 772,512 773,512 775,512 777,511 778,511 779,510 781,510 782,509 784,509 785,508 787,508 788,508 790,507 791,507 793,506 794,506 796,505 797,505 798,504 800,504 801,504 803,503 804,503 806,502 807,502 809,501 810,501 813,500 815,500 816,499 819,498 821,498 822,497 824,497 825,496 827,496 830,495 831,495 833,494 834,494 835,493 837,493 840,492 841,492 843,491 844,491 846,490 847,490 850,489 852,489 853,488 855,488 856,487 858,487 861,486 862,485 864,485 865,485 867,484 868,484 870,483 871,483 873,482 874,482 877,481 878,481 880,480 882,480 883,479 884,479 886,478 888,478 889,477 890,477 892,477 893,476 895,476 896,475 898,475 899,474 902,473 904,473 905,473 907,472 908,472 910,471 911,471 912,470 914,470 915,469 917,469 918,469 920,468 921,468 923,467 924,467 926,466 927,466 929,465 931,465 932,465 933,464 935,464 936,463 938,463 939,462 941,462 942,461 944,461 945,461 947,460 "/>
</svg>
