<svg width="987" height="610" viewBox="0 0 987 610" xmlns="http://www.w3.org/2000/svg">
<line opacity="0.1" stroke="#000000" stroke-width="1" x1="40" y1="579" x2="40" y2="9"/>
<line opacity="0.1" stroke="#000000" stroke-width="1" x1="51" y1="579" x2="51" y2="9"/>
<line opacity="0.1" stroke="#000000" stroke-width="1" x1="62" y1="579" x2="62" y2="9"/>
<line opacity="0.1" stroke="#000000" stroke-width="1" x1="73" y1="579" x2="73" y2="9"/>
<line opacity="0.1" stroke="#000000" stroke-width="1" x1="84" y1="579" x2="84" y2="9"/>
<line opacity="0.1" stroke="#000000" stroke-width="1" x1="95" y1="579" x2="95" y2="9"/>
<line opacity="0.1" stroke="#000000" stroke-width="1" x1="106" y1="579" x2="106" y2="9"/>
<line opacity="0.1" stroke="#000000" stroke-width="1" x1="117" y1="579" x2="117" y2="9"/>
<line opacity="0.1" stroke="#000000" stroke-width="1" x1="128" y1="579" x2="128" y2="9"/>
<line opacity="0.1" stroke="#000000" stroke-width="1" x1="139" y1="579" x2="139" y2="9"/>
<line opacity="0.1" stroke="#000000" stroke-width="1" x1="150" y1="579" x2="150" y2="9"/>
<line opacity="0.1" stroke="#000000" stroke-width="1" x1="161" y1="579" x2="161" y2="9"/>
<line opacity="0.1" stroke="#000000" stroke-width="1" x1="173" y1="579" x2="173" y2="9"/>
<line opacity="0.1" stroke="#000000" stroke-width="1" x1="184" y1="579" x2="184" y2="9"/>
<line opacity="0.1" stroke="#000000" stroke-width="1" x1="195" y1="579" x2="195" y2="9"/>
<line opacity="0.1" stroke="#000000" stroke-width="1" x1="206" y1="579" x2="206" y2="9"/>
<line opacity="0.1" stroke="#000000" stroke-width="1" x1="217" y1="579" x2="217" y2="9"/>
<line opacity="0.1" stroke="#000000" stroke-width="1" x1="228" y1="579" x2="228" y2="9"/>
<line opacity="0.1" stroke="#000000" stroke-width="1" x1="239" y1="579" x2="239" y2="9"/>
<line opacity="0.1" stroke="#000000" stroke-width="1" x1="250" y1="579" x2="250" y2="9"/>
<line opacity="0.1" stroke="#000000" stroke-width="1" x1="261" y1="579" x2="261" y2="9"/>
<line opacity="0.1" stroke="#000000" stroke-width="1" x1="272" y1="579" x2="272" y2="9"/>
<line opacity="0.1" stroke="#000000" stroke-width="1" x1="283" y1="579" x2="283" y2="9"/>
<line opacity="0.1" stroke="#000000" stroke-width="1" x1="294" y1="579" x2="294" y2="9"/>
<line opacity="0.1" stroke="#000000" stroke-width="1" x1="305" y1="579" x2="305" y2="9"/>
<line opacity="0.1" stroke="#000000" stroke-width="1" x1="317" y1="579" x2="317" y2="9"/>
<line opacity="0.1" stroke="#000000" stroke-width="1" x1="328" y1="579" x2="328" y2="9"/>
<line opacity="0.1" stroke="#000000" stroke-width="1" x1="339" y1="579" x2="339" y2="9"/>
<line opacity="0.1" stroke="#000000" stroke-width="1" x1="350" y1="579" x2="350" y2="9"/>
<line opacity="0.1" stroke="#000000" stroke-width="1" x1="361" y1="579" x2="361" y2="9"/>
<line opacity="0.1" stroke="#000000" stroke-width="1" x1="372" y1="579" x2="372" y2="9"/>
<line opacity="0.1" stroke="#000000" stroke-width="1" x1="383" y1="579" x2="383" y2="9"/>
<line opacity="0.1" stroke="#000000" stroke-width="1" x1="394" y1="579" x2="394" y2="9"/>
<line opacity="0.1" stroke="#000000" stroke-width="1" x1="405" y1="579" x2="405" y2="9"/>
<line opacity="0.1" stroke="#000000" stroke-width="1" x1="416" y1="579" x2="416" y2="9"/>
<line opacity="0.1" stroke="#000000" stroke-width="1" x1="427" y1="579" x2="427" y2="9"/>
<line opacity="0.1" stroke="#000000" stroke-width="1" x1="438" y1="579" x2="438" y2="9"/>
<line opacity="0.1" stroke="#000000" stroke-width="1" x1="450" y1="579" x2="450" y2="9"/>
<line opacity="0.1" stroke="#000000" stroke-width="1" x1="461" y1="579" x2="461" y2="9"/>
<line opacity="0.1" stroke="#000000" stroke-width="1" x1="472" y1="579" x2="472" y2="9"/>
<line opacity="0.1" stroke="#000000" stroke-width="1" x1="483" y1="579" x2="483" y2="9"/>
<line opacity="0.1" stroke="#000000" stroke-width="1" x1="494" y1="579" x2="494" y2="9"/>
<line opacity="0.1" stroke="#000000" stroke-width="1" x1="505" y1="579" x2="505" y2="9"/>
<line opacity="0.1" stroke="#000000" stroke-width="1" x1="516" y1="579" x2="516" y2="9"/>
<line opacity="0.1" stroke="#000000" stroke-width="1" x1="527" y1="579" x2="527" y2="9"/>
<line opacity="0.1" stroke="#000000" stroke-width="1" x1="538" y1="579" x2="538" y2="9"/>
<line opacity="0.1" stroke="#000000" stroke-width="1" x1="549" y1="579" x2="549" y2="9"/>
<line opacity="0.1" stroke="#000000" stroke-width="1" x1="560" y1="579" x2="560" y2="9"/>
<line opacity="0.1" stroke="#000000" stroke-width="1" x1="571" y1="579" x2="571" y2="9"/>
<line opacity="0.1" stroke="#000000" stroke-width="1" x1="583" y1="579" x2="583" y2="9"/>
<line opacity="0.1" stroke="#000000" stroke-width="1" x1="594" y1="579" x2="594" y2="9"/>
<line opacity="0.1" stroke="#000000" stroke-width="1" x1="605" y1="579" x2="605" y2="9"/>
<line opacity="0.1" stroke="#000000" stroke-width="1" x1="616" y1="579" x2="616" y2="9"/>
<line opacity="0.1" stroke="#000000" stroke-width="1" x1="627" y1="579" x2="627" y2="9"/>
<line opacity="0.1" stroke="#000000" stroke-width="1" x1="638" y1="579" x2="638" y2="9"/>
<line opacity="0.1" stroke="#000000" stroke-width="1" x1="649" y1="579" x2="649" y2="9"/>
<line opacity="0.1" stroke="#000000" stroke-width="1" x1="660" y1="579" x2="660" y2="9"/>
<line opacity="0.1" stroke="#000000" stroke-width="1" x1="671" y1="579" x2="671" y2="9"/>
<line opacity="0.1" stroke="#000000" stroke-width="1" x1="682" y1="579" x2="682" y2="9"/>
<line opacity="0.1" stroke="#000000" stroke-width="1" x1="693" y1="579" x2="693" y2="9"/>
<line opacity="0.1" stroke="#000000" stroke-width="1" x1="704" y1="579" x2="704" y2="9"/>
<line opacity="0.1" stroke="#000000" stroke-width="1" x1="716" y1="579" x2="716" y2="9"/>
<line opacity="0.1" stroke="#000000" stroke-width="1" x1="727" y1="579" x2="727" y2="9"/>
<line opacity="0.1" stroke="#000000" stroke-width="1" x1="738" y1="579" x2="738" y2="9"/>
<line opacity="0.1" stroke="#000000" stroke-width="1" x1="749" y1="579" x2="749" y2="9"/>
<line opacity="0.1" stroke="#000000" stroke-width="1" x1="760" y1="579" x2="760" y2="9"/>
<line opacity="0.1" stroke="#000000" stroke-width="1" x1="771" y1="579" x2="771" y2="9"/>
<line opacity="0.1" stroke="#000000" stroke-width="1" x1="782" y1="579" x2="782" y2="9"/>
<line opacity="0.1" stroke="#000000" stroke-width="1" x1="793" y1="579" x2="793" y2="9"/>
<line opacity="0.1" stroke="#000000" stroke-width="1" x1="804" y1="579" x2="804" y2="9"/>
<line opacity="0.1" stroke="#000000" stroke-width="1" x1="815" y1="579" x2="815" y2="9"/>
<line opacity="0.1" stroke="#000000" stroke-width="1" x1="826" y1="579" x2="826" y2="9"/>
<line opacity="0.1" stroke="#000000" stroke-width="1" x1="837" y1="579" x2="837" y2="9"/>
<line opacity="0.1" stroke="#000000" stroke-width="1" x1="849" y1="579" x2="849" y2="9"/>
<line opacity="0.1" stroke="#000000" stroke-width="1" x1="860" y1="579" x2="860" y2="9"/>
<line opacity="0.1" stroke="#000000" stroke-width="1" x1="871" y1="579" x2="871" y2="9"/>
<line opacity="0.1" stroke="#000000" stroke-width="1" x1="882" y1="579" x2="882" y2="9"/>
<line opacity="0.1" stroke="#000000" stroke-width="1" x1="893" y1="579" x2="893" y2="9"/>
<line opacity="0.1" stroke="#000000" stroke-width="1" x1="904" y1="579" x2="904" y2="9"/>
<line opacity="0.1" stroke="#000000" stroke-width="1" x1="915" y1="579" x2="915" y2="9"/>
<line opacity="0.1" stroke="#000000" stroke-width="1" x1="926" y1="579" x2="926" y2="9"/>
<line opacity="0.1" stroke="#000000" stroke-width="1" x1="937" y1="579" x2="937" y2="9"/>
<line opacity="0.1" stroke="#000000" stroke-width="1" x1="40" y1="567" x2="947" y2="567"/>
<line opacity="0.1" stroke="#000000" stroke-width="1" x1="40" y1="556" x2="947" y2="556"/>
<line opacity="0.1" stroke="#000000" stroke-width="1" x1="40" y1="545" x2="947" y2="545"/>
<line opacity="0.1" stroke="#000000" stroke-width="1" x1="40" y1="533" x2="947" y2="533"/>
<line opacity="0.1" stroke="#000000" stroke-width="1" x1="40" y1="522" x2="947" y2="522"/>
<line opacity="0.1" stroke="#000000" stroke-width="1" x1="40" y1="511" x2="947" y2="511"/>
<line opacity="0.1" stroke="#000000" stroke-width="1" x1="40" y1="499" x2="947" y2="499"/>
<line opacity="0.1" stroke="#000000" stroke-width="1" x1="40" y1="488" x2="947" y2="488"/>
<line opacity="0.1" stroke="#000000" stroke-width="1" x1="40" y1="477" x2="947" y2="477"/>
<line opacity="0.1" stroke="#000000" stroke-width="1" x1="40" y1="466" x2="947" y2="466"/>
<line opacity="0.1" stroke="#000000" stroke-width="1" x1="40" y1="454" x2="947" y2="454"/>
<line opacity="0.1" stroke="#000000" stroke-width="1" x1="40" y1="443" x2="947" y2="443"/>
<line opacity="0.1" stroke="#000000" stroke-width="1" x1="40" y1="432" x2="947" y2="432"/>
<line opacity="0.1" stroke="#000000" stroke-width="1" x1="40" y1="420" x2="947" y2="420"/>
<line opacity="0.1" stroke="#000000" stroke-width="1" x1="40" y1="409" x2="947" y2="409"/>
<line opacity="0.1" stroke="#000000" stroke-width="1" x1="40" y1="398" x2="947" y2="398"/>
<line opacity="0.1" stroke="#000000" stroke-width="1" x1="40" y1="387" x2="947" y2="387"/>
<line opacity="0.1" stroke="#000000" stroke-width="1" x1="40" y1="375" x2="947" y2="375"/>
<line opacity="0.1" stroke="#000000" stroke-width="1" x1="40" y1="364" x2="947" y2="364"/>
<line opacity="0.1" stroke="#000000" stroke-width="1" x1="40" y1="353" x2="947" y2="353"/>
<line opacity="0.1" stroke="#000000" stroke-width="1" x1="40" y1="341" x2="947" y2="341"/>
<line opacity="0.1" stroke="#000000" stroke-width="1" x1="40" y1="330" x2="947" y2="330"/>
<line opacity="0.1" stroke="#000000" stroke-width="1" x1="40" y1="319" x2="947" y2="319"/>
<line opacity="0.1" stroke="#000000" stroke-width="1" x1="40" y1="308" x2="947" y2="308"/>
<line opacity="0.1" stroke="#000000" stroke-width="1" x1="40" y1="296" x2="947" y2="296"/>
<line opacity="0.1" stroke="#000000" stroke-width="1" x1="40" y1="285" x2="947" y2="285"/>
<line opacity="0.1" stroke="#000000" stroke-width="1" x1="40" y1="274" x2="947" y2="274"/>
<line opacity="0.1" stroke="#000000" stroke-width="1" x1="40" y1="262" x2="947" y2="262"/>
<line opacity="0.1" stroke="#000000" stroke-width="1" x1="40" y1="251" x2="947" y2="251"/>
<line opacity="0.1" stroke="#000000" stroke-width="1" x1="40" y1="240" x2="947" y2="240"/>
<line opacity="0.1" stroke="#000000" stroke-width="1" x1="40" y1="229" x2="947" y2="229"/>
<line opacity="0.1" stroke="#000000" stroke-width="1" x1="40" y1="217" x2="947" y2="217"/>
<line opacity="0.1" stroke="#000000" stroke-width="1" x1="40" y1="206" x2="947" y2="206"/>
<line opacity="0.1" stroke="#000000" stroke-width="1" x1="40" y1="195" x2="947" y2="195"/>
<line opacity="0.1" stroke="#000000" stroke-width="1" x1="40" y1="183" x2="947" y2="183"/>
<line opacity="0.1" stroke="#000000" stroke-width="1" x1="40" y1="172" x2="947" y2="172"/>
<line opacity="0.1" stroke="#000000" stroke-width="1" x1="40" y1="161" x2="947" y2="161"/>
<line opacity="0.1" stroke="#000000" stroke-width="1" x1="40" y1="150" x2="947" y2="150"/>
<line opacity="0.1" stroke="#000000" stroke-width="1" x1="40" y1="138" x2="947" y2="138"/>
<line opacity="0.1" stroke="#000000" stroke-width="1" x1="40" y1="127" x2="947" y2="127"/>
<line opacity="0.1" stroke="#000000" stroke-width="1" x1="40" y1="116" x2="947" y2="116"/>
<line opacity="0.1" stroke="#000000" stroke-width="1" x1="40" y1="104" x2="947" y2="104"/>
<line opacity="0.1" stroke="#000000" stroke-width="1" x1="40" y1="93" x2="947" y2="93"/>
<line opacity="0.1" stroke="#000000" stroke-width="1" x1="40" y1="82" x2="947" y2="82"/>
<line opacity="0.1" stroke="#000000" stroke-width="1" x1="40" y1="71" x2="947" y2="71"/>
<line opacity="0.1" stroke="#000000" stroke-width="1" x1="40" y1="59" x2="947" y2="59"/>
<line opacity="0.1" stroke="#000000" stroke-width="1" x1="40" y1="48" x2="947" y2="48"/>
<line opacity="0.1" stroke="#000000" stroke-width="1" x1="40" y1="37" x2="947" y2="37"/>
<line opacity="0.1" stroke="#000000" stroke-width="1" x1="40" y1="25" x2="947" y2="25"/>
<line opacity="0.1" stroke="#000000" stroke-width="1" x1="40" y1="14" x2="947" y2="14"/>
<line opacity="0.2" stroke="#000000" stroke-width="1" x1="40" y1="579" x2="40" y2="9"/>
<line opacity="0.2" stroke="#000000" stroke-width="1" x1="139" y1="579" x2="139" y2="9"/>
<line opacity="0.2" stroke="#000000" stroke-width="1" x1="239" y1="579" x2="239" y2="9"/>
<line opacity="0.2" stroke="#000000" stroke-width="1" x1="339" y1="579" x2="339" y2="9"/>
<line opacity="0.2" stroke="#000000" stroke-width="1" x1="438" y1="579" x2="438" y2="9"/>
<line opacity="0.2" stroke="#000000" stroke-width="1" x1="538" y1="579" x2="538" y2="9"/>
<line opacity="0.2" stroke="#000000" stroke-width="1" x1="638" y1="579" x2="638" y2="9"/>
<line opacity="0.2" stroke="#000000" stroke-width="1" x1="738" y1="579" x2="738" y2="9"/>
<line opacity="0.2" stroke="#000000" stroke-width="1" x1="837" y1="579" x2="837" y2="9"/>
<line opacity="0.2" stroke="#000000" stroke-width="1" x1="937" y1="579" x2="937" y2="9"/>
<line opacity="0.2" stroke="#000000" stroke-width="1" x1="40" y1="522" x2="947" y2="522"/>
<line opacity="0.2" stroke="#000000" stroke-width="1" x1="40" y1="466" x2="947" y2="466"/>
<line opacity="0.2" stroke="#000000" stroke-width="1" x1="40" y1="409" x2="947" y2="409"/>
<line opacity="0.2" stroke="#000000" stroke-width="1" x1="40" y1="353" x2="947" y2="353"/>
<line opacity="0.2" stroke="#000000" stroke-width="1" x1="40" y1="296" x2="947" y2="296"/>
<line opacity="0.2" stroke="#000000" stroke-width="1" x1="40" y1="240" x2="947" y2="240"/>
<line opacity="0.2" stroke="#000000" stroke-width="1" x1="40" y1="183" x2="947" y2="183"/>
<line opacity="0.2" stroke="#000000" stroke-width="1" x1="40" y1="127" x2="947" y2="127"/>
<line opacity="0.2" stroke="#000000" stroke-width="1" x1="40" y1="71" x2="947" y2="71"/>
<line opacity="0.2" stroke="#000000" stroke-width="1" x1="40" y1="14" x2="947" y2="14"/>
<polyline fill="none" opacity="1" stroke="#000000" stroke-width="1" points="39,10 39,580 "/>
<text x="30" y="522" dy="0.5ex" text-anchor="end" font-family="sans-serif" font-size="9.67741935483871" opacity="1" fill="#000000">
10%
</text>
<polyline fill="none" opacity="1" stroke="#000000" stroke-width="1" points="34,522 39,522 "/>
<text x="30" y="466" dy="0.5ex" text-anchor="end" font-family="sans-serif" font-size="9.67741935483871" opacity="1" fill="#000000">
20%
</text>
<polyline fill="none" opacity="1" stroke="#000000" stroke-width="1" points="34,466 39,466 "/>
<text x="30" y="409" dy="0.5ex" text-anchor="end" font-family="sans-serif" font-size="9.67741935483871" opacity="1" fill="#000000">
30%
</text>
<polyline fill="none" opacity="1" stroke="#000000" stroke-width="1" points="34,409 39,409 "/>
<text x="30" y="353" dy="0.5ex" text-anchor="end" font-family="sans-serif" font-size="9.67741935483871" opacity="1" fill="#000000">
40%
</text>
<polyline fill="none" opacity="1" stroke="#000000" stroke-width="1" points="34,353 39,353 "/>
<text x="30" y="296" dy="0.5ex" text-anchor="end" font-family="sans-serif" font-size="9.67741935483871" opacity="1" fill="#000000">
50%
</text>
<polyline fill="none" opacity="1" stroke="#000000" stroke-width="1" points="34,296 39,296 "/>
<text x="30" y="240" dy="0.5ex" text-anchor="end" font-family="sans-serif" font-size="9.67741935483871" opacity="1" fill="#000000">
60%
</text>
<polyline fill="none" opacity="1" stroke="#000000" stroke-width="1" points="34,240 39,240 "/>
<text x="30" y="183" dy="0.5ex" text-anchor="end" font-family="sans-serif" font-size="9.67741935483871" opacity="1" fill="#000000">
70%
</text>
<polyline fill="none" opacity="1" stroke="#000000" stroke-width="1" points="34,183 39,183 "/>
<text x="30" y="127" dy="0.5ex" text-anchor="end" font-family="sans-serif" font-size="9.67741935483871" opacity="1" fill="#000000">
80%
</text>
<polyline fill="none" opacity="1" stroke="#000000" stroke-width="1" points="34,127 39,127 "/>
<text x="30" y="71" dy="0.5ex" text-anchor="end" font-family="sans-serif" font-size="9.67741935483871" opacity="1" fill="#000000">
90%
</text>
<polyline fill="none" opacity="1" stroke="#000000" stroke-width="1" points="34,71 39,71 "/>
<text x="30" y="14" dy="0.5ex" text-anchor="end" font-family="sans-serif" font-size="9.67741935483871" opacity="1" fill="#000000">
100%
</text>
<polyline fill="none" opacity="1" stroke="#000000" stroke-width="1" points="34,14 39,14 "/>
<polyline fill="none" opacity="1" stroke="#000000" stroke-width="1" points="40,580 947,580 "/>
<text x="40" y="590" dy="0.76em" text-anchor="middle" font-family="sans-serif" font-size="9.67741935483871" opacity="1" fill="#000000">
2019-03-16
</text>
<polyline fill="none" opacity="1" stroke="#000000" stroke-width="1" points="40,580 40,585 "/>
<text x="139" y="590" dy="0.76em" text-anchor="middle" font-family="sans-serif" font-size="9.67741935483871" opacity="1" fill="#000000">
2019-05-18
</text>
<polyline fill="none" opacity="1" stroke="#000000" stroke-width="1" points="139,580 139,585 "/>
<text x="239" y="590" dy="0.76em" text-anchor="middle" font-family="sans-serif" font-size="9.67741935483871" opacity="1" fill="#000000">
2019-07-20
</text>
<polyline fill="none" opacity="1" stroke="#000000" stroke-width="1" points="239,580 239,585 "/>
<text x="339" y="590" dy="0.76em" text-anchor="middle" font-family="sans-serif" font-size="9.67741935483871" opacity="1" fill="#000000">
2019-09-21
</text>
<polyline fill="none" opacity="1" stroke="#000000" stroke-width="1" points="339,580 339,585 "/>
<text x="438" y="590" dy="0.76em" text-anchor="middle" font-family="sans-serif" font-size="9.67741935483871" opacity="1" fill="#000000">
2019-11-23
</text>
<polyline fill="none" opacity="1" stroke="#000000" stroke-width="1" points="438,580 438,585 "/>
<text x="538" y="590" dy="0.76em" text-anchor="middle" font-family="sans-serif" font-size="9.67741935483871" opacity="1" fill="#000000">
2020-01-25
</text>
<polyline fill="none" opacity="1" stroke="#000000" stroke-width="1" points="538,580 538,585 "/>
<text x="638" y="590" dy="0.76em" text-anchor="middle" font-family="sans-serif" font-size="9.67741935483871" opacity="1" fill="#000000">
2020-03-28
</text>
<polyline fill="none" opacity="1" stroke="#000000" stroke-width="1" points="638,580 638,585 "/>
<text x="738" y="590" dy="0.76em" text-anchor="middle" font-family="sans-serif" font-size="9.67741935483871" opacity="1" fill="#000000">
2020-05-30
</text>
<polyline fill="none" opacity="1" stroke="#000000" stroke-width="1" points="738,580 738,585 "/>
<text x="837" y="590" dy="0.76em" text-anchor="middle" font-family="sans-serif" font-size="9.67741935483871" opacity="1" fill="#000000">
2020-08-01
</text>
<polyline fill="none" opacity="1" stroke="#000000" stroke-width="1" points="837,580 837,585 "/>
<text x="937" y="590" dy="0.76em" text-anchor="middle" font-family="sans-serif" font-size="9.67741935483871" opacity="1" fill="#000000">
2020-10-03
</text>
<polyline fill="none" opacity="1" stroke="#000000" stroke-width="1" points="937,580 937,585 "/>
<polyline fill="none" opacity="1" stroke="#FF0000" stroke-width="1" points="40,578 40,578 47,576 48,575 165,575 169,575 171,575 175,575 178,575 186,573 240,572 241,572 440,571 452,571 480,570 494,570 506,569 507,569 528,568 543,568 550,568 621,568 623,567 624,567 631,567 633,566 634,566 635,565 637,564 639,563 642,563 643,563 644,562 646,562 649,561 651,561 653,560 654,559 656,559 657,558 660,558 662,557 662,557 664,557 665,556 667,556 668,555 670,555 672,554 675,553 676,553 678,552 680,552 682,551 682,551 685,550 686,550 687,550 689,549 692,549 692,548 695,547 696,547 698,547 700,546 702,546 703,545 706,544 708,544 710,543 711,543 713,542 715,542 717,541 718,541 720,540 721,540 723,539 724,539 728,538 729,537 731,537 732,537 734,536 736,536 737,535 739,535 740,534 742,534 743,533 745,533 747,532 748,532 750,532 753,531 755,530 756,530 758,529 759,529 761,528 762,528 764,527 766,527 767,526 769,526 771,526 772,525 774,525 775,524 777,524 778,523 780,523 782,522 783,522 785,521 786,521 788,521 789,520 791,520 792,519 795,519 796,518 797,518 799,517 800,517 802,516 804,516 805,516 807,515 808,515 810,514 812,514 813,513 815,513 816,512 818,512 819,511 821,511 823,511 824,510 826,510 828,509 829,509 831,508 832,508 834,507 835,507 837,506 838,506 840,506 842,505 843,505 845,504 846,504 848,503 849,503 851,502 853,502 854,501 856,501 858,500 859,500 861,500 862,499 864,499 867,498 869,497 870,497 873,496 875,495 876,495 878,495 880,494 881,494 884,493 886,492 888,492 889,491 891,491 892,490 895,490 897,489 899,489 900,488 902,488 903,487 907,486 908,486 910,485 911,485 913,485 914,484 918,483 919,483 921,482 922,482 924,481 926,481 927,480 929,480 930,479 932,479 936,478 937,478 938,477 940,477 941,476 943,476 945,475 947,475 "/>
</svg>
