<svg width="987" height="610" viewBox="0 0 987 610" xmlns="http://www.w3.org/2000/svg">
<line opacity="0.1" stroke="#000000" stroke-width="1" x1="40" y1="579" x2="40" y2="9"/>
<line opacity="0.1" stroke="#000000" stroke-width="1" x1="50" y1="579" x2="50" y2="9"/>
<line opacity="0.1" stroke="#000000" stroke-width="1" x1="60" y1="579" x2="60" y2="9"/>
<line opacity="0.1" stroke="#000000" stroke-width="1" x1="70" y1="579" x2="70" y2="9"/>
<line opacity="0.1" stroke="#000000" stroke-width="1" x1="80" y1="579" x2="80" y2="9"/>
<line opacity="0.1" stroke="#000000" stroke-width="1" x1="90" y1="579" x2="90" y2="9"/>
<line opacity="0.1" stroke="#000000" stroke-width="1" x1="100" y1="579" x2="100" y2="9"/>
<line opacity="0.1" stroke="#000000" stroke-width="1" x1="110" y1="579" x2="110" y2="9"/>
<line opacity="0.1" stroke="#000000" stroke-width="1" x1="120" y1="579" x2="120" y2="9"/>
<line opacity="0.1" stroke="#000000" stroke-width="1" x1="130" y1="579" x2="130" y2="9"/>
<line opacity="0.1" stroke="#000000" stroke-width="1" x1="140" y1="579" x2="140" y2="9"/>
<line opacity="0.1" stroke="#000000" stroke-width="1" x1="150" y1="579" x2="150" y2="9"/>
<line opacity="0.1" stroke="#000000" stroke-width="1" x1="160" y1="579" x2="160" y2="9"/>
<line opacity="0.1" stroke="#000000" stroke-width="1" x1="170" y1="579" x2="170" y2="9"/>
<line opacity="0.1" stroke="#000000" stroke-width="1" x1="180" y1="579" x2="180" y2="9"/>
<line opacity="0.1" stroke="#000000" stroke-width="1" x1="190" y1="579" x2="190" y2="9"/>
<line opacity="0.1" stroke="#000000" stroke-width="1" x1="200" y1="579" x2="200" y2="9"/>
<line opacity="0.1" stroke="#000000" stroke-width="1" x1="210" y1="579" x2="210" y2="9"/>
<line opacity="0.1" stroke="#000000" stroke-width="1" x1="220" y1="579" x2="220" y2="9"/>
<line opacity="0.1" stroke="#000000" stroke-width="1" x1="230" y1="579" x2="230" y2="9"/>
<line opacity="0.1" stroke="#000000" stroke-width="1" x1="240" y1="579" x2="240" y2="9"/>
<line opacity="0.1" stroke="#000000" stroke-width="1" x1="250" y1="579" x2="250" y2="9"/>
<line opacity="0.1" stroke="#000000" stroke-width="1" x1="260" y1="579" x2="260" y2="9"/>
<line opacity="0.1" stroke="#000000" stroke-width="1" x1="270" y1="579" x2="270" y2="9"/>
<line opacity="0.1" stroke="#000000" stroke-width="1" x1="280" y1="579" x2="280" y2="9"/>
<line opacity="0.1" stroke="#000000" stroke-width="1" x1="290" y1="579" x2="290" y2="9"/>
<line opacity="0.1" stroke="#000000" stroke-width="1" x1="300" y1="579" x2="300" y2="9"/>
<line opacity="0.1" stroke="#000000" stroke-width="1" x1="310" y1="579" x2="310" y2="9"/>
<line opacity="0.1" stroke="#000000" stroke-width="1" x1="321" y1="579" x2="321" y2="9"/>
<line opacity="0.1" stroke="#000000" stroke-width="1" x1="331" y1="579" x2="331" y2="9"/>
<line opacity="0.1" stroke="#000000" stroke-width="1" x1="341" y1="579" x2="341" y2="9"/>
<line opacity="0.1" stroke="#000000" stroke-width="1" x1="351" y1="579" x2="351" y2="9"/>
<line opacity="0.1" stroke="#000000" stroke-width="1" x1="361" y1="579" x2="361" y2="9"/>
<line opacity="0.1" stroke="#000000" stroke-width="1" x1="371" y1="579" x2="371" y2="9"/>
<line opacity="0.1" stroke="#000000" stroke-width="1" x1="381" y1="579" x2="381" y2="9"/>
<line opacity="0.1" stroke="#000000" stroke-width="1" x1="391" y1="579" x2="391" y2="9"/>
<line opacity="0.1" stroke="#000000" stroke-width="1" x1="401" y1="579" x2="401" y2="9"/>
<line opacity="0.1" stroke="#000000" stroke-width="1" x1="411" y1="579" x2="411" y2="9"/>
<line opacity="0.1" stroke="#000000" stroke-width="1" x1="421" y1="579" x2="421" y2="9"/>
<line opacity="0.1" stroke="#000000" stroke-width="1" x1="431" y1="579" x2="431" y2="9"/>
<line opacity="0.1" stroke="#000000" stroke-width="1" x1="441" y1="579" x2="441" y2="9"/>
<line opacity="0.1" stroke="#000000" stroke-width="1" x1="451" y1="579" x2="451" y2="9"/>
<line opacity="0.1" stroke="#000000" stroke-width="1" x1="461" y1="579" x2="461" y2="9"/>
<line opacity="0.1" stroke="#000000" stroke-width="1" x1="471" y1="579" x2="471" y2="9"/>
<line opacity="0.1" stroke="#000000" stroke-width="1" x1="481" y1="579" x2="481" y2="9"/>
<line opacity="0.1" stroke="#000000" stroke-width="1" x1="491" y1="579" x2="491" y2="9"/>
<line opacity="0.1" stroke="#000000" stroke-width="1" x1="501" y1="579" x2="501" y2="9"/>
<line opacity="0.1" stroke="#000000" stroke-width="1" x1="511" y1="579" x2="511" y2="9"/>
<line opacity="0.1" stroke="#000000" stroke-width="1" x1="521" y1="579" x2="521" y2="9"/>
<line opacity="0.1" stroke="#000000" stroke-width="1" x1="531" y1="579" x2="531" y2="9"/>
<line opacity="0.1" stroke="#000000" stroke-width="1" x1="541" y1="579" x2="541" y2="9"/>
<line opacity="0.1" stroke="#000000" stroke-width="1" x1="551" y1="579" x2="551" y2="9"/>
<line opacity="0.1" stroke="#000000" stroke-width="1" x1="561" y1="579" x2="561" y2="9"/>
<line opacity="0.1" stroke="#000000" stroke-width="1" x1="571" y1="579" x2="571" y2="9"/>
<line opacity="0.1" stroke="#000000" stroke-width="1" x1="581" y1="579" x2="581" y2="9"/>
<line opacity="0.1" stroke="#000000" stroke-width="1" x1="591" y1="579" x2="591" y2="9"/>
<line opacity="0.1" stroke="#000000" stroke-width="1" x1="601" y1="579" x2="601" y2="9"/>
<line opacity="0.1" stroke="#000000" stroke-width="1" x1="612" y1="579" x2="612" y2="9"/>
<line opacity="0.1" stroke="#000000" stroke-width="1" x1="622" y1="579" x2="622" y2="9"/>
<line opacity="0.1" stroke="#000000" stroke-width="1" x1="632" y1="579" x2="632" y2="9"/>
<line opacity="0.1" stroke="#000000" stroke-width="1" x1="642" y1="579" x2="642" y2="9"/>
<line opacity="0.1" stroke="#000000" stroke-width="1" x1="652" y1="579" x2="652" y2="9"/>
<line opacity="0.1" stroke="#000000" stroke-width="1" x1="662" y1="579" x2="662" y2="9"/>
<line opacity="0.1" stroke="#000000" stroke-width="1" x1="672" y1="579" x2="672" y2="9"/>
<line opacity="0.1" stroke="#000000" stroke-width="1" x1="682" y1="579" x2="682" y2="9"/>
<line opacity="0.1" stroke="#000000" stroke-width="1" x1="692" y1="579" x2="692" y2="9"/>
<line opacity="0.1" stroke="#000000" stroke-width="1" x1="702" y1="579" x2="702" y2="9"/>
<line opacity="0.1" stroke="#000000" stroke-width="1" x1="712" y1="579" x2="712" y2="9"/>
<line opacity="0.1" stroke="#000000" stroke-width="1" x1="722" y1="579" x2="722" y2="9"/>
<line opacity="0.1" stroke="#000000" stroke-width="1" x1="732" y1="579" x2="732" y2="9"/>
<line opacity="0.1" stroke="#000000" stroke-width="1" x1="742" y1="579" x2="742" y2="9"/>
<line opacity="0.1" stroke="#000000" stroke-width="1" x1="752" y1="579" x2="752" y2="9"/>
<line opacity="0.1" stroke="#000000" stroke-width="1" x1="762" y1="579" x2="762" y2="9"/>
<line opacity="0.1" stroke="#000000" stroke-width="1" x1="772" y1="579" x2="772" y2="9"/>
<line opacity="0.1" stroke="#000000" stroke-width="1" x1="782" y1="579" x2="782" y2="9"/>
<line opacity="0.1" stroke="#000000" stroke-width="1" x1="792" y1="579" x2="792" y2="9"/>
<line opacity="0.1" stroke="#000000" stroke-width="1" x1="802" y1="579" x2="802" y2="9"/>
<line opacity="0.1" stroke="#000000" stroke-width="1" x1="812" y1="579" x2="812" y2="9"/>
<line opacity="0.1" stroke="#000000" stroke-width="1" x1="822" y1="579" x2="822" y2="9"/>
<line opacity="0.1" stroke="#000000" stroke-width="1" x1="832" y1="579" x2="832" y2="9"/>
<line opacity="0.1" stroke="#000000" stroke-width="1" x1="842" y1="579" x2="842" y2="9"/>
<line opacity="0.1" stroke="#000000" stroke-width="1" x1="852" y1="579" x2="852" y2="9"/>
<line opacity="0.1" stroke="#000000" stroke-width="1" x1="862" y1="579" x2="862" y2="9"/>
<line opacity="0.1" stroke="#000000" stroke-width="1" x1="872" y1="579" x2="872" y2="9"/>
<line opacity="0.1" stroke="#000000" stroke-width="1" x1="882" y1="579" x2="882" y2="9"/>
<line opacity="0.1" stroke="#000000" stroke-width="1" x1="893" y1="579" x2="893" y2="9"/>
<line opacity="0.1" stroke="#000000" stroke-width="1" x1="903" y1="579" x2="903" y2="9"/>
<line opacity="0.1" stroke="#000000" stroke-width="1" x1="913" y1="579" x2="913" y2="9"/>
<line opacity="0.1" stroke="#000000" stroke-width="1" x1="923" y1="579" x2="923" y2="9"/>
<line opacity="0.1" stroke="#000000" stroke-width="1" x1="933" y1="579" x2="933" y2="9"/>
<line opacity="0.1" stroke="#000000" stroke-width="1" x1="943" y1="579" x2="943" y2="9"/>
<line opacity="0.1" stroke="#000000" stroke-width="1" x1="40" y1="567" x2="947" y2="567"/>
<line opacity="0.1" stroke="#000000" stroke-width="1" x1="40" y1="556" x2="947" y2="556"/>
<line opacity="0.1" stroke="#000000" stroke-width="1" x1="40" y1="545" x2="947" y2="545"/>
<line opacity="0.1" stroke="#000000" stroke-width="1" x1="40" y1="533" x2="947" y2="533"/>
<line opacity="0.1" stroke="#000000" stroke-width="1" x1="40" y1="522" x2="947" y2="522"/>
<line opacity="0.1" stroke="#000000" stroke-width="1" x1="40" y1="511" x2="947" y2="511"/>
<line opacity="0.1" stroke="#000000" stroke-width="1" x1="40" y1="499" x2="947" y2="499"/>
<line opacity="0.1" stroke="#000000" stroke-width="1" x1="40" y1="488" x2="947" y2="488"/>
<line opacity="0.1" stroke="#000000" stroke-width="1" x1="40" y1="477" x2="947" y2="477"/>
<line opacity="0.1" stroke="#000000" stroke-width="1" x1="40" y1="466" x2="947" y2="466"/>
<line opacity="0.1" stroke="#000000" stroke-width="1" x1="40" y1="454" x2="947" y2="454"/>
<line opacity="0.1" stroke="#000000" stroke-width="1" x1="40" y1="443" x2="947" y2="443"/>
<line opacity="0.1" stroke="#000000" stroke-width="1" x1="40" y1="432" x2="947" y2="432"/>
<line opacity="0.1" stroke="#000000" stroke-width="1" x1="40" y1="420" x2="947" y2="420"/>
<line opacity="0.1" stroke="#000000" stroke-width="1" x1="40" y1="409" x2="947" y2="409"/>
<line opacity="0.1" stroke="#000000" stroke-width="1" x1="40" y1="398" x2="947" y2="398"/>
<line opacity="0.1" stroke="#000000" stroke-width="1" x1="40" y1="387" x2="947" y2="387"/>
<line opacity="0.1" stroke="#000000" stroke-width="1" x1="40" y1="375" x2="947" y2="375"/>
<line opacity="0.1" stroke="#000000" stroke-width="1" x1="40" y1="364" x2="947" y2="364"/>
<line opacity="0.1" stroke="#000000" stroke-width="1" x1="40" y1="353" x2="947" y2="353"/>
<line opacity="0.1" stroke="#000000" stroke-width="1" x1="40" y1="341" x2="947" y2="341"/>
<line opacity="0.1" stroke="#000000" stroke-width="1" x1="40" y1="330" x2="947" y2="330"/>
<line opacity="0.1" stroke="#000000" stroke-width="1" x1="40" y1="319" x2="947" y2="319"/>
<line opacity="0.1" stroke="#000000" stroke-width="1" x1="40" y1="308" x2="947" y2="308"/>
<line opacity="0.1" stroke="#000000" stroke-width="1" x1="40" y1="296" x2="947" y2="296"/>
<line opacity="0.1" stroke="#000000" stroke-width="1" x1="40" y1="285" x2="947" y2="285"/>
<line opacity="0.1" stroke="#000000" stroke-width="1" x1="40" y1="274" x2="947" y2="274"/>
<line opacity="0.1" stroke="#000000" stroke-width="1" x1="40" y1="262" x2="947" y2="262"/>
<line opacity="0.1" stroke="#000000" stroke-width="1" x1="40" y1="251" x2="947" y2="251"/>
<line opacity="0.1" stroke="#000000" stroke-width="1" x1="40" y1="240" x2="947" y2="240"/>
<line opacity="0.1" stroke="#000000" stroke-width="1" x1="40" y1="229" x2="947" y2="229"/>
<line opacity="0.1" stroke="#000000" stroke-width="1" x1="40" y1="217" x2="947" y2="217"/>
<line opacity="0.1" stroke="#000000" stroke-width="1" x1="40" y1="206" x2="947" y2="206"/>
<line opacity="0.1" stroke="#000000" stroke-width="1" x1="40" y1="195" x2="947" y2="195"/>
<line opacity="0.1" stroke="#000000" stroke-width="1" x1="40" y1="183" x2="947" y2="183"/>
<line opacity="0.1" stroke="#000000" stroke-width="1" x1="40" y1="172" x2="947" y2="172"/>
<line opacity="0.1" stroke="#000000" stroke-width="1" x1="40" y1="161" x2="947" y2="161"/>
<line opacity="0.1" stroke="#000000" stroke-width="1" x1="40" y1="150" x2="947" y2="150"/>
<line opacity="0.1" stroke="#000000" stroke-width="1" x1="40" y1="138" x2="947" y2="138"/>
<line opacity="0.1" stroke="#000000" stroke-width="1" x1="40" y1="127" x2="947" y2="127"/>
<line opacity="0.1" stroke="#000000" stroke-width="1" x1="40" y1="116" x2="947" y2="116"/>
<line opacity="0.1" stroke="#000000" stroke-width="1" x1="40" y1="104" x2="947" y2="104"/>
<line opacity="0.1" stroke="#000000" stroke-width="1" x1="40" y1="93" x2="947" y2="93"/>
<line opacity="0.1" stroke="#000000" stroke-width="1" x1="40" y1="82" x2="947" y2="82"/>
<line opacity="0.1" stroke="#000000" stroke-width="1" x1="40" y1="71" x2="947" y2="71"/>
<line opacity="0.1" stroke="#000000" stroke-width="1" x1="40" y1="59" x2="947" y2="59"/>
<line opacity="0.1" stroke="#000000" stroke-width="1" x1="40" y1="48" x2="947" y2="48"/>
<line opacity="0.1" stroke="#000000" stroke-width="1" x1="40" y1="37" x2="947" y2="37"/>
<line opacity="0.1" stroke="#000000" stroke-width="1" x1="40" y1="25" x2="947" y2="25"/>
<line opacity="0.1" stroke="#000000" stroke-width="1" x1="40" y1="14" x2="947" y2="14"/>
<line opacity="0.2" stroke="#000000" stroke-width="1" x1="40" y1="579" x2="40" y2="9"/>
<line opacity="0.2" stroke="#000000" stroke-width="1" x1="130" y1="579" x2="130" y2="9"/>
<line opacity="0.2" stroke="#000000" stroke-width="1" x1="220" y1="579" x2="220" y2="9"/>
<line opacity="0.2" stroke="#000000" stroke-width="1" x1="310" y1="579" x2="310" y2="9"/>
<line opacity="0.2" stroke="#000000" stroke-width="1" x1="401" y1="579" x2="401" y2="9"/>
<line opacity="0.2" stroke="#000000" stroke-width="1" x1="491" y1="579" x2="491" y2="9"/>
<line opacity="0.2" stroke="#000000" stroke-width="1" x1="581" y1="579" x2="581" y2="9"/>
<line opacity="0.2" stroke="#000000" stroke-width="1" x1="672" y1="579" x2="672" y2="9"/>
<line opacity="0.2" stroke="#000000" stroke-width="1" x1="762" y1="579" x2="762" y2="9"/>
<line opacity="0.2" stroke="#000000" stroke-width="1" x1="852" y1="579" x2="852" y2="9"/>
<line opacity="0.2" stroke="#000000" stroke-width="1" x1="943" y1="579" x2="943" y2="9"/>
<line opacity="0.2" stroke="#000000" stroke-width="1" x1="40" y1="522" x2="947" y2="522"/>
<line opacity="0.2" stroke="#000000" stroke-width="1" x1="40" y1="466" x2="947" y2="466"/>
<line opacity="0.2" stroke="#000000" stroke-width="1" x1="40" y1="409" x2="947" y2="409"/>
<line opacity="0.2" stroke="#000000" stroke-width="1" x1="40" y1="353" x2="947" y2="353"/>
<line opacity="0.2" stroke="#000000" stroke-width="1" x1="40" y1="296" x2="947" y2="296"/>
<line opacity="0.2" stroke="#000000" stroke-width="1" x1="40" y1="240" x2="947" y2="240"/>
<line opacity="0.2" stroke="#000000" stroke-width="1" x1="40" y1="183" x2="947" y2="183"/>
<line opacity="0.2" stroke="#000000" stroke-width="1" x1="40" y1="127" x2="947" y2="127"/>
<line opacity="0.2" stroke="#000000" stroke-width="1" x1="40" y1="71" x2="947" y2="71"/>
<line opacity="0.2" stroke="#000000" stroke-width="1" x1="40" y1="14" x2="947" y2="14"/>
<polyline fill="none" opacity="1" stroke="#000000" stroke-width="1" points="39,10 39,580 "/>
<text x="30" y="522" dy="0.5ex" text-anchor="end" font-family="sans-serif" font-size="9.67741935483871" opacity="1" fill="#000000">
10%
</text>
<polyline fill="none" opacity="1" stroke="#000000" stroke-width="1" points="34,522 39,522 "/>
<text x="30" y="466" dy="0.5ex" text-anchor="end" font-family="sans-serif" font-size="9.67741935483871" opacity="1" fill="#000000">
20%
</text>
<polyline fill="none" opacity="1" stroke="#000000" stroke-width="1" points="34,466 39,466 "/>
<text x="30" y="409" dy="0.5ex" text-anchor="end" font-family="sans-serif" font-size="9.67741935483871" opacity="1" fill="#000000">
30%
</text>
<polyline fill="none" opacity="1" stroke="#000000" stroke-width="1" points="34,409 39,409 "/>
<text x="30" y="353" dy="0.5ex" text-anchor="end" font-family="sans-serif" font-size="9.67741935483871" opacity="1" fill="#000000">
40%
</text>
<polyline fill="none" opacity="1" stroke="#000000" stroke-width="1" points="34,353 39,353 "/>
<text x="30" y="296" dy="0.5ex" text-anchor="end" font-family="sans-serif" font-size="9.67741935483871" opacity="1" fill="#000000">
50%
</text>
<polyline fill="none" opacity="1" stroke="#000000" stroke-width="1" points="34,296 39,296 "/>
<text x="30" y="240" dy="0.5ex" text-anchor="end" font-family="sans-serif" font-size="9.67741935483871" opacity="1" fill="#000000">
60%
</text>
<polyline fill="none" opacity="1" stroke="#000000" stroke-width="1" points="34,240 39,240 "/>
<text x="30" y="183" dy="0.5ex" text-anchor="end" font-family="sans-serif" font-size="9.67741935483871" opacity="1" fill="#000000">
70%
</text>
<polyline fill="none" opacity="1" stroke="#000000" stroke-width="1" points="34,183 39,183 "/>
<text x="30" y="127" dy="0.5ex" text-anchor="end" font-family="sans-serif" font-size="9.67741935483871" opacity="1" fill="#000000">
80%
</text>
<polyline fill="none" opacity="1" stroke="#000000" stroke-width="1" points="34,127 39,127 "/>
<text x="30" y="71" dy="0.5ex" text-anchor="end" font-family="sans-serif" font-size="9.67741935483871" opacity="1" fill="#000000">
90%
</text>
<polyline fill="none" opacity="1" stroke="#000000" stroke-width="1" points="34,71 39,71 "/>
<text x="30" y="14" dy="0.5ex" text-anchor="end" font-family="sans-serif" font-size="9.67741935483871" opacity="1" fill="#000000">
100%
</text>
<polyline fill="none" opacity="1" stroke="#000000" stroke-width="1" points="34,14 39,14 "/>
<polyline fill="none" opacity="1" stroke="#000000" stroke-width="1" points="40,580 947,580 "/>
<text x="40" y="590" dy="0.76em" text-anchor="middle" font-family="sans-serif" font-size="9.67741935483871" opacity="1" fill="#000000">
2019-03-16
</text>
<polyline fill="none" opacity="1" stroke="#000000" stroke-width="1" points="40,580 40,585 "/>
<text x="130" y="590" dy="0.76em" text-anchor="middle" font-family="sans-serif" font-size="9.67741935483871" opacity="1" fill="#000000">
2019-05-18
</text>
<polyline fill="none" opacity="1" stroke="#000000" stroke-width="1" points="130,580 130,585 "/>
<text x="220" y="590" dy="0.76em" text-anchor="middle" font-family="sans-serif" font-size="9.67741935483871" opacity="1" fill="#000000">
2019-07-20
</text>
<polyline fill="none" opacity="1" stroke="#000000" stroke-width="1" points="220,580 220,585 "/>
<text x="310" y="590" dy="0.76em" text-anchor="middle" font-family="sans-serif" font-size="9.67741935483871" opacity="1" fill="#000000">
2019-09-21
</text>
<polyline fill="none" opacity="1" stroke="#000000" stroke-width="1" points="310,580 310,585 "/>
<text x="401" y="590" dy="0.76em" text-anchor="middle" font-family="sans-serif" font-size="9.67741935483871" opacity="1" fill="#000000">
2019-11-23
</text>
<polyline fill="none" opacity="1" stroke="#000000" stroke-width="1" points="401,580 401,585 "/>
<text x="491" y="590" dy="0.76em" text-anchor="middle" font-family="sans-serif" font-size="9.67741935483871" opacity="1" fill="#000000">
2020-01-25
</text>
<polyline fill="none" opacity="1" stroke="#000000" stroke-width="1" points="491,580 491,585 "/>
<text x="581" y="590" dy="0.76em" text-anchor="middle" font-family="sans-serif" font-size="9.67741935483871" opacity="1" fill="#000000">
2020-03-28
</text>
<polyline fill="none" opacity="1" stroke="#000000" stroke-width="1" points="581,580 581,585 "/>
<text x="672" y="590" dy="0.76em" text-anchor="middle" font-family="sans-serif" font-size="9.67741935483871" opacity="1" fill="#000000">
2020-05-30
</text>
<polyline fill="none" opacity="1" stroke="#000000" stroke-width="1" points="672,580 672,585 "/>
<text x="762" y="590" dy="0.76em" text-anchor="middle" font-family="sans-serif" font-size="9.67741935483871" opacity="1" fill="#000000">
2020-08-01
</text>
<polyline fill="none" opacity="1" stroke="#000000" stroke-width="1" points="762,580 762,585 "/>
<text x="852" y="590" dy="0.76em" text-anchor="middle" font-family="sans-serif" font-size="9.67741935483871" opacity="1" fill="#000000">
2020-10-03
</text>
<polyline fill="none" opacity="1" stroke="#000000" stroke-width="1" points="852,580 852,585 "/>
<text x="943" y="590" dy="0.76em" text-anchor="middle" font-family="sans-serif" font-size="9.67741935483871" opacity="1" fill="#000000">
2020-12-05
</text>
<polyline fill="none" opacity="1" stroke="#000000" stroke-width="1" points="943,580 943,585 "/>
<polyline fill="none" opacity="1" stroke="#FF0000" stroke-width="1" points="40,578 40,578 46,576 47,575 153,575 157,575 158,575 162,575 165,575 172,574 221,572 222,572 402,571 413,571 438,571 451,570 462,570 463,569 481,569 495,569 502,568 566,568 567,568 569,568 575,567 577,567 577,566 579,566 580,565 582,564 585,564 586,563 587,563 589,562 591,561 593,561 595,560 596,560 598,560 599,559 601,558 603,558 603,558 605,557 606,557 608,557 609,556 610,556 613,555 615,554 616,554 618,553 619,553 621,552 622,552 624,551 625,551 626,551 627,550 630,550 630,550 633,549 634,548 636,548 638,547 639,547 640,546 643,546 645,545 646,545 648,544 649,544 651,543 653,542 654,542 655,542 657,541 658,541 660,540 663,539 664,539 665,539 667,538 668,538 670,537 671,537 673,536 674,536 676,535 677,535 678,535 680,534 681,534 683,533 686,532 687,532 688,532 690,531 691,531 693,530 694,530 696,529 697,529 698,528 700,528 702,528 703,527 704,527 706,526 707,526 709,525 710,525 711,524 713,524 714,524 716,523 717,523 719,522 720,522 721,521 723,521 724,521 726,520 727,520 729,519 730,519 731,518 733,518 734,517 736,517 737,517 739,516 740,516 742,515 743,515 744,514 746,514 747,514 749,513 750,513 752,512 753,512 754,511 756,511 757,510 759,510 760,510 762,509 763,509 764,508 766,508 767,507 769,507 770,506 772,506 773,506 774,505 776,505 777,504 779,504 780,503 782,503 783,503 785,502 786,502 789,501 790,500 792,500 795,499 796,499 797,498 799,498 800,497 802,497 805,496 806,495 807,495 809,495 810,494 812,494 815,493 816,492 817,492 819,492 820,491 822,491 825,490 826,489 827,489 829,488 830,488 832,488 835,487 836,486 838,486 839,485 840,485 842,485 843,484 845,484 846,483 848,483 851,482 852,481 853,481 855,481 856,480 858,480 859,479 861,479 862,478 863,478 865,477 866,477 868,477 869,476 870,476 872,475 875,474 876,474 878,474 879,473 881,473 882,472 884,472 885,471 886,471 888,470 889,470 891,470 892,469 894,469 895,468 896,468 898,467 899,467 901,467 902,466 904,466 905,465 906,465 908,464 909,464 911,463 912,463 914,463 915,462 916,462 918,461 919,461 921,460 922,460 924,459 925,459 926,459 928,458 929,458 931,457 933,457 934,456 935,456 936,456 938,455 939,455 941,454 942,454 944,453 945,453 947,452 "/>
</svg>
