<svg width="987" height="610" viewBox="0 0 987 610" xmlns="http://www.w3.org/2000/svg">
<line opacity="0.1" stroke="#000000" stroke-width="1" x1="40" y1="579" x2="40" y2="9"/>
<line opacity="0.1" stroke="#000000" stroke-width="1" x1="53" y1="579" x2="53" y2="9"/>
<line opacity="0.1" stroke="#000000" stroke-width="1" x1="67" y1="579" x2="67" y2="9"/>
<line opacity="0.1" stroke="#000000" stroke-width="1" x1="81" y1="579" x2="81" y2="9"/>
<line opacity="0.1" stroke="#000000" stroke-width="1" x1="94" y1="579" x2="94" y2="9"/>
<line opacity="0.1" stroke="#000000" stroke-width="1" x1="108" y1="579" x2="108" y2="9"/>
<line opacity="0.1" stroke="#000000" stroke-width="1" x1="122" y1="579" x2="122" y2="9"/>
<line opacity="0.1" stroke="#000000" stroke-width="1" x1="136" y1="579" x2="136" y2="9"/>
<line opacity="0.1" stroke="#000000" stroke-width="1" x1="149" y1="579" x2="149" y2="9"/>
<line opacity="0.1" stroke="#000000" stroke-width="1" x1="163" y1="579" x2="163" y2="9"/>
<line opacity="0.1" stroke="#000000" stroke-width="1" x1="177" y1="579" x2="177" y2="9"/>
<line opacity="0.1" stroke="#000000" stroke-width="1" x1="190" y1="579" x2="190" y2="9"/>
<line opacity="0.1" stroke="#000000" stroke-width="1" x1="204" y1="579" x2="204" y2="9"/>
<line opacity="0.1" stroke="#000000" stroke-width="1" x1="218" y1="579" x2="218" y2="9"/>
<line opacity="0.1" stroke="#000000" stroke-width="1" x1="232" y1="579" x2="232" y2="9"/>
<line opacity="0.1" stroke="#000000" stroke-width="1" x1="245" y1="579" x2="245" y2="9"/>
<line opacity="0.1" stroke="#000000" stroke-width="1" x1="259" y1="579" x2="259" y2="9"/>
<line opacity="0.1" stroke="#000000" stroke-width="1" x1="273" y1="579" x2="273" y2="9"/>
<line opacity="0.1" stroke="#000000" stroke-width="1" x1="286" y1="579" x2="286" y2="9"/>
<line opacity="0.1" stroke="#000000" stroke-width="1" x1="300" y1="579" x2="300" y2="9"/>
<line opacity="0.1" stroke="#000000" stroke-width="1" x1="314" y1="579" x2="314" y2="9"/>
<line opacity="0.1" stroke="#000000" stroke-width="1" x1="328" y1="579" x2="328" y2="9"/>
<line opacity="0.1" stroke="#000000" stroke-width="1" x1="341" y1="579" x2="341" y2="9"/>
<line opacity="0.1" stroke="#000000" stroke-width="1" x1="355" y1="579" x2="355" y2="9"/>
<line opacity="0.1" stroke="#000000" stroke-width="1" x1="369" y1="579" x2="369" y2="9"/>
<line opacity="0.1" stroke="#000000" stroke-width="1" x1="383" y1="579" x2="383" y2="9"/>
<line opacity="0.1" stroke="#000000" stroke-width="1" x1="396" y1="579" x2="396" y2="9"/>
<line opacity="0.1" stroke="#000000" stroke-width="1" x1="410" y1="579" x2="410" y2="9"/>
<line opacity="0.1" stroke="#000000" stroke-width="1" x1="424" y1="579" x2="424" y2="9"/>
<line opacity="0.1" stroke="#000000" stroke-width="1" x1="437" y1="579" x2="437" y2="9"/>
<line opacity="0.1" stroke="#000000" stroke-width="1" x1="451" y1="579" x2="451" y2="9"/>
<line opacity="0.1" stroke="#000000" stroke-width="1" x1="465" y1="579" x2="465" y2="9"/>
<line opacity="0.1" stroke="#000000" stroke-width="1" x1="479" y1="579" x2="479" y2="9"/>
<line opacity="0.1" stroke="#000000" stroke-width="1" x1="492" y1="579" x2="492" y2="9"/>
<line opacity="0.1" stroke="#000000" stroke-width="1" x1="506" y1="579" x2="506" y2="9"/>
<line opacity="0.1" stroke="#000000" stroke-width="1" x1="520" y1="579" x2="520" y2="9"/>
<line opacity="0.1" stroke="#000000" stroke-width="1" x1="533" y1="579" x2="533" y2="9"/>
<line opacity="0.1" stroke="#000000" stroke-width="1" x1="547" y1="579" x2="547" y2="9"/>
<line opacity="0.1" stroke="#000000" stroke-width="1" x1="561" y1="579" x2="561" y2="9"/>
<line opacity="0.1" stroke="#000000" stroke-width="1" x1="575" y1="579" x2="575" y2="9"/>
<line opacity="0.1" stroke="#000000" stroke-width="1" x1="588" y1="579" x2="588" y2="9"/>
<line opacity="0.1" stroke="#000000" stroke-width="1" x1="602" y1="579" x2="602" y2="9"/>
<line opacity="0.1" stroke="#000000" stroke-width="1" x1="616" y1="579" x2="616" y2="9"/>
<line opacity="0.1" stroke="#000000" stroke-width="1" x1="630" y1="579" x2="630" y2="9"/>
<line opacity="0.1" stroke="#000000" stroke-width="1" x1="643" y1="579" x2="643" y2="9"/>
<line opacity="0.1" stroke="#000000" stroke-width="1" x1="657" y1="579" x2="657" y2="9"/>
<line opacity="0.1" stroke="#000000" stroke-width="1" x1="671" y1="579" x2="671" y2="9"/>
<line opacity="0.1" stroke="#000000" stroke-width="1" x1="684" y1="579" x2="684" y2="9"/>
<line opacity="0.1" stroke="#000000" stroke-width="1" x1="698" y1="579" x2="698" y2="9"/>
<line opacity="0.1" stroke="#000000" stroke-width="1" x1="712" y1="579" x2="712" y2="9"/>
<line opacity="0.1" stroke="#000000" stroke-width="1" x1="726" y1="579" x2="726" y2="9"/>
<line opacity="0.1" stroke="#000000" stroke-width="1" x1="739" y1="579" x2="739" y2="9"/>
<line opacity="0.1" stroke="#000000" stroke-width="1" x1="753" y1="579" x2="753" y2="9"/>
<line opacity="0.1" stroke="#000000" stroke-width="1" x1="767" y1="579" x2="767" y2="9"/>
<line opacity="0.1" stroke="#000000" stroke-width="1" x1="780" y1="579" x2="780" y2="9"/>
<line opacity="0.1" stroke="#000000" stroke-width="1" x1="794" y1="579" x2="794" y2="9"/>
<line opacity="0.1" stroke="#000000" stroke-width="1" x1="808" y1="579" x2="808" y2="9"/>
<line opacity="0.1" stroke="#000000" stroke-width="1" x1="822" y1="579" x2="822" y2="9"/>
<line opacity="0.1" stroke="#000000" stroke-width="1" x1="835" y1="579" x2="835" y2="9"/>
<line opacity="0.1" stroke="#000000" stroke-width="1" x1="849" y1="579" x2="849" y2="9"/>
<line opacity="0.1" stroke="#000000" stroke-width="1" x1="863" y1="579" x2="863" y2="9"/>
<line opacity="0.1" stroke="#000000" stroke-width="1" x1="876" y1="579" x2="876" y2="9"/>
<line opacity="0.1" stroke="#000000" stroke-width="1" x1="890" y1="579" x2="890" y2="9"/>
<line opacity="0.1" stroke="#000000" stroke-width="1" x1="904" y1="579" x2="904" y2="9"/>
<line opacity="0.1" stroke="#000000" stroke-width="1" x1="918" y1="579" x2="918" y2="9"/>
<line opacity="0.1" stroke="#000000" stroke-width="1" x1="931" y1="579" x2="931" y2="9"/>
<line opacity="0.1" stroke="#000000" stroke-width="1" x1="945" y1="579" x2="945" y2="9"/>
<line opacity="0.1" stroke="#000000" stroke-width="1" x1="40" y1="567" x2="947" y2="567"/>
<line opacity="0.1" stroke="#000000" stroke-width="1" x1="40" y1="556" x2="947" y2="556"/>
<line opacity="0.1" stroke="#000000" stroke-width="1" x1="40" y1="545" x2="947" y2="545"/>
<line opacity="0.1" stroke="#000000" stroke-width="1" x1="40" y1="533" x2="947" y2="533"/>
<line opacity="0.1" stroke="#000000" stroke-width="1" x1="40" y1="522" x2="947" y2="522"/>
<line opacity="0.1" stroke="#000000" stroke-width="1" x1="40" y1="511" x2="947" y2="511"/>
<line opacity="0.1" stroke="#000000" stroke-width="1" x1="40" y1="499" x2="947" y2="499"/>
<line opacity="0.1" stroke="#000000" stroke-width="1" x1="40" y1="488" x2="947" y2="488"/>
<line opacity="0.1" stroke="#000000" stroke-width="1" x1="40" y1="477" x2="947" y2="477"/>
<line opacity="0.1" stroke="#000000" stroke-width="1" x1="40" y1="466" x2="947" y2="466"/>
<line opacity="0.1" stroke="#000000" stroke-width="1" x1="40" y1="454" x2="947" y2="454"/>
<line opacity="0.1" stroke="#000000" stroke-width="1" x1="40" y1="443" x2="947" y2="443"/>
<line opacity="0.1" stroke="#000000" stroke-width="1" x1="40" y1="432" x2="947" y2="432"/>
<line opacity="0.1" stroke="#000000" stroke-width="1" x1="40" y1="420" x2="947" y2="420"/>
<line opacity="0.1" stroke="#000000" stroke-width="1" x1="40" y1="409" x2="947" y2="409"/>
<line opacity="0.1" stroke="#000000" stroke-width="1" x1="40" y1="398" x2="947" y2="398"/>
<line opacity="0.1" stroke="#000000" stroke-width="1" x1="40" y1="387" x2="947" y2="387"/>
<line opacity="0.1" stroke="#000000" stroke-width="1" x1="40" y1="375" x2="947" y2="375"/>
<line opacity="0.1" stroke="#000000" stroke-width="1" x1="40" y1="364" x2="947" y2="364"/>
<line opacity="0.1" stroke="#000000" stroke-width="1" x1="40" y1="353" x2="947" y2="353"/>
<line opacity="0.1" stroke="#000000" stroke-width="1" x1="40" y1="341" x2="947" y2="341"/>
<line opacity="0.1" stroke="#000000" stroke-width="1" x1="40" y1="330" x2="947" y2="330"/>
<line opacity="0.1" stroke="#000000" stroke-width="1" x1="40" y1="319" x2="947" y2="319"/>
<line opacity="0.1" stroke="#000000" stroke-width="1" x1="40" y1="308" x2="947" y2="308"/>
<line opacity="0.1" stroke="#000000" stroke-width="1" x1="40" y1="296" x2="947" y2="296"/>
<line opacity="0.1" stroke="#000000" stroke-width="1" x1="40" y1="285" x2="947" y2="285"/>
<line opacity="0.1" stroke="#000000" stroke-width="1" x1="40" y1="274" x2="947" y2="274"/>
<line opacity="0.1" stroke="#000000" stroke-width="1" x1="40" y1="262" x2="947" y2="262"/>
<line opacity="0.1" stroke="#000000" stroke-width="1" x1="40" y1="251" x2="947" y2="251"/>
<line opacity="0.1" stroke="#000000" stroke-width="1" x1="40" y1="240" x2="947" y2="240"/>
<line opacity="0.1" stroke="#000000" stroke-width="1" x1="40" y1="229" x2="947" y2="229"/>
<line opacity="0.1" stroke="#000000" stroke-width="1" x1="40" y1="217" x2="947" y2="217"/>
<line opacity="0.1" stroke="#000000" stroke-width="1" x1="40" y1="206" x2="947" y2="206"/>
<line opacity="0.1" stroke="#000000" stroke-width="1" x1="40" y1="195" x2="947" y2="195"/>
<line opacity="0.1" stroke="#000000" stroke-width="1" x1="40" y1="183" x2="947" y2="183"/>
<line opacity="0.1" stroke="#000000" stroke-width="1" x1="40" y1="172" x2="947" y2="172"/>
<line opacity="0.1" stroke="#000000" stroke-width="1" x1="40" y1="161" x2="947" y2="161"/>
<line opacity="0.1" stroke="#000000" stroke-width="1" x1="40" y1="150" x2="947" y2="150"/>
<line opacity="0.1" stroke="#000000" stroke-width="1" x1="40" y1="138" x2="947" y2="138"/>
<line opacity="0.1" stroke="#000000" stroke-width="1" x1="40" y1="127" x2="947" y2="127"/>
<line opacity="0.1" stroke="#000000" stroke-width="1" x1="40" y1="116" x2="947" y2="116"/>
<line opacity="0.1" stroke="#000000" stroke-width="1" x1="40" y1="104" x2="947" y2="104"/>
<line opacity="0.1" stroke="#000000" stroke-width="1" x1="40" y1="93" x2="947" y2="93"/>
<line opacity="0.1" stroke="#000000" stroke-width="1" x1="40" y1="82" x2="947" y2="82"/>
<line opacity="0.1" stroke="#000000" stroke-width="1" x1="40" y1="71" x2="947" y2="71"/>
<line opacity="0.1" stroke="#000000" stroke-width="1" x1="40" y1="59" x2="947" y2="59"/>
<line opacity="0.1" stroke="#000000" stroke-width="1" x1="40" y1="48" x2="947" y2="48"/>
<line opacity="0.1" stroke="#000000" stroke-width="1" x1="40" y1="37" x2="947" y2="37"/>
<line opacity="0.1" stroke="#000000" stroke-width="1" x1="40" y1="25" x2="947" y2="25"/>
<line opacity="0.1" stroke="#000000" stroke-width="1" x1="40" y1="14" x2="947" y2="14"/>
<line opacity="0.2" stroke="#000000" stroke-width="1" x1="40" y1="579" x2="40" y2="9"/>
<line opacity="0.2" stroke="#000000" stroke-width="1" x1="136" y1="579" x2="136" y2="9"/>
<line opacity="0.2" stroke="#000000" stroke-width="1" x1="232" y1="579" x2="232" y2="9"/>
<line opacity="0.2" stroke="#000000" stroke-width="1" x1="328" y1="579" x2="328" y2="9"/>
<line opacity="0.2" stroke="#000000" stroke-width="1" x1="424" y1="579" x2="424" y2="9"/>
<line opacity="0.2" stroke="#000000" stroke-width="1" x1="520" y1="579" x2="520" y2="9"/>
<line opacity="0.2" stroke="#000000" stroke-width="1" x1="616" y1="579" x2="616" y2="9"/>
<line opacity="0.2" stroke="#000000" stroke-width="1" x1="712" y1="579" x2="712" y2="9"/>
<line opacity="0.2" stroke="#000000" stroke-width="1" x1="808" y1="579" x2="808" y2="9"/>
<line opacity="0.2" stroke="#000000" stroke-width="1" x1="904" y1="579" x2="904" y2="9"/>
<line opacity="0.2" stroke="#000000" stroke-width="1" x1="40" y1="522" x2="947" y2="522"/>
<line opacity="0.2" stroke="#000000" stroke-width="1" x1="40" y1="466" x2="947" y2="466"/>
<line opacity="0.2" stroke="#000000" stroke-width="1" x1="40" y1="409" x2="947" y2="409"/>
<line opacity="0.2" stroke="#000000" stroke-width="1" x1="40" y1="353" x2="947" y2="353"/>
<line opacity="0.2" stroke="#000000" stroke-width="1" x1="40" y1="296" x2="947" y2="296"/>
<line opacity="0.2" stroke="#000000" stroke-width="1" x1="40" y1="240" x2="947" y2="240"/>
<line opacity="0.2" stroke="#000000" stroke-width="1" x1="40" y1="183" x2="947" y2="183"/>
<line opacity="0.2" stroke="#000000" stroke-width="1" x1="40" y1="127" x2="947" y2="127"/>
<line opacity="0.2" stroke="#000000" stroke-width="1" x1="40" y1="71" x2="947" y2="71"/>
<line opacity="0.2" stroke="#000000" stroke-width="1" x1="40" y1="14" x2="947" y2="14"/>
<polyline fill="none" opacity="1" stroke="#000000" stroke-width="1" points="39,10 39,580 "/>
<text x="30" y="522" dy="0.5ex" text-anchor="end" font-family="sans-serif" font-size="9.67741935483871" opacity="1" fill="#000000">
10%
</text>
<polyline fill="none" opacity="1" stroke="#000000" stroke-width="1" points="34,522 39,522 "/>
<text x="30" y="466" dy="0.5ex" text-anchor="end" font-family="sans-serif" font-size="9.67741935483871" opacity="1" fill="#000000">
20%
</text>
<polyline fill="none" opacity="1" stroke="#000000" stroke-width="1" points="34,466 39,466 "/>
<text x="30" y="409" dy="0.5ex" text-anchor="end" font-family="sans-serif" font-size="9.67741935483871" opacity="1" fill="#000000">
30%
</text>
<polyline fill="none" opacity="1" stroke="#000000" stroke-width="1" points="34,409 39,409 "/>
<text x="30" y="353" dy="0.5ex" text-anchor="end" font-family="sans-serif" font-size="9.67741935483871" opacity="1" fill="#000000">
40%
</text>
<polyline fill="none" opacity="1" stroke="#000000" stroke-width="1" points="34,353 39,353 "/>
<text x="30" y="296" dy="0.5ex" text-anchor="end" font-family="sans-serif" font-size="9.67741935483871" opacity="1" fill="#000000">
50%
</text>
<polyline fill="none" opacity="1" stroke="#000000" stroke-width="1" points="34,296 39,296 "/>
<text x="30" y="240" dy="0.5ex" text-anchor="end" font-family="sans-serif" font-size="9.67741935483871" opacity="1" fill="#000000">
60%
</text>
<polyline fill="none" opacity="1" stroke="#000000" stroke-width="1" points="34,240 39,240 "/>
<text x="30" y="183" dy="0.5ex" text-anchor="end" font-family="sans-serif" font-size="9.67741935483871" opacity="1" fill="#000000">
70%
</text>
<polyline fill="none" opacity="1" stroke="#000000" stroke-width="1" points="34,183 39,183 "/>
<text x="30" y="127" dy="0.5ex" text-anchor="end" font-family="sans-serif" font-size="9.67741935483871" opacity="1" fill="#000000">
80%
</text>
<polyline fill="none" opacity="1" stroke="#000000" stroke-width="1" points="34,127 39,127 "/>
<text x="30" y="71" dy="0.5ex" text-anchor="end" font-family="sans-serif" font-size="9.67741935483871" opacity="1" fill="#000000">
90%
</text>
<polyline fill="none" opacity="1" stroke="#000000" stroke-width="1" points="34,71 39,71 "/>
<text x="30" y="14" dy="0.5ex" text-anchor="end" font-family="sans-serif" font-size="9.67741935483871" opacity="1" fill="#000000">
100%
</text>
<polyline fill="none" opacity="1" stroke="#000000" stroke-width="1" points="34,14 39,14 "/>
<polyline fill="none" opacity="1" stroke="#000000" stroke-width="1" points="40,580 947,580 "/>
<text x="40" y="590" dy="0.76em" text-anchor="middle" font-family="sans-serif" font-size="9.67741935483871" opacity="1" fill="#000000">
2019-03-16
</text>
<polyline fill="none" opacity="1" stroke="#000000" stroke-width="1" points="40,580 40,585 "/>
<text x="136" y="590" dy="0.76em" text-anchor="middle" font-family="sans-serif" font-size="9.67741935483871" opacity="1" fill="#000000">
2019-05-04
</text>
<polyline fill="none" opacity="1" stroke="#000000" stroke-width="1" points="136,580 136,585 "/>
<text x="232" y="590" dy="0.76em" text-anchor="middle" font-family="sans-serif" font-size="9.67741935483871" opacity="1" fill="#000000">
2019-06-22
</text>
<polyline fill="none" opacity="1" stroke="#000000" stroke-width="1" points="232,580 232,585 "/>
<text x="328" y="590" dy="0.76em" text-anchor="middle" font-family="sans-serif" font-size="9.67741935483871" opacity="1" fill="#000000">
2019-08-10
</text>
<polyline fill="none" opacity="1" stroke="#000000" stroke-width="1" points="328,580 328,585 "/>
<text x="424" y="590" dy="0.76em" text-anchor="middle" font-family="sans-serif" font-size="9.67741935483871" opacity="1" fill="#000000">
2019-09-28
</text>
<polyline fill="none" opacity="1" stroke="#000000" stroke-width="1" points="424,580 424,585 "/>
<text x="520" y="590" dy="0.76em" text-anchor="middle" font-family="sans-serif" font-size="9.67741935483871" opacity="1" fill="#000000">
2019-11-16
</text>
<polyline fill="none" opacity="1" stroke="#000000" stroke-width="1" points="520,580 520,585 "/>
<text x="616" y="590" dy="0.76em" text-anchor="middle" font-family="sans-serif" font-size="9.67741935483871" opacity="1" fill="#000000">
2020-01-04
</text>
<polyline fill="none" opacity="1" stroke="#000000" stroke-width="1" points="616,580 616,585 "/>
<text x="712" y="590" dy="0.76em" text-anchor="middle" font-family="sans-serif" font-size="9.67741935483871" opacity="1" fill="#000000">
2020-02-22
</text>
<polyline fill="none" opacity="1" stroke="#000000" stroke-width="1" points="712,580 712,585 "/>
<text x="808" y="590" dy="0.76em" text-anchor="middle" font-family="sans-serif" font-size="9.67741935483871" opacity="1" fill="#000000">
2020-04-11
</text>
<polyline fill="none" opacity="1" stroke="#000000" stroke-width="1" points="808,580 808,585 "/>
<text x="904" y="590" dy="0.76em" text-anchor="middle" font-family="sans-serif" font-size="9.67741935483871" opacity="1" fill="#000000">
2020-05-30
</text>
<polyline fill="none" opacity="1" stroke="#000000" stroke-width="1" points="904,580 904,585 "/>
<polyline fill="none" opacity="1" stroke="#FF0000" stroke-width="1" points="40,578 40,578 49,576 50,575 195,575 200,575 202,575 207,575 211,575 220,573 288,572 289,572 535,571 550,570 585,570 602,569 618,569 618,568 644,568 663,568 672,567 759,567 761,566 763,566 772,566 774,565 775,565 777,564 779,563 782,562 785,562 787,561 788,561 791,560 794,559 796,559 799,558 800,558 803,557 805,557 808,556 810,555 810,555 812,555 814,554 816,554 818,553 820,553 823,552 826,551 828,551 830,550 832,550 835,549 835,549 839,548 840,548 842,547 843,547 847,546 847,546 851,545 853,544 855,544 857,543 859,543 861,542 865,541 867,541 869,540 871,540 873,539 876,538 878,538 880,537 882,537 884,536 886,536 888,535 891,534 893,534 895,533 897,533 899,533 901,532 903,532 905,531 907,531 909,530 911,530 913,529 915,529 917,528 919,528 923,527 925,526 927,526 929,525 930,525 933,524 935,524 937,523 938,523 940,522 942,522 945,521 947,521 "/>
</svg>
