<svg width="987" height="610" viewBox="0 0 987 610" xmlns="http://www.w3.org/2000/svg">
<line opacity="0.1" stroke="#000000" stroke-width="1" x1="40" y1="579" x2="40" y2="9"/>
<line opacity="0.1" stroke="#000000" stroke-width="1" x1="50" y1="579" x2="50" y2="9"/>
<line opacity="0.1" stroke="#000000" stroke-width="1" x1="61" y1="579" x2="61" y2="9"/>
<line opacity="0.1" stroke="#000000" stroke-width="1" x1="72" y1="579" x2="72" y2="9"/>
<line opacity="0.1" stroke="#000000" stroke-width="1" x1="82" y1="579" x2="82" y2="9"/>
<line opacity="0.1" stroke="#000000" stroke-width="1" x1="93" y1="579" x2="93" y2="9"/>
<line opacity="0.1" stroke="#000000" stroke-width="1" x1="104" y1="579" x2="104" y2="9"/>
<line opacity="0.1" stroke="#000000" stroke-width="1" x1="115" y1="579" x2="115" y2="9"/>
<line opacity="0.1" stroke="#000000" stroke-width="1" x1="125" y1="579" x2="125" y2="9"/>
<line opacity="0.1" stroke="#000000" stroke-width="1" x1="136" y1="579" x2="136" y2="9"/>
<line opacity="0.1" stroke="#000000" stroke-width="1" x1="147" y1="579" x2="147" y2="9"/>
<line opacity="0.1" stroke="#000000" stroke-width="1" x1="158" y1="579" x2="158" y2="9"/>
<line opacity="0.1" stroke="#000000" stroke-width="1" x1="168" y1="579" x2="168" y2="9"/>
<line opacity="0.1" stroke="#000000" stroke-width="1" x1="179" y1="579" x2="179" y2="9"/>
<line opacity="0.1" stroke="#000000" stroke-width="1" x1="190" y1="579" x2="190" y2="9"/>
<line opacity="0.1" stroke="#000000" stroke-width="1" x1="200" y1="579" x2="200" y2="9"/>
<line opacity="0.1" stroke="#000000" stroke-width="1" x1="211" y1="579" x2="211" y2="9"/>
<line opacity="0.1" stroke="#000000" stroke-width="1" x1="222" y1="579" x2="222" y2="9"/>
<line opacity="0.1" stroke="#000000" stroke-width="1" x1="233" y1="579" x2="233" y2="9"/>
<line opacity="0.1" stroke="#000000" stroke-width="1" x1="243" y1="579" x2="243" y2="9"/>
<line opacity="0.1" stroke="#000000" stroke-width="1" x1="254" y1="579" x2="254" y2="9"/>
<line opacity="0.1" stroke="#000000" stroke-width="1" x1="265" y1="579" x2="265" y2="9"/>
<line opacity="0.1" stroke="#000000" stroke-width="1" x1="276" y1="579" x2="276" y2="9"/>
<line opacity="0.1" stroke="#000000" stroke-width="1" x1="286" y1="579" x2="286" y2="9"/>
<line opacity="0.1" stroke="#000000" stroke-width="1" x1="297" y1="579" x2="297" y2="9"/>
<line opacity="0.1" stroke="#000000" stroke-width="1" x1="308" y1="579" x2="308" y2="9"/>
<line opacity="0.1" stroke="#000000" stroke-width="1" x1="319" y1="579" x2="319" y2="9"/>
<line opacity="0.1" stroke="#000000" stroke-width="1" x1="329" y1="579" x2="329" y2="9"/>
<line opacity="0.1" stroke="#000000" stroke-width="1" x1="340" y1="579" x2="340" y2="9"/>
<line opacity="0.1" stroke="#000000" stroke-width="1" x1="351" y1="579" x2="351" y2="9"/>
<line opacity="0.1" stroke="#000000" stroke-width="1" x1="361" y1="579" x2="361" y2="9"/>
<line opacity="0.1" stroke="#000000" stroke-width="1" x1="372" y1="579" x2="372" y2="9"/>
<line opacity="0.1" stroke="#000000" stroke-width="1" x1="383" y1="579" x2="383" y2="9"/>
<line opacity="0.1" stroke="#000000" stroke-width="1" x1="394" y1="579" x2="394" y2="9"/>
<line opacity="0.1" stroke="#000000" stroke-width="1" x1="404" y1="579" x2="404" y2="9"/>
<line opacity="0.1" stroke="#000000" stroke-width="1" x1="415" y1="579" x2="415" y2="9"/>
<line opacity="0.1" stroke="#000000" stroke-width="1" x1="426" y1="579" x2="426" y2="9"/>
<line opacity="0.1" stroke="#000000" stroke-width="1" x1="437" y1="579" x2="437" y2="9"/>
<line opacity="0.1" stroke="#000000" stroke-width="1" x1="447" y1="579" x2="447" y2="9"/>
<line opacity="0.1" stroke="#000000" stroke-width="1" x1="458" y1="579" x2="458" y2="9"/>
<line opacity="0.1" stroke="#000000" stroke-width="1" x1="469" y1="579" x2="469" y2="9"/>
<line opacity="0.1" stroke="#000000" stroke-width="1" x1="479" y1="579" x2="479" y2="9"/>
<line opacity="0.1" stroke="#000000" stroke-width="1" x1="490" y1="579" x2="490" y2="9"/>
<line opacity="0.1" stroke="#000000" stroke-width="1" x1="501" y1="579" x2="501" y2="9"/>
<line opacity="0.1" stroke="#000000" stroke-width="1" x1="512" y1="579" x2="512" y2="9"/>
<line opacity="0.1" stroke="#000000" stroke-width="1" x1="522" y1="579" x2="522" y2="9"/>
<line opacity="0.1" stroke="#000000" stroke-width="1" x1="533" y1="579" x2="533" y2="9"/>
<line opacity="0.1" stroke="#000000" stroke-width="1" x1="544" y1="579" x2="544" y2="9"/>
<line opacity="0.1" stroke="#000000" stroke-width="1" x1="555" y1="579" x2="555" y2="9"/>
<line opacity="0.1" stroke="#000000" stroke-width="1" x1="565" y1="579" x2="565" y2="9"/>
<line opacity="0.1" stroke="#000000" stroke-width="1" x1="576" y1="579" x2="576" y2="9"/>
<line opacity="0.1" stroke="#000000" stroke-width="1" x1="587" y1="579" x2="587" y2="9"/>
<line opacity="0.1" stroke="#000000" stroke-width="1" x1="598" y1="579" x2="598" y2="9"/>
<line opacity="0.1" stroke="#000000" stroke-width="1" x1="608" y1="579" x2="608" y2="9"/>
<line opacity="0.1" stroke="#000000" stroke-width="1" x1="619" y1="579" x2="619" y2="9"/>
<line opacity="0.1" stroke="#000000" stroke-width="1" x1="630" y1="579" x2="630" y2="9"/>
<line opacity="0.1" stroke="#000000" stroke-width="1" x1="640" y1="579" x2="640" y2="9"/>
<line opacity="0.1" stroke="#000000" stroke-width="1" x1="651" y1="579" x2="651" y2="9"/>
<line opacity="0.1" stroke="#000000" stroke-width="1" x1="662" y1="579" x2="662" y2="9"/>
<line opacity="0.1" stroke="#000000" stroke-width="1" x1="673" y1="579" x2="673" y2="9"/>
<line opacity="0.1" stroke="#000000" stroke-width="1" x1="683" y1="579" x2="683" y2="9"/>
<line opacity="0.1" stroke="#000000" stroke-width="1" x1="694" y1="579" x2="694" y2="9"/>
<line opacity="0.1" stroke="#000000" stroke-width="1" x1="705" y1="579" x2="705" y2="9"/>
<line opacity="0.1" stroke="#000000" stroke-width="1" x1="716" y1="579" x2="716" y2="9"/>
<line opacity="0.1" stroke="#000000" stroke-width="1" x1="726" y1="579" x2="726" y2="9"/>
<line opacity="0.1" stroke="#000000" stroke-width="1" x1="737" y1="579" x2="737" y2="9"/>
<line opacity="0.1" stroke="#000000" stroke-width="1" x1="748" y1="579" x2="748" y2="9"/>
<line opacity="0.1" stroke="#000000" stroke-width="1" x1="758" y1="579" x2="758" y2="9"/>
<line opacity="0.1" stroke="#000000" stroke-width="1" x1="769" y1="579" x2="769" y2="9"/>
<line opacity="0.1" stroke="#000000" stroke-width="1" x1="780" y1="579" x2="780" y2="9"/>
<line opacity="0.1" stroke="#000000" stroke-width="1" x1="791" y1="579" x2="791" y2="9"/>
<line opacity="0.1" stroke="#000000" stroke-width="1" x1="801" y1="579" x2="801" y2="9"/>
<line opacity="0.1" stroke="#000000" stroke-width="1" x1="812" y1="579" x2="812" y2="9"/>
<line opacity="0.1" stroke="#000000" stroke-width="1" x1="823" y1="579" x2="823" y2="9"/>
<line opacity="0.1" stroke="#000000" stroke-width="1" x1="834" y1="579" x2="834" y2="9"/>
<line opacity="0.1" stroke="#000000" stroke-width="1" x1="844" y1="579" x2="844" y2="9"/>
<line opacity="0.1" stroke="#000000" stroke-width="1" x1="855" y1="579" x2="855" y2="9"/>
<line opacity="0.1" stroke="#000000" stroke-width="1" x1="866" y1="579" x2="866" y2="9"/>
<line opacity="0.1" stroke="#000000" stroke-width="1" x1="877" y1="579" x2="877" y2="9"/>
<line opacity="0.1" stroke="#000000" stroke-width="1" x1="887" y1="579" x2="887" y2="9"/>
<line opacity="0.1" stroke="#000000" stroke-width="1" x1="898" y1="579" x2="898" y2="9"/>
<line opacity="0.1" stroke="#000000" stroke-width="1" x1="909" y1="579" x2="909" y2="9"/>
<line opacity="0.1" stroke="#000000" stroke-width="1" x1="919" y1="579" x2="919" y2="9"/>
<line opacity="0.1" stroke="#000000" stroke-width="1" x1="930" y1="579" x2="930" y2="9"/>
<line opacity="0.1" stroke="#000000" stroke-width="1" x1="941" y1="579" x2="941" y2="9"/>
<line opacity="0.1" stroke="#000000" stroke-width="1" x1="40" y1="567" x2="947" y2="567"/>
<line opacity="0.1" stroke="#000000" stroke-width="1" x1="40" y1="556" x2="947" y2="556"/>
<line opacity="0.1" stroke="#000000" stroke-width="1" x1="40" y1="545" x2="947" y2="545"/>
<line opacity="0.1" stroke="#000000" stroke-width="1" x1="40" y1="533" x2="947" y2="533"/>
<line opacity="0.1" stroke="#000000" stroke-width="1" x1="40" y1="522" x2="947" y2="522"/>
<line opacity="0.1" stroke="#000000" stroke-width="1" x1="40" y1="511" x2="947" y2="511"/>
<line opacity="0.1" stroke="#000000" stroke-width="1" x1="40" y1="499" x2="947" y2="499"/>
<line opacity="0.1" stroke="#000000" stroke-width="1" x1="40" y1="488" x2="947" y2="488"/>
<line opacity="0.1" stroke="#000000" stroke-width="1" x1="40" y1="477" x2="947" y2="477"/>
<line opacity="0.1" stroke="#000000" stroke-width="1" x1="40" y1="466" x2="947" y2="466"/>
<line opacity="0.1" stroke="#000000" stroke-width="1" x1="40" y1="454" x2="947" y2="454"/>
<line opacity="0.1" stroke="#000000" stroke-width="1" x1="40" y1="443" x2="947" y2="443"/>
<line opacity="0.1" stroke="#000000" stroke-width="1" x1="40" y1="432" x2="947" y2="432"/>
<line opacity="0.1" stroke="#000000" stroke-width="1" x1="40" y1="420" x2="947" y2="420"/>
<line opacity="0.1" stroke="#000000" stroke-width="1" x1="40" y1="409" x2="947" y2="409"/>
<line opacity="0.1" stroke="#000000" stroke-width="1" x1="40" y1="398" x2="947" y2="398"/>
<line opacity="0.1" stroke="#000000" stroke-width="1" x1="40" y1="387" x2="947" y2="387"/>
<line opacity="0.1" stroke="#000000" stroke-width="1" x1="40" y1="375" x2="947" y2="375"/>
<line opacity="0.1" stroke="#000000" stroke-width="1" x1="40" y1="364" x2="947" y2="364"/>
<line opacity="0.1" stroke="#000000" stroke-width="1" x1="40" y1="353" x2="947" y2="353"/>
<line opacity="0.1" stroke="#000000" stroke-width="1" x1="40" y1="341" x2="947" y2="341"/>
<line opacity="0.1" stroke="#000000" stroke-width="1" x1="40" y1="330" x2="947" y2="330"/>
<line opacity="0.1" stroke="#000000" stroke-width="1" x1="40" y1="319" x2="947" y2="319"/>
<line opacity="0.1" stroke="#000000" stroke-width="1" x1="40" y1="308" x2="947" y2="308"/>
<line opacity="0.1" stroke="#000000" stroke-width="1" x1="40" y1="296" x2="947" y2="296"/>
<line opacity="0.1" stroke="#000000" stroke-width="1" x1="40" y1="285" x2="947" y2="285"/>
<line opacity="0.1" stroke="#000000" stroke-width="1" x1="40" y1="274" x2="947" y2="274"/>
<line opacity="0.1" stroke="#000000" stroke-width="1" x1="40" y1="262" x2="947" y2="262"/>
<line opacity="0.1" stroke="#000000" stroke-width="1" x1="40" y1="251" x2="947" y2="251"/>
<line opacity="0.1" stroke="#000000" stroke-width="1" x1="40" y1="240" x2="947" y2="240"/>
<line opacity="0.1" stroke="#000000" stroke-width="1" x1="40" y1="229" x2="947" y2="229"/>
<line opacity="0.1" stroke="#000000" stroke-width="1" x1="40" y1="217" x2="947" y2="217"/>
<line opacity="0.1" stroke="#000000" stroke-width="1" x1="40" y1="206" x2="947" y2="206"/>
<line opacity="0.1" stroke="#000000" stroke-width="1" x1="40" y1="195" x2="947" y2="195"/>
<line opacity="0.1" stroke="#000000" stroke-width="1" x1="40" y1="183" x2="947" y2="183"/>
<line opacity="0.1" stroke="#000000" stroke-width="1" x1="40" y1="172" x2="947" y2="172"/>
<line opacity="0.1" stroke="#000000" stroke-width="1" x1="40" y1="161" x2="947" y2="161"/>
<line opacity="0.1" stroke="#000000" stroke-width="1" x1="40" y1="150" x2="947" y2="150"/>
<line opacity="0.1" stroke="#000000" stroke-width="1" x1="40" y1="138" x2="947" y2="138"/>
<line opacity="0.1" stroke="#000000" stroke-width="1" x1="40" y1="127" x2="947" y2="127"/>
<line opacity="0.1" stroke="#000000" stroke-width="1" x1="40" y1="116" x2="947" y2="116"/>
<line opacity="0.1" stroke="#000000" stroke-width="1" x1="40" y1="104" x2="947" y2="104"/>
<line opacity="0.1" stroke="#000000" stroke-width="1" x1="40" y1="93" x2="947" y2="93"/>
<line opacity="0.1" stroke="#000000" stroke-width="1" x1="40" y1="82" x2="947" y2="82"/>
<line opacity="0.1" stroke="#000000" stroke-width="1" x1="40" y1="71" x2="947" y2="71"/>
<line opacity="0.1" stroke="#000000" stroke-width="1" x1="40" y1="59" x2="947" y2="59"/>
<line opacity="0.1" stroke="#000000" stroke-width="1" x1="40" y1="48" x2="947" y2="48"/>
<line opacity="0.1" stroke="#000000" stroke-width="1" x1="40" y1="37" x2="947" y2="37"/>
<line opacity="0.1" stroke="#000000" stroke-width="1" x1="40" y1="25" x2="947" y2="25"/>
<line opacity="0.1" stroke="#000000" stroke-width="1" x1="40" y1="14" x2="947" y2="14"/>
<line opacity="0.2" stroke="#000000" stroke-width="1" x1="40" y1="579" x2="40" y2="9"/>
<line opacity="0.2" stroke="#000000" stroke-width="1" x1="136" y1="579" x2="136" y2="9"/>
<line opacity="0.2" stroke="#000000" stroke-width="1" x1="233" y1="579" x2="233" y2="9"/>
<line opacity="0.2" stroke="#000000" stroke-width="1" x1="329" y1="579" x2="329" y2="9"/>
<line opacity="0.2" stroke="#000000" stroke-width="1" x1="426" y1="579" x2="426" y2="9"/>
<line opacity="0.2" stroke="#000000" stroke-width="1" x1="522" y1="579" x2="522" y2="9"/>
<line opacity="0.2" stroke="#000000" stroke-width="1" x1="619" y1="579" x2="619" y2="9"/>
<line opacity="0.2" stroke="#000000" stroke-width="1" x1="716" y1="579" x2="716" y2="9"/>
<line opacity="0.2" stroke="#000000" stroke-width="1" x1="812" y1="579" x2="812" y2="9"/>
<line opacity="0.2" stroke="#000000" stroke-width="1" x1="909" y1="579" x2="909" y2="9"/>
<line opacity="0.2" stroke="#000000" stroke-width="1" x1="40" y1="522" x2="947" y2="522"/>
<line opacity="0.2" stroke="#000000" stroke-width="1" x1="40" y1="466" x2="947" y2="466"/>
<line opacity="0.2" stroke="#000000" stroke-width="1" x1="40" y1="409" x2="947" y2="409"/>
<line opacity="0.2" stroke="#000000" stroke-width="1" x1="40" y1="353" x2="947" y2="353"/>
<line opacity="0.2" stroke="#000000" stroke-width="1" x1="40" y1="296" x2="947" y2="296"/>
<line opacity="0.2" stroke="#000000" stroke-width="1" x1="40" y1="240" x2="947" y2="240"/>
<line opacity="0.2" stroke="#000000" stroke-width="1" x1="40" y1="183" x2="947" y2="183"/>
<line opacity="0.2" stroke="#000000" stroke-width="1" x1="40" y1="127" x2="947" y2="127"/>
<line opacity="0.2" stroke="#000000" stroke-width="1" x1="40" y1="71" x2="947" y2="71"/>
<line opacity="0.2" stroke="#000000" stroke-width="1" x1="40" y1="14" x2="947" y2="14"/>
<polyline fill="none" opacity="1" stroke="#000000" stroke-width="1" points="39,10 39,580 "/>
<text x="30" y="522" dy="0.5ex" text-anchor="end" font-family="sans-serif" font-size="9.67741935483871" opacity="1" fill="#000000">
10%
</text>
<polyline fill="none" opacity="1" stroke="#000000" stroke-width="1" points="34,522 39,522 "/>
<text x="30" y="466" dy="0.5ex" text-anchor="end" font-family="sans-serif" font-size="9.67741935483871" opacity="1" fill="#000000">
20%
</text>
<polyline fill="none" opacity="1" stroke="#000000" stroke-width="1" points="34,466 39,466 "/>
<text x="30" y="409" dy="0.5ex" text-anchor="end" font-family="sans-serif" font-size="9.67741935483871" opacity="1" fill="#000000">
30%
</text>
<polyline fill="none" opacity="1" stroke="#000000" stroke-width="1" points="34,409 39,409 "/>
<text x="30" y="353" dy="0.5ex" text-anchor="end" font-family="sans-serif" font-size="9.67741935483871" opacity="1" fill="#000000">
40%
</text>
<polyline fill="none" opacity="1" stroke="#000000" stroke-width="1" points="34,353 39,353 "/>
<text x="30" y="296" dy="0.5ex" text-anchor="end" font-family="sans-serif" font-size="9.67741935483871" opacity="1" fill="#000000">
50%
</text>
<polyline fill="none" opacity="1" stroke="#000000" stroke-width="1" points="34,296 39,296 "/>
<text x="30" y="240" dy="0.5ex" text-anchor="end" font-family="sans-serif" font-size="9.67741935483871" opacity="1" fill="#000000">
60%
</text>
<polyline fill="none" opacity="1" stroke="#000000" stroke-width="1" points="34,240 39,240 "/>
<text x="30" y="183" dy="0.5ex" text-anchor="end" font-family="sans-serif" font-size="9.67741935483871" opacity="1" fill="#000000">
70%
</text>
<polyline fill="none" opacity="1" stroke="#000000" stroke-width="1" points="34,183 39,183 "/>
<text x="30" y="127" dy="0.5ex" text-anchor="end" font-family="sans-serif" font-size="9.67741935483871" opacity="1" fill="#000000">
80%
</text>
<polyline fill="none" opacity="1" stroke="#000000" stroke-width="1" points="34,127 39,127 "/>
<text x="30" y="71" dy="0.5ex" text-anchor="end" font-family="sans-serif" font-size="9.67741935483871" opacity="1" fill="#000000">
90%
</text>
<polyline fill="none" opacity="1" stroke="#000000" stroke-width="1" points="34,71 39,71 "/>
<text x="30" y="14" dy="0.5ex" text-anchor="end" font-family="sans-serif" font-size="9.67741935483871" opacity="1" fill="#000000">
100%
</text>
<polyline fill="none" opacity="1" stroke="#000000" stroke-width="1" points="34,14 39,14 "/>
<polyline fill="none" opacity="1" stroke="#000000" stroke-width="1" points="40,580 947,580 "/>
<text x="40" y="590" dy="0.76em" text-anchor="middle" font-family="sans-serif" font-size="9.67741935483871" opacity="1" fill="#000000">
2019-03-16
</text>
<polyline fill="none" opacity="1" stroke="#000000" stroke-width="1" points="40,580 40,585 "/>
<text x="136" y="590" dy="0.76em" text-anchor="middle" font-family="sans-serif" font-size="9.67741935483871" opacity="1" fill="#000000">
2019-05-18
</text>
<polyline fill="none" opacity="1" stroke="#000000" stroke-width="1" points="136,580 136,585 "/>
<text x="233" y="590" dy="0.76em" text-anchor="middle" font-family="sans-serif" font-size="9.67741935483871" opacity="1" fill="#000000">
2019-07-20
</text>
<polyline fill="none" opacity="1" stroke="#000000" stroke-width="1" points="233,580 233,585 "/>
<text x="329" y="590" dy="0.76em" text-anchor="middle" font-family="sans-serif" font-size="9.67741935483871" opacity="1" fill="#000000">
2019-09-21
</text>
<polyline fill="none" opacity="1" stroke="#000000" stroke-width="1" points="329,580 329,585 "/>
<text x="426" y="590" dy="0.76em" text-anchor="middle" font-family="sans-serif" font-size="9.67741935483871" opacity="1" fill="#000000">
2019-11-23
</text>
<polyline fill="none" opacity="1" stroke="#000000" stroke-width="1" points="426,580 426,585 "/>
<text x="522" y="590" dy="0.76em" text-anchor="middle" font-family="sans-serif" font-size="9.67741935483871" opacity="1" fill="#000000">
2020-01-25
</text>
<polyline fill="none" opacity="1" stroke="#000000" stroke-width="1" points="522,580 522,585 "/>
<text x="619" y="590" dy="0.76em" text-anchor="middle" font-family="sans-serif" font-size="9.67741935483871" opacity="1" fill="#000000">
2020-03-28
</text>
<polyline fill="none" opacity="1" stroke="#000000" stroke-width="1" points="619,580 619,585 "/>
<text x="716" y="590" dy="0.76em" text-anchor="middle" font-family="sans-serif" font-size="9.67741935483871" opacity="1" fill="#000000">
2020-05-30
</text>
<polyline fill="none" opacity="1" stroke="#000000" stroke-width="1" points="716,580 716,585 "/>
<text x="812" y="590" dy="0.76em" text-anchor="middle" font-family="sans-serif" font-size="9.67741935483871" opacity="1" fill="#000000">
2020-08-01
</text>
<polyline fill="none" opacity="1" stroke="#000000" stroke-width="1" points="812,580 812,585 "/>
<text x="909" y="590" dy="0.76em" text-anchor="middle" font-family="sans-serif" font-size="9.67741935483871" opacity="1" fill="#000000">
2020-10-03
</text>
<polyline fill="none" opacity="1" stroke="#000000" stroke-width="1" points="909,580 909,585 "/>
<polyline fill="none" opacity="1" stroke="#FF0000" stroke-width="1" points="40,578 40,578 47,576 48,575 161,575 165,575 166,575 170,575 173,575 181,574 234,572 235,572 427,571 438,571 466,570 479,570 492,569 492,569 512,569 527,569 534,568 602,568 604,567 606,567 612,567 614,566 615,566 616,565 618,565 620,564 622,563 624,563 625,562 627,562 629,561 631,561 633,560 635,560 637,559 638,559 640,558 642,557 642,557 644,557 645,556 647,556 648,556 650,555 652,554 655,554 656,553 658,553 659,552 662,551 662,551 664,551 665,551 667,550 668,550 671,549 671,549 674,548 675,547 677,547 679,547 681,546 682,546 685,545 687,544 688,544 690,543 691,543 694,542 695,542 697,541 698,541 700,540 701,540 703,539 706,538 707,538 709,538 710,537 712,537 713,536 715,536 717,535 718,535 720,534 721,534 723,533 724,533 726,533 727,532 730,531 732,531 733,530 735,530 736,529 738,529 740,529 741,528 743,528 744,527 746,527 748,526 749,526 750,525 752,525 753,524 755,524 756,524 758,523 760,523 761,522 763,522 764,521 766,521 767,520 769,520 771,519 772,519 773,519 775,518 776,518 778,517 779,517 781,516 782,516 784,515 786,515 787,515 789,514 790,514 792,513 793,513 795,512 796,512 798,511 799,511 801,510 803,510 804,510 805,509 807,509 809,508 810,508 812,507 813,507 815,506 816,506 818,506 819,505 821,505 823,504 824,504 825,503 827,503 829,502 830,502 832,501 833,501 835,501 836,500 838,500 841,499 842,498 844,498 847,497 848,497 850,496 851,496 853,495 854,495 858,494 859,493 861,493 862,492 864,492 865,492 868,491 870,490 871,490 873,489 874,489 876,488 879,488 881,487 882,487 884,486 885,486 887,485 890,484 891,484 893,483 894,483 896,483 898,482 899,482 901,481 902,481 904,480 907,479 908,479 910,479 912,478 913,478 914,477 916,477 918,476 919,476 921,475 922,475 923,474 925,474 927,474 928,473 930,473 933,472 934,471 936,471 937,470 939,470 940,470 942,469 943,469 945,468 946,468 "/>
</svg>
