<svg width="987" height="610" viewBox="0 0 987 610" xmlns="http://www.w3.org/2000/svg">
<line opacity="0.1" stroke="#000000" stroke-width="1" x1="40" y1="579" x2="40" y2="9"/>
<line opacity="0.1" stroke="#000000" stroke-width="1" x1="51" y1="579" x2="51" y2="9"/>
<line opacity="0.1" stroke="#000000" stroke-width="1" x1="63" y1="579" x2="63" y2="9"/>
<line opacity="0.1" stroke="#000000" stroke-width="1" x1="75" y1="579" x2="75" y2="9"/>
<line opacity="0.1" stroke="#000000" stroke-width="1" x1="87" y1="579" x2="87" y2="9"/>
<line opacity="0.1" stroke="#000000" stroke-width="1" x1="99" y1="579" x2="99" y2="9"/>
<line opacity="0.1" stroke="#000000" stroke-width="1" x1="111" y1="579" x2="111" y2="9"/>
<line opacity="0.1" stroke="#000000" stroke-width="1" x1="123" y1="579" x2="123" y2="9"/>
<line opacity="0.1" stroke="#000000" stroke-width="1" x1="135" y1="579" x2="135" y2="9"/>
<line opacity="0.1" stroke="#000000" stroke-width="1" x1="146" y1="579" x2="146" y2="9"/>
<line opacity="0.1" stroke="#000000" stroke-width="1" x1="158" y1="579" x2="158" y2="9"/>
<line opacity="0.1" stroke="#000000" stroke-width="1" x1="170" y1="579" x2="170" y2="9"/>
<line opacity="0.1" stroke="#000000" stroke-width="1" x1="182" y1="579" x2="182" y2="9"/>
<line opacity="0.1" stroke="#000000" stroke-width="1" x1="194" y1="579" x2="194" y2="9"/>
<line opacity="0.1" stroke="#000000" stroke-width="1" x1="206" y1="579" x2="206" y2="9"/>
<line opacity="0.1" stroke="#000000" stroke-width="1" x1="218" y1="579" x2="218" y2="9"/>
<line opacity="0.1" stroke="#000000" stroke-width="1" x1="230" y1="579" x2="230" y2="9"/>
<line opacity="0.1" stroke="#000000" stroke-width="1" x1="241" y1="579" x2="241" y2="9"/>
<line opacity="0.1" stroke="#000000" stroke-width="1" x1="253" y1="579" x2="253" y2="9"/>
<line opacity="0.1" stroke="#000000" stroke-width="1" x1="265" y1="579" x2="265" y2="9"/>
<line opacity="0.1" stroke="#000000" stroke-width="1" x1="277" y1="579" x2="277" y2="9"/>
<line opacity="0.1" stroke="#000000" stroke-width="1" x1="289" y1="579" x2="289" y2="9"/>
<line opacity="0.1" stroke="#000000" stroke-width="1" x1="301" y1="579" x2="301" y2="9"/>
<line opacity="0.1" stroke="#000000" stroke-width="1" x1="313" y1="579" x2="313" y2="9"/>
<line opacity="0.1" stroke="#000000" stroke-width="1" x1="325" y1="579" x2="325" y2="9"/>
<line opacity="0.1" stroke="#000000" stroke-width="1" x1="336" y1="579" x2="336" y2="9"/>
<line opacity="0.1" stroke="#000000" stroke-width="1" x1="348" y1="579" x2="348" y2="9"/>
<line opacity="0.1" stroke="#000000" stroke-width="1" x1="360" y1="579" x2="360" y2="9"/>
<line opacity="0.1" stroke="#000000" stroke-width="1" x1="372" y1="579" x2="372" y2="9"/>
<line opacity="0.1" stroke="#000000" stroke-width="1" x1="384" y1="579" x2="384" y2="9"/>
<line opacity="0.1" stroke="#000000" stroke-width="1" x1="396" y1="579" x2="396" y2="9"/>
<line opacity="0.1" stroke="#000000" stroke-width="1" x1="408" y1="579" x2="408" y2="9"/>
<line opacity="0.1" stroke="#000000" stroke-width="1" x1="420" y1="579" x2="420" y2="9"/>
<line opacity="0.1" stroke="#000000" stroke-width="1" x1="431" y1="579" x2="431" y2="9"/>
<line opacity="0.1" stroke="#000000" stroke-width="1" x1="443" y1="579" x2="443" y2="9"/>
<line opacity="0.1" stroke="#000000" stroke-width="1" x1="455" y1="579" x2="455" y2="9"/>
<line opacity="0.1" stroke="#000000" stroke-width="1" x1="467" y1="579" x2="467" y2="9"/>
<line opacity="0.1" stroke="#000000" stroke-width="1" x1="479" y1="579" x2="479" y2="9"/>
<line opacity="0.1" stroke="#000000" stroke-width="1" x1="491" y1="579" x2="491" y2="9"/>
<line opacity="0.1" stroke="#000000" stroke-width="1" x1="503" y1="579" x2="503" y2="9"/>
<line opacity="0.1" stroke="#000000" stroke-width="1" x1="515" y1="579" x2="515" y2="9"/>
<line opacity="0.1" stroke="#000000" stroke-width="1" x1="526" y1="579" x2="526" y2="9"/>
<line opacity="0.1" stroke="#000000" stroke-width="1" x1="538" y1="579" x2="538" y2="9"/>
<line opacity="0.1" stroke="#000000" stroke-width="1" x1="550" y1="579" x2="550" y2="9"/>
<line opacity="0.1" stroke="#000000" stroke-width="1" x1="562" y1="579" x2="562" y2="9"/>
<line opacity="0.1" stroke="#000000" stroke-width="1" x1="574" y1="579" x2="574" y2="9"/>
<line opacity="0.1" stroke="#000000" stroke-width="1" x1="586" y1="579" x2="586" y2="9"/>
<line opacity="0.1" stroke="#000000" stroke-width="1" x1="598" y1="579" x2="598" y2="9"/>
<line opacity="0.1" stroke="#000000" stroke-width="1" x1="610" y1="579" x2="610" y2="9"/>
<line opacity="0.1" stroke="#000000" stroke-width="1" x1="621" y1="579" x2="621" y2="9"/>
<line opacity="0.1" stroke="#000000" stroke-width="1" x1="633" y1="579" x2="633" y2="9"/>
<line opacity="0.1" stroke="#000000" stroke-width="1" x1="645" y1="579" x2="645" y2="9"/>
<line opacity="0.1" stroke="#000000" stroke-width="1" x1="657" y1="579" x2="657" y2="9"/>
<line opacity="0.1" stroke="#000000" stroke-width="1" x1="669" y1="579" x2="669" y2="9"/>
<line opacity="0.1" stroke="#000000" stroke-width="1" x1="681" y1="579" x2="681" y2="9"/>
<line opacity="0.1" stroke="#000000" stroke-width="1" x1="693" y1="579" x2="693" y2="9"/>
<line opacity="0.1" stroke="#000000" stroke-width="1" x1="705" y1="579" x2="705" y2="9"/>
<line opacity="0.1" stroke="#000000" stroke-width="1" x1="716" y1="579" x2="716" y2="9"/>
<line opacity="0.1" stroke="#000000" stroke-width="1" x1="728" y1="579" x2="728" y2="9"/>
<line opacity="0.1" stroke="#000000" stroke-width="1" x1="740" y1="579" x2="740" y2="9"/>
<line opacity="0.1" stroke="#000000" stroke-width="1" x1="752" y1="579" x2="752" y2="9"/>
<line opacity="0.1" stroke="#000000" stroke-width="1" x1="764" y1="579" x2="764" y2="9"/>
<line opacity="0.1" stroke="#000000" stroke-width="1" x1="776" y1="579" x2="776" y2="9"/>
<line opacity="0.1" stroke="#000000" stroke-width="1" x1="788" y1="579" x2="788" y2="9"/>
<line opacity="0.1" stroke="#000000" stroke-width="1" x1="800" y1="579" x2="800" y2="9"/>
<line opacity="0.1" stroke="#000000" stroke-width="1" x1="811" y1="579" x2="811" y2="9"/>
<line opacity="0.1" stroke="#000000" stroke-width="1" x1="823" y1="579" x2="823" y2="9"/>
<line opacity="0.1" stroke="#000000" stroke-width="1" x1="835" y1="579" x2="835" y2="9"/>
<line opacity="0.1" stroke="#000000" stroke-width="1" x1="847" y1="579" x2="847" y2="9"/>
<line opacity="0.1" stroke="#000000" stroke-width="1" x1="859" y1="579" x2="859" y2="9"/>
<line opacity="0.1" stroke="#000000" stroke-width="1" x1="871" y1="579" x2="871" y2="9"/>
<line opacity="0.1" stroke="#000000" stroke-width="1" x1="883" y1="579" x2="883" y2="9"/>
<line opacity="0.1" stroke="#000000" stroke-width="1" x1="895" y1="579" x2="895" y2="9"/>
<line opacity="0.1" stroke="#000000" stroke-width="1" x1="906" y1="579" x2="906" y2="9"/>
<line opacity="0.1" stroke="#000000" stroke-width="1" x1="918" y1="579" x2="918" y2="9"/>
<line opacity="0.1" stroke="#000000" stroke-width="1" x1="930" y1="579" x2="930" y2="9"/>
<line opacity="0.1" stroke="#000000" stroke-width="1" x1="942" y1="579" x2="942" y2="9"/>
<line opacity="0.1" stroke="#000000" stroke-width="1" x1="40" y1="567" x2="947" y2="567"/>
<line opacity="0.1" stroke="#000000" stroke-width="1" x1="40" y1="556" x2="947" y2="556"/>
<line opacity="0.1" stroke="#000000" stroke-width="1" x1="40" y1="545" x2="947" y2="545"/>
<line opacity="0.1" stroke="#000000" stroke-width="1" x1="40" y1="533" x2="947" y2="533"/>
<line opacity="0.1" stroke="#000000" stroke-width="1" x1="40" y1="522" x2="947" y2="522"/>
<line opacity="0.1" stroke="#000000" stroke-width="1" x1="40" y1="511" x2="947" y2="511"/>
<line opacity="0.1" stroke="#000000" stroke-width="1" x1="40" y1="499" x2="947" y2="499"/>
<line opacity="0.1" stroke="#000000" stroke-width="1" x1="40" y1="488" x2="947" y2="488"/>
<line opacity="0.1" stroke="#000000" stroke-width="1" x1="40" y1="477" x2="947" y2="477"/>
<line opacity="0.1" stroke="#000000" stroke-width="1" x1="40" y1="466" x2="947" y2="466"/>
<line opacity="0.1" stroke="#000000" stroke-width="1" x1="40" y1="454" x2="947" y2="454"/>
<line opacity="0.1" stroke="#000000" stroke-width="1" x1="40" y1="443" x2="947" y2="443"/>
<line opacity="0.1" stroke="#000000" stroke-width="1" x1="40" y1="432" x2="947" y2="432"/>
<line opacity="0.1" stroke="#000000" stroke-width="1" x1="40" y1="420" x2="947" y2="420"/>
<line opacity="0.1" stroke="#000000" stroke-width="1" x1="40" y1="409" x2="947" y2="409"/>
<line opacity="0.1" stroke="#000000" stroke-width="1" x1="40" y1="398" x2="947" y2="398"/>
<line opacity="0.1" stroke="#000000" stroke-width="1" x1="40" y1="387" x2="947" y2="387"/>
<line opacity="0.1" stroke="#000000" stroke-width="1" x1="40" y1="375" x2="947" y2="375"/>
<line opacity="0.1" stroke="#000000" stroke-width="1" x1="40" y1="364" x2="947" y2="364"/>
<line opacity="0.1" stroke="#000000" stroke-width="1" x1="40" y1="353" x2="947" y2="353"/>
<line opacity="0.1" stroke="#000000" stroke-width="1" x1="40" y1="341" x2="947" y2="341"/>
<line opacity="0.1" stroke="#000000" stroke-width="1" x1="40" y1="330" x2="947" y2="330"/>
<line opacity="0.1" stroke="#000000" stroke-width="1" x1="40" y1="319" x2="947" y2="319"/>
<line opacity="0.1" stroke="#000000" stroke-width="1" x1="40" y1="308" x2="947" y2="308"/>
<line opacity="0.1" stroke="#000000" stroke-width="1" x1="40" y1="296" x2="947" y2="296"/>
<line opacity="0.1" stroke="#000000" stroke-width="1" x1="40" y1="285" x2="947" y2="285"/>
<line opacity="0.1" stroke="#000000" stroke-width="1" x1="40" y1="274" x2="947" y2="274"/>
<line opacity="0.1" stroke="#000000" stroke-width="1" x1="40" y1="262" x2="947" y2="262"/>
<line opacity="0.1" stroke="#000000" stroke-width="1" x1="40" y1="251" x2="947" y2="251"/>
<line opacity="0.1" stroke="#000000" stroke-width="1" x1="40" y1="240" x2="947" y2="240"/>
<line opacity="0.1" stroke="#000000" stroke-width="1" x1="40" y1="229" x2="947" y2="229"/>
<line opacity="0.1" stroke="#000000" stroke-width="1" x1="40" y1="217" x2="947" y2="217"/>
<line opacity="0.1" stroke="#000000" stroke-width="1" x1="40" y1="206" x2="947" y2="206"/>
<line opacity="0.1" stroke="#000000" stroke-width="1" x1="40" y1="195" x2="947" y2="195"/>
<line opacity="0.1" stroke="#000000" stroke-width="1" x1="40" y1="183" x2="947" y2="183"/>
<line opacity="0.1" stroke="#000000" stroke-width="1" x1="40" y1="172" x2="947" y2="172"/>
<line opacity="0.1" stroke="#000000" stroke-width="1" x1="40" y1="161" x2="947" y2="161"/>
<line opacity="0.1" stroke="#000000" stroke-width="1" x1="40" y1="150" x2="947" y2="150"/>
<line opacity="0.1" stroke="#000000" stroke-width="1" x1="40" y1="138" x2="947" y2="138"/>
<line opacity="0.1" stroke="#000000" stroke-width="1" x1="40" y1="127" x2="947" y2="127"/>
<line opacity="0.1" stroke="#000000" stroke-width="1" x1="40" y1="116" x2="947" y2="116"/>
<line opacity="0.1" stroke="#000000" stroke-width="1" x1="40" y1="104" x2="947" y2="104"/>
<line opacity="0.1" stroke="#000000" stroke-width="1" x1="40" y1="93" x2="947" y2="93"/>
<line opacity="0.1" stroke="#000000" stroke-width="1" x1="40" y1="82" x2="947" y2="82"/>
<line opacity="0.1" stroke="#000000" stroke-width="1" x1="40" y1="71" x2="947" y2="71"/>
<line opacity="0.1" stroke="#000000" stroke-width="1" x1="40" y1="59" x2="947" y2="59"/>
<line opacity="0.1" stroke="#000000" stroke-width="1" x1="40" y1="48" x2="947" y2="48"/>
<line opacity="0.1" stroke="#000000" stroke-width="1" x1="40" y1="37" x2="947" y2="37"/>
<line opacity="0.1" stroke="#000000" stroke-width="1" x1="40" y1="25" x2="947" y2="25"/>
<line opacity="0.1" stroke="#000000" stroke-width="1" x1="40" y1="14" x2="947" y2="14"/>
<line opacity="0.2" stroke="#000000" stroke-width="1" x1="40" y1="579" x2="40" y2="9"/>
<line opacity="0.2" stroke="#000000" stroke-width="1" x1="135" y1="579" x2="135" y2="9"/>
<line opacity="0.2" stroke="#000000" stroke-width="1" x1="230" y1="579" x2="230" y2="9"/>
<line opacity="0.2" stroke="#000000" stroke-width="1" x1="325" y1="579" x2="325" y2="9"/>
<line opacity="0.2" stroke="#000000" stroke-width="1" x1="420" y1="579" x2="420" y2="9"/>
<line opacity="0.2" stroke="#000000" stroke-width="1" x1="515" y1="579" x2="515" y2="9"/>
<line opacity="0.2" stroke="#000000" stroke-width="1" x1="610" y1="579" x2="610" y2="9"/>
<line opacity="0.2" stroke="#000000" stroke-width="1" x1="705" y1="579" x2="705" y2="9"/>
<line opacity="0.2" stroke="#000000" stroke-width="1" x1="800" y1="579" x2="800" y2="9"/>
<line opacity="0.2" stroke="#000000" stroke-width="1" x1="895" y1="579" x2="895" y2="9"/>
<line opacity="0.2" stroke="#000000" stroke-width="1" x1="40" y1="522" x2="947" y2="522"/>
<line opacity="0.2" stroke="#000000" stroke-width="1" x1="40" y1="466" x2="947" y2="466"/>
<line opacity="0.2" stroke="#000000" stroke-width="1" x1="40" y1="409" x2="947" y2="409"/>
<line opacity="0.2" stroke="#000000" stroke-width="1" x1="40" y1="353" x2="947" y2="353"/>
<line opacity="0.2" stroke="#000000" stroke-width="1" x1="40" y1="296" x2="947" y2="296"/>
<line opacity="0.2" stroke="#000000" stroke-width="1" x1="40" y1="240" x2="947" y2="240"/>
<line opacity="0.2" stroke="#000000" stroke-width="1" x1="40" y1="183" x2="947" y2="183"/>
<line opacity="0.2" stroke="#000000" stroke-width="1" x1="40" y1="127" x2="947" y2="127"/>
<line opacity="0.2" stroke="#000000" stroke-width="1" x1="40" y1="71" x2="947" y2="71"/>
<line opacity="0.2" stroke="#000000" stroke-width="1" x1="40" y1="14" x2="947" y2="14"/>
<polyline fill="none" opacity="1" stroke="#000000" stroke-width="1" points="39,10 39,580 "/>
<text x="30" y="522" dy="0.5ex" text-anchor="end" font-family="sans-serif" font-size="9.67741935483871" opacity="1" fill="#000000">
10%
</text>
<polyline fill="none" opacity="1" stroke="#000000" stroke-width="1" points="34,522 39,522 "/>
<text x="30" y="466" dy="0.5ex" text-anchor="end" font-family="sans-serif" font-size="9.67741935483871" opacity="1" fill="#000000">
20%
</text>
<polyline fill="none" opacity="1" stroke="#000000" stroke-width="1" points="34,466 39,466 "/>
<text x="30" y="409" dy="0.5ex" text-anchor="end" font-family="sans-serif" font-size="9.67741935483871" opacity="1" fill="#000000">
30%
</text>
<polyline fill="none" opacity="1" stroke="#000000" stroke-width="1" points="34,409 39,409 "/>
<text x="30" y="353" dy="0.5ex" text-anchor="end" font-family="sans-serif" font-size="9.67741935483871" opacity="1" fill="#000000">
40%
</text>
<polyline fill="none" opacity="1" stroke="#000000" stroke-width="1" points="34,353 39,353 "/>
<text x="30" y="296" dy="0.5ex" text-anchor="end" font-family="sans-serif" font-size="9.67741935483871" opacity="1" fill="#000000">
50%
</text>
<polyline fill="none" opacity="1" stroke="#000000" stroke-width="1" points="34,296 39,296 "/>
<text x="30" y="240" dy="0.5ex" text-anchor="end" font-family="sans-serif" font-size="9.67741935483871" opacity="1" fill="#000000">
60%
</text>
<polyline fill="none" opacity="1" stroke="#000000" stroke-width="1" points="34,240 39,240 "/>
<text x="30" y="183" dy="0.5ex" text-anchor="end" font-family="sans-serif" font-size="9.67741935483871" opacity="1" fill="#000000">
70%
</text>
<polyline fill="none" opacity="1" stroke="#000000" stroke-width="1" points="34,183 39,183 "/>
<text x="30" y="127" dy="0.5ex" text-anchor="end" font-family="sans-serif" font-size="9.67741935483871" opacity="1" fill="#000000">
80%
</text>
<polyline fill="none" opacity="1" stroke="#000000" stroke-width="1" points="34,127 39,127 "/>
<text x="30" y="71" dy="0.5ex" text-anchor="end" font-family="sans-serif" font-size="9.67741935483871" opacity="1" fill="#000000">
90%
</text>
<polyline fill="none" opacity="1" stroke="#000000" stroke-width="1" points="34,71 39,71 "/>
<text x="30" y="14" dy="0.5ex" text-anchor="end" font-family="sans-serif" font-size="9.67741935483871" opacity="1" fill="#000000">
100%
</text>
<polyline fill="none" opacity="1" stroke="#000000" stroke-width="1" points="34,14 39,14 "/>
<polyline fill="none" opacity="1" stroke="#000000" stroke-width="1" points="40,580 947,580 "/>
<text x="40" y="590" dy="0.76em" text-anchor="middle" font-family="sans-serif" font-size="9.67741935483871" opacity="1" fill="#000000">
2019-03-16
</text>
<polyline fill="none" opacity="1" stroke="#000000" stroke-width="1" points="40,580 40,585 "/>
<text x="135" y="590" dy="0.76em" text-anchor="middle" font-family="sans-serif" font-size="9.67741935483871" opacity="1" fill="#000000">
2019-05-11
</text>
<polyline fill="none" opacity="1" stroke="#000000" stroke-width="1" points="135,580 135,585 "/>
<text x="230" y="590" dy="0.76em" text-anchor="middle" font-family="sans-serif" font-size="9.67741935483871" opacity="1" fill="#000000">
2019-07-06
</text>
<polyline fill="none" opacity="1" stroke="#000000" stroke-width="1" points="230,580 230,585 "/>
<text x="325" y="590" dy="0.76em" text-anchor="middle" font-family="sans-serif" font-size="9.67741935483871" opacity="1" fill="#000000">
2019-08-31
</text>
<polyline fill="none" opacity="1" stroke="#000000" stroke-width="1" points="325,580 325,585 "/>
<text x="420" y="590" dy="0.76em" text-anchor="middle" font-family="sans-serif" font-size="9.67741935483871" opacity="1" fill="#000000">
2019-10-26
</text>
<polyline fill="none" opacity="1" stroke="#000000" stroke-width="1" points="420,580 420,585 "/>
<text x="515" y="590" dy="0.76em" text-anchor="middle" font-family="sans-serif" font-size="9.67741935483871" opacity="1" fill="#000000">
2019-12-21
</text>
<polyline fill="none" opacity="1" stroke="#000000" stroke-width="1" points="515,580 515,585 "/>
<text x="610" y="590" dy="0.76em" text-anchor="middle" font-family="sans-serif" font-size="9.67741935483871" opacity="1" fill="#000000">
2020-02-15
</text>
<polyline fill="none" opacity="1" stroke="#000000" stroke-width="1" points="610,580 610,585 "/>
<text x="705" y="590" dy="0.76em" text-anchor="middle" font-family="sans-serif" font-size="9.67741935483871" opacity="1" fill="#000000">
2020-04-11
</text>
<polyline fill="none" opacity="1" stroke="#000000" stroke-width="1" points="705,580 705,585 "/>
<text x="800" y="590" dy="0.76em" text-anchor="middle" font-family="sans-serif" font-size="9.67741935483871" opacity="1" fill="#000000">
2020-06-06
</text>
<polyline fill="none" opacity="1" stroke="#000000" stroke-width="1" points="800,580 800,585 "/>
<text x="895" y="590" dy="0.76em" text-anchor="middle" font-family="sans-serif" font-size="9.67741935483871" opacity="1" fill="#000000">
2020-08-01
</text>
<polyline fill="none" opacity="1" stroke="#000000" stroke-width="1" points="895,580 895,585 "/>
<polyline fill="none" opacity="1" stroke="#FF0000" stroke-width="1" points="40,578 40,578 47,576 48,575 174,575 178,575 180,575 184,575 188,575 196,573 255,572 255,572 468,571 481,571 512,570 526,570 540,569 540,569 562,568 579,568 587,567 662,567 664,567 666,567 673,566 675,566 676,565 678,565 679,564 682,563 685,563 686,562 688,562 690,561 692,560 694,560 697,559 698,559 701,558 702,558 704,557 706,556 707,556 708,556 710,556 712,555 713,555 715,554 718,553 720,553 722,552 724,552 725,551 728,550 728,550 731,549 732,549 734,549 735,549 738,548 739,548 742,547 743,546 745,546 747,545 749,545 751,544 754,543 756,543 757,542 759,542 761,542 763,541 765,540 767,540 768,539 770,539 772,538 773,538 777,537 779,536 780,536 782,535 784,535 785,534 787,534 789,534 790,533 792,533 794,532 795,532 797,531 799,531 801,530 804,529 806,529 807,528 809,528 811,527 812,527 814,527 816,526 818,526 819,525 821,525 823,524 824,524 826,523 828,523 829,522 831,522 833,521 835,521 836,520 838,520 840,519 841,519 843,519 845,518 846,518 849,517 850,517 851,516 853,516 855,515 857,515 858,514 860,514 862,513 863,513 865,512 867,512 868,512 870,511 872,511 874,510 875,510 877,509 879,509 880,508 882,508 884,507 885,507 887,506 889,506 891,505 892,505 894,505 896,504 897,504 899,503 901,503 902,502 904,502 906,501 907,501 909,500 911,500 913,499 914,499 916,498 918,498 919,497 921,497 923,497 926,496 928,495 930,495 933,494 935,493 936,493 938,492 940,492 941,491 945,490 947,490 "/>
</svg>
