<svg width="987" height="610" viewBox="0 0 987 610" xmlns="http://www.w3.org/2000/svg">
<line opacity="0.1" stroke="#000000" stroke-width="1" x1="40" y1="579" x2="40" y2="9"/>
<line opacity="0.1" stroke="#000000" stroke-width="1" x1="54" y1="579" x2="54" y2="9"/>
<line opacity="0.1" stroke="#000000" stroke-width="1" x1="69" y1="579" x2="69" y2="9"/>
<line opacity="0.1" stroke="#000000" stroke-width="1" x1="83" y1="579" x2="83" y2="9"/>
<line opacity="0.1" stroke="#000000" stroke-width="1" x1="98" y1="579" x2="98" y2="9"/>
<line opacity="0.1" stroke="#000000" stroke-width="1" x1="112" y1="579" x2="112" y2="9"/>
<line opacity="0.1" stroke="#000000" stroke-width="1" x1="127" y1="579" x2="127" y2="9"/>
<line opacity="0.1" stroke="#000000" stroke-width="1" x1="141" y1="579" x2="141" y2="9"/>
<line opacity="0.1" stroke="#000000" stroke-width="1" x1="156" y1="579" x2="156" y2="9"/>
<line opacity="0.1" stroke="#000000" stroke-width="1" x1="170" y1="579" x2="170" y2="9"/>
<line opacity="0.1" stroke="#000000" stroke-width="1" x1="185" y1="579" x2="185" y2="9"/>
<line opacity="0.1" stroke="#000000" stroke-width="1" x1="199" y1="579" x2="199" y2="9"/>
<line opacity="0.1" stroke="#000000" stroke-width="1" x1="214" y1="579" x2="214" y2="9"/>
<line opacity="0.1" stroke="#000000" stroke-width="1" x1="229" y1="579" x2="229" y2="9"/>
<line opacity="0.1" stroke="#000000" stroke-width="1" x1="243" y1="579" x2="243" y2="9"/>
<line opacity="0.1" stroke="#000000" stroke-width="1" x1="258" y1="579" x2="258" y2="9"/>
<line opacity="0.1" stroke="#000000" stroke-width="1" x1="272" y1="579" x2="272" y2="9"/>
<line opacity="0.1" stroke="#000000" stroke-width="1" x1="287" y1="579" x2="287" y2="9"/>
<line opacity="0.1" stroke="#000000" stroke-width="1" x1="301" y1="579" x2="301" y2="9"/>
<line opacity="0.1" stroke="#000000" stroke-width="1" x1="316" y1="579" x2="316" y2="9"/>
<line opacity="0.1" stroke="#000000" stroke-width="1" x1="330" y1="579" x2="330" y2="9"/>
<line opacity="0.1" stroke="#000000" stroke-width="1" x1="345" y1="579" x2="345" y2="9"/>
<line opacity="0.1" stroke="#000000" stroke-width="1" x1="359" y1="579" x2="359" y2="9"/>
<line opacity="0.1" stroke="#000000" stroke-width="1" x1="374" y1="579" x2="374" y2="9"/>
<line opacity="0.1" stroke="#000000" stroke-width="1" x1="388" y1="579" x2="388" y2="9"/>
<line opacity="0.1" stroke="#000000" stroke-width="1" x1="403" y1="579" x2="403" y2="9"/>
<line opacity="0.1" stroke="#000000" stroke-width="1" x1="418" y1="579" x2="418" y2="9"/>
<line opacity="0.1" stroke="#000000" stroke-width="1" x1="432" y1="579" x2="432" y2="9"/>
<line opacity="0.1" stroke="#000000" stroke-width="1" x1="447" y1="579" x2="447" y2="9"/>
<line opacity="0.1" stroke="#000000" stroke-width="1" x1="461" y1="579" x2="461" y2="9"/>
<line opacity="0.1" stroke="#000000" stroke-width="1" x1="476" y1="579" x2="476" y2="9"/>
<line opacity="0.1" stroke="#000000" stroke-width="1" x1="490" y1="579" x2="490" y2="9"/>
<line opacity="0.1" stroke="#000000" stroke-width="1" x1="505" y1="579" x2="505" y2="9"/>
<line opacity="0.1" stroke="#000000" stroke-width="1" x1="519" y1="579" x2="519" y2="9"/>
<line opacity="0.1" stroke="#000000" stroke-width="1" x1="534" y1="579" x2="534" y2="9"/>
<line opacity="0.1" stroke="#000000" stroke-width="1" x1="548" y1="579" x2="548" y2="9"/>
<line opacity="0.1" stroke="#000000" stroke-width="1" x1="563" y1="579" x2="563" y2="9"/>
<line opacity="0.1" stroke="#000000" stroke-width="1" x1="578" y1="579" x2="578" y2="9"/>
<line opacity="0.1" stroke="#000000" stroke-width="1" x1="592" y1="579" x2="592" y2="9"/>
<line opacity="0.1" stroke="#000000" stroke-width="1" x1="607" y1="579" x2="607" y2="9"/>
<line opacity="0.1" stroke="#000000" stroke-width="1" x1="621" y1="579" x2="621" y2="9"/>
<line opacity="0.1" stroke="#000000" stroke-width="1" x1="636" y1="579" x2="636" y2="9"/>
<line opacity="0.1" stroke="#000000" stroke-width="1" x1="650" y1="579" x2="650" y2="9"/>
<line opacity="0.1" stroke="#000000" stroke-width="1" x1="665" y1="579" x2="665" y2="9"/>
<line opacity="0.1" stroke="#000000" stroke-width="1" x1="679" y1="579" x2="679" y2="9"/>
<line opacity="0.1" stroke="#000000" stroke-width="1" x1="694" y1="579" x2="694" y2="9"/>
<line opacity="0.1" stroke="#000000" stroke-width="1" x1="708" y1="579" x2="708" y2="9"/>
<line opacity="0.1" stroke="#000000" stroke-width="1" x1="723" y1="579" x2="723" y2="9"/>
<line opacity="0.1" stroke="#000000" stroke-width="1" x1="737" y1="579" x2="737" y2="9"/>
<line opacity="0.1" stroke="#000000" stroke-width="1" x1="752" y1="579" x2="752" y2="9"/>
<line opacity="0.1" stroke="#000000" stroke-width="1" x1="767" y1="579" x2="767" y2="9"/>
<line opacity="0.1" stroke="#000000" stroke-width="1" x1="781" y1="579" x2="781" y2="9"/>
<line opacity="0.1" stroke="#000000" stroke-width="1" x1="796" y1="579" x2="796" y2="9"/>
<line opacity="0.1" stroke="#000000" stroke-width="1" x1="810" y1="579" x2="810" y2="9"/>
<line opacity="0.1" stroke="#000000" stroke-width="1" x1="825" y1="579" x2="825" y2="9"/>
<line opacity="0.1" stroke="#000000" stroke-width="1" x1="839" y1="579" x2="839" y2="9"/>
<line opacity="0.1" stroke="#000000" stroke-width="1" x1="854" y1="579" x2="854" y2="9"/>
<line opacity="0.1" stroke="#000000" stroke-width="1" x1="868" y1="579" x2="868" y2="9"/>
<line opacity="0.1" stroke="#000000" stroke-width="1" x1="883" y1="579" x2="883" y2="9"/>
<line opacity="0.1" stroke="#000000" stroke-width="1" x1="897" y1="579" x2="897" y2="9"/>
<line opacity="0.1" stroke="#000000" stroke-width="1" x1="912" y1="579" x2="912" y2="9"/>
<line opacity="0.1" stroke="#000000" stroke-width="1" x1="927" y1="579" x2="927" y2="9"/>
<line opacity="0.1" stroke="#000000" stroke-width="1" x1="941" y1="579" x2="941" y2="9"/>
<line opacity="0.1" stroke="#000000" stroke-width="1" x1="40" y1="567" x2="947" y2="567"/>
<line opacity="0.1" stroke="#000000" stroke-width="1" x1="40" y1="556" x2="947" y2="556"/>
<line opacity="0.1" stroke="#000000" stroke-width="1" x1="40" y1="545" x2="947" y2="545"/>
<line opacity="0.1" stroke="#000000" stroke-width="1" x1="40" y1="533" x2="947" y2="533"/>
<line opacity="0.1" stroke="#000000" stroke-width="1" x1="40" y1="522" x2="947" y2="522"/>
<line opacity="0.1" stroke="#000000" stroke-width="1" x1="40" y1="511" x2="947" y2="511"/>
<line opacity="0.1" stroke="#000000" stroke-width="1" x1="40" y1="499" x2="947" y2="499"/>
<line opacity="0.1" stroke="#000000" stroke-width="1" x1="40" y1="488" x2="947" y2="488"/>
<line opacity="0.1" stroke="#000000" stroke-width="1" x1="40" y1="477" x2="947" y2="477"/>
<line opacity="0.1" stroke="#000000" stroke-width="1" x1="40" y1="466" x2="947" y2="466"/>
<line opacity="0.1" stroke="#000000" stroke-width="1" x1="40" y1="454" x2="947" y2="454"/>
<line opacity="0.1" stroke="#000000" stroke-width="1" x1="40" y1="443" x2="947" y2="443"/>
<line opacity="0.1" stroke="#000000" stroke-width="1" x1="40" y1="432" x2="947" y2="432"/>
<line opacity="0.1" stroke="#000000" stroke-width="1" x1="40" y1="420" x2="947" y2="420"/>
<line opacity="0.1" stroke="#000000" stroke-width="1" x1="40" y1="409" x2="947" y2="409"/>
<line opacity="0.1" stroke="#000000" stroke-width="1" x1="40" y1="398" x2="947" y2="398"/>
<line opacity="0.1" stroke="#000000" stroke-width="1" x1="40" y1="387" x2="947" y2="387"/>
<line opacity="0.1" stroke="#000000" stroke-width="1" x1="40" y1="375" x2="947" y2="375"/>
<line opacity="0.1" stroke="#000000" stroke-width="1" x1="40" y1="364" x2="947" y2="364"/>
<line opacity="0.1" stroke="#000000" stroke-width="1" x1="40" y1="353" x2="947" y2="353"/>
<line opacity="0.1" stroke="#000000" stroke-width="1" x1="40" y1="341" x2="947" y2="341"/>
<line opacity="0.1" stroke="#000000" stroke-width="1" x1="40" y1="330" x2="947" y2="330"/>
<line opacity="0.1" stroke="#000000" stroke-width="1" x1="40" y1="319" x2="947" y2="319"/>
<line opacity="0.1" stroke="#000000" stroke-width="1" x1="40" y1="308" x2="947" y2="308"/>
<line opacity="0.1" stroke="#000000" stroke-width="1" x1="40" y1="296" x2="947" y2="296"/>
<line opacity="0.1" stroke="#000000" stroke-width="1" x1="40" y1="285" x2="947" y2="285"/>
<line opacity="0.1" stroke="#000000" stroke-width="1" x1="40" y1="274" x2="947" y2="274"/>
<line opacity="0.1" stroke="#000000" stroke-width="1" x1="40" y1="262" x2="947" y2="262"/>
<line opacity="0.1" stroke="#000000" stroke-width="1" x1="40" y1="251" x2="947" y2="251"/>
<line opacity="0.1" stroke="#000000" stroke-width="1" x1="40" y1="240" x2="947" y2="240"/>
<line opacity="0.1" stroke="#000000" stroke-width="1" x1="40" y1="229" x2="947" y2="229"/>
<line opacity="0.1" stroke="#000000" stroke-width="1" x1="40" y1="217" x2="947" y2="217"/>
<line opacity="0.1" stroke="#000000" stroke-width="1" x1="40" y1="206" x2="947" y2="206"/>
<line opacity="0.1" stroke="#000000" stroke-width="1" x1="40" y1="195" x2="947" y2="195"/>
<line opacity="0.1" stroke="#000000" stroke-width="1" x1="40" y1="183" x2="947" y2="183"/>
<line opacity="0.1" stroke="#000000" stroke-width="1" x1="40" y1="172" x2="947" y2="172"/>
<line opacity="0.1" stroke="#000000" stroke-width="1" x1="40" y1="161" x2="947" y2="161"/>
<line opacity="0.1" stroke="#000000" stroke-width="1" x1="40" y1="150" x2="947" y2="150"/>
<line opacity="0.1" stroke="#000000" stroke-width="1" x1="40" y1="138" x2="947" y2="138"/>
<line opacity="0.1" stroke="#000000" stroke-width="1" x1="40" y1="127" x2="947" y2="127"/>
<line opacity="0.1" stroke="#000000" stroke-width="1" x1="40" y1="116" x2="947" y2="116"/>
<line opacity="0.1" stroke="#000000" stroke-width="1" x1="40" y1="104" x2="947" y2="104"/>
<line opacity="0.1" stroke="#000000" stroke-width="1" x1="40" y1="93" x2="947" y2="93"/>
<line opacity="0.1" stroke="#000000" stroke-width="1" x1="40" y1="82" x2="947" y2="82"/>
<line opacity="0.1" stroke="#000000" stroke-width="1" x1="40" y1="71" x2="947" y2="71"/>
<line opacity="0.1" stroke="#000000" stroke-width="1" x1="40" y1="59" x2="947" y2="59"/>
<line opacity="0.1" stroke="#000000" stroke-width="1" x1="40" y1="48" x2="947" y2="48"/>
<line opacity="0.1" stroke="#000000" stroke-width="1" x1="40" y1="37" x2="947" y2="37"/>
<line opacity="0.1" stroke="#000000" stroke-width="1" x1="40" y1="25" x2="947" y2="25"/>
<line opacity="0.1" stroke="#000000" stroke-width="1" x1="40" y1="14" x2="947" y2="14"/>
<line opacity="0.2" stroke="#000000" stroke-width="1" x1="40" y1="579" x2="40" y2="9"/>
<line opacity="0.2" stroke="#000000" stroke-width="1" x1="141" y1="579" x2="141" y2="9"/>
<line opacity="0.2" stroke="#000000" stroke-width="1" x1="243" y1="579" x2="243" y2="9"/>
<line opacity="0.2" stroke="#000000" stroke-width="1" x1="345" y1="579" x2="345" y2="9"/>
<line opacity="0.2" stroke="#000000" stroke-width="1" x1="447" y1="579" x2="447" y2="9"/>
<line opacity="0.2" stroke="#000000" stroke-width="1" x1="548" y1="579" x2="548" y2="9"/>
<line opacity="0.2" stroke="#000000" stroke-width="1" x1="650" y1="579" x2="650" y2="9"/>
<line opacity="0.2" stroke="#000000" stroke-width="1" x1="752" y1="579" x2="752" y2="9"/>
<line opacity="0.2" stroke="#000000" stroke-width="1" x1="854" y1="579" x2="854" y2="9"/>
<line opacity="0.2" stroke="#000000" stroke-width="1" x1="40" y1="522" x2="947" y2="522"/>
<line opacity="0.2" stroke="#000000" stroke-width="1" x1="40" y1="466" x2="947" y2="466"/>
<line opacity="0.2" stroke="#000000" stroke-width="1" x1="40" y1="409" x2="947" y2="409"/>
<line opacity="0.2" stroke="#000000" stroke-width="1" x1="40" y1="353" x2="947" y2="353"/>
<line opacity="0.2" stroke="#000000" stroke-width="1" x1="40" y1="296" x2="947" y2="296"/>
<line opacity="0.2" stroke="#000000" stroke-width="1" x1="40" y1="240" x2="947" y2="240"/>
<line opacity="0.2" stroke="#000000" stroke-width="1" x1="40" y1="183" x2="947" y2="183"/>
<line opacity="0.2" stroke="#000000" stroke-width="1" x1="40" y1="127" x2="947" y2="127"/>
<line opacity="0.2" stroke="#000000" stroke-width="1" x1="40" y1="71" x2="947" y2="71"/>
<line opacity="0.2" stroke="#000000" stroke-width="1" x1="40" y1="14" x2="947" y2="14"/>
<polyline fill="none" opacity="1" stroke="#000000" stroke-width="1" points="39,10 39,580 "/>
<text x="30" y="522" dy="0.5ex" text-anchor="end" font-family="sans-serif" font-size="9.67741935483871" opacity="1" fill="#000000">
10%
</text>
<polyline fill="none" opacity="1" stroke="#000000" stroke-width="1" points="34,522 39,522 "/>
<text x="30" y="466" dy="0.5ex" text-anchor="end" font-family="sans-serif" font-size="9.67741935483871" opacity="1" fill="#000000">
20%
</text>
<polyline fill="none" opacity="1" stroke="#000000" stroke-width="1" points="34,466 39,466 "/>
<text x="30" y="409" dy="0.5ex" text-anchor="end" font-family="sans-serif" font-size="9.67741935483871" opacity="1" fill="#000000">
30%
</text>
<polyline fill="none" opacity="1" stroke="#000000" stroke-width="1" points="34,409 39,409 "/>
<text x="30" y="353" dy="0.5ex" text-anchor="end" font-family="sans-serif" font-size="9.67741935483871" opacity="1" fill="#000000">
40%
</text>
<polyline fill="none" opacity="1" stroke="#000000" stroke-width="1" points="34,353 39,353 "/>
<text x="30" y="296" dy="0.5ex" text-anchor="end" font-family="sans-serif" font-size="9.67741935483871" opacity="1" fill="#000000">
50%
</text>
<polyline fill="none" opacity="1" stroke="#000000" stroke-width="1" points="34,296 39,296 "/>
<text x="30" y="240" dy="0.5ex" text-anchor="end" font-family="sans-serif" font-size="9.67741935483871" opacity="1" fill="#000000">
60%
</text>
<polyline fill="none" opacity="1" stroke="#000000" stroke-width="1" points="34,240 39,240 "/>
<text x="30" y="183" dy="0.5ex" text-anchor="end" font-family="sans-serif" font-size="9.67741935483871" opacity="1" fill="#000000">
70%
</text>
<polyline fill="none" opacity="1" stroke="#000000" stroke-width="1" points="34,183 39,183 "/>
<text x="30" y="127" dy="0.5ex" text-anchor="end" font-family="sans-serif" font-size="9.67741935483871" opacity="1" fill="#000000">
80%
</text>
<polyline fill="none" opacity="1" stroke="#000000" stroke-width="1" points="34,127 39,127 "/>
<text x="30" y="71" dy="0.5ex" text-anchor="end" font-family="sans-serif" font-size="9.67741935483871" opacity="1" fill="#000000">
90%
</text>
<polyline fill="none" opacity="1" stroke="#000000" stroke-width="1" points="34,71 39,71 "/>
<text x="30" y="14" dy="0.5ex" text-anchor="end" font-family="sans-serif" font-size="9.67741935483871" opacity="1" fill="#000000">
100%
</text>
<polyline fill="none" opacity="1" stroke="#000000" stroke-width="1" points="34,14 39,14 "/>
<polyline fill="none" opacity="1" stroke="#000000" stroke-width="1" points="40,580 947,580 "/>
<text x="40" y="590" dy="0.76em" text-anchor="middle" font-family="sans-serif" font-size="9.67741935483871" opacity="1" fill="#000000">
2019-03-16
</text>
<polyline fill="none" opacity="1" stroke="#000000" stroke-width="1" points="40,580 40,585 "/>
<text x="141" y="590" dy="0.76em" text-anchor="middle" font-family="sans-serif" font-size="9.67741935483871" opacity="1" fill="#000000">
2019-05-04
</text>
<polyline fill="none" opacity="1" stroke="#000000" stroke-width="1" points="141,580 141,585 "/>
<text x="243" y="590" dy="0.76em" text-anchor="middle" font-family="sans-serif" font-size="9.67741935483871" opacity="1" fill="#000000">
2019-06-22
</text>
<polyline fill="none" opacity="1" stroke="#000000" stroke-width="1" points="243,580 243,585 "/>
<text x="345" y="590" dy="0.76em" text-anchor="middle" font-family="sans-serif" font-size="9.67741935483871" opacity="1" fill="#000000">
2019-08-10
</text>
<polyline fill="none" opacity="1" stroke="#000000" stroke-width="1" points="345,580 345,585 "/>
<text x="447" y="590" dy="0.76em" text-anchor="middle" font-family="sans-serif" font-size="9.67741935483871" opacity="1" fill="#000000">
2019-09-28
</text>
<polyline fill="none" opacity="1" stroke="#000000" stroke-width="1" points="447,580 447,585 "/>
<text x="548" y="590" dy="0.76em" text-anchor="middle" font-family="sans-serif" font-size="9.67741935483871" opacity="1" fill="#000000">
2019-11-16
</text>
<polyline fill="none" opacity="1" stroke="#000000" stroke-width="1" points="548,580 548,585 "/>
<text x="650" y="590" dy="0.76em" text-anchor="middle" font-family="sans-serif" font-size="9.67741935483871" opacity="1" fill="#000000">
2020-01-04
</text>
<polyline fill="none" opacity="1" stroke="#000000" stroke-width="1" points="650,580 650,585 "/>
<text x="752" y="590" dy="0.76em" text-anchor="middle" font-family="sans-serif" font-size="9.67741935483871" opacity="1" fill="#000000">
2020-02-22
</text>
<polyline fill="none" opacity="1" stroke="#000000" stroke-width="1" points="752,580 752,585 "/>
<text x="854" y="590" dy="0.76em" text-anchor="middle" font-family="sans-serif" font-size="9.67741935483871" opacity="1" fill="#000000">
2020-04-11
</text>
<polyline fill="none" opacity="1" stroke="#000000" stroke-width="1" points="854,580 854,585 "/>
<polyline fill="none" opacity="1" stroke="#FF0000" stroke-width="1" points="40,578 40,577 49,576 50,575 204,575 209,574 211,574 217,574 221,574 231,573 303,571 304,571 565,570 580,570 618,569 635,569 652,568 653,568 680,567 700,567 710,566 802,566 805,566 807,566 816,565 818,565 819,564 821,564 823,563 826,562 829,561 831,561 833,560 836,560 839,559 841,559 844,558 846,557 849,557 850,556 854,555 856,555 856,555 858,554 861,554 863,553 865,553 867,552 870,551 873,551 875,550 877,550 879,549 883,548 883,548 886,547 887,547 890,547 891,546 895,546 895,545 899,544 901,544 904,543 906,543 908,542 910,542 914,541 917,540 919,540 921,539 923,539 926,538 928,537 930,537 932,536 934,536 936,535 938,535 942,534 944,533 947,533 "/>
</svg>
