<svg width="987" height="610" viewBox="0 0 987 610" xmlns="http://www.w3.org/2000/svg">
<line opacity="0.1" stroke="#000000" stroke-width="1" x1="40" y1="579" x2="40" y2="9"/>
<line opacity="0.1" stroke="#000000" stroke-width="1" x1="51" y1="579" x2="51" y2="9"/>
<line opacity="0.1" stroke="#000000" stroke-width="1" x1="63" y1="579" x2="63" y2="9"/>
<line opacity="0.1" stroke="#000000" stroke-width="1" x1="75" y1="579" x2="75" y2="9"/>
<line opacity="0.1" stroke="#000000" stroke-width="1" x1="86" y1="579" x2="86" y2="9"/>
<line opacity="0.1" stroke="#000000" stroke-width="1" x1="98" y1="579" x2="98" y2="9"/>
<line opacity="0.1" stroke="#000000" stroke-width="1" x1="110" y1="579" x2="110" y2="9"/>
<line opacity="0.1" stroke="#000000" stroke-width="1" x1="122" y1="579" x2="122" y2="9"/>
<line opacity="0.1" stroke="#000000" stroke-width="1" x1="133" y1="579" x2="133" y2="9"/>
<line opacity="0.1" stroke="#000000" stroke-width="1" x1="145" y1="579" x2="145" y2="9"/>
<line opacity="0.1" stroke="#000000" stroke-width="1" x1="157" y1="579" x2="157" y2="9"/>
<line opacity="0.1" stroke="#000000" stroke-width="1" x1="168" y1="579" x2="168" y2="9"/>
<line opacity="0.1" stroke="#000000" stroke-width="1" x1="180" y1="579" x2="180" y2="9"/>
<line opacity="0.1" stroke="#000000" stroke-width="1" x1="192" y1="579" x2="192" y2="9"/>
<line opacity="0.1" stroke="#000000" stroke-width="1" x1="204" y1="579" x2="204" y2="9"/>
<line opacity="0.1" stroke="#000000" stroke-width="1" x1="215" y1="579" x2="215" y2="9"/>
<line opacity="0.1" stroke="#000000" stroke-width="1" x1="227" y1="579" x2="227" y2="9"/>
<line opacity="0.1" stroke="#000000" stroke-width="1" x1="239" y1="579" x2="239" y2="9"/>
<line opacity="0.1" stroke="#000000" stroke-width="1" x1="251" y1="579" x2="251" y2="9"/>
<line opacity="0.1" stroke="#000000" stroke-width="1" x1="262" y1="579" x2="262" y2="9"/>
<line opacity="0.1" stroke="#000000" stroke-width="1" x1="274" y1="579" x2="274" y2="9"/>
<line opacity="0.1" stroke="#000000" stroke-width="1" x1="286" y1="579" x2="286" y2="9"/>
<line opacity="0.1" stroke="#000000" stroke-width="1" x1="297" y1="579" x2="297" y2="9"/>
<line opacity="0.1" stroke="#000000" stroke-width="1" x1="309" y1="579" x2="309" y2="9"/>
<line opacity="0.1" stroke="#000000" stroke-width="1" x1="321" y1="579" x2="321" y2="9"/>
<line opacity="0.1" stroke="#000000" stroke-width="1" x1="333" y1="579" x2="333" y2="9"/>
<line opacity="0.1" stroke="#000000" stroke-width="1" x1="344" y1="579" x2="344" y2="9"/>
<line opacity="0.1" stroke="#000000" stroke-width="1" x1="356" y1="579" x2="356" y2="9"/>
<line opacity="0.1" stroke="#000000" stroke-width="1" x1="368" y1="579" x2="368" y2="9"/>
<line opacity="0.1" stroke="#000000" stroke-width="1" x1="379" y1="579" x2="379" y2="9"/>
<line opacity="0.1" stroke="#000000" stroke-width="1" x1="391" y1="579" x2="391" y2="9"/>
<line opacity="0.1" stroke="#000000" stroke-width="1" x1="403" y1="579" x2="403" y2="9"/>
<line opacity="0.1" stroke="#000000" stroke-width="1" x1="415" y1="579" x2="415" y2="9"/>
<line opacity="0.1" stroke="#000000" stroke-width="1" x1="426" y1="579" x2="426" y2="9"/>
<line opacity="0.1" stroke="#000000" stroke-width="1" x1="438" y1="579" x2="438" y2="9"/>
<line opacity="0.1" stroke="#000000" stroke-width="1" x1="450" y1="579" x2="450" y2="9"/>
<line opacity="0.1" stroke="#000000" stroke-width="1" x1="461" y1="579" x2="461" y2="9"/>
<line opacity="0.1" stroke="#000000" stroke-width="1" x1="473" y1="579" x2="473" y2="9"/>
<line opacity="0.1" stroke="#000000" stroke-width="1" x1="485" y1="579" x2="485" y2="9"/>
<line opacity="0.1" stroke="#000000" stroke-width="1" x1="497" y1="579" x2="497" y2="9"/>
<line opacity="0.1" stroke="#000000" stroke-width="1" x1="508" y1="579" x2="508" y2="9"/>
<line opacity="0.1" stroke="#000000" stroke-width="1" x1="520" y1="579" x2="520" y2="9"/>
<line opacity="0.1" stroke="#000000" stroke-width="1" x1="532" y1="579" x2="532" y2="9"/>
<line opacity="0.1" stroke="#000000" stroke-width="1" x1="544" y1="579" x2="544" y2="9"/>
<line opacity="0.1" stroke="#000000" stroke-width="1" x1="555" y1="579" x2="555" y2="9"/>
<line opacity="0.1" stroke="#000000" stroke-width="1" x1="567" y1="579" x2="567" y2="9"/>
<line opacity="0.1" stroke="#000000" stroke-width="1" x1="579" y1="579" x2="579" y2="9"/>
<line opacity="0.1" stroke="#000000" stroke-width="1" x1="590" y1="579" x2="590" y2="9"/>
<line opacity="0.1" stroke="#000000" stroke-width="1" x1="602" y1="579" x2="602" y2="9"/>
<line opacity="0.1" stroke="#000000" stroke-width="1" x1="614" y1="579" x2="614" y2="9"/>
<line opacity="0.1" stroke="#000000" stroke-width="1" x1="626" y1="579" x2="626" y2="9"/>
<line opacity="0.1" stroke="#000000" stroke-width="1" x1="637" y1="579" x2="637" y2="9"/>
<line opacity="0.1" stroke="#000000" stroke-width="1" x1="649" y1="579" x2="649" y2="9"/>
<line opacity="0.1" stroke="#000000" stroke-width="1" x1="661" y1="579" x2="661" y2="9"/>
<line opacity="0.1" stroke="#000000" stroke-width="1" x1="672" y1="579" x2="672" y2="9"/>
<line opacity="0.1" stroke="#000000" stroke-width="1" x1="684" y1="579" x2="684" y2="9"/>
<line opacity="0.1" stroke="#000000" stroke-width="1" x1="696" y1="579" x2="696" y2="9"/>
<line opacity="0.1" stroke="#000000" stroke-width="1" x1="708" y1="579" x2="708" y2="9"/>
<line opacity="0.1" stroke="#000000" stroke-width="1" x1="719" y1="579" x2="719" y2="9"/>
<line opacity="0.1" stroke="#000000" stroke-width="1" x1="731" y1="579" x2="731" y2="9"/>
<line opacity="0.1" stroke="#000000" stroke-width="1" x1="743" y1="579" x2="743" y2="9"/>
<line opacity="0.1" stroke="#000000" stroke-width="1" x1="755" y1="579" x2="755" y2="9"/>
<line opacity="0.1" stroke="#000000" stroke-width="1" x1="766" y1="579" x2="766" y2="9"/>
<line opacity="0.1" stroke="#000000" stroke-width="1" x1="778" y1="579" x2="778" y2="9"/>
<line opacity="0.1" stroke="#000000" stroke-width="1" x1="790" y1="579" x2="790" y2="9"/>
<line opacity="0.1" stroke="#000000" stroke-width="1" x1="801" y1="579" x2="801" y2="9"/>
<line opacity="0.1" stroke="#000000" stroke-width="1" x1="813" y1="579" x2="813" y2="9"/>
<line opacity="0.1" stroke="#000000" stroke-width="1" x1="825" y1="579" x2="825" y2="9"/>
<line opacity="0.1" stroke="#000000" stroke-width="1" x1="837" y1="579" x2="837" y2="9"/>
<line opacity="0.1" stroke="#000000" stroke-width="1" x1="848" y1="579" x2="848" y2="9"/>
<line opacity="0.1" stroke="#000000" stroke-width="1" x1="860" y1="579" x2="860" y2="9"/>
<line opacity="0.1" stroke="#000000" stroke-width="1" x1="872" y1="579" x2="872" y2="9"/>
<line opacity="0.1" stroke="#000000" stroke-width="1" x1="883" y1="579" x2="883" y2="9"/>
<line opacity="0.1" stroke="#000000" stroke-width="1" x1="895" y1="579" x2="895" y2="9"/>
<line opacity="0.1" stroke="#000000" stroke-width="1" x1="907" y1="579" x2="907" y2="9"/>
<line opacity="0.1" stroke="#000000" stroke-width="1" x1="919" y1="579" x2="919" y2="9"/>
<line opacity="0.1" stroke="#000000" stroke-width="1" x1="930" y1="579" x2="930" y2="9"/>
<line opacity="0.1" stroke="#000000" stroke-width="1" x1="942" y1="579" x2="942" y2="9"/>
<line opacity="0.1" stroke="#000000" stroke-width="1" x1="40" y1="567" x2="947" y2="567"/>
<line opacity="0.1" stroke="#000000" stroke-width="1" x1="40" y1="556" x2="947" y2="556"/>
<line opacity="0.1" stroke="#000000" stroke-width="1" x1="40" y1="545" x2="947" y2="545"/>
<line opacity="0.1" stroke="#000000" stroke-width="1" x1="40" y1="533" x2="947" y2="533"/>
<line opacity="0.1" stroke="#000000" stroke-width="1" x1="40" y1="522" x2="947" y2="522"/>
<line opacity="0.1" stroke="#000000" stroke-width="1" x1="40" y1="511" x2="947" y2="511"/>
<line opacity="0.1" stroke="#000000" stroke-width="1" x1="40" y1="499" x2="947" y2="499"/>
<line opacity="0.1" stroke="#000000" stroke-width="1" x1="40" y1="488" x2="947" y2="488"/>
<line opacity="0.1" stroke="#000000" stroke-width="1" x1="40" y1="477" x2="947" y2="477"/>
<line opacity="0.1" stroke="#000000" stroke-width="1" x1="40" y1="466" x2="947" y2="466"/>
<line opacity="0.1" stroke="#000000" stroke-width="1" x1="40" y1="454" x2="947" y2="454"/>
<line opacity="0.1" stroke="#000000" stroke-width="1" x1="40" y1="443" x2="947" y2="443"/>
<line opacity="0.1" stroke="#000000" stroke-width="1" x1="40" y1="432" x2="947" y2="432"/>
<line opacity="0.1" stroke="#000000" stroke-width="1" x1="40" y1="420" x2="947" y2="420"/>
<line opacity="0.1" stroke="#000000" stroke-width="1" x1="40" y1="409" x2="947" y2="409"/>
<line opacity="0.1" stroke="#000000" stroke-width="1" x1="40" y1="398" x2="947" y2="398"/>
<line opacity="0.1" stroke="#000000" stroke-width="1" x1="40" y1="387" x2="947" y2="387"/>
<line opacity="0.1" stroke="#000000" stroke-width="1" x1="40" y1="375" x2="947" y2="375"/>
<line opacity="0.1" stroke="#000000" stroke-width="1" x1="40" y1="364" x2="947" y2="364"/>
<line opacity="0.1" stroke="#000000" stroke-width="1" x1="40" y1="353" x2="947" y2="353"/>
<line opacity="0.1" stroke="#000000" stroke-width="1" x1="40" y1="341" x2="947" y2="341"/>
<line opacity="0.1" stroke="#000000" stroke-width="1" x1="40" y1="330" x2="947" y2="330"/>
<line opacity="0.1" stroke="#000000" stroke-width="1" x1="40" y1="319" x2="947" y2="319"/>
<line opacity="0.1" stroke="#000000" stroke-width="1" x1="40" y1="308" x2="947" y2="308"/>
<line opacity="0.1" stroke="#000000" stroke-width="1" x1="40" y1="296" x2="947" y2="296"/>
<line opacity="0.1" stroke="#000000" stroke-width="1" x1="40" y1="285" x2="947" y2="285"/>
<line opacity="0.1" stroke="#000000" stroke-width="1" x1="40" y1="274" x2="947" y2="274"/>
<line opacity="0.1" stroke="#000000" stroke-width="1" x1="40" y1="262" x2="947" y2="262"/>
<line opacity="0.1" stroke="#000000" stroke-width="1" x1="40" y1="251" x2="947" y2="251"/>
<line opacity="0.1" stroke="#000000" stroke-width="1" x1="40" y1="240" x2="947" y2="240"/>
<line opacity="0.1" stroke="#000000" stroke-width="1" x1="40" y1="229" x2="947" y2="229"/>
<line opacity="0.1" stroke="#000000" stroke-width="1" x1="40" y1="217" x2="947" y2="217"/>
<line opacity="0.1" stroke="#000000" stroke-width="1" x1="40" y1="206" x2="947" y2="206"/>
<line opacity="0.1" stroke="#000000" stroke-width="1" x1="40" y1="195" x2="947" y2="195"/>
<line opacity="0.1" stroke="#000000" stroke-width="1" x1="40" y1="183" x2="947" y2="183"/>
<line opacity="0.1" stroke="#000000" stroke-width="1" x1="40" y1="172" x2="947" y2="172"/>
<line opacity="0.1" stroke="#000000" stroke-width="1" x1="40" y1="161" x2="947" y2="161"/>
<line opacity="0.1" stroke="#000000" stroke-width="1" x1="40" y1="150" x2="947" y2="150"/>
<line opacity="0.1" stroke="#000000" stroke-width="1" x1="40" y1="138" x2="947" y2="138"/>
<line opacity="0.1" stroke="#000000" stroke-width="1" x1="40" y1="127" x2="947" y2="127"/>
<line opacity="0.1" stroke="#000000" stroke-width="1" x1="40" y1="116" x2="947" y2="116"/>
<line opacity="0.1" stroke="#000000" stroke-width="1" x1="40" y1="104" x2="947" y2="104"/>
<line opacity="0.1" stroke="#000000" stroke-width="1" x1="40" y1="93" x2="947" y2="93"/>
<line opacity="0.1" stroke="#000000" stroke-width="1" x1="40" y1="82" x2="947" y2="82"/>
<line opacity="0.1" stroke="#000000" stroke-width="1" x1="40" y1="71" x2="947" y2="71"/>
<line opacity="0.1" stroke="#000000" stroke-width="1" x1="40" y1="59" x2="947" y2="59"/>
<line opacity="0.1" stroke="#000000" stroke-width="1" x1="40" y1="48" x2="947" y2="48"/>
<line opacity="0.1" stroke="#000000" stroke-width="1" x1="40" y1="37" x2="947" y2="37"/>
<line opacity="0.1" stroke="#000000" stroke-width="1" x1="40" y1="25" x2="947" y2="25"/>
<line opacity="0.1" stroke="#000000" stroke-width="1" x1="40" y1="14" x2="947" y2="14"/>
<line opacity="0.2" stroke="#000000" stroke-width="1" x1="40" y1="579" x2="40" y2="9"/>
<line opacity="0.2" stroke="#000000" stroke-width="1" x1="133" y1="579" x2="133" y2="9"/>
<line opacity="0.2" stroke="#000000" stroke-width="1" x1="227" y1="579" x2="227" y2="9"/>
<line opacity="0.2" stroke="#000000" stroke-width="1" x1="321" y1="579" x2="321" y2="9"/>
<line opacity="0.2" stroke="#000000" stroke-width="1" x1="415" y1="579" x2="415" y2="9"/>
<line opacity="0.2" stroke="#000000" stroke-width="1" x1="508" y1="579" x2="508" y2="9"/>
<line opacity="0.2" stroke="#000000" stroke-width="1" x1="602" y1="579" x2="602" y2="9"/>
<line opacity="0.2" stroke="#000000" stroke-width="1" x1="696" y1="579" x2="696" y2="9"/>
<line opacity="0.2" stroke="#000000" stroke-width="1" x1="790" y1="579" x2="790" y2="9"/>
<line opacity="0.2" stroke="#000000" stroke-width="1" x1="883" y1="579" x2="883" y2="9"/>
<line opacity="0.2" stroke="#000000" stroke-width="1" x1="40" y1="522" x2="947" y2="522"/>
<line opacity="0.2" stroke="#000000" stroke-width="1" x1="40" y1="466" x2="947" y2="466"/>
<line opacity="0.2" stroke="#000000" stroke-width="1" x1="40" y1="409" x2="947" y2="409"/>
<line opacity="0.2" stroke="#000000" stroke-width="1" x1="40" y1="353" x2="947" y2="353"/>
<line opacity="0.2" stroke="#000000" stroke-width="1" x1="40" y1="296" x2="947" y2="296"/>
<line opacity="0.2" stroke="#000000" stroke-width="1" x1="40" y1="240" x2="947" y2="240"/>
<line opacity="0.2" stroke="#000000" stroke-width="1" x1="40" y1="183" x2="947" y2="183"/>
<line opacity="0.2" stroke="#000000" stroke-width="1" x1="40" y1="127" x2="947" y2="127"/>
<line opacity="0.2" stroke="#000000" stroke-width="1" x1="40" y1="71" x2="947" y2="71"/>
<line opacity="0.2" stroke="#000000" stroke-width="1" x1="40" y1="14" x2="947" y2="14"/>
<polyline fill="none" opacity="1" stroke="#000000" stroke-width="1" points="39,10 39,580 "/>
<text x="30" y="522" dy="0.5ex" text-anchor="end" font-family="sans-serif" font-size="9.67741935483871" opacity="1" fill="#000000">
10%
</text>
<polyline fill="none" opacity="1" stroke="#000000" stroke-width="1" points="34,522 39,522 "/>
<text x="30" y="466" dy="0.5ex" text-anchor="end" font-family="sans-serif" font-size="9.67741935483871" opacity="1" fill="#000000">
20%
</text>
<polyline fill="none" opacity="1" stroke="#000000" stroke-width="1" points="34,466 39,466 "/>
<text x="30" y="409" dy="0.5ex" text-anchor="end" font-family="sans-serif" font-size="9.67741935483871" opacity="1" fill="#000000">
30%
</text>
<polyline fill="none" opacity="1" stroke="#000000" stroke-width="1" points="34,409 39,409 "/>
<text x="30" y="353" dy="0.5ex" text-anchor="end" font-family="sans-serif" font-size="9.67741935483871" opacity="1" fill="#000000">
40%
</text>
<polyline fill="none" opacity="1" stroke="#000000" stroke-width="1" points="34,353 39,353 "/>
<text x="30" y="296" dy="0.5ex" text-anchor="end" font-family="sans-serif" font-size="9.67741935483871" opacity="1" fill="#000000">
50%
</text>
<polyline fill="none" opacity="1" stroke="#000000" stroke-width="1" points="34,296 39,296 "/>
<text x="30" y="240" dy="0.5ex" text-anchor="end" font-family="sans-serif" font-size="9.67741935483871" opacity="1" fill="#000000">
60%
</text>
<polyline fill="none" opacity="1" stroke="#000000" stroke-width="1" points="34,240 39,240 "/>
<text x="30" y="183" dy="0.5ex" text-anchor="end" font-family="sans-serif" font-size="9.67741935483871" opacity="1" fill="#000000">
70%
</text>
<polyline fill="none" opacity="1" stroke="#000000" stroke-width="1" points="34,183 39,183 "/>
<text x="30" y="127" dy="0.5ex" text-anchor="end" font-family="sans-serif" font-size="9.67741935483871" opacity="1" fill="#000000">
80%
</text>
<polyline fill="none" opacity="1" stroke="#000000" stroke-width="1" points="34,127 39,127 "/>
<text x="30" y="71" dy="0.5ex" text-anchor="end" font-family="sans-serif" font-size="9.67741935483871" opacity="1" fill="#000000">
90%
</text>
<polyline fill="none" opacity="1" stroke="#000000" stroke-width="1" points="34,71 39,71 "/>
<text x="30" y="14" dy="0.5ex" text-anchor="end" font-family="sans-serif" font-size="9.67741935483871" opacity="1" fill="#000000">
100%
</text>
<polyline fill="none" opacity="1" stroke="#000000" stroke-width="1" points="34,14 39,14 "/>
<polyline fill="none" opacity="1" stroke="#000000" stroke-width="1" points="40,580 947,580 "/>
<text x="40" y="590" dy="0.76em" text-anchor="middle" font-family="sans-serif" font-size="9.67741935483871" opacity="1" fill="#000000">
2019-03-16
</text>
<polyline fill="none" opacity="1" stroke="#000000" stroke-width="1" points="40,580 40,585 "/>
<text x="133" y="590" dy="0.76em" text-anchor="middle" font-family="sans-serif" font-size="9.67741935483871" opacity="1" fill="#000000">
2019-05-11
</text>
<polyline fill="none" opacity="1" stroke="#000000" stroke-width="1" points="133,580 133,585 "/>
<text x="227" y="590" dy="0.76em" text-anchor="middle" font-family="sans-serif" font-size="9.67741935483871" opacity="1" fill="#000000">
2019-07-06
</text>
<polyline fill="none" opacity="1" stroke="#000000" stroke-width="1" points="227,580 227,585 "/>
<text x="321" y="590" dy="0.76em" text-anchor="middle" font-family="sans-serif" font-size="9.67741935483871" opacity="1" fill="#000000">
2019-08-31
</text>
<polyline fill="none" opacity="1" stroke="#000000" stroke-width="1" points="321,580 321,585 "/>
<text x="415" y="590" dy="0.76em" text-anchor="middle" font-family="sans-serif" font-size="9.67741935483871" opacity="1" fill="#000000">
2019-10-26
</text>
<polyline fill="none" opacity="1" stroke="#000000" stroke-width="1" points="415,580 415,585 "/>
<text x="508" y="590" dy="0.76em" text-anchor="middle" font-family="sans-serif" font-size="9.67741935483871" opacity="1" fill="#000000">
2019-12-21
</text>
<polyline fill="none" opacity="1" stroke="#000000" stroke-width="1" points="508,580 508,585 "/>
<text x="602" y="590" dy="0.76em" text-anchor="middle" font-family="sans-serif" font-size="9.67741935483871" opacity="1" fill="#000000">
2020-02-15
</text>
<polyline fill="none" opacity="1" stroke="#000000" stroke-width="1" points="602,580 602,585 "/>
<text x="696" y="590" dy="0.76em" text-anchor="middle" font-family="sans-serif" font-size="9.67741935483871" opacity="1" fill="#000000">
2020-04-11
</text>
<polyline fill="none" opacity="1" stroke="#000000" stroke-width="1" points="696,580 696,585 "/>
<text x="790" y="590" dy="0.76em" text-anchor="middle" font-family="sans-serif" font-size="9.67741935483871" opacity="1" fill="#000000">
2020-06-06
</text>
<polyline fill="none" opacity="1" stroke="#000000" stroke-width="1" points="790,580 790,585 "/>
<text x="883" y="590" dy="0.76em" text-anchor="middle" font-family="sans-serif" font-size="9.67741935483871" opacity="1" fill="#000000">
2020-08-01
</text>
<polyline fill="none" opacity="1" stroke="#000000" stroke-width="1" points="883,580 883,585 "/>
<polyline fill="none" opacity="1" stroke="#FF0000" stroke-width="1" points="40,578 40,578 47,576 48,575 172,575 176,575 178,575 182,575 186,575 194,573 252,572 253,572 463,571 475,571 505,570 520,570 533,569 534,569 556,568 572,568 580,567 654,567 656,567 658,567 665,566 667,566 668,565 670,565 671,564 674,563 676,563 678,562 679,562 681,561 684,560 686,560 688,559 690,559 692,558 693,558 696,557 698,556 698,556 700,556 701,556 703,555 705,555 706,554 709,553 711,553 713,552 715,552 716,551 719,550 719,550 722,549 723,549 725,549 726,549 729,548 730,548 733,547 734,546 736,546 738,545 740,545 741,544 744,543 747,543 748,542 750,542 752,542 754,541 756,540 757,540 759,539 761,539 762,538 764,538 767,537 769,536 771,536 772,535 774,535 776,534 777,534 779,534 781,533 782,533 784,532 786,532 787,531 789,531 791,530 794,529 796,529 797,528 799,528 801,527 802,527 804,527 806,526 808,526 809,525 811,525 813,524 814,524 816,523 818,523 819,522 821,522 823,521 824,521 826,520 828,520 829,519 831,519 833,519 834,518 836,518 838,517 839,517 841,516 843,516 844,515 846,515 848,514 850,514 851,513 853,513 854,512 856,512 858,512 860,511 861,511 863,510 864,510 866,509 868,509 869,508 871,508 873,507 875,507 876,506 878,506 880,505 881,505 883,505 885,504 886,504 888,503 890,503 891,502 893,502 895,501 896,501 898,500 900,500 901,499 903,499 905,498 907,498 908,497 910,497 911,497 915,496 916,495 918,495 921,494 923,493 925,493 926,492 928,492 930,491 933,490 935,490 936,490 938,489 940,489 941,488 945,487 946,487 "/>
</svg>
