<svg width="987" height="610" viewBox="0 0 987 610" xmlns="http://www.w3.org/2000/svg">
<line opacity="0.1" stroke="#000000" stroke-width="1" x1="40" y1="579" x2="40" y2="9"/>
<line opacity="0.1" stroke="#000000" stroke-width="1" x1="51" y1="579" x2="51" y2="9"/>
<line opacity="0.1" stroke="#000000" stroke-width="1" x1="62" y1="579" x2="62" y2="9"/>
<line opacity="0.1" stroke="#000000" stroke-width="1" x1="74" y1="579" x2="74" y2="9"/>
<line opacity="0.1" stroke="#000000" stroke-width="1" x1="85" y1="579" x2="85" y2="9"/>
<line opacity="0.1" stroke="#000000" stroke-width="1" x1="97" y1="579" x2="97" y2="9"/>
<line opacity="0.1" stroke="#000000" stroke-width="1" x1="108" y1="579" x2="108" y2="9"/>
<line opacity="0.1" stroke="#000000" stroke-width="1" x1="120" y1="579" x2="120" y2="9"/>
<line opacity="0.1" stroke="#000000" stroke-width="1" x1="131" y1="579" x2="131" y2="9"/>
<line opacity="0.1" stroke="#000000" stroke-width="1" x1="143" y1="579" x2="143" y2="9"/>
<line opacity="0.1" stroke="#000000" stroke-width="1" x1="154" y1="579" x2="154" y2="9"/>
<line opacity="0.1" stroke="#000000" stroke-width="1" x1="165" y1="579" x2="165" y2="9"/>
<line opacity="0.1" stroke="#000000" stroke-width="1" x1="177" y1="579" x2="177" y2="9"/>
<line opacity="0.1" stroke="#000000" stroke-width="1" x1="188" y1="579" x2="188" y2="9"/>
<line opacity="0.1" stroke="#000000" stroke-width="1" x1="200" y1="579" x2="200" y2="9"/>
<line opacity="0.1" stroke="#000000" stroke-width="1" x1="211" y1="579" x2="211" y2="9"/>
<line opacity="0.1" stroke="#000000" stroke-width="1" x1="223" y1="579" x2="223" y2="9"/>
<line opacity="0.1" stroke="#000000" stroke-width="1" x1="234" y1="579" x2="234" y2="9"/>
<line opacity="0.1" stroke="#000000" stroke-width="1" x1="246" y1="579" x2="246" y2="9"/>
<line opacity="0.1" stroke="#000000" stroke-width="1" x1="257" y1="579" x2="257" y2="9"/>
<line opacity="0.1" stroke="#000000" stroke-width="1" x1="268" y1="579" x2="268" y2="9"/>
<line opacity="0.1" stroke="#000000" stroke-width="1" x1="280" y1="579" x2="280" y2="9"/>
<line opacity="0.1" stroke="#000000" stroke-width="1" x1="291" y1="579" x2="291" y2="9"/>
<line opacity="0.1" stroke="#000000" stroke-width="1" x1="303" y1="579" x2="303" y2="9"/>
<line opacity="0.1" stroke="#000000" stroke-width="1" x1="314" y1="579" x2="314" y2="9"/>
<line opacity="0.1" stroke="#000000" stroke-width="1" x1="326" y1="579" x2="326" y2="9"/>
<line opacity="0.1" stroke="#000000" stroke-width="1" x1="337" y1="579" x2="337" y2="9"/>
<line opacity="0.1" stroke="#000000" stroke-width="1" x1="349" y1="579" x2="349" y2="9"/>
<line opacity="0.1" stroke="#000000" stroke-width="1" x1="360" y1="579" x2="360" y2="9"/>
<line opacity="0.1" stroke="#000000" stroke-width="1" x1="371" y1="579" x2="371" y2="9"/>
<line opacity="0.1" stroke="#000000" stroke-width="1" x1="383" y1="579" x2="383" y2="9"/>
<line opacity="0.1" stroke="#000000" stroke-width="1" x1="394" y1="579" x2="394" y2="9"/>
<line opacity="0.1" stroke="#000000" stroke-width="1" x1="406" y1="579" x2="406" y2="9"/>
<line opacity="0.1" stroke="#000000" stroke-width="1" x1="417" y1="579" x2="417" y2="9"/>
<line opacity="0.1" stroke="#000000" stroke-width="1" x1="429" y1="579" x2="429" y2="9"/>
<line opacity="0.1" stroke="#000000" stroke-width="1" x1="440" y1="579" x2="440" y2="9"/>
<line opacity="0.1" stroke="#000000" stroke-width="1" x1="452" y1="579" x2="452" y2="9"/>
<line opacity="0.1" stroke="#000000" stroke-width="1" x1="463" y1="579" x2="463" y2="9"/>
<line opacity="0.1" stroke="#000000" stroke-width="1" x1="475" y1="579" x2="475" y2="9"/>
<line opacity="0.1" stroke="#000000" stroke-width="1" x1="486" y1="579" x2="486" y2="9"/>
<line opacity="0.1" stroke="#000000" stroke-width="1" x1="497" y1="579" x2="497" y2="9"/>
<line opacity="0.1" stroke="#000000" stroke-width="1" x1="509" y1="579" x2="509" y2="9"/>
<line opacity="0.1" stroke="#000000" stroke-width="1" x1="520" y1="579" x2="520" y2="9"/>
<line opacity="0.1" stroke="#000000" stroke-width="1" x1="532" y1="579" x2="532" y2="9"/>
<line opacity="0.1" stroke="#000000" stroke-width="1" x1="543" y1="579" x2="543" y2="9"/>
<line opacity="0.1" stroke="#000000" stroke-width="1" x1="555" y1="579" x2="555" y2="9"/>
<line opacity="0.1" stroke="#000000" stroke-width="1" x1="566" y1="579" x2="566" y2="9"/>
<line opacity="0.1" stroke="#000000" stroke-width="1" x1="578" y1="579" x2="578" y2="9"/>
<line opacity="0.1" stroke="#000000" stroke-width="1" x1="589" y1="579" x2="589" y2="9"/>
<line opacity="0.1" stroke="#000000" stroke-width="1" x1="600" y1="579" x2="600" y2="9"/>
<line opacity="0.1" stroke="#000000" stroke-width="1" x1="612" y1="579" x2="612" y2="9"/>
<line opacity="0.1" stroke="#000000" stroke-width="1" x1="623" y1="579" x2="623" y2="9"/>
<line opacity="0.1" stroke="#000000" stroke-width="1" x1="635" y1="579" x2="635" y2="9"/>
<line opacity="0.1" stroke="#000000" stroke-width="1" x1="646" y1="579" x2="646" y2="9"/>
<line opacity="0.1" stroke="#000000" stroke-width="1" x1="658" y1="579" x2="658" y2="9"/>
<line opacity="0.1" stroke="#000000" stroke-width="1" x1="669" y1="579" x2="669" y2="9"/>
<line opacity="0.1" stroke="#000000" stroke-width="1" x1="681" y1="579" x2="681" y2="9"/>
<line opacity="0.1" stroke="#000000" stroke-width="1" x1="692" y1="579" x2="692" y2="9"/>
<line opacity="0.1" stroke="#000000" stroke-width="1" x1="703" y1="579" x2="703" y2="9"/>
<line opacity="0.1" stroke="#000000" stroke-width="1" x1="715" y1="579" x2="715" y2="9"/>
<line opacity="0.1" stroke="#000000" stroke-width="1" x1="726" y1="579" x2="726" y2="9"/>
<line opacity="0.1" stroke="#000000" stroke-width="1" x1="738" y1="579" x2="738" y2="9"/>
<line opacity="0.1" stroke="#000000" stroke-width="1" x1="749" y1="579" x2="749" y2="9"/>
<line opacity="0.1" stroke="#000000" stroke-width="1" x1="761" y1="579" x2="761" y2="9"/>
<line opacity="0.1" stroke="#000000" stroke-width="1" x1="772" y1="579" x2="772" y2="9"/>
<line opacity="0.1" stroke="#000000" stroke-width="1" x1="784" y1="579" x2="784" y2="9"/>
<line opacity="0.1" stroke="#000000" stroke-width="1" x1="795" y1="579" x2="795" y2="9"/>
<line opacity="0.1" stroke="#000000" stroke-width="1" x1="806" y1="579" x2="806" y2="9"/>
<line opacity="0.1" stroke="#000000" stroke-width="1" x1="818" y1="579" x2="818" y2="9"/>
<line opacity="0.1" stroke="#000000" stroke-width="1" x1="829" y1="579" x2="829" y2="9"/>
<line opacity="0.1" stroke="#000000" stroke-width="1" x1="841" y1="579" x2="841" y2="9"/>
<line opacity="0.1" stroke="#000000" stroke-width="1" x1="852" y1="579" x2="852" y2="9"/>
<line opacity="0.1" stroke="#000000" stroke-width="1" x1="864" y1="579" x2="864" y2="9"/>
<line opacity="0.1" stroke="#000000" stroke-width="1" x1="875" y1="579" x2="875" y2="9"/>
<line opacity="0.1" stroke="#000000" stroke-width="1" x1="887" y1="579" x2="887" y2="9"/>
<line opacity="0.1" stroke="#000000" stroke-width="1" x1="898" y1="579" x2="898" y2="9"/>
<line opacity="0.1" stroke="#000000" stroke-width="1" x1="909" y1="579" x2="909" y2="9"/>
<line opacity="0.1" stroke="#000000" stroke-width="1" x1="921" y1="579" x2="921" y2="9"/>
<line opacity="0.1" stroke="#000000" stroke-width="1" x1="932" y1="579" x2="932" y2="9"/>
<line opacity="0.1" stroke="#000000" stroke-width="1" x1="944" y1="579" x2="944" y2="9"/>
<line opacity="0.1" stroke="#000000" stroke-width="1" x1="40" y1="567" x2="947" y2="567"/>
<line opacity="0.1" stroke="#000000" stroke-width="1" x1="40" y1="556" x2="947" y2="556"/>
<line opacity="0.1" stroke="#000000" stroke-width="1" x1="40" y1="545" x2="947" y2="545"/>
<line opacity="0.1" stroke="#000000" stroke-width="1" x1="40" y1="533" x2="947" y2="533"/>
<line opacity="0.1" stroke="#000000" stroke-width="1" x1="40" y1="522" x2="947" y2="522"/>
<line opacity="0.1" stroke="#000000" stroke-width="1" x1="40" y1="511" x2="947" y2="511"/>
<line opacity="0.1" stroke="#000000" stroke-width="1" x1="40" y1="499" x2="947" y2="499"/>
<line opacity="0.1" stroke="#000000" stroke-width="1" x1="40" y1="488" x2="947" y2="488"/>
<line opacity="0.1" stroke="#000000" stroke-width="1" x1="40" y1="477" x2="947" y2="477"/>
<line opacity="0.1" stroke="#000000" stroke-width="1" x1="40" y1="466" x2="947" y2="466"/>
<line opacity="0.1" stroke="#000000" stroke-width="1" x1="40" y1="454" x2="947" y2="454"/>
<line opacity="0.1" stroke="#000000" stroke-width="1" x1="40" y1="443" x2="947" y2="443"/>
<line opacity="0.1" stroke="#000000" stroke-width="1" x1="40" y1="432" x2="947" y2="432"/>
<line opacity="0.1" stroke="#000000" stroke-width="1" x1="40" y1="420" x2="947" y2="420"/>
<line opacity="0.1" stroke="#000000" stroke-width="1" x1="40" y1="409" x2="947" y2="409"/>
<line opacity="0.1" stroke="#000000" stroke-width="1" x1="40" y1="398" x2="947" y2="398"/>
<line opacity="0.1" stroke="#000000" stroke-width="1" x1="40" y1="387" x2="947" y2="387"/>
<line opacity="0.1" stroke="#000000" stroke-width="1" x1="40" y1="375" x2="947" y2="375"/>
<line opacity="0.1" stroke="#000000" stroke-width="1" x1="40" y1="364" x2="947" y2="364"/>
<line opacity="0.1" stroke="#000000" stroke-width="1" x1="40" y1="353" x2="947" y2="353"/>
<line opacity="0.1" stroke="#000000" stroke-width="1" x1="40" y1="341" x2="947" y2="341"/>
<line opacity="0.1" stroke="#000000" stroke-width="1" x1="40" y1="330" x2="947" y2="330"/>
<line opacity="0.1" stroke="#000000" stroke-width="1" x1="40" y1="319" x2="947" y2="319"/>
<line opacity="0.1" stroke="#000000" stroke-width="1" x1="40" y1="308" x2="947" y2="308"/>
<line opacity="0.1" stroke="#000000" stroke-width="1" x1="40" y1="296" x2="947" y2="296"/>
<line opacity="0.1" stroke="#000000" stroke-width="1" x1="40" y1="285" x2="947" y2="285"/>
<line opacity="0.1" stroke="#000000" stroke-width="1" x1="40" y1="274" x2="947" y2="274"/>
<line opacity="0.1" stroke="#000000" stroke-width="1" x1="40" y1="262" x2="947" y2="262"/>
<line opacity="0.1" stroke="#000000" stroke-width="1" x1="40" y1="251" x2="947" y2="251"/>
<line opacity="0.1" stroke="#000000" stroke-width="1" x1="40" y1="240" x2="947" y2="240"/>
<line opacity="0.1" stroke="#000000" stroke-width="1" x1="40" y1="229" x2="947" y2="229"/>
<line opacity="0.1" stroke="#000000" stroke-width="1" x1="40" y1="217" x2="947" y2="217"/>
<line opacity="0.1" stroke="#000000" stroke-width="1" x1="40" y1="206" x2="947" y2="206"/>
<line opacity="0.1" stroke="#000000" stroke-width="1" x1="40" y1="195" x2="947" y2="195"/>
<line opacity="0.1" stroke="#000000" stroke-width="1" x1="40" y1="183" x2="947" y2="183"/>
<line opacity="0.1" stroke="#000000" stroke-width="1" x1="40" y1="172" x2="947" y2="172"/>
<line opacity="0.1" stroke="#000000" stroke-width="1" x1="40" y1="161" x2="947" y2="161"/>
<line opacity="0.1" stroke="#000000" stroke-width="1" x1="40" y1="150" x2="947" y2="150"/>
<line opacity="0.1" stroke="#000000" stroke-width="1" x1="40" y1="138" x2="947" y2="138"/>
<line opacity="0.1" stroke="#000000" stroke-width="1" x1="40" y1="127" x2="947" y2="127"/>
<line opacity="0.1" stroke="#000000" stroke-width="1" x1="40" y1="116" x2="947" y2="116"/>
<line opacity="0.1" stroke="#000000" stroke-width="1" x1="40" y1="104" x2="947" y2="104"/>
<line opacity="0.1" stroke="#000000" stroke-width="1" x1="40" y1="93" x2="947" y2="93"/>
<line opacity="0.1" stroke="#000000" stroke-width="1" x1="40" y1="82" x2="947" y2="82"/>
<line opacity="0.1" stroke="#000000" stroke-width="1" x1="40" y1="71" x2="947" y2="71"/>
<line opacity="0.1" stroke="#000000" stroke-width="1" x1="40" y1="59" x2="947" y2="59"/>
<line opacity="0.1" stroke="#000000" stroke-width="1" x1="40" y1="48" x2="947" y2="48"/>
<line opacity="0.1" stroke="#000000" stroke-width="1" x1="40" y1="37" x2="947" y2="37"/>
<line opacity="0.1" stroke="#000000" stroke-width="1" x1="40" y1="25" x2="947" y2="25"/>
<line opacity="0.1" stroke="#000000" stroke-width="1" x1="40" y1="14" x2="947" y2="14"/>
<line opacity="0.2" stroke="#000000" stroke-width="1" x1="40" y1="579" x2="40" y2="9"/>
<line opacity="0.2" stroke="#000000" stroke-width="1" x1="131" y1="579" x2="131" y2="9"/>
<line opacity="0.2" stroke="#000000" stroke-width="1" x1="223" y1="579" x2="223" y2="9"/>
<line opacity="0.2" stroke="#000000" stroke-width="1" x1="314" y1="579" x2="314" y2="9"/>
<line opacity="0.2" stroke="#000000" stroke-width="1" x1="406" y1="579" x2="406" y2="9"/>
<line opacity="0.2" stroke="#000000" stroke-width="1" x1="497" y1="579" x2="497" y2="9"/>
<line opacity="0.2" stroke="#000000" stroke-width="1" x1="589" y1="579" x2="589" y2="9"/>
<line opacity="0.2" stroke="#000000" stroke-width="1" x1="681" y1="579" x2="681" y2="9"/>
<line opacity="0.2" stroke="#000000" stroke-width="1" x1="772" y1="579" x2="772" y2="9"/>
<line opacity="0.2" stroke="#000000" stroke-width="1" x1="864" y1="579" x2="864" y2="9"/>
<line opacity="0.2" stroke="#000000" stroke-width="1" x1="40" y1="522" x2="947" y2="522"/>
<line opacity="0.2" stroke="#000000" stroke-width="1" x1="40" y1="466" x2="947" y2="466"/>
<line opacity="0.2" stroke="#000000" stroke-width="1" x1="40" y1="409" x2="947" y2="409"/>
<line opacity="0.2" stroke="#000000" stroke-width="1" x1="40" y1="353" x2="947" y2="353"/>
<line opacity="0.2" stroke="#000000" stroke-width="1" x1="40" y1="296" x2="947" y2="296"/>
<line opacity="0.2" stroke="#000000" stroke-width="1" x1="40" y1="240" x2="947" y2="240"/>
<line opacity="0.2" stroke="#000000" stroke-width="1" x1="40" y1="183" x2="947" y2="183"/>
<line opacity="0.2" stroke="#000000" stroke-width="1" x1="40" y1="127" x2="947" y2="127"/>
<line opacity="0.2" stroke="#000000" stroke-width="1" x1="40" y1="71" x2="947" y2="71"/>
<line opacity="0.2" stroke="#000000" stroke-width="1" x1="40" y1="14" x2="947" y2="14"/>
<polyline fill="none" opacity="1" stroke="#000000" stroke-width="1" points="39,10 39,580 "/>
<text x="30" y="522" dy="0.5ex" text-anchor="end" font-family="sans-serif" font-size="9.67741935483871" opacity="1" fill="#000000">
10%
</text>
<polyline fill="none" opacity="1" stroke="#000000" stroke-width="1" points="34,522 39,522 "/>
<text x="30" y="466" dy="0.5ex" text-anchor="end" font-family="sans-serif" font-size="9.67741935483871" opacity="1" fill="#000000">
20%
</text>
<polyline fill="none" opacity="1" stroke="#000000" stroke-width="1" points="34,466 39,466 "/>
<text x="30" y="409" dy="0.5ex" text-anchor="end" font-family="sans-serif" font-size="9.67741935483871" opacity="1" fill="#000000">
30%
</text>
<polyline fill="none" opacity="1" stroke="#000000" stroke-width="1" points="34,409 39,409 "/>
<text x="30" y="353" dy="0.5ex" text-anchor="end" font-family="sans-serif" font-size="9.67741935483871" opacity="1" fill="#000000">
40%
</text>
<polyline fill="none" opacity="1" stroke="#000000" stroke-width="1" points="34,353 39,353 "/>
<text x="30" y="296" dy="0.5ex" text-anchor="end" font-family="sans-serif" font-size="9.67741935483871" opacity="1" fill="#000000">
50%
</text>
<polyline fill="none" opacity="1" stroke="#000000" stroke-width="1" points="34,296 39,296 "/>
<text x="30" y="240" dy="0.5ex" text-anchor="end" font-family="sans-serif" font-size="9.67741935483871" opacity="1" fill="#000000">
60%
</text>
<polyline fill="none" opacity="1" stroke="#000000" stroke-width="1" points="34,240 39,240 "/>
<text x="30" y="183" dy="0.5ex" text-anchor="end" font-family="sans-serif" font-size="9.67741935483871" opacity="1" fill="#000000">
70%
</text>
<polyline fill="none" opacity="1" stroke="#000000" stroke-width="1" points="34,183 39,183 "/>
<text x="30" y="127" dy="0.5ex" text-anchor="end" font-family="sans-serif" font-size="9.67741935483871" opacity="1" fill="#000000">
80%
</text>
<polyline fill="none" opacity="1" stroke="#000000" stroke-width="1" points="34,127 39,127 "/>
<text x="30" y="71" dy="0.5ex" text-anchor="end" font-family="sans-serif" font-size="9.67741935483871" opacity="1" fill="#000000">
90%
</text>
<polyline fill="none" opacity="1" stroke="#000000" stroke-width="1" points="34,71 39,71 "/>
<text x="30" y="14" dy="0.5ex" text-anchor="end" font-family="sans-serif" font-size="9.67741935483871" opacity="1" fill="#000000">
100%
</text>
<polyline fill="none" opacity="1" stroke="#000000" stroke-width="1" points="34,14 39,14 "/>
<polyline fill="none" opacity="1" stroke="#000000" stroke-width="1" points="40,580 947,580 "/>
<text x="40" y="590" dy="0.76em" text-anchor="middle" font-family="sans-serif" font-size="9.67741935483871" opacity="1" fill="#000000">
2019-03-16
</text>
<polyline fill="none" opacity="1" stroke="#000000" stroke-width="1" points="40,580 40,585 "/>
<text x="131" y="590" dy="0.76em" text-anchor="middle" font-family="sans-serif" font-size="9.67741935483871" opacity="1" fill="#000000">
2019-05-11
</text>
<polyline fill="none" opacity="1" stroke="#000000" stroke-width="1" points="131,580 131,585 "/>
<text x="223" y="590" dy="0.76em" text-anchor="middle" font-family="sans-serif" font-size="9.67741935483871" opacity="1" fill="#000000">
2019-07-06
</text>
<polyline fill="none" opacity="1" stroke="#000000" stroke-width="1" points="223,580 223,585 "/>
<text x="314" y="590" dy="0.76em" text-anchor="middle" font-family="sans-serif" font-size="9.67741935483871" opacity="1" fill="#000000">
2019-08-31
</text>
<polyline fill="none" opacity="1" stroke="#000000" stroke-width="1" points="314,580 314,585 "/>
<text x="406" y="590" dy="0.76em" text-anchor="middle" font-family="sans-serif" font-size="9.67741935483871" opacity="1" fill="#000000">
2019-10-26
</text>
<polyline fill="none" opacity="1" stroke="#000000" stroke-width="1" points="406,580 406,585 "/>
<text x="497" y="590" dy="0.76em" text-anchor="middle" font-family="sans-serif" font-size="9.67741935483871" opacity="1" fill="#000000">
2019-12-21
</text>
<polyline fill="none" opacity="1" stroke="#000000" stroke-width="1" points="497,580 497,585 "/>
<text x="589" y="590" dy="0.76em" text-anchor="middle" font-family="sans-serif" font-size="9.67741935483871" opacity="1" fill="#000000">
2020-02-15
</text>
<polyline fill="none" opacity="1" stroke="#000000" stroke-width="1" points="589,580 589,585 "/>
<text x="681" y="590" dy="0.76em" text-anchor="middle" font-family="sans-serif" font-size="9.67741935483871" opacity="1" fill="#000000">
2020-04-11
</text>
<polyline fill="none" opacity="1" stroke="#000000" stroke-width="1" points="681,580 681,585 "/>
<text x="772" y="590" dy="0.76em" text-anchor="middle" font-family="sans-serif" font-size="9.67741935483871" opacity="1" fill="#000000">
2020-06-06
</text>
<polyline fill="none" opacity="1" stroke="#000000" stroke-width="1" points="772,580 772,585 "/>
<text x="864" y="590" dy="0.76em" text-anchor="middle" font-family="sans-serif" font-size="9.67741935483871" opacity="1" fill="#000000">
2020-08-01
</text>
<polyline fill="none" opacity="1" stroke="#000000" stroke-width="1" points="864,580 864,585 "/>
<polyline fill="none" opacity="1" stroke="#FF0000" stroke-width="1" points="40,578 40,578 47,576 48,575 169,575 173,575 175,575 179,575 182,575 190,573 247,572 248,572 453,571 465,571 495,570 509,570 522,569 522,569 544,568 559,568 567,567 640,567 642,567 643,567 651,566 652,566 653,566 655,565 656,564 659,563 661,563 663,562 664,562 666,561 669,560 671,560 673,559 674,559 677,559 678,558 680,557 682,557 682,557 684,556 686,556 688,555 689,555 691,554 693,553 696,553 697,553 699,552 701,552 703,551 703,551 706,550 707,550 709,549 710,549 713,548 713,548 716,547 718,547 720,546 722,546 723,545 725,545 728,544 730,543 732,543 733,542 735,542 737,541 739,540 740,540 742,540 744,539 745,539 747,538 750,537 752,537 754,536 755,536 757,535 758,535 760,534 762,534 763,534 765,533 767,533 768,532 770,532 771,531 773,531 776,530 778,529 780,529 781,528 783,528 785,527 786,527 788,527 790,526 791,526 793,525 795,525 796,524 798,524 799,523 801,523 803,522 804,522 806,521 808,521 809,521 811,520 812,520 814,519 816,519 817,518 819,518 821,517 822,517 824,516 825,516 827,515 829,515 831,515 832,514 834,514 835,513 837,513 839,512 840,512 842,511 844,511 845,510 847,510 848,509 850,509 852,508 854,508 855,508 857,507 858,507 860,506 861,506 863,505 865,505 866,504 868,504 870,503 871,503 873,502 875,502 876,502 878,501 880,501 881,500 883,500 884,499 886,499 888,498 889,498 891,497 894,496 896,496 897,495 901,495 902,494 904,494 906,493 907,493 909,492 912,491 914,491 915,490 917,490 919,489 920,489 924,488 925,488 927,487 929,487 930,486 932,486 935,485 937,484 938,484 940,483 942,483 943,483 947,482 "/>
</svg>
