<svg width="987" height="610" viewBox="0 0 987 610" xmlns="http://www.w3.org/2000/svg">
<line opacity="0.1" stroke="#000000" stroke-width="1" x1="40" y1="579" x2="40" y2="9"/>
<line opacity="0.1" stroke="#000000" stroke-width="1" x1="52" y1="579" x2="52" y2="9"/>
<line opacity="0.1" stroke="#000000" stroke-width="1" x1="64" y1="579" x2="64" y2="9"/>
<line opacity="0.1" stroke="#000000" stroke-width="1" x1="76" y1="579" x2="76" y2="9"/>
<line opacity="0.1" stroke="#000000" stroke-width="1" x1="88" y1="579" x2="88" y2="9"/>
<line opacity="0.1" stroke="#000000" stroke-width="1" x1="100" y1="579" x2="100" y2="9"/>
<line opacity="0.1" stroke="#000000" stroke-width="1" x1="112" y1="579" x2="112" y2="9"/>
<line opacity="0.1" stroke="#000000" stroke-width="1" x1="124" y1="579" x2="124" y2="9"/>
<line opacity="0.1" stroke="#000000" stroke-width="1" x1="136" y1="579" x2="136" y2="9"/>
<line opacity="0.1" stroke="#000000" stroke-width="1" x1="148" y1="579" x2="148" y2="9"/>
<line opacity="0.1" stroke="#000000" stroke-width="1" x1="160" y1="579" x2="160" y2="9"/>
<line opacity="0.1" stroke="#000000" stroke-width="1" x1="172" y1="579" x2="172" y2="9"/>
<line opacity="0.1" stroke="#000000" stroke-width="1" x1="184" y1="579" x2="184" y2="9"/>
<line opacity="0.1" stroke="#000000" stroke-width="1" x1="196" y1="579" x2="196" y2="9"/>
<line opacity="0.1" stroke="#000000" stroke-width="1" x1="208" y1="579" x2="208" y2="9"/>
<line opacity="0.1" stroke="#000000" stroke-width="1" x1="220" y1="579" x2="220" y2="9"/>
<line opacity="0.1" stroke="#000000" stroke-width="1" x1="232" y1="579" x2="232" y2="9"/>
<line opacity="0.1" stroke="#000000" stroke-width="1" x1="244" y1="579" x2="244" y2="9"/>
<line opacity="0.1" stroke="#000000" stroke-width="1" x1="256" y1="579" x2="256" y2="9"/>
<line opacity="0.1" stroke="#000000" stroke-width="1" x1="268" y1="579" x2="268" y2="9"/>
<line opacity="0.1" stroke="#000000" stroke-width="1" x1="280" y1="579" x2="280" y2="9"/>
<line opacity="0.1" stroke="#000000" stroke-width="1" x1="292" y1="579" x2="292" y2="9"/>
<line opacity="0.1" stroke="#000000" stroke-width="1" x1="304" y1="579" x2="304" y2="9"/>
<line opacity="0.1" stroke="#000000" stroke-width="1" x1="316" y1="579" x2="316" y2="9"/>
<line opacity="0.1" stroke="#000000" stroke-width="1" x1="328" y1="579" x2="328" y2="9"/>
<line opacity="0.1" stroke="#000000" stroke-width="1" x1="340" y1="579" x2="340" y2="9"/>
<line opacity="0.1" stroke="#000000" stroke-width="1" x1="352" y1="579" x2="352" y2="9"/>
<line opacity="0.1" stroke="#000000" stroke-width="1" x1="364" y1="579" x2="364" y2="9"/>
<line opacity="0.1" stroke="#000000" stroke-width="1" x1="376" y1="579" x2="376" y2="9"/>
<line opacity="0.1" stroke="#000000" stroke-width="1" x1="388" y1="579" x2="388" y2="9"/>
<line opacity="0.1" stroke="#000000" stroke-width="1" x1="400" y1="579" x2="400" y2="9"/>
<line opacity="0.1" stroke="#000000" stroke-width="1" x1="412" y1="579" x2="412" y2="9"/>
<line opacity="0.1" stroke="#000000" stroke-width="1" x1="424" y1="579" x2="424" y2="9"/>
<line opacity="0.1" stroke="#000000" stroke-width="1" x1="436" y1="579" x2="436" y2="9"/>
<line opacity="0.1" stroke="#000000" stroke-width="1" x1="448" y1="579" x2="448" y2="9"/>
<line opacity="0.1" stroke="#000000" stroke-width="1" x1="460" y1="579" x2="460" y2="9"/>
<line opacity="0.1" stroke="#000000" stroke-width="1" x1="472" y1="579" x2="472" y2="9"/>
<line opacity="0.1" stroke="#000000" stroke-width="1" x1="484" y1="579" x2="484" y2="9"/>
<line opacity="0.1" stroke="#000000" stroke-width="1" x1="496" y1="579" x2="496" y2="9"/>
<line opacity="0.1" stroke="#000000" stroke-width="1" x1="508" y1="579" x2="508" y2="9"/>
<line opacity="0.1" stroke="#000000" stroke-width="1" x1="520" y1="579" x2="520" y2="9"/>
<line opacity="0.1" stroke="#000000" stroke-width="1" x1="532" y1="579" x2="532" y2="9"/>
<line opacity="0.1" stroke="#000000" stroke-width="1" x1="544" y1="579" x2="544" y2="9"/>
<line opacity="0.1" stroke="#000000" stroke-width="1" x1="556" y1="579" x2="556" y2="9"/>
<line opacity="0.1" stroke="#000000" stroke-width="1" x1="568" y1="579" x2="568" y2="9"/>
<line opacity="0.1" stroke="#000000" stroke-width="1" x1="580" y1="579" x2="580" y2="9"/>
<line opacity="0.1" stroke="#000000" stroke-width="1" x1="592" y1="579" x2="592" y2="9"/>
<line opacity="0.1" stroke="#000000" stroke-width="1" x1="604" y1="579" x2="604" y2="9"/>
<line opacity="0.1" stroke="#000000" stroke-width="1" x1="616" y1="579" x2="616" y2="9"/>
<line opacity="0.1" stroke="#000000" stroke-width="1" x1="628" y1="579" x2="628" y2="9"/>
<line opacity="0.1" stroke="#000000" stroke-width="1" x1="640" y1="579" x2="640" y2="9"/>
<line opacity="0.1" stroke="#000000" stroke-width="1" x1="652" y1="579" x2="652" y2="9"/>
<line opacity="0.1" stroke="#000000" stroke-width="1" x1="664" y1="579" x2="664" y2="9"/>
<line opacity="0.1" stroke="#000000" stroke-width="1" x1="676" y1="579" x2="676" y2="9"/>
<line opacity="0.1" stroke="#000000" stroke-width="1" x1="688" y1="579" x2="688" y2="9"/>
<line opacity="0.1" stroke="#000000" stroke-width="1" x1="700" y1="579" x2="700" y2="9"/>
<line opacity="0.1" stroke="#000000" stroke-width="1" x1="712" y1="579" x2="712" y2="9"/>
<line opacity="0.1" stroke="#000000" stroke-width="1" x1="724" y1="579" x2="724" y2="9"/>
<line opacity="0.1" stroke="#000000" stroke-width="1" x1="736" y1="579" x2="736" y2="9"/>
<line opacity="0.1" stroke="#000000" stroke-width="1" x1="748" y1="579" x2="748" y2="9"/>
<line opacity="0.1" stroke="#000000" stroke-width="1" x1="760" y1="579" x2="760" y2="9"/>
<line opacity="0.1" stroke="#000000" stroke-width="1" x1="772" y1="579" x2="772" y2="9"/>
<line opacity="0.1" stroke="#000000" stroke-width="1" x1="784" y1="579" x2="784" y2="9"/>
<line opacity="0.1" stroke="#000000" stroke-width="1" x1="796" y1="579" x2="796" y2="9"/>
<line opacity="0.1" stroke="#000000" stroke-width="1" x1="808" y1="579" x2="808" y2="9"/>
<line opacity="0.1" stroke="#000000" stroke-width="1" x1="820" y1="579" x2="820" y2="9"/>
<line opacity="0.1" stroke="#000000" stroke-width="1" x1="832" y1="579" x2="832" y2="9"/>
<line opacity="0.1" stroke="#000000" stroke-width="1" x1="844" y1="579" x2="844" y2="9"/>
<line opacity="0.1" stroke="#000000" stroke-width="1" x1="856" y1="579" x2="856" y2="9"/>
<line opacity="0.1" stroke="#000000" stroke-width="1" x1="868" y1="579" x2="868" y2="9"/>
<line opacity="0.1" stroke="#000000" stroke-width="1" x1="880" y1="579" x2="880" y2="9"/>
<line opacity="0.1" stroke="#000000" stroke-width="1" x1="892" y1="579" x2="892" y2="9"/>
<line opacity="0.1" stroke="#000000" stroke-width="1" x1="904" y1="579" x2="904" y2="9"/>
<line opacity="0.1" stroke="#000000" stroke-width="1" x1="916" y1="579" x2="916" y2="9"/>
<line opacity="0.1" stroke="#000000" stroke-width="1" x1="928" y1="579" x2="928" y2="9"/>
<line opacity="0.1" stroke="#000000" stroke-width="1" x1="940" y1="579" x2="940" y2="9"/>
<line opacity="0.1" stroke="#000000" stroke-width="1" x1="40" y1="567" x2="947" y2="567"/>
<line opacity="0.1" stroke="#000000" stroke-width="1" x1="40" y1="556" x2="947" y2="556"/>
<line opacity="0.1" stroke="#000000" stroke-width="1" x1="40" y1="545" x2="947" y2="545"/>
<line opacity="0.1" stroke="#000000" stroke-width="1" x1="40" y1="533" x2="947" y2="533"/>
<line opacity="0.1" stroke="#000000" stroke-width="1" x1="40" y1="522" x2="947" y2="522"/>
<line opacity="0.1" stroke="#000000" stroke-width="1" x1="40" y1="511" x2="947" y2="511"/>
<line opacity="0.1" stroke="#000000" stroke-width="1" x1="40" y1="499" x2="947" y2="499"/>
<line opacity="0.1" stroke="#000000" stroke-width="1" x1="40" y1="488" x2="947" y2="488"/>
<line opacity="0.1" stroke="#000000" stroke-width="1" x1="40" y1="477" x2="947" y2="477"/>
<line opacity="0.1" stroke="#000000" stroke-width="1" x1="40" y1="466" x2="947" y2="466"/>
<line opacity="0.1" stroke="#000000" stroke-width="1" x1="40" y1="454" x2="947" y2="454"/>
<line opacity="0.1" stroke="#000000" stroke-width="1" x1="40" y1="443" x2="947" y2="443"/>
<line opacity="0.1" stroke="#000000" stroke-width="1" x1="40" y1="432" x2="947" y2="432"/>
<line opacity="0.1" stroke="#000000" stroke-width="1" x1="40" y1="420" x2="947" y2="420"/>
<line opacity="0.1" stroke="#000000" stroke-width="1" x1="40" y1="409" x2="947" y2="409"/>
<line opacity="0.1" stroke="#000000" stroke-width="1" x1="40" y1="398" x2="947" y2="398"/>
<line opacity="0.1" stroke="#000000" stroke-width="1" x1="40" y1="387" x2="947" y2="387"/>
<line opacity="0.1" stroke="#000000" stroke-width="1" x1="40" y1="375" x2="947" y2="375"/>
<line opacity="0.1" stroke="#000000" stroke-width="1" x1="40" y1="364" x2="947" y2="364"/>
<line opacity="0.1" stroke="#000000" stroke-width="1" x1="40" y1="353" x2="947" y2="353"/>
<line opacity="0.1" stroke="#000000" stroke-width="1" x1="40" y1="341" x2="947" y2="341"/>
<line opacity="0.1" stroke="#000000" stroke-width="1" x1="40" y1="330" x2="947" y2="330"/>
<line opacity="0.1" stroke="#000000" stroke-width="1" x1="40" y1="319" x2="947" y2="319"/>
<line opacity="0.1" stroke="#000000" stroke-width="1" x1="40" y1="308" x2="947" y2="308"/>
<line opacity="0.1" stroke="#000000" stroke-width="1" x1="40" y1="296" x2="947" y2="296"/>
<line opacity="0.1" stroke="#000000" stroke-width="1" x1="40" y1="285" x2="947" y2="285"/>
<line opacity="0.1" stroke="#000000" stroke-width="1" x1="40" y1="274" x2="947" y2="274"/>
<line opacity="0.1" stroke="#000000" stroke-width="1" x1="40" y1="262" x2="947" y2="262"/>
<line opacity="0.1" stroke="#000000" stroke-width="1" x1="40" y1="251" x2="947" y2="251"/>
<line opacity="0.1" stroke="#000000" stroke-width="1" x1="40" y1="240" x2="947" y2="240"/>
<line opacity="0.1" stroke="#000000" stroke-width="1" x1="40" y1="229" x2="947" y2="229"/>
<line opacity="0.1" stroke="#000000" stroke-width="1" x1="40" y1="217" x2="947" y2="217"/>
<line opacity="0.1" stroke="#000000" stroke-width="1" x1="40" y1="206" x2="947" y2="206"/>
<line opacity="0.1" stroke="#000000" stroke-width="1" x1="40" y1="195" x2="947" y2="195"/>
<line opacity="0.1" stroke="#000000" stroke-width="1" x1="40" y1="183" x2="947" y2="183"/>
<line opacity="0.1" stroke="#000000" stroke-width="1" x1="40" y1="172" x2="947" y2="172"/>
<line opacity="0.1" stroke="#000000" stroke-width="1" x1="40" y1="161" x2="947" y2="161"/>
<line opacity="0.1" stroke="#000000" stroke-width="1" x1="40" y1="150" x2="947" y2="150"/>
<line opacity="0.1" stroke="#000000" stroke-width="1" x1="40" y1="138" x2="947" y2="138"/>
<line opacity="0.1" stroke="#000000" stroke-width="1" x1="40" y1="127" x2="947" y2="127"/>
<line opacity="0.1" stroke="#000000" stroke-width="1" x1="40" y1="116" x2="947" y2="116"/>
<line opacity="0.1" stroke="#000000" stroke-width="1" x1="40" y1="104" x2="947" y2="104"/>
<line opacity="0.1" stroke="#000000" stroke-width="1" x1="40" y1="93" x2="947" y2="93"/>
<line opacity="0.1" stroke="#000000" stroke-width="1" x1="40" y1="82" x2="947" y2="82"/>
<line opacity="0.1" stroke="#000000" stroke-width="1" x1="40" y1="71" x2="947" y2="71"/>
<line opacity="0.1" stroke="#000000" stroke-width="1" x1="40" y1="59" x2="947" y2="59"/>
<line opacity="0.1" stroke="#000000" stroke-width="1" x1="40" y1="48" x2="947" y2="48"/>
<line opacity="0.1" stroke="#000000" stroke-width="1" x1="40" y1="37" x2="947" y2="37"/>
<line opacity="0.1" stroke="#000000" stroke-width="1" x1="40" y1="25" x2="947" y2="25"/>
<line opacity="0.1" stroke="#000000" stroke-width="1" x1="40" y1="14" x2="947" y2="14"/>
<line opacity="0.2" stroke="#000000" stroke-width="1" x1="40" y1="579" x2="40" y2="9"/>
<line opacity="0.2" stroke="#000000" stroke-width="1" x1="136" y1="579" x2="136" y2="9"/>
<line opacity="0.2" stroke="#000000" stroke-width="1" x1="232" y1="579" x2="232" y2="9"/>
<line opacity="0.2" stroke="#000000" stroke-width="1" x1="328" y1="579" x2="328" y2="9"/>
<line opacity="0.2" stroke="#000000" stroke-width="1" x1="424" y1="579" x2="424" y2="9"/>
<line opacity="0.2" stroke="#000000" stroke-width="1" x1="520" y1="579" x2="520" y2="9"/>
<line opacity="0.2" stroke="#000000" stroke-width="1" x1="616" y1="579" x2="616" y2="9"/>
<line opacity="0.2" stroke="#000000" stroke-width="1" x1="712" y1="579" x2="712" y2="9"/>
<line opacity="0.2" stroke="#000000" stroke-width="1" x1="808" y1="579" x2="808" y2="9"/>
<line opacity="0.2" stroke="#000000" stroke-width="1" x1="904" y1="579" x2="904" y2="9"/>
<line opacity="0.2" stroke="#000000" stroke-width="1" x1="40" y1="522" x2="947" y2="522"/>
<line opacity="0.2" stroke="#000000" stroke-width="1" x1="40" y1="466" x2="947" y2="466"/>
<line opacity="0.2" stroke="#000000" stroke-width="1" x1="40" y1="409" x2="947" y2="409"/>
<line opacity="0.2" stroke="#000000" stroke-width="1" x1="40" y1="353" x2="947" y2="353"/>
<line opacity="0.2" stroke="#000000" stroke-width="1" x1="40" y1="296" x2="947" y2="296"/>
<line opacity="0.2" stroke="#000000" stroke-width="1" x1="40" y1="240" x2="947" y2="240"/>
<line opacity="0.2" stroke="#000000" stroke-width="1" x1="40" y1="183" x2="947" y2="183"/>
<line opacity="0.2" stroke="#000000" stroke-width="1" x1="40" y1="127" x2="947" y2="127"/>
<line opacity="0.2" stroke="#000000" stroke-width="1" x1="40" y1="71" x2="947" y2="71"/>
<line opacity="0.2" stroke="#000000" stroke-width="1" x1="40" y1="14" x2="947" y2="14"/>
<polyline fill="none" opacity="1" stroke="#000000" stroke-width="1" points="39,10 39,580 "/>
<text x="30" y="522" dy="0.5ex" text-anchor="end" font-family="sans-serif" font-size="9.67741935483871" opacity="1" fill="#000000">
10%
</text>
<polyline fill="none" opacity="1" stroke="#000000" stroke-width="1" points="34,522 39,522 "/>
<text x="30" y="466" dy="0.5ex" text-anchor="end" font-family="sans-serif" font-size="9.67741935483871" opacity="1" fill="#000000">
20%
</text>
<polyline fill="none" opacity="1" stroke="#000000" stroke-width="1" points="34,466 39,466 "/>
<text x="30" y="409" dy="0.5ex" text-anchor="end" font-family="sans-serif" font-size="9.67741935483871" opacity="1" fill="#000000">
30%
</text>
<polyline fill="none" opacity="1" stroke="#000000" stroke-width="1" points="34,409 39,409 "/>
<text x="30" y="353" dy="0.5ex" text-anchor="end" font-family="sans-serif" font-size="9.67741935483871" opacity="1" fill="#000000">
40%
</text>
<polyline fill="none" opacity="1" stroke="#000000" stroke-width="1" points="34,353 39,353 "/>
<text x="30" y="296" dy="0.5ex" text-anchor="end" font-family="sans-serif" font-size="9.67741935483871" opacity="1" fill="#000000">
50%
</text>
<polyline fill="none" opacity="1" stroke="#000000" stroke-width="1" points="34,296 39,296 "/>
<text x="30" y="240" dy="0.5ex" text-anchor="end" font-family="sans-serif" font-size="9.67741935483871" opacity="1" fill="#000000">
60%
</text>
<polyline fill="none" opacity="1" stroke="#000000" stroke-width="1" points="34,240 39,240 "/>
<text x="30" y="183" dy="0.5ex" text-anchor="end" font-family="sans-serif" font-size="9.67741935483871" opacity="1" fill="#000000">
70%
</text>
<polyline fill="none" opacity="1" stroke="#000000" stroke-width="1" points="34,183 39,183 "/>
<text x="30" y="127" dy="0.5ex" text-anchor="end" font-family="sans-serif" font-size="9.67741935483871" opacity="1" fill="#000000">
80%
</text>
<polyline fill="none" opacity="1" stroke="#000000" stroke-width="1" points="34,127 39,127 "/>
<text x="30" y="71" dy="0.5ex" text-anchor="end" font-family="sans-serif" font-size="9.67741935483871" opacity="1" fill="#000000">
90%
</text>
<polyline fill="none" opacity="1" stroke="#000000" stroke-width="1" points="34,71 39,71 "/>
<text x="30" y="14" dy="0.5ex" text-anchor="end" font-family="sans-serif" font-size="9.67741935483871" opacity="1" fill="#000000">
100%
</text>
<polyline fill="none" opacity="1" stroke="#000000" stroke-width="1" points="34,14 39,14 "/>
<polyline fill="none" opacity="1" stroke="#000000" stroke-width="1" points="40,580 947,580 "/>
<text x="40" y="590" dy="0.76em" text-anchor="middle" font-family="sans-serif" font-size="9.67741935483871" opacity="1" fill="#000000">
2019-03-16
</text>
<polyline fill="none" opacity="1" stroke="#000000" stroke-width="1" points="40,580 40,585 "/>
<text x="136" y="590" dy="0.76em" text-anchor="middle" font-family="sans-serif" font-size="9.67741935483871" opacity="1" fill="#000000">
2019-05-11
</text>
<polyline fill="none" opacity="1" stroke="#000000" stroke-width="1" points="136,580 136,585 "/>
<text x="232" y="590" dy="0.76em" text-anchor="middle" font-family="sans-serif" font-size="9.67741935483871" opacity="1" fill="#000000">
2019-07-06
</text>
<polyline fill="none" opacity="1" stroke="#000000" stroke-width="1" points="232,580 232,585 "/>
<text x="328" y="590" dy="0.76em" text-anchor="middle" font-family="sans-serif" font-size="9.67741935483871" opacity="1" fill="#000000">
2019-08-31
</text>
<polyline fill="none" opacity="1" stroke="#000000" stroke-width="1" points="328,580 328,585 "/>
<text x="424" y="590" dy="0.76em" text-anchor="middle" font-family="sans-serif" font-size="9.67741935483871" opacity="1" fill="#000000">
2019-10-26
</text>
<polyline fill="none" opacity="1" stroke="#000000" stroke-width="1" points="424,580 424,585 "/>
<text x="520" y="590" dy="0.76em" text-anchor="middle" font-family="sans-serif" font-size="9.67741935483871" opacity="1" fill="#000000">
2019-12-21
</text>
<polyline fill="none" opacity="1" stroke="#000000" stroke-width="1" points="520,580 520,585 "/>
<text x="616" y="590" dy="0.76em" text-anchor="middle" font-family="sans-serif" font-size="9.67741935483871" opacity="1" fill="#000000">
2020-02-15
</text>
<polyline fill="none" opacity="1" stroke="#000000" stroke-width="1" points="616,580 616,585 "/>
<text x="712" y="590" dy="0.76em" text-anchor="middle" font-family="sans-serif" font-size="9.67741935483871" opacity="1" fill="#000000">
2020-04-11
</text>
<polyline fill="none" opacity="1" stroke="#000000" stroke-width="1" points="712,580 712,585 "/>
<text x="808" y="590" dy="0.76em" text-anchor="middle" font-family="sans-serif" font-size="9.67741935483871" opacity="1" fill="#000000">
2020-06-06
</text>
<polyline fill="none" opacity="1" stroke="#000000" stroke-width="1" points="808,580 808,585 "/>
<text x="904" y="590" dy="0.76em" text-anchor="middle" font-family="sans-serif" font-size="9.67741935483871" opacity="1" fill="#000000">
2020-08-01
</text>
<polyline fill="none" opacity="1" stroke="#000000" stroke-width="1" points="904,580 904,585 "/>
<polyline fill="none" opacity="1" stroke="#FF0000" stroke-width="1" points="40,578 40,578 47,576 48,575 175,575 180,575 182,575 186,575 189,575 198,573 257,572 258,572 473,571 486,571 517,570 532,570 546,569 546,569 568,568 585,568 593,567 669,567 671,567 673,567 681,566 682,566 683,565 685,565 687,564 689,563 692,563 694,562 695,562 697,561 700,560 702,560 704,559 706,559 708,558 709,558 712,557 714,556 714,556 716,556 718,555 719,555 721,555 723,554 725,553 728,553 730,552 731,552 733,551 736,550 736,550 739,549 740,549 742,549 743,548 746,548 746,547 750,547 751,546 753,546 755,545 757,545 759,544 762,543 764,543 766,542 767,542 769,541 771,540 773,540 775,539 777,539 778,539 780,538 782,538 785,537 787,536 789,536 790,535 792,535 794,534 796,534 797,533 799,533 801,532 802,532 804,532 806,531 807,531 809,530 813,529 814,529 816,528 818,528 819,527 821,527 823,526 825,526 826,525 828,525 830,524 832,524 833,524 835,523 837,523 838,522 840,522 842,521 844,521 845,520 847,520 849,519 850,519 852,518 854,518 856,517 858,517 859,516 861,516 862,516 864,515 866,515 868,514 870,514 871,513 873,513 874,512 876,512 878,511 880,511 882,510 883,510 885,509 886,509 888,508 890,508 892,508 894,507 895,507 897,506 898,506 900,505 902,505 904,504 905,504 907,503 909,503 910,502 912,502 914,501 916,501 917,500 919,500 921,500 923,499 924,499 926,498 928,498 929,497 931,497 933,496 936,495 938,495 940,494 943,493 945,493 947,493 "/>
</svg>
