<svg width="987" height="610" viewBox="0 0 987 610" xmlns="http://www.w3.org/2000/svg">
<line opacity="0.1" stroke="#000000" stroke-width="1" x1="40" y1="579" x2="40" y2="9"/>
<line opacity="0.1" stroke="#000000" stroke-width="1" x1="51" y1="579" x2="51" y2="9"/>
<line opacity="0.1" stroke="#000000" stroke-width="1" x1="62" y1="579" x2="62" y2="9"/>
<line opacity="0.1" stroke="#000000" stroke-width="1" x1="74" y1="579" x2="74" y2="9"/>
<line opacity="0.1" stroke="#000000" stroke-width="1" x1="85" y1="579" x2="85" y2="9"/>
<line opacity="0.1" stroke="#000000" stroke-width="1" x1="96" y1="579" x2="96" y2="9"/>
<line opacity="0.1" stroke="#000000" stroke-width="1" x1="108" y1="579" x2="108" y2="9"/>
<line opacity="0.1" stroke="#000000" stroke-width="1" x1="119" y1="579" x2="119" y2="9"/>
<line opacity="0.1" stroke="#000000" stroke-width="1" x1="131" y1="579" x2="131" y2="9"/>
<line opacity="0.1" stroke="#000000" stroke-width="1" x1="142" y1="579" x2="142" y2="9"/>
<line opacity="0.1" stroke="#000000" stroke-width="1" x1="153" y1="579" x2="153" y2="9"/>
<line opacity="0.1" stroke="#000000" stroke-width="1" x1="165" y1="579" x2="165" y2="9"/>
<line opacity="0.1" stroke="#000000" stroke-width="1" x1="176" y1="579" x2="176" y2="9"/>
<line opacity="0.1" stroke="#000000" stroke-width="1" x1="188" y1="579" x2="188" y2="9"/>
<line opacity="0.1" stroke="#000000" stroke-width="1" x1="199" y1="579" x2="199" y2="9"/>
<line opacity="0.1" stroke="#000000" stroke-width="1" x1="210" y1="579" x2="210" y2="9"/>
<line opacity="0.1" stroke="#000000" stroke-width="1" x1="222" y1="579" x2="222" y2="9"/>
<line opacity="0.1" stroke="#000000" stroke-width="1" x1="233" y1="579" x2="233" y2="9"/>
<line opacity="0.1" stroke="#000000" stroke-width="1" x1="244" y1="579" x2="244" y2="9"/>
<line opacity="0.1" stroke="#000000" stroke-width="1" x1="256" y1="579" x2="256" y2="9"/>
<line opacity="0.1" stroke="#000000" stroke-width="1" x1="267" y1="579" x2="267" y2="9"/>
<line opacity="0.1" stroke="#000000" stroke-width="1" x1="279" y1="579" x2="279" y2="9"/>
<line opacity="0.1" stroke="#000000" stroke-width="1" x1="290" y1="579" x2="290" y2="9"/>
<line opacity="0.1" stroke="#000000" stroke-width="1" x1="301" y1="579" x2="301" y2="9"/>
<line opacity="0.1" stroke="#000000" stroke-width="1" x1="313" y1="579" x2="313" y2="9"/>
<line opacity="0.1" stroke="#000000" stroke-width="1" x1="324" y1="579" x2="324" y2="9"/>
<line opacity="0.1" stroke="#000000" stroke-width="1" x1="336" y1="579" x2="336" y2="9"/>
<line opacity="0.1" stroke="#000000" stroke-width="1" x1="347" y1="579" x2="347" y2="9"/>
<line opacity="0.1" stroke="#000000" stroke-width="1" x1="358" y1="579" x2="358" y2="9"/>
<line opacity="0.1" stroke="#000000" stroke-width="1" x1="370" y1="579" x2="370" y2="9"/>
<line opacity="0.1" stroke="#000000" stroke-width="1" x1="381" y1="579" x2="381" y2="9"/>
<line opacity="0.1" stroke="#000000" stroke-width="1" x1="392" y1="579" x2="392" y2="9"/>
<line opacity="0.1" stroke="#000000" stroke-width="1" x1="404" y1="579" x2="404" y2="9"/>
<line opacity="0.1" stroke="#000000" stroke-width="1" x1="415" y1="579" x2="415" y2="9"/>
<line opacity="0.1" stroke="#000000" stroke-width="1" x1="427" y1="579" x2="427" y2="9"/>
<line opacity="0.1" stroke="#000000" stroke-width="1" x1="438" y1="579" x2="438" y2="9"/>
<line opacity="0.1" stroke="#000000" stroke-width="1" x1="449" y1="579" x2="449" y2="9"/>
<line opacity="0.1" stroke="#000000" stroke-width="1" x1="461" y1="579" x2="461" y2="9"/>
<line opacity="0.1" stroke="#000000" stroke-width="1" x1="472" y1="579" x2="472" y2="9"/>
<line opacity="0.1" stroke="#000000" stroke-width="1" x1="484" y1="579" x2="484" y2="9"/>
<line opacity="0.1" stroke="#000000" stroke-width="1" x1="495" y1="579" x2="495" y2="9"/>
<line opacity="0.1" stroke="#000000" stroke-width="1" x1="506" y1="579" x2="506" y2="9"/>
<line opacity="0.1" stroke="#000000" stroke-width="1" x1="518" y1="579" x2="518" y2="9"/>
<line opacity="0.1" stroke="#000000" stroke-width="1" x1="529" y1="579" x2="529" y2="9"/>
<line opacity="0.1" stroke="#000000" stroke-width="1" x1="540" y1="579" x2="540" y2="9"/>
<line opacity="0.1" stroke="#000000" stroke-width="1" x1="552" y1="579" x2="552" y2="9"/>
<line opacity="0.1" stroke="#000000" stroke-width="1" x1="563" y1="579" x2="563" y2="9"/>
<line opacity="0.1" stroke="#000000" stroke-width="1" x1="575" y1="579" x2="575" y2="9"/>
<line opacity="0.1" stroke="#000000" stroke-width="1" x1="586" y1="579" x2="586" y2="9"/>
<line opacity="0.1" stroke="#000000" stroke-width="1" x1="597" y1="579" x2="597" y2="9"/>
<line opacity="0.1" stroke="#000000" stroke-width="1" x1="609" y1="579" x2="609" y2="9"/>
<line opacity="0.1" stroke="#000000" stroke-width="1" x1="620" y1="579" x2="620" y2="9"/>
<line opacity="0.1" stroke="#000000" stroke-width="1" x1="632" y1="579" x2="632" y2="9"/>
<line opacity="0.1" stroke="#000000" stroke-width="1" x1="643" y1="579" x2="643" y2="9"/>
<line opacity="0.1" stroke="#000000" stroke-width="1" x1="654" y1="579" x2="654" y2="9"/>
<line opacity="0.1" stroke="#000000" stroke-width="1" x1="666" y1="579" x2="666" y2="9"/>
<line opacity="0.1" stroke="#000000" stroke-width="1" x1="677" y1="579" x2="677" y2="9"/>
<line opacity="0.1" stroke="#000000" stroke-width="1" x1="688" y1="579" x2="688" y2="9"/>
<line opacity="0.1" stroke="#000000" stroke-width="1" x1="700" y1="579" x2="700" y2="9"/>
<line opacity="0.1" stroke="#000000" stroke-width="1" x1="711" y1="579" x2="711" y2="9"/>
<line opacity="0.1" stroke="#000000" stroke-width="1" x1="723" y1="579" x2="723" y2="9"/>
<line opacity="0.1" stroke="#000000" stroke-width="1" x1="734" y1="579" x2="734" y2="9"/>
<line opacity="0.1" stroke="#000000" stroke-width="1" x1="745" y1="579" x2="745" y2="9"/>
<line opacity="0.1" stroke="#000000" stroke-width="1" x1="757" y1="579" x2="757" y2="9"/>
<line opacity="0.1" stroke="#000000" stroke-width="1" x1="768" y1="579" x2="768" y2="9"/>
<line opacity="0.1" stroke="#000000" stroke-width="1" x1="780" y1="579" x2="780" y2="9"/>
<line opacity="0.1" stroke="#000000" stroke-width="1" x1="791" y1="579" x2="791" y2="9"/>
<line opacity="0.1" stroke="#000000" stroke-width="1" x1="802" y1="579" x2="802" y2="9"/>
<line opacity="0.1" stroke="#000000" stroke-width="1" x1="814" y1="579" x2="814" y2="9"/>
<line opacity="0.1" stroke="#000000" stroke-width="1" x1="825" y1="579" x2="825" y2="9"/>
<line opacity="0.1" stroke="#000000" stroke-width="1" x1="836" y1="579" x2="836" y2="9"/>
<line opacity="0.1" stroke="#000000" stroke-width="1" x1="848" y1="579" x2="848" y2="9"/>
<line opacity="0.1" stroke="#000000" stroke-width="1" x1="859" y1="579" x2="859" y2="9"/>
<line opacity="0.1" stroke="#000000" stroke-width="1" x1="871" y1="579" x2="871" y2="9"/>
<line opacity="0.1" stroke="#000000" stroke-width="1" x1="882" y1="579" x2="882" y2="9"/>
<line opacity="0.1" stroke="#000000" stroke-width="1" x1="893" y1="579" x2="893" y2="9"/>
<line opacity="0.1" stroke="#000000" stroke-width="1" x1="905" y1="579" x2="905" y2="9"/>
<line opacity="0.1" stroke="#000000" stroke-width="1" x1="916" y1="579" x2="916" y2="9"/>
<line opacity="0.1" stroke="#000000" stroke-width="1" x1="928" y1="579" x2="928" y2="9"/>
<line opacity="0.1" stroke="#000000" stroke-width="1" x1="939" y1="579" x2="939" y2="9"/>
<line opacity="0.1" stroke="#000000" stroke-width="1" x1="40" y1="567" x2="947" y2="567"/>
<line opacity="0.1" stroke="#000000" stroke-width="1" x1="40" y1="556" x2="947" y2="556"/>
<line opacity="0.1" stroke="#000000" stroke-width="1" x1="40" y1="545" x2="947" y2="545"/>
<line opacity="0.1" stroke="#000000" stroke-width="1" x1="40" y1="533" x2="947" y2="533"/>
<line opacity="0.1" stroke="#000000" stroke-width="1" x1="40" y1="522" x2="947" y2="522"/>
<line opacity="0.1" stroke="#000000" stroke-width="1" x1="40" y1="511" x2="947" y2="511"/>
<line opacity="0.1" stroke="#000000" stroke-width="1" x1="40" y1="499" x2="947" y2="499"/>
<line opacity="0.1" stroke="#000000" stroke-width="1" x1="40" y1="488" x2="947" y2="488"/>
<line opacity="0.1" stroke="#000000" stroke-width="1" x1="40" y1="477" x2="947" y2="477"/>
<line opacity="0.1" stroke="#000000" stroke-width="1" x1="40" y1="466" x2="947" y2="466"/>
<line opacity="0.1" stroke="#000000" stroke-width="1" x1="40" y1="454" x2="947" y2="454"/>
<line opacity="0.1" stroke="#000000" stroke-width="1" x1="40" y1="443" x2="947" y2="443"/>
<line opacity="0.1" stroke="#000000" stroke-width="1" x1="40" y1="432" x2="947" y2="432"/>
<line opacity="0.1" stroke="#000000" stroke-width="1" x1="40" y1="420" x2="947" y2="420"/>
<line opacity="0.1" stroke="#000000" stroke-width="1" x1="40" y1="409" x2="947" y2="409"/>
<line opacity="0.1" stroke="#000000" stroke-width="1" x1="40" y1="398" x2="947" y2="398"/>
<line opacity="0.1" stroke="#000000" stroke-width="1" x1="40" y1="387" x2="947" y2="387"/>
<line opacity="0.1" stroke="#000000" stroke-width="1" x1="40" y1="375" x2="947" y2="375"/>
<line opacity="0.1" stroke="#000000" stroke-width="1" x1="40" y1="364" x2="947" y2="364"/>
<line opacity="0.1" stroke="#000000" stroke-width="1" x1="40" y1="353" x2="947" y2="353"/>
<line opacity="0.1" stroke="#000000" stroke-width="1" x1="40" y1="341" x2="947" y2="341"/>
<line opacity="0.1" stroke="#000000" stroke-width="1" x1="40" y1="330" x2="947" y2="330"/>
<line opacity="0.1" stroke="#000000" stroke-width="1" x1="40" y1="319" x2="947" y2="319"/>
<line opacity="0.1" stroke="#000000" stroke-width="1" x1="40" y1="308" x2="947" y2="308"/>
<line opacity="0.1" stroke="#000000" stroke-width="1" x1="40" y1="296" x2="947" y2="296"/>
<line opacity="0.1" stroke="#000000" stroke-width="1" x1="40" y1="285" x2="947" y2="285"/>
<line opacity="0.1" stroke="#000000" stroke-width="1" x1="40" y1="274" x2="947" y2="274"/>
<line opacity="0.1" stroke="#000000" stroke-width="1" x1="40" y1="262" x2="947" y2="262"/>
<line opacity="0.1" stroke="#000000" stroke-width="1" x1="40" y1="251" x2="947" y2="251"/>
<line opacity="0.1" stroke="#000000" stroke-width="1" x1="40" y1="240" x2="947" y2="240"/>
<line opacity="0.1" stroke="#000000" stroke-width="1" x1="40" y1="229" x2="947" y2="229"/>
<line opacity="0.1" stroke="#000000" stroke-width="1" x1="40" y1="217" x2="947" y2="217"/>
<line opacity="0.1" stroke="#000000" stroke-width="1" x1="40" y1="206" x2="947" y2="206"/>
<line opacity="0.1" stroke="#000000" stroke-width="1" x1="40" y1="195" x2="947" y2="195"/>
<line opacity="0.1" stroke="#000000" stroke-width="1" x1="40" y1="183" x2="947" y2="183"/>
<line opacity="0.1" stroke="#000000" stroke-width="1" x1="40" y1="172" x2="947" y2="172"/>
<line opacity="0.1" stroke="#000000" stroke-width="1" x1="40" y1="161" x2="947" y2="161"/>
<line opacity="0.1" stroke="#000000" stroke-width="1" x1="40" y1="150" x2="947" y2="150"/>
<line opacity="0.1" stroke="#000000" stroke-width="1" x1="40" y1="138" x2="947" y2="138"/>
<line opacity="0.1" stroke="#000000" stroke-width="1" x1="40" y1="127" x2="947" y2="127"/>
<line opacity="0.1" stroke="#000000" stroke-width="1" x1="40" y1="116" x2="947" y2="116"/>
<line opacity="0.1" stroke="#000000" stroke-width="1" x1="40" y1="104" x2="947" y2="104"/>
<line opacity="0.1" stroke="#000000" stroke-width="1" x1="40" y1="93" x2="947" y2="93"/>
<line opacity="0.1" stroke="#000000" stroke-width="1" x1="40" y1="82" x2="947" y2="82"/>
<line opacity="0.1" stroke="#000000" stroke-width="1" x1="40" y1="71" x2="947" y2="71"/>
<line opacity="0.1" stroke="#000000" stroke-width="1" x1="40" y1="59" x2="947" y2="59"/>
<line opacity="0.1" stroke="#000000" stroke-width="1" x1="40" y1="48" x2="947" y2="48"/>
<line opacity="0.1" stroke="#000000" stroke-width="1" x1="40" y1="37" x2="947" y2="37"/>
<line opacity="0.1" stroke="#000000" stroke-width="1" x1="40" y1="25" x2="947" y2="25"/>
<line opacity="0.1" stroke="#000000" stroke-width="1" x1="40" y1="14" x2="947" y2="14"/>
<line opacity="0.2" stroke="#000000" stroke-width="1" x1="40" y1="579" x2="40" y2="9"/>
<line opacity="0.2" stroke="#000000" stroke-width="1" x1="131" y1="579" x2="131" y2="9"/>
<line opacity="0.2" stroke="#000000" stroke-width="1" x1="222" y1="579" x2="222" y2="9"/>
<line opacity="0.2" stroke="#000000" stroke-width="1" x1="313" y1="579" x2="313" y2="9"/>
<line opacity="0.2" stroke="#000000" stroke-width="1" x1="404" y1="579" x2="404" y2="9"/>
<line opacity="0.2" stroke="#000000" stroke-width="1" x1="495" y1="579" x2="495" y2="9"/>
<line opacity="0.2" stroke="#000000" stroke-width="1" x1="586" y1="579" x2="586" y2="9"/>
<line opacity="0.2" stroke="#000000" stroke-width="1" x1="677" y1="579" x2="677" y2="9"/>
<line opacity="0.2" stroke="#000000" stroke-width="1" x1="768" y1="579" x2="768" y2="9"/>
<line opacity="0.2" stroke="#000000" stroke-width="1" x1="859" y1="579" x2="859" y2="9"/>
<line opacity="0.2" stroke="#000000" stroke-width="1" x1="40" y1="522" x2="947" y2="522"/>
<line opacity="0.2" stroke="#000000" stroke-width="1" x1="40" y1="466" x2="947" y2="466"/>
<line opacity="0.2" stroke="#000000" stroke-width="1" x1="40" y1="409" x2="947" y2="409"/>
<line opacity="0.2" stroke="#000000" stroke-width="1" x1="40" y1="353" x2="947" y2="353"/>
<line opacity="0.2" stroke="#000000" stroke-width="1" x1="40" y1="296" x2="947" y2="296"/>
<line opacity="0.2" stroke="#000000" stroke-width="1" x1="40" y1="240" x2="947" y2="240"/>
<line opacity="0.2" stroke="#000000" stroke-width="1" x1="40" y1="183" x2="947" y2="183"/>
<line opacity="0.2" stroke="#000000" stroke-width="1" x1="40" y1="127" x2="947" y2="127"/>
<line opacity="0.2" stroke="#000000" stroke-width="1" x1="40" y1="71" x2="947" y2="71"/>
<line opacity="0.2" stroke="#000000" stroke-width="1" x1="40" y1="14" x2="947" y2="14"/>
<polyline fill="none" opacity="1" stroke="#000000" stroke-width="1" points="39,10 39,580 "/>
<text x="30" y="522" dy="0.5ex" text-anchor="end" font-family="sans-serif" font-size="9.67741935483871" opacity="1" fill="#000000">
10%
</text>
<polyline fill="none" opacity="1" stroke="#000000" stroke-width="1" points="34,522 39,522 "/>
<text x="30" y="466" dy="0.5ex" text-anchor="end" font-family="sans-serif" font-size="9.67741935483871" opacity="1" fill="#000000">
20%
</text>
<polyline fill="none" opacity="1" stroke="#000000" stroke-width="1" points="34,466 39,466 "/>
<text x="30" y="409" dy="0.5ex" text-anchor="end" font-family="sans-serif" font-size="9.67741935483871" opacity="1" fill="#000000">
30%
</text>
<polyline fill="none" opacity="1" stroke="#000000" stroke-width="1" points="34,409 39,409 "/>
<text x="30" y="353" dy="0.5ex" text-anchor="end" font-family="sans-serif" font-size="9.67741935483871" opacity="1" fill="#000000">
40%
</text>
<polyline fill="none" opacity="1" stroke="#000000" stroke-width="1" points="34,353 39,353 "/>
<text x="30" y="296" dy="0.5ex" text-anchor="end" font-family="sans-serif" font-size="9.67741935483871" opacity="1" fill="#000000">
50%
</text>
<polyline fill="none" opacity="1" stroke="#000000" stroke-width="1" points="34,296 39,296 "/>
<text x="30" y="240" dy="0.5ex" text-anchor="end" font-family="sans-serif" font-size="9.67741935483871" opacity="1" fill="#000000">
60%
</text>
<polyline fill="none" opacity="1" stroke="#000000" stroke-width="1" points="34,240 39,240 "/>
<text x="30" y="183" dy="0.5ex" text-anchor="end" font-family="sans-serif" font-size="9.67741935483871" opacity="1" fill="#000000">
70%
</text>
<polyline fill="none" opacity="1" stroke="#000000" stroke-width="1" points="34,183 39,183 "/>
<text x="30" y="127" dy="0.5ex" text-anchor="end" font-family="sans-serif" font-size="9.67741935483871" opacity="1" fill="#000000">
80%
</text>
<polyline fill="none" opacity="1" stroke="#000000" stroke-width="1" points="34,127 39,127 "/>
<text x="30" y="71" dy="0.5ex" text-anchor="end" font-family="sans-serif" font-size="9.67741935483871" opacity="1" fill="#000000">
90%
</text>
<polyline fill="none" opacity="1" stroke="#000000" stroke-width="1" points="34,71 39,71 "/>
<text x="30" y="14" dy="0.5ex" text-anchor="end" font-family="sans-serif" font-size="9.67741935483871" opacity="1" fill="#000000">
100%
</text>
<polyline fill="none" opacity="1" stroke="#000000" stroke-width="1" points="34,14 39,14 "/>
<polyline fill="none" opacity="1" stroke="#000000" stroke-width="1" points="40,580 947,580 "/>
<text x="40" y="590" dy="0.76em" text-anchor="middle" font-family="sans-serif" font-size="9.67741935483871" opacity="1" fill="#000000">
2019-03-16
</text>
<polyline fill="none" opacity="1" stroke="#000000" stroke-width="1" points="40,580 40,585 "/>
<text x="131" y="590" dy="0.76em" text-anchor="middle" font-family="sans-serif" font-size="9.67741935483871" opacity="1" fill="#000000">
2019-05-11
</text>
<polyline fill="none" opacity="1" stroke="#000000" stroke-width="1" points="131,580 131,585 "/>
<text x="222" y="590" dy="0.76em" text-anchor="middle" font-family="sans-serif" font-size="9.67741935483871" opacity="1" fill="#000000">
2019-07-06
</text>
<polyline fill="none" opacity="1" stroke="#000000" stroke-width="1" points="222,580 222,585 "/>
<text x="313" y="590" dy="0.76em" text-anchor="middle" font-family="sans-serif" font-size="9.67741935483871" opacity="1" fill="#000000">
2019-08-31
</text>
<polyline fill="none" opacity="1" stroke="#000000" stroke-width="1" points="313,580 313,585 "/>
<text x="404" y="590" dy="0.76em" text-anchor="middle" font-family="sans-serif" font-size="9.67741935483871" opacity="1" fill="#000000">
2019-10-26
</text>
<polyline fill="none" opacity="1" stroke="#000000" stroke-width="1" points="404,580 404,585 "/>
<text x="495" y="590" dy="0.76em" text-anchor="middle" font-family="sans-serif" font-size="9.67741935483871" opacity="1" fill="#000000">
2019-12-21
</text>
<polyline fill="none" opacity="1" stroke="#000000" stroke-width="1" points="495,580 495,585 "/>
<text x="586" y="590" dy="0.76em" text-anchor="middle" font-family="sans-serif" font-size="9.67741935483871" opacity="1" fill="#000000">
2020-02-15
</text>
<polyline fill="none" opacity="1" stroke="#000000" stroke-width="1" points="586,580 586,585 "/>
<text x="677" y="590" dy="0.76em" text-anchor="middle" font-family="sans-serif" font-size="9.67741935483871" opacity="1" fill="#000000">
2020-04-11
</text>
<polyline fill="none" opacity="1" stroke="#000000" stroke-width="1" points="677,580 677,585 "/>
<text x="768" y="590" dy="0.76em" text-anchor="middle" font-family="sans-serif" font-size="9.67741935483871" opacity="1" fill="#000000">
2020-06-06
</text>
<polyline fill="none" opacity="1" stroke="#000000" stroke-width="1" points="768,580 768,585 "/>
<text x="859" y="590" dy="0.76em" text-anchor="middle" font-family="sans-serif" font-size="9.67741935483871" opacity="1" fill="#000000">
2020-08-01
</text>
<polyline fill="none" opacity="1" stroke="#000000" stroke-width="1" points="859,580 859,585 "/>
<polyline fill="none" opacity="1" stroke="#FF0000" stroke-width="1" points="40,578 40,578 47,576 48,575 168,575 172,575 174,575 178,575 181,575 190,573 246,572 246,572 451,571 463,571 492,570 506,570 519,569 520,569 541,568 557,568 564,567 637,567 638,567 640,567 647,567 649,566 650,566 651,565 653,564 655,563 658,563 660,562 661,562 663,561 665,561 667,561 669,560 671,559 673,559 674,558 677,557 679,557 679,557 681,556 682,556 684,555 686,555 687,555 690,554 692,553 694,553 695,552 697,552 700,551 700,551 702,550 703,550 705,549 707,549 709,549 710,548 713,547 714,547 716,546 718,546 720,545 721,545 724,544 726,543 728,543 729,543 731,542 733,541 735,541 737,540 738,540 740,539 742,539 743,538 746,537 748,537 750,537 751,536 753,536 754,535 756,535 758,534 759,534 761,533 763,533 764,532 766,532 767,532 769,531 772,530 774,530 776,529 777,529 779,528 780,528 782,527 784,527 785,526 787,526 789,526 791,525 792,525 794,524 795,524 797,523 799,523 800,522 802,522 803,521 805,521 807,520 808,520 810,520 811,519 813,519 815,518 816,518 818,517 820,517 821,516 823,516 824,515 826,515 828,514 829,514 831,514 833,513 834,513 836,512 838,512 839,511 841,511 842,510 844,510 846,509 847,509 849,508 850,508 852,508 854,507 855,507 857,506 859,506 860,505 862,505 863,504 865,504 867,503 868,503 870,502 872,502 873,502 875,501 877,501 878,500 880,500 882,499 883,499 885,498 886,498 890,497 891,496 893,496 896,495 898,495 899,494 901,494 903,493 904,493 907,492 909,491 911,491 912,491 914,490 916,490 919,489 920,488 922,488 924,487 925,487 927,486 930,485 932,485 933,485 935,484 937,484 938,483 942,482 943,482 945,481 947,481 "/>
</svg>
