<svg width="987" height="610" viewBox="0 0 987 610" xmlns="http://www.w3.org/2000/svg">
<line opacity="0.1" stroke="#000000" stroke-width="1" x1="40" y1="579" x2="40" y2="9"/>
<line opacity="0.1" stroke="#000000" stroke-width="1" x1="52" y1="579" x2="52" y2="9"/>
<line opacity="0.1" stroke="#000000" stroke-width="1" x1="65" y1="579" x2="65" y2="9"/>
<line opacity="0.1" stroke="#000000" stroke-width="1" x1="78" y1="579" x2="78" y2="9"/>
<line opacity="0.1" stroke="#000000" stroke-width="1" x1="90" y1="579" x2="90" y2="9"/>
<line opacity="0.1" stroke="#000000" stroke-width="1" x1="103" y1="579" x2="103" y2="9"/>
<line opacity="0.1" stroke="#000000" stroke-width="1" x1="116" y1="579" x2="116" y2="9"/>
<line opacity="0.1" stroke="#000000" stroke-width="1" x1="128" y1="579" x2="128" y2="9"/>
<line opacity="0.1" stroke="#000000" stroke-width="1" x1="141" y1="579" x2="141" y2="9"/>
<line opacity="0.1" stroke="#000000" stroke-width="1" x1="154" y1="579" x2="154" y2="9"/>
<line opacity="0.1" stroke="#000000" stroke-width="1" x1="167" y1="579" x2="167" y2="9"/>
<line opacity="0.1" stroke="#000000" stroke-width="1" x1="179" y1="579" x2="179" y2="9"/>
<line opacity="0.1" stroke="#000000" stroke-width="1" x1="192" y1="579" x2="192" y2="9"/>
<line opacity="0.1" stroke="#000000" stroke-width="1" x1="205" y1="579" x2="205" y2="9"/>
<line opacity="0.1" stroke="#000000" stroke-width="1" x1="217" y1="579" x2="217" y2="9"/>
<line opacity="0.1" stroke="#000000" stroke-width="1" x1="230" y1="579" x2="230" y2="9"/>
<line opacity="0.1" stroke="#000000" stroke-width="1" x1="243" y1="579" x2="243" y2="9"/>
<line opacity="0.1" stroke="#000000" stroke-width="1" x1="256" y1="579" x2="256" y2="9"/>
<line opacity="0.1" stroke="#000000" stroke-width="1" x1="268" y1="579" x2="268" y2="9"/>
<line opacity="0.1" stroke="#000000" stroke-width="1" x1="281" y1="579" x2="281" y2="9"/>
<line opacity="0.1" stroke="#000000" stroke-width="1" x1="294" y1="579" x2="294" y2="9"/>
<line opacity="0.1" stroke="#000000" stroke-width="1" x1="306" y1="579" x2="306" y2="9"/>
<line opacity="0.1" stroke="#000000" stroke-width="1" x1="319" y1="579" x2="319" y2="9"/>
<line opacity="0.1" stroke="#000000" stroke-width="1" x1="332" y1="579" x2="332" y2="9"/>
<line opacity="0.1" stroke="#000000" stroke-width="1" x1="344" y1="579" x2="344" y2="9"/>
<line opacity="0.1" stroke="#000000" stroke-width="1" x1="357" y1="579" x2="357" y2="9"/>
<line opacity="0.1" stroke="#000000" stroke-width="1" x1="370" y1="579" x2="370" y2="9"/>
<line opacity="0.1" stroke="#000000" stroke-width="1" x1="383" y1="579" x2="383" y2="9"/>
<line opacity="0.1" stroke="#000000" stroke-width="1" x1="395" y1="579" x2="395" y2="9"/>
<line opacity="0.1" stroke="#000000" stroke-width="1" x1="408" y1="579" x2="408" y2="9"/>
<line opacity="0.1" stroke="#000000" stroke-width="1" x1="421" y1="579" x2="421" y2="9"/>
<line opacity="0.1" stroke="#000000" stroke-width="1" x1="433" y1="579" x2="433" y2="9"/>
<line opacity="0.1" stroke="#000000" stroke-width="1" x1="446" y1="579" x2="446" y2="9"/>
<line opacity="0.1" stroke="#000000" stroke-width="1" x1="459" y1="579" x2="459" y2="9"/>
<line opacity="0.1" stroke="#000000" stroke-width="1" x1="472" y1="579" x2="472" y2="9"/>
<line opacity="0.1" stroke="#000000" stroke-width="1" x1="484" y1="579" x2="484" y2="9"/>
<line opacity="0.1" stroke="#000000" stroke-width="1" x1="497" y1="579" x2="497" y2="9"/>
<line opacity="0.1" stroke="#000000" stroke-width="1" x1="510" y1="579" x2="510" y2="9"/>
<line opacity="0.1" stroke="#000000" stroke-width="1" x1="522" y1="579" x2="522" y2="9"/>
<line opacity="0.1" stroke="#000000" stroke-width="1" x1="535" y1="579" x2="535" y2="9"/>
<line opacity="0.1" stroke="#000000" stroke-width="1" x1="548" y1="579" x2="548" y2="9"/>
<line opacity="0.1" stroke="#000000" stroke-width="1" x1="561" y1="579" x2="561" y2="9"/>
<line opacity="0.1" stroke="#000000" stroke-width="1" x1="573" y1="579" x2="573" y2="9"/>
<line opacity="0.1" stroke="#000000" stroke-width="1" x1="586" y1="579" x2="586" y2="9"/>
<line opacity="0.1" stroke="#000000" stroke-width="1" x1="599" y1="579" x2="599" y2="9"/>
<line opacity="0.1" stroke="#000000" stroke-width="1" x1="611" y1="579" x2="611" y2="9"/>
<line opacity="0.1" stroke="#000000" stroke-width="1" x1="624" y1="579" x2="624" y2="9"/>
<line opacity="0.1" stroke="#000000" stroke-width="1" x1="637" y1="579" x2="637" y2="9"/>
<line opacity="0.1" stroke="#000000" stroke-width="1" x1="649" y1="579" x2="649" y2="9"/>
<line opacity="0.1" stroke="#000000" stroke-width="1" x1="662" y1="579" x2="662" y2="9"/>
<line opacity="0.1" stroke="#000000" stroke-width="1" x1="675" y1="579" x2="675" y2="9"/>
<line opacity="0.1" stroke="#000000" stroke-width="1" x1="688" y1="579" x2="688" y2="9"/>
<line opacity="0.1" stroke="#000000" stroke-width="1" x1="700" y1="579" x2="700" y2="9"/>
<line opacity="0.1" stroke="#000000" stroke-width="1" x1="713" y1="579" x2="713" y2="9"/>
<line opacity="0.1" stroke="#000000" stroke-width="1" x1="726" y1="579" x2="726" y2="9"/>
<line opacity="0.1" stroke="#000000" stroke-width="1" x1="738" y1="579" x2="738" y2="9"/>
<line opacity="0.1" stroke="#000000" stroke-width="1" x1="751" y1="579" x2="751" y2="9"/>
<line opacity="0.1" stroke="#000000" stroke-width="1" x1="764" y1="579" x2="764" y2="9"/>
<line opacity="0.1" stroke="#000000" stroke-width="1" x1="777" y1="579" x2="777" y2="9"/>
<line opacity="0.1" stroke="#000000" stroke-width="1" x1="789" y1="579" x2="789" y2="9"/>
<line opacity="0.1" stroke="#000000" stroke-width="1" x1="802" y1="579" x2="802" y2="9"/>
<line opacity="0.1" stroke="#000000" stroke-width="1" x1="815" y1="579" x2="815" y2="9"/>
<line opacity="0.1" stroke="#000000" stroke-width="1" x1="827" y1="579" x2="827" y2="9"/>
<line opacity="0.1" stroke="#000000" stroke-width="1" x1="840" y1="579" x2="840" y2="9"/>
<line opacity="0.1" stroke="#000000" stroke-width="1" x1="853" y1="579" x2="853" y2="9"/>
<line opacity="0.1" stroke="#000000" stroke-width="1" x1="865" y1="579" x2="865" y2="9"/>
<line opacity="0.1" stroke="#000000" stroke-width="1" x1="878" y1="579" x2="878" y2="9"/>
<line opacity="0.1" stroke="#000000" stroke-width="1" x1="891" y1="579" x2="891" y2="9"/>
<line opacity="0.1" stroke="#000000" stroke-width="1" x1="904" y1="579" x2="904" y2="9"/>
<line opacity="0.1" stroke="#000000" stroke-width="1" x1="916" y1="579" x2="916" y2="9"/>
<line opacity="0.1" stroke="#000000" stroke-width="1" x1="929" y1="579" x2="929" y2="9"/>
<line opacity="0.1" stroke="#000000" stroke-width="1" x1="942" y1="579" x2="942" y2="9"/>
<line opacity="0.1" stroke="#000000" stroke-width="1" x1="40" y1="567" x2="947" y2="567"/>
<line opacity="0.1" stroke="#000000" stroke-width="1" x1="40" y1="556" x2="947" y2="556"/>
<line opacity="0.1" stroke="#000000" stroke-width="1" x1="40" y1="545" x2="947" y2="545"/>
<line opacity="0.1" stroke="#000000" stroke-width="1" x1="40" y1="533" x2="947" y2="533"/>
<line opacity="0.1" stroke="#000000" stroke-width="1" x1="40" y1="522" x2="947" y2="522"/>
<line opacity="0.1" stroke="#000000" stroke-width="1" x1="40" y1="511" x2="947" y2="511"/>
<line opacity="0.1" stroke="#000000" stroke-width="1" x1="40" y1="499" x2="947" y2="499"/>
<line opacity="0.1" stroke="#000000" stroke-width="1" x1="40" y1="488" x2="947" y2="488"/>
<line opacity="0.1" stroke="#000000" stroke-width="1" x1="40" y1="477" x2="947" y2="477"/>
<line opacity="0.1" stroke="#000000" stroke-width="1" x1="40" y1="466" x2="947" y2="466"/>
<line opacity="0.1" stroke="#000000" stroke-width="1" x1="40" y1="454" x2="947" y2="454"/>
<line opacity="0.1" stroke="#000000" stroke-width="1" x1="40" y1="443" x2="947" y2="443"/>
<line opacity="0.1" stroke="#000000" stroke-width="1" x1="40" y1="432" x2="947" y2="432"/>
<line opacity="0.1" stroke="#000000" stroke-width="1" x1="40" y1="420" x2="947" y2="420"/>
<line opacity="0.1" stroke="#000000" stroke-width="1" x1="40" y1="409" x2="947" y2="409"/>
<line opacity="0.1" stroke="#000000" stroke-width="1" x1="40" y1="398" x2="947" y2="398"/>
<line opacity="0.1" stroke="#000000" stroke-width="1" x1="40" y1="387" x2="947" y2="387"/>
<line opacity="0.1" stroke="#000000" stroke-width="1" x1="40" y1="375" x2="947" y2="375"/>
<line opacity="0.1" stroke="#000000" stroke-width="1" x1="40" y1="364" x2="947" y2="364"/>
<line opacity="0.1" stroke="#000000" stroke-width="1" x1="40" y1="353" x2="947" y2="353"/>
<line opacity="0.1" stroke="#000000" stroke-width="1" x1="40" y1="341" x2="947" y2="341"/>
<line opacity="0.1" stroke="#000000" stroke-width="1" x1="40" y1="330" x2="947" y2="330"/>
<line opacity="0.1" stroke="#000000" stroke-width="1" x1="40" y1="319" x2="947" y2="319"/>
<line opacity="0.1" stroke="#000000" stroke-width="1" x1="40" y1="308" x2="947" y2="308"/>
<line opacity="0.1" stroke="#000000" stroke-width="1" x1="40" y1="296" x2="947" y2="296"/>
<line opacity="0.1" stroke="#000000" stroke-width="1" x1="40" y1="285" x2="947" y2="285"/>
<line opacity="0.1" stroke="#000000" stroke-width="1" x1="40" y1="274" x2="947" y2="274"/>
<line opacity="0.1" stroke="#000000" stroke-width="1" x1="40" y1="262" x2="947" y2="262"/>
<line opacity="0.1" stroke="#000000" stroke-width="1" x1="40" y1="251" x2="947" y2="251"/>
<line opacity="0.1" stroke="#000000" stroke-width="1" x1="40" y1="240" x2="947" y2="240"/>
<line opacity="0.1" stroke="#000000" stroke-width="1" x1="40" y1="229" x2="947" y2="229"/>
<line opacity="0.1" stroke="#000000" stroke-width="1" x1="40" y1="217" x2="947" y2="217"/>
<line opacity="0.1" stroke="#000000" stroke-width="1" x1="40" y1="206" x2="947" y2="206"/>
<line opacity="0.1" stroke="#000000" stroke-width="1" x1="40" y1="195" x2="947" y2="195"/>
<line opacity="0.1" stroke="#000000" stroke-width="1" x1="40" y1="183" x2="947" y2="183"/>
<line opacity="0.1" stroke="#000000" stroke-width="1" x1="40" y1="172" x2="947" y2="172"/>
<line opacity="0.1" stroke="#000000" stroke-width="1" x1="40" y1="161" x2="947" y2="161"/>
<line opacity="0.1" stroke="#000000" stroke-width="1" x1="40" y1="150" x2="947" y2="150"/>
<line opacity="0.1" stroke="#000000" stroke-width="1" x1="40" y1="138" x2="947" y2="138"/>
<line opacity="0.1" stroke="#000000" stroke-width="1" x1="40" y1="127" x2="947" y2="127"/>
<line opacity="0.1" stroke="#000000" stroke-width="1" x1="40" y1="116" x2="947" y2="116"/>
<line opacity="0.1" stroke="#000000" stroke-width="1" x1="40" y1="104" x2="947" y2="104"/>
<line opacity="0.1" stroke="#000000" stroke-width="1" x1="40" y1="93" x2="947" y2="93"/>
<line opacity="0.1" stroke="#000000" stroke-width="1" x1="40" y1="82" x2="947" y2="82"/>
<line opacity="0.1" stroke="#000000" stroke-width="1" x1="40" y1="71" x2="947" y2="71"/>
<line opacity="0.1" stroke="#000000" stroke-width="1" x1="40" y1="59" x2="947" y2="59"/>
<line opacity="0.1" stroke="#000000" stroke-width="1" x1="40" y1="48" x2="947" y2="48"/>
<line opacity="0.1" stroke="#000000" stroke-width="1" x1="40" y1="37" x2="947" y2="37"/>
<line opacity="0.1" stroke="#000000" stroke-width="1" x1="40" y1="25" x2="947" y2="25"/>
<line opacity="0.1" stroke="#000000" stroke-width="1" x1="40" y1="14" x2="947" y2="14"/>
<line opacity="0.2" stroke="#000000" stroke-width="1" x1="40" y1="579" x2="40" y2="9"/>
<line opacity="0.2" stroke="#000000" stroke-width="1" x1="141" y1="579" x2="141" y2="9"/>
<line opacity="0.2" stroke="#000000" stroke-width="1" x1="243" y1="579" x2="243" y2="9"/>
<line opacity="0.2" stroke="#000000" stroke-width="1" x1="344" y1="579" x2="344" y2="9"/>
<line opacity="0.2" stroke="#000000" stroke-width="1" x1="446" y1="579" x2="446" y2="9"/>
<line opacity="0.2" stroke="#000000" stroke-width="1" x1="548" y1="579" x2="548" y2="9"/>
<line opacity="0.2" stroke="#000000" stroke-width="1" x1="649" y1="579" x2="649" y2="9"/>
<line opacity="0.2" stroke="#000000" stroke-width="1" x1="751" y1="579" x2="751" y2="9"/>
<line opacity="0.2" stroke="#000000" stroke-width="1" x1="853" y1="579" x2="853" y2="9"/>
<line opacity="0.2" stroke="#000000" stroke-width="1" x1="40" y1="522" x2="947" y2="522"/>
<line opacity="0.2" stroke="#000000" stroke-width="1" x1="40" y1="466" x2="947" y2="466"/>
<line opacity="0.2" stroke="#000000" stroke-width="1" x1="40" y1="409" x2="947" y2="409"/>
<line opacity="0.2" stroke="#000000" stroke-width="1" x1="40" y1="353" x2="947" y2="353"/>
<line opacity="0.2" stroke="#000000" stroke-width="1" x1="40" y1="296" x2="947" y2="296"/>
<line opacity="0.2" stroke="#000000" stroke-width="1" x1="40" y1="240" x2="947" y2="240"/>
<line opacity="0.2" stroke="#000000" stroke-width="1" x1="40" y1="183" x2="947" y2="183"/>
<line opacity="0.2" stroke="#000000" stroke-width="1" x1="40" y1="127" x2="947" y2="127"/>
<line opacity="0.2" stroke="#000000" stroke-width="1" x1="40" y1="71" x2="947" y2="71"/>
<line opacity="0.2" stroke="#000000" stroke-width="1" x1="40" y1="14" x2="947" y2="14"/>
<polyline fill="none" opacity="1" stroke="#000000" stroke-width="1" points="39,10 39,580 "/>
<text x="30" y="522" dy="0.5ex" text-anchor="end" font-family="sans-serif" font-size="9.67741935483871" opacity="1" fill="#000000">
10%
</text>
<polyline fill="none" opacity="1" stroke="#000000" stroke-width="1" points="34,522 39,522 "/>
<text x="30" y="466" dy="0.5ex" text-anchor="end" font-family="sans-serif" font-size="9.67741935483871" opacity="1" fill="#000000">
20%
</text>
<polyline fill="none" opacity="1" stroke="#000000" stroke-width="1" points="34,466 39,466 "/>
<text x="30" y="409" dy="0.5ex" text-anchor="end" font-family="sans-serif" font-size="9.67741935483871" opacity="1" fill="#000000">
30%
</text>
<polyline fill="none" opacity="1" stroke="#000000" stroke-width="1" points="34,409 39,409 "/>
<text x="30" y="353" dy="0.5ex" text-anchor="end" font-family="sans-serif" font-size="9.67741935483871" opacity="1" fill="#000000">
40%
</text>
<polyline fill="none" opacity="1" stroke="#000000" stroke-width="1" points="34,353 39,353 "/>
<text x="30" y="296" dy="0.5ex" text-anchor="end" font-family="sans-serif" font-size="9.67741935483871" opacity="1" fill="#000000">
50%
</text>
<polyline fill="none" opacity="1" stroke="#000000" stroke-width="1" points="34,296 39,296 "/>
<text x="30" y="240" dy="0.5ex" text-anchor="end" font-family="sans-serif" font-size="9.67741935483871" opacity="1" fill="#000000">
60%
</text>
<polyline fill="none" opacity="1" stroke="#000000" stroke-width="1" points="34,240 39,240 "/>
<text x="30" y="183" dy="0.5ex" text-anchor="end" font-family="sans-serif" font-size="9.67741935483871" opacity="1" fill="#000000">
70%
</text>
<polyline fill="none" opacity="1" stroke="#000000" stroke-width="1" points="34,183 39,183 "/>
<text x="30" y="127" dy="0.5ex" text-anchor="end" font-family="sans-serif" font-size="9.67741935483871" opacity="1" fill="#000000">
80%
</text>
<polyline fill="none" opacity="1" stroke="#000000" stroke-width="1" points="34,127 39,127 "/>
<text x="30" y="71" dy="0.5ex" text-anchor="end" font-family="sans-serif" font-size="9.67741935483871" opacity="1" fill="#000000">
90%
</text>
<polyline fill="none" opacity="1" stroke="#000000" stroke-width="1" points="34,71 39,71 "/>
<text x="30" y="14" dy="0.5ex" text-anchor="end" font-family="sans-serif" font-size="9.67741935483871" opacity="1" fill="#000000">
100%
</text>
<polyline fill="none" opacity="1" stroke="#000000" stroke-width="1" points="34,14 39,14 "/>
<polyline fill="none" opacity="1" stroke="#000000" stroke-width="1" points="40,580 947,580 "/>
<text x="40" y="590" dy="0.76em" text-anchor="middle" font-family="sans-serif" font-size="9.67741935483871" opacity="1" fill="#000000">
2019-03-16
</text>
<polyline fill="none" opacity="1" stroke="#000000" stroke-width="1" points="40,580 40,585 "/>
<text x="141" y="590" dy="0.76em" text-anchor="middle" font-family="sans-serif" font-size="9.67741935483871" opacity="1" fill="#000000">
2019-05-11
</text>
<polyline fill="none" opacity="1" stroke="#000000" stroke-width="1" points="141,580 141,585 "/>
<text x="243" y="590" dy="0.76em" text-anchor="middle" font-family="sans-serif" font-size="9.67741935483871" opacity="1" fill="#000000">
2019-07-06
</text>
<polyline fill="none" opacity="1" stroke="#000000" stroke-width="1" points="243,580 243,585 "/>
<text x="344" y="590" dy="0.76em" text-anchor="middle" font-family="sans-serif" font-size="9.67741935483871" opacity="1" fill="#000000">
2019-08-31
</text>
<polyline fill="none" opacity="1" stroke="#000000" stroke-width="1" points="344,580 344,585 "/>
<text x="446" y="590" dy="0.76em" text-anchor="middle" font-family="sans-serif" font-size="9.67741935483871" opacity="1" fill="#000000">
2019-10-26
</text>
<polyline fill="none" opacity="1" stroke="#000000" stroke-width="1" points="446,580 446,585 "/>
<text x="548" y="590" dy="0.76em" text-anchor="middle" font-family="sans-serif" font-size="9.67741935483871" opacity="1" fill="#000000">
2019-12-21
</text>
<polyline fill="none" opacity="1" stroke="#000000" stroke-width="1" points="548,580 548,585 "/>
<text x="649" y="590" dy="0.76em" text-anchor="middle" font-family="sans-serif" font-size="9.67741935483871" opacity="1" fill="#000000">
2020-02-15
</text>
<polyline fill="none" opacity="1" stroke="#000000" stroke-width="1" points="649,580 649,585 "/>
<text x="751" y="590" dy="0.76em" text-anchor="middle" font-family="sans-serif" font-size="9.67741935483871" opacity="1" fill="#000000">
2020-04-11
</text>
<polyline fill="none" opacity="1" stroke="#000000" stroke-width="1" points="751,580 751,585 "/>
<text x="853" y="590" dy="0.76em" text-anchor="middle" font-family="sans-serif" font-size="9.67741935483871" opacity="1" fill="#000000">
2020-06-06
</text>
<polyline fill="none" opacity="1" stroke="#000000" stroke-width="1" points="853,580 853,585 "/>
<polyline fill="none" opacity="1" stroke="#FF0000" stroke-width="1" points="40,578 40,578 48,576 49,575 183,575 188,575 190,575 194,575 198,575 207,573 270,572 271,572 498,571 512,570 545,570 560,569 575,569 575,568 599,568 617,568 625,567 706,567 708,567 710,567 718,566 720,566 721,565 723,565 724,564 727,563 730,562 732,562 733,561 735,561 738,560 740,560 743,559 744,558 747,558 748,557 751,556 753,556 753,556 755,555 757,555 759,555 761,554 762,554 765,553 768,552 770,552 771,551 773,551 776,550 777,550 780,549 781,549 782,548 784,548 787,547 788,547 791,546 792,545 795,545 797,544 799,544 800,543 804,543 806,542 808,542 810,541 811,541 814,540 816,539 818,539 819,538 821,538 823,537 825,537 829,536 830,535 832,535 834,534 836,534 838,533 839,533 841,532 843,532 845,532 847,531 848,531 850,530 852,530 854,529 858,528 859,528 861,527 863,527 865,526 867,526 868,525 870,525 872,524 874,524 876,523 878,523 879,522 881,522 883,521 885,521 887,520 888,520 890,520 892,519 894,519 896,518 897,518 899,517 901,517 903,516 905,516 907,515 908,515 910,514 912,514 914,513 916,513 918,512 919,512 921,511 923,511 925,510 927,510 928,509 930,509 932,508 934,508 936,508 937,507 939,507 941,506 943,506 945,505 947,505 "/>
</svg>
