<svg width="987" height="610" viewBox="0 0 987 610" xmlns="http://www.w3.org/2000/svg">
<line opacity="0.1" stroke="#000000" stroke-width="1" x1="40" y1="579" x2="40" y2="9"/>
<line opacity="0.1" stroke="#000000" stroke-width="1" x1="49" y1="579" x2="49" y2="9"/>
<line opacity="0.1" stroke="#000000" stroke-width="1" x1="59" y1="579" x2="59" y2="9"/>
<line opacity="0.1" stroke="#000000" stroke-width="1" x1="68" y1="579" x2="68" y2="9"/>
<line opacity="0.1" stroke="#000000" stroke-width="1" x1="78" y1="579" x2="78" y2="9"/>
<line opacity="0.1" stroke="#000000" stroke-width="1" x1="87" y1="579" x2="87" y2="9"/>
<line opacity="0.1" stroke="#000000" stroke-width="1" x1="97" y1="579" x2="97" y2="9"/>
<line opacity="0.1" stroke="#000000" stroke-width="1" x1="107" y1="579" x2="107" y2="9"/>
<line opacity="0.1" stroke="#000000" stroke-width="1" x1="116" y1="579" x2="116" y2="9"/>
<line opacity="0.1" stroke="#000000" stroke-width="1" x1="126" y1="579" x2="126" y2="9"/>
<line opacity="0.1" stroke="#000000" stroke-width="1" x1="135" y1="579" x2="135" y2="9"/>
<line opacity="0.1" stroke="#000000" stroke-width="1" x1="145" y1="579" x2="145" y2="9"/>
<line opacity="0.1" stroke="#000000" stroke-width="1" x1="155" y1="579" x2="155" y2="9"/>
<line opacity="0.1" stroke="#000000" stroke-width="1" x1="164" y1="579" x2="164" y2="9"/>
<line opacity="0.1" stroke="#000000" stroke-width="1" x1="174" y1="579" x2="174" y2="9"/>
<line opacity="0.1" stroke="#000000" stroke-width="1" x1="183" y1="579" x2="183" y2="9"/>
<line opacity="0.1" stroke="#000000" stroke-width="1" x1="193" y1="579" x2="193" y2="9"/>
<line opacity="0.1" stroke="#000000" stroke-width="1" x1="203" y1="579" x2="203" y2="9"/>
<line opacity="0.1" stroke="#000000" stroke-width="1" x1="212" y1="579" x2="212" y2="9"/>
<line opacity="0.1" stroke="#000000" stroke-width="1" x1="222" y1="579" x2="222" y2="9"/>
<line opacity="0.1" stroke="#000000" stroke-width="1" x1="231" y1="579" x2="231" y2="9"/>
<line opacity="0.1" stroke="#000000" stroke-width="1" x1="241" y1="579" x2="241" y2="9"/>
<line opacity="0.1" stroke="#000000" stroke-width="1" x1="251" y1="579" x2="251" y2="9"/>
<line opacity="0.1" stroke="#000000" stroke-width="1" x1="260" y1="579" x2="260" y2="9"/>
<line opacity="0.1" stroke="#000000" stroke-width="1" x1="270" y1="579" x2="270" y2="9"/>
<line opacity="0.1" stroke="#000000" stroke-width="1" x1="279" y1="579" x2="279" y2="9"/>
<line opacity="0.1" stroke="#000000" stroke-width="1" x1="289" y1="579" x2="289" y2="9"/>
<line opacity="0.1" stroke="#000000" stroke-width="1" x1="299" y1="579" x2="299" y2="9"/>
<line opacity="0.1" stroke="#000000" stroke-width="1" x1="308" y1="579" x2="308" y2="9"/>
<line opacity="0.1" stroke="#000000" stroke-width="1" x1="318" y1="579" x2="318" y2="9"/>
<line opacity="0.1" stroke="#000000" stroke-width="1" x1="327" y1="579" x2="327" y2="9"/>
<line opacity="0.1" stroke="#000000" stroke-width="1" x1="337" y1="579" x2="337" y2="9"/>
<line opacity="0.1" stroke="#000000" stroke-width="1" x1="347" y1="579" x2="347" y2="9"/>
<line opacity="0.1" stroke="#000000" stroke-width="1" x1="356" y1="579" x2="356" y2="9"/>
<line opacity="0.1" stroke="#000000" stroke-width="1" x1="366" y1="579" x2="366" y2="9"/>
<line opacity="0.1" stroke="#000000" stroke-width="1" x1="375" y1="579" x2="375" y2="9"/>
<line opacity="0.1" stroke="#000000" stroke-width="1" x1="385" y1="579" x2="385" y2="9"/>
<line opacity="0.1" stroke="#000000" stroke-width="1" x1="395" y1="579" x2="395" y2="9"/>
<line opacity="0.1" stroke="#000000" stroke-width="1" x1="404" y1="579" x2="404" y2="9"/>
<line opacity="0.1" stroke="#000000" stroke-width="1" x1="414" y1="579" x2="414" y2="9"/>
<line opacity="0.1" stroke="#000000" stroke-width="1" x1="423" y1="579" x2="423" y2="9"/>
<line opacity="0.1" stroke="#000000" stroke-width="1" x1="433" y1="579" x2="433" y2="9"/>
<line opacity="0.1" stroke="#000000" stroke-width="1" x1="443" y1="579" x2="443" y2="9"/>
<line opacity="0.1" stroke="#000000" stroke-width="1" x1="452" y1="579" x2="452" y2="9"/>
<line opacity="0.1" stroke="#000000" stroke-width="1" x1="462" y1="579" x2="462" y2="9"/>
<line opacity="0.1" stroke="#000000" stroke-width="1" x1="471" y1="579" x2="471" y2="9"/>
<line opacity="0.1" stroke="#000000" stroke-width="1" x1="481" y1="579" x2="481" y2="9"/>
<line opacity="0.1" stroke="#000000" stroke-width="1" x1="491" y1="579" x2="491" y2="9"/>
<line opacity="0.1" stroke="#000000" stroke-width="1" x1="500" y1="579" x2="500" y2="9"/>
<line opacity="0.1" stroke="#000000" stroke-width="1" x1="510" y1="579" x2="510" y2="9"/>
<line opacity="0.1" stroke="#000000" stroke-width="1" x1="519" y1="579" x2="519" y2="9"/>
<line opacity="0.1" stroke="#000000" stroke-width="1" x1="529" y1="579" x2="529" y2="9"/>
<line opacity="0.1" stroke="#000000" stroke-width="1" x1="538" y1="579" x2="538" y2="9"/>
<line opacity="0.1" stroke="#000000" stroke-width="1" x1="548" y1="579" x2="548" y2="9"/>
<line opacity="0.1" stroke="#000000" stroke-width="1" x1="558" y1="579" x2="558" y2="9"/>
<line opacity="0.1" stroke="#000000" stroke-width="1" x1="567" y1="579" x2="567" y2="9"/>
<line opacity="0.1" stroke="#000000" stroke-width="1" x1="577" y1="579" x2="577" y2="9"/>
<line opacity="0.1" stroke="#000000" stroke-width="1" x1="586" y1="579" x2="586" y2="9"/>
<line opacity="0.1" stroke="#000000" stroke-width="1" x1="596" y1="579" x2="596" y2="9"/>
<line opacity="0.1" stroke="#000000" stroke-width="1" x1="606" y1="579" x2="606" y2="9"/>
<line opacity="0.1" stroke="#000000" stroke-width="1" x1="615" y1="579" x2="615" y2="9"/>
<line opacity="0.1" stroke="#000000" stroke-width="1" x1="625" y1="579" x2="625" y2="9"/>
<line opacity="0.1" stroke="#000000" stroke-width="1" x1="634" y1="579" x2="634" y2="9"/>
<line opacity="0.1" stroke="#000000" stroke-width="1" x1="644" y1="579" x2="644" y2="9"/>
<line opacity="0.1" stroke="#000000" stroke-width="1" x1="654" y1="579" x2="654" y2="9"/>
<line opacity="0.1" stroke="#000000" stroke-width="1" x1="663" y1="579" x2="663" y2="9"/>
<line opacity="0.1" stroke="#000000" stroke-width="1" x1="673" y1="579" x2="673" y2="9"/>
<line opacity="0.1" stroke="#000000" stroke-width="1" x1="682" y1="579" x2="682" y2="9"/>
<line opacity="0.1" stroke="#000000" stroke-width="1" x1="692" y1="579" x2="692" y2="9"/>
<line opacity="0.1" stroke="#000000" stroke-width="1" x1="702" y1="579" x2="702" y2="9"/>
<line opacity="0.1" stroke="#000000" stroke-width="1" x1="711" y1="579" x2="711" y2="9"/>
<line opacity="0.1" stroke="#000000" stroke-width="1" x1="721" y1="579" x2="721" y2="9"/>
<line opacity="0.1" stroke="#000000" stroke-width="1" x1="730" y1="579" x2="730" y2="9"/>
<line opacity="0.1" stroke="#000000" stroke-width="1" x1="740" y1="579" x2="740" y2="9"/>
<line opacity="0.1" stroke="#000000" stroke-width="1" x1="750" y1="579" x2="750" y2="9"/>
<line opacity="0.1" stroke="#000000" stroke-width="1" x1="759" y1="579" x2="759" y2="9"/>
<line opacity="0.1" stroke="#000000" stroke-width="1" x1="769" y1="579" x2="769" y2="9"/>
<line opacity="0.1" stroke="#000000" stroke-width="1" x1="778" y1="579" x2="778" y2="9"/>
<line opacity="0.1" stroke="#000000" stroke-width="1" x1="788" y1="579" x2="788" y2="9"/>
<line opacity="0.1" stroke="#000000" stroke-width="1" x1="798" y1="579" x2="798" y2="9"/>
<line opacity="0.1" stroke="#000000" stroke-width="1" x1="807" y1="579" x2="807" y2="9"/>
<line opacity="0.1" stroke="#000000" stroke-width="1" x1="817" y1="579" x2="817" y2="9"/>
<line opacity="0.1" stroke="#000000" stroke-width="1" x1="826" y1="579" x2="826" y2="9"/>
<line opacity="0.1" stroke="#000000" stroke-width="1" x1="836" y1="579" x2="836" y2="9"/>
<line opacity="0.1" stroke="#000000" stroke-width="1" x1="846" y1="579" x2="846" y2="9"/>
<line opacity="0.1" stroke="#000000" stroke-width="1" x1="855" y1="579" x2="855" y2="9"/>
<line opacity="0.1" stroke="#000000" stroke-width="1" x1="865" y1="579" x2="865" y2="9"/>
<line opacity="0.1" stroke="#000000" stroke-width="1" x1="874" y1="579" x2="874" y2="9"/>
<line opacity="0.1" stroke="#000000" stroke-width="1" x1="884" y1="579" x2="884" y2="9"/>
<line opacity="0.1" stroke="#000000" stroke-width="1" x1="894" y1="579" x2="894" y2="9"/>
<line opacity="0.1" stroke="#000000" stroke-width="1" x1="903" y1="579" x2="903" y2="9"/>
<line opacity="0.1" stroke="#000000" stroke-width="1" x1="913" y1="579" x2="913" y2="9"/>
<line opacity="0.1" stroke="#000000" stroke-width="1" x1="922" y1="579" x2="922" y2="9"/>
<line opacity="0.1" stroke="#000000" stroke-width="1" x1="932" y1="579" x2="932" y2="9"/>
<line opacity="0.1" stroke="#000000" stroke-width="1" x1="942" y1="579" x2="942" y2="9"/>
<line opacity="0.1" stroke="#000000" stroke-width="1" x1="40" y1="567" x2="947" y2="567"/>
<line opacity="0.1" stroke="#000000" stroke-width="1" x1="40" y1="556" x2="947" y2="556"/>
<line opacity="0.1" stroke="#000000" stroke-width="1" x1="40" y1="545" x2="947" y2="545"/>
<line opacity="0.1" stroke="#000000" stroke-width="1" x1="40" y1="533" x2="947" y2="533"/>
<line opacity="0.1" stroke="#000000" stroke-width="1" x1="40" y1="522" x2="947" y2="522"/>
<line opacity="0.1" stroke="#000000" stroke-width="1" x1="40" y1="511" x2="947" y2="511"/>
<line opacity="0.1" stroke="#000000" stroke-width="1" x1="40" y1="499" x2="947" y2="499"/>
<line opacity="0.1" stroke="#000000" stroke-width="1" x1="40" y1="488" x2="947" y2="488"/>
<line opacity="0.1" stroke="#000000" stroke-width="1" x1="40" y1="477" x2="947" y2="477"/>
<line opacity="0.1" stroke="#000000" stroke-width="1" x1="40" y1="466" x2="947" y2="466"/>
<line opacity="0.1" stroke="#000000" stroke-width="1" x1="40" y1="454" x2="947" y2="454"/>
<line opacity="0.1" stroke="#000000" stroke-width="1" x1="40" y1="443" x2="947" y2="443"/>
<line opacity="0.1" stroke="#000000" stroke-width="1" x1="40" y1="432" x2="947" y2="432"/>
<line opacity="0.1" stroke="#000000" stroke-width="1" x1="40" y1="420" x2="947" y2="420"/>
<line opacity="0.1" stroke="#000000" stroke-width="1" x1="40" y1="409" x2="947" y2="409"/>
<line opacity="0.1" stroke="#000000" stroke-width="1" x1="40" y1="398" x2="947" y2="398"/>
<line opacity="0.1" stroke="#000000" stroke-width="1" x1="40" y1="387" x2="947" y2="387"/>
<line opacity="0.1" stroke="#000000" stroke-width="1" x1="40" y1="375" x2="947" y2="375"/>
<line opacity="0.1" stroke="#000000" stroke-width="1" x1="40" y1="364" x2="947" y2="364"/>
<line opacity="0.1" stroke="#000000" stroke-width="1" x1="40" y1="353" x2="947" y2="353"/>
<line opacity="0.1" stroke="#000000" stroke-width="1" x1="40" y1="341" x2="947" y2="341"/>
<line opacity="0.1" stroke="#000000" stroke-width="1" x1="40" y1="330" x2="947" y2="330"/>
<line opacity="0.1" stroke="#000000" stroke-width="1" x1="40" y1="319" x2="947" y2="319"/>
<line opacity="0.1" stroke="#000000" stroke-width="1" x1="40" y1="308" x2="947" y2="308"/>
<line opacity="0.1" stroke="#000000" stroke-width="1" x1="40" y1="296" x2="947" y2="296"/>
<line opacity="0.1" stroke="#000000" stroke-width="1" x1="40" y1="285" x2="947" y2="285"/>
<line opacity="0.1" stroke="#000000" stroke-width="1" x1="40" y1="274" x2="947" y2="274"/>
<line opacity="0.1" stroke="#000000" stroke-width="1" x1="40" y1="262" x2="947" y2="262"/>
<line opacity="0.1" stroke="#000000" stroke-width="1" x1="40" y1="251" x2="947" y2="251"/>
<line opacity="0.1" stroke="#000000" stroke-width="1" x1="40" y1="240" x2="947" y2="240"/>
<line opacity="0.1" stroke="#000000" stroke-width="1" x1="40" y1="229" x2="947" y2="229"/>
<line opacity="0.1" stroke="#000000" stroke-width="1" x1="40" y1="217" x2="947" y2="217"/>
<line opacity="0.1" stroke="#000000" stroke-width="1" x1="40" y1="206" x2="947" y2="206"/>
<line opacity="0.1" stroke="#000000" stroke-width="1" x1="40" y1="195" x2="947" y2="195"/>
<line opacity="0.1" stroke="#000000" stroke-width="1" x1="40" y1="183" x2="947" y2="183"/>
<line opacity="0.1" stroke="#000000" stroke-width="1" x1="40" y1="172" x2="947" y2="172"/>
<line opacity="0.1" stroke="#000000" stroke-width="1" x1="40" y1="161" x2="947" y2="161"/>
<line opacity="0.1" stroke="#000000" stroke-width="1" x1="40" y1="150" x2="947" y2="150"/>
<line opacity="0.1" stroke="#000000" stroke-width="1" x1="40" y1="138" x2="947" y2="138"/>
<line opacity="0.1" stroke="#000000" stroke-width="1" x1="40" y1="127" x2="947" y2="127"/>
<line opacity="0.1" stroke="#000000" stroke-width="1" x1="40" y1="116" x2="947" y2="116"/>
<line opacity="0.1" stroke="#000000" stroke-width="1" x1="40" y1="104" x2="947" y2="104"/>
<line opacity="0.1" stroke="#000000" stroke-width="1" x1="40" y1="93" x2="947" y2="93"/>
<line opacity="0.1" stroke="#000000" stroke-width="1" x1="40" y1="82" x2="947" y2="82"/>
<line opacity="0.1" stroke="#000000" stroke-width="1" x1="40" y1="71" x2="947" y2="71"/>
<line opacity="0.1" stroke="#000000" stroke-width="1" x1="40" y1="59" x2="947" y2="59"/>
<line opacity="0.1" stroke="#000000" stroke-width="1" x1="40" y1="48" x2="947" y2="48"/>
<line opacity="0.1" stroke="#000000" stroke-width="1" x1="40" y1="37" x2="947" y2="37"/>
<line opacity="0.1" stroke="#000000" stroke-width="1" x1="40" y1="25" x2="947" y2="25"/>
<line opacity="0.1" stroke="#000000" stroke-width="1" x1="40" y1="14" x2="947" y2="14"/>
<line opacity="0.2" stroke="#000000" stroke-width="1" x1="40" y1="579" x2="40" y2="9"/>
<line opacity="0.2" stroke="#000000" stroke-width="1" x1="135" y1="579" x2="135" y2="9"/>
<line opacity="0.2" stroke="#000000" stroke-width="1" x1="231" y1="579" x2="231" y2="9"/>
<line opacity="0.2" stroke="#000000" stroke-width="1" x1="327" y1="579" x2="327" y2="9"/>
<line opacity="0.2" stroke="#000000" stroke-width="1" x1="423" y1="579" x2="423" y2="9"/>
<line opacity="0.2" stroke="#000000" stroke-width="1" x1="519" y1="579" x2="519" y2="9"/>
<line opacity="0.2" stroke="#000000" stroke-width="1" x1="615" y1="579" x2="615" y2="9"/>
<line opacity="0.2" stroke="#000000" stroke-width="1" x1="711" y1="579" x2="711" y2="9"/>
<line opacity="0.2" stroke="#000000" stroke-width="1" x1="807" y1="579" x2="807" y2="9"/>
<line opacity="0.2" stroke="#000000" stroke-width="1" x1="903" y1="579" x2="903" y2="9"/>
<line opacity="0.2" stroke="#000000" stroke-width="1" x1="40" y1="522" x2="947" y2="522"/>
<line opacity="0.2" stroke="#000000" stroke-width="1" x1="40" y1="466" x2="947" y2="466"/>
<line opacity="0.2" stroke="#000000" stroke-width="1" x1="40" y1="409" x2="947" y2="409"/>
<line opacity="0.2" stroke="#000000" stroke-width="1" x1="40" y1="353" x2="947" y2="353"/>
<line opacity="0.2" stroke="#000000" stroke-width="1" x1="40" y1="296" x2="947" y2="296"/>
<line opacity="0.2" stroke="#000000" stroke-width="1" x1="40" y1="240" x2="947" y2="240"/>
<line opacity="0.2" stroke="#000000" stroke-width="1" x1="40" y1="183" x2="947" y2="183"/>
<line opacity="0.2" stroke="#000000" stroke-width="1" x1="40" y1="127" x2="947" y2="127"/>
<line opacity="0.2" stroke="#000000" stroke-width="1" x1="40" y1="71" x2="947" y2="71"/>
<line opacity="0.2" stroke="#000000" stroke-width="1" x1="40" y1="14" x2="947" y2="14"/>
<polyline fill="none" opacity="1" stroke="#000000" stroke-width="1" points="39,10 39,580 "/>
<text x="30" y="522" dy="0.5ex" text-anchor="end" font-family="sans-serif" font-size="9.67741935483871" opacity="1" fill="#000000">
10%
</text>
<polyline fill="none" opacity="1" stroke="#000000" stroke-width="1" points="34,522 39,522 "/>
<text x="30" y="466" dy="0.5ex" text-anchor="end" font-family="sans-serif" font-size="9.67741935483871" opacity="1" fill="#000000">
20%
</text>
<polyline fill="none" opacity="1" stroke="#000000" stroke-width="1" points="34,466 39,466 "/>
<text x="30" y="409" dy="0.5ex" text-anchor="end" font-family="sans-serif" font-size="9.67741935483871" opacity="1" fill="#000000">
30%
</text>
<polyline fill="none" opacity="1" stroke="#000000" stroke-width="1" points="34,409 39,409 "/>
<text x="30" y="353" dy="0.5ex" text-anchor="end" font-family="sans-serif" font-size="9.67741935483871" opacity="1" fill="#000000">
40%
</text>
<polyline fill="none" opacity="1" stroke="#000000" stroke-width="1" points="34,353 39,353 "/>
<text x="30" y="296" dy="0.5ex" text-anchor="end" font-family="sans-serif" font-size="9.67741935483871" opacity="1" fill="#000000">
50%
</text>
<polyline fill="none" opacity="1" stroke="#000000" stroke-width="1" points="34,296 39,296 "/>
<text x="30" y="240" dy="0.5ex" text-anchor="end" font-family="sans-serif" font-size="9.67741935483871" opacity="1" fill="#000000">
60%
</text>
<polyline fill="none" opacity="1" stroke="#000000" stroke-width="1" points="34,240 39,240 "/>
<text x="30" y="183" dy="0.5ex" text-anchor="end" font-family="sans-serif" font-size="9.67741935483871" opacity="1" fill="#000000">
70%
</text>
<polyline fill="none" opacity="1" stroke="#000000" stroke-width="1" points="34,183 39,183 "/>
<text x="30" y="127" dy="0.5ex" text-anchor="end" font-family="sans-serif" font-size="9.67741935483871" opacity="1" fill="#000000">
80%
</text>
<polyline fill="none" opacity="1" stroke="#000000" stroke-width="1" points="34,127 39,127 "/>
<text x="30" y="71" dy="0.5ex" text-anchor="end" font-family="sans-serif" font-size="9.67741935483871" opacity="1" fill="#000000">
90%
</text>
<polyline fill="none" opacity="1" stroke="#000000" stroke-width="1" points="34,71 39,71 "/>
<text x="30" y="14" dy="0.5ex" text-anchor="end" font-family="sans-serif" font-size="9.67741935483871" opacity="1" fill="#000000">
100%
</text>
<polyline fill="none" opacity="1" stroke="#000000" stroke-width="1" points="34,14 39,14 "/>
<polyline fill="none" opacity="1" stroke="#000000" stroke-width="1" points="40,580 947,580 "/>
<text x="40" y="590" dy="0.76em" text-anchor="middle" font-family="sans-serif" font-size="9.67741935483871" opacity="1" fill="#000000">
2019-03-16
</text>
<polyline fill="none" opacity="1" stroke="#000000" stroke-width="1" points="40,580 40,585 "/>
<text x="135" y="590" dy="0.76em" text-anchor="middle" font-family="sans-serif" font-size="9.67741935483871" opacity="1" fill="#000000">
2019-05-25
</text>
<polyline fill="none" opacity="1" stroke="#000000" stroke-width="1" points="135,580 135,585 "/>
<text x="231" y="590" dy="0.76em" text-anchor="middle" font-family="sans-serif" font-size="9.67741935483871" opacity="1" fill="#000000">
2019-08-03
</text>
<polyline fill="none" opacity="1" stroke="#000000" stroke-width="1" points="231,580 231,585 "/>
<text x="327" y="590" dy="0.76em" text-anchor="middle" font-family="sans-serif" font-size="9.67741935483871" opacity="1" fill="#000000">
2019-10-12
</text>
<polyline fill="none" opacity="1" stroke="#000000" stroke-width="1" points="327,580 327,585 "/>
<text x="423" y="590" dy="0.76em" text-anchor="middle" font-family="sans-serif" font-size="9.67741935483871" opacity="1" fill="#000000">
2019-12-21
</text>
<polyline fill="none" opacity="1" stroke="#000000" stroke-width="1" points="423,580 423,585 "/>
<text x="519" y="590" dy="0.76em" text-anchor="middle" font-family="sans-serif" font-size="9.67741935483871" opacity="1" fill="#000000">
2020-02-29
</text>
<polyline fill="none" opacity="1" stroke="#000000" stroke-width="1" points="519,580 519,585 "/>
<text x="615" y="590" dy="0.76em" text-anchor="middle" font-family="sans-serif" font-size="9.67741935483871" opacity="1" fill="#000000">
2020-05-09
</text>
<polyline fill="none" opacity="1" stroke="#000000" stroke-width="1" points="615,580 615,585 "/>
<text x="711" y="590" dy="0.76em" text-anchor="middle" font-family="sans-serif" font-size="9.67741935483871" opacity="1" fill="#000000">
2020-07-18
</text>
<polyline fill="none" opacity="1" stroke="#000000" stroke-width="1" points="711,580 711,585 "/>
<text x="807" y="590" dy="0.76em" text-anchor="middle" font-family="sans-serif" font-size="9.67741935483871" opacity="1" fill="#000000">
2020-09-26
</text>
<polyline fill="none" opacity="1" stroke="#000000" stroke-width="1" points="807,580 807,585 "/>
<text x="903" y="590" dy="0.76em" text-anchor="middle" font-family="sans-serif" font-size="9.67741935483871" opacity="1" fill="#000000">
2020-12-05
</text>
<polyline fill="none" opacity="1" stroke="#000000" stroke-width="1" points="903,580 903,585 "/>
<polyline fill="none" opacity="1" stroke="#FF0000" stroke-width="1" points="40,578 40,578 46,576 47,575 148,575 151,575 153,575 156,575 159,575 166,574 213,572 214,572 386,572 396,571 421,571 433,570 444,570 444,569 462,569 475,569 482,568 543,568 544,568 546,568 552,567 553,567 554,566 555,566 557,565 559,564 561,564 562,563 563,563 565,563 567,562 569,562 570,561 572,560 574,560 575,560 577,559 578,558 579,558 580,558 581,557 583,557 584,557 585,556 588,555 590,555 591,554 592,554 594,554 596,553 596,553 598,552 599,552 601,551 602,551 604,551 604,550 607,549 608,549 610,548 611,548 613,548 614,547 617,546 618,546 620,545 621,545 622,545 624,544 626,543 627,543 628,542 630,542 631,542 633,541 635,540 637,540 638,539 639,539 641,539 642,538 644,538 645,537 646,537 648,536 649,536 650,536 652,535 653,535 655,534 657,533 659,533 660,533 661,532 663,532 664,531 665,531 667,530 668,530 670,530 671,529 673,529 674,528 675,528 676,527 678,527 679,526 681,526 682,526 683,525 685,525 686,524 687,524 689,523 690,523 691,523 693,522 694,522 696,521 697,521 698,520 700,520 701,520 703,519 704,519 705,518 707,518 708,517 709,517 711,517 712,516 713,516 715,515 716,515 718,514 719,514 720,514 722,513 723,513 724,512 726,512 727,511 729,511 730,511 731,510 733,510 734,509 735,509 737,508 738,508 740,508 741,507 742,507 744,506 745,506 746,505 748,505 749,505 750,504 752,504 753,503 756,502 757,502 759,502 761,501 763,500 764,500 766,499 767,499 768,499 771,498 772,497 774,497 775,496 777,496 778,496 781,495 782,494 783,494 785,493 786,493 787,493 790,492 792,491 793,491 794,490 796,490 797,490 800,489 801,488 803,488 804,487 805,487 807,487 808,486 809,486 811,485 812,485 815,484 816,484 818,483 819,483 820,482 822,482 823,481 825,481 826,481 827,480 829,480 830,479 831,479 833,478 834,478 835,477 838,477 840,476 841,476 842,475 844,475 845,474 847,474 848,474 849,473 851,473 852,472 853,472 855,471 856,471 857,471 859,470 860,470 862,469 863,469 865,468 866,468 867,468 868,467 870,467 871,466 872,466 874,465 875,465 877,465 878,464 879,464 881,463 882,463 883,462 885,462 886,462 888,461 889,461 890,460 892,460 893,459 894,459 896,459 897,458 899,458 900,457 901,457 903,456 904,456 905,456 907,455 908,455 909,454 911,454 912,453 914,453 915,453 916,452 918,452 919,451 920,451 922,450 923,450 925,450 926,449 927,449 929,448 930,448 931,447 933,447 934,447 936,446 937,446 938,445 940,445 941,444 943,444 944,444 945,443 947,443 "/>
</svg>
