<svg width="987" height="610" viewBox="0 0 987 610" xmlns="http://www.w3.org/2000/svg">
<line opacity="0.1" stroke="#000000" stroke-width="1" x1="40" y1="579" x2="40" y2="9"/>
<line opacity="0.1" stroke="#000000" stroke-width="1" x1="50" y1="579" x2="50" y2="9"/>
<line opacity="0.1" stroke="#000000" stroke-width="1" x1="61" y1="579" x2="61" y2="9"/>
<line opacity="0.1" stroke="#000000" stroke-width="1" x1="72" y1="579" x2="72" y2="9"/>
<line opacity="0.1" stroke="#000000" stroke-width="1" x1="83" y1="579" x2="83" y2="9"/>
<line opacity="0.1" stroke="#000000" stroke-width="1" x1="94" y1="579" x2="94" y2="9"/>
<line opacity="0.1" stroke="#000000" stroke-width="1" x1="105" y1="579" x2="105" y2="9"/>
<line opacity="0.1" stroke="#000000" stroke-width="1" x1="116" y1="579" x2="116" y2="9"/>
<line opacity="0.1" stroke="#000000" stroke-width="1" x1="127" y1="579" x2="127" y2="9"/>
<line opacity="0.1" stroke="#000000" stroke-width="1" x1="137" y1="579" x2="137" y2="9"/>
<line opacity="0.1" stroke="#000000" stroke-width="1" x1="148" y1="579" x2="148" y2="9"/>
<line opacity="0.1" stroke="#000000" stroke-width="1" x1="159" y1="579" x2="159" y2="9"/>
<line opacity="0.1" stroke="#000000" stroke-width="1" x1="170" y1="579" x2="170" y2="9"/>
<line opacity="0.1" stroke="#000000" stroke-width="1" x1="181" y1="579" x2="181" y2="9"/>
<line opacity="0.1" stroke="#000000" stroke-width="1" x1="192" y1="579" x2="192" y2="9"/>
<line opacity="0.1" stroke="#000000" stroke-width="1" x1="203" y1="579" x2="203" y2="9"/>
<line opacity="0.1" stroke="#000000" stroke-width="1" x1="214" y1="579" x2="214" y2="9"/>
<line opacity="0.1" stroke="#000000" stroke-width="1" x1="225" y1="579" x2="225" y2="9"/>
<line opacity="0.1" stroke="#000000" stroke-width="1" x1="235" y1="579" x2="235" y2="9"/>
<line opacity="0.1" stroke="#000000" stroke-width="1" x1="246" y1="579" x2="246" y2="9"/>
<line opacity="0.1" stroke="#000000" stroke-width="1" x1="257" y1="579" x2="257" y2="9"/>
<line opacity="0.1" stroke="#000000" stroke-width="1" x1="268" y1="579" x2="268" y2="9"/>
<line opacity="0.1" stroke="#000000" stroke-width="1" x1="279" y1="579" x2="279" y2="9"/>
<line opacity="0.1" stroke="#000000" stroke-width="1" x1="290" y1="579" x2="290" y2="9"/>
<line opacity="0.1" stroke="#000000" stroke-width="1" x1="301" y1="579" x2="301" y2="9"/>
<line opacity="0.1" stroke="#000000" stroke-width="1" x1="312" y1="579" x2="312" y2="9"/>
<line opacity="0.1" stroke="#000000" stroke-width="1" x1="323" y1="579" x2="323" y2="9"/>
<line opacity="0.1" stroke="#000000" stroke-width="1" x1="333" y1="579" x2="333" y2="9"/>
<line opacity="0.1" stroke="#000000" stroke-width="1" x1="344" y1="579" x2="344" y2="9"/>
<line opacity="0.1" stroke="#000000" stroke-width="1" x1="355" y1="579" x2="355" y2="9"/>
<line opacity="0.1" stroke="#000000" stroke-width="1" x1="366" y1="579" x2="366" y2="9"/>
<line opacity="0.1" stroke="#000000" stroke-width="1" x1="377" y1="579" x2="377" y2="9"/>
<line opacity="0.1" stroke="#000000" stroke-width="1" x1="388" y1="579" x2="388" y2="9"/>
<line opacity="0.1" stroke="#000000" stroke-width="1" x1="399" y1="579" x2="399" y2="9"/>
<line opacity="0.1" stroke="#000000" stroke-width="1" x1="410" y1="579" x2="410" y2="9"/>
<line opacity="0.1" stroke="#000000" stroke-width="1" x1="421" y1="579" x2="421" y2="9"/>
<line opacity="0.1" stroke="#000000" stroke-width="1" x1="431" y1="579" x2="431" y2="9"/>
<line opacity="0.1" stroke="#000000" stroke-width="1" x1="442" y1="579" x2="442" y2="9"/>
<line opacity="0.1" stroke="#000000" stroke-width="1" x1="453" y1="579" x2="453" y2="9"/>
<line opacity="0.1" stroke="#000000" stroke-width="1" x1="464" y1="579" x2="464" y2="9"/>
<line opacity="0.1" stroke="#000000" stroke-width="1" x1="475" y1="579" x2="475" y2="9"/>
<line opacity="0.1" stroke="#000000" stroke-width="1" x1="486" y1="579" x2="486" y2="9"/>
<line opacity="0.1" stroke="#000000" stroke-width="1" x1="497" y1="579" x2="497" y2="9"/>
<line opacity="0.1" stroke="#000000" stroke-width="1" x1="508" y1="579" x2="508" y2="9"/>
<line opacity="0.1" stroke="#000000" stroke-width="1" x1="518" y1="579" x2="518" y2="9"/>
<line opacity="0.1" stroke="#000000" stroke-width="1" x1="529" y1="579" x2="529" y2="9"/>
<line opacity="0.1" stroke="#000000" stroke-width="1" x1="540" y1="579" x2="540" y2="9"/>
<line opacity="0.1" stroke="#000000" stroke-width="1" x1="551" y1="579" x2="551" y2="9"/>
<line opacity="0.1" stroke="#000000" stroke-width="1" x1="562" y1="579" x2="562" y2="9"/>
<line opacity="0.1" stroke="#000000" stroke-width="1" x1="573" y1="579" x2="573" y2="9"/>
<line opacity="0.1" stroke="#000000" stroke-width="1" x1="584" y1="579" x2="584" y2="9"/>
<line opacity="0.1" stroke="#000000" stroke-width="1" x1="595" y1="579" x2="595" y2="9"/>
<line opacity="0.1" stroke="#000000" stroke-width="1" x1="606" y1="579" x2="606" y2="9"/>
<line opacity="0.1" stroke="#000000" stroke-width="1" x1="616" y1="579" x2="616" y2="9"/>
<line opacity="0.1" stroke="#000000" stroke-width="1" x1="627" y1="579" x2="627" y2="9"/>
<line opacity="0.1" stroke="#000000" stroke-width="1" x1="638" y1="579" x2="638" y2="9"/>
<line opacity="0.1" stroke="#000000" stroke-width="1" x1="649" y1="579" x2="649" y2="9"/>
<line opacity="0.1" stroke="#000000" stroke-width="1" x1="660" y1="579" x2="660" y2="9"/>
<line opacity="0.1" stroke="#000000" stroke-width="1" x1="671" y1="579" x2="671" y2="9"/>
<line opacity="0.1" stroke="#000000" stroke-width="1" x1="682" y1="579" x2="682" y2="9"/>
<line opacity="0.1" stroke="#000000" stroke-width="1" x1="693" y1="579" x2="693" y2="9"/>
<line opacity="0.1" stroke="#000000" stroke-width="1" x1="704" y1="579" x2="704" y2="9"/>
<line opacity="0.1" stroke="#000000" stroke-width="1" x1="714" y1="579" x2="714" y2="9"/>
<line opacity="0.1" stroke="#000000" stroke-width="1" x1="725" y1="579" x2="725" y2="9"/>
<line opacity="0.1" stroke="#000000" stroke-width="1" x1="736" y1="579" x2="736" y2="9"/>
<line opacity="0.1" stroke="#000000" stroke-width="1" x1="747" y1="579" x2="747" y2="9"/>
<line opacity="0.1" stroke="#000000" stroke-width="1" x1="758" y1="579" x2="758" y2="9"/>
<line opacity="0.1" stroke="#000000" stroke-width="1" x1="769" y1="579" x2="769" y2="9"/>
<line opacity="0.1" stroke="#000000" stroke-width="1" x1="780" y1="579" x2="780" y2="9"/>
<line opacity="0.1" stroke="#000000" stroke-width="1" x1="791" y1="579" x2="791" y2="9"/>
<line opacity="0.1" stroke="#000000" stroke-width="1" x1="801" y1="579" x2="801" y2="9"/>
<line opacity="0.1" stroke="#000000" stroke-width="1" x1="812" y1="579" x2="812" y2="9"/>
<line opacity="0.1" stroke="#000000" stroke-width="1" x1="823" y1="579" x2="823" y2="9"/>
<line opacity="0.1" stroke="#000000" stroke-width="1" x1="834" y1="579" x2="834" y2="9"/>
<line opacity="0.1" stroke="#000000" stroke-width="1" x1="845" y1="579" x2="845" y2="9"/>
<line opacity="0.1" stroke="#000000" stroke-width="1" x1="856" y1="579" x2="856" y2="9"/>
<line opacity="0.1" stroke="#000000" stroke-width="1" x1="867" y1="579" x2="867" y2="9"/>
<line opacity="0.1" stroke="#000000" stroke-width="1" x1="878" y1="579" x2="878" y2="9"/>
<line opacity="0.1" stroke="#000000" stroke-width="1" x1="889" y1="579" x2="889" y2="9"/>
<line opacity="0.1" stroke="#000000" stroke-width="1" x1="899" y1="579" x2="899" y2="9"/>
<line opacity="0.1" stroke="#000000" stroke-width="1" x1="910" y1="579" x2="910" y2="9"/>
<line opacity="0.1" stroke="#000000" stroke-width="1" x1="921" y1="579" x2="921" y2="9"/>
<line opacity="0.1" stroke="#000000" stroke-width="1" x1="932" y1="579" x2="932" y2="9"/>
<line opacity="0.1" stroke="#000000" stroke-width="1" x1="943" y1="579" x2="943" y2="9"/>
<line opacity="0.1" stroke="#000000" stroke-width="1" x1="40" y1="567" x2="947" y2="567"/>
<line opacity="0.1" stroke="#000000" stroke-width="1" x1="40" y1="556" x2="947" y2="556"/>
<line opacity="0.1" stroke="#000000" stroke-width="1" x1="40" y1="545" x2="947" y2="545"/>
<line opacity="0.1" stroke="#000000" stroke-width="1" x1="40" y1="533" x2="947" y2="533"/>
<line opacity="0.1" stroke="#000000" stroke-width="1" x1="40" y1="522" x2="947" y2="522"/>
<line opacity="0.1" stroke="#000000" stroke-width="1" x1="40" y1="511" x2="947" y2="511"/>
<line opacity="0.1" stroke="#000000" stroke-width="1" x1="40" y1="499" x2="947" y2="499"/>
<line opacity="0.1" stroke="#000000" stroke-width="1" x1="40" y1="488" x2="947" y2="488"/>
<line opacity="0.1" stroke="#000000" stroke-width="1" x1="40" y1="477" x2="947" y2="477"/>
<line opacity="0.1" stroke="#000000" stroke-width="1" x1="40" y1="466" x2="947" y2="466"/>
<line opacity="0.1" stroke="#000000" stroke-width="1" x1="40" y1="454" x2="947" y2="454"/>
<line opacity="0.1" stroke="#000000" stroke-width="1" x1="40" y1="443" x2="947" y2="443"/>
<line opacity="0.1" stroke="#000000" stroke-width="1" x1="40" y1="432" x2="947" y2="432"/>
<line opacity="0.1" stroke="#000000" stroke-width="1" x1="40" y1="420" x2="947" y2="420"/>
<line opacity="0.1" stroke="#000000" stroke-width="1" x1="40" y1="409" x2="947" y2="409"/>
<line opacity="0.1" stroke="#000000" stroke-width="1" x1="40" y1="398" x2="947" y2="398"/>
<line opacity="0.1" stroke="#000000" stroke-width="1" x1="40" y1="387" x2="947" y2="387"/>
<line opacity="0.1" stroke="#000000" stroke-width="1" x1="40" y1="375" x2="947" y2="375"/>
<line opacity="0.1" stroke="#000000" stroke-width="1" x1="40" y1="364" x2="947" y2="364"/>
<line opacity="0.1" stroke="#000000" stroke-width="1" x1="40" y1="353" x2="947" y2="353"/>
<line opacity="0.1" stroke="#000000" stroke-width="1" x1="40" y1="341" x2="947" y2="341"/>
<line opacity="0.1" stroke="#000000" stroke-width="1" x1="40" y1="330" x2="947" y2="330"/>
<line opacity="0.1" stroke="#000000" stroke-width="1" x1="40" y1="319" x2="947" y2="319"/>
<line opacity="0.1" stroke="#000000" stroke-width="1" x1="40" y1="308" x2="947" y2="308"/>
<line opacity="0.1" stroke="#000000" stroke-width="1" x1="40" y1="296" x2="947" y2="296"/>
<line opacity="0.1" stroke="#000000" stroke-width="1" x1="40" y1="285" x2="947" y2="285"/>
<line opacity="0.1" stroke="#000000" stroke-width="1" x1="40" y1="274" x2="947" y2="274"/>
<line opacity="0.1" stroke="#000000" stroke-width="1" x1="40" y1="262" x2="947" y2="262"/>
<line opacity="0.1" stroke="#000000" stroke-width="1" x1="40" y1="251" x2="947" y2="251"/>
<line opacity="0.1" stroke="#000000" stroke-width="1" x1="40" y1="240" x2="947" y2="240"/>
<line opacity="0.1" stroke="#000000" stroke-width="1" x1="40" y1="229" x2="947" y2="229"/>
<line opacity="0.1" stroke="#000000" stroke-width="1" x1="40" y1="217" x2="947" y2="217"/>
<line opacity="0.1" stroke="#000000" stroke-width="1" x1="40" y1="206" x2="947" y2="206"/>
<line opacity="0.1" stroke="#000000" stroke-width="1" x1="40" y1="195" x2="947" y2="195"/>
<line opacity="0.1" stroke="#000000" stroke-width="1" x1="40" y1="183" x2="947" y2="183"/>
<line opacity="0.1" stroke="#000000" stroke-width="1" x1="40" y1="172" x2="947" y2="172"/>
<line opacity="0.1" stroke="#000000" stroke-width="1" x1="40" y1="161" x2="947" y2="161"/>
<line opacity="0.1" stroke="#000000" stroke-width="1" x1="40" y1="150" x2="947" y2="150"/>
<line opacity="0.1" stroke="#000000" stroke-width="1" x1="40" y1="138" x2="947" y2="138"/>
<line opacity="0.1" stroke="#000000" stroke-width="1" x1="40" y1="127" x2="947" y2="127"/>
<line opacity="0.1" stroke="#000000" stroke-width="1" x1="40" y1="116" x2="947" y2="116"/>
<line opacity="0.1" stroke="#000000" stroke-width="1" x1="40" y1="104" x2="947" y2="104"/>
<line opacity="0.1" stroke="#000000" stroke-width="1" x1="40" y1="93" x2="947" y2="93"/>
<line opacity="0.1" stroke="#000000" stroke-width="1" x1="40" y1="82" x2="947" y2="82"/>
<line opacity="0.1" stroke="#000000" stroke-width="1" x1="40" y1="71" x2="947" y2="71"/>
<line opacity="0.1" stroke="#000000" stroke-width="1" x1="40" y1="59" x2="947" y2="59"/>
<line opacity="0.1" stroke="#000000" stroke-width="1" x1="40" y1="48" x2="947" y2="48"/>
<line opacity="0.1" stroke="#000000" stroke-width="1" x1="40" y1="37" x2="947" y2="37"/>
<line opacity="0.1" stroke="#000000" stroke-width="1" x1="40" y1="25" x2="947" y2="25"/>
<line opacity="0.1" stroke="#000000" stroke-width="1" x1="40" y1="14" x2="947" y2="14"/>
<line opacity="0.2" stroke="#000000" stroke-width="1" x1="40" y1="579" x2="40" y2="9"/>
<line opacity="0.2" stroke="#000000" stroke-width="1" x1="137" y1="579" x2="137" y2="9"/>
<line opacity="0.2" stroke="#000000" stroke-width="1" x1="235" y1="579" x2="235" y2="9"/>
<line opacity="0.2" stroke="#000000" stroke-width="1" x1="333" y1="579" x2="333" y2="9"/>
<line opacity="0.2" stroke="#000000" stroke-width="1" x1="431" y1="579" x2="431" y2="9"/>
<line opacity="0.2" stroke="#000000" stroke-width="1" x1="529" y1="579" x2="529" y2="9"/>
<line opacity="0.2" stroke="#000000" stroke-width="1" x1="627" y1="579" x2="627" y2="9"/>
<line opacity="0.2" stroke="#000000" stroke-width="1" x1="725" y1="579" x2="725" y2="9"/>
<line opacity="0.2" stroke="#000000" stroke-width="1" x1="823" y1="579" x2="823" y2="9"/>
<line opacity="0.2" stroke="#000000" stroke-width="1" x1="921" y1="579" x2="921" y2="9"/>
<line opacity="0.2" stroke="#000000" stroke-width="1" x1="40" y1="522" x2="947" y2="522"/>
<line opacity="0.2" stroke="#000000" stroke-width="1" x1="40" y1="466" x2="947" y2="466"/>
<line opacity="0.2" stroke="#000000" stroke-width="1" x1="40" y1="409" x2="947" y2="409"/>
<line opacity="0.2" stroke="#000000" stroke-width="1" x1="40" y1="353" x2="947" y2="353"/>
<line opacity="0.2" stroke="#000000" stroke-width="1" x1="40" y1="296" x2="947" y2="296"/>
<line opacity="0.2" stroke="#000000" stroke-width="1" x1="40" y1="240" x2="947" y2="240"/>
<line opacity="0.2" stroke="#000000" stroke-width="1" x1="40" y1="183" x2="947" y2="183"/>
<line opacity="0.2" stroke="#000000" stroke-width="1" x1="40" y1="127" x2="947" y2="127"/>
<line opacity="0.2" stroke="#000000" stroke-width="1" x1="40" y1="71" x2="947" y2="71"/>
<line opacity="0.2" stroke="#000000" stroke-width="1" x1="40" y1="14" x2="947" y2="14"/>
<polyline fill="none" opacity="1" stroke="#000000" stroke-width="1" points="39,10 39,580 "/>
<text x="30" y="522" dy="0.5ex" text-anchor="end" font-family="sans-serif" font-size="9.67741935483871" opacity="1" fill="#000000">
10%
</text>
<polyline fill="none" opacity="1" stroke="#000000" stroke-width="1" points="34,522 39,522 "/>
<text x="30" y="466" dy="0.5ex" text-anchor="end" font-family="sans-serif" font-size="9.67741935483871" opacity="1" fill="#000000">
20%
</text>
<polyline fill="none" opacity="1" stroke="#000000" stroke-width="1" points="34,466 39,466 "/>
<text x="30" y="409" dy="0.5ex" text-anchor="end" font-family="sans-serif" font-size="9.67741935483871" opacity="1" fill="#000000">
30%
</text>
<polyline fill="none" opacity="1" stroke="#000000" stroke-width="1" points="34,409 39,409 "/>
<text x="30" y="353" dy="0.5ex" text-anchor="end" font-family="sans-serif" font-size="9.67741935483871" opacity="1" fill="#000000">
40%
</text>
<polyline fill="none" opacity="1" stroke="#000000" stroke-width="1" points="34,353 39,353 "/>
<text x="30" y="296" dy="0.5ex" text-anchor="end" font-family="sans-serif" font-size="9.67741935483871" opacity="1" fill="#000000">
50%
</text>
<polyline fill="none" opacity="1" stroke="#000000" stroke-width="1" points="34,296 39,296 "/>
<text x="30" y="240" dy="0.5ex" text-anchor="end" font-family="sans-serif" font-size="9.67741935483871" opacity="1" fill="#000000">
60%
</text>
<polyline fill="none" opacity="1" stroke="#000000" stroke-width="1" points="34,240 39,240 "/>
<text x="30" y="183" dy="0.5ex" text-anchor="end" font-family="sans-serif" font-size="9.67741935483871" opacity="1" fill="#000000">
70%
</text>
<polyline fill="none" opacity="1" stroke="#000000" stroke-width="1" points="34,183 39,183 "/>
<text x="30" y="127" dy="0.5ex" text-anchor="end" font-family="sans-serif" font-size="9.67741935483871" opacity="1" fill="#000000">
80%
</text>
<polyline fill="none" opacity="1" stroke="#000000" stroke-width="1" points="34,127 39,127 "/>
<text x="30" y="71" dy="0.5ex" text-anchor="end" font-family="sans-serif" font-size="9.67741935483871" opacity="1" fill="#000000">
90%
</text>
<polyline fill="none" opacity="1" stroke="#000000" stroke-width="1" points="34,71 39,71 "/>
<text x="30" y="14" dy="0.5ex" text-anchor="end" font-family="sans-serif" font-size="9.67741935483871" opacity="1" fill="#000000">
100%
</text>
<polyline fill="none" opacity="1" stroke="#000000" stroke-width="1" points="34,14 39,14 "/>
<polyline fill="none" opacity="1" stroke="#000000" stroke-width="1" points="40,580 947,580 "/>
<text x="40" y="590" dy="0.76em" text-anchor="middle" font-family="sans-serif" font-size="9.67741935483871" opacity="1" fill="#000000">
2019-03-16
</text>
<polyline fill="none" opacity="1" stroke="#000000" stroke-width="1" points="40,580 40,585 "/>
<text x="137" y="590" dy="0.76em" text-anchor="middle" font-family="sans-serif" font-size="9.67741935483871" opacity="1" fill="#000000">
2019-05-18
</text>
<polyline fill="none" opacity="1" stroke="#000000" stroke-width="1" points="137,580 137,585 "/>
<text x="235" y="590" dy="0.76em" text-anchor="middle" font-family="sans-serif" font-size="9.67741935483871" opacity="1" fill="#000000">
2019-07-20
</text>
<polyline fill="none" opacity="1" stroke="#000000" stroke-width="1" points="235,580 235,585 "/>
<text x="333" y="590" dy="0.76em" text-anchor="middle" font-family="sans-serif" font-size="9.67741935483871" opacity="1" fill="#000000">
2019-09-21
</text>
<polyline fill="none" opacity="1" stroke="#000000" stroke-width="1" points="333,580 333,585 "/>
<text x="431" y="590" dy="0.76em" text-anchor="middle" font-family="sans-serif" font-size="9.67741935483871" opacity="1" fill="#000000">
2019-11-23
</text>
<polyline fill="none" opacity="1" stroke="#000000" stroke-width="1" points="431,580 431,585 "/>
<text x="529" y="590" dy="0.76em" text-anchor="middle" font-family="sans-serif" font-size="9.67741935483871" opacity="1" fill="#000000">
2020-01-25
</text>
<polyline fill="none" opacity="1" stroke="#000000" stroke-width="1" points="529,580 529,585 "/>
<text x="627" y="590" dy="0.76em" text-anchor="middle" font-family="sans-serif" font-size="9.67741935483871" opacity="1" fill="#000000">
2020-03-28
</text>
<polyline fill="none" opacity="1" stroke="#000000" stroke-width="1" points="627,580 627,585 "/>
<text x="725" y="590" dy="0.76em" text-anchor="middle" font-family="sans-serif" font-size="9.67741935483871" opacity="1" fill="#000000">
2020-05-30
</text>
<polyline fill="none" opacity="1" stroke="#000000" stroke-width="1" points="725,580 725,585 "/>
<text x="823" y="590" dy="0.76em" text-anchor="middle" font-family="sans-serif" font-size="9.67741935483871" opacity="1" fill="#000000">
2020-08-01
</text>
<polyline fill="none" opacity="1" stroke="#000000" stroke-width="1" points="823,580 823,585 "/>
<text x="921" y="590" dy="0.76em" text-anchor="middle" font-family="sans-serif" font-size="9.67741935483871" opacity="1" fill="#000000">
2020-10-03
</text>
<polyline fill="none" opacity="1" stroke="#000000" stroke-width="1" points="921,580 921,585 "/>
<polyline fill="none" opacity="1" stroke="#FF0000" stroke-width="1" points="40,578 40,578 47,576 48,575 163,575 166,575 168,575 172,575 175,575 183,574 237,572 237,572 433,571 444,571 472,570 486,570 498,569 498,569 519,569 534,569 541,568 610,568 612,567 614,567 621,567 622,566 623,566 625,565 626,564 628,564 631,563 632,563 634,562 635,562 638,561 640,561 642,560 643,559 645,559 646,559 649,558 651,557 651,557 653,557 654,556 656,556 657,555 659,555 661,554 663,554 665,553 667,553 668,552 671,551 671,551 673,550 674,550 676,550 677,549 680,549 680,549 683,548 685,547 686,547 688,546 690,546 691,545 694,545 696,544 698,544 699,543 701,543 703,542 705,541 706,541 708,540 709,540 711,540 712,539 715,538 717,538 719,537 720,537 722,536 723,536 725,535 726,535 728,535 729,534 731,534 732,533 734,533 736,532 737,532 740,531 742,530 743,530 745,530 746,529 748,529 750,528 751,528 753,527 754,527 756,526 758,526 759,525 760,525 762,525 764,524 765,524 767,523 768,523 770,522 771,522 773,521 774,521 776,520 778,520 779,520 781,519 782,519 784,518 785,518 787,517 788,517 790,516 792,516 793,515 795,515 796,515 798,514 799,514 801,513 803,513 804,512 806,512 807,511 809,511 810,511 812,510 814,510 815,509 816,509 818,508 820,508 821,507 823,507 824,506 826,506 827,506 829,505 830,505 832,504 834,504 835,503 837,503 838,502 840,502 841,501 843,501 845,501 846,500 848,500 849,499 852,498 854,498 855,497 858,496 860,496 862,496 863,495 865,495 866,494 869,493 871,493 872,492 874,492 876,491 877,491 880,490 882,490 883,489 885,489 886,488 888,488 891,487 893,486 894,486 896,486 897,485 899,485 902,484 904,483 905,483 907,482 908,482 910,481 911,481 913,481 914,480 916,480 920,479 921,478 922,478 924,477 925,477 927,477 929,476 930,476 932,475 933,475 935,474 936,474 938,473 939,473 941,472 942,472 946,471 947,471 "/>
</svg>
