<svg width="987" height="610" viewBox="0 0 987 610" xmlns="http://www.w3.org/2000/svg">
<line opacity="0.1" stroke="#000000" stroke-width="1" x1="40" y1="579" x2="40" y2="9"/>
<line opacity="0.1" stroke="#000000" stroke-width="1" x1="51" y1="579" x2="51" y2="9"/>
<line opacity="0.1" stroke="#000000" stroke-width="1" x1="62" y1="579" x2="62" y2="9"/>
<line opacity="0.1" stroke="#000000" stroke-width="1" x1="73" y1="579" x2="73" y2="9"/>
<line opacity="0.1" stroke="#000000" stroke-width="1" x1="84" y1="579" x2="84" y2="9"/>
<line opacity="0.1" stroke="#000000" stroke-width="1" x1="95" y1="579" x2="95" y2="9"/>
<line opacity="0.1" stroke="#000000" stroke-width="1" x1="106" y1="579" x2="106" y2="9"/>
<line opacity="0.1" stroke="#000000" stroke-width="1" x1="117" y1="579" x2="117" y2="9"/>
<line opacity="0.1" stroke="#000000" stroke-width="1" x1="128" y1="579" x2="128" y2="9"/>
<line opacity="0.1" stroke="#000000" stroke-width="1" x1="139" y1="579" x2="139" y2="9"/>
<line opacity="0.1" stroke="#000000" stroke-width="1" x1="150" y1="579" x2="150" y2="9"/>
<line opacity="0.1" stroke="#000000" stroke-width="1" x1="161" y1="579" x2="161" y2="9"/>
<line opacity="0.1" stroke="#000000" stroke-width="1" x1="172" y1="579" x2="172" y2="9"/>
<line opacity="0.1" stroke="#000000" stroke-width="1" x1="183" y1="579" x2="183" y2="9"/>
<line opacity="0.1" stroke="#000000" stroke-width="1" x1="194" y1="579" x2="194" y2="9"/>
<line opacity="0.1" stroke="#000000" stroke-width="1" x1="205" y1="579" x2="205" y2="9"/>
<line opacity="0.1" stroke="#000000" stroke-width="1" x1="216" y1="579" x2="216" y2="9"/>
<line opacity="0.1" stroke="#000000" stroke-width="1" x1="227" y1="579" x2="227" y2="9"/>
<line opacity="0.1" stroke="#000000" stroke-width="1" x1="238" y1="579" x2="238" y2="9"/>
<line opacity="0.1" stroke="#000000" stroke-width="1" x1="249" y1="579" x2="249" y2="9"/>
<line opacity="0.1" stroke="#000000" stroke-width="1" x1="260" y1="579" x2="260" y2="9"/>
<line opacity="0.1" stroke="#000000" stroke-width="1" x1="271" y1="579" x2="271" y2="9"/>
<line opacity="0.1" stroke="#000000" stroke-width="1" x1="283" y1="579" x2="283" y2="9"/>
<line opacity="0.1" stroke="#000000" stroke-width="1" x1="294" y1="579" x2="294" y2="9"/>
<line opacity="0.1" stroke="#000000" stroke-width="1" x1="305" y1="579" x2="305" y2="9"/>
<line opacity="0.1" stroke="#000000" stroke-width="1" x1="316" y1="579" x2="316" y2="9"/>
<line opacity="0.1" stroke="#000000" stroke-width="1" x1="327" y1="579" x2="327" y2="9"/>
<line opacity="0.1" stroke="#000000" stroke-width="1" x1="338" y1="579" x2="338" y2="9"/>
<line opacity="0.1" stroke="#000000" stroke-width="1" x1="349" y1="579" x2="349" y2="9"/>
<line opacity="0.1" stroke="#000000" stroke-width="1" x1="360" y1="579" x2="360" y2="9"/>
<line opacity="0.1" stroke="#000000" stroke-width="1" x1="371" y1="579" x2="371" y2="9"/>
<line opacity="0.1" stroke="#000000" stroke-width="1" x1="382" y1="579" x2="382" y2="9"/>
<line opacity="0.1" stroke="#000000" stroke-width="1" x1="393" y1="579" x2="393" y2="9"/>
<line opacity="0.1" stroke="#000000" stroke-width="1" x1="404" y1="579" x2="404" y2="9"/>
<line opacity="0.1" stroke="#000000" stroke-width="1" x1="415" y1="579" x2="415" y2="9"/>
<line opacity="0.1" stroke="#000000" stroke-width="1" x1="426" y1="579" x2="426" y2="9"/>
<line opacity="0.1" stroke="#000000" stroke-width="1" x1="437" y1="579" x2="437" y2="9"/>
<line opacity="0.1" stroke="#000000" stroke-width="1" x1="448" y1="579" x2="448" y2="9"/>
<line opacity="0.1" stroke="#000000" stroke-width="1" x1="459" y1="579" x2="459" y2="9"/>
<line opacity="0.1" stroke="#000000" stroke-width="1" x1="470" y1="579" x2="470" y2="9"/>
<line opacity="0.1" stroke="#000000" stroke-width="1" x1="481" y1="579" x2="481" y2="9"/>
<line opacity="0.1" stroke="#000000" stroke-width="1" x1="492" y1="579" x2="492" y2="9"/>
<line opacity="0.1" stroke="#000000" stroke-width="1" x1="503" y1="579" x2="503" y2="9"/>
<line opacity="0.1" stroke="#000000" stroke-width="1" x1="515" y1="579" x2="515" y2="9"/>
<line opacity="0.1" stroke="#000000" stroke-width="1" x1="526" y1="579" x2="526" y2="9"/>
<line opacity="0.1" stroke="#000000" stroke-width="1" x1="537" y1="579" x2="537" y2="9"/>
<line opacity="0.1" stroke="#000000" stroke-width="1" x1="548" y1="579" x2="548" y2="9"/>
<line opacity="0.1" stroke="#000000" stroke-width="1" x1="559" y1="579" x2="559" y2="9"/>
<line opacity="0.1" stroke="#000000" stroke-width="1" x1="570" y1="579" x2="570" y2="9"/>
<line opacity="0.1" stroke="#000000" stroke-width="1" x1="581" y1="579" x2="581" y2="9"/>
<line opacity="0.1" stroke="#000000" stroke-width="1" x1="592" y1="579" x2="592" y2="9"/>
<line opacity="0.1" stroke="#000000" stroke-width="1" x1="603" y1="579" x2="603" y2="9"/>
<line opacity="0.1" stroke="#000000" stroke-width="1" x1="614" y1="579" x2="614" y2="9"/>
<line opacity="0.1" stroke="#000000" stroke-width="1" x1="625" y1="579" x2="625" y2="9"/>
<line opacity="0.1" stroke="#000000" stroke-width="1" x1="636" y1="579" x2="636" y2="9"/>
<line opacity="0.1" stroke="#000000" stroke-width="1" x1="647" y1="579" x2="647" y2="9"/>
<line opacity="0.1" stroke="#000000" stroke-width="1" x1="658" y1="579" x2="658" y2="9"/>
<line opacity="0.1" stroke="#000000" stroke-width="1" x1="669" y1="579" x2="669" y2="9"/>
<line opacity="0.1" stroke="#000000" stroke-width="1" x1="680" y1="579" x2="680" y2="9"/>
<line opacity="0.1" stroke="#000000" stroke-width="1" x1="691" y1="579" x2="691" y2="9"/>
<line opacity="0.1" stroke="#000000" stroke-width="1" x1="702" y1="579" x2="702" y2="9"/>
<line opacity="0.1" stroke="#000000" stroke-width="1" x1="713" y1="579" x2="713" y2="9"/>
<line opacity="0.1" stroke="#000000" stroke-width="1" x1="724" y1="579" x2="724" y2="9"/>
<line opacity="0.1" stroke="#000000" stroke-width="1" x1="735" y1="579" x2="735" y2="9"/>
<line opacity="0.1" stroke="#000000" stroke-width="1" x1="747" y1="579" x2="747" y2="9"/>
<line opacity="0.1" stroke="#000000" stroke-width="1" x1="758" y1="579" x2="758" y2="9"/>
<line opacity="0.1" stroke="#000000" stroke-width="1" x1="769" y1="579" x2="769" y2="9"/>
<line opacity="0.1" stroke="#000000" stroke-width="1" x1="780" y1="579" x2="780" y2="9"/>
<line opacity="0.1" stroke="#000000" stroke-width="1" x1="791" y1="579" x2="791" y2="9"/>
<line opacity="0.1" stroke="#000000" stroke-width="1" x1="802" y1="579" x2="802" y2="9"/>
<line opacity="0.1" stroke="#000000" stroke-width="1" x1="813" y1="579" x2="813" y2="9"/>
<line opacity="0.1" stroke="#000000" stroke-width="1" x1="824" y1="579" x2="824" y2="9"/>
<line opacity="0.1" stroke="#000000" stroke-width="1" x1="835" y1="579" x2="835" y2="9"/>
<line opacity="0.1" stroke="#000000" stroke-width="1" x1="846" y1="579" x2="846" y2="9"/>
<line opacity="0.1" stroke="#000000" stroke-width="1" x1="857" y1="579" x2="857" y2="9"/>
<line opacity="0.1" stroke="#000000" stroke-width="1" x1="868" y1="579" x2="868" y2="9"/>
<line opacity="0.1" stroke="#000000" stroke-width="1" x1="879" y1="579" x2="879" y2="9"/>
<line opacity="0.1" stroke="#000000" stroke-width="1" x1="890" y1="579" x2="890" y2="9"/>
<line opacity="0.1" stroke="#000000" stroke-width="1" x1="901" y1="579" x2="901" y2="9"/>
<line opacity="0.1" stroke="#000000" stroke-width="1" x1="912" y1="579" x2="912" y2="9"/>
<line opacity="0.1" stroke="#000000" stroke-width="1" x1="923" y1="579" x2="923" y2="9"/>
<line opacity="0.1" stroke="#000000" stroke-width="1" x1="934" y1="579" x2="934" y2="9"/>
<line opacity="0.1" stroke="#000000" stroke-width="1" x1="945" y1="579" x2="945" y2="9"/>
<line opacity="0.1" stroke="#000000" stroke-width="1" x1="40" y1="567" x2="947" y2="567"/>
<line opacity="0.1" stroke="#000000" stroke-width="1" x1="40" y1="556" x2="947" y2="556"/>
<line opacity="0.1" stroke="#000000" stroke-width="1" x1="40" y1="545" x2="947" y2="545"/>
<line opacity="0.1" stroke="#000000" stroke-width="1" x1="40" y1="533" x2="947" y2="533"/>
<line opacity="0.1" stroke="#000000" stroke-width="1" x1="40" y1="522" x2="947" y2="522"/>
<line opacity="0.1" stroke="#000000" stroke-width="1" x1="40" y1="511" x2="947" y2="511"/>
<line opacity="0.1" stroke="#000000" stroke-width="1" x1="40" y1="499" x2="947" y2="499"/>
<line opacity="0.1" stroke="#000000" stroke-width="1" x1="40" y1="488" x2="947" y2="488"/>
<line opacity="0.1" stroke="#000000" stroke-width="1" x1="40" y1="477" x2="947" y2="477"/>
<line opacity="0.1" stroke="#000000" stroke-width="1" x1="40" y1="466" x2="947" y2="466"/>
<line opacity="0.1" stroke="#000000" stroke-width="1" x1="40" y1="454" x2="947" y2="454"/>
<line opacity="0.1" stroke="#000000" stroke-width="1" x1="40" y1="443" x2="947" y2="443"/>
<line opacity="0.1" stroke="#000000" stroke-width="1" x1="40" y1="432" x2="947" y2="432"/>
<line opacity="0.1" stroke="#000000" stroke-width="1" x1="40" y1="420" x2="947" y2="420"/>
<line opacity="0.1" stroke="#000000" stroke-width="1" x1="40" y1="409" x2="947" y2="409"/>
<line opacity="0.1" stroke="#000000" stroke-width="1" x1="40" y1="398" x2="947" y2="398"/>
<line opacity="0.1" stroke="#000000" stroke-width="1" x1="40" y1="387" x2="947" y2="387"/>
<line opacity="0.1" stroke="#000000" stroke-width="1" x1="40" y1="375" x2="947" y2="375"/>
<line opacity="0.1" stroke="#000000" stroke-width="1" x1="40" y1="364" x2="947" y2="364"/>
<line opacity="0.1" stroke="#000000" stroke-width="1" x1="40" y1="353" x2="947" y2="353"/>
<line opacity="0.1" stroke="#000000" stroke-width="1" x1="40" y1="341" x2="947" y2="341"/>
<line opacity="0.1" stroke="#000000" stroke-width="1" x1="40" y1="330" x2="947" y2="330"/>
<line opacity="0.1" stroke="#000000" stroke-width="1" x1="40" y1="319" x2="947" y2="319"/>
<line opacity="0.1" stroke="#000000" stroke-width="1" x1="40" y1="308" x2="947" y2="308"/>
<line opacity="0.1" stroke="#000000" stroke-width="1" x1="40" y1="296" x2="947" y2="296"/>
<line opacity="0.1" stroke="#000000" stroke-width="1" x1="40" y1="285" x2="947" y2="285"/>
<line opacity="0.1" stroke="#000000" stroke-width="1" x1="40" y1="274" x2="947" y2="274"/>
<line opacity="0.1" stroke="#000000" stroke-width="1" x1="40" y1="262" x2="947" y2="262"/>
<line opacity="0.1" stroke="#000000" stroke-width="1" x1="40" y1="251" x2="947" y2="251"/>
<line opacity="0.1" stroke="#000000" stroke-width="1" x1="40" y1="240" x2="947" y2="240"/>
<line opacity="0.1" stroke="#000000" stroke-width="1" x1="40" y1="229" x2="947" y2="229"/>
<line opacity="0.1" stroke="#000000" stroke-width="1" x1="40" y1="217" x2="947" y2="217"/>
<line opacity="0.1" stroke="#000000" stroke-width="1" x1="40" y1="206" x2="947" y2="206"/>
<line opacity="0.1" stroke="#000000" stroke-width="1" x1="40" y1="195" x2="947" y2="195"/>
<line opacity="0.1" stroke="#000000" stroke-width="1" x1="40" y1="183" x2="947" y2="183"/>
<line opacity="0.1" stroke="#000000" stroke-width="1" x1="40" y1="172" x2="947" y2="172"/>
<line opacity="0.1" stroke="#000000" stroke-width="1" x1="40" y1="161" x2="947" y2="161"/>
<line opacity="0.1" stroke="#000000" stroke-width="1" x1="40" y1="150" x2="947" y2="150"/>
<line opacity="0.1" stroke="#000000" stroke-width="1" x1="40" y1="138" x2="947" y2="138"/>
<line opacity="0.1" stroke="#000000" stroke-width="1" x1="40" y1="127" x2="947" y2="127"/>
<line opacity="0.1" stroke="#000000" stroke-width="1" x1="40" y1="116" x2="947" y2="116"/>
<line opacity="0.1" stroke="#000000" stroke-width="1" x1="40" y1="104" x2="947" y2="104"/>
<line opacity="0.1" stroke="#000000" stroke-width="1" x1="40" y1="93" x2="947" y2="93"/>
<line opacity="0.1" stroke="#000000" stroke-width="1" x1="40" y1="82" x2="947" y2="82"/>
<line opacity="0.1" stroke="#000000" stroke-width="1" x1="40" y1="71" x2="947" y2="71"/>
<line opacity="0.1" stroke="#000000" stroke-width="1" x1="40" y1="59" x2="947" y2="59"/>
<line opacity="0.1" stroke="#000000" stroke-width="1" x1="40" y1="48" x2="947" y2="48"/>
<line opacity="0.1" stroke="#000000" stroke-width="1" x1="40" y1="37" x2="947" y2="37"/>
<line opacity="0.1" stroke="#000000" stroke-width="1" x1="40" y1="25" x2="947" y2="25"/>
<line opacity="0.1" stroke="#000000" stroke-width="1" x1="40" y1="14" x2="947" y2="14"/>
<line opacity="0.2" stroke="#000000" stroke-width="1" x1="40" y1="579" x2="40" y2="9"/>
<line opacity="0.2" stroke="#000000" stroke-width="1" x1="139" y1="579" x2="139" y2="9"/>
<line opacity="0.2" stroke="#000000" stroke-width="1" x1="238" y1="579" x2="238" y2="9"/>
<line opacity="0.2" stroke="#000000" stroke-width="1" x1="338" y1="579" x2="338" y2="9"/>
<line opacity="0.2" stroke="#000000" stroke-width="1" x1="437" y1="579" x2="437" y2="9"/>
<line opacity="0.2" stroke="#000000" stroke-width="1" x1="537" y1="579" x2="537" y2="9"/>
<line opacity="0.2" stroke="#000000" stroke-width="1" x1="636" y1="579" x2="636" y2="9"/>
<line opacity="0.2" stroke="#000000" stroke-width="1" x1="735" y1="579" x2="735" y2="9"/>
<line opacity="0.2" stroke="#000000" stroke-width="1" x1="835" y1="579" x2="835" y2="9"/>
<line opacity="0.2" stroke="#000000" stroke-width="1" x1="934" y1="579" x2="934" y2="9"/>
<line opacity="0.2" stroke="#000000" stroke-width="1" x1="40" y1="522" x2="947" y2="522"/>
<line opacity="0.2" stroke="#000000" stroke-width="1" x1="40" y1="466" x2="947" y2="466"/>
<line opacity="0.2" stroke="#000000" stroke-width="1" x1="40" y1="409" x2="947" y2="409"/>
<line opacity="0.2" stroke="#000000" stroke-width="1" x1="40" y1="353" x2="947" y2="353"/>
<line opacity="0.2" stroke="#000000" stroke-width="1" x1="40" y1="296" x2="947" y2="296"/>
<line opacity="0.2" stroke="#000000" stroke-width="1" x1="40" y1="240" x2="947" y2="240"/>
<line opacity="0.2" stroke="#000000" stroke-width="1" x1="40" y1="183" x2="947" y2="183"/>
<line opacity="0.2" stroke="#000000" stroke-width="1" x1="40" y1="127" x2="947" y2="127"/>
<line opacity="0.2" stroke="#000000" stroke-width="1" x1="40" y1="71" x2="947" y2="71"/>
<line opacity="0.2" stroke="#000000" stroke-width="1" x1="40" y1="14" x2="947" y2="14"/>
<polyline fill="none" opacity="1" stroke="#000000" stroke-width="1" points="39,10 39,580 "/>
<text x="30" y="522" dy="0.5ex" text-anchor="end" font-family="sans-serif" font-size="9.67741935483871" opacity="1" fill="#000000">
10%
</text>
<polyline fill="none" opacity="1" stroke="#000000" stroke-width="1" points="34,522 39,522 "/>
<text x="30" y="466" dy="0.5ex" text-anchor="end" font-family="sans-serif" font-size="9.67741935483871" opacity="1" fill="#000000">
20%
</text>
<polyline fill="none" opacity="1" stroke="#000000" stroke-width="1" points="34,466 39,466 "/>
<text x="30" y="409" dy="0.5ex" text-anchor="end" font-family="sans-serif" font-size="9.67741935483871" opacity="1" fill="#000000">
30%
</text>
<polyline fill="none" opacity="1" stroke="#000000" stroke-width="1" points="34,409 39,409 "/>
<text x="30" y="353" dy="0.5ex" text-anchor="end" font-family="sans-serif" font-size="9.67741935483871" opacity="1" fill="#000000">
40%
</text>
<polyline fill="none" opacity="1" stroke="#000000" stroke-width="1" points="34,353 39,353 "/>
<text x="30" y="296" dy="0.5ex" text-anchor="end" font-family="sans-serif" font-size="9.67741935483871" opacity="1" fill="#000000">
50%
</text>
<polyline fill="none" opacity="1" stroke="#000000" stroke-width="1" points="34,296 39,296 "/>
<text x="30" y="240" dy="0.5ex" text-anchor="end" font-family="sans-serif" font-size="9.67741935483871" opacity="1" fill="#000000">
60%
</text>
<polyline fill="none" opacity="1" stroke="#000000" stroke-width="1" points="34,240 39,240 "/>
<text x="30" y="183" dy="0.5ex" text-anchor="end" font-family="sans-serif" font-size="9.67741935483871" opacity="1" fill="#000000">
70%
</text>
<polyline fill="none" opacity="1" stroke="#000000" stroke-width="1" points="34,183 39,183 "/>
<text x="30" y="127" dy="0.5ex" text-anchor="end" font-family="sans-serif" font-size="9.67741935483871" opacity="1" fill="#000000">
80%
</text>
<polyline fill="none" opacity="1" stroke="#000000" stroke-width="1" points="34,127 39,127 "/>
<text x="30" y="71" dy="0.5ex" text-anchor="end" font-family="sans-serif" font-size="9.67741935483871" opacity="1" fill="#000000">
90%
</text>
<polyline fill="none" opacity="1" stroke="#000000" stroke-width="1" points="34,71 39,71 "/>
<text x="30" y="14" dy="0.5ex" text-anchor="end" font-family="sans-serif" font-size="9.67741935483871" opacity="1" fill="#000000">
100%
</text>
<polyline fill="none" opacity="1" stroke="#000000" stroke-width="1" points="34,14 39,14 "/>
<polyline fill="none" opacity="1" stroke="#000000" stroke-width="1" points="40,580 947,580 "/>
<text x="40" y="590" dy="0.76em" text-anchor="middle" font-family="sans-serif" font-size="9.67741935483871" opacity="1" fill="#000000">
2019-03-16
</text>
<polyline fill="none" opacity="1" stroke="#000000" stroke-width="1" points="40,580 40,585 "/>
<text x="139" y="590" dy="0.76em" text-anchor="middle" font-family="sans-serif" font-size="9.67741935483871" opacity="1" fill="#000000">
2019-05-18
</text>
<polyline fill="none" opacity="1" stroke="#000000" stroke-width="1" points="139,580 139,585 "/>
<text x="238" y="590" dy="0.76em" text-anchor="middle" font-family="sans-serif" font-size="9.67741935483871" opacity="1" fill="#000000">
2019-07-20
</text>
<polyline fill="none" opacity="1" stroke="#000000" stroke-width="1" points="238,580 238,585 "/>
<text x="338" y="590" dy="0.76em" text-anchor="middle" font-family="sans-serif" font-size="9.67741935483871" opacity="1" fill="#000000">
2019-09-21
</text>
<polyline fill="none" opacity="1" stroke="#000000" stroke-width="1" points="338,580 338,585 "/>
<text x="437" y="590" dy="0.76em" text-anchor="middle" font-family="sans-serif" font-size="9.67741935483871" opacity="1" fill="#000000">
2019-11-23
</text>
<polyline fill="none" opacity="1" stroke="#000000" stroke-width="1" points="437,580 437,585 "/>
<text x="537" y="590" dy="0.76em" text-anchor="middle" font-family="sans-serif" font-size="9.67741935483871" opacity="1" fill="#000000">
2020-01-25
</text>
<polyline fill="none" opacity="1" stroke="#000000" stroke-width="1" points="537,580 537,585 "/>
<text x="636" y="590" dy="0.76em" text-anchor="middle" font-family="sans-serif" font-size="9.67741935483871" opacity="1" fill="#000000">
2020-03-28
</text>
<polyline fill="none" opacity="1" stroke="#000000" stroke-width="1" points="636,580 636,585 "/>
<text x="735" y="590" dy="0.76em" text-anchor="middle" font-family="sans-serif" font-size="9.67741935483871" opacity="1" fill="#000000">
2020-05-30
</text>
<polyline fill="none" opacity="1" stroke="#000000" stroke-width="1" points="735,580 735,585 "/>
<text x="835" y="590" dy="0.76em" text-anchor="middle" font-family="sans-serif" font-size="9.67741935483871" opacity="1" fill="#000000">
2020-08-01
</text>
<polyline fill="none" opacity="1" stroke="#000000" stroke-width="1" points="835,580 835,585 "/>
<text x="934" y="590" dy="0.76em" text-anchor="middle" font-family="sans-serif" font-size="9.67741935483871" opacity="1" fill="#000000">
2020-10-03
</text>
<polyline fill="none" opacity="1" stroke="#000000" stroke-width="1" points="934,580 934,585 "/>
<polyline fill="none" opacity="1" stroke="#FF0000" stroke-width="1" points="40,578 40,578 47,576 48,575 164,575 168,575 170,575 174,575 177,575 185,573 240,572 240,572 438,571 450,571 479,570 492,570 505,569 505,569 526,568 541,568 549,568 619,568 621,567 622,567 629,567 631,566 632,566 633,565 635,564 637,563 640,563 641,563 643,562 644,562 647,561 649,561 651,560 652,559 654,559 655,558 658,558 660,557 660,557 662,557 663,556 665,556 666,555 668,555 670,554 673,553 674,553 676,552 677,552 680,551 680,551 683,550 684,550 685,550 687,549 690,549 690,548 693,547 694,547 696,547 698,546 700,546 701,545 704,544 706,544 707,543 709,543 711,542 713,542 714,541 716,541 718,540 719,540 721,539 722,539 725,538 727,537 729,537 730,537 732,536 733,536 735,535 737,535 738,534 740,534 741,533 743,533 744,532 746,532 748,532 751,531 752,530 754,530 755,529 757,529 759,528 760,528 762,527 763,527 765,526 766,526 768,526 770,525 771,525 773,524 774,524 776,523 777,523 779,522 781,522 782,521 784,521 785,521 787,520 788,520 790,519 792,519 793,518 795,518 796,517 798,517 800,516 801,516 803,516 804,515 806,515 807,514 809,514 811,513 812,513 814,512 815,512 817,511 819,511 820,511 822,510 823,510 825,509 826,509 828,508 830,508 831,507 833,507 834,506 836,506 837,506 839,505 841,505 842,504 844,504 846,503 847,503 849,502 850,502 852,501 853,501 855,500 857,500 858,500 860,499 861,499 864,498 866,497 867,497 871,496 872,495 874,495 875,495 877,494 878,494 882,493 883,492 885,492 886,491 888,491 890,490 893,490 894,489 896,489 897,488 899,488 901,487 904,486 905,486 907,485 908,485 910,485 912,484 915,483 916,483 918,482 920,482 921,481 923,481 924,480 926,480 927,479 929,479 933,478 934,478 935,477 937,477 938,476 940,476 942,475 944,475 945,474 947,474 "/>
</svg>
