<svg width="987" height="610" viewBox="0 0 987 610" xmlns="http://www.w3.org/2000/svg">
<line opacity="0.1" stroke="#000000" stroke-width="1" x1="40" y1="579" x2="40" y2="9"/>
<line opacity="0.1" stroke="#000000" stroke-width="1" x1="49" y1="579" x2="49" y2="9"/>
<line opacity="0.1" stroke="#000000" stroke-width="1" x1="59" y1="579" x2="59" y2="9"/>
<line opacity="0.1" stroke="#000000" stroke-width="1" x1="68" y1="579" x2="68" y2="9"/>
<line opacity="0.1" stroke="#000000" stroke-width="1" x1="78" y1="579" x2="78" y2="9"/>
<line opacity="0.1" stroke="#000000" stroke-width="1" x1="87" y1="579" x2="87" y2="9"/>
<line opacity="0.1" stroke="#000000" stroke-width="1" x1="97" y1="579" x2="97" y2="9"/>
<line opacity="0.1" stroke="#000000" stroke-width="1" x1="106" y1="579" x2="106" y2="9"/>
<line opacity="0.1" stroke="#000000" stroke-width="1" x1="116" y1="579" x2="116" y2="9"/>
<line opacity="0.1" stroke="#000000" stroke-width="1" x1="125" y1="579" x2="125" y2="9"/>
<line opacity="0.1" stroke="#000000" stroke-width="1" x1="135" y1="579" x2="135" y2="9"/>
<line opacity="0.1" stroke="#000000" stroke-width="1" x1="144" y1="579" x2="144" y2="9"/>
<line opacity="0.1" stroke="#000000" stroke-width="1" x1="154" y1="579" x2="154" y2="9"/>
<line opacity="0.1" stroke="#000000" stroke-width="1" x1="163" y1="579" x2="163" y2="9"/>
<line opacity="0.1" stroke="#000000" stroke-width="1" x1="173" y1="579" x2="173" y2="9"/>
<line opacity="0.1" stroke="#000000" stroke-width="1" x1="182" y1="579" x2="182" y2="9"/>
<line opacity="0.1" stroke="#000000" stroke-width="1" x1="192" y1="579" x2="192" y2="9"/>
<line opacity="0.1" stroke="#000000" stroke-width="1" x1="201" y1="579" x2="201" y2="9"/>
<line opacity="0.1" stroke="#000000" stroke-width="1" x1="211" y1="579" x2="211" y2="9"/>
<line opacity="0.1" stroke="#000000" stroke-width="1" x1="220" y1="579" x2="220" y2="9"/>
<line opacity="0.1" stroke="#000000" stroke-width="1" x1="230" y1="579" x2="230" y2="9"/>
<line opacity="0.1" stroke="#000000" stroke-width="1" x1="239" y1="579" x2="239" y2="9"/>
<line opacity="0.1" stroke="#000000" stroke-width="1" x1="249" y1="579" x2="249" y2="9"/>
<line opacity="0.1" stroke="#000000" stroke-width="1" x1="258" y1="579" x2="258" y2="9"/>
<line opacity="0.1" stroke="#000000" stroke-width="1" x1="268" y1="579" x2="268" y2="9"/>
<line opacity="0.1" stroke="#000000" stroke-width="1" x1="277" y1="579" x2="277" y2="9"/>
<line opacity="0.1" stroke="#000000" stroke-width="1" x1="287" y1="579" x2="287" y2="9"/>
<line opacity="0.1" stroke="#000000" stroke-width="1" x1="296" y1="579" x2="296" y2="9"/>
<line opacity="0.1" stroke="#000000" stroke-width="1" x1="306" y1="579" x2="306" y2="9"/>
<line opacity="0.1" stroke="#000000" stroke-width="1" x1="315" y1="579" x2="315" y2="9"/>
<line opacity="0.1" stroke="#000000" stroke-width="1" x1="325" y1="579" x2="325" y2="9"/>
<line opacity="0.1" stroke="#000000" stroke-width="1" x1="334" y1="579" x2="334" y2="9"/>
<line opacity="0.1" stroke="#000000" stroke-width="1" x1="344" y1="579" x2="344" y2="9"/>
<line opacity="0.1" stroke="#000000" stroke-width="1" x1="353" y1="579" x2="353" y2="9"/>
<line opacity="0.1" stroke="#000000" stroke-width="1" x1="363" y1="579" x2="363" y2="9"/>
<line opacity="0.1" stroke="#000000" stroke-width="1" x1="372" y1="579" x2="372" y2="9"/>
<line opacity="0.1" stroke="#000000" stroke-width="1" x1="382" y1="579" x2="382" y2="9"/>
<line opacity="0.1" stroke="#000000" stroke-width="1" x1="391" y1="579" x2="391" y2="9"/>
<line opacity="0.1" stroke="#000000" stroke-width="1" x1="401" y1="579" x2="401" y2="9"/>
<line opacity="0.1" stroke="#000000" stroke-width="1" x1="410" y1="579" x2="410" y2="9"/>
<line opacity="0.1" stroke="#000000" stroke-width="1" x1="420" y1="579" x2="420" y2="9"/>
<line opacity="0.1" stroke="#000000" stroke-width="1" x1="429" y1="579" x2="429" y2="9"/>
<line opacity="0.1" stroke="#000000" stroke-width="1" x1="439" y1="579" x2="439" y2="9"/>
<line opacity="0.1" stroke="#000000" stroke-width="1" x1="448" y1="579" x2="448" y2="9"/>
<line opacity="0.1" stroke="#000000" stroke-width="1" x1="458" y1="579" x2="458" y2="9"/>
<line opacity="0.1" stroke="#000000" stroke-width="1" x1="467" y1="579" x2="467" y2="9"/>
<line opacity="0.1" stroke="#000000" stroke-width="1" x1="477" y1="579" x2="477" y2="9"/>
<line opacity="0.1" stroke="#000000" stroke-width="1" x1="486" y1="579" x2="486" y2="9"/>
<line opacity="0.1" stroke="#000000" stroke-width="1" x1="496" y1="579" x2="496" y2="9"/>
<line opacity="0.1" stroke="#000000" stroke-width="1" x1="505" y1="579" x2="505" y2="9"/>
<line opacity="0.1" stroke="#000000" stroke-width="1" x1="515" y1="579" x2="515" y2="9"/>
<line opacity="0.1" stroke="#000000" stroke-width="1" x1="524" y1="579" x2="524" y2="9"/>
<line opacity="0.1" stroke="#000000" stroke-width="1" x1="534" y1="579" x2="534" y2="9"/>
<line opacity="0.1" stroke="#000000" stroke-width="1" x1="543" y1="579" x2="543" y2="9"/>
<line opacity="0.1" stroke="#000000" stroke-width="1" x1="553" y1="579" x2="553" y2="9"/>
<line opacity="0.1" stroke="#000000" stroke-width="1" x1="562" y1="579" x2="562" y2="9"/>
<line opacity="0.1" stroke="#000000" stroke-width="1" x1="572" y1="579" x2="572" y2="9"/>
<line opacity="0.1" stroke="#000000" stroke-width="1" x1="581" y1="579" x2="581" y2="9"/>
<line opacity="0.1" stroke="#000000" stroke-width="1" x1="591" y1="579" x2="591" y2="9"/>
<line opacity="0.1" stroke="#000000" stroke-width="1" x1="600" y1="579" x2="600" y2="9"/>
<line opacity="0.1" stroke="#000000" stroke-width="1" x1="610" y1="579" x2="610" y2="9"/>
<line opacity="0.1" stroke="#000000" stroke-width="1" x1="619" y1="579" x2="619" y2="9"/>
<line opacity="0.1" stroke="#000000" stroke-width="1" x1="629" y1="579" x2="629" y2="9"/>
<line opacity="0.1" stroke="#000000" stroke-width="1" x1="638" y1="579" x2="638" y2="9"/>
<line opacity="0.1" stroke="#000000" stroke-width="1" x1="648" y1="579" x2="648" y2="9"/>
<line opacity="0.1" stroke="#000000" stroke-width="1" x1="657" y1="579" x2="657" y2="9"/>
<line opacity="0.1" stroke="#000000" stroke-width="1" x1="667" y1="579" x2="667" y2="9"/>
<line opacity="0.1" stroke="#000000" stroke-width="1" x1="676" y1="579" x2="676" y2="9"/>
<line opacity="0.1" stroke="#000000" stroke-width="1" x1="686" y1="579" x2="686" y2="9"/>
<line opacity="0.1" stroke="#000000" stroke-width="1" x1="695" y1="579" x2="695" y2="9"/>
<line opacity="0.1" stroke="#000000" stroke-width="1" x1="705" y1="579" x2="705" y2="9"/>
<line opacity="0.1" stroke="#000000" stroke-width="1" x1="714" y1="579" x2="714" y2="9"/>
<line opacity="0.1" stroke="#000000" stroke-width="1" x1="724" y1="579" x2="724" y2="9"/>
<line opacity="0.1" stroke="#000000" stroke-width="1" x1="733" y1="579" x2="733" y2="9"/>
<line opacity="0.1" stroke="#000000" stroke-width="1" x1="743" y1="579" x2="743" y2="9"/>
<line opacity="0.1" stroke="#000000" stroke-width="1" x1="752" y1="579" x2="752" y2="9"/>
<line opacity="0.1" stroke="#000000" stroke-width="1" x1="762" y1="579" x2="762" y2="9"/>
<line opacity="0.1" stroke="#000000" stroke-width="1" x1="772" y1="579" x2="772" y2="9"/>
<line opacity="0.1" stroke="#000000" stroke-width="1" x1="781" y1="579" x2="781" y2="9"/>
<line opacity="0.1" stroke="#000000" stroke-width="1" x1="791" y1="579" x2="791" y2="9"/>
<line opacity="0.1" stroke="#000000" stroke-width="1" x1="800" y1="579" x2="800" y2="9"/>
<line opacity="0.1" stroke="#000000" stroke-width="1" x1="810" y1="579" x2="810" y2="9"/>
<line opacity="0.1" stroke="#000000" stroke-width="1" x1="819" y1="579" x2="819" y2="9"/>
<line opacity="0.1" stroke="#000000" stroke-width="1" x1="829" y1="579" x2="829" y2="9"/>
<line opacity="0.1" stroke="#000000" stroke-width="1" x1="838" y1="579" x2="838" y2="9"/>
<line opacity="0.1" stroke="#000000" stroke-width="1" x1="848" y1="579" x2="848" y2="9"/>
<line opacity="0.1" stroke="#000000" stroke-width="1" x1="857" y1="579" x2="857" y2="9"/>
<line opacity="0.1" stroke="#000000" stroke-width="1" x1="867" y1="579" x2="867" y2="9"/>
<line opacity="0.1" stroke="#000000" stroke-width="1" x1="876" y1="579" x2="876" y2="9"/>
<line opacity="0.1" stroke="#000000" stroke-width="1" x1="886" y1="579" x2="886" y2="9"/>
<line opacity="0.1" stroke="#000000" stroke-width="1" x1="895" y1="579" x2="895" y2="9"/>
<line opacity="0.1" stroke="#000000" stroke-width="1" x1="905" y1="579" x2="905" y2="9"/>
<line opacity="0.1" stroke="#000000" stroke-width="1" x1="914" y1="579" x2="914" y2="9"/>
<line opacity="0.1" stroke="#000000" stroke-width="1" x1="924" y1="579" x2="924" y2="9"/>
<line opacity="0.1" stroke="#000000" stroke-width="1" x1="933" y1="579" x2="933" y2="9"/>
<line opacity="0.1" stroke="#000000" stroke-width="1" x1="943" y1="579" x2="943" y2="9"/>
<line opacity="0.1" stroke="#000000" stroke-width="1" x1="40" y1="567" x2="947" y2="567"/>
<line opacity="0.1" stroke="#000000" stroke-width="1" x1="40" y1="556" x2="947" y2="556"/>
<line opacity="0.1" stroke="#000000" stroke-width="1" x1="40" y1="545" x2="947" y2="545"/>
<line opacity="0.1" stroke="#000000" stroke-width="1" x1="40" y1="533" x2="947" y2="533"/>
<line opacity="0.1" stroke="#000000" stroke-width="1" x1="40" y1="522" x2="947" y2="522"/>
<line opacity="0.1" stroke="#000000" stroke-width="1" x1="40" y1="511" x2="947" y2="511"/>
<line opacity="0.1" stroke="#000000" stroke-width="1" x1="40" y1="499" x2="947" y2="499"/>
<line opacity="0.1" stroke="#000000" stroke-width="1" x1="40" y1="488" x2="947" y2="488"/>
<line opacity="0.1" stroke="#000000" stroke-width="1" x1="40" y1="477" x2="947" y2="477"/>
<line opacity="0.1" stroke="#000000" stroke-width="1" x1="40" y1="466" x2="947" y2="466"/>
<line opacity="0.1" stroke="#000000" stroke-width="1" x1="40" y1="454" x2="947" y2="454"/>
<line opacity="0.1" stroke="#000000" stroke-width="1" x1="40" y1="443" x2="947" y2="443"/>
<line opacity="0.1" stroke="#000000" stroke-width="1" x1="40" y1="432" x2="947" y2="432"/>
<line opacity="0.1" stroke="#000000" stroke-width="1" x1="40" y1="420" x2="947" y2="420"/>
<line opacity="0.1" stroke="#000000" stroke-width="1" x1="40" y1="409" x2="947" y2="409"/>
<line opacity="0.1" stroke="#000000" stroke-width="1" x1="40" y1="398" x2="947" y2="398"/>
<line opacity="0.1" stroke="#000000" stroke-width="1" x1="40" y1="387" x2="947" y2="387"/>
<line opacity="0.1" stroke="#000000" stroke-width="1" x1="40" y1="375" x2="947" y2="375"/>
<line opacity="0.1" stroke="#000000" stroke-width="1" x1="40" y1="364" x2="947" y2="364"/>
<line opacity="0.1" stroke="#000000" stroke-width="1" x1="40" y1="353" x2="947" y2="353"/>
<line opacity="0.1" stroke="#000000" stroke-width="1" x1="40" y1="341" x2="947" y2="341"/>
<line opacity="0.1" stroke="#000000" stroke-width="1" x1="40" y1="330" x2="947" y2="330"/>
<line opacity="0.1" stroke="#000000" stroke-width="1" x1="40" y1="319" x2="947" y2="319"/>
<line opacity="0.1" stroke="#000000" stroke-width="1" x1="40" y1="308" x2="947" y2="308"/>
<line opacity="0.1" stroke="#000000" stroke-width="1" x1="40" y1="296" x2="947" y2="296"/>
<line opacity="0.1" stroke="#000000" stroke-width="1" x1="40" y1="285" x2="947" y2="285"/>
<line opacity="0.1" stroke="#000000" stroke-width="1" x1="40" y1="274" x2="947" y2="274"/>
<line opacity="0.1" stroke="#000000" stroke-width="1" x1="40" y1="262" x2="947" y2="262"/>
<line opacity="0.1" stroke="#000000" stroke-width="1" x1="40" y1="251" x2="947" y2="251"/>
<line opacity="0.1" stroke="#000000" stroke-width="1" x1="40" y1="240" x2="947" y2="240"/>
<line opacity="0.1" stroke="#000000" stroke-width="1" x1="40" y1="229" x2="947" y2="229"/>
<line opacity="0.1" stroke="#000000" stroke-width="1" x1="40" y1="217" x2="947" y2="217"/>
<line opacity="0.1" stroke="#000000" stroke-width="1" x1="40" y1="206" x2="947" y2="206"/>
<line opacity="0.1" stroke="#000000" stroke-width="1" x1="40" y1="195" x2="947" y2="195"/>
<line opacity="0.1" stroke="#000000" stroke-width="1" x1="40" y1="183" x2="947" y2="183"/>
<line opacity="0.1" stroke="#000000" stroke-width="1" x1="40" y1="172" x2="947" y2="172"/>
<line opacity="0.1" stroke="#000000" stroke-width="1" x1="40" y1="161" x2="947" y2="161"/>
<line opacity="0.1" stroke="#000000" stroke-width="1" x1="40" y1="150" x2="947" y2="150"/>
<line opacity="0.1" stroke="#000000" stroke-width="1" x1="40" y1="138" x2="947" y2="138"/>
<line opacity="0.1" stroke="#000000" stroke-width="1" x1="40" y1="127" x2="947" y2="127"/>
<line opacity="0.1" stroke="#000000" stroke-width="1" x1="40" y1="116" x2="947" y2="116"/>
<line opacity="0.1" stroke="#000000" stroke-width="1" x1="40" y1="104" x2="947" y2="104"/>
<line opacity="0.1" stroke="#000000" stroke-width="1" x1="40" y1="93" x2="947" y2="93"/>
<line opacity="0.1" stroke="#000000" stroke-width="1" x1="40" y1="82" x2="947" y2="82"/>
<line opacity="0.1" stroke="#000000" stroke-width="1" x1="40" y1="71" x2="947" y2="71"/>
<line opacity="0.1" stroke="#000000" stroke-width="1" x1="40" y1="59" x2="947" y2="59"/>
<line opacity="0.1" stroke="#000000" stroke-width="1" x1="40" y1="48" x2="947" y2="48"/>
<line opacity="0.1" stroke="#000000" stroke-width="1" x1="40" y1="37" x2="947" y2="37"/>
<line opacity="0.1" stroke="#000000" stroke-width="1" x1="40" y1="25" x2="947" y2="25"/>
<line opacity="0.1" stroke="#000000" stroke-width="1" x1="40" y1="14" x2="947" y2="14"/>
<line opacity="0.2" stroke="#000000" stroke-width="1" x1="40" y1="579" x2="40" y2="9"/>
<line opacity="0.2" stroke="#000000" stroke-width="1" x1="135" y1="579" x2="135" y2="9"/>
<line opacity="0.2" stroke="#000000" stroke-width="1" x1="230" y1="579" x2="230" y2="9"/>
<line opacity="0.2" stroke="#000000" stroke-width="1" x1="325" y1="579" x2="325" y2="9"/>
<line opacity="0.2" stroke="#000000" stroke-width="1" x1="420" y1="579" x2="420" y2="9"/>
<line opacity="0.2" stroke="#000000" stroke-width="1" x1="515" y1="579" x2="515" y2="9"/>
<line opacity="0.2" stroke="#000000" stroke-width="1" x1="610" y1="579" x2="610" y2="9"/>
<line opacity="0.2" stroke="#000000" stroke-width="1" x1="705" y1="579" x2="705" y2="9"/>
<line opacity="0.2" stroke="#000000" stroke-width="1" x1="800" y1="579" x2="800" y2="9"/>
<line opacity="0.2" stroke="#000000" stroke-width="1" x1="895" y1="579" x2="895" y2="9"/>
<line opacity="0.2" stroke="#000000" stroke-width="1" x1="40" y1="522" x2="947" y2="522"/>
<line opacity="0.2" stroke="#000000" stroke-width="1" x1="40" y1="466" x2="947" y2="466"/>
<line opacity="0.2" stroke="#000000" stroke-width="1" x1="40" y1="409" x2="947" y2="409"/>
<line opacity="0.2" stroke="#000000" stroke-width="1" x1="40" y1="353" x2="947" y2="353"/>
<line opacity="0.2" stroke="#000000" stroke-width="1" x1="40" y1="296" x2="947" y2="296"/>
<line opacity="0.2" stroke="#000000" stroke-width="1" x1="40" y1="240" x2="947" y2="240"/>
<line opacity="0.2" stroke="#000000" stroke-width="1" x1="40" y1="183" x2="947" y2="183"/>
<line opacity="0.2" stroke="#000000" stroke-width="1" x1="40" y1="127" x2="947" y2="127"/>
<line opacity="0.2" stroke="#000000" stroke-width="1" x1="40" y1="71" x2="947" y2="71"/>
<line opacity="0.2" stroke="#000000" stroke-width="1" x1="40" y1="14" x2="947" y2="14"/>
<polyline fill="none" opacity="1" stroke="#000000" stroke-width="1" points="39,10 39,580 "/>
<text x="30" y="522" dy="0.5ex" text-anchor="end" font-family="sans-serif" font-size="9.67741935483871" opacity="1" fill="#000000">
10%
</text>
<polyline fill="none" opacity="1" stroke="#000000" stroke-width="1" points="34,522 39,522 "/>
<text x="30" y="466" dy="0.5ex" text-anchor="end" font-family="sans-serif" font-size="9.67741935483871" opacity="1" fill="#000000">
20%
</text>
<polyline fill="none" opacity="1" stroke="#000000" stroke-width="1" points="34,466 39,466 "/>
<text x="30" y="409" dy="0.5ex" text-anchor="end" font-family="sans-serif" font-size="9.67741935483871" opacity="1" fill="#000000">
30%
</text>
<polyline fill="none" opacity="1" stroke="#000000" stroke-width="1" points="34,409 39,409 "/>
<text x="30" y="353" dy="0.5ex" text-anchor="end" font-family="sans-serif" font-size="9.67741935483871" opacity="1" fill="#000000">
40%
</text>
<polyline fill="none" opacity="1" stroke="#000000" stroke-width="1" points="34,353 39,353 "/>
<text x="30" y="296" dy="0.5ex" text-anchor="end" font-family="sans-serif" font-size="9.67741935483871" opacity="1" fill="#000000">
50%
</text>
<polyline fill="none" opacity="1" stroke="#000000" stroke-width="1" points="34,296 39,296 "/>
<text x="30" y="240" dy="0.5ex" text-anchor="end" font-family="sans-serif" font-size="9.67741935483871" opacity="1" fill="#000000">
60%
</text>
<polyline fill="none" opacity="1" stroke="#000000" stroke-width="1" points="34,240 39,240 "/>
<text x="30" y="183" dy="0.5ex" text-anchor="end" font-family="sans-serif" font-size="9.67741935483871" opacity="1" fill="#000000">
70%
</text>
<polyline fill="none" opacity="1" stroke="#000000" stroke-width="1" points="34,183 39,183 "/>
<text x="30" y="127" dy="0.5ex" text-anchor="end" font-family="sans-serif" font-size="9.67741935483871" opacity="1" fill="#000000">
80%
</text>
<polyline fill="none" opacity="1" stroke="#000000" stroke-width="1" points="34,127 39,127 "/>
<text x="30" y="71" dy="0.5ex" text-anchor="end" font-family="sans-serif" font-size="9.67741935483871" opacity="1" fill="#000000">
90%
</text>
<polyline fill="none" opacity="1" stroke="#000000" stroke-width="1" points="34,71 39,71 "/>
<text x="30" y="14" dy="0.5ex" text-anchor="end" font-family="sans-serif" font-size="9.67741935483871" opacity="1" fill="#000000">
100%
</text>
<polyline fill="none" opacity="1" stroke="#000000" stroke-width="1" points="34,14 39,14 "/>
<polyline fill="none" opacity="1" stroke="#000000" stroke-width="1" points="40,580 947,580 "/>
<text x="40" y="590" dy="0.76em" text-anchor="middle" font-family="sans-serif" font-size="9.67741935483871" opacity="1" fill="#000000">
2019-03-16
</text>
<polyline fill="none" opacity="1" stroke="#000000" stroke-width="1" points="40,580 40,585 "/>
<text x="135" y="590" dy="0.76em" text-anchor="middle" font-family="sans-serif" font-size="9.67741935483871" opacity="1" fill="#000000">
2019-05-25
</text>
<polyline fill="none" opacity="1" stroke="#000000" stroke-width="1" points="135,580 135,585 "/>
<text x="230" y="590" dy="0.76em" text-anchor="middle" font-family="sans-serif" font-size="9.67741935483871" opacity="1" fill="#000000">
2019-08-03
</text>
<polyline fill="none" opacity="1" stroke="#000000" stroke-width="1" points="230,580 230,585 "/>
<text x="325" y="590" dy="0.76em" text-anchor="middle" font-family="sans-serif" font-size="9.67741935483871" opacity="1" fill="#000000">
2019-10-12
</text>
<polyline fill="none" opacity="1" stroke="#000000" stroke-width="1" points="325,580 325,585 "/>
<text x="420" y="590" dy="0.76em" text-anchor="middle" font-family="sans-serif" font-size="9.67741935483871" opacity="1" fill="#000000">
2019-12-21
</text>
<polyline fill="none" opacity="1" stroke="#000000" stroke-width="1" points="420,580 420,585 "/>
<text x="515" y="590" dy="0.76em" text-anchor="middle" font-family="sans-serif" font-size="9.67741935483871" opacity="1" fill="#000000">
2020-02-29
</text>
<polyline fill="none" opacity="1" stroke="#000000" stroke-width="1" points="515,580 515,585 "/>
<text x="610" y="590" dy="0.76em" text-anchor="middle" font-family="sans-serif" font-size="9.67741935483871" opacity="1" fill="#000000">
2020-05-09
</text>
<polyline fill="none" opacity="1" stroke="#000000" stroke-width="1" points="610,580 610,585 "/>
<text x="705" y="590" dy="0.76em" text-anchor="middle" font-family="sans-serif" font-size="9.67741935483871" opacity="1" fill="#000000">
2020-07-18
</text>
<polyline fill="none" opacity="1" stroke="#000000" stroke-width="1" points="705,580 705,585 "/>
<text x="800" y="590" dy="0.76em" text-anchor="middle" font-family="sans-serif" font-size="9.67741935483871" opacity="1" fill="#000000">
2020-09-26
</text>
<polyline fill="none" opacity="1" stroke="#000000" stroke-width="1" points="800,580 800,585 "/>
<text x="895" y="590" dy="0.76em" text-anchor="middle" font-family="sans-serif" font-size="9.67741935483871" opacity="1" fill="#000000">
2020-12-05
</text>
<polyline fill="none" opacity="1" stroke="#000000" stroke-width="1" points="895,580 895,585 "/>
<polyline fill="none" opacity="1" stroke="#FF0000" stroke-width="1" points="40,578 40,578 46,576 47,576 147,576 150,575 152,575 155,575 158,575 165,574 212,573 212,573 383,572 393,571 417,571 429,570 440,570 440,570 458,569 471,569 478,568 538,568 540,568 541,568 547,567 548,567 549,567 550,566 552,565 554,564 556,564 557,564 558,563 560,563 562,562 564,562 565,561 567,561 569,560 570,560 572,559 573,558 573,558 575,558 576,558 578,557 579,557 580,556 582,555 584,555 586,555 587,554 589,554 591,553 591,553 593,552 594,552 595,552 596,551 599,551 599,550 602,549 603,549 604,549 606,548 608,548 609,547 611,546 613,546 614,546 616,545 617,545 619,544 620,543 622,543 623,543 624,542 626,542 627,541 630,540 631,540 632,540 634,539 635,539 637,538 638,538 639,537 641,537 642,537 643,536 645,536 646,535 647,535 649,534 651,534 653,533 654,533 656,532 657,532 658,532 660,531 661,531 662,530 664,530 665,529 667,529 668,529 669,528 670,528 672,527 673,527 675,526 676,526 677,526 679,525 680,525 681,524 683,524 684,523 685,523 687,523 688,522 690,522 691,521 692,521 694,520 695,520 697,520 698,519 699,519 700,518 702,518 703,517 705,517 706,517 707,516 709,516 710,515 711,515 713,514 714,514 716,514 717,513 718,513 719,512 721,512 722,511 724,511 725,511 726,510 728,510 729,509 730,509 732,508 733,508 734,508 736,507 737,507 738,506 740,506 741,505 743,505 744,505 745,504 747,504 749,503 751,502 752,502 755,501 756,501 757,500 759,500 760,499 761,499 764,498 766,498 767,497 768,497 770,496 771,496 774,495 775,495 776,494 778,494 779,493 780,493 783,492 785,492 786,491 787,491 789,490 790,490 793,489 794,489 796,488 797,488 798,488 800,487 801,487 802,486 804,486 805,485 808,485 809,484 811,484 812,483 813,483 815,482 816,482 818,482 819,481 820,481 821,480 823,480 824,479 825,479 827,479 828,478 831,477 832,477 833,476 835,476 836,476 838,475 839,475 840,474 842,474 843,473 844,473 846,473 847,472 848,472 850,471 851,471 852,470 854,470 855,470 857,469 858,469 859,468 861,468 862,467 863,467 865,467 866,466 867,466 869,465 870,465 872,464 873,464 874,464 876,463 877,463 878,462 880,462 881,461 882,461 884,461 885,460 886,460 888,459 889,459 891,458 892,458 893,458 895,457 896,457 897,456 899,456 900,455 901,455 903,455 904,454 906,454 907,453 908,453 910,452 911,452 912,452 914,451 915,451 916,450 918,450 919,449 920,449 922,449 923,448 925,448 926,447 927,447 929,446 930,446 932,446 933,445 934,445 935,444 937,444 938,443 939,443 941,443 942,442 944,442 947,441 "/>
</svg>
